<?xml version="1.0" standalone="no"?>
<!DOCTYPE svg PUBLIC "-//W3C//DTD SVG 1.1//EN" "http://www.w3.org/Graphics/SVG/1.1/DTD/svg11.dtd" >
<svg xmlns="http://www.w3.org/2000/svg" xmlns:xlink="http://www.w3.org/1999/xlink" version="1.1">
<metadata>
Created by FontForge 20160407 at Fri Oct  7 14:17:46 2016
 By Jimmy Warting
Copyright \(c\) 2012 by Fontfabric LLC. All rights reserved.
</metadata>
<defs>
<font id="iCielPanton-LightItalic" horiz-adv-x="529" >
  <font-face 
    font-family="iCiel Panton"
    font-weight="300"
    font-style="italic"
    font-stretch="normal"
    units-per-em="1000"
    panose-1="0 0 4 0 0 0 0 0 0 0"
    ascent="740"
    descent="-260"
    x-height="512"
    cap-height="710"
    bbox="-371 -253 1126.22 1062.29"
    underline-thickness="50"
    underline-position="-100"
    stemh="34"
    unicode-range="U+0020-FB02"
  />
<missing-glyph horiz-adv-x="686" 
d="M600 697v-684c0 -9 -5 -13 -14 -13h-481c-9 0 -14 4 -14 13v684c0 9 5 13 14 13h481c9 0 14 -4 14 -13zM138 667v-624h415v624h-415z" />
    <glyph glyph-name="uniFB01" unicode="fi" horiz-adv-x="538" 
d="M398 740h136c8 0 11 -4 9 -12l-2 -16c-2 -8 -7 -12 -14 -12h-137c-61 0 -104 -10 -129 -31c-27 -21 -45 -62 -56 -123l-5 -34h294c8 0 11 -4 9 -11l-86 -489c-2 -8 -7 -12 -14 -12h-19c-9 0 -12 4 -10 12l82 461h-263l-81 -461c-2 -8 -7 -12 -15 -12h-19
c-8 0 -11 4 -9 12l81 461h-104c-7 0 -11 4 -10 11l3 17c2 7 7 11 14 11h104l5 33c13 73 38 124 73 153c35 28 90 42 163 42z" />
    <glyph glyph-name="uniFB02" unicode="fl" horiz-adv-x="536" 
d="M398 740h130c7 0 11 -4 10 -12l-127 -716c-2 -8 -7 -12 -14 -12h-19c-8 0 -11 4 -9 12l120 688h-99c-60 0 -103 -10 -129 -31c-27 -22 -45 -63 -56 -123l-5 -34h134c8 0 11 -4 9 -11l-3 -17c-1 -7 -5 -11 -13 -11h-134l-81 -461c-2 -8 -7 -12 -15 -12h-19
c-8 0 -11 4 -9 12l81 461h-104c-7 0 -11 4 -10 11l3 17c2 7 7 11 14 11h104l5 34c13 72 38 122 73 151s90 43 163 43z" />
    <glyph glyph-name=".notdef" horiz-adv-x="686" 
d="M600 697v-684c0 -9 -5 -13 -14 -13h-481c-9 0 -14 4 -14 13v684c0 9 5 13 14 13h481c9 0 14 -4 14 -13zM138 667v-624h415v624h-415z" />
    <glyph glyph-name="nonmarkingreturn" unicode=" " horiz-adv-x="247" 
 />
    <glyph glyph-name="A" unicode="A" horiz-adv-x="630" 
d="M413 703l155 -691c1 -8 -2 -12 -11 -12h-17c-13 0 -19 4 -20 11l-50 221h-332l-127 -221c-4 -7 -12 -11 -25 -11h-18c-11 0 -13 4 -7 12l398 691c5 8 11 12 19 12h20c8 0 13 -4 15 -12zM464 271l-80 355c-1 9 -2 23 -2 43h-2l-5 -16c-3 -10 -7 -19 -11 -27l-205 -355h305
z" />
    <glyph glyph-name="Aacute" unicode="&#xc1;" horiz-adv-x="630" 
d="M302 788l188 107c10 5 17 4 22 -2l7 -11c6 -7 5 -12 -4 -15l-196 -102c-7 -3 -13 -2 -16 1l-5 8c-3 6 -2 11 4 14zM413 703l155 -691c1 -8 -2 -12 -11 -12h-17c-13 0 -19 4 -20 11l-50 221h-332l-127 -221c-4 -7 -12 -11 -25 -11h-18c-11 0 -13 4 -7 12l398 691
c5 8 11 12 19 12h20c8 0 13 -4 15 -12zM464 271l-80 355c-1 9 -2 23 -2 43h-2l-5 -16c-3 -10 -7 -19 -11 -27l-205 -355h305z" />
    <glyph glyph-name="Abreve" unicode="&#x102;" horiz-adv-x="630" 
d="M567 876c-35 -75 -91 -112 -169 -112c-79 0 -123 37 -131 112c-1 7 1 10 7 11l17 5c7 1 10 0 11 -5c6 -59 40 -89 101 -89s105 30 132 90c3 5 7 6 12 5l16 -6c5 -2 7 -6 4 -11zM413 703l155 -691c1 -8 -2 -12 -11 -12h-17c-13 0 -19 4 -20 11l-50 221h-332l-127 -221
c-4 -7 -12 -11 -25 -11h-18c-11 0 -13 4 -7 12l398 691c5 8 11 12 19 12h20c8 0 13 -4 15 -12zM464 271l-80 355c-1 9 -2 23 -2 43h-2l-5 -16c-3 -10 -7 -19 -11 -27l-205 -355h305z" />
    <glyph glyph-name="Acircumflex" unicode="&#xc2;" horiz-adv-x="630" 
d="M418 897h6c8 0 15 -4 22 -11l113 -112c4 -7 1 -10 -9 -10h-16c-9 0 -15 2 -19 7l-97 95l-133 -95c-5 -5 -12 -7 -21 -7h-20c-11 0 -13 3 -5 10l154 112c8 7 16 11 25 11zM413 703l155 -691c1 -8 -2 -12 -11 -12h-17c-13 0 -19 4 -20 11l-50 221h-332l-127 -221
c-4 -7 -12 -11 -25 -11h-18c-11 0 -13 4 -7 12l398 691c5 8 11 12 19 12h20c8 0 13 -4 15 -12zM464 271l-80 355c-1 9 -2 23 -2 43h-2l-5 -16c-3 -10 -7 -19 -11 -27l-205 -355h305z" />
    <glyph glyph-name="Adieresis" unicode="&#xc4;" horiz-adv-x="630" 
d="M314 853h6c15 0 21 -8 19 -23l-1 -7c-3 -15 -12 -22 -27 -22h-7c-15 0 -21 7 -18 22l1 7c3 15 12 23 27 23zM505 853h6c15 0 22 -8 19 -23l-1 -7c-3 -15 -13 -22 -28 -22h-5c-16 0 -22 7 -19 22l1 7c2 15 11 23 27 23zM413 703l155 -691c1 -8 -2 -12 -11 -12h-17
c-13 0 -19 4 -20 11l-50 221h-332l-127 -221c-4 -7 -12 -11 -25 -11h-18c-11 0 -13 4 -7 12l398 691c5 8 11 12 19 12h20c8 0 13 -4 15 -12zM464 271l-80 355c-1 9 -2 23 -2 43h-2l-5 -16c-3 -10 -7 -19 -11 -27l-205 -355h305z" />
    <glyph glyph-name="Agrave" unicode="&#xc0;" horiz-adv-x="630" 
d="M314 875l10 11c7 6 14 6 23 1l153 -103c5 -3 5 -8 -1 -14l-6 -6c-4 -4 -9 -4 -16 -1l-164 98c-6 3 -6 7 1 14zM413 703l155 -691c1 -8 -2 -12 -11 -12h-17c-13 0 -19 4 -20 11l-50 221h-332l-127 -221c-4 -7 -12 -11 -25 -11h-18c-11 0 -13 4 -7 12l398 691
c5 8 11 12 19 12h20c8 0 13 -4 15 -12zM464 271l-80 355c-1 9 -2 23 -2 43h-2l-5 -16c-3 -10 -7 -19 -11 -27l-205 -355h305z" />
    <glyph glyph-name="Amacron" unicode="&#x100;" horiz-adv-x="630" 
d="M292 839h237c7 0 10 -4 9 -11l-2 -10c-1 -8 -5 -12 -12 -12h-238c-7 0 -11 4 -10 12l2 10c1 7 6 11 14 11zM413 703l155 -691c1 -8 -2 -12 -11 -12h-17c-13 0 -19 4 -20 11l-50 221h-332l-127 -221c-4 -7 -12 -11 -25 -11h-18c-11 0 -13 4 -7 12l398 691c5 8 11 12 19 12
h20c8 0 13 -4 15 -12zM464 271l-80 355c-1 9 -2 23 -2 43h-2l-5 -16c-3 -10 -7 -19 -11 -27l-205 -355h305z" />
    <glyph glyph-name="Aogonek" unicode="&#x104;" horiz-adv-x="630" 
d="M378 715h20c8 0 13 -4 15 -12l155 -691c1 -5 0 -9 -3 -10c-100 -73 -145 -135 -135 -185c3 -20 16 -30 39 -30c24 0 47 10 68 29c5 3 7 3 8 -2l4 -17c1 -3 0 -7 -4 -10c-27 -23 -58 -34 -93 -34c-37 0 -57 16 -62 49c-10 61 37 129 142 202c-7 0 -12 3 -13 10l-49 218
h-332l-127 -221c-4 -7 -12 -11 -25 -11h-18c-11 0 -13 4 -7 12l398 691c5 8 11 12 19 12zM464 271l-80 355c-1 9 -2 23 -2 43h-2l-5 -16c-3 -10 -7 -19 -11 -27l-205 -355h305z" />
    <glyph glyph-name="Aring" unicode="&#xc5;" horiz-adv-x="630" 
d="M296 789c5 30 19 54 42 72c21 17 48 26 80 26c31 0 54 -9 69 -28c15 -18 19 -42 14 -73c-8 -51 -37 -81 -87 -91l154 -683c1 -8 -2 -12 -11 -12h-17c-13 0 -19 4 -20 11l-50 221h-332l-127 -221c-4 -7 -12 -11 -25 -11h-18c-11 0 -13 4 -7 12l394 682
c-48 11 -68 42 -59 95zM473 787c4 22 1 40 -10 53s-27 20 -50 20c-51 0 -80 -24 -88 -73c-4 -22 0 -39 11 -52s28 -20 51 -20c50 0 79 24 86 72zM464 271l-80 355c-1 9 -2 23 -2 43h-2l-5 -16c-3 -10 -7 -19 -11 -27l-205 -355h305z" />
    <glyph glyph-name="Aringacute" unicode="&#x1fa;" horiz-adv-x="630" 
d="M331 882l170 72c9 5 16 4 20 -1l7 -10c3 -5 2 -9 -4 -11l-181 -71c-7 -3 -12 -2 -15 1l-4 8c-3 4 -1 8 7 12zM300 763c5 27 18 48 39 64c21 17 45 25 73 25c29 0 50 -8 65 -25s21 -39 16 -66c-8 -42 -34 -67 -79 -75l154 -674c1 -8 -2 -12 -11 -12h-17
c-13 0 -19 4 -20 11l-51 229h-326l-132 -229c-4 -7 -12 -11 -25 -11h-18c-11 0 -13 4 -7 12l391 674c-19 4 -34 13 -43 27c-9 15 -12 31 -9 50zM465 762c3 19 0 35 -11 47s-26 18 -45 18c-21 0 -39 -6 -54 -18c-15 -13 -24 -28 -27 -47c-3 -17 0 -31 11 -42
c10 -11 25 -17 46 -17c19 0 37 6 52 17s25 25 28 42zM461 279l-56 257c-3 13 -7 37 -12 71c-5 29 -8 48 -11 58h-2c-6 -9 -16 -28 -30 -57c-17 -34 -30 -58 -37 -71l-149 -258h297z" />
    <glyph glyph-name="Atilde" unicode="&#xc3;" horiz-adv-x="630" 
d="M548 875h13c6 0 8 -3 6 -8c-11 -63 -41 -94 -90 -94c-25 0 -50 12 -76 36s-48 36 -67 36c-32 0 -52 -21 -60 -64c-1 -5 -4 -8 -9 -8h-14c-5 0 -8 3 -7 8c11 63 42 94 92 94c25 0 51 -12 77 -36s48 -36 66 -36c33 0 52 21 59 64c1 5 4 8 10 8zM413 703l155 -691
c1 -8 -2 -12 -11 -12h-17c-13 0 -19 4 -20 11l-50 221h-332l-127 -221c-4 -7 -12 -11 -25 -11h-18c-11 0 -13 4 -7 12l398 691c5 8 11 12 19 12h20c8 0 13 -4 15 -12zM464 271l-80 355c-1 9 -2 23 -2 43h-2l-5 -16c-3 -10 -7 -19 -11 -27l-205 -355h305z" />
    <glyph glyph-name="AE" unicode="&#xc6;" horiz-adv-x="816" 
d="M426 43h296c9 0 12 -4 10 -12l-3 -18c-2 -9 -7 -13 -15 -13h-327c-8 0 -12 4 -11 13l31 174h-269l-137 -176c-7 -7 -15 -11 -25 -11h-20c-11 0 -13 4 -7 12l536 686c7 8 13 12 19 12h321c9 0 13 -4 11 -13l-4 -18c-1 -8 -5 -12 -14 -12h-282l-50 -286h238
c9 0 12 -4 10 -13l-3 -18c-2 -8 -7 -12 -15 -12h-238zM488 638l-320 -412h246z" />
    <glyph glyph-name="AEacute" unicode="&#x1fc;" horiz-adv-x="816" 
d="M580 788l188 107c10 5 17 4 22 -2l7 -11c6 -7 5 -12 -4 -15l-196 -102c-7 -3 -13 -2 -16 1l-5 8c-3 6 -2 11 4 14zM426 43h296c9 0 12 -4 10 -12l-3 -18c-2 -9 -7 -13 -15 -13h-327c-8 0 -12 4 -11 13l31 174h-269l-137 -176c-7 -7 -15 -11 -25 -11h-20
c-11 0 -13 4 -7 12l536 686c7 8 13 12 19 12h321c9 0 13 -4 11 -13l-4 -18c-1 -8 -5 -12 -14 -12h-282l-50 -286h238c9 0 12 -4 10 -13l-3 -18c-2 -8 -7 -12 -15 -12h-238zM488 638l-320 -412h246z" />
    <glyph glyph-name="B" unicode="B" horiz-adv-x="640" 
d="M167 710h283c59 0 103 -16 130 -47c28 -32 37 -77 27 -134c-15 -84 -59 -138 -132 -162v-2c39 -9 67 -30 84 -62s22 -71 13 -118c-23 -123 -101 -185 -233 -185h-297c-9 0 -12 4 -10 13l121 684c1 9 5 13 14 13zM559 526c17 94 -23 141 -120 141h-246l-50 -284h246
c97 0 154 48 170 143zM524 193c9 47 2 83 -20 109s-57 39 -106 39h-262l-53 -298h263c101 0 161 50 178 150z" />
    <glyph glyph-name="C" unicode="C" horiz-adv-x="632" 
d="M48 235l43 245c14 77 47 137 99 179c54 43 124 65 211 65c75 0 132 -15 169 -45c35 -28 55 -71 62 -130c2 -8 -1 -13 -10 -16l-17 -6c-9 -3 -14 0 -15 8c-7 51 -24 87 -53 110c-31 24 -78 36 -141 36c-73 0 -131 -18 -176 -54c-44 -35 -72 -84 -83 -148l-42 -245
c-11 -65 -1 -115 30 -150c32 -36 84 -54 156 -54c118 0 201 50 248 150c5 8 11 11 18 8l19 -7c7 -3 9 -8 5 -17c-29 -60 -64 -104 -106 -132c-48 -31 -111 -46 -188 -46c-86 0 -149 22 -190 67c-39 44 -52 105 -39 182z" />
    <glyph glyph-name="Cacute" unicode="&#x106;" horiz-adv-x="632" 
d="M317 788l188 107c11 5 18 4 23 -2l7 -11c5 -7 3 -12 -5 -15l-195 -102c-8 -3 -13 -2 -16 1l-5 8c-4 6 -3 11 3 14zM48 235l43 245c14 77 47 137 99 179c54 43 124 65 211 65c75 0 132 -15 169 -45c35 -28 55 -71 62 -130c2 -8 -1 -13 -10 -16l-17 -6c-9 -3 -14 0 -15 8
c-7 51 -24 87 -53 110c-31 24 -78 36 -141 36c-73 0 -131 -18 -176 -54c-44 -35 -72 -84 -83 -148l-42 -245c-11 -65 -1 -115 30 -150c32 -36 84 -54 156 -54c118 0 201 50 248 150c5 8 11 11 18 8l19 -7c7 -3 9 -8 5 -17c-29 -60 -64 -104 -106 -132
c-48 -31 -111 -46 -188 -46c-86 0 -149 22 -190 67c-39 44 -52 105 -39 182z" />
    <glyph glyph-name="Ccaron" unicode="&#x10c;" horiz-adv-x="632" 
d="M570 898h19c11 0 12 -4 3 -11l-152 -111c-9 -8 -18 -12 -26 -12h-5c-8 0 -15 4 -22 12l-113 111c-2 2 -3 4 -2 7s5 4 10 4h18c7 0 13 -2 18 -7l97 -95l133 95c5 5 13 7 22 7zM48 235l43 245c14 77 47 137 99 179c54 43 124 65 211 65c75 0 132 -15 169 -45
c35 -28 55 -71 62 -130c2 -8 -1 -13 -10 -16l-17 -6c-9 -3 -14 0 -15 8c-7 51 -24 87 -53 110c-31 24 -78 36 -141 36c-73 0 -131 -18 -176 -54c-44 -35 -72 -84 -83 -148l-42 -245c-11 -65 -1 -115 30 -150c32 -36 84 -54 156 -54c118 0 201 50 248 150c5 8 11 11 18 8
l19 -7c7 -3 9 -8 5 -17c-29 -60 -64 -104 -106 -132c-48 -31 -111 -46 -188 -46c-86 0 -149 22 -190 67c-39 44 -52 105 -39 182z" />
    <glyph glyph-name="Ccedilla" unicode="&#xc7;" horiz-adv-x="632" 
d="M402 724c75 0 132 -15 169 -45c35 -28 55 -71 62 -130c2 -8 -1 -13 -10 -16l-17 -6c-9 -3 -14 0 -15 8c-7 51 -24 87 -53 110c-31 24 -78 36 -141 36c-73 0 -131 -18 -176 -54c-44 -35 -72 -84 -83 -148l-42 -245c-11 -65 -1 -115 30 -150c32 -36 84 -54 156 -54
c118 0 201 50 248 150c5 8 11 11 18 8l19 -7c7 -3 9 -8 5 -17c-53 -113 -144 -173 -273 -178l-38 -71c12 3 23 4 32 4c28 0 48 -7 61 -21c13 -13 18 -32 13 -55c-12 -61 -55 -91 -128 -91c-32 0 -59 7 -80 22c-6 4 -8 9 -6 16l2 13c1 7 4 8 8 5c19 -18 45 -27 77 -27
c53 0 84 22 91 66c5 33 -15 49 -60 49c-17 0 -30 -2 -39 -5c-11 -2 -14 2 -7 13l45 82c-83 1 -144 24 -183 69c-39 44 -51 104 -38 180l43 245c14 77 47 137 99 179c54 43 124 65 211 65z" />
    <glyph glyph-name="Ccircumflex" unicode="&#x108;" horiz-adv-x="632" 
d="M433 897h6c8 0 15 -4 22 -11l113 -112c4 -7 1 -10 -8 -10h-16c-9 0 -16 2 -19 7l-98 95l-133 -95c-5 -5 -12 -7 -20 -7h-21c-12 0 -13 3 -4 10l153 112c9 7 17 11 25 11zM48 235l43 245c14 77 47 137 99 179c54 43 124 65 211 65c75 0 132 -15 169 -45
c35 -28 55 -71 62 -130c2 -8 -1 -13 -10 -16l-17 -6c-9 -3 -14 0 -15 8c-7 51 -24 87 -53 110c-31 24 -78 36 -141 36c-73 0 -131 -18 -176 -54c-44 -35 -72 -84 -83 -148l-42 -245c-11 -65 -1 -115 30 -150c32 -36 84 -54 156 -54c118 0 201 50 248 150c5 8 11 11 18 8
l19 -7c7 -3 9 -8 5 -17c-29 -60 -64 -104 -106 -132c-48 -31 -111 -46 -188 -46c-86 0 -149 22 -190 67c-39 44 -52 105 -39 182z" />
    <glyph glyph-name="Cdotaccent" unicode="&#x10a;" horiz-adv-x="632" 
d="M425 849h4c17 0 23 -8 20 -24l-1 -5c-3 -15 -12 -23 -28 -23h-4c-16 0 -23 8 -20 23l1 5c3 16 13 24 28 24zM48 235l43 245c14 77 47 137 99 179c54 43 124 65 211 65c75 0 132 -15 169 -45c35 -28 55 -71 62 -130c2 -8 -1 -13 -10 -16l-17 -6c-9 -3 -14 0 -15 8
c-7 51 -24 87 -53 110c-31 24 -78 36 -141 36c-73 0 -131 -18 -176 -54c-44 -35 -72 -84 -83 -148l-42 -245c-11 -65 -1 -115 30 -150c32 -36 84 -54 156 -54c118 0 201 50 248 150c5 8 11 11 18 8l19 -7c7 -3 9 -8 5 -17c-29 -60 -64 -104 -106 -132
c-48 -31 -111 -46 -188 -46c-86 0 -149 22 -190 67c-39 44 -52 105 -39 182z" />
    <glyph glyph-name="D" unicode="D" horiz-adv-x="646" 
d="M167 710h205c92 0 159 -24 202 -73c41 -47 55 -112 40 -195l-32 -182c-15 -82 -51 -146 -108 -191c-59 -46 -134 -69 -226 -69h-206c-9 0 -12 4 -10 13l121 684c1 9 5 13 14 13zM537 264l32 182c13 70 1 124 -34 163s-92 58 -170 58h-172l-110 -624h172
c77 0 141 19 190 58s79 93 92 163z" />
    <glyph glyph-name="Eth" unicode="&#xd0;" horiz-adv-x="655" 
d="M175 710h204c92 0 159 -24 202 -73c42 -48 56 -113 41 -196l-32 -182c-15 -82 -51 -146 -108 -191c-59 -45 -135 -68 -228 -68h-204c-9 0 -12 4 -10 13l57 328h-80c-7 0 -10 3 -9 10l3 13c2 7 6 10 12 10h81l57 323c1 9 5 13 14 13zM545 264l32 182c12 70 1 124 -33 163
c-35 39 -92 58 -171 58h-172l-51 -293h192c5 0 8 -3 7 -10l-3 -13c-1 -7 -4 -10 -11 -10h-192l-52 -298h172c77 0 141 19 190 58s79 93 92 163z" />
    <glyph glyph-name="Dcaron" unicode="&#x10e;" horiz-adv-x="646" 
d="M548 898h19c11 0 12 -4 3 -11l-152 -111c-9 -8 -18 -12 -25 -12h-6c-8 0 -15 4 -22 12l-113 111c-2 2 -3 4 -2 7s5 4 10 4h18c7 0 13 -2 18 -7l97 -95l133 95c5 5 13 7 22 7zM167 710h205c92 0 159 -24 202 -73c41 -47 55 -112 40 -195l-32 -182
c-15 -82 -51 -146 -108 -191c-59 -46 -134 -69 -226 -69h-206c-9 0 -12 4 -10 13l121 684c1 9 5 13 14 13zM537 264l32 182c13 70 1 124 -34 163s-92 58 -170 58h-172l-110 -624h172c77 0 141 19 190 58s79 93 92 163z" />
    <glyph glyph-name="Dcroat" unicode="&#x110;" horiz-adv-x="655" 
d="M175 710h204c92 0 159 -24 202 -73c42 -48 56 -113 41 -196l-32 -182c-15 -82 -51 -146 -108 -191c-59 -45 -135 -68 -228 -68h-204c-9 0 -12 4 -10 13l57 328h-80c-7 0 -10 3 -9 10l3 13c2 7 6 10 12 10h81l57 323c1 9 5 13 14 13zM545 264l32 182c12 70 1 124 -33 163
c-35 39 -92 58 -171 58h-172l-51 -293h192c5 0 8 -3 7 -10l-3 -13c-1 -7 -4 -10 -11 -10h-192l-52 -298h172c77 0 141 19 190 58s79 93 92 163z" />
    <glyph glyph-name="E" unicode="E" horiz-adv-x="569" 
d="M167 710h409c9 0 12 -4 10 -13l-4 -18c-1 -8 -5 -12 -14 -12h-375l-50 -286h331c9 0 13 -4 11 -12l-4 -18c-2 -9 -7 -13 -15 -13h-331l-52 -295h389c9 0 12 -4 10 -12l-3 -18c-2 -9 -7 -13 -15 -13h-422c-9 0 -12 4 -10 13l121 684c1 9 5 13 14 13z" />
    <glyph glyph-name="Eacute" unicode="&#xc9;" horiz-adv-x="569" 
d="M286 788l188 107c11 5 18 4 23 -2l7 -11c5 -7 3 -12 -5 -15l-195 -102c-8 -3 -13 -2 -16 1l-5 8c-4 6 -3 11 3 14zM167 710h409c9 0 12 -4 10 -13l-4 -18c-1 -8 -5 -12 -14 -12h-375l-50 -286h331c9 0 13 -4 11 -12l-4 -18c-2 -9 -7 -13 -15 -13h-331l-52 -295h389
c9 0 12 -4 10 -12l-3 -18c-2 -9 -7 -13 -15 -13h-422c-9 0 -12 4 -10 13l121 684c1 9 5 13 14 13z" />
    <glyph glyph-name="Ebreve" unicode="&#x114;" horiz-adv-x="569" 
d="M551 876c-35 -75 -91 -112 -168 -112c-80 0 -124 37 -132 112c0 7 3 10 8 11l17 5c7 2 10 0 11 -5c5 -59 38 -89 101 -89c60 0 104 30 131 90c3 5 8 7 13 5l16 -6c5 -2 6 -6 3 -11zM167 710h409c9 0 12 -4 10 -13l-4 -18c-1 -8 -5 -12 -14 -12h-375l-50 -286h331
c9 0 13 -4 11 -12l-4 -18c-2 -9 -7 -13 -15 -13h-331l-52 -295h389c9 0 12 -4 10 -12l-3 -18c-2 -9 -7 -13 -15 -13h-422c-9 0 -12 4 -10 13l121 684c1 9 5 13 14 13z" />
    <glyph glyph-name="Ecaron" unicode="&#x11a;" horiz-adv-x="569" 
d="M539 898h19c11 0 12 -4 3 -11l-152 -111c-9 -8 -18 -12 -25 -12h-6c-8 0 -15 4 -22 12l-113 111c-2 2 -3 4 -2 7s5 4 10 4h18c7 0 13 -2 18 -7l97 -95l133 95c5 5 13 7 22 7zM167 710h409c9 0 12 -4 10 -13l-4 -18c-1 -8 -5 -12 -14 -12h-375l-50 -286h331
c9 0 13 -4 11 -12l-4 -18c-2 -9 -7 -13 -15 -13h-331l-52 -295h389c9 0 12 -4 10 -12l-3 -18c-2 -9 -7 -13 -15 -13h-422c-9 0 -12 4 -10 13l121 684c1 9 5 13 14 13z" />
    <glyph glyph-name="Ecircumflex" unicode="&#xca;" horiz-adv-x="569" 
d="M402 897h6c8 0 15 -4 22 -11l113 -112c4 -7 1 -10 -8 -10h-16c-9 0 -15 2 -19 7l-98 95l-133 -95c-5 -5 -12 -7 -20 -7h-21c-12 0 -13 3 -4 10l153 112c9 7 17 11 25 11zM167 710h409c9 0 12 -4 10 -13l-4 -18c-1 -8 -5 -12 -14 -12h-375l-50 -286h331c9 0 13 -4 11 -12
l-4 -18c-2 -9 -7 -13 -15 -13h-331l-52 -295h389c9 0 12 -4 10 -12l-3 -18c-2 -9 -7 -13 -15 -13h-422c-9 0 -12 4 -10 13l121 684c1 9 5 13 14 13z" />
    <glyph glyph-name="Edieresis" unicode="&#xcb;" horiz-adv-x="569" 
d="M298 853h6c15 0 22 -8 19 -23l-1 -7c-3 -15 -12 -22 -27 -22h-6c-15 0 -22 7 -19 22l2 7c2 15 11 23 26 23zM490 853h5c15 0 22 -8 20 -23l-2 -7c-3 -15 -12 -22 -27 -22h-6c-15 0 -22 7 -19 22l1 7c3 15 12 23 28 23zM167 710h409c9 0 12 -4 10 -13l-4 -18
c-1 -8 -5 -12 -14 -12h-375l-50 -286h331c9 0 13 -4 11 -12l-4 -18c-2 -9 -7 -13 -15 -13h-331l-52 -295h389c9 0 12 -4 10 -12l-3 -18c-2 -9 -7 -13 -15 -13h-422c-9 0 -12 4 -10 13l121 684c1 9 5 13 14 13z" />
    <glyph glyph-name="Edotaccent" unicode="&#x116;" horiz-adv-x="569" 
d="M394 849h4c17 0 23 -8 20 -24l-1 -5c-2 -15 -11 -23 -28 -23h-4c-16 0 -23 8 -20 23l1 5c3 16 13 24 28 24zM167 710h409c9 0 12 -4 10 -13l-4 -18c-1 -8 -5 -12 -14 -12h-375l-50 -286h331c9 0 13 -4 11 -12l-4 -18c-2 -9 -7 -13 -15 -13h-331l-52 -295h389
c9 0 12 -4 10 -12l-3 -18c-2 -9 -7 -13 -15 -13h-422c-9 0 -12 4 -10 13l121 684c1 9 5 13 14 13z" />
    <glyph glyph-name="Egrave" unicode="&#xc8;" horiz-adv-x="569" 
d="M298 875l11 11c6 6 14 6 23 1l153 -103c5 -3 4 -8 -1 -14l-7 -6c-4 -4 -9 -4 -16 -1l-163 98c-7 3 -7 7 0 14zM167 710h409c9 0 12 -4 10 -13l-4 -18c-1 -8 -5 -12 -14 -12h-375l-50 -286h331c9 0 13 -4 11 -12l-4 -18c-2 -9 -7 -13 -15 -13h-331l-52 -295h389
c9 0 12 -4 10 -12l-3 -18c-2 -9 -7 -13 -15 -13h-422c-9 0 -12 4 -10 13l121 684c1 9 5 13 14 13z" />
    <glyph glyph-name="Emacron" unicode="&#x112;" horiz-adv-x="569" 
d="M276 839h238c7 0 10 -4 9 -11l-2 -10c-2 -8 -6 -12 -13 -12h-238c-7 0 -10 4 -9 12l2 10c1 7 6 11 13 11zM167 710h409c9 0 12 -4 10 -13l-4 -18c-1 -8 -5 -12 -14 -12h-375l-50 -286h331c9 0 13 -4 11 -12l-4 -18c-2 -9 -7 -13 -15 -13h-331l-52 -295h389
c9 0 12 -4 10 -12l-3 -18c-2 -9 -7 -13 -15 -13h-422c-9 0 -12 4 -10 13l121 684c1 9 5 13 14 13z" />
    <glyph glyph-name="Eogonek" unicode="&#x118;" horiz-adv-x="569" 
d="M167 710h409c9 0 12 -4 10 -13l-4 -18c-1 -8 -5 -12 -14 -12h-375l-50 -286h331c9 0 13 -4 11 -12l-4 -18c-2 -9 -7 -13 -15 -13h-331l-52 -295h389c9 0 12 -4 10 -12l-3 -18c-1 -4 -3 -8 -6 -11c-101 -75 -146 -136 -137 -185c3 -20 16 -30 38 -30c25 0 47 10 68 29
c5 3 7 3 8 -2l4 -17c1 -3 0 -7 -3 -10c-29 -23 -60 -34 -94 -34c-37 0 -57 16 -62 49c-10 61 37 127 141 198h-394c-9 0 -12 4 -10 13l121 684c1 9 5 13 14 13z" />
    <glyph glyph-name="F" unicode="F" horiz-adv-x="558" 
d="M167 710h409c9 0 12 -4 10 -13l-4 -18c-1 -8 -5 -12 -14 -12h-375l-52 -296h326c9 0 12 -4 10 -13l-3 -18c-1 -8 -6 -12 -15 -12h-326l-55 -315c-2 -9 -7 -13 -15 -13h-21c-9 0 -12 4 -10 13l121 684c1 9 5 13 14 13z" />
    <glyph glyph-name="G" unicode="G" horiz-adv-x="651" 
d="M350 358h246c9 0 13 -5 11 -14l-21 -120c-13 -75 -46 -133 -99 -174c-54 -43 -124 -64 -210 -64c-87 0 -150 23 -190 68c-39 44 -52 105 -38 182l43 244c14 77 47 137 99 179c54 43 125 65 212 65c140 0 217 -58 231 -174c2 -9 -1 -14 -10 -17l-19 -6c-8 -3 -13 0 -15 8
c-6 51 -23 87 -52 110c-31 24 -78 36 -141 36c-149 0 -236 -67 -259 -202l-43 -245c-11 -65 -1 -115 30 -150c32 -37 85 -55 158 -55c71 0 130 18 175 54c45 35 72 83 83 144l15 87h-214c-9 0 -12 4 -10 13l3 18c2 9 7 13 15 13z" />
    <glyph glyph-name="Gbreve" unicode="&#x11e;" horiz-adv-x="651" 
d="M583 886c-33 -75 -89 -112 -168 -112c-81 0 -124 37 -131 112c-1 7 1 10 7 11l17 5c7 2 10 0 11 -5c6 -59 40 -89 101 -89s105 30 131 90c3 5 8 7 13 5l16 -6c5 -2 6 -6 3 -11zM350 358h246c9 0 13 -5 11 -14l-21 -120c-13 -75 -46 -133 -99 -174
c-54 -43 -124 -64 -210 -64c-87 0 -150 23 -190 68c-39 44 -52 105 -38 182l43 244c14 77 47 137 99 179c54 43 125 65 212 65c140 0 217 -58 231 -174c2 -9 -1 -14 -10 -17l-19 -6c-8 -3 -13 0 -15 8c-6 51 -23 87 -52 110c-31 24 -78 36 -141 36
c-149 0 -236 -67 -259 -202l-43 -245c-11 -65 -1 -115 30 -150c32 -37 85 -55 158 -55c71 0 130 18 175 54c45 35 72 83 83 144l15 87h-214c-9 0 -12 4 -10 13l3 18c2 9 7 13 15 13z" />
    <glyph glyph-name="Gcircumflex" unicode="&#x11c;" horiz-adv-x="651" 
d="M435 907h5c8 0 15 -4 22 -11l113 -112c5 -7 3 -10 -8 -10h-16c-9 0 -15 2 -19 7l-98 95l-132 -95c-5 -5 -12 -7 -21 -7h-21c-11 0 -12 3 -4 10l153 112c9 7 17 11 26 11zM350 358h246c9 0 13 -5 11 -14l-21 -120c-13 -75 -46 -133 -99 -174c-54 -43 -124 -64 -210 -64
c-87 0 -150 23 -190 68c-39 44 -52 105 -38 182l43 244c14 77 47 137 99 179c54 43 125 65 212 65c140 0 217 -58 231 -174c2 -9 -1 -14 -10 -17l-19 -6c-8 -3 -13 0 -15 8c-6 51 -23 87 -52 110c-31 24 -78 36 -141 36c-149 0 -236 -67 -259 -202l-43 -245
c-11 -65 -1 -115 30 -150c32 -37 85 -55 158 -55c71 0 130 18 175 54c45 35 72 83 83 144l15 87h-214c-9 0 -12 4 -10 13l3 18c2 9 7 13 15 13z" />
    <glyph glyph-name="uni0122" unicode="&#x122;" horiz-adv-x="651" 
d="M350 358h246c9 0 13 -5 11 -14l-21 -120c-13 -75 -46 -133 -99 -174c-54 -43 -124 -64 -210 -64c-87 0 -150 23 -190 68c-39 44 -52 105 -38 182l43 244c14 77 47 137 99 179c54 43 125 65 212 65c140 0 217 -58 231 -174c2 -9 -1 -14 -10 -17l-19 -6c-8 -3 -13 0 -15 8
c-6 51 -23 87 -52 110c-31 24 -78 36 -141 36c-149 0 -236 -67 -259 -202l-43 -245c-11 -65 -1 -115 30 -150c32 -37 85 -55 158 -55c71 0 130 18 175 54c45 35 72 83 83 144l15 87h-214c-9 0 -12 4 -10 13l3 18c2 9 7 13 15 13zM304 -91l-73 -143c-4 -7 -9 -11 -16 -11h-14
c-7 0 -10 3 -7 9l65 146c3 8 9 12 17 12h19c10 0 13 -4 9 -13z" />
    <glyph glyph-name="Gdotaccent" unicode="&#x120;" horiz-adv-x="651" 
d="M426 859h5c16 0 23 -8 20 -24l-2 -5c-2 -15 -11 -23 -28 -23h-4c-15 0 -21 8 -20 23l2 5c3 16 12 24 27 24zM350 358h246c9 0 13 -5 11 -14l-21 -120c-13 -75 -46 -133 -99 -174c-54 -43 -124 -64 -210 -64c-87 0 -150 23 -190 68c-39 44 -52 105 -38 182l43 244
c14 77 47 137 99 179c54 43 125 65 212 65c140 0 217 -58 231 -174c2 -9 -1 -14 -10 -17l-19 -6c-8 -3 -13 0 -15 8c-6 51 -23 87 -52 110c-31 24 -78 36 -141 36c-149 0 -236 -67 -259 -202l-43 -245c-11 -65 -1 -115 30 -150c32 -37 85 -55 158 -55c71 0 130 18 175 54
c45 35 72 83 83 144l15 87h-214c-9 0 -12 4 -10 13l3 18c2 9 7 13 15 13z" />
    <glyph glyph-name="H" unicode="H" horiz-adv-x="681" 
d="M635 710h22c9 0 12 -4 10 -13l-121 -684c-1 -9 -5 -13 -14 -13h-22c-9 0 -12 4 -10 13l57 325h-422l-57 -325c-2 -9 -7 -13 -15 -13h-21c-9 0 -12 4 -10 13l121 684c1 9 5 13 14 13h21c8 0 12 -4 11 -13l-56 -316h422l56 316c2 9 7 13 14 13z" />
    <glyph glyph-name="Hbar" unicode="&#x126;" horiz-adv-x="686" 
d="M650 584h68c7 0 9 -3 7 -10l-1 -10c-1 -7 -4 -11 -11 -11h-68l-95 -540c-2 -9 -7 -13 -15 -13h-21c-9 0 -12 4 -10 13l57 325h-423l-57 -325c-2 -9 -7 -13 -15 -13h-21c-9 0 -12 4 -10 13l96 540h-67c-6 0 -9 4 -8 11l2 10c1 7 4 10 11 10h67l20 113c2 9 7 13 14 13h21
c9 0 13 -4 11 -13l-20 -113h422l21 113c1 9 5 13 14 13h21c8 0 12 -4 11 -13zM177 553l-30 -172h422l30 172h-422z" />
    <glyph glyph-name="Hcircumflex" unicode="&#x124;" horiz-adv-x="681" 
d="M442 897h6c8 0 15 -4 22 -11l113 -112c4 -7 1 -10 -8 -10h-16c-9 0 -15 2 -19 7l-98 95l-133 -95c-5 -5 -12 -7 -20 -7h-21c-12 0 -13 3 -4 10l153 112c9 7 17 11 25 11zM635 710h22c9 0 12 -4 10 -13l-121 -684c-1 -9 -5 -13 -14 -13h-22c-9 0 -12 4 -10 13l57 325h-422
l-57 -325c-2 -9 -7 -13 -15 -13h-21c-9 0 -12 4 -10 13l121 684c1 9 5 13 14 13h21c8 0 12 -4 11 -13l-56 -316h422l56 316c2 9 7 13 14 13z" />
    <glyph glyph-name="I" unicode="I" horiz-adv-x="212" 
d="M32 13l121 684c1 9 5 13 14 13h21c8 0 12 -4 11 -13l-121 -684c-2 -9 -7 -13 -15 -13h-21c-9 0 -12 4 -10 13z" />
    <glyph glyph-name="IJ" unicode="&#x132;" horiz-adv-x="781" 
d="M32 13l121 684c1 9 5 13 14 13h21c8 0 12 -4 11 -13l-121 -684c-2 -9 -7 -13 -15 -13h-21c-9 0 -12 4 -10 13zM741 710h22c9 0 13 -4 11 -12l-86 -487c-13 -72 -42 -127 -88 -166c-47 -40 -109 -60 -184 -60c-131 0 -198 66 -201 197c-1 9 3 14 10 17l20 6
c9 3 14 1 15 -8c1 -112 55 -168 160 -168c61 0 110 17 149 50c38 33 62 79 73 138l85 481c2 8 7 12 14 12z" />
    <glyph glyph-name="Iacute" unicode="&#xcd;" horiz-adv-x="212" 
d="M92 788l188 107c10 5 17 4 22 -2l7 -11c5 -7 3 -12 -4 -15l-196 -102c-7 -3 -13 -2 -16 1l-5 8c-3 6 -2 11 4 14zM32 13l121 684c1 9 5 13 14 13h21c8 0 12 -4 11 -13l-121 -684c-2 -9 -7 -13 -15 -13h-21c-9 0 -12 4 -10 13z" />
    <glyph glyph-name="Ibreve" unicode="&#x12c;" horiz-adv-x="212" 
d="M357 876c-35 -75 -91 -112 -169 -112c-79 0 -123 37 -131 112c-1 7 1 10 7 11l17 5c7 2 10 0 11 -5c6 -59 40 -89 101 -89s105 30 132 90c3 5 7 6 12 5l16 -6c5 -2 7 -6 4 -11zM32 13l121 684c1 9 5 13 14 13h21c8 0 12 -4 11 -13l-121 -684c-2 -9 -7 -13 -15 -13h-21
c-9 0 -12 4 -10 13z" />
    <glyph glyph-name="Icircumflex" unicode="&#xce;" horiz-adv-x="212" 
d="M209 897h5c9 0 16 -4 23 -11l112 -112c5 -7 3 -10 -8 -10h-16c-9 0 -15 2 -19 7l-98 95l-132 -95c-5 -5 -12 -7 -21 -7h-20c-11 0 -13 3 -5 10l153 112c9 7 17 11 26 11zM33 13l121 684c1 9 5 13 14 13h21c8 0 12 -4 11 -13l-121 -684c-2 -9 -7 -13 -15 -13h-21
c-9 0 -12 4 -10 13z" />
    <glyph glyph-name="Idieresis" unicode="&#xcf;" horiz-adv-x="212" 
d="M104 853h6c15 0 21 -8 19 -23l-1 -7c-3 -15 -12 -22 -27 -22h-7c-15 0 -21 7 -18 22l1 7c3 15 12 23 27 23zM295 853h6c15 0 22 -8 19 -23l-1 -7c-3 -15 -13 -22 -28 -22h-5c-16 0 -23 7 -20 22l2 7c2 15 11 23 27 23zM32 13l121 684c1 9 5 13 14 13h21c8 0 12 -4 11 -13
l-121 -684c-2 -9 -7 -13 -15 -13h-21c-9 0 -12 4 -10 13z" />
    <glyph glyph-name="Idotaccent" unicode="&#x130;" horiz-adv-x="212" 
d="M199 849h5c16 0 23 -8 20 -24l-1 -5c-3 -15 -12 -23 -28 -23h-5c-15 0 -22 8 -19 23l1 5c3 16 12 24 27 24zM32 13l121 684c1 9 5 13 14 13h21c8 0 12 -4 11 -13l-121 -684c-2 -9 -7 -13 -15 -13h-21c-9 0 -12 4 -10 13z" />
    <glyph glyph-name="Igrave" unicode="&#xcc;" horiz-adv-x="212" 
d="M104 875l10 11c7 6 14 6 23 1l153 -103c5 -3 4 -8 -1 -14l-6 -6c-4 -4 -9 -4 -16 -1l-164 98c-6 3 -6 7 1 14zM32 13l121 684c1 9 5 13 14 13h21c8 0 12 -4 11 -13l-121 -684c-2 -9 -7 -13 -15 -13h-21c-9 0 -12 4 -10 13z" />
    <glyph glyph-name="Imacron" unicode="&#x12a;" horiz-adv-x="212" 
d="M81 839h238c7 0 10 -4 9 -11l-2 -10c-1 -8 -5 -12 -12 -12h-238c-7 0 -11 4 -10 12l2 10c1 7 6 11 13 11zM32 13l121 684c1 9 5 13 14 13h21c8 0 12 -4 11 -13l-121 -684c-2 -9 -7 -13 -15 -13h-21c-9 0 -12 4 -10 13z" />
    <glyph glyph-name="Iogonek" unicode="&#x12e;" horiz-adv-x="213" 
d="M96 -187l4 -14c0 -4 -1 -7 -4 -10c-28 -24 -59 -36 -94 -36c-38 0 -59 16 -62 47c-9 53 24 120 99 203c-6 0 -9 4 -8 12l121 682c3 9 8 13 15 13h21c8 0 12 -4 11 -13l-121 -684c-1 -4 -3 -8 -6 -11c-69 -79 -100 -140 -91 -183c4 -21 16 -31 37 -31c27 0 50 9 70 27
c5 3 7 3 8 -2z" />
    <glyph glyph-name="Itilde" unicode="&#x128;" horiz-adv-x="212" 
d="M338 875h13c6 0 8 -3 6 -8c-11 -63 -41 -94 -91 -94c-24 0 -49 12 -75 36s-48 36 -67 36c-32 0 -52 -21 -60 -64c-1 -5 -4 -8 -9 -8h-14c-5 0 -8 3 -7 8c11 63 42 94 92 94c25 0 51 -12 77 -36s48 -36 66 -36c33 0 52 21 59 64c1 5 4 8 10 8zM32 13l121 684
c1 9 5 13 14 13h21c8 0 12 -4 11 -13l-121 -684c-2 -9 -7 -13 -15 -13h-21c-9 0 -12 4 -10 13z" />
    <glyph glyph-name="J" unicode="J" horiz-adv-x="566" 
d="M525 710h22c9 0 13 -4 11 -12l-86 -487c-13 -72 -42 -127 -88 -166c-47 -40 -109 -60 -184 -60c-131 0 -198 66 -200 197c-2 9 1 14 9 17l20 6c9 3 14 0 15 -8c1 -112 55 -168 160 -168c61 0 110 17 149 50c38 33 62 79 73 138l85 481c2 8 7 12 14 12z" />
    <glyph glyph-name="Jcircumflex" unicode="&#x134;" horiz-adv-x="566" 
d="M567 897h5c9 0 16 -4 23 -11l112 -112c5 -7 3 -10 -8 -10h-16c-9 0 -15 2 -19 7l-98 95l-132 -95c-5 -5 -12 -7 -21 -7h-20c-11 0 -13 3 -5 10l153 112c9 7 17 11 26 11zM526 710h21c9 0 13 -4 11 -12l-86 -487c-27 -151 -117 -226 -272 -226c-131 0 -198 66 -200 197
c-2 9 1 14 9 17l21 6c9 3 13 0 14 -8c2 -112 55 -168 160 -168c61 0 111 17 150 50c38 33 62 79 72 138l86 481c1 8 5 12 14 12z" />
    <glyph glyph-name="K" unicode="K" horiz-adv-x="599" 
d="M445 262l83 -249c3 -9 -1 -13 -10 -13h-19c-12 0 -19 4 -22 11l-76 233c-11 35 -26 59 -44 72c-20 15 -50 23 -91 23h-131l-57 -326c-2 -9 -7 -13 -15 -13h-21c-9 0 -12 4 -10 13l121 684c1 9 5 13 14 13h21c8 0 12 -4 11 -13l-56 -316h124c11 0 20 0 25 -1l292 319
c6 7 15 11 27 11h23c11 0 13 -4 4 -13l-301 -327c52 -12 88 -48 108 -108z" />
    <glyph glyph-name="uni0136" unicode="&#x136;" horiz-adv-x="599" 
d="M445 262l83 -249c3 -9 -1 -13 -10 -13h-19c-12 0 -19 4 -22 11l-76 233c-11 35 -26 59 -44 72c-20 15 -50 23 -91 23h-131l-57 -326c-2 -9 -7 -13 -15 -13h-21c-9 0 -12 4 -10 13l121 684c1 9 5 13 14 13h21c8 0 12 -4 11 -13l-56 -316h124c11 0 20 0 25 -1l292 319
c6 7 15 11 27 11h23c11 0 13 -4 4 -13l-301 -327c52 -12 88 -48 108 -108zM284 -91l-73 -143c-3 -7 -9 -11 -16 -11h-13c-8 0 -11 3 -8 9l66 146c3 8 8 12 17 12h18c11 0 14 -4 9 -13z" />
    <glyph glyph-name="L" unicode="L" horiz-adv-x="509" 
d="M167 710h21c8 0 12 -4 11 -13l-116 -654h364c9 0 12 -4 10 -12l-3 -18c-2 -9 -7 -13 -15 -13h-397c-9 0 -12 4 -10 13l121 684c1 9 5 13 14 13z" />
    <glyph glyph-name="Lacute" unicode="&#x139;" horiz-adv-x="509" 
d="M92 788l188 107c11 5 18 4 23 -2l7 -11c5 -7 3 -12 -5 -15l-195 -102c-8 -3 -13 -2 -16 1l-5 8c-3 6 -2 11 3 14zM167 710h21c8 0 12 -4 11 -13l-116 -654h364c9 0 12 -4 10 -12l-3 -18c-2 -9 -7 -13 -15 -13h-397c-9 0 -12 4 -10 13l121 684c1 9 5 13 14 13z" />
    <glyph glyph-name="Lcaron" unicode="&#x13d;" horiz-adv-x="510" 
d="M167 710h21c8 0 12 -4 11 -13l-116 -654h364c9 0 12 -4 10 -12l-3 -18c-2 -9 -7 -13 -15 -13h-397c-9 0 -12 4 -10 13l121 684c1 9 5 13 14 13zM479 697l-85 -197c-3 -8 -8 -12 -15 -12h-11c-7 0 -9 3 -8 10l77 200c1 8 7 12 16 12h17c10 0 13 -4 9 -13z" />
    <glyph glyph-name="uni013B" unicode="&#x13b;" horiz-adv-x="509" 
d="M167 710h21c8 0 12 -4 11 -13l-116 -654h364c9 0 12 -4 10 -12l-3 -18c-2 -9 -7 -13 -15 -13h-397c-9 0 -12 4 -10 13l121 684c1 9 5 13 14 13zM250 -91l-73 -143c-3 -7 -9 -11 -16 -11h-13c-7 0 -10 3 -7 9l65 146c3 8 8 12 17 12h18c11 0 14 -4 9 -13z" />
    <glyph glyph-name="Ldot" unicode="&#x13f;" horiz-adv-x="509" 
d="M167 710h21c8 0 12 -4 11 -13l-116 -654h364c9 0 12 -4 10 -12l-3 -18c-2 -9 -7 -13 -15 -13h-397c-9 0 -12 4 -10 13l121 684c1 9 5 13 14 13zM325 383h5c18 0 25 -9 22 -27l-1 -5c-3 -19 -14 -28 -33 -28h-5c-18 0 -25 9 -22 28l2 5c3 18 13 27 32 27z" />
    <glyph glyph-name="Lslash" unicode="&#x141;" 
d="M104 43h363c9 0 12 -4 10 -12l-3 -18c-2 -9 -7 -13 -15 -13h-397c-9 0 -12 4 -10 13l50 285l-98 -44c-6 -3 -10 -1 -11 5l-5 14c-3 6 -2 10 5 13l116 52l64 359c1 9 5 13 14 13h21c8 0 12 -4 11 -13l-60 -338l234 104c7 3 11 2 14 -4l4 -14c1 -6 -1 -10 -7 -13l-252 -112
z" />
    <glyph glyph-name="M" unicode="M" horiz-adv-x="797" 
d="M753 710h20c8 0 12 -4 11 -13l-121 -684c-2 -9 -7 -13 -15 -13h-20c-9 0 -12 4 -10 13l82 459c9 53 21 109 36 167h-2c-31 -47 -65 -95 -100 -143l-234 -316c-5 -7 -11 -10 -18 -10h-11c-8 0 -13 3 -15 10l-125 320c-15 39 -31 85 -47 139h-2c-4 -39 -12 -95 -24 -167
l-81 -459c-2 -9 -7 -13 -15 -13h-20c-9 0 -12 4 -10 13l121 684c1 9 5 13 14 13h15c9 0 14 -4 17 -11l185 -473l349 472c5 8 12 12 20 12z" />
    <glyph glyph-name="N" unicode="N" horiz-adv-x="689" 
d="M644 710h20c9 0 13 -4 11 -13l-121 -684c-2 -9 -7 -13 -15 -13h-20c-7 0 -11 3 -13 8l-264 506c-8 16 -18 40 -31 72c-12 29 -21 49 -26 58h-3l-10 -73c-5 -40 -9 -71 -12 -92l-83 -466c-2 -9 -7 -13 -15 -13h-20c-9 0 -12 4 -10 13l121 684c1 9 5 13 14 13h17
c6 0 11 -2 14 -7l258 -493c11 -20 23 -46 37 -79c15 -35 25 -56 29 -64h3c2 11 5 38 10 81c5 40 9 73 14 99l80 451c2 8 7 12 15 12z" />
    <glyph glyph-name="Nacute" unicode="&#x143;" horiz-adv-x="689" 
d="M330 788l188 107c11 5 18 4 22 -2l7 -11c6 -7 5 -12 -4 -15l-195 -102c-8 -3 -13 -2 -16 1l-6 8c-3 6 -2 11 4 14zM644 710h20c9 0 13 -4 11 -13l-121 -684c-2 -9 -7 -13 -15 -13h-20c-7 0 -11 3 -13 8l-264 506c-8 16 -18 40 -31 72c-12 29 -21 49 -26 58h-3l-10 -73
c-5 -40 -9 -71 -12 -92l-83 -466c-2 -9 -7 -13 -15 -13h-20c-9 0 -12 4 -10 13l121 684c1 9 5 13 14 13h17c6 0 11 -2 14 -7l258 -493c11 -20 23 -46 37 -79c15 -35 25 -56 29 -64h3c2 11 5 38 10 81c5 40 9 73 14 99l80 451c2 8 7 12 15 12z" />
    <glyph glyph-name="Ncaron" unicode="&#x147;" horiz-adv-x="689" 
d="M583 898h18c10 0 11 -4 4 -11l-152 -111c-9 -8 -18 -12 -26 -12h-5c-8 0 -15 4 -22 12l-113 111c-2 2 -3 4 -2 7s5 4 10 4h18c7 0 13 -2 17 -7l98 -95l133 95c5 5 13 7 22 7zM644 710h20c9 0 13 -4 11 -13l-121 -684c-2 -9 -7 -13 -15 -13h-20c-7 0 -11 3 -13 8l-264 506
c-8 16 -18 40 -31 72c-12 29 -21 49 -26 58h-3l-10 -73c-5 -40 -9 -71 -12 -92l-83 -466c-2 -9 -7 -13 -15 -13h-20c-9 0 -12 4 -10 13l121 684c1 9 5 13 14 13h17c6 0 11 -2 14 -7l258 -493c11 -20 23 -46 37 -79c15 -35 25 -56 29 -64h3c2 11 5 38 10 81c5 40 9 73 14 99
l80 451c2 8 7 12 15 12z" />
    <glyph glyph-name="uni0145" unicode="&#x145;" horiz-adv-x="689" 
d="M644 710h20c9 0 13 -4 11 -13l-121 -684c-2 -9 -7 -13 -15 -13h-20c-7 0 -11 3 -13 8l-264 506c-8 16 -18 40 -31 72c-12 29 -21 49 -26 58h-3l-10 -73c-5 -40 -9 -71 -12 -92l-83 -466c-2 -9 -7 -13 -15 -13h-20c-9 0 -12 4 -10 13l121 684c1 9 5 13 14 13h17
c6 0 11 -2 14 -7l258 -493c11 -20 23 -46 37 -79c15 -35 25 -56 29 -64h3c2 11 5 38 10 81c5 40 9 73 14 99l80 451c2 8 7 12 15 12zM310 -91l-73 -143c-4 -7 -9 -11 -16 -11h-13c-8 0 -11 3 -8 9l66 146c3 8 8 12 16 12h19c10 0 13 -4 9 -13z" />
    <glyph glyph-name="Eng" unicode="&#x14a;" horiz-adv-x="689" 
d="M645 710h21c8 0 12 -4 11 -13l-126 -710c-12 -69 -41 -122 -86 -159c-45 -39 -103 -58 -174 -58c-7 0 -11 4 -10 12l3 17c1 7 6 11 14 11c57 0 103 16 140 48c36 31 59 75 69 131l2 16l-266 509c-8 16 -19 40 -32 72c-12 29 -21 49 -26 58h-2c-1 -8 -4 -29 -8 -64
c-4 -34 -8 -62 -11 -83l-87 -484c-2 -9 -7 -13 -15 -13h-20c-9 0 -12 4 -10 13l121 684c1 9 5 13 14 13h19c6 0 11 -2 14 -7l257 -495c11 -20 23 -46 37 -78c15 -34 24 -55 29 -64h3c2 11 6 38 11 81c5 41 9 74 14 100l80 451c1 8 5 12 14 12z" />
    <glyph glyph-name="Ntilde" unicode="&#xd1;" horiz-adv-x="689" 
d="M576 875h13c5 0 8 -3 7 -8c-12 -63 -42 -94 -91 -94c-25 0 -50 12 -76 36s-48 36 -67 36c-32 0 -52 -21 -60 -64c-1 -5 -4 -8 -9 -8h-14c-6 0 -8 3 -6 8c11 63 41 94 91 94c25 0 51 -12 77 -36s48 -36 66 -36c33 0 52 21 59 64c2 5 5 8 10 8zM644 710h20
c9 0 13 -4 11 -13l-121 -684c-2 -9 -7 -13 -15 -13h-20c-7 0 -11 3 -13 8l-264 506c-8 16 -18 40 -31 72c-12 29 -21 49 -26 58h-3l-10 -73c-5 -40 -9 -71 -12 -92l-83 -466c-2 -9 -7 -13 -15 -13h-20c-9 0 -12 4 -10 13l121 684c1 9 5 13 14 13h17c6 0 11 -2 14 -7
l258 -493c11 -20 23 -46 37 -79c15 -35 25 -56 29 -64h3c2 11 5 38 10 81c5 40 9 73 14 99l80 451c2 8 7 12 15 12z" />
    <glyph glyph-name="O" unicode="O" horiz-adv-x="663" 
d="M50 237l44 244c13 77 46 137 99 179c54 43 125 64 212 64c86 0 149 -23 189 -69c39 -45 52 -106 38 -183l-43 -244c-13 -77 -46 -137 -99 -178c-54 -43 -124 -64 -210 -64c-87 0 -150 23 -191 68c-40 45 -53 106 -39 183zM543 233l43 244c11 65 1 115 -30 150
c-33 36 -85 54 -157 54c-149 0 -236 -68 -259 -204l-44 -244c-11 -65 -1 -115 32 -150c32 -36 84 -54 157 -54c71 0 129 18 174 54c45 35 73 85 84 150z" />
    <glyph glyph-name="Oacute" unicode="&#xd3;" horiz-adv-x="663" 
d="M321 798l188 107c11 5 18 4 22 -2l7 -11c6 -7 5 -12 -4 -15l-195 -102c-8 -3 -13 -2 -16 1l-6 8c-3 6 -2 11 4 14zM50 237l44 244c13 77 46 137 99 179c54 43 125 64 212 64c86 0 149 -23 189 -69c39 -45 52 -106 38 -183l-43 -244c-13 -77 -46 -137 -99 -178
c-54 -43 -124 -64 -210 -64c-87 0 -150 23 -191 68c-40 45 -53 106 -39 183zM543 233l43 244c11 65 1 115 -30 150c-33 36 -85 54 -157 54c-149 0 -236 -68 -259 -204l-44 -244c-11 -65 -1 -115 32 -150c32 -36 84 -54 157 -54c71 0 129 18 174 54c45 35 73 85 84 150z" />
    <glyph glyph-name="Obreve" unicode="&#x14e;" horiz-adv-x="663" 
d="M586 886c-35 -75 -91 -112 -168 -112c-80 0 -124 37 -132 112c-1 7 1 10 7 11l17 5c7 1 10 0 11 -5c6 -59 40 -89 101 -89s105 30 132 90c3 5 7 6 12 5l16 -6c5 -2 7 -6 4 -11zM50 237l44 244c13 77 46 137 99 179c54 43 125 64 212 64c86 0 149 -23 189 -69
c39 -45 52 -106 38 -183l-43 -244c-13 -77 -46 -137 -99 -178c-54 -43 -124 -64 -210 -64c-87 0 -150 23 -191 68c-40 45 -53 106 -39 183zM543 233l43 244c11 65 1 115 -30 150c-33 36 -85 54 -157 54c-149 0 -236 -68 -259 -204l-44 -244c-11 -65 -1 -115 32 -150
c32 -36 84 -54 157 -54c71 0 129 18 174 54c45 35 73 85 84 150z" />
    <glyph glyph-name="Ocircumflex" unicode="&#xd4;" horiz-adv-x="663" 
d="M437 907h6c8 0 15 -4 22 -11l113 -112c4 -7 1 -10 -9 -10h-15c-9 0 -16 2 -19 7l-98 95l-133 -95c-5 -5 -12 -7 -20 -7h-21c-11 0 -13 3 -5 10l154 112c8 7 16 11 25 11zM50 237l44 244c13 77 46 137 99 179c54 43 125 64 212 64c86 0 149 -23 189 -69
c39 -45 52 -106 38 -183l-43 -244c-13 -77 -46 -137 -99 -178c-54 -43 -124 -64 -210 -64c-87 0 -150 23 -191 68c-40 45 -53 106 -39 183zM543 233l43 244c11 65 1 115 -30 150c-33 36 -85 54 -157 54c-149 0 -236 -68 -259 -204l-44 -244c-11 -65 -1 -115 32 -150
c32 -36 84 -54 157 -54c71 0 129 18 174 54c45 35 73 85 84 150z" />
    <glyph glyph-name="Odieresis" unicode="&#xd6;" horiz-adv-x="663" 
d="M333 863h6c15 0 22 -8 19 -23l-1 -7c-3 -15 -12 -22 -27 -22h-6c-15 0 -22 7 -19 22l1 7c3 15 12 23 27 23zM524 863h6c15 0 22 -8 19 -23l-1 -7c-3 -15 -12 -22 -27 -22h-6c-16 0 -22 7 -19 22l1 7c3 15 12 23 27 23zM50 237l44 244c13 77 46 137 99 179
c54 43 125 64 212 64c86 0 149 -23 189 -69c39 -45 52 -106 38 -183l-43 -244c-13 -77 -46 -137 -99 -178c-54 -43 -124 -64 -210 -64c-87 0 -150 23 -191 68c-40 45 -53 106 -39 183zM543 233l43 244c11 65 1 115 -30 150c-33 36 -85 54 -157 54c-149 0 -236 -68 -259 -204
l-44 -244c-11 -65 -1 -115 32 -150c32 -36 84 -54 157 -54c71 0 129 18 174 54c45 35 73 85 84 150z" />
    <glyph glyph-name="Ograve" unicode="&#xd2;" horiz-adv-x="663" 
d="M333 885l10 11c7 6 15 6 24 1l152 -103c5 -3 5 -8 -1 -14l-6 -6c-4 -4 -9 -4 -16 -1l-163 98c-7 3 -7 7 0 14zM50 237l44 244c13 77 46 137 99 179c54 43 125 64 212 64c86 0 149 -23 189 -69c39 -45 52 -106 38 -183l-43 -244c-13 -77 -46 -137 -99 -178
c-54 -43 -124 -64 -210 -64c-87 0 -150 23 -191 68c-40 45 -53 106 -39 183zM543 233l43 244c11 65 1 115 -30 150c-33 36 -85 54 -157 54c-149 0 -236 -68 -259 -204l-44 -244c-11 -65 -1 -115 32 -150c32 -36 84 -54 157 -54c71 0 129 18 174 54c45 35 73 85 84 150z" />
    <glyph glyph-name="Ohungarumlaut" unicode="&#x150;" horiz-adv-x="663" 
d="M284 788l121 113c7 7 14 9 21 8l15 -4c8 -3 8 -7 1 -14l-132 -113c-7 -5 -12 -7 -16 -5l-8 3c-7 1 -7 5 -2 12zM457 787l123 114c7 7 14 9 21 8l15 -4c10 -3 11 -7 2 -14l-135 -114c-7 -6 -13 -8 -16 -5l-9 3c-7 2 -8 6 -1 12zM50 237l44 244c13 77 46 137 99 179
c54 43 125 64 212 64c86 0 149 -23 189 -69c39 -45 52 -106 38 -183l-43 -244c-13 -77 -46 -137 -99 -178c-54 -43 -124 -64 -210 -64c-87 0 -150 23 -191 68c-40 45 -53 106 -39 183zM543 233l43 244c11 65 1 115 -30 150c-33 36 -85 54 -157 54c-149 0 -236 -68 -259 -204
l-44 -244c-11 -65 -1 -115 32 -150c32 -36 84 -54 157 -54c71 0 129 18 174 54c45 35 73 85 84 150z" />
    <glyph glyph-name="Omacron" unicode="&#x14c;" horiz-adv-x="663" 
d="M311 849h237c7 0 10 -4 9 -11l-2 -10c-1 -8 -5 -12 -12 -12h-238c-8 0 -11 4 -9 12l1 10c1 7 6 11 14 11zM50 237l44 244c13 77 46 137 99 179c54 43 125 64 212 64c86 0 149 -23 189 -69c39 -45 52 -106 38 -183l-43 -244c-13 -77 -46 -137 -99 -178
c-54 -43 -124 -64 -210 -64c-87 0 -150 23 -191 68c-40 45 -53 106 -39 183zM543 233l43 244c11 65 1 115 -30 150c-33 36 -85 54 -157 54c-149 0 -236 -68 -259 -204l-44 -244c-11 -65 -1 -115 32 -150c32 -36 84 -54 157 -54c71 0 129 18 174 54c45 35 73 85 84 150z" />
    <glyph glyph-name="Oslash" unicode="&#xd8;" horiz-adv-x="663" 
d="M658 749h25c4 0 4 -2 1 -5l-81 -100c32 -43 42 -100 29 -172l-43 -244c-13 -77 -46 -137 -99 -178c-54 -43 -124 -64 -210 -64c-75 0 -133 17 -172 51l-61 -75c-3 -3 -7 -5 -13 -5h-23c-5 0 -5 2 -2 5l77 95c-37 44 -49 104 -36 180l44 244c13 77 46 137 99 179
c54 43 125 64 212 64c79 0 139 -20 178 -59l64 80c3 3 6 4 11 4zM121 99l431 530c-31 35 -82 52 -153 52c-149 0 -236 -68 -259 -204l-44 -244c-9 -57 -1 -101 25 -134zM543 233l43 244c9 51 4 93 -17 124l-431 -528c33 -29 82 -44 147 -44c71 0 129 18 174 54
c45 35 73 85 84 150z" />
    <glyph glyph-name="Oslashacute" unicode="&#x1fe;" horiz-adv-x="663" 
d="M321 798l188 107c11 5 18 4 22 -2l7 -11c6 -7 5 -12 -4 -15l-195 -102c-8 -3 -13 -2 -16 1l-6 8c-3 6 -2 11 4 14zM658 749h25c4 0 4 -2 1 -5l-81 -100c32 -43 42 -100 29 -172l-43 -244c-13 -77 -46 -137 -99 -178c-54 -43 -124 -64 -210 -64c-75 0 -133 17 -172 51
l-61 -75c-3 -3 -7 -5 -13 -5h-23c-5 0 -5 2 -2 5l77 95c-37 44 -49 104 -36 180l44 244c13 77 46 137 99 179c54 43 125 64 212 64c79 0 139 -20 178 -59l64 80c3 3 6 4 11 4zM121 99l431 530c-31 35 -82 52 -153 52c-149 0 -236 -68 -259 -204l-44 -244
c-9 -57 -1 -101 25 -134zM543 233l43 244c9 51 4 93 -17 124l-431 -528c33 -29 82 -44 147 -44c71 0 129 18 174 54c45 35 73 85 84 150z" />
    <glyph glyph-name="Otilde" unicode="&#xd5;" horiz-adv-x="663" 
d="M567 885h13c5 0 8 -3 7 -8c-12 -63 -42 -94 -91 -94c-25 0 -50 12 -76 36s-48 36 -67 36c-33 0 -52 -21 -59 -64c-2 -5 -5 -8 -10 -8h-14c-6 0 -8 3 -6 8c11 63 41 94 91 94c25 0 51 -12 77 -36s48 -36 66 -36c33 0 52 21 59 64c2 5 5 8 10 8zM50 237l44 244
c13 77 46 137 99 179c54 43 125 64 212 64c86 0 149 -23 189 -69c39 -45 52 -106 38 -183l-43 -244c-13 -77 -46 -137 -99 -178c-54 -43 -124 -64 -210 -64c-87 0 -150 23 -191 68c-40 45 -53 106 -39 183zM543 233l43 244c11 65 1 115 -30 150c-33 36 -85 54 -157 54
c-149 0 -236 -68 -259 -204l-44 -244c-11 -65 -1 -115 32 -150c32 -36 84 -54 157 -54c71 0 129 18 174 54c45 35 73 85 84 150z" />
    <glyph glyph-name="OE" unicode="&#x152;" horiz-adv-x="837" 
d="M429 43h311c9 0 12 -4 10 -12l-3 -18c-2 -9 -7 -13 -15 -13h-343c-38 -10 -76 -15 -114 -15c-87 0 -150 23 -189 69c-38 45 -50 106 -36 184l43 244c13 77 47 137 101 179c54 43 125 64 212 64c37 0 73 -5 108 -15h330c9 0 12 -4 10 -13l-3 -18c-2 -8 -7 -12 -15 -12
h-297l-50 -286h253c8 0 12 -4 11 -13l-4 -18c-2 -8 -7 -12 -15 -12h-254zM139 477l-44 -244c-11 -65 -1 -115 31 -150c33 -37 85 -55 157 -55c38 0 71 5 99 14l111 626c-32 9 -64 14 -95 14c-72 0 -131 -18 -176 -54c-44 -36 -72 -86 -83 -151z" />
    <glyph glyph-name="P" unicode="P" horiz-adv-x="618" 
d="M167 710h269c68 0 118 -20 151 -61s44 -95 31 -163c-13 -67 -42 -119 -88 -156c-45 -36 -101 -54 -170 -54h-236l-46 -263c-2 -9 -7 -13 -15 -13h-21c-9 0 -12 4 -10 13l121 684c1 9 5 13 14 13zM132 319h231c55 0 101 15 138 46s61 73 70 127c10 55 2 98 -25 129
c-26 31 -66 46 -121 46h-232z" />
    <glyph glyph-name="Thorn" unicode="&#xde;" horiz-adv-x="615" 
d="M179 587h225c71 0 123 -21 158 -64c35 -42 45 -98 32 -169c-12 -69 -42 -124 -91 -163c-48 -39 -107 -58 -178 -58h-226l-21 -120c-2 -9 -7 -13 -15 -13h-21c-9 0 -12 4 -10 13l121 684c1 9 5 13 14 13h21c8 0 12 -4 11 -13zM106 176h222c57 0 106 16 146 49
c39 33 64 77 73 134c10 57 1 102 -26 135c-28 33 -71 50 -128 50h-222z" />
    <glyph glyph-name="Q" unicode="Q" horiz-adv-x="674" 
d="M50 237l44 244c13 77 46 137 99 179c54 43 125 64 212 64c86 0 149 -23 189 -69c39 -45 52 -106 38 -183l-43 -244c-13 -73 -44 -130 -91 -171l56 -85c5 -7 3 -13 -4 -18l-16 -11c-7 -6 -13 -6 -18 1l-58 87c-49 -30 -108 -45 -178 -45c-87 0 -150 23 -191 68
c-40 45 -53 106 -39 183zM399 681c-149 0 -236 -68 -259 -204l-44 -244c-11 -65 -1 -115 32 -150c32 -36 84 -54 157 -54c71 0 129 18 174 54c45 35 73 85 84 150l43 244c11 65 1 115 -30 150c-33 36 -85 54 -157 54z" />
    <glyph glyph-name="R" unicode="R" horiz-adv-x="638" 
d="M167 710h287c63 0 110 -18 139 -54c30 -37 39 -87 28 -150c-20 -116 -90 -179 -209 -189c31 -14 53 -41 68 -82l73 -222c4 -9 1 -13 -9 -13h-20c-13 0 -20 4 -23 11l-67 206c-11 35 -26 59 -45 72c-20 15 -50 23 -91 23h-167l-53 -299c-2 -9 -7 -13 -15 -13h-21
c-9 0 -12 4 -10 13l121 684c1 9 5 13 14 13zM574 510c9 50 2 89 -21 116s-60 41 -111 41h-249l-55 -312h249c106 0 168 52 187 155z" />
    <glyph glyph-name="Racute" unicode="&#x154;" horiz-adv-x="638" 
d="M299 788l188 107c10 5 17 4 22 -2l7 -11c6 -7 5 -12 -4 -15l-196 -102c-7 -3 -13 -2 -16 1l-5 8c-3 6 -2 11 4 14zM167 710h287c63 0 110 -18 139 -54c30 -37 39 -87 28 -150c-20 -116 -90 -179 -209 -189c31 -14 53 -41 68 -82l73 -222c4 -9 1 -13 -9 -13h-20
c-13 0 -20 4 -23 11l-67 206c-11 35 -26 59 -45 72c-20 15 -50 23 -91 23h-167l-53 -299c-2 -9 -7 -13 -15 -13h-21c-9 0 -12 4 -10 13l121 684c1 9 5 13 14 13zM574 510c9 50 2 89 -21 116s-60 41 -111 41h-249l-55 -312h249c106 0 168 52 187 155z" />
    <glyph glyph-name="Rcaron" unicode="&#x158;" horiz-adv-x="638" 
d="M552 898h18c10 0 11 -4 4 -11l-152 -111c-10 -8 -19 -12 -26 -12h-5c-8 0 -15 4 -22 12l-113 111c-2 2 -3 4 -2 7s5 4 10 4h18c7 0 12 -2 17 -7l98 -95l133 95c5 5 13 7 22 7zM167 710h287c63 0 110 -18 139 -54c30 -37 39 -87 28 -150c-20 -116 -90 -179 -209 -189
c31 -14 53 -41 68 -82l73 -222c4 -9 1 -13 -9 -13h-20c-13 0 -20 4 -23 11l-67 206c-11 35 -26 59 -45 72c-20 15 -50 23 -91 23h-167l-53 -299c-2 -9 -7 -13 -15 -13h-21c-9 0 -12 4 -10 13l121 684c1 9 5 13 14 13zM574 510c9 50 2 89 -21 116s-60 41 -111 41h-249
l-55 -312h249c106 0 168 52 187 155z" />
    <glyph glyph-name="uni0156" unicode="&#x156;" horiz-adv-x="638" 
d="M167 710h287c63 0 110 -18 139 -54c30 -37 39 -87 28 -150c-20 -116 -90 -179 -209 -189c31 -14 53 -41 68 -82l73 -222c4 -9 1 -13 -9 -13h-20c-13 0 -20 4 -23 11l-67 206c-11 35 -26 59 -45 72c-20 15 -50 23 -91 23h-167l-53 -299c-2 -9 -7 -13 -15 -13h-21
c-9 0 -12 4 -10 13l121 684c1 9 5 13 14 13zM574 510c9 50 2 89 -21 116s-60 41 -111 41h-249l-55 -312h249c106 0 168 52 187 155zM297 -91l-73 -143c-3 -7 -9 -11 -16 -11h-13c-7 0 -10 3 -7 9l65 146c3 8 8 12 17 12h18c11 0 14 -4 9 -13z" />
    <glyph glyph-name="S" unicode="S" horiz-adv-x="614" 
d="M96 539c23 123 117 185 282 185c118 0 193 -51 226 -153c3 -8 0 -13 -9 -16l-18 -9c-9 -3 -14 -1 -16 6c-28 85 -91 128 -190 128c-137 0 -213 -49 -229 -146c-9 -53 7 -92 49 -117c29 -18 78 -31 147 -38c75 -9 129 -24 162 -47c46 -33 63 -84 51 -153
c-23 -129 -121 -193 -294 -193c-135 0 -215 58 -242 175c-2 9 1 15 10 18l21 7c7 3 12 0 15 -8c25 -99 91 -148 200 -148c145 0 226 52 245 156c9 53 -6 90 -45 113c-26 15 -73 26 -141 35c-77 9 -133 26 -168 50c-49 34 -68 86 -56 155z" />
    <glyph glyph-name="Sacute" unicode="&#x15a;" horiz-adv-x="614" 
d="M300 797l188 107c11 5 18 4 23 -1l7 -11c5 -7 3 -12 -5 -15l-195 -103c-8 -3 -13 -2 -16 2l-5 8c-4 5 -3 10 3 13zM96 539c23 123 117 185 282 185c118 0 193 -51 226 -153c3 -8 0 -13 -9 -16l-18 -9c-9 -3 -14 -1 -16 6c-28 85 -91 128 -190 128
c-137 0 -213 -49 -229 -146c-9 -53 7 -92 49 -117c29 -18 78 -31 147 -38c75 -9 129 -24 162 -47c46 -33 63 -84 51 -153c-23 -129 -121 -193 -294 -193c-135 0 -215 58 -242 175c-2 9 1 15 10 18l21 7c7 3 12 0 15 -8c25 -99 91 -148 200 -148c145 0 226 52 245 156
c9 53 -6 90 -45 113c-26 15 -73 26 -141 35c-77 9 -133 26 -168 50c-49 34 -68 86 -56 155z" />
    <glyph glyph-name="Scaron" unicode="&#x160;" horiz-adv-x="614" 
d="M553 907h19c11 0 12 -4 3 -11l-152 -111c-9 -7 -17 -11 -25 -11h-6c-9 0 -16 4 -22 11l-113 111c-6 7 -3 11 8 11h18c7 0 13 -2 18 -7l97 -95l133 95c5 5 13 7 22 7zM96 539c23 123 117 185 282 185c118 0 193 -51 226 -153c3 -8 0 -13 -9 -16l-18 -9c-9 -3 -14 -1 -16 6
c-28 85 -91 128 -190 128c-137 0 -213 -49 -229 -146c-9 -53 7 -92 49 -117c29 -18 78 -31 147 -38c75 -9 129 -24 162 -47c46 -33 63 -84 51 -153c-23 -129 -121 -193 -294 -193c-135 0 -215 58 -242 175c-2 9 1 15 10 18l21 7c7 3 12 0 15 -8c25 -99 91 -148 200 -148
c145 0 226 52 245 156c9 53 -6 90 -45 113c-26 15 -73 26 -141 35c-77 9 -133 26 -168 50c-49 34 -68 86 -56 155z" />
    <glyph glyph-name="Scedilla" unicode="&#x15e;" horiz-adv-x="614" 
d="M96 539c23 123 117 185 282 185c118 0 193 -51 226 -153c3 -8 0 -13 -9 -16l-18 -9c-9 -3 -14 -1 -16 6c-28 85 -91 128 -190 128c-137 0 -213 -49 -229 -146c-9 -53 7 -92 49 -117c29 -18 78 -31 147 -38c75 -9 129 -24 162 -47c46 -33 63 -84 51 -153
c-21 -123 -110 -187 -269 -193l-37 -73c9 2 20 3 32 3c28 0 48 -7 61 -20s18 -32 13 -55c-12 -61 -55 -92 -128 -92c-31 0 -58 8 -80 23c-5 4 -7 9 -6 16l2 13c1 7 4 8 8 5c19 -18 45 -27 77 -27c53 0 84 22 91 65c5 33 -15 50 -60 50c-14 0 -27 -2 -39 -5
c-11 -3 -14 1 -7 13l44 84c-132 1 -211 59 -238 175c-2 9 1 15 10 18l21 7c7 3 12 0 15 -8c25 -99 91 -148 200 -148c145 0 226 52 245 156c9 53 -6 90 -45 113c-26 15 -73 26 -141 35c-77 9 -133 26 -168 50c-49 34 -68 86 -56 155z" />
    <glyph glyph-name="Scircumflex" unicode="&#x15c;" horiz-adv-x="614" 
d="M416 907h6c7 0 15 -4 22 -11l113 -113c4 -7 1 -10 -8 -10h-16c-8 0 -14 2 -19 7l-98 95l-133 -95c-6 -5 -13 -7 -20 -7h-21c-12 0 -13 3 -4 10l153 113c9 7 18 11 25 11zM96 539c23 123 117 185 282 185c118 0 193 -51 226 -153c3 -8 0 -13 -9 -16l-18 -9
c-9 -3 -14 -1 -16 6c-28 85 -91 128 -190 128c-137 0 -213 -49 -229 -146c-9 -53 7 -92 49 -117c29 -18 78 -31 147 -38c75 -9 129 -24 162 -47c46 -33 63 -84 51 -153c-23 -129 -121 -193 -294 -193c-135 0 -215 58 -242 175c-2 9 1 15 10 18l21 7c7 3 12 0 15 -8
c25 -99 91 -148 200 -148c145 0 226 52 245 156c9 53 -6 90 -45 113c-26 15 -73 26 -141 35c-77 9 -133 26 -168 50c-49 34 -68 86 -56 155z" />
    <glyph glyph-name="uni0218" unicode="&#x218;" horiz-adv-x="614" 
d="M96 539c23 123 117 185 282 185c118 0 193 -51 226 -153c3 -8 0 -13 -9 -16l-18 -9c-9 -3 -14 -1 -16 6c-28 85 -91 128 -190 128c-137 0 -213 -49 -229 -146c-9 -53 7 -92 49 -117c29 -18 78 -31 147 -38c75 -9 129 -24 162 -47c46 -33 63 -84 51 -153
c-23 -129 -121 -193 -294 -193c-135 0 -215 58 -242 175c-2 9 1 15 10 18l21 7c7 3 12 0 15 -8c25 -99 91 -148 200 -148c145 0 226 52 245 156c9 53 -6 90 -45 113c-26 15 -73 26 -141 35c-77 9 -133 26 -168 50c-49 34 -68 86 -56 155zM283 -98l-74 -143
c-3 -7 -8 -11 -15 -11h-14c-7 0 -10 3 -7 9l65 146c3 8 9 12 17 12h19c10 0 13 -4 9 -13z" />
    <glyph glyph-name="T" unicode="T" 
d="M94 710h481c8 0 12 -4 11 -13l-4 -18c-1 -8 -5 -12 -14 -12h-218l-115 -654c-2 -9 -7 -13 -15 -13h-21c-9 0 -12 4 -10 13l115 654h-217c-8 0 -12 4 -11 12l4 18c1 9 5 13 14 13z" />
    <glyph glyph-name="Tbar" unicode="&#x166;" horiz-adv-x="555" 
d="M108 710h480c9 0 13 -4 11 -13l-4 -18c-1 -8 -5 -12 -14 -12h-217l-56 -319h151c7 0 9 -3 7 -10l-3 -15c-1 -7 -4 -10 -11 -10h-151l-53 -300c-1 -9 -5 -13 -14 -13h-22c-9 0 -12 4 -10 13l53 300h-152c-5 0 -8 3 -7 10l3 15c2 7 6 10 11 10h151l57 319h-218
c-9 0 -12 4 -10 12l3 18c2 9 7 13 15 13z" />
    <glyph glyph-name="Tcaron" unicode="&#x164;" 
d="M503 898h18c11 0 12 -4 3 -11l-151 -111c-10 -8 -19 -12 -26 -12h-6c-7 0 -15 4 -22 12l-112 111c-3 2 -3 4 -2 7s4 4 9 4h18c7 0 13 -2 18 -7l97 -95l133 95c5 5 13 7 23 7zM94 710h481c8 0 12 -4 11 -13l-4 -18c-1 -8 -5 -12 -14 -12h-218l-115 -654
c-2 -9 -7 -13 -15 -13h-21c-9 0 -12 4 -10 13l115 654h-217c-8 0 -12 4 -11 12l4 18c1 9 5 13 14 13z" />
    <glyph glyph-name="uni021A" unicode="&#x21a;" 
d="M94 710h481c8 0 12 -4 11 -13l-4 -18c-1 -8 -5 -12 -14 -12h-218l-115 -654c-2 -9 -7 -13 -15 -13h-21c-9 0 -12 4 -10 13l115 654h-217c-8 0 -12 4 -11 12l4 18c1 9 5 13 14 13zM232 -91l-73 -143c-4 -7 -9 -11 -16 -11h-13c-8 0 -11 3 -8 9l65 146c3 8 9 12 17 12h19
c10 0 13 -4 9 -13z" />
    <glyph glyph-name="U" unicode="U" horiz-adv-x="681" 
d="M194 697l-82 -457c-11 -66 -2 -117 27 -154c31 -39 82 -58 154 -58c144 0 229 71 254 212l81 457c1 9 5 13 14 13h21c9 0 13 -4 11 -13l-82 -462c-29 -167 -131 -250 -305 -250c-86 0 -148 24 -186 72c-37 45 -48 108 -34 188l80 452c2 9 7 13 15 13h21c8 0 12 -4 11 -13
z" />
    <glyph glyph-name="Uacute" unicode="&#xda;" horiz-adv-x="681" 
d="M327 788l188 107c11 5 18 4 22 -2l7 -11c6 -7 5 -12 -4 -15l-195 -102c-8 -3 -13 -2 -16 1l-6 8c-3 6 -2 11 4 14zM194 697l-82 -457c-11 -66 -2 -117 27 -154c31 -39 82 -58 154 -58c144 0 229 71 254 212l81 457c1 9 5 13 14 13h21c9 0 13 -4 11 -13l-82 -462
c-29 -167 -131 -250 -305 -250c-86 0 -148 24 -186 72c-37 45 -48 108 -34 188l80 452c2 9 7 13 15 13h21c8 0 12 -4 11 -13z" />
    <glyph glyph-name="Ubreve" unicode="&#x16c;" horiz-adv-x="681" 
d="M592 876c-35 -75 -91 -112 -168 -112c-80 0 -124 37 -132 112c-1 7 1 10 7 11l17 5c7 1 10 0 11 -5c6 -59 40 -89 101 -89s105 30 132 90c3 5 7 6 12 5l16 -6c5 -2 7 -6 4 -11zM194 697l-82 -457c-11 -66 -2 -117 27 -154c31 -39 82 -58 154 -58c144 0 229 71 254 212
l81 457c1 9 5 13 14 13h21c9 0 13 -4 11 -13l-82 -462c-29 -167 -131 -250 -305 -250c-86 0 -148 24 -186 72c-37 45 -48 108 -34 188l80 452c2 9 7 13 15 13h21c8 0 12 -4 11 -13z" />
    <glyph glyph-name="Ucircumflex" unicode="&#xdb;" horiz-adv-x="681" 
d="M443 897h6c8 0 15 -4 22 -11l113 -112c4 -7 1 -10 -9 -10h-15c-9 0 -16 2 -19 7l-98 95l-133 -95c-5 -5 -12 -7 -20 -7h-21c-11 0 -13 3 -5 10l154 112c8 7 16 11 25 11zM194 697l-82 -457c-11 -66 -2 -117 27 -154c31 -39 82 -58 154 -58c144 0 229 71 254 212l81 457
c1 9 5 13 14 13h21c9 0 13 -4 11 -13l-82 -462c-29 -167 -131 -250 -305 -250c-86 0 -148 24 -186 72c-37 45 -48 108 -34 188l80 452c2 9 7 13 15 13h21c8 0 12 -4 11 -13z" />
    <glyph glyph-name="Udieresis" unicode="&#xdc;" horiz-adv-x="681" 
d="M339 853h6c15 0 22 -8 19 -23l-1 -7c-3 -15 -12 -22 -27 -22h-6c-15 0 -22 7 -19 22l1 7c3 15 12 23 27 23zM530 853h6c15 0 22 -8 19 -23l-1 -7c-3 -15 -12 -22 -27 -22h-6c-16 0 -22 7 -19 22l1 7c3 15 12 23 27 23zM194 697l-82 -457c-11 -66 -2 -117 27 -154
c31 -39 82 -58 154 -58c144 0 229 71 254 212l81 457c1 9 5 13 14 13h21c9 0 13 -4 11 -13l-82 -462c-29 -167 -131 -250 -305 -250c-86 0 -148 24 -186 72c-37 45 -48 108 -34 188l80 452c2 9 7 13 15 13h21c8 0 12 -4 11 -13z" />
    <glyph glyph-name="Ugrave" unicode="&#xd9;" horiz-adv-x="681" 
d="M339 875l10 11c7 6 15 6 24 1l152 -103c5 -3 5 -8 -1 -14l-6 -6c-4 -4 -9 -4 -16 -1l-163 98c-7 3 -7 7 0 14zM194 697l-82 -457c-11 -66 -2 -117 27 -154c31 -39 82 -58 154 -58c144 0 229 71 254 212l81 457c1 9 5 13 14 13h21c9 0 13 -4 11 -13l-82 -462
c-29 -167 -131 -250 -305 -250c-86 0 -148 24 -186 72c-37 45 -48 108 -34 188l80 452c2 9 7 13 15 13h21c8 0 12 -4 11 -13z" />
    <glyph glyph-name="Uhungarumlaut" unicode="&#x170;" horiz-adv-x="681" 
d="M290 778l121 113c7 7 14 9 21 8l15 -4c8 -3 8 -7 1 -14l-132 -113c-7 -5 -12 -7 -16 -5l-8 3c-7 1 -7 5 -2 12zM463 777l123 114c7 7 14 9 21 8l15 -4c10 -3 11 -7 2 -14l-135 -114c-7 -6 -13 -8 -16 -5l-9 3c-7 2 -8 6 -1 12zM194 697l-82 -457c-11 -66 -2 -117 27 -154
c31 -39 82 -58 154 -58c144 0 229 71 254 212l81 457c1 9 5 13 14 13h21c9 0 13 -4 11 -13l-82 -462c-29 -167 -131 -250 -305 -250c-86 0 -148 24 -186 72c-37 45 -48 108 -34 188l80 452c2 9 7 13 15 13h21c8 0 12 -4 11 -13z" />
    <glyph glyph-name="Umacron" unicode="&#x16a;" horiz-adv-x="681" 
d="M317 839h237c7 0 10 -4 9 -11l-2 -10c-1 -8 -5 -12 -12 -12h-238c-8 0 -11 4 -9 12l1 10c1 7 6 11 14 11zM194 697l-82 -457c-11 -66 -2 -117 27 -154c31 -39 82 -58 154 -58c144 0 229 71 254 212l81 457c1 9 5 13 14 13h21c9 0 13 -4 11 -13l-82 -462
c-29 -167 -131 -250 -305 -250c-86 0 -148 24 -186 72c-37 45 -48 108 -34 188l80 452c2 9 7 13 15 13h21c8 0 12 -4 11 -13z" />
    <glyph glyph-name="Uogonek" unicode="&#x172;" horiz-adv-x="681" 
d="M642 710h21c9 0 13 -4 11 -13l-82 -462c-16 -91 -56 -158 -120 -201c-49 -33 -90 -73 -121 -119c-29 -42 -41 -75 -37 -98c3 -20 16 -30 39 -30c24 0 47 10 68 29c5 3 7 3 8 -2l4 -17c1 -3 0 -7 -4 -10c-27 -23 -58 -34 -93 -34c-37 0 -57 16 -62 49c-4 25 5 55 26 92
c23 39 54 74 93 106c-35 -10 -71 -15 -106 -15c-86 0 -148 24 -186 72c-37 45 -48 108 -34 188l80 452c2 9 7 13 15 13h21c8 0 12 -4 11 -13l-82 -457c-11 -66 -2 -117 27 -154c31 -39 82 -58 154 -58c144 0 229 71 254 212l81 457c1 9 5 13 14 13z" />
    <glyph glyph-name="Uring" unicode="&#x16e;" horiz-adv-x="681" 
d="M340 837c5 29 18 52 39 69s46 26 76 26c29 0 51 -9 65 -26c15 -17 19 -40 14 -69s-18 -51 -38 -68c-21 -17 -45 -26 -74 -26c-30 0 -52 9 -67 26s-20 39 -15 68zM509 837c7 47 -12 70 -58 70c-50 0 -79 -23 -86 -70c-3 -21 0 -38 11 -50c11 -13 27 -19 50 -19
c48 0 76 23 83 69zM194 697l-82 -457c-11 -66 -2 -117 27 -154c31 -39 82 -58 154 -58c144 0 229 71 254 212l81 457c1 9 5 13 14 13h21c9 0 13 -4 11 -13l-82 -462c-29 -167 -131 -250 -305 -250c-86 0 -148 24 -186 72c-37 45 -48 108 -34 188l80 452c2 9 7 13 15 13h21
c8 0 12 -4 11 -13z" />
    <glyph glyph-name="Utilde" unicode="&#x168;" horiz-adv-x="681" 
d="M573 875h13c5 0 8 -3 7 -8c-12 -63 -42 -94 -91 -94c-25 0 -50 12 -76 36s-48 36 -67 36c-33 0 -52 -21 -59 -64c-2 -5 -5 -8 -10 -8h-14c-6 0 -8 3 -6 8c11 63 41 94 91 94c25 0 51 -12 77 -36s48 -36 66 -36c33 0 52 21 59 64c2 5 5 8 10 8zM194 697l-82 -457
c-11 -66 -2 -117 27 -154c31 -39 82 -58 154 -58c144 0 229 71 254 212l81 457c1 9 5 13 14 13h21c9 0 13 -4 11 -13l-82 -462c-29 -167 -131 -250 -305 -250c-86 0 -148 24 -186 72c-37 45 -48 108 -34 188l80 452c2 9 7 13 15 13h21c8 0 12 -4 11 -13z" />
    <glyph glyph-name="V" unicode="V" horiz-adv-x="611" 
d="M641 710h21c10 0 12 -4 6 -12l-388 -686c-5 -8 -11 -12 -19 -12h-19c-9 0 -14 4 -15 11l-146 687c-2 8 1 12 10 12h19c12 0 19 -4 20 -11l119 -575c2 -9 4 -21 6 -38l5 -29h2c3 5 7 14 14 29c8 17 14 29 19 38l324 575c4 7 11 11 22 11z" />
    <glyph glyph-name="W" unicode="W" horiz-adv-x="869" 
d="M884 710h23c8 0 10 -4 7 -12l-306 -686c-3 -8 -10 -12 -19 -12h-21c-9 0 -14 4 -15 11l-55 527c-3 37 -4 67 -5 91h-3c-7 -22 -20 -52 -37 -91l-243 -526c-3 -8 -10 -12 -19 -12h-20c-10 0 -15 4 -15 11l-64 687c-1 8 3 12 10 12h24c10 0 15 -4 16 -11l47 -538
c-1 11 0 -21 3 -95h3c13 37 26 68 38 94l242 523c3 8 10 12 19 12h19c10 0 15 -4 15 -12l56 -525c2 -29 4 -59 5 -92h2l35 92l240 541c3 7 9 11 18 11z" />
    <glyph glyph-name="Wacute" unicode="&#x1e82;" horiz-adv-x="869" 
d="M422 788l188 107c10 5 17 4 22 -2l7 -11c5 -7 3 -12 -4 -15l-196 -102c-7 -3 -13 -2 -16 1l-5 8c-3 6 -2 11 4 14zM884 710h23c8 0 10 -4 7 -12l-306 -686c-3 -8 -10 -12 -19 -12h-21c-9 0 -14 4 -15 11l-55 527c-3 37 -4 67 -5 91h-3c-7 -22 -20 -52 -37 -91l-243 -526
c-3 -8 -10 -12 -19 -12h-20c-10 0 -15 4 -15 11l-64 687c-1 8 3 12 10 12h24c10 0 15 -4 16 -11l47 -538c-1 11 0 -21 3 -95h3c13 37 26 68 38 94l242 523c3 8 10 12 19 12h19c10 0 15 -4 15 -12l56 -525c2 -29 4 -59 5 -92h2l35 92l240 541c3 7 9 11 18 11z" />
    <glyph glyph-name="Wcircumflex" unicode="&#x174;" horiz-adv-x="869" 
d="M538 897h5c8 0 16 -4 23 -11l112 -112c5 -7 3 -10 -8 -10h-16c-9 0 -15 2 -19 7l-98 95l-132 -95c-5 -5 -12 -7 -21 -7h-20c-11 0 -13 3 -5 10l153 112c9 7 17 11 26 11zM884 710h23c8 0 10 -4 7 -12l-306 -686c-3 -8 -10 -12 -19 -12h-21c-9 0 -14 4 -15 11l-55 527
c-3 37 -4 67 -5 91h-3c-7 -22 -20 -52 -37 -91l-243 -526c-3 -8 -10 -12 -19 -12h-20c-10 0 -15 4 -15 11l-64 687c-1 8 3 12 10 12h24c10 0 15 -4 16 -11l47 -538c-1 11 0 -21 3 -95h3c13 37 26 68 38 94l242 523c3 8 10 12 19 12h19c10 0 15 -4 15 -12l56 -525
c2 -29 4 -59 5 -92h2l35 92l240 541c3 7 9 11 18 11z" />
    <glyph glyph-name="Wdieresis" unicode="&#x1e84;" horiz-adv-x="869" 
d="M434 853h6c15 0 21 -8 19 -23l-2 -7c-3 -15 -11 -22 -26 -22h-7c-15 0 -21 7 -18 22l1 7c3 15 12 23 27 23zM625 853h6c15 0 22 -8 19 -23l-1 -7c-3 -15 -13 -22 -28 -22h-5c-16 0 -23 7 -20 22l2 7c2 15 11 23 27 23zM884 710h23c8 0 10 -4 7 -12l-306 -686
c-3 -8 -10 -12 -19 -12h-21c-9 0 -14 4 -15 11l-55 527c-3 37 -4 67 -5 91h-3c-7 -22 -20 -52 -37 -91l-243 -526c-3 -8 -10 -12 -19 -12h-20c-10 0 -15 4 -15 11l-64 687c-1 8 3 12 10 12h24c10 0 15 -4 16 -11l47 -538c-1 11 0 -21 3 -95h3c13 37 26 68 38 94l242 523
c3 8 10 12 19 12h19c10 0 15 -4 15 -12l56 -525c2 -29 4 -59 5 -92h2l35 92l240 541c3 7 9 11 18 11z" />
    <glyph glyph-name="Wgrave" unicode="&#x1e80;" horiz-adv-x="869" 
d="M434 875l10 11c7 6 14 6 23 1l153 -103c5 -3 4 -8 -1 -14l-6 -6c-4 -4 -9 -4 -16 -1l-164 98c-6 3 -6 7 1 14zM884 710h23c8 0 10 -4 7 -12l-306 -686c-3 -8 -10 -12 -19 -12h-21c-9 0 -14 4 -15 11l-55 527c-3 37 -4 67 -5 91h-3c-7 -22 -20 -52 -37 -91l-243 -526
c-3 -8 -10 -12 -19 -12h-20c-10 0 -15 4 -15 11l-64 687c-1 8 3 12 10 12h24c10 0 15 -4 16 -11l47 -538c-1 11 0 -21 3 -95h3c13 37 26 68 38 94l242 523c3 8 10 12 19 12h19c10 0 15 -4 15 -12l56 -525c2 -29 4 -59 5 -92h2l35 92l240 541c3 7 9 11 18 11z" />
    <glyph glyph-name="X" unicode="X" horiz-adv-x="606" 
d="M620 710h28c10 0 12 -4 5 -12l-310 -338l196 -345c7 -10 5 -15 -8 -15h-24c-12 0 -19 4 -22 11l-177 313l-284 -313c-7 -7 -15 -11 -26 -11h-28c-9 0 -10 5 -3 15l318 346l-190 337c-4 8 -1 12 8 12h25c11 0 18 -4 22 -11l170 -301l276 301c7 7 15 11 24 11z" />
    <glyph glyph-name="Y" unicode="Y" horiz-adv-x="616" 
d="M640 710h26c9 0 11 -4 6 -13l-343 -405l-49 -279c-2 -9 -7 -13 -15 -13h-21c-9 0 -12 4 -10 13l49 280l-198 404c-4 9 -1 13 9 13h24c12 0 20 -4 23 -11l173 -359l301 359c5 7 14 11 25 11z" />
    <glyph glyph-name="Yacute" unicode="&#xdd;" horiz-adv-x="616" 
d="M295 788l188 107c11 5 18 4 23 -2l7 -11c5 -7 3 -12 -5 -15l-195 -102c-8 -3 -13 -2 -16 1l-5 8c-4 6 -3 11 3 14zM640 710h26c9 0 11 -4 6 -13l-343 -405l-49 -279c-2 -9 -7 -13 -15 -13h-21c-9 0 -12 4 -10 13l49 280l-198 404c-4 9 -1 13 9 13h24c12 0 20 -4 23 -11
l173 -359l301 359c5 7 14 11 25 11z" />
    <glyph glyph-name="Ycircumflex" unicode="&#x176;" horiz-adv-x="616" 
d="M411 897h6c8 0 15 -4 22 -11l113 -112c4 -7 1 -10 -8 -10h-16c-9 0 -15 2 -19 7l-98 95l-133 -95c-5 -5 -12 -7 -20 -7h-21c-12 0 -13 3 -4 10l153 112c9 7 17 11 25 11zM640 710h26c9 0 11 -4 6 -13l-343 -405l-49 -279c-2 -9 -7 -13 -15 -13h-21c-9 0 -12 4 -10 13
l49 280l-198 404c-4 9 -1 13 9 13h24c12 0 20 -4 23 -11l173 -359l301 359c5 7 14 11 25 11z" />
    <glyph glyph-name="Ydieresis" unicode="&#x178;" horiz-adv-x="616" 
d="M307 853h6c15 0 22 -8 19 -23l-1 -7c-3 -15 -12 -22 -27 -22h-6c-15 0 -22 7 -19 22l2 7c2 15 11 23 26 23zM499 853h5c15 0 22 -8 20 -23l-2 -7c-3 -15 -12 -22 -27 -22h-6c-15 0 -22 7 -19 22l1 7c3 15 12 23 28 23zM640 710h26c9 0 11 -4 6 -13l-343 -405l-49 -279
c-2 -9 -7 -13 -15 -13h-21c-9 0 -12 4 -10 13l49 280l-198 404c-4 9 -1 13 9 13h24c12 0 20 -4 23 -11l173 -359l301 359c5 7 14 11 25 11z" />
    <glyph glyph-name="Ygrave" unicode="&#x1ef2;" horiz-adv-x="616" 
d="M307 875l11 11c6 6 14 6 23 1l153 -103c5 -3 4 -8 -1 -14l-7 -6c-4 -4 -9 -4 -16 -1l-163 98c-7 3 -7 7 0 14zM640 710h26c9 0 11 -4 6 -13l-343 -405l-49 -279c-2 -9 -7 -13 -15 -13h-21c-9 0 -12 4 -10 13l49 280l-198 404c-4 9 -1 13 9 13h24c12 0 20 -4 23 -11
l173 -359l301 359c5 7 14 11 25 11z" />
    <glyph glyph-name="Z" unicode="Z" horiz-adv-x="548" 
d="M117 710h453c9 0 13 -4 11 -13l-3 -16c-1 -6 -3 -11 -8 -16l-530 -621h425c9 0 13 -4 10 -13l-3 -18c-2 -9 -7 -13 -15 -13h-470c-9 0 -12 4 -10 13l3 17c1 6 3 12 8 17l530 620h-409c-9 0 -12 4 -10 12l3 18c2 9 7 13 15 13z" />
    <glyph glyph-name="Zacute" unicode="&#x179;" horiz-adv-x="548" 
d="M264 788l188 107c10 5 17 4 22 -2l7 -11c6 -7 5 -12 -4 -15l-196 -102c-7 -3 -13 -2 -16 1l-5 8c-3 6 -2 11 4 14zM117 710h453c9 0 13 -4 11 -13l-3 -16c-1 -6 -3 -11 -8 -16l-530 -621h425c9 0 13 -4 10 -13l-3 -18c-2 -9 -7 -13 -15 -13h-470c-9 0 -12 4 -10 13l3 17
c1 6 3 12 8 17l530 620h-409c-9 0 -12 4 -10 12l3 18c2 9 7 13 15 13z" />
    <glyph glyph-name="Zcaron" unicode="&#x17d;" horiz-adv-x="548" 
d="M517 898h18c10 0 11 -4 4 -11l-152 -111c-9 -8 -18 -12 -26 -12h-5c-8 0 -15 4 -22 12l-113 111c-2 2 -3 4 -2 7s5 4 10 4h18c7 0 12 -2 17 -7l98 -95l133 95c5 5 13 7 22 7zM117 710h453c9 0 13 -4 11 -13l-3 -16c-1 -6 -3 -11 -8 -16l-530 -621h425c9 0 13 -4 10 -13
l-3 -18c-2 -9 -7 -13 -15 -13h-470c-9 0 -12 4 -10 13l3 17c1 6 3 12 8 17l530 620h-409c-9 0 -12 4 -10 12l3 18c2 9 7 13 15 13z" />
    <glyph glyph-name="Zdotaccent" unicode="&#x17b;" horiz-adv-x="548" 
d="M372 849h4c16 0 23 -8 20 -24l-1 -5c-3 -15 -12 -23 -28 -23h-5c-15 0 -22 8 -19 23l1 5c3 16 12 24 28 24zM117 710h453c9 0 13 -4 11 -13l-3 -16c-1 -6 -3 -11 -8 -16l-530 -621h425c9 0 13 -4 10 -13l-3 -18c-2 -9 -7 -13 -15 -13h-470c-9 0 -12 4 -10 13l3 17
c1 6 3 12 8 17l530 620h-409c-9 0 -12 4 -10 12l3 18c2 9 7 13 15 13z" />
    <glyph glyph-name="a" unicode="a" 
d="M33 193l26 146c21 125 102 188 242 188c63 0 115 -10 158 -29c15 -7 25 -14 29 -21c3 -7 4 -18 1 -34l-72 -408c-1 -7 -7 -13 -18 -17c-67 -21 -137 -32 -209 -32c-64 0 -110 20 -137 59c-25 36 -31 85 -20 148zM424 464c-37 15 -80 23 -127 23c-59 0 -104 -12 -135 -35
c-31 -24 -52 -63 -61 -117l-26 -145c-9 -51 -4 -91 16 -120c21 -30 57 -45 108 -45c63 0 122 10 178 29l67 376c2 16 -5 27 -20 34z" />
    <glyph glyph-name="aacute" unicode="&#xe1;" 
d="M230 609l188 107c9 5 17 5 22 -1l7 -11c5 -7 3 -12 -4 -15l-196 -103c-7 -3 -13 -2 -16 2l-5 8c-3 5 -2 10 4 13zM33 193l26 146c21 125 102 188 242 188c63 0 115 -10 158 -29c15 -7 25 -14 29 -21c3 -7 4 -18 1 -34l-72 -408c-1 -7 -7 -13 -18 -17
c-67 -21 -137 -32 -209 -32c-64 0 -110 20 -137 59c-25 36 -31 85 -20 148zM424 464c-37 15 -80 23 -127 23c-59 0 -104 -12 -135 -35c-31 -24 -52 -63 -61 -117l-26 -145c-9 -51 -4 -91 16 -120c21 -30 57 -45 108 -45c63 0 122 10 178 29l67 376c2 16 -5 27 -20 34z" />
    <glyph glyph-name="abreve" unicode="&#x103;" 
d="M494 695c-33 -74 -89 -111 -166 -111c-81 0 -125 37 -133 111c-2 6 0 10 7 12l15 5c7 1 11 -1 12 -6c6 -59 40 -88 101 -88s106 30 133 90c3 5 6 6 11 5l17 -6c5 -2 6 -6 3 -12zM33 193l26 146c21 125 102 188 242 188c63 0 115 -10 158 -29c15 -7 25 -14 29 -21
c3 -7 4 -18 1 -34l-72 -408c-1 -7 -7 -13 -18 -17c-67 -21 -137 -32 -209 -32c-64 0 -110 20 -137 59c-25 36 -31 85 -20 148zM424 464c-37 15 -80 23 -127 23c-59 0 -104 -12 -135 -35c-31 -24 -52 -63 -61 -117l-26 -145c-9 -51 -4 -91 16 -120c21 -30 57 -45 108 -45
c63 0 122 10 178 29l67 376c2 16 -5 27 -20 34z" />
    <glyph glyph-name="acircumflex" unicode="&#xe2;" 
d="M345 713h6c8 0 15 -4 21 -11l113 -113c5 -7 3 -10 -8 -10h-15c-8 0 -15 2 -20 7l-98 97l-132 -97c-5 -5 -12 -7 -20 -7h-21c-11 0 -13 3 -5 10l153 113c9 7 18 11 26 11zM33 193l26 146c21 125 102 188 242 188c63 0 115 -10 158 -29c15 -7 25 -14 29 -21
c3 -7 4 -18 1 -34l-72 -408c-1 -7 -7 -13 -18 -17c-67 -21 -137 -32 -209 -32c-64 0 -110 20 -137 59c-25 36 -31 85 -20 148zM424 464c-37 15 -80 23 -127 23c-59 0 -104 -12 -135 -35c-31 -24 -52 -63 -61 -117l-26 -145c-9 -51 -4 -91 16 -120c21 -30 57 -45 108 -45
c63 0 122 10 178 29l67 376c2 16 -5 27 -20 34z" />
    <glyph glyph-name="adieresis" unicode="&#xe4;" 
d="M242 677h6c15 0 22 -8 19 -23l-1 -7c-3 -15 -12 -22 -27 -22h-6c-15 0 -22 7 -19 22l2 7c2 15 11 23 26 23zM434 677h5c15 0 22 -8 19 -23l-1 -7c-3 -15 -12 -22 -27 -22h-5c-17 0 -23 7 -20 22l1 7c3 15 12 23 28 23zM33 193l26 146c21 125 102 188 242 188
c63 0 115 -10 158 -29c15 -7 25 -14 29 -21c3 -7 4 -18 1 -34l-72 -408c-1 -7 -7 -13 -18 -17c-67 -21 -137 -32 -209 -32c-64 0 -110 20 -137 59c-25 36 -31 85 -20 148zM424 464c-37 15 -80 23 -127 23c-59 0 -104 -12 -135 -35c-31 -24 -52 -63 -61 -117l-26 -145
c-9 -51 -4 -91 16 -120c21 -30 57 -45 108 -45c63 0 122 10 178 29l67 376c2 16 -5 27 -20 34z" />
    <glyph glyph-name="agrave" unicode="&#xe0;" 
d="M246 705l10 10c7 6 15 6 22 1l149 -107c5 -3 5 -8 -1 -14l-5 -6c-5 -4 -10 -4 -16 -1l-159 102c-6 4 -6 9 0 15zM33 193l26 146c21 125 102 188 242 188c63 0 115 -10 158 -29c15 -7 25 -14 29 -21c3 -7 4 -18 1 -34l-72 -408c-1 -7 -7 -13 -18 -17
c-67 -21 -137 -32 -209 -32c-64 0 -110 20 -137 59c-25 36 -31 85 -20 148zM424 464c-37 15 -80 23 -127 23c-59 0 -104 -12 -135 -35c-31 -24 -52 -63 -61 -117l-26 -145c-9 -51 -4 -91 16 -120c21 -30 57 -45 108 -45c63 0 122 10 178 29l67 376c2 16 -5 27 -20 34z" />
    <glyph glyph-name="amacron" unicode="&#x101;" 
d="M219 659h237c7 0 11 -4 10 -11l-2 -11c-2 -7 -6 -11 -13 -11h-238c-8 0 -11 4 -9 11l2 11c1 7 5 11 13 11zM33 193l26 146c21 125 102 188 242 188c63 0 115 -10 158 -29c15 -7 25 -14 29 -21c3 -7 4 -18 1 -34l-72 -408c-1 -7 -7 -13 -18 -17c-67 -21 -137 -32 -209 -32
c-64 0 -110 20 -137 59c-25 36 -31 85 -20 148zM424 464c-37 15 -80 23 -127 23c-59 0 -104 -12 -135 -35c-31 -24 -52 -63 -61 -117l-26 -145c-9 -51 -4 -91 16 -120c21 -30 57 -45 108 -45c63 0 122 10 178 29l67 376c2 16 -5 27 -20 34z" />
    <glyph glyph-name="aogonek" unicode="&#x105;" horiz-adv-x="531" 
d="M33 193l26 146c21 125 102 188 242 188c63 0 115 -10 158 -29c15 -7 25 -14 29 -21c3 -7 4 -18 1 -34l-72 -408c-1 -5 -3 -9 -6 -11c-107 -84 -155 -153 -145 -207c3 -20 16 -30 38 -30c25 0 47 10 68 29c5 3 7 3 8 -2l5 -17c1 -3 -1 -7 -4 -10c-27 -23 -59 -34 -94 -34
c-37 0 -57 16 -62 49c-9 59 35 128 133 205c-56 -14 -112 -21 -168 -21c-64 0 -110 20 -137 59c-25 36 -31 85 -20 148zM424 464c-37 15 -80 23 -127 23c-59 0 -104 -12 -135 -35c-31 -24 -52 -63 -61 -117l-26 -145c-9 -51 -4 -91 16 -120c21 -30 57 -45 108 -45
c63 0 122 10 178 29l67 376c2 16 -5 27 -20 34z" />
    <glyph glyph-name="aring" unicode="&#xe5;" 
d="M241 671c12 63 51 94 116 94c29 0 50 -9 65 -27c14 -17 18 -41 13 -70c-11 -61 -48 -92 -112 -92c-30 0 -52 9 -67 26s-20 40 -15 69zM410 670c4 21 1 38 -9 51c-11 13 -27 19 -48 19c-49 0 -78 -23 -87 -70c-7 -47 13 -70 61 -70s76 23 83 70zM33 193l26 146
c21 125 102 188 242 188c63 0 115 -10 158 -29c15 -7 25 -14 29 -21c3 -7 4 -18 1 -34l-72 -408c-1 -7 -7 -13 -18 -17c-67 -21 -137 -32 -209 -32c-64 0 -110 20 -137 59c-25 36 -31 85 -20 148zM424 464c-37 15 -80 23 -127 23c-59 0 -104 -12 -135 -35
c-31 -24 -52 -63 -61 -117l-26 -145c-9 -51 -4 -91 16 -120c21 -30 57 -45 108 -45c63 0 122 10 178 29l67 376c2 16 -5 27 -20 34z" />
    <glyph glyph-name="aringacute" unicode="&#x1fb;" 
d="M230 806l176 79c10 5 17 4 21 -1l7 -8c5 -5 3 -8 -5 -11l-182 -76c-7 -2 -12 -2 -15 1l-5 6c-4 4 -3 7 3 10zM235 671c12 62 50 93 115 93c29 0 51 -9 66 -26c14 -17 18 -41 13 -70c-11 -62 -48 -93 -112 -93c-30 0 -52 9 -67 27c-15 17 -20 40 -15 69zM404 670
c4 21 1 38 -9 51c-11 13 -27 19 -49 19c-49 0 -78 -23 -86 -70c-7 -47 13 -70 61 -70s76 23 83 70zM33 193l26 146c21 125 102 188 242 188c63 0 115 -10 158 -29c15 -7 25 -14 29 -21c3 -7 4 -18 1 -34l-72 -408c-1 -7 -7 -13 -18 -17c-67 -21 -137 -32 -209 -32
c-64 0 -110 20 -137 59c-25 36 -31 85 -20 148zM424 464c-37 15 -80 23 -127 23c-59 0 -104 -12 -135 -35c-31 -24 -52 -63 -61 -117l-26 -145c-9 -51 -4 -91 16 -120c21 -30 57 -45 108 -45c63 0 122 10 178 29l67 376c2 16 -5 27 -20 34z" />
    <glyph glyph-name="atilde" unicode="&#xe3;" 
d="M476 697h13c5 0 8 -3 7 -8c-12 -63 -42 -94 -90 -94c-24 0 -50 12 -77 36s-49 36 -68 36c-31 0 -51 -21 -59 -63c-1 -6 -4 -9 -9 -9h-14c-5 0 -8 3 -7 9c11 62 41 93 90 93c25 0 50 -12 77 -36s50 -36 68 -36c33 0 52 21 59 64c1 5 4 8 10 8zM33 193l26 146
c21 125 102 188 242 188c63 0 115 -10 158 -29c15 -7 25 -14 29 -21c3 -7 4 -18 1 -34l-72 -408c-1 -7 -7 -13 -18 -17c-67 -21 -137 -32 -209 -32c-64 0 -110 20 -137 59c-25 36 -31 85 -20 148zM424 464c-37 15 -80 23 -127 23c-59 0 -104 -12 -135 -35
c-31 -24 -52 -63 -61 -117l-26 -145c-9 -51 -4 -91 16 -120c21 -30 57 -45 108 -45c63 0 122 10 178 29l67 376c2 16 -5 27 -20 34z" />
    <glyph glyph-name="ae" unicode="&#xe6;" horiz-adv-x="780" 
d="M403 414c40 75 103 113 188 113c61 0 105 -15 133 -45c29 -30 37 -72 24 -126c-20 -91 -89 -137 -208 -137c-50 0 -101 7 -153 20l-11 -60c-17 -104 23 -156 120 -156c71 0 126 31 167 93c6 7 12 8 17 5l14 -9c6 -3 6 -9 1 -17c-49 -73 -117 -109 -205 -109
c-72 0 -118 24 -138 73c-40 -49 -99 -73 -177 -73c-128 0 -183 52 -164 155c17 98 91 147 221 147c46 0 87 -4 123 -12l9 52c9 51 10 88 1 111c-13 33 -47 49 -102 49c-63 0 -113 -26 -150 -78c-5 -6 -10 -8 -16 -6l-15 6c-7 4 -9 10 -4 17c47 67 111 100 192 100
c83 0 127 -38 133 -113zM707 359c20 87 -21 130 -123 130c-48 0 -88 -15 -120 -44c-33 -29 -53 -70 -62 -123l-9 -49c47 -13 98 -20 154 -20c89 0 143 35 160 106zM337 178l12 64c-47 7 -89 10 -128 10c-97 0 -153 -38 -168 -114c-14 -77 28 -116 125 -116
c67 0 120 24 157 73c-4 23 -3 51 2 83z" />
    <glyph glyph-name="aeacute" unicode="&#x1fd;" horiz-adv-x="780" 
d="M342 609l188 106c10 5 17 5 22 -1l7 -11c5 -7 4 -12 -4 -15l-196 -102c-7 -3 -13 -3 -16 1l-5 8c-4 5 -3 10 4 14zM403 414c40 75 103 113 188 113c61 0 105 -15 133 -45c29 -30 37 -72 24 -126c-20 -91 -89 -137 -208 -137c-50 0 -101 7 -153 20l-11 -60
c-17 -104 23 -156 120 -156c71 0 126 31 167 93c6 7 12 8 17 5l14 -9c6 -3 6 -9 1 -17c-49 -73 -117 -109 -205 -109c-72 0 -118 24 -138 73c-40 -49 -99 -73 -177 -73c-128 0 -183 52 -164 155c17 98 91 147 221 147c46 0 87 -4 123 -12l9 52c9 51 10 88 1 111
c-13 33 -47 49 -102 49c-63 0 -113 -26 -150 -78c-5 -6 -10 -8 -16 -6l-15 6c-7 4 -9 10 -4 17c47 67 111 100 192 100c83 0 127 -38 133 -113zM707 359c20 87 -21 130 -123 130c-48 0 -88 -15 -120 -44c-33 -29 -53 -70 -62 -123l-9 -49c47 -13 98 -20 154 -20
c89 0 143 35 160 106zM337 178l12 64c-47 7 -89 10 -128 10c-97 0 -153 -38 -168 -114c-14 -77 28 -116 125 -116c67 0 120 24 157 73c-4 23 -3 51 2 83z" />
    <glyph glyph-name="b" unicode="b" horiz-adv-x="534" 
d="M155 740h20c7 0 10 -4 9 -12l-43 -239c73 25 135 38 184 38c129 0 182 -66 158 -197l-26 -146c-22 -132 -103 -198 -244 -198c-63 0 -115 10 -158 29c-15 7 -25 13 -28 20c-4 7 -5 19 -2 35l116 658c1 8 5 12 14 12zM415 188l26 145c17 103 -25 155 -127 155
c-52 0 -112 -13 -179 -39l-65 -367c-1 -10 -1 -17 1 -21c2 -3 8 -7 18 -12c36 -16 79 -24 128 -24c113 0 179 54 198 163z" />
    <glyph glyph-name="c" unicode="c" horiz-adv-x="510" 
d="M30 183l27 154c23 127 105 190 245 190c108 0 169 -46 182 -138c1 -9 -3 -15 -10 -17l-15 -4c-8 -3 -13 -1 -15 7c-11 75 -61 113 -148 113c-112 0 -177 -51 -196 -154l-28 -155c-9 -48 -1 -86 23 -113c25 -27 64 -41 119 -41c91 0 155 40 191 119c4 8 10 11 17 8l17 -6
c7 -3 9 -8 5 -16c-47 -96 -125 -144 -236 -144c-69 0 -118 18 -149 54c-30 34 -40 82 -29 143z" />
    <glyph glyph-name="cacute" unicode="&#x107;" horiz-adv-x="510" 
d="M212 609l187 106c11 5 18 5 23 -1l7 -11c5 -7 3 -12 -5 -15l-195 -102c-8 -3 -13 -3 -16 1l-5 8c-4 6 -3 11 4 14zM30 183l27 154c23 127 105 190 245 190c108 0 169 -46 182 -138c1 -9 -3 -15 -10 -17l-15 -4c-8 -3 -13 -1 -15 7c-11 75 -61 113 -148 113
c-112 0 -177 -51 -196 -154l-28 -155c-9 -48 -1 -86 23 -113c25 -27 64 -41 119 -41c91 0 155 40 191 119c4 8 10 11 17 8l17 -6c7 -3 9 -8 5 -16c-47 -96 -125 -144 -236 -144c-69 0 -118 18 -149 54c-30 34 -40 82 -29 143z" />
    <glyph glyph-name="ccaron" unicode="&#x10d;" horiz-adv-x="510" 
d="M462 712h19c10 0 11 -4 4 -11l-152 -112c-9 -7 -17 -11 -25 -11h-4c-8 0 -16 4 -23 11l-113 113c-5 7 -3 10 7 10h17c8 0 14 -2 18 -7l99 -96l131 96c6 5 13 7 22 7zM302 527c108 0 169 -46 182 -138c1 -9 -3 -15 -10 -17l-15 -4c-8 -3 -13 -1 -15 7
c-11 75 -61 113 -148 113c-112 0 -177 -51 -196 -154l-28 -155c-9 -48 -1 -86 23 -113c25 -27 64 -41 119 -41c91 0 155 40 191 119c4 8 10 11 17 8l17 -6c7 -3 9 -8 5 -16c-47 -96 -125 -144 -236 -144c-69 0 -118 18 -149 54c-30 34 -40 82 -29 143l27 154
c23 127 105 190 245 190z" />
    <glyph glyph-name="ccedilla" unicode="&#xe7;" horiz-adv-x="510" 
d="M30 183l28 154c23 127 104 190 244 190c109 0 169 -46 182 -138c2 -9 -1 -15 -10 -17l-15 -4c-8 -3 -13 -1 -14 7c-13 75 -62 113 -149 113c-112 0 -177 -51 -196 -154l-27 -155c-9 -48 -1 -86 23 -113c25 -27 64 -41 118 -41c91 0 155 40 191 119c5 8 10 11 17 8l18 -6
c7 -3 8 -8 4 -16c-44 -92 -118 -140 -221 -144l-38 -70c6 2 17 3 32 3c28 0 49 -7 62 -20s17 -32 12 -55c-12 -61 -54 -91 -127 -91c-33 0 -60 8 -81 23c-5 3 -7 9 -6 16l2 13c1 7 4 8 8 4c21 -18 46 -27 77 -27c53 0 83 22 92 66c5 33 -15 50 -61 50c-15 0 -28 -2 -38 -6
c-11 -2 -13 3 -8 14l45 80c-63 3 -109 22 -138 57c-28 35 -37 81 -26 140z" />
    <glyph glyph-name="ccircumflex" unicode="&#x109;" horiz-adv-x="510" 
d="M174 579h-22c-9 0 -10 3 -5 10l154 112c9 7 17 11 26 11h5c8 0 15 -4 22 -11l113 -112c5 -7 2 -10 -8 -10h-15c-9 0 -16 2 -20 7l-98 96l-132 -96c-6 -5 -13 -7 -20 -7zM484 389c1 -9 -3 -15 -10 -17l-15 -4c-8 -3 -13 -1 -15 7c-11 75 -61 113 -148 113
c-112 0 -177 -51 -196 -154l-28 -155c-9 -48 -1 -86 23 -113c25 -27 64 -41 119 -41c91 0 155 40 191 119c4 8 10 11 17 8l17 -6c7 -3 9 -8 5 -16c-47 -96 -125 -144 -236 -144c-69 0 -118 18 -149 54c-30 34 -40 82 -29 143l27 154c23 127 105 190 245 190
c108 0 169 -46 182 -138z" />
    <glyph glyph-name="cdotaccent" unicode="&#x10b;" horiz-adv-x="510" 
d="M319 669h5c15 0 22 -8 20 -24l-2 -4c-2 -16 -11 -24 -28 -24h-4c-16 0 -23 8 -20 24l1 4c3 16 12 24 28 24zM30 183l27 154c23 127 105 190 245 190c108 0 169 -46 182 -138c1 -9 -3 -15 -10 -17l-15 -4c-8 -3 -13 -1 -15 7c-11 75 -61 113 -148 113
c-112 0 -177 -51 -196 -154l-28 -155c-9 -48 -1 -86 23 -113c25 -27 64 -41 119 -41c91 0 155 40 191 119c4 8 10 11 17 8l17 -6c7 -3 9 -8 5 -16c-47 -96 -125 -144 -236 -144c-69 0 -118 18 -149 54c-30 34 -40 82 -29 143z" />
    <glyph glyph-name="d" unicode="d" horiz-adv-x="533" 
d="M31 188l27 146c22 129 97 193 225 193c59 0 116 -12 171 -36l42 237c1 8 5 12 14 12h20c7 0 10 -4 9 -12l-116 -658c-5 -26 -21 -44 -49 -55c-51 -19 -108 -29 -170 -29c-138 0 -196 67 -173 202zM382 82l65 368c-49 25 -104 37 -164 37c-103 0 -165 -52 -184 -157
l-25 -144c-19 -107 27 -161 139 -161c49 0 96 8 139 23c17 7 27 19 30 34z" />
    <glyph glyph-name="eth" unicode="&#xf0;" horiz-adv-x="549" 
d="M437 687l68 59c4 4 8 4 12 1l9 -9c4 -3 4 -7 -1 -11l-67 -58c51 -53 66 -143 43 -268l-39 -226c-11 -60 -37 -106 -79 -139c-43 -33 -100 -50 -170 -50c-71 0 -122 17 -153 52c-31 33 -41 80 -30 140l24 140c22 125 103 187 243 187c92 0 147 -32 165 -95
c18 109 6 185 -37 228l-91 -81c-5 -3 -9 -3 -12 0l-9 8c-3 3 -3 7 1 11l90 78c-41 31 -105 47 -191 47c-7 0 -11 4 -10 12l3 16c1 8 5 12 14 12c96 0 168 -18 217 -54zM418 175l26 141c8 47 0 84 -25 110c-25 27 -66 40 -122 40c-117 0 -183 -50 -200 -151l-25 -140
c-9 -47 -1 -84 24 -110c25 -27 66 -40 123 -40c115 0 182 50 199 150z" />
    <glyph glyph-name="dcaron" unicode="&#x10f;" horiz-adv-x="562" 
d="M31 188l27 146c22 129 97 193 225 193c59 0 116 -12 171 -36l42 237c1 8 5 12 14 12h20c7 0 10 -4 9 -12l-116 -658c-5 -26 -21 -44 -49 -55c-51 -19 -108 -29 -170 -29c-138 0 -196 67 -173 202zM689 728l-81 -208c-2 -7 -6 -11 -13 -11h-11c-7 0 -10 3 -8 9l72 210
c1 8 6 12 14 12h16c11 0 14 -4 11 -12zM382 82l65 368c-49 25 -104 37 -164 37c-103 0 -165 -52 -184 -157l-25 -144c-19 -107 27 -161 139 -161c49 0 96 8 139 23c17 7 27 19 30 34z" />
    <glyph glyph-name="dslash" unicode="&#x111;" horiz-adv-x="534" 
d="M526 647h74c7 0 9 -3 7 -10l-2 -9c-1 -7 -4 -10 -10 -10h-74l-97 -548c-5 -26 -21 -44 -49 -55c-51 -19 -108 -29 -170 -29c-138 0 -196 67 -173 202l26 146c23 128 99 192 226 192c61 0 118 -12 171 -35l23 127h-168c-6 0 -9 3 -9 10l3 9c1 7 4 10 11 10h168l14 81
c1 8 5 12 14 12h20c7 0 10 -4 9 -12zM383 82l65 369c-51 24 -105 36 -164 36c-103 0 -165 -52 -184 -157l-25 -144c-19 -107 27 -161 139 -161c49 0 96 8 139 23c17 7 27 19 30 34z" />
    <glyph glyph-name="e" unicode="e" horiz-adv-x="519" 
d="M29 187l25 136c11 65 39 115 83 150c44 36 100 54 169 54c67 0 117 -15 150 -46s43 -74 30 -128c-21 -89 -97 -134 -230 -134c-63 0 -122 6 -175 18l-10 -58c-18 -104 29 -156 140 -156c80 0 143 31 190 93c6 7 12 8 19 4l12 -8c7 -4 7 -10 1 -17
c-53 -73 -130 -109 -229 -109c-69 0 -119 19 -149 56c-28 35 -37 83 -26 145zM444 359c11 43 3 75 -22 97s-66 33 -122 33c-55 0 -100 -15 -136 -45c-36 -29 -59 -70 -68 -123l-9 -49c53 -13 112 -19 176 -19c103 0 164 35 181 106z" />
    <glyph glyph-name="eacute" unicode="&#xe9;" horiz-adv-x="519" 
d="M221 609l188 107c10 5 17 5 22 -1l7 -11c5 -7 3 -12 -4 -15l-195 -103c-8 -3 -13 -2 -16 2l-6 8c-3 5 -2 10 4 13zM29 187l25 136c11 65 39 115 83 150c44 36 100 54 169 54c67 0 117 -15 150 -46s43 -74 30 -128c-21 -89 -97 -134 -230 -134c-63 0 -122 6 -175 18
l-10 -58c-18 -104 29 -156 140 -156c80 0 143 31 190 93c6 7 12 8 19 4l12 -8c7 -4 7 -10 1 -17c-53 -73 -130 -109 -229 -109c-69 0 -119 19 -149 56c-28 35 -37 83 -26 145zM444 359c11 43 3 75 -22 97s-66 33 -122 33c-55 0 -100 -15 -136 -45c-36 -29 -59 -70 -68 -123
l-9 -49c53 -13 112 -19 176 -19c103 0 164 35 181 106z" />
    <glyph glyph-name="ebreve" unicode="&#x115;" horiz-adv-x="519" 
d="M486 695c-35 -74 -90 -111 -166 -111c-81 0 -126 37 -134 111c-1 6 2 10 8 12l15 5c7 2 11 0 12 -6c5 -59 38 -88 101 -88c61 0 105 30 132 90c3 5 7 7 12 5l17 -6c4 -3 5 -7 3 -12zM29 187l25 136c11 65 39 115 83 150c44 36 100 54 169 54c67 0 117 -15 150 -46
s43 -74 30 -128c-21 -89 -97 -134 -230 -134c-63 0 -122 6 -175 18l-10 -58c-18 -104 29 -156 140 -156c80 0 143 31 190 93c6 7 12 8 19 4l12 -8c7 -4 7 -10 1 -17c-53 -73 -130 -109 -229 -109c-69 0 -119 19 -149 56c-28 35 -37 83 -26 145zM444 359c11 43 3 75 -22 97
s-66 33 -122 33c-55 0 -100 -15 -136 -45c-36 -29 -59 -70 -68 -123l-9 -49c53 -13 112 -19 176 -19c103 0 164 35 181 106z" />
    <glyph glyph-name="ecaron" unicode="&#x11b;" horiz-adv-x="519" 
d="M472 712h19c9 0 11 -3 4 -10l-152 -112c-9 -7 -17 -11 -25 -11h-4c-9 0 -16 4 -23 11l-113 112c-5 7 -3 10 6 10h18c8 0 14 -2 17 -7l99 -95l132 95c5 5 13 7 22 7zM306 527c67 0 117 -15 150 -46s43 -74 30 -128c-21 -89 -97 -134 -230 -134c-63 0 -122 6 -175 18
l-10 -58c-18 -104 29 -156 140 -156c80 0 143 31 190 93c6 7 12 8 19 4l12 -8c7 -4 7 -10 1 -17c-53 -73 -130 -109 -229 -109c-69 0 -119 19 -149 56c-28 35 -37 83 -26 145l25 136c11 65 39 115 83 150c44 36 100 54 169 54zM444 359c11 43 3 75 -22 97s-66 33 -122 33
c-55 0 -100 -15 -136 -45c-36 -29 -59 -70 -68 -123l-9 -49c53 -13 112 -19 176 -19c103 0 164 35 181 106z" />
    <glyph glyph-name="ecircumflex" unicode="&#xea;" horiz-adv-x="519" 
d="M183 579h-21c-10 0 -12 3 -5 10l153 113c10 7 19 11 26 11h6c8 0 15 -4 22 -11l112 -113c7 -7 4 -10 -7 -10h-16c-8 0 -14 2 -19 7l-98 97l-132 -97c-6 -5 -13 -7 -21 -7zM306 527c67 0 117 -15 150 -46s43 -74 30 -128c-21 -89 -97 -134 -230 -134c-63 0 -122 6 -175 18
l-10 -58c-18 -104 29 -156 140 -156c80 0 143 31 190 93c6 7 12 8 19 4l12 -8c7 -4 7 -10 1 -17c-53 -73 -130 -109 -229 -109c-69 0 -119 19 -149 56c-28 35 -37 83 -26 145l25 136c11 65 39 115 83 150c44 36 100 54 169 54zM444 359c11 43 3 75 -22 97s-66 33 -122 33
c-55 0 -100 -15 -136 -45c-36 -29 -59 -70 -68 -123l-9 -49c53 -13 112 -19 176 -19c103 0 164 35 181 106z" />
    <glyph glyph-name="edieresis" unicode="&#xeb;" horiz-adv-x="519" 
d="M234 677h6c15 0 21 -8 19 -23l-2 -7c-3 -15 -11 -22 -26 -22h-7c-15 0 -21 7 -18 22l1 7c3 15 12 23 27 23zM425 677h6c15 0 22 -8 19 -23l-1 -7c-3 -15 -13 -22 -28 -22h-5c-16 0 -23 7 -20 22l1 7c3 15 12 23 28 23zM29 187l25 136c11 65 39 115 83 150
c44 36 100 54 169 54c67 0 117 -15 150 -46s43 -74 30 -128c-21 -89 -97 -134 -230 -134c-63 0 -122 6 -175 18l-10 -58c-18 -104 29 -156 140 -156c80 0 143 31 190 93c6 7 12 8 19 4l12 -8c7 -4 7 -10 1 -17c-53 -73 -130 -109 -229 -109c-69 0 -119 19 -149 56
c-28 35 -37 83 -26 145zM444 359c11 43 3 75 -22 97s-66 33 -122 33c-55 0 -100 -15 -136 -45c-36 -29 -59 -70 -68 -123l-9 -49c53 -13 112 -19 176 -19c103 0 164 35 181 106z" />
    <glyph glyph-name="edotaccent" unicode="&#x117;" horiz-adv-x="519" 
d="M329 670h4c16 0 23 -8 20 -24l-1 -5c-3 -16 -12 -24 -28 -24h-4c-17 0 -23 8 -20 24l1 5c3 16 12 24 28 24zM29 187l25 136c11 65 39 115 83 150c44 36 100 54 169 54c67 0 117 -15 150 -46s43 -74 30 -128c-21 -89 -97 -134 -230 -134c-63 0 -122 6 -175 18l-10 -58
c-18 -104 29 -156 140 -156c80 0 143 31 190 93c6 7 12 8 19 4l12 -8c7 -4 7 -10 1 -17c-53 -73 -130 -109 -229 -109c-69 0 -119 19 -149 56c-28 35 -37 83 -26 145zM444 359c11 43 3 75 -22 97s-66 33 -122 33c-55 0 -100 -15 -136 -45c-36 -29 -59 -70 -68 -123l-9 -49
c53 -13 112 -19 176 -19c103 0 164 35 181 106z" />
    <glyph glyph-name="egrave" unicode="&#xe8;" horiz-adv-x="519" 
d="M238 705l9 10c7 7 15 7 23 1l149 -107c5 -3 4 -8 -1 -14l-6 -6c-4 -4 -9 -4 -16 -1l-159 102c-6 3 -6 8 1 15zM29 187l25 136c11 65 39 115 83 150c44 36 100 54 169 54c67 0 117 -15 150 -46s43 -74 30 -128c-21 -89 -97 -134 -230 -134c-63 0 -122 6 -175 18l-10 -58
c-18 -104 29 -156 140 -156c80 0 143 31 190 93c6 7 12 8 19 4l12 -8c7 -4 7 -10 1 -17c-53 -73 -130 -109 -229 -109c-69 0 -119 19 -149 56c-28 35 -37 83 -26 145zM444 359c11 43 3 75 -22 97s-66 33 -122 33c-55 0 -100 -15 -136 -45c-36 -29 -59 -70 -68 -123l-9 -49
c53 -13 112 -19 176 -19c103 0 164 35 181 106z" />
    <glyph glyph-name="emacron" unicode="&#x113;" horiz-adv-x="519" 
d="M442 626h-238c-7 0 -10 4 -8 11l1 11c1 7 6 11 13 11h238c7 0 10 -4 9 -11l-2 -11c-1 -7 -5 -11 -13 -11zM306 527c67 0 117 -15 150 -46s43 -74 30 -128c-21 -89 -97 -134 -230 -134c-63 0 -122 6 -175 18l-10 -58c-18 -104 29 -156 140 -156c80 0 143 31 190 93
c6 7 12 8 19 4l12 -8c7 -4 7 -10 1 -17c-53 -73 -130 -109 -229 -109c-69 0 -119 19 -149 56c-28 35 -37 83 -26 145l25 136c11 65 39 115 83 150c44 36 100 54 169 54zM444 359c11 43 3 75 -22 97s-66 33 -122 33c-55 0 -100 -15 -136 -45c-36 -29 -59 -70 -68 -123l-9 -49
c53 -13 112 -19 176 -19c103 0 164 35 181 106z" />
    <glyph glyph-name="eogonek" unicode="&#x119;" horiz-adv-x="519" 
d="M29 187l25 136c11 65 39 115 83 150c44 36 100 54 169 54c67 0 117 -15 150 -46s43 -74 30 -128c-21 -89 -97 -134 -230 -134c-63 0 -122 6 -175 18l-10 -58c-18 -104 29 -156 140 -156c80 0 143 31 190 93c6 7 12 8 19 4l12 -8c7 -4 7 -10 1 -17
c-17 -25 -38 -45 -61 -62c-47 -38 -85 -79 -113 -123c-26 -40 -37 -71 -33 -92c4 -20 17 -30 40 -30c24 0 46 9 67 28c5 3 7 3 8 -2l4 -17c1 -3 0 -7 -3 -10c-29 -23 -60 -34 -94 -34c-39 0 -59 17 -62 50c-9 55 29 121 116 198c-28 -10 -61 -15 -98 -15
c-69 0 -119 19 -149 56c-28 35 -37 83 -26 145zM263 253c103 0 164 35 181 106c11 43 3 75 -22 97s-66 33 -122 33c-55 0 -100 -15 -136 -45c-36 -29 -59 -70 -68 -123l-9 -49c53 -13 112 -19 176 -19z" />
    <glyph glyph-name="f" unicode="f" horiz-adv-x="340" 
d="M389 740h9c8 0 11 -4 9 -12l-3 -15c-2 -8 -7 -12 -14 -12c-61 0 -105 -11 -130 -32c-26 -21 -44 -63 -55 -124l-5 -33h160c8 0 11 -4 9 -11l-3 -17c-1 -7 -5 -11 -13 -11h-160l-81 -461c-2 -8 -7 -12 -15 -12h-19c-8 0 -11 4 -9 12l81 461h-104c-7 0 -11 4 -10 11l3 17
c2 7 7 11 14 11h104l5 33c13 72 36 123 70 152c33 28 86 42 157 43z" />
    <glyph glyph-name="g" unicode="g" horiz-adv-x="534" 
d="M33 191l26 140c22 131 103 196 244 196c63 0 115 -10 158 -29c15 -7 25 -14 29 -21c3 -7 4 -18 1 -34l-85 -482c-25 -143 -107 -214 -244 -214c-91 0 -149 38 -174 114c-4 8 -1 14 8 18l15 7c8 4 14 2 17 -5c20 -63 66 -95 139 -95c109 0 175 58 196 175l11 68
c-59 -24 -119 -36 -181 -36c-65 0 -111 18 -138 54c-25 34 -33 82 -22 144zM427 464c-37 15 -80 23 -128 23c-113 0 -179 -54 -199 -161l-24 -138c-19 -104 23 -156 127 -156c55 0 115 12 179 37l64 362c2 15 -4 26 -19 33z" />
    <glyph glyph-name="gbreve" unicode="&#x11f;" horiz-adv-x="534" 
d="M493 695c-35 -75 -90 -112 -166 -112c-81 0 -126 37 -134 112c-1 7 1 10 8 11l15 5c6 2 10 0 12 -5c5 -59 38 -89 101 -89c61 0 105 30 132 90c3 5 7 7 12 5l17 -6c5 -2 6 -6 3 -11zM33 191l26 140c22 131 103 196 244 196c63 0 115 -10 158 -29c15 -7 25 -14 29 -21
c3 -7 4 -18 1 -34l-85 -482c-25 -143 -107 -214 -244 -214c-91 0 -149 38 -174 114c-4 8 -1 14 8 18l15 7c8 4 14 2 17 -5c20 -63 66 -95 139 -95c109 0 175 58 196 175l11 68c-59 -24 -119 -36 -181 -36c-65 0 -111 18 -138 54c-25 34 -33 82 -22 144zM427 464
c-37 15 -80 23 -128 23c-113 0 -179 -54 -199 -161l-24 -138c-19 -104 23 -156 127 -156c55 0 115 12 179 37l64 362c2 15 -4 26 -19 33z" />
    <glyph glyph-name="gcircumflex" unicode="&#x11d;" horiz-adv-x="534" 
d="M190 579h-21c-9 0 -10 3 -5 10l153 112c9 7 18 11 26 11h6c8 0 15 -4 22 -11l112 -112c5 -7 3 -10 -7 -10h-16c-9 0 -15 2 -19 7l-98 96l-132 -96c-6 -5 -13 -7 -21 -7zM461 498c15 -7 25 -14 29 -21c3 -7 4 -18 1 -34l-85 -482c-25 -143 -107 -214 -244 -214
c-91 0 -149 38 -174 114c-4 8 -1 14 8 18l15 7c8 4 14 2 17 -5c20 -63 66 -95 139 -95c109 0 175 58 196 175l11 68c-59 -24 -119 -36 -181 -36c-65 0 -111 18 -138 54c-25 34 -33 82 -22 144l26 140c22 131 103 196 244 196c63 0 115 -10 158 -29zM382 69l64 362
c2 15 -4 26 -19 33c-37 15 -80 23 -128 23c-113 0 -179 -54 -199 -161l-24 -138c-19 -104 23 -156 127 -156c55 0 115 12 179 37z" />
    <glyph glyph-name="uni0123" unicode="&#x123;" horiz-adv-x="534" 
d="M280 599l80 133c4 7 9 11 16 11h11c9 0 12 -3 9 -10l-74 -134c-3 -9 -9 -13 -16 -13h-16c-11 0 -14 4 -10 13zM33 191l26 140c22 131 103 196 244 196c63 0 115 -10 158 -29c15 -7 25 -14 29 -21c3 -7 4 -18 1 -34l-85 -482c-25 -143 -107 -214 -244 -214
c-91 0 -149 38 -174 114c-4 8 -1 14 8 18l15 7c8 4 14 2 17 -5c20 -63 66 -95 139 -95c109 0 175 58 196 175l11 68c-59 -24 -119 -36 -181 -36c-65 0 -111 18 -138 54c-25 34 -33 82 -22 144zM427 464c-37 15 -80 23 -128 23c-113 0 -179 -54 -199 -161l-24 -138
c-19 -104 23 -156 127 -156c55 0 115 12 179 37l64 362c2 15 -4 26 -19 33z" />
    <glyph glyph-name="gdotaccent" unicode="&#x121;" horiz-adv-x="534" 
d="M336 669h4c16 0 23 -8 20 -24l-1 -4c-3 -16 -12 -24 -28 -24h-4c-17 0 -23 8 -20 24l1 4c3 16 12 24 28 24zM33 191l26 140c22 131 103 196 244 196c63 0 115 -10 158 -29c15 -7 25 -14 29 -21c3 -7 4 -18 1 -34l-85 -482c-25 -143 -107 -214 -244 -214
c-91 0 -149 38 -174 114c-4 8 -1 14 8 18l15 7c8 4 14 2 17 -5c20 -63 66 -95 139 -95c109 0 175 58 196 175l11 68c-59 -24 -119 -36 -181 -36c-65 0 -111 18 -138 54c-25 34 -33 82 -22 144zM427 464c-37 15 -80 23 -128 23c-113 0 -179 -54 -199 -161l-24 -138
c-19 -104 23 -156 127 -156c55 0 115 12 179 37l64 362c2 15 -4 26 -19 33z" />
    <glyph glyph-name="h" unicode="h" horiz-adv-x="548" 
d="M159 740h19c8 0 11 -4 9 -12l-41 -236c54 23 114 35 181 35c129 0 183 -65 160 -196l-56 -319c-2 -8 -7 -12 -14 -12h-20c-8 0 -11 4 -9 12l56 320c19 103 -24 155 -128 155c-64 0 -123 -12 -178 -36l-77 -439c-2 -8 -7 -12 -14 -12h-19c-7 0 -11 4 -10 12l127 716
c1 8 5 12 14 12z" />
    <glyph glyph-name="hbar" unicode="&#x127;" horiz-adv-x="548" 
d="M169 623l-23 -131c54 23 114 35 181 35c129 0 183 -65 160 -196l-56 -319c-2 -8 -7 -12 -14 -12h-20c-8 0 -11 4 -9 12l56 320c19 103 -24 155 -128 155c-64 0 -123 -12 -178 -36l-77 -439c-2 -8 -7 -12 -14 -12h-19c-7 0 -11 4 -10 12l108 611h-65c-6 0 -8 4 -7 11l1 8
c1 7 4 10 11 10h65l14 76c1 8 5 12 14 12h19c8 0 11 -4 9 -12l-13 -76h168c7 0 9 -3 7 -10l-1 -8c-1 -7 -5 -11 -11 -11h-168z" />
    <glyph glyph-name="hcircumflex" unicode="&#x125;" horiz-adv-x="548" 
d="M47 791h-21c-11 0 -13 3 -5 10l153 112c9 7 17 11 26 11h6c8 0 15 -4 21 -11l113 -112c5 -7 3 -10 -7 -10h-16c-9 0 -15 2 -19 7l-98 96l-133 -96c-5 -5 -12 -7 -20 -7zM329 527c129 0 183 -65 160 -196l-56 -319c-2 -8 -7 -12 -14 -12h-20c-8 0 -11 4 -9 12l56 320
c19 103 -24 155 -128 155c-64 0 -123 -12 -178 -36l-77 -439c-2 -8 -7 -12 -14 -12h-19c-7 0 -11 4 -10 12l127 716c1 8 5 12 14 12h19c8 0 11 -4 9 -12l-41 -236c54 23 114 35 181 35z" />
    <glyph glyph-name="i" unicode="i" horiz-adv-x="183" 
d="M157 691h5c17 0 24 -8 21 -25l-1 -6c-3 -17 -13 -26 -30 -26h-5c-17 0 -24 9 -21 26v6c3 17 14 25 31 25zM118 512h20c8 0 11 -4 9 -11l-86 -489c-2 -8 -7 -12 -14 -12h-19c-7 0 -11 4 -10 12l86 489c2 7 7 11 14 11z" />
    <glyph glyph-name="dotlessi" unicode="&#x131;" horiz-adv-x="183" 
d="M118 512h20c8 0 11 -4 9 -11l-86 -489c-2 -8 -7 -12 -14 -12h-19c-7 0 -11 4 -10 12l86 489c2 7 7 11 14 11z" />
    <glyph glyph-name="iacute" unicode="&#xed;" horiz-adv-x="183" 
d="M63 609l155 106c11 7 18 7 23 -1l7 -11c4 -5 2 -10 -6 -15l-163 -102c-8 -4 -13 -4 -16 1l-5 8c-3 5 -1 9 5 14zM118 512h20c8 0 11 -4 9 -11l-86 -489c-2 -8 -7 -12 -14 -12h-19c-7 0 -11 4 -10 12l86 489c2 7 7 11 14 11z" />
    <glyph glyph-name="ibreve" unicode="&#x12d;" horiz-adv-x="183" 
d="M262 710l16 -5c4 -3 5 -7 4 -12c-28 -71 -75 -107 -141 -107c-69 0 -104 36 -105 107c-1 6 2 10 7 12l15 5c7 1 11 0 12 -5c-1 -57 24 -85 75 -85s86 28 105 85c2 5 6 6 12 5zM118 512h20c8 0 11 -4 9 -11l-86 -489c-2 -8 -7 -12 -14 -12h-19c-7 0 -11 4 -10 12l86 489
c2 7 7 11 14 11z" />
    <glyph glyph-name="icircumflex" unicode="&#xee;" horiz-adv-x="183" 
d="M181 699l79 -104c5 -7 2 -10 -9 -10h-14c-9 0 -14 3 -17 8l-65 86l-97 -87c-5 -5 -11 -7 -20 -7h-19c-9 0 -11 3 -4 10l116 104c8 7 16 11 25 11h6c7 0 14 -4 19 -11zM119 512h20c8 0 11 -4 9 -11l-86 -489c-2 -8 -7 -12 -14 -12h-19c-7 0 -11 4 -10 12l86 489
c2 7 7 11 14 11z" />
    <glyph glyph-name="idieresis" unicode="&#xef;" horiz-adv-x="183" 
d="M82 691h6c15 0 22 -7 20 -22l-2 -7c-3 -15 -11 -23 -26 -23h-7c-15 0 -22 8 -19 23l2 7c3 15 11 22 26 22zM222 691h6c16 0 23 -7 20 -22l-2 -7c-3 -15 -12 -23 -27 -23h-5c-16 0 -23 8 -21 23l2 7c3 15 12 22 27 22zM118 512h20c8 0 11 -4 9 -11l-86 -489
c-2 -8 -7 -12 -14 -12h-19c-7 0 -11 4 -10 12l86 489c2 7 7 11 14 11z" />
    <glyph glyph-name="igrave" unicode="&#xec;" horiz-adv-x="183" 
d="M56 700l9 8c7 6 14 7 21 3l115 -105c5 -4 5 -9 -1 -14l-5 -5c-4 -3 -9 -4 -16 -1l-123 99c-7 3 -7 8 0 15zM118 512h20c8 0 11 -4 9 -11l-86 -489c-2 -8 -7 -12 -14 -12h-19c-7 0 -11 4 -10 12l86 489c2 7 7 11 14 11z" />
    <glyph glyph-name="ij" unicode="&#x133;" horiz-adv-x="428" 
d="M157 691h5c17 0 24 -8 21 -25l-1 -6c-3 -17 -13 -26 -30 -26h-5c-17 0 -24 9 -21 26v6c3 17 14 25 31 25zM401 691h5c17 0 24 -8 21 -25v-6c-3 -17 -13 -26 -30 -26h-5c-17 0 -24 9 -21 26v6c3 17 13 25 30 25zM118 512h20c8 0 11 -4 9 -11l-86 -489
c-2 -8 -7 -12 -14 -12h-19c-7 0 -11 4 -10 12l86 489c2 7 7 11 14 11zM363 512h19c7 0 11 -4 10 -11l-90 -510c-13 -74 -37 -128 -72 -163c-38 -39 -93 -58 -165 -58c-7 0 -10 4 -9 12l3 17c1 7 6 11 14 11c57 0 101 16 131 47c26 29 44 73 55 134l90 510c2 7 7 11 14 11z
" />
    <glyph glyph-name="imacron" unicode="&#x12b;" horiz-adv-x="183" 
d="M68 660h162c4 0 6 -3 5 -10l-2 -11c-2 -7 -5 -11 -8 -11h-163c-5 0 -7 4 -5 11l2 11c1 7 4 10 9 10zM118 512h20c8 0 11 -4 9 -11l-86 -489c-2 -8 -7 -12 -14 -12h-19c-7 0 -11 4 -10 12l86 489c2 7 7 11 14 11z" />
    <glyph glyph-name="iogonek" unicode="&#x12f;" horiz-adv-x="183" 
d="M153 634h-5c-17 0 -24 9 -21 26v6c3 17 14 25 31 25h5c17 0 24 -8 21 -25l-1 -6c-3 -17 -13 -26 -30 -26zM66 -187l4 -11c2 -3 1 -7 -2 -10c-21 -25 -46 -38 -76 -38c-46 0 -68 22 -65 66c3 48 36 109 99 182c-5 0 -8 3 -7 10l86 489c2 7 7 11 14 11h20c8 0 11 -4 9 -11
l-86 -489c-1 -5 -3 -8 -4 -9c-57 -73 -88 -129 -92 -170c-3 -31 10 -46 40 -46c20 0 37 9 51 27c3 3 6 3 9 -1z" />
    <glyph glyph-name="itilde" unicode="&#x129;" horiz-adv-x="183" 
d="M255 703h13c5 0 7 -3 5 -8c-10 -61 -35 -91 -74 -91c-18 0 -34 11 -49 34c-14 22 -28 33 -43 33c-27 0 -44 -20 -51 -60c-1 -5 -3 -8 -8 -8h-14c-5 0 -7 3 -6 8c11 61 36 92 77 92c21 0 38 -12 53 -35s29 -35 44 -35c22 0 37 21 44 62c1 5 4 8 9 8zM118 512h20
c8 0 11 -4 9 -11l-86 -489c-2 -8 -7 -12 -14 -12h-19c-7 0 -11 4 -10 12l86 489c2 7 7 11 14 11z" />
    <glyph glyph-name="j" unicode="j" horiz-adv-x="183" 
d="M157 691h5c17 0 24 -8 21 -25l-1 -6c-3 -17 -13 -26 -30 -26h-5c-17 0 -24 9 -21 26v6c3 17 14 25 31 25zM118 512h20c8 0 11 -4 9 -11l-90 -510c-13 -74 -37 -128 -71 -163c-39 -39 -94 -58 -165 -58c-7 0 -11 4 -10 12l3 17c1 7 6 11 14 11c58 0 102 16 131 47
c26 28 45 73 56 134l89 510c2 7 7 11 14 11z" />
    <glyph glyph-name="uni0237" unicode="&#x237;" horiz-adv-x="183" 
d="M119 512h19c8 0 11 -4 9 -11l-90 -510c-13 -74 -37 -128 -71 -163c-39 -39 -94 -58 -165 -58c-7 0 -11 4 -10 12l3 17c1 7 6 11 15 11c57 0 101 16 131 47c26 29 44 73 55 134l89 510c2 7 7 11 15 11z" />
    <glyph glyph-name="jcircumflex" unicode="&#x135;" horiz-adv-x="183" 
d="M158 708h5c8 0 15 -4 20 -11l87 -110c5 -7 2 -10 -9 -10h-13c-9 0 -16 2 -19 7l-72 95l-107 -95c-5 -5 -12 -7 -21 -7h-19c-8 0 -9 3 -4 10l127 110c8 7 16 11 25 11zM118 512h20c8 0 11 -4 9 -11l-90 -510c-13 -74 -37 -128 -71 -163c-39 -39 -94 -58 -165 -58
c-7 0 -11 4 -10 12l3 17c1 7 6 11 14 11c58 0 102 16 131 47c26 28 45 73 56 134l89 510c2 7 7 11 14 11z" />
    <glyph glyph-name="k" unicode="k" horiz-adv-x="497" 
d="M363 196l59 -183c3 -9 0 -13 -9 -13h-19c-9 0 -15 3 -17 10l-54 169c-14 44 -45 66 -93 66h-128l-41 -233c-2 -8 -7 -12 -14 -12h-19c-7 0 -11 4 -10 12l127 716c1 8 5 12 14 12h19c8 0 11 -4 9 -12l-78 -445h132l211 220c6 6 14 9 25 9h18c12 0 14 -4 5 -13l-216 -224
c39 -7 65 -33 79 -79z" />
    <glyph glyph-name="uni0137" unicode="&#x137;" horiz-adv-x="497" 
d="M363 196l59 -183c3 -9 0 -13 -9 -13h-19c-9 0 -15 3 -17 10l-54 169c-14 44 -45 66 -93 66h-128l-41 -233c-2 -8 -7 -12 -14 -12h-19c-7 0 -11 4 -10 12l127 716c1 8 5 12 14 12h19c8 0 11 -4 9 -12l-78 -445h132l211 220c6 6 14 9 25 9h18c12 0 14 -4 5 -13l-216 -224
c39 -7 65 -33 79 -79zM229 -67l-68 -149c-3 -8 -9 -12 -17 -12h-12c-7 0 -10 3 -7 10l61 151c3 9 9 13 17 13h18c10 0 13 -4 8 -13z" />
    <glyph glyph-name="kgreenlandic" unicode="&#x138;" horiz-adv-x="464" 
d="M240 294l140 -279c4 -10 0 -15 -11 -15h-18c-10 0 -16 3 -19 10l-128 254l-120 -106l-29 -146c-3 -8 -8 -12 -16 -12h-19c-8 0 -11 4 -8 12l104 489c3 7 8 11 16 11h19c8 0 11 -4 8 -11l-57 -280l323 282c7 6 17 9 28 9h19c14 0 15 -4 3 -13z" />
    <glyph glyph-name="l" unicode="l" horiz-adv-x="190" 
d="M192 728l-126 -716c-2 -8 -7 -12 -14 -12h-20c-8 0 -11 4 -9 12l126 716c1 8 5 12 14 12h20c7 0 10 -4 9 -12z" />
    <glyph glyph-name="lacute" unicode="&#x13a;" horiz-adv-x="190" 
d="M99 803l153 82c9 5 16 4 21 -3l7 -12c3 -7 2 -12 -5 -15l-161 -77c-8 -3 -13 -3 -16 2l-5 8c-3 7 -1 12 6 15zM192 728l-126 -716c-2 -8 -7 -12 -14 -12h-20c-8 0 -11 4 -9 12l126 716c1 8 5 12 14 12h20c7 0 10 -4 9 -12z" />
    <glyph glyph-name="lcaron" unicode="&#x13e;" horiz-adv-x="197" 
d="M192 728l-126 -716c-2 -8 -7 -12 -14 -12h-20c-8 0 -11 4 -9 12l126 716c1 8 5 12 14 12h20c7 0 10 -4 9 -12zM325 727l-69 -178c-3 -7 -8 -11 -15 -11h-10c-7 0 -9 4 -7 11l60 179c3 8 8 12 16 12h15c11 0 14 -4 10 -13z" />
    <glyph glyph-name="uni013C" unicode="&#x13c;" horiz-adv-x="190" 
d="M191 728l-126 -716c-2 -8 -7 -12 -14 -12h-20c-8 0 -11 4 -9 12l126 716c1 8 5 12 14 12h20c7 0 10 -4 9 -12zM57 -61l-70 -159c-4 -7 -10 -11 -17 -11h-11c-7 0 -10 3 -7 10l64 160c3 9 9 13 17 13h16c10 0 13 -4 8 -13z" />
    <glyph glyph-name="ldot" unicode="&#x140;" horiz-adv-x="276" 
d="M192 728l-126 -716c-2 -8 -7 -12 -14 -12h-20c-8 0 -11 4 -9 12l126 716c1 8 5 12 14 12h20c7 0 10 -4 9 -12zM249 404h5c18 0 25 -9 22 -27l-1 -6c-3 -18 -14 -27 -33 -27h-5c-18 0 -25 9 -22 27l2 6c3 18 13 27 32 27z" />
    <glyph glyph-name="lslash" unicode="&#x142;" horiz-adv-x="258" 
d="M264 448l6 -12c3 -4 1 -8 -6 -12l-108 -58l-62 -354c-2 -8 -7 -12 -14 -12h-20c-8 0 -11 4 -9 12l58 330l-83 -45c-7 -3 -11 -2 -12 3l-7 13c-1 6 2 10 7 13l102 54l61 348c1 8 5 12 14 12h20c7 0 10 -4 9 -12l-57 -324l89 47c5 3 9 2 12 -3z" />
    <glyph glyph-name="m" unicode="m" horiz-adv-x="811" 
d="M417 479c73 32 137 48 191 48c118 0 166 -63 144 -188l-58 -327c-2 -8 -7 -12 -14 -12h-19c-7 0 -11 4 -10 12l58 327c17 99 -20 148 -112 148c-56 0 -110 -14 -162 -41c11 -26 12 -61 5 -105l-58 -329c-2 -8 -7 -12 -14 -12h-19c-9 0 -12 4 -10 12l58 327
c17 99 -21 148 -116 148c-45 0 -85 -8 -121 -24c-15 -7 -25 -18 -28 -35l-72 -416c-2 -8 -7 -12 -14 -12h-20c-8 0 -11 4 -9 12l75 427c5 26 21 45 47 57c49 21 100 31 153 31c59 0 101 -16 125 -48z" />
    <glyph glyph-name="n" unicode="n" horiz-adv-x="545" 
d="M139 494c59 22 121 33 186 33c129 0 183 -65 160 -196l-56 -319c-2 -8 -7 -12 -14 -12h-20c-8 0 -11 4 -9 12l56 320c19 103 -24 155 -128 155c-53 0 -104 -9 -155 -26c-15 -7 -24 -18 -27 -33l-72 -416c-2 -8 -7 -12 -14 -12h-20c-8 0 -11 4 -9 12l75 427
c5 26 21 44 47 55z" />
    <glyph glyph-name="nacute" unicode="&#x144;" horiz-adv-x="545" 
d="M223 609l188 107c10 5 17 5 22 -1l7 -11c5 -7 3 -12 -4 -15l-195 -103c-8 -3 -13 -2 -16 2l-5 8c-4 5 -3 10 3 13zM139 494c59 22 121 33 186 33c129 0 183 -65 160 -196l-56 -319c-2 -8 -7 -12 -14 -12h-20c-8 0 -11 4 -9 12l56 320c19 103 -24 155 -128 155
c-53 0 -104 -9 -155 -26c-15 -7 -24 -18 -27 -33l-72 -416c-2 -8 -7 -12 -14 -12h-20c-8 0 -11 4 -9 12l75 427c5 26 21 44 47 55z" />
    <glyph glyph-name="napostrophe" unicode="&#x149;" horiz-adv-x="545" 
d="M180 727l-109 -179c-4 -6 -9 -9 -15 -9h-13c-7 0 -9 3 -6 10l100 180c3 7 8 11 14 11h20c11 0 14 -4 9 -13zM139 494c59 22 121 33 186 33c129 0 183 -65 160 -196l-56 -319c-2 -8 -7 -12 -14 -12h-20c-8 0 -11 4 -9 12l56 320c19 103 -24 155 -128 155
c-53 0 -104 -9 -155 -26c-15 -7 -24 -18 -27 -33l-72 -416c-2 -8 -7 -12 -14 -12h-20c-8 0 -11 4 -9 12l75 427c5 26 21 44 47 55z" />
    <glyph glyph-name="ncaron" unicode="&#x148;" horiz-adv-x="545" 
d="M474 712h19c9 0 11 -3 4 -10l-152 -112c-9 -7 -17 -11 -25 -11h-4c-9 0 -16 4 -23 11l-113 112c-5 7 -3 10 6 10h18c8 0 14 -2 18 -7l98 -95l132 95c5 5 13 7 22 7zM325 527c129 0 183 -65 160 -196l-56 -319c-2 -8 -7 -12 -14 -12h-20c-8 0 -11 4 -9 12l56 320
c19 103 -24 155 -128 155c-53 0 -104 -9 -155 -26c-15 -7 -24 -18 -27 -33l-72 -416c-2 -8 -7 -12 -14 -12h-20c-8 0 -11 4 -9 12l75 427c5 26 21 44 47 55c59 22 121 33 186 33z" />
    <glyph glyph-name="uni0146" unicode="&#x146;" horiz-adv-x="545" 
d="M139 494c59 22 121 33 186 33c129 0 183 -65 160 -196l-56 -319c-2 -8 -7 -12 -14 -12h-20c-8 0 -11 4 -9 12l56 320c19 103 -24 155 -128 155c-53 0 -104 -9 -155 -26c-15 -7 -24 -18 -27 -33l-72 -416c-2 -8 -7 -12 -14 -12h-20c-8 0 -11 4 -9 12l75 427
c5 26 21 44 47 55zM263 -52l-72 -153c-4 -8 -10 -12 -17 -12h-11c-8 0 -11 3 -8 10l66 155c3 9 9 13 16 13h17c10 0 13 -4 9 -13z" />
    <glyph glyph-name="eng" unicode="&#x14b;" horiz-adv-x="545" 
d="M139 494c59 22 121 33 186 33c129 0 183 -65 160 -196l-61 -346c-11 -67 -39 -120 -84 -158s-103 -57 -173 -57c-7 0 -10 4 -9 11l3 17c1 7 6 11 13 11c57 0 103 16 139 47s59 75 69 130l60 346c19 103 -24 155 -128 155c-53 0 -104 -9 -155 -26c-15 -7 -24 -18 -27 -33
l-72 -416c-2 -8 -7 -12 -14 -12h-20c-8 0 -11 4 -9 12l75 427c5 26 21 44 47 55z" />
    <glyph glyph-name="ntilde" unicode="&#xf1;" horiz-adv-x="545" 
d="M469 697h13c5 0 8 -3 7 -8c-11 -63 -40 -94 -89 -94c-25 0 -50 12 -77 36s-50 36 -69 36c-31 0 -51 -21 -59 -63c-1 -6 -4 -9 -9 -9h-13c-5 0 -8 3 -8 9c11 62 42 93 91 93c25 0 50 -12 77 -36s49 -36 68 -36c32 0 51 21 58 64c2 5 5 8 10 8zM139 494
c59 22 121 33 186 33c129 0 183 -65 160 -196l-56 -319c-2 -8 -7 -12 -14 -12h-20c-8 0 -11 4 -9 12l56 320c19 103 -24 155 -128 155c-53 0 -104 -9 -155 -26c-15 -7 -24 -18 -27 -33l-72 -416c-2 -8 -7 -12 -14 -12h-20c-8 0 -11 4 -9 12l75 427c5 26 21 44 47 55z" />
    <glyph glyph-name="o" unicode="o" horiz-adv-x="537" 
d="M30 162l33 190c9 54 36 97 80 128s99 47 164 47c66 0 116 -16 149 -48s45 -75 36 -130l-33 -189c-9 -54 -36 -97 -80 -128c-43 -31 -98 -46 -164 -46c-65 0 -115 16 -148 47c-34 32 -46 75 -37 129zM416 161l33 191c8 42 -2 75 -29 100c-27 24 -66 36 -119 36
c-51 0 -95 -12 -130 -36c-36 -25 -58 -58 -65 -100l-33 -191c-8 -41 2 -74 29 -99s66 -37 118 -37s96 12 131 37c36 24 58 57 65 99z" />
    <glyph glyph-name="oacute" unicode="&#xf3;" horiz-adv-x="537" 
d="M223 609l188 106c11 6 18 6 22 -1l7 -11c5 -7 4 -12 -4 -15l-195 -102c-8 -3 -13 -3 -16 1l-6 8c-4 5 -3 10 4 14zM30 162l33 190c9 54 36 97 80 128s99 47 164 47c66 0 116 -16 149 -48s45 -75 36 -130l-33 -189c-9 -54 -36 -97 -80 -128c-43 -31 -98 -46 -164 -46
c-65 0 -115 16 -148 47c-34 32 -46 75 -37 129zM416 161l33 191c8 42 -2 75 -29 100c-27 24 -66 36 -119 36c-51 0 -95 -12 -130 -36c-36 -25 -58 -58 -65 -100l-33 -191c-8 -41 2 -74 29 -99s66 -37 118 -37s96 12 131 37c36 24 58 57 65 99z" />
    <glyph glyph-name="obreve" unicode="&#x14f;" horiz-adv-x="537" 
d="M488 695c-35 -75 -90 -112 -166 -112c-81 0 -126 37 -134 112c-1 7 1 10 8 11l15 5c6 2 10 0 12 -5c5 -59 38 -89 101 -89c61 0 105 30 132 90c3 5 7 7 12 5l17 -6c5 -2 6 -6 3 -11zM30 162l33 190c9 54 36 97 80 128s99 47 164 47c66 0 116 -16 149 -48s45 -75 36 -130
l-33 -189c-9 -54 -36 -97 -80 -128c-43 -31 -98 -46 -164 -46c-65 0 -115 16 -148 47c-34 32 -46 75 -37 129zM416 161l33 191c8 42 -2 75 -29 100c-27 24 -66 36 -119 36c-51 0 -95 -12 -130 -36c-36 -25 -58 -58 -65 -100l-33 -191c-8 -41 2 -74 29 -99s66 -37 118 -37
s96 12 131 37c36 24 58 57 65 99z" />
    <glyph glyph-name="ocircumflex" unicode="&#xf4;" horiz-adv-x="537" 
d="M185 579h-21c-9 0 -10 3 -5 10l153 112c9 7 18 11 26 11h6c8 0 15 -4 22 -11l112 -112c5 -7 3 -10 -7 -10h-16c-9 0 -15 2 -19 7l-98 96l-132 -96c-6 -5 -13 -7 -21 -7zM307 527c66 0 116 -16 149 -48s45 -75 36 -130l-33 -189c-9 -54 -36 -97 -80 -128
c-43 -31 -98 -46 -164 -46c-65 0 -115 16 -148 47c-34 32 -46 75 -37 129l33 190c9 54 36 97 80 128s99 47 164 47zM416 161l33 191c8 42 -2 75 -29 100c-27 24 -66 36 -119 36c-51 0 -95 -12 -130 -36c-36 -25 -58 -58 -65 -100l-33 -191c-8 -41 2 -74 29 -99
s66 -37 118 -37s96 12 131 37c36 24 58 57 65 99z" />
    <glyph glyph-name="odieresis" unicode="&#xf6;" horiz-adv-x="537" 
d="M236 676h6c15 0 21 -8 19 -23l-2 -7c-3 -15 -11 -22 -26 -22h-7c-15 0 -21 7 -18 22l1 7c3 15 12 23 27 23zM427 676h6c15 0 22 -8 19 -23l-1 -7c-3 -15 -13 -22 -28 -22h-5c-16 0 -23 7 -20 22l1 7c3 15 12 23 28 23zM30 162l33 190c9 54 36 97 80 128s99 47 164 47
c66 0 116 -16 149 -48s45 -75 36 -130l-33 -189c-9 -54 -36 -97 -80 -128c-43 -31 -98 -46 -164 -46c-65 0 -115 16 -148 47c-34 32 -46 75 -37 129zM416 161l33 191c8 42 -2 75 -29 100c-27 24 -66 36 -119 36c-51 0 -95 -12 -130 -36c-36 -25 -58 -58 -65 -100l-33 -191
c-8 -41 2 -74 29 -99s66 -37 118 -37s96 12 131 37c36 24 58 57 65 99z" />
    <glyph glyph-name="ograve" unicode="&#xf2;" horiz-adv-x="537" 
d="M240 704l9 10c7 7 14 7 23 1l149 -107c5 -3 4 -8 -1 -14l-6 -6c-4 -4 -9 -4 -16 -1l-159 103c-6 3 -6 7 1 14zM30 162l33 190c9 54 36 97 80 128s99 47 164 47c66 0 116 -16 149 -48s45 -75 36 -130l-33 -189c-9 -54 -36 -97 -80 -128c-43 -31 -98 -46 -164 -46
c-65 0 -115 16 -148 47c-34 32 -46 75 -37 129zM416 161l33 191c8 42 -2 75 -29 100c-27 24 -66 36 -119 36c-51 0 -95 -12 -130 -36c-36 -25 -58 -58 -65 -100l-33 -191c-8 -41 2 -74 29 -99s66 -37 118 -37s96 12 131 37c36 24 58 57 65 99z" />
    <glyph glyph-name="ohungarumlaut" unicode="&#x151;" horiz-adv-x="537" 
d="M195 578l-9 3c-6 2 -6 6 -1 12l121 113c7 7 14 9 21 8l15 -4c8 -3 8 -7 1 -14l-132 -113c-7 -5 -12 -7 -16 -5zM503 712l16 -4c9 -3 9 -7 2 -13l-139 -112c-5 -5 -10 -7 -15 -5l-9 3c-7 2 -8 6 -2 12l127 111c6 8 13 11 20 8zM307 527c66 0 116 -16 149 -48
s45 -75 36 -130l-33 -189c-9 -54 -36 -97 -80 -128c-43 -31 -98 -46 -164 -46c-65 0 -115 16 -148 47c-34 32 -46 75 -37 129l33 190c9 54 36 97 80 128s99 47 164 47zM416 161l33 191c8 42 -2 75 -29 100c-27 24 -66 36 -119 36c-51 0 -95 -12 -130 -36
c-36 -25 -58 -58 -65 -100l-33 -191c-8 -41 2 -74 29 -99s66 -37 118 -37s96 12 131 37c36 24 58 57 65 99z" />
    <glyph glyph-name="omacron" unicode="&#x14d;" horiz-adv-x="537" 
d="M444 626h-238c-7 0 -9 4 -8 11l1 10c1 7 6 11 13 11h238c7 0 10 -4 9 -11l-2 -10c-1 -7 -5 -11 -13 -11zM307 527c66 0 116 -16 149 -48s45 -75 36 -130l-33 -189c-9 -54 -36 -97 -80 -128c-43 -31 -98 -46 -164 -46c-65 0 -115 16 -148 47c-34 32 -46 75 -37 129l33 190
c9 54 36 97 80 128s99 47 164 47zM416 161l33 191c8 42 -2 75 -29 100c-27 24 -66 36 -119 36c-51 0 -95 -12 -130 -36c-36 -25 -58 -58 -65 -100l-33 -191c-8 -41 2 -74 29 -99s66 -37 118 -37s96 12 131 37c36 24 58 57 65 99z" />
    <glyph glyph-name="oslash" unicode="&#xf8;" horiz-adv-x="537" 
d="M491 552h20c3 0 4 -2 2 -5l-57 -70c33 -32 45 -75 35 -128l-33 -189c-9 -54 -36 -97 -80 -128c-43 -31 -98 -46 -164 -46c-53 0 -96 11 -129 32l-39 -48c-3 -3 -7 -5 -11 -5h-20c-4 0 -4 2 -1 5l50 63c-33 32 -45 75 -35 129l33 190c9 54 36 97 80 128
c43 31 98 47 163 47c56 0 100 -11 132 -34l44 55c3 3 6 4 10 4zM94 71l316 388c-28 19 -65 29 -110 29c-51 0 -95 -12 -130 -36c-36 -25 -58 -58 -65 -100l-33 -191c-7 -39 0 -69 22 -90zM425 437l-313 -385c26 -18 62 -27 107 -27c52 0 96 12 131 37c36 24 58 57 65 99
l33 189c7 36 -1 65 -23 87z" />
    <glyph glyph-name="oslashacute" unicode="&#x1ff;" horiz-adv-x="537" 
d="M223 609l188 106c11 6 18 6 23 -1l7 -11c5 -7 3 -12 -5 -15l-195 -102c-8 -3 -13 -3 -16 1l-5 8c-4 6 -3 11 3 14zM491 552h20c3 0 4 -2 2 -5l-57 -70c33 -32 45 -75 35 -128l-33 -189c-9 -54 -36 -97 -80 -128c-43 -31 -98 -46 -164 -46c-53 0 -96 11 -129 32l-39 -48
c-3 -3 -7 -5 -11 -5h-20c-4 0 -4 2 -1 5l50 63c-33 32 -45 75 -35 129l33 190c9 54 36 97 80 128c43 31 98 47 163 47c56 0 100 -11 132 -34l44 55c3 3 6 4 10 4zM94 71l316 388c-28 19 -65 29 -110 29c-51 0 -95 -12 -130 -36c-36 -25 -58 -58 -65 -100l-33 -191
c-7 -39 0 -69 22 -90zM425 437l-313 -385c26 -18 62 -27 107 -27c52 0 96 12 131 37c36 24 58 57 65 99l33 189c7 36 -1 65 -23 87z" />
    <glyph glyph-name="otilde" unicode="&#xf5;" horiz-adv-x="537" 
d="M469 697h13c6 0 8 -3 7 -9c-11 -62 -40 -93 -89 -93c-25 0 -50 12 -77 36s-50 36 -69 36c-31 0 -51 -21 -59 -64c-1 -5 -4 -8 -9 -8h-14c-5 0 -8 3 -7 8c11 63 42 94 91 94c25 0 50 -12 77 -36s49 -36 68 -36c32 0 51 21 58 63c2 6 5 9 10 9zM30 162l33 190
c9 54 36 97 80 128s99 47 164 47c66 0 116 -16 149 -48s45 -75 36 -130l-33 -189c-9 -54 -36 -97 -80 -128c-43 -31 -98 -46 -164 -46c-65 0 -115 16 -148 47c-34 32 -46 75 -37 129zM416 161l33 191c8 42 -2 75 -29 100c-27 24 -66 36 -119 36c-51 0 -95 -12 -130 -36
c-36 -25 -58 -58 -65 -100l-33 -191c-8 -41 2 -74 29 -99s66 -37 118 -37s96 12 131 37c36 24 58 57 65 99z" />
    <glyph glyph-name="oe" unicode="&#x153;" horiz-adv-x="803" 
d="M430 409c39 79 101 118 186 118c61 0 104 -14 131 -43c28 -29 36 -71 23 -125c-20 -93 -88 -140 -205 -140c-49 0 -99 6 -148 19l-11 -59c-18 -104 20 -156 115 -156c71 0 126 30 165 90c6 7 12 8 18 5l13 -9c6 -4 6 -10 0 -17c-45 -71 -113 -106 -202 -106
c-84 0 -131 36 -141 109c-42 -73 -104 -109 -186 -109c-57 0 -99 16 -128 48s-38 75 -29 129l33 191c10 54 35 96 74 127s87 46 144 46c93 0 142 -39 148 -118zM728 359c21 87 -18 130 -118 130s-159 -56 -178 -167l-9 -49c50 -13 100 -20 149 -20c87 0 139 35 156 106z
M368 180l28 158c8 47 1 84 -21 111c-21 26 -54 39 -99 39c-43 0 -80 -12 -111 -36c-31 -25 -50 -59 -57 -100l-35 -192c-7 -41 0 -74 23 -99c23 -24 56 -36 99 -36c44 0 82 14 114 43c31 28 50 65 59 112z" />
    <glyph glyph-name="p" unicode="p" horiz-adv-x="533" 
d="M142 498c51 19 108 29 171 29c137 0 195 -67 172 -202l-27 -147c-22 -128 -99 -192 -230 -192c-57 0 -112 14 -165 43l-42 -237c-2 -8 -7 -12 -14 -12h-20c-8 0 -11 4 -9 12l115 651c5 26 21 44 49 55zM416 181l26 145c18 107 -29 161 -140 161c-49 0 -95 -8 -138 -23
c-17 -7 -28 -18 -31 -34l-63 -361c54 -29 108 -44 163 -44c103 0 164 52 183 156z" />
    <glyph glyph-name="thorn" unicode="&#xfe;" horiz-adv-x="537" 
d="M-19 -208l165 936c1 8 5 12 14 12h19c7 0 11 -4 10 -12l-44 -244c57 24 113 36 170 36c138 0 195 -67 171 -201l-25 -141c-22 -129 -99 -193 -231 -193c-55 0 -110 14 -165 43l-41 -236c-2 -8 -7 -12 -14 -12h-20c-8 0 -11 4 -9 12zM419 181l24 139
c19 107 -27 160 -139 160c-60 0 -115 -13 -166 -38l-65 -373c49 -30 103 -45 162 -45c104 0 165 52 184 157z" />
    <glyph glyph-name="q" unicode="q" horiz-adv-x="535" 
d="M303 527c63 0 116 -10 159 -29c15 -7 24 -14 28 -21c3 -7 4 -18 1 -34l-114 -651c-2 -8 -7 -12 -14 -12h-20c-8 0 -11 4 -9 12l42 237c-69 -29 -131 -43 -185 -43c-129 0 -182 65 -158 194l26 147c23 133 105 200 244 200zM101 324l-26 -145c-18 -103 24 -154 127 -154
c55 0 115 15 181 44l63 361c2 11 2 18 0 22c-2 3 -8 7 -19 12c-37 15 -80 23 -128 23c-113 0 -179 -54 -198 -163z" />
    <glyph glyph-name="r" unicode="r" horiz-adv-x="336" 
d="M323 527h30c9 0 12 -4 10 -12l-3 -16c-1 -8 -5 -12 -13 -12h-32c-57 0 -108 -9 -155 -26c-16 -7 -25 -18 -27 -33l-73 -416c-2 -8 -7 -12 -14 -12h-20c-8 0 -11 4 -9 12l75 428c5 26 21 44 47 55c55 21 116 31 184 32z" />
    <glyph glyph-name="racute" unicode="&#x155;" horiz-adv-x="336" 
d="M155 609l188 106c10 5 17 5 22 -1l7 -11c5 -7 4 -12 -4 -15l-196 -102c-7 -3 -13 -3 -16 1l-5 8c-4 5 -3 10 4 14zM322 527h31c7 0 11 -4 10 -12l-3 -16c-2 -8 -6 -12 -13 -12h-32c-57 0 -109 -9 -156 -26c-15 -7 -24 -18 -27 -33l-72 -416c-2 -8 -7 -12 -14 -12h-20
c-8 0 -11 4 -9 12l75 428c5 26 21 44 47 55c53 21 114 31 183 32z" />
    <glyph glyph-name="rcaron" unicode="&#x159;" horiz-adv-x="337" 
d="M406 712h19c11 0 12 -4 3 -11l-152 -112c-8 -7 -16 -11 -25 -11h-4c-7 0 -15 4 -22 11l-114 113c-4 7 -2 10 7 10h18c7 0 13 -2 17 -7l99 -96l132 96c5 5 13 7 22 7zM322 527h31c7 0 11 -4 10 -12l-3 -16c-2 -8 -6 -12 -13 -12h-32c-57 0 -109 -9 -156 -26
c-15 -7 -24 -18 -27 -33l-72 -416c-2 -8 -7 -12 -14 -12h-20c-8 0 -11 4 -9 12l75 428c5 26 21 44 47 55c53 21 114 31 183 32z" />
    <glyph glyph-name="uni0157" unicode="&#x157;" horiz-adv-x="336" 
d="M321 527h31c7 0 11 -4 10 -12l-3 -16c-2 -8 -7 -12 -14 -12h-31c-57 0 -109 -9 -156 -26c-15 -7 -24 -18 -27 -33l-73 -416c-2 -8 -7 -12 -14 -12h-19c-7 0 -11 4 -10 12l76 428c5 26 21 44 47 55c53 21 114 31 183 32zM60 -56l-68 -154c-3 -7 -9 -11 -17 -11h-12
c-7 0 -10 3 -7 10l61 155c3 9 8 13 17 13h17c10 0 13 -4 9 -13z" />
    <glyph glyph-name="s" unicode="s" horiz-adv-x="490" 
d="M65 385c17 95 88 142 215 142c103 0 163 -37 180 -110c3 -7 0 -13 -7 -17l-15 -6c-7 -3 -12 -1 -16 6c-15 59 -64 88 -147 88c-99 0 -155 -35 -168 -106c-7 -43 4 -71 33 -86c17 -9 56 -16 116 -22c59 -6 102 -18 127 -35c34 -23 46 -60 37 -111
c-17 -95 -92 -142 -224 -142c-111 0 -174 42 -191 126c-1 8 2 13 10 16l18 5c6 2 10 0 13 -7c15 -68 66 -102 155 -102c105 0 164 35 177 106c7 38 -3 65 -30 81c-19 11 -55 20 -108 25c-66 7 -111 17 -134 31c-37 22 -51 61 -41 118z" />
    <glyph glyph-name="sacute" unicode="&#x15b;" horiz-adv-x="490" 
d="M201 609l188 107c10 5 17 5 22 -1l7 -11c5 -7 3 -12 -4 -15l-195 -103c-8 -3 -13 -2 -16 2l-6 8c-3 5 -2 10 4 13zM65 385c17 95 88 142 215 142c103 0 163 -37 180 -110c3 -7 0 -13 -7 -17l-15 -6c-7 -3 -12 -1 -16 6c-15 59 -64 88 -147 88c-99 0 -155 -35 -168 -106
c-7 -43 4 -71 33 -86c17 -9 56 -16 116 -22c59 -6 102 -18 127 -35c34 -23 46 -60 37 -111c-17 -95 -92 -142 -224 -142c-111 0 -174 42 -191 126c-1 8 2 13 10 16l18 5c6 2 10 0 13 -7c15 -68 66 -102 155 -102c105 0 164 35 177 106c7 38 -3 65 -30 81
c-19 11 -55 20 -108 25c-66 7 -111 17 -134 31c-37 22 -51 61 -41 118z" />
    <glyph glyph-name="scaron" unicode="&#x161;" horiz-adv-x="490" 
d="M452 712h19c10 0 11 -3 3 -10l-152 -112c-8 -7 -16 -11 -24 -11h-4c-9 0 -16 4 -23 11l-113 112c-5 7 -3 10 6 10h18c8 0 14 -2 17 -7l99 -95l132 95c5 5 13 7 22 7zM280 527c103 0 163 -37 180 -110c3 -7 0 -13 -7 -17l-15 -6c-7 -3 -12 -1 -16 6c-15 59 -64 88 -147 88
c-99 0 -155 -35 -168 -106c-7 -43 4 -71 33 -86c17 -9 56 -16 116 -22c59 -6 102 -18 127 -35c34 -23 46 -60 37 -111c-17 -95 -92 -142 -224 -142c-111 0 -174 42 -191 126c-1 8 2 13 10 16l18 5c6 2 10 0 13 -7c15 -68 66 -102 155 -102c105 0 164 35 177 106
c7 38 -3 65 -30 81c-19 11 -55 20 -108 25c-66 7 -111 17 -134 31c-37 22 -51 61 -41 118c17 95 88 142 215 142z" />
    <glyph glyph-name="scedilla" unicode="&#x15f;" horiz-adv-x="490" 
d="M65 385c17 95 88 142 215 142c103 0 163 -37 180 -110c3 -7 0 -13 -7 -17l-15 -6c-7 -3 -12 -1 -16 6c-15 59 -64 88 -147 88c-99 0 -155 -35 -168 -106c-7 -43 4 -71 33 -86c17 -9 56 -16 116 -22c59 -6 102 -18 127 -35c34 -23 46 -60 37 -111
c-16 -88 -83 -135 -201 -141l-38 -73c11 3 21 4 32 4c59 0 84 -25 74 -76c-13 -61 -56 -91 -128 -91c-33 0 -60 8 -80 23c-5 3 -8 8 -7 15l3 13c1 7 4 8 7 5c22 -18 48 -27 78 -27c52 0 82 22 91 66c5 33 -16 49 -61 49c-16 0 -29 -2 -38 -5c-11 -2 -14 2 -7 13l45 83
c-107 1 -168 43 -185 126c-1 8 2 13 10 16l18 5c6 2 10 0 13 -7c15 -68 66 -102 155 -102c105 0 164 35 177 106c7 38 -3 65 -30 81c-19 11 -55 20 -108 25c-66 7 -111 17 -134 31c-37 22 -51 61 -41 118z" />
    <glyph glyph-name="scircumflex" unicode="&#x15d;" horiz-adv-x="490" 
d="M163 579h-21c-10 0 -12 3 -5 10l153 113c10 7 19 11 26 11h6c8 0 15 -4 21 -11l113 -113c7 -7 4 -10 -7 -10h-16c-8 0 -14 2 -19 7l-98 97l-133 -97c-5 -5 -12 -7 -20 -7zM460 417c3 -7 0 -13 -7 -17l-15 -6c-7 -3 -12 -1 -16 6c-15 59 -64 88 -147 88
c-99 0 -155 -35 -168 -106c-7 -43 4 -71 33 -86c17 -9 56 -16 116 -22c59 -6 102 -18 127 -35c34 -23 46 -60 37 -111c-17 -95 -92 -142 -224 -142c-111 0 -174 42 -191 126c-1 8 2 13 10 16l18 5c6 2 10 0 13 -7c15 -68 66 -102 155 -102c105 0 164 35 177 106
c7 38 -3 65 -30 81c-19 11 -55 20 -108 25c-66 7 -111 17 -134 31c-37 22 -51 61 -41 118c17 95 88 142 215 142c103 0 163 -37 180 -110z" />
    <glyph glyph-name="uni0219" unicode="&#x219;" horiz-adv-x="490" 
d="M65 385c17 95 88 142 215 142c103 0 163 -37 180 -110c3 -7 0 -13 -7 -17l-15 -6c-7 -3 -12 -1 -16 6c-15 59 -64 88 -147 88c-99 0 -155 -35 -168 -106c-7 -43 4 -71 33 -86c17 -9 56 -16 116 -22c59 -6 102 -18 127 -35c34 -23 46 -60 37 -111
c-17 -95 -92 -142 -224 -142c-111 0 -174 42 -191 126c-1 8 2 13 10 16l18 5c6 2 10 0 13 -7c15 -68 66 -102 155 -102c105 0 164 35 177 106c7 38 -3 65 -30 81c-19 11 -55 20 -108 25c-66 7 -111 17 -134 31c-37 22 -51 61 -41 118zM228 -76l-66 -143
c-5 -8 -11 -12 -18 -12h-11c-7 0 -10 3 -7 10l60 145c3 9 9 13 18 13h16c10 0 13 -4 8 -13z" />
    <glyph glyph-name="germandbls" unicode="&#xdf;" horiz-adv-x="545" 
d="M18 13l92 516c12 69 38 122 78 161c42 40 96 60 161 60c136 0 192 -68 169 -204c-15 -81 -57 -134 -126 -159v-1c79 -23 110 -85 92 -184c-24 -135 -103 -202 -238 -202h-96c-9 0 -12 4 -10 13l3 17c2 8 7 12 14 12h93c106 0 169 55 189 166c8 47 1 85 -20 113
c-22 28 -57 42 -104 42h-97c-9 0 -12 4 -10 13l2 16c2 9 7 13 15 13h94c43 0 80 16 109 48c24 26 40 57 47 94c19 107 -26 161 -133 161c-105 0 -168 -60 -190 -180l-91 -515c-2 -9 -7 -13 -15 -13h-17c-8 0 -12 4 -11 13z" />
    <glyph glyph-name="longs" unicode="&#x17f;" horiz-adv-x="240" 
d="M145 512l5 34c13 72 38 122 73 151s90 43 163 43c7 0 10 -4 9 -12l-3 -17c-1 -7 -6 -11 -14 -11c-61 0 -104 -11 -130 -32c-26 -22 -44 -64 -55 -125l-94 -531c-1 -8 -5 -12 -14 -12h-19c-8 0 -11 4 -9 12l81 461h-89c-9 0 -12 4 -10 11l2 17c2 7 7 11 14 11h90z" />
    <glyph glyph-name="t" unicode="t" horiz-adv-x="337" 
d="M190 632h19c7 0 11 -4 10 -11l-19 -109h159c8 0 11 -4 9 -11l-3 -17c-1 -7 -5 -11 -13 -11h-159l-51 -290c-11 -63 -8 -105 11 -126c17 -20 57 -30 119 -30c8 0 11 -4 9 -12l-3 -17c-1 -8 -5 -12 -13 -12c-76 -1 -126 13 -149 40c-25 28 -31 80 -17 156l51 291h-107
c-9 0 -12 4 -10 11l2 17c2 7 7 11 14 11h108l19 109c2 7 7 11 14 11z" />
    <glyph glyph-name="tbar" unicode="&#x167;" horiz-adv-x="342" 
d="M193 633h19c9 0 12 -4 10 -12l-19 -108h159c7 0 11 -4 10 -12l-4 -17c-1 -7 -5 -11 -13 -11h-159l-34 -194h130c7 0 9 -3 7 -10l-2 -12c-1 -7 -5 -10 -11 -10h-130l-11 -64c-11 -63 -8 -105 11 -126c17 -20 57 -30 119 -30c8 0 11 -4 9 -12l-3 -17c-1 -8 -5 -12 -13 -12
c-76 -1 -126 13 -149 40c-25 28 -31 80 -17 157l11 64h-90c-6 0 -8 3 -7 10l1 12c2 7 6 10 12 10h90l34 194h-107c-9 0 -12 4 -10 11l3 17c1 8 5 12 13 12h108l19 108c2 8 7 12 14 12z" />
    <glyph glyph-name="tcaron" unicode="&#x165;" horiz-adv-x="337" 
d="M420 728l-69 -152c-3 -8 -9 -12 -16 -12h-10c-6 0 -8 3 -7 10l60 154c3 8 8 12 16 12h18c9 0 12 -4 8 -12zM190 632h19c7 0 11 -4 10 -11l-19 -109h159c8 0 11 -4 9 -11l-3 -17c-1 -7 -5 -11 -13 -11h-159l-51 -290c-11 -63 -8 -105 11 -126c17 -20 57 -30 119 -30
c8 0 11 -4 9 -12l-3 -17c-1 -8 -5 -12 -13 -12c-76 -1 -126 13 -149 40c-25 28 -31 80 -17 156l51 291h-107c-9 0 -12 4 -10 11l2 17c2 7 7 11 14 11h108l19 109c2 7 7 11 14 11z" />
    <glyph glyph-name="uni021B" unicode="&#x21b;" horiz-adv-x="337" 
d="M190 632h19c7 0 11 -4 10 -11l-19 -109h159c8 0 11 -4 9 -11l-3 -17c-1 -7 -5 -11 -13 -11h-159l-51 -290c-11 -63 -8 -105 11 -126c17 -20 57 -30 119 -30c8 0 11 -4 9 -12l-3 -17c-1 -8 -5 -12 -13 -12c-76 -1 -126 13 -149 40c-25 28 -31 80 -17 156l51 291h-107
c-9 0 -12 4 -10 11l2 17c2 7 7 11 14 11h108l19 109c2 7 7 11 14 11zM184 -91l-73 -143c-4 -7 -9 -11 -16 -11h-13c-8 0 -11 3 -8 9l65 146c3 8 9 12 17 12h19c10 0 13 -4 9 -13z" />
    <glyph glyph-name="u" unicode="u" horiz-adv-x="546" 
d="M485 512h19c8 0 11 -4 9 -11l-74 -428c-5 -26 -21 -44 -48 -55c-57 -21 -119 -32 -186 -32c-129 0 -183 65 -160 195l56 320c2 7 7 11 14 11h20c8 0 11 -4 9 -11l-56 -320c-19 -104 24 -156 127 -156c57 0 108 9 155 26c15 7 25 18 28 34l73 416c1 7 5 11 14 11z" />
    <glyph glyph-name="uacute" unicode="&#xfa;" horiz-adv-x="546" 
d="M227 609l188 106c11 6 18 6 22 -1l7 -11c5 -7 4 -12 -4 -15l-195 -102c-8 -3 -13 -3 -16 1l-6 8c-4 5 -3 10 4 14zM485 512h19c8 0 11 -4 9 -11l-74 -428c-5 -26 -21 -44 -48 -55c-57 -21 -119 -32 -186 -32c-129 0 -183 65 -160 195l56 320c2 7 7 11 14 11h20
c8 0 11 -4 9 -11l-56 -320c-19 -104 24 -156 127 -156c57 0 108 9 155 26c15 7 25 18 28 34l73 416c1 7 5 11 14 11z" />
    <glyph glyph-name="ubreve" unicode="&#x16d;" horiz-adv-x="546" 
d="M492 695c-35 -75 -90 -112 -166 -112c-81 0 -126 37 -134 112c-1 7 1 10 8 11l15 5c6 2 10 0 12 -5c5 -59 38 -89 101 -89c61 0 105 30 132 90c3 5 7 7 12 5l17 -6c5 -2 6 -6 3 -11zM485 512h19c8 0 11 -4 9 -11l-74 -428c-5 -26 -21 -44 -48 -55
c-57 -21 -119 -32 -186 -32c-129 0 -183 65 -160 195l56 320c2 7 7 11 14 11h20c8 0 11 -4 9 -11l-56 -320c-19 -104 24 -156 127 -156c57 0 108 9 155 26c15 7 25 18 28 34l73 416c1 7 5 11 14 11z" />
    <glyph glyph-name="ucircumflex" unicode="&#xfb;" horiz-adv-x="546" 
d="M342 712h6c8 0 15 -4 22 -11l112 -112c5 -7 3 -10 -7 -10h-16c-9 0 -15 2 -19 7l-98 96l-132 -96c-6 -5 -13 -7 -21 -7h-21c-9 0 -10 3 -5 10l153 112c9 7 18 11 26 11zM485 512h19c8 0 11 -4 9 -11l-74 -428c-5 -26 -21 -44 -48 -55c-57 -21 -119 -32 -186 -32
c-129 0 -183 65 -160 195l56 320c2 7 7 11 14 11h20c8 0 11 -4 9 -11l-56 -320c-19 -104 24 -156 127 -156c57 0 108 9 155 26c15 7 25 18 28 34l73 416c1 7 5 11 14 11z" />
    <glyph glyph-name="udieresis" unicode="&#xfc;" horiz-adv-x="546" 
d="M240 676h6c15 0 21 -8 19 -23l-2 -7c-3 -15 -11 -22 -26 -22h-7c-15 0 -21 7 -18 22l1 7c3 15 12 23 27 23zM431 676h6c15 0 22 -8 19 -23l-1 -7c-3 -15 -13 -22 -28 -22h-5c-16 0 -23 7 -20 22l1 7c3 15 12 23 28 23zM485 512h19c8 0 11 -4 9 -11l-74 -428
c-5 -26 -21 -44 -48 -55c-57 -21 -119 -32 -186 -32c-129 0 -183 65 -160 195l56 320c2 7 7 11 14 11h20c8 0 11 -4 9 -11l-56 -320c-19 -104 24 -156 127 -156c57 0 108 9 155 26c15 7 25 18 28 34l73 416c1 7 5 11 14 11z" />
    <glyph glyph-name="ugrave" unicode="&#xf9;" horiz-adv-x="546" 
d="M244 704l9 10c7 7 14 7 23 1l149 -107c5 -3 4 -8 -1 -14l-6 -6c-4 -4 -9 -4 -16 -1l-159 103c-6 3 -6 7 1 14zM485 512h19c8 0 11 -4 9 -11l-74 -428c-5 -26 -21 -44 -48 -55c-57 -21 -119 -32 -186 -32c-129 0 -183 65 -160 195l56 320c2 7 7 11 14 11h20
c8 0 11 -4 9 -11l-56 -320c-19 -104 24 -156 127 -156c57 0 108 9 155 26c15 7 25 18 28 34l73 416c1 7 5 11 14 11z" />
    <glyph glyph-name="uhungarumlaut" unicode="&#x171;" horiz-adv-x="546" 
d="M189 593l121 113c7 7 14 9 21 8l15 -4c8 -3 8 -7 1 -14l-132 -113c-7 -5 -12 -7 -16 -5l-9 3c-6 2 -6 6 -1 12zM360 593l127 111c6 8 13 11 20 8l16 -4c9 -3 9 -7 2 -13l-139 -112c-5 -5 -10 -7 -15 -5l-9 3c-7 2 -8 6 -2 12zM485 512h19c8 0 11 -4 9 -11l-74 -428
c-5 -26 -21 -44 -48 -55c-57 -21 -119 -32 -186 -32c-129 0 -183 65 -160 195l56 320c2 7 7 11 14 11h20c8 0 11 -4 9 -11l-56 -320c-19 -104 24 -156 127 -156c57 0 108 9 155 26c15 7 25 18 28 34l73 416c1 7 5 11 14 11z" />
    <glyph glyph-name="umacron" unicode="&#x16b;" horiz-adv-x="546" 
d="M216 658h238c7 0 10 -4 9 -11l-2 -10c-1 -7 -5 -11 -13 -11h-238c-7 0 -9 4 -8 11l1 10c1 7 6 11 13 11zM485 512h19c8 0 11 -4 9 -11l-74 -428c-5 -26 -21 -44 -48 -55c-57 -21 -119 -32 -186 -32c-129 0 -183 65 -160 195l56 320c2 7 7 11 14 11h20c8 0 11 -4 9 -11
l-56 -320c-19 -104 24 -156 127 -156c57 0 108 9 155 26c15 7 25 18 28 34l73 416c1 7 5 11 14 11z" />
    <glyph glyph-name="uogonek" unicode="&#x173;" horiz-adv-x="546" 
d="M485 512h19c8 0 11 -4 9 -11l-74 -428c-3 -19 -12 -34 -26 -43c-44 -33 -80 -72 -109 -117c-27 -41 -38 -73 -34 -96c3 -19 17 -29 40 -29c24 0 47 9 68 27c5 3 7 3 8 -2l3 -14c1 -4 -1 -7 -4 -10c-28 -24 -59 -36 -94 -36c-38 0 -59 16 -62 47c-4 25 5 57 28 96
c23 41 56 78 97 111c-47 -14 -97 -21 -149 -21c-129 0 -183 65 -160 196l56 319c2 7 7 11 14 11h20c8 0 11 -4 9 -11l-56 -320c-19 -104 24 -156 128 -156c56 0 107 9 154 26c15 7 25 18 28 34l73 416c1 7 5 11 14 11z" />
    <glyph glyph-name="uring" unicode="&#x16f;" horiz-adv-x="546" 
d="M239 647c12 63 51 94 116 94c29 0 50 -9 65 -27c14 -17 18 -41 13 -70c-11 -61 -48 -92 -112 -92c-30 0 -52 9 -67 26s-20 40 -15 69zM408 646c4 21 1 38 -9 51c-11 13 -27 19 -48 19c-49 0 -78 -23 -87 -70c-7 -47 13 -70 61 -70s76 23 83 70zM485 512h19
c8 0 11 -4 9 -11l-74 -428c-5 -26 -21 -44 -48 -55c-57 -21 -119 -32 -186 -32c-129 0 -183 65 -160 195l56 320c2 7 7 11 14 11h20c8 0 11 -4 9 -11l-56 -320c-19 -104 24 -156 127 -156c57 0 108 9 155 26c15 7 25 18 28 34l73 416c1 7 5 11 14 11z" />
    <glyph glyph-name="utilde" unicode="&#x169;" horiz-adv-x="546" 
d="M473 697h13c6 0 8 -3 7 -9c-11 -62 -40 -93 -89 -93c-25 0 -50 12 -77 36s-50 36 -69 36c-31 0 -51 -21 -59 -64c-1 -5 -4 -8 -9 -8h-14c-5 0 -8 3 -7 8c11 63 42 94 91 94c25 0 50 -12 77 -36s49 -36 68 -36c32 0 51 21 58 63c2 6 5 9 10 9zM485 512h19c8 0 11 -4 9 -11
l-74 -428c-5 -26 -21 -44 -48 -55c-57 -21 -119 -32 -186 -32c-129 0 -183 65 -160 195l56 320c2 7 7 11 14 11h20c8 0 11 -4 9 -11l-56 -320c-19 -104 24 -156 127 -156c57 0 108 9 155 26c15 7 25 18 28 34l73 416c1 7 5 11 14 11z" />
    <glyph glyph-name="v" unicode="v" horiz-adv-x="494" 
d="M491 512h16c10 0 12 -4 7 -13l-295 -491c-5 -8 -12 -12 -19 -12h-12c-8 0 -13 4 -15 12l-122 491c-3 9 1 13 12 13h15c10 0 15 -4 16 -12l93 -374l14 -77h2c-5 -9 8 17 41 76l224 376c4 7 12 11 23 11z" />
    <glyph glyph-name="w" unicode="w" horiz-adv-x="726" 
d="M715 512h15c9 0 12 -4 7 -13l-240 -492c-4 -8 -10 -12 -18 -12h-16c-8 0 -13 4 -14 12l-53 361c-6 57 -8 83 -7 77h-2c-3 -5 -8 -17 -15 -34c-8 -18 -15 -32 -20 -43l-182 -361c-4 -8 -10 -12 -17 -12h-15c-8 0 -12 4 -13 12l-68 492c-1 9 3 13 12 13h15
c11 0 17 -4 17 -12l46 -353l8 -94h2l19 43c9 22 17 39 24 52l171 337c4 8 11 12 21 12h9c10 0 16 -4 17 -11l51 -334c2 -13 4 -31 6 -54l4 -45h2c4 8 10 22 19 43l23 55l170 350c3 7 10 11 22 11z" />
    <glyph glyph-name="wacute" unicode="&#x1e83;" horiz-adv-x="726" 
d="M318 609l188 106c11 6 18 6 23 -1l7 -11c5 -7 3 -12 -5 -15l-195 -102c-8 -3 -13 -3 -16 1l-5 8c-4 6 -3 11 3 14zM715 512h15c9 0 12 -4 7 -13l-240 -492c-4 -8 -10 -12 -18 -12h-16c-8 0 -13 4 -14 12l-53 361c-6 57 -8 83 -7 77h-2c-3 -5 -8 -17 -15 -34
c-8 -18 -15 -32 -20 -43l-182 -361c-4 -8 -10 -12 -17 -12h-15c-8 0 -12 4 -13 12l-68 492c-1 9 3 13 12 13h15c11 0 17 -4 17 -12l46 -353l8 -94h2l19 43c9 22 17 39 24 52l171 337c4 8 11 12 21 12h9c10 0 16 -4 17 -11l51 -334c2 -13 4 -31 6 -54l4 -45h2
c4 8 10 22 19 43l23 55l170 350c3 7 10 11 22 11z" />
    <glyph glyph-name="wcircumflex" unicode="&#x175;" horiz-adv-x="726" 
d="M281 579h-22c-9 0 -10 3 -5 10l154 112c9 7 17 11 26 11h5c8 0 15 -4 22 -11l112 -112c5 -7 3 -10 -7 -10h-16c-9 0 -15 2 -19 7l-98 96l-132 -96c-6 -5 -13 -7 -20 -7zM715 512h15c9 0 12 -4 7 -13l-240 -492c-4 -8 -10 -12 -18 -12h-16c-8 0 -13 4 -14 12l-53 361
c-6 57 -8 83 -7 77h-2c-3 -5 -8 -17 -15 -34c-8 -18 -15 -32 -20 -43l-182 -361c-4 -8 -10 -12 -17 -12h-15c-8 0 -12 4 -13 12l-68 492c-1 9 3 13 12 13h15c11 0 17 -4 17 -12l46 -353l8 -94h2l19 43c9 22 17 39 24 52l171 337c4 8 11 12 21 12h9c10 0 16 -4 17 -11
l51 -334c2 -13 4 -31 6 -54l4 -45h2c4 8 10 22 19 43l23 55l170 350c3 7 10 11 22 11z" />
    <glyph glyph-name="wdieresis" unicode="&#x1e85;" horiz-adv-x="726" 
d="M331 676h6c15 0 21 -8 19 -23l-1 -7c-3 -15 -12 -22 -27 -22h-6c-15 0 -22 7 -19 22l1 7c3 15 12 23 27 23zM522 676h6c15 0 22 -8 19 -23l-1 -7c-3 -15 -12 -22 -27 -22h-6c-16 0 -23 7 -20 22l2 7c2 15 11 23 27 23zM715 512h15c9 0 12 -4 7 -13l-240 -492
c-4 -8 -10 -12 -18 -12h-16c-8 0 -13 4 -14 12l-53 361c-6 57 -8 83 -7 77h-2c-3 -5 -8 -17 -15 -34c-8 -18 -15 -32 -20 -43l-182 -361c-4 -8 -10 -12 -17 -12h-15c-8 0 -12 4 -13 12l-68 492c-1 9 3 13 12 13h15c11 0 17 -4 17 -12l46 -353l8 -94h2l19 43
c9 22 17 39 24 52l171 337c4 8 11 12 21 12h9c10 0 16 -4 17 -11l51 -334c2 -13 4 -31 6 -54l4 -45h2c4 8 10 22 19 43l23 55l170 350c3 7 10 11 22 11z" />
    <glyph glyph-name="wgrave" unicode="&#x1e81;" horiz-adv-x="726" 
d="M335 704l9 10c7 7 14 7 23 1l149 -107c5 -3 4 -8 -1 -14l-6 -6c-4 -4 -9 -4 -16 -1l-158 103c-7 3 -7 7 0 14zM715 512h15c9 0 12 -4 7 -13l-240 -492c-4 -8 -10 -12 -18 -12h-16c-8 0 -13 4 -14 12l-53 361c-6 57 -8 83 -7 77h-2c-3 -5 -8 -17 -15 -34
c-8 -18 -15 -32 -20 -43l-182 -361c-4 -8 -10 -12 -17 -12h-15c-8 0 -12 4 -13 12l-68 492c-1 9 3 13 12 13h15c11 0 17 -4 17 -12l46 -353l8 -94h2l19 43c9 22 17 39 24 52l171 337c4 8 11 12 21 12h9c10 0 16 -4 17 -11l51 -334c2 -13 4 -31 6 -54l4 -45h2
c4 8 10 22 19 43l23 55l170 350c3 7 10 11 22 11z" />
    <glyph glyph-name="x" unicode="x" horiz-adv-x="473" 
d="M452 512h23c11 0 12 -4 4 -12l-224 -237l149 -251c4 -8 1 -12 -10 -12h-18c-9 0 -15 3 -18 10l-133 223l-209 -223c-5 -7 -13 -10 -22 -10h-22c-11 0 -13 4 -6 12l237 252l-142 236c-3 8 0 12 11 12h16c10 0 16 -3 18 -9l127 -209l197 209c6 6 13 9 22 9z" />
    <glyph glyph-name="y" unicode="y" horiz-adv-x="548" 
d="M484 512h20c8 0 11 -4 9 -11l-94 -538c-25 -144 -108 -216 -247 -216c-92 0 -150 38 -174 114c-4 8 -1 14 8 18l14 7c9 4 15 2 18 -5c21 -63 68 -95 141 -95c110 0 175 58 196 175l12 65c-64 -22 -124 -33 -181 -33c-129 0 -183 65 -160 196l55 312c2 7 7 11 14 11h20
c8 0 11 -4 9 -11l-55 -313c-19 -104 24 -156 128 -156c55 0 114 11 177 34l76 435c2 7 7 11 14 11z" />
    <glyph glyph-name="yacute" unicode="&#xfd;" horiz-adv-x="548" 
d="M227 609l188 106c10 5 17 5 22 -1l7 -11c5 -7 4 -12 -4 -15l-196 -102c-7 -3 -13 -3 -16 1l-5 8c-4 5 -3 10 4 14zM484 512h20c8 0 11 -4 9 -11l-94 -538c-25 -144 -108 -216 -247 -216c-92 0 -150 38 -174 114c-4 8 -1 14 8 18l14 7c9 4 15 2 18 -5
c21 -63 68 -95 141 -95c110 0 175 58 196 175l12 65c-64 -22 -124 -33 -181 -33c-129 0 -183 65 -160 196l55 312c2 7 7 11 14 11h20c8 0 11 -4 9 -11l-55 -313c-19 -104 24 -156 128 -156c55 0 114 11 177 34l76 435c2 7 7 11 14 11z" />
    <glyph glyph-name="ycircumflex" unicode="&#x177;" horiz-adv-x="548" 
d="M189 579h-21c-10 0 -12 3 -5 10l153 112c9 7 17 11 26 11h6c8 0 15 -4 21 -11l113 -112c5 -7 2 -10 -8 -10h-15c-9 0 -15 2 -19 7l-99 96l-132 -96c-5 -5 -12 -7 -20 -7zM484 512h20c8 0 11 -4 9 -11l-94 -538c-25 -144 -108 -216 -247 -216c-92 0 -150 38 -174 114
c-4 8 -1 14 8 18l14 7c9 4 15 2 18 -5c21 -63 68 -95 141 -95c110 0 175 58 196 175l12 65c-64 -22 -124 -33 -181 -33c-129 0 -183 65 -160 196l55 312c2 7 7 11 14 11h20c8 0 11 -4 9 -11l-55 -313c-19 -104 24 -156 128 -156c55 0 114 11 177 34l76 435c2 7 7 11 14 11z
" />
    <glyph glyph-name="ydieresis" unicode="&#xff;" horiz-adv-x="548" 
d="M239 676h7c15 0 21 -8 18 -23l-1 -7c-3 -15 -12 -22 -27 -22h-6c-15 0 -22 7 -19 22l2 7c2 15 11 23 26 23zM431 676h5c15 0 22 -8 20 -23l-2 -7c-3 -15 -12 -22 -27 -22h-5c-16 0 -23 7 -20 22l1 7c3 15 12 23 28 23zM484 512h20c8 0 11 -4 9 -11l-94 -538
c-25 -144 -108 -216 -247 -216c-92 0 -150 38 -174 114c-4 8 -1 14 8 18l14 7c9 4 15 2 18 -5c21 -63 68 -95 141 -95c110 0 175 58 196 175l12 65c-64 -22 -124 -33 -181 -33c-129 0 -183 65 -160 196l55 312c2 7 7 11 14 11h20c8 0 11 -4 9 -11l-55 -313
c-19 -104 24 -156 128 -156c55 0 114 11 177 34l76 435c2 7 7 11 14 11z" />
    <glyph glyph-name="ygrave" unicode="&#x1ef3;" horiz-adv-x="548" 
d="M244 704l9 10c7 7 14 7 22 1l150 -107c5 -3 4 -8 -2 -14l-5 -6c-4 -4 -9 -4 -16 -1l-159 103c-7 3 -6 8 1 14zM484 512h20c8 0 11 -4 9 -11l-94 -538c-25 -144 -108 -216 -247 -216c-92 0 -150 38 -174 114c-4 8 -1 14 8 18l14 7c9 4 15 2 18 -5c21 -63 68 -95 141 -95
c110 0 175 58 196 175l12 65c-64 -22 -124 -33 -181 -33c-129 0 -183 65 -160 196l55 312c2 7 7 11 14 11h20c8 0 11 -4 9 -11l-55 -313c-19 -104 24 -156 128 -156c55 0 114 11 177 34l76 435c2 7 7 11 14 11z" />
    <glyph glyph-name="z" unicode="z" horiz-adv-x="440" 
d="M36 39h320c8 0 11 -4 9 -12l-2 -15c-2 -8 -6 -12 -13 -12h-364c-8 0 -11 4 -9 12l3 15c0 5 2 9 7 14l398 432h-312c-7 0 -10 4 -9 12l3 16c2 7 6 11 13 11h355c8 0 11 -4 9 -11l-2 -16c-1 -4 -3 -9 -8 -15z" />
    <glyph glyph-name="zacute" unicode="&#x17a;" horiz-adv-x="440" 
d="M175 609l188 106c11 6 18 6 23 -1l7 -11c5 -7 3 -12 -5 -15l-195 -102c-8 -3 -13 -3 -16 1l-5 8c-4 6 -3 11 3 14zM36 39h320c8 0 11 -4 9 -12l-2 -15c-2 -8 -6 -12 -13 -12h-364c-8 0 -11 4 -9 12l3 15c0 5 2 9 7 14l398 432h-312c-7 0 -10 4 -9 12l3 16c2 7 6 11 13 11
h355c8 0 11 -4 9 -11l-2 -16c-1 -4 -3 -9 -8 -15z" />
    <glyph glyph-name="zcaron" unicode="&#x17e;" horiz-adv-x="440" 
d="M426 712h19c10 0 11 -4 4 -11l-152 -112c-9 -7 -17 -11 -25 -11h-4c-8 0 -16 4 -23 11l-113 113c-5 7 -3 10 7 10h17c8 0 14 -2 18 -7l99 -96l131 96c6 5 13 7 22 7zM80 512h355c8 0 11 -4 9 -11l-2 -16c-1 -4 -3 -9 -8 -15l-398 -431h320c8 0 11 -4 9 -12l-2 -15
c-2 -8 -6 -12 -13 -12h-364c-8 0 -11 4 -9 12l3 15c0 5 2 9 7 14l398 432h-312c-7 0 -10 4 -9 12l3 16c2 7 6 11 13 11z" />
    <glyph glyph-name="zdotaccent" unicode="&#x17c;" horiz-adv-x="440" 
d="M283 669h5c15 0 22 -8 19 -24l-1 -4c-2 -16 -11 -24 -28 -24h-4c-16 0 -23 8 -20 24l1 4c3 16 12 24 28 24zM36 39h320c8 0 11 -4 9 -12l-2 -15c-2 -8 -6 -12 -13 -12h-364c-8 0 -11 4 -9 12l3 15c0 5 2 9 7 14l398 432h-312c-7 0 -10 4 -9 12l3 16c2 7 6 11 13 11h355
c8 0 11 -4 9 -11l-2 -16c-1 -4 -3 -9 -8 -15z" />
    <glyph glyph-name="ordfeminine" unicode="&#xaa;" horiz-adv-x="369" 
d="M119 611c33 39 77 59 131 59c81 0 115 -42 100 -126l-20 -122c-4 -23 -18 -41 -43 -52c-23 -10 -55 -15 -98 -15c-84 0 -121 29 -111 87c11 60 59 90 144 90c35 0 65 -2 91 -6l3 22c11 61 -13 91 -72 91c-39 0 -73 -16 -100 -47c-5 -3 -9 -3 -13 -2l-10 5
c-7 4 -7 9 -2 16zM295 427l12 72c-24 4 -54 6 -91 6c-61 0 -96 -22 -104 -65c-6 -37 21 -56 81 -56c31 0 56 4 77 11c15 6 23 17 25 32z" />
    <glyph glyph-name="ordmasculine" unicode="&#xba;" horiz-adv-x="375" 
d="M84 479l15 77c13 76 63 114 151 114c43 0 75 -11 94 -34c19 -21 24 -51 17 -88l-14 -78c-13 -76 -63 -114 -152 -114c-43 0 -74 11 -93 34c-19 22 -25 52 -18 89zM312 473l14 80c10 56 -17 84 -81 84s-101 -28 -111 -84l-14 -80c-9 -56 17 -84 80 -84c64 0 101 28 112 84
z" />
    <glyph glyph-name="uni0410" unicode="&#x410;" horiz-adv-x="630" 
d="M413 703l155 -691c1 -8 -2 -12 -11 -12h-17c-13 0 -19 4 -20 11l-50 221h-332l-127 -221c-4 -7 -12 -11 -25 -11h-18c-11 0 -13 4 -7 12l398 691c5 8 11 12 19 12h20c8 0 13 -4 15 -12zM464 271l-80 355c-1 9 -2 23 -2 43h-2l-5 -16c-3 -10 -7 -19 -11 -27l-205 -355h305
z" />
    <glyph glyph-name="uni0411" unicode="&#x411;" horiz-adv-x="626" 
d="M167 710h431c8 0 12 -4 11 -13l-4 -18c-1 -8 -5 -12 -14 -12h-398l-47 -269h255c63 0 110 -18 141 -54s40 -86 29 -149s-37 -111 -78 -145c-41 -33 -94 -50 -157 -50h-294c-9 0 -12 4 -10 12l121 685c1 9 5 13 14 13zM524 199c9 50 1 89 -22 116s-59 40 -110 40h-254
l-55 -312h255c50 0 91 14 124 41s53 66 62 115z" />
    <glyph glyph-name="uni0412" unicode="&#x412;" horiz-adv-x="640" 
d="M167 710h283c59 0 103 -16 130 -47c28 -32 37 -77 27 -134c-15 -84 -59 -138 -132 -162v-2c39 -9 67 -30 84 -62s22 -71 13 -118c-23 -123 -101 -185 -233 -185h-297c-9 0 -12 4 -10 13l121 684c1 9 5 13 14 13zM559 526c17 94 -23 141 -120 141h-246l-50 -284h246
c97 0 154 48 170 143zM524 193c9 47 2 83 -20 109s-57 39 -106 39h-262l-53 -298h263c101 0 161 50 178 150z" />
    <glyph glyph-name="uni0413" unicode="&#x413;" horiz-adv-x="514" 
d="M167 710h384c8 0 12 -4 11 -13l-4 -18c-1 -8 -5 -12 -14 -12h-351l-115 -654c-2 -9 -7 -13 -15 -13h-21c-9 0 -12 4 -10 13l121 684c1 9 5 13 14 13z" />
    <glyph glyph-name="uni0414" unicode="&#x414;" horiz-adv-x="702" 
d="M263 710h394c8 0 12 -4 11 -13l-115 -654h68c9 0 12 -4 10 -12l-30 -171c-2 -9 -7 -13 -15 -13h-20c-9 0 -12 4 -10 13l24 140h-573l-24 -140c-2 -9 -7 -13 -15 -13h-21c-9 0 -12 4 -10 13l30 171c2 8 7 12 15 12h42c82 51 145 202 189 453l36 201c2 9 7 13 14 13z
M288 667l-31 -171c-42 -240 -100 -391 -175 -453h424l110 624h-328z" />
    <glyph glyph-name="uni0415" unicode="&#x415;" horiz-adv-x="569" 
d="M167 710h409c9 0 12 -4 10 -13l-4 -18c-1 -8 -5 -12 -14 -12h-375l-50 -286h331c9 0 13 -4 11 -12l-4 -18c-2 -9 -7 -13 -15 -13h-331l-52 -295h389c9 0 12 -4 10 -12l-3 -18c-2 -9 -7 -13 -15 -13h-422c-9 0 -12 4 -10 13l121 684c1 9 5 13 14 13z" />
    <glyph glyph-name="uni0401" unicode="&#x401;" horiz-adv-x="569" 
d="M307 843h6c15 0 21 -8 19 -23l-2 -7c-3 -15 -11 -22 -26 -22h-7c-15 0 -21 7 -18 22l1 7c3 15 12 23 27 23zM498 843h6c15 0 22 -8 19 -23l-1 -7c-3 -15 -13 -22 -28 -22h-5c-16 0 -23 7 -20 22l1 7c3 15 12 23 28 23zM167 710h409c9 0 12 -4 10 -13l-4 -18
c-1 -8 -5 -12 -14 -12h-375l-50 -286h331c9 0 13 -4 11 -12l-4 -18c-2 -9 -7 -13 -15 -13h-331l-52 -295h389c9 0 12 -4 10 -12l-3 -18c-2 -9 -7 -13 -15 -13h-422c-9 0 -12 4 -10 13l121 684c1 9 5 13 14 13z" />
    <glyph glyph-name="uni0416" unicode="&#x416;" horiz-adv-x="905" 
d="M915 710h22c11 0 12 -4 5 -13l-282 -332c41 -14 71 -48 90 -103l82 -249c4 -9 1 -13 -9 -13h-20c-12 0 -19 4 -22 11l-75 233c-11 35 -26 59 -45 72c-21 15 -52 23 -95 23h-84l-58 -326c-2 -9 -7 -13 -15 -13h-21c-9 0 -12 4 -10 13l57 326h-84c-71 0 -128 -32 -171 -95
l-158 -233c-6 -7 -15 -11 -27 -11h-20c-11 0 -12 4 -5 13l170 249c39 55 81 89 127 103l-166 332c-4 9 -1 13 9 13h19c13 0 21 -4 24 -11l158 -320c19 1 35 2 48 2h84l56 316c1 9 5 13 14 13h21c9 0 13 -4 11 -13l-56 -316h84c12 0 27 -1 44 -2l271 320c5 7 14 11 27 11z
" />
    <glyph glyph-name="uni0417" unicode="&#x417;" horiz-adv-x="611" 
d="M580 522c-15 -80 -57 -132 -125 -156c75 -29 104 -88 88 -177c-25 -135 -119 -203 -284 -203c-149 0 -231 59 -244 178c-2 7 2 13 11 16l19 6c9 3 14 0 16 -8c6 -51 24 -89 53 -112c32 -25 82 -37 150 -37c136 0 213 55 231 164c8 46 2 82 -18 109c-21 27 -55 41 -102 41
h-188c-9 0 -12 4 -10 12l3 17c1 9 6 13 15 13h184c44 0 80 14 108 42c24 25 40 57 47 97c20 105 -32 157 -156 157c-65 0 -117 -12 -156 -35c-37 -23 -67 -60 -92 -111c-4 -7 -10 -10 -18 -7l-17 6c-8 3 -10 8 -6 17c55 115 154 173 296 173c74 0 128 -18 162 -54
c33 -36 44 -85 33 -148z" />
    <glyph glyph-name="uni0418" unicode="&#x418;" horiz-adv-x="693" 
d="M647 710h21c9 0 13 -4 11 -13l-121 -684c-2 -9 -7 -13 -15 -13h-21c-9 0 -12 4 -10 13l79 442c12 68 26 132 41 192h-2c-29 -38 -76 -94 -141 -169l-410 -470c-5 -5 -10 -8 -16 -8h-21c-9 0 -12 4 -10 13l121 684c1 9 5 13 14 13h21c9 0 13 -4 11 -13l-77 -429
c-12 -69 -26 -138 -43 -205h2c25 32 75 93 151 183l401 457c3 5 8 7 14 7z" />
    <glyph glyph-name="uni0419" unicode="&#x419;" horiz-adv-x="693" 
d="M427 764c-80 0 -124 37 -132 112c-1 7 1 10 7 11l18 5c7 2 10 0 10 -5c6 -59 40 -89 102 -89c60 0 104 30 131 90c3 5 7 7 12 5l17 -6c5 -2 6 -6 3 -11c-35 -75 -91 -112 -168 -112zM647 710h21c9 0 13 -4 11 -13l-121 -684c-2 -9 -7 -13 -15 -13h-21c-9 0 -12 4 -10 13
l79 442c12 68 26 132 41 192h-2c-29 -38 -76 -94 -141 -169l-410 -470c-5 -5 -10 -8 -16 -8h-21c-9 0 -12 4 -10 13l121 684c1 9 5 13 14 13h21c9 0 13 -4 11 -13l-77 -429c-12 -69 -26 -138 -43 -205h2c25 32 75 93 151 183l401 457c3 5 8 7 14 7z" />
    <glyph glyph-name="uni041A" unicode="&#x41a;" horiz-adv-x="599" 
d="M445 262l83 -249c3 -9 -1 -13 -10 -13h-19c-12 0 -19 4 -22 11l-76 233c-11 35 -26 59 -44 72c-20 15 -50 23 -91 23h-131l-57 -326c-2 -9 -7 -13 -15 -13h-21c-9 0 -12 4 -10 13l121 684c1 9 5 13 14 13h21c8 0 12 -4 11 -13l-56 -316h124c11 0 20 0 25 -1l292 319
c6 7 15 11 27 11h23c11 0 13 -4 4 -13l-301 -327c52 -12 88 -48 108 -108z" />
    <glyph glyph-name="uni041B" unicode="&#x41b;" horiz-adv-x="647" 
d="M231 710h392c8 0 12 -4 11 -13l-121 -684c-2 -9 -7 -13 -15 -13h-21c-9 0 -12 4 -10 13l115 654h-325l-36 -202c-31 -179 -69 -302 -112 -371c-27 -42 -71 -77 -133 -106c-9 -5 -14 -3 -16 5l-7 19c-2 8 1 14 10 17c53 25 91 56 114 95c37 62 70 176 99 341l41 232
c1 9 5 13 14 13z" />
    <glyph glyph-name="uni041C" unicode="&#x41c;" horiz-adv-x="797" 
d="M753 710h20c8 0 12 -4 11 -13l-121 -684c-2 -9 -7 -13 -15 -13h-20c-9 0 -12 4 -10 13l82 459c9 53 21 109 36 167h-2c-31 -47 -65 -95 -100 -143l-234 -316c-5 -7 -11 -10 -18 -10h-11c-8 0 -13 3 -15 10l-125 320c-15 39 -31 85 -47 139h-2c-4 -39 -12 -95 -24 -167
l-81 -459c-2 -9 -7 -13 -15 -13h-20c-9 0 -12 4 -10 13l121 684c1 9 5 13 14 13h15c9 0 14 -4 17 -11l185 -473l349 472c5 8 12 12 20 12z" />
    <glyph glyph-name="uni041D" unicode="&#x41d;" horiz-adv-x="681" 
d="M635 710h22c9 0 12 -4 10 -13l-121 -684c-1 -9 -5 -13 -14 -13h-22c-9 0 -12 4 -10 13l57 325h-422l-57 -325c-2 -9 -7 -13 -15 -13h-21c-9 0 -12 4 -10 13l121 684c1 9 5 13 14 13h21c8 0 12 -4 11 -13l-56 -316h422l56 316c2 9 7 13 14 13z" />
    <glyph glyph-name="uni041E" unicode="&#x41e;" horiz-adv-x="663" 
d="M50 237l44 244c13 77 46 137 99 179c54 43 125 64 212 64c86 0 149 -23 189 -69c39 -45 52 -106 38 -183l-43 -244c-13 -77 -46 -137 -99 -178c-54 -43 -124 -64 -210 -64c-87 0 -150 23 -191 68c-40 45 -53 106 -39 183zM543 233l43 244c11 65 1 115 -30 150
c-33 36 -85 54 -157 54c-149 0 -236 -68 -259 -204l-44 -244c-11 -65 -1 -115 32 -150c32 -36 84 -54 157 -54c71 0 129 18 174 54c45 35 73 85 84 150z" />
    <glyph glyph-name="uni041F" unicode="&#x41f;" horiz-adv-x="674" 
d="M167 710h483c8 0 12 -4 11 -13l-121 -684c-2 -9 -7 -13 -15 -13h-21c-9 0 -12 4 -10 13l115 654h-416l-115 -654c-2 -9 -7 -13 -15 -13h-21c-9 0 -12 4 -10 13l121 684c1 9 5 13 14 13z" />
    <glyph glyph-name="uni0420" unicode="&#x420;" horiz-adv-x="618" 
d="M167 710h269c68 0 118 -20 151 -61s44 -95 31 -163c-13 -67 -42 -119 -88 -156c-45 -36 -101 -54 -170 -54h-236l-46 -263c-2 -9 -7 -13 -15 -13h-21c-9 0 -12 4 -10 13l121 684c1 9 5 13 14 13zM132 319h231c55 0 101 15 138 46s61 73 70 127c10 55 2 98 -25 129
c-26 31 -66 46 -121 46h-232z" />
    <glyph glyph-name="uni0421" unicode="&#x421;" horiz-adv-x="632" 
d="M48 235l43 245c14 77 47 137 99 179c54 43 124 65 211 65c75 0 132 -15 169 -45c35 -28 55 -71 62 -130c2 -8 -1 -13 -10 -16l-17 -6c-9 -3 -14 0 -15 8c-7 51 -24 87 -53 110c-31 24 -78 36 -141 36c-73 0 -131 -18 -176 -54c-44 -35 -72 -84 -83 -148l-42 -245
c-11 -65 -1 -115 30 -150c32 -36 84 -54 156 -54c118 0 201 50 248 150c5 8 11 11 18 8l19 -7c7 -3 9 -8 5 -17c-29 -60 -64 -104 -106 -132c-48 -31 -111 -46 -188 -46c-86 0 -149 22 -190 67c-39 44 -52 105 -39 182z" />
    <glyph glyph-name="uni0422" unicode="&#x422;" 
d="M94 710h481c8 0 12 -4 11 -13l-4 -18c-1 -8 -5 -12 -14 -12h-218l-115 -654c-2 -9 -7 -13 -15 -13h-21c-9 0 -12 4 -10 13l115 654h-217c-8 0 -12 4 -11 12l4 18c1 9 5 13 14 13z" />
    <glyph glyph-name="uni0423" unicode="&#x423;" horiz-adv-x="581" 
d="M607 710h23c8 0 10 -4 5 -13l-467 -686c-5 -7 -13 -11 -24 -11h-24c-9 0 -11 4 -4 13l130 189l-176 495c-3 9 0 13 9 13h21c11 0 19 -4 22 -11l156 -449l307 449c5 7 12 11 22 11z" />
    <glyph glyph-name="uni0424" unicode="&#x424;" horiz-adv-x="824" 
d="M479 735h21c9 0 12 -4 10 -13l-12 -72h68c87 0 150 -23 189 -70c38 -45 50 -108 35 -188l-14 -77c-13 -79 -47 -141 -101 -184c-54 -44 -125 -66 -212 -66h-69l-12 -72c-2 -9 -7 -13 -15 -13h-21c-8 0 -12 4 -11 13l13 72h-69c-87 0 -150 23 -189 70
c-38 45 -50 108 -35 188l14 77c14 79 48 141 102 184c54 44 125 66 212 66h69l12 72c1 9 6 13 15 13zM444 608h-69c-73 0 -131 -19 -176 -56s-73 -88 -84 -155l-15 -79c-11 -67 -1 -118 30 -155c32 -37 84 -56 157 -56h69zM731 318l14 79c12 67 3 119 -28 155
c-31 37 -84 56 -158 56h-69l-88 -501h68c149 0 236 70 261 211z" />
    <glyph glyph-name="uni0425" unicode="&#x425;" horiz-adv-x="606" 
d="M620 710h28c10 0 12 -4 5 -12l-310 -338l196 -345c7 -10 5 -15 -8 -15h-24c-12 0 -19 4 -22 11l-177 313l-284 -313c-7 -7 -15 -11 -26 -11h-28c-9 0 -10 5 -3 15l318 346l-190 337c-4 8 -1 12 8 12h25c11 0 18 -4 22 -11l170 -301l276 301c7 7 15 11 24 11z" />
    <glyph glyph-name="uni0427" unicode="&#x427;" horiz-adv-x="622" 
d="M575 710h22c9 0 12 -4 10 -13l-121 -684c-1 -9 -5 -13 -14 -13h-22c-9 0 -12 4 -10 13l49 281c-61 -15 -130 -23 -206 -23c-167 0 -236 83 -206 250l32 176c2 9 7 13 14 13h21c8 0 12 -4 11 -13l-32 -180c-13 -70 -7 -121 18 -152c26 -33 76 -50 151 -50
c72 0 141 8 206 23l63 359c2 9 7 13 14 13z" />
    <glyph glyph-name="uni0426" unicode="&#x426;" horiz-adv-x="692" 
d="M542 43h68c7 0 11 -4 10 -12l-30 -171c-2 -9 -7 -13 -15 -13h-20c-9 0 -12 4 -10 13l25 140h-528c-9 0 -12 4 -10 13l121 684c1 9 5 13 14 13h21c8 0 12 -4 11 -13l-116 -654h413l115 654c2 9 7 13 14 13h22c9 0 12 -4 10 -13z" />
    <glyph glyph-name="uni0428" unicode="&#x428;" horiz-adv-x="906" 
d="M860 710h22c8 0 12 -4 11 -13l-121 -684c-2 -9 -7 -13 -15 -13h-715c-9 0 -12 4 -10 13l121 684c1 9 5 13 14 13h21c8 0 12 -4 11 -13l-116 -654h301l115 654c2 9 7 13 15 13h21c8 0 12 -4 11 -13l-116 -654h301l115 654c2 9 7 13 14 13z" />
    <glyph glyph-name="uni0429" unicode="&#x429;" horiz-adv-x="927" 
d="M777 43h70c7 0 11 -4 10 -12l-30 -171c-2 -9 -7 -13 -15 -13h-20c-9 0 -12 4 -10 13l24 140h-764c-9 0 -12 4 -10 13l121 684c1 9 5 13 14 13h21c8 0 12 -4 11 -13l-116 -654h301l115 654c2 9 7 13 15 13h21c8 0 12 -4 11 -13l-116 -654h301l115 654c2 9 7 13 14 13h22
c8 0 12 -4 11 -13z" />
    <glyph glyph-name="uni042F" unicode="&#x42f;" horiz-adv-x="642" 
d="M92 516c11 63 38 111 80 145c41 33 94 49 158 49h287c9 0 13 -4 11 -13l-121 -684c-2 -9 -7 -13 -15 -13h-21c-9 0 -12 4 -10 13l53 299h-169c-73 0 -130 -32 -171 -95l-132 -206c-6 -7 -15 -11 -28 -11h-19c-11 0 -12 4 -5 13l146 222c26 42 57 70 92 84
c-52 5 -90 25 -114 60s-31 80 -22 137zM576 667h-249c-107 0 -169 -52 -188 -156c-9 -49 -1 -88 23 -115c23 -27 60 -41 110 -41h249z" />
    <glyph glyph-name="uni042C" unicode="&#x42c;" horiz-adv-x="616" 
d="M570 214c-12 -67 -41 -120 -87 -158c-46 -37 -103 -56 -171 -56h-270c-9 0 -12 4 -10 13l121 684c1 9 5 13 14 13h21c8 0 12 -4 11 -13l-47 -263h233c68 0 119 -20 153 -59c33 -39 44 -93 32 -161zM522 218c10 54 2 96 -24 127s-67 46 -122 46h-232l-61 -348h231
c55 0 101 15 138 46s61 74 70 129z" />
    <glyph glyph-name="uni042A" unicode="&#x42a;" horiz-adv-x="711" 
d="M246 434h233c68 0 119 -20 153 -60c34 -41 45 -95 32 -162c-11 -67 -40 -120 -86 -157c-45 -37 -101 -55 -170 -55h-271c-9 0 -13 4 -11 13l116 654h-161c-8 0 -12 4 -11 12l4 18c1 9 5 13 14 13h195c8 0 12 -4 11 -13zM178 43h232c55 0 100 15 137 46s61 74 70 129
c9 54 1 96 -25 127s-66 46 -121 46h-232z" />
    <glyph glyph-name="uni042B" unicode="&#x42b;" horiz-adv-x="843" 
d="M570 214c-12 -67 -41 -120 -87 -158c-46 -37 -103 -56 -171 -56h-270c-9 0 -12 4 -10 13l121 684c1 9 5 13 14 13h21c8 0 12 -4 11 -13l-47 -263h233c68 0 119 -20 153 -59c33 -39 44 -93 32 -161zM663 13l121 684c1 9 5 13 14 13h21c8 0 12 -4 11 -13l-121 -684
c-2 -9 -7 -13 -15 -13h-21c-9 0 -12 4 -10 13zM522 218c10 54 2 96 -24 127s-67 46 -122 46h-232l-61 -348h231c55 0 101 15 138 46s61 74 70 129z" />
    <glyph glyph-name="uni042D" unicode="&#x42d;" horiz-adv-x="635" 
d="M87 551c55 115 153 173 292 173c87 0 150 -23 189 -68c38 -43 50 -104 37 -182l-43 -246c-13 -77 -46 -137 -99 -178c-54 -43 -124 -64 -210 -64c-144 0 -223 59 -236 178c-2 8 2 13 11 16l19 7c8 3 13 0 15 -8c6 -51 23 -89 52 -112c31 -25 79 -38 144 -38
c71 0 130 18 175 54c44 35 72 85 83 148l18 107h-327c-9 0 -12 4 -10 12l3 18c1 9 6 13 15 13h327l18 99c11 63 1 112 -30 147c-32 36 -84 54 -157 54c-117 0 -199 -49 -245 -146c-4 -7 -10 -10 -18 -7l-18 6c-7 3 -9 8 -5 17z" />
    <glyph glyph-name="uni042E" unicode="&#x42e;" horiz-adv-x="915" 
d="M335 381l16 99c13 77 46 137 99 179c54 43 124 65 210 65c85 0 147 -23 186 -68c38 -44 50 -105 37 -183l-43 -247c-13 -77 -46 -136 -99 -177c-53 -42 -122 -63 -208 -63s-148 22 -187 67c-39 43 -51 103 -38 180l19 105h-192l-57 -325c-2 -9 -7 -13 -15 -13h-21
c-9 0 -12 4 -10 13l121 684c1 9 5 13 14 13h21c8 0 12 -4 11 -13l-56 -316h192zM794 232l43 246c11 64 2 114 -29 149c-32 36 -83 54 -154 54s-129 -18 -174 -54c-43 -35 -71 -85 -82 -149l-44 -246c-11 -64 -1 -114 30 -149c32 -36 84 -54 155 -54c145 0 230 68 255 203z
" />
    <glyph glyph-name="uni0430" unicode="&#x430;" 
d="M33 193l26 146c21 125 102 188 242 188c63 0 115 -10 158 -29c15 -7 25 -14 29 -21c3 -7 4 -18 1 -34l-72 -408c-1 -7 -7 -13 -18 -17c-67 -21 -137 -32 -209 -32c-64 0 -110 20 -137 59c-25 36 -31 85 -20 148zM424 464c-37 15 -80 23 -127 23c-59 0 -104 -12 -135 -35
c-31 -24 -52 -63 -61 -117l-26 -145c-9 -51 -4 -91 16 -120c21 -30 57 -45 108 -45c63 0 122 10 178 29l67 376c2 16 -5 27 -20 34z" />
    <glyph glyph-name="uni0431" unicode="&#x431;" horiz-adv-x="550" 
d="M411 733h37c37 0 65 5 84 14c8 4 13 2 15 -7l3 -16c1 -7 -3 -12 -10 -16c-21 -11 -54 -16 -98 -16h-38c-89 0 -153 -19 -192 -56c-38 -36 -65 -101 -82 -196l-4 -25c50 59 116 89 197 89c68 0 117 -17 148 -52c31 -34 41 -81 30 -142l-24 -136
c-23 -125 -106 -188 -249 -188c-70 0 -121 17 -153 52c-31 34 -42 81 -31 141l44 253c20 111 53 189 99 233c47 45 122 68 224 68zM435 177l23 136c18 101 -31 152 -147 152c-50 0 -95 -14 -134 -41c-29 -20 -48 -41 -58 -63l-32 -184c-9 -48 -1 -85 24 -112s65 -40 122 -40
c115 0 183 51 202 152z" />
    <glyph glyph-name="uni0432" unicode="&#x432;" horiz-adv-x="524" 
d="M142 501c45 17 98 26 159 26c66 0 114 -14 144 -41c28 -26 38 -63 30 -110c-10 -55 -43 -91 -98 -108c62 -21 87 -65 76 -130c-17 -101 -96 -152 -238 -152c-65 0 -119 9 -161 26c-25 10 -36 30 -32 59l65 364c6 32 24 54 55 66zM432 375c14 76 -31 114 -135 114
c-55 0 -100 -7 -135 -21c-19 -9 -31 -23 -34 -42l-26 -143h206c71 0 112 31 124 92zM409 141c6 33 0 59 -19 78s-47 29 -84 29h-209l-30 -163c-3 -19 3 -32 19 -39c41 -15 85 -22 130 -22c115 0 179 39 193 117z" />
    <glyph glyph-name="uni0433" unicode="&#x433;" horiz-adv-x="492" 
d="M71 410c49 78 123 117 222 117c65 0 111 -14 139 -42c26 -25 35 -60 27 -104c-10 -55 -38 -92 -83 -113c-27 -13 -75 -22 -144 -29c-55 -5 -94 -13 -118 -25c-35 -17 -56 -45 -63 -85c-13 -71 34 -106 140 -106c91 0 156 34 194 102c4 7 9 10 16 7l15 -6c7 -3 9 -8 5 -16
c-46 -83 -124 -124 -235 -124c-135 0 -193 48 -176 145c9 52 35 89 78 112c30 16 77 27 141 32c59 6 100 14 123 24c37 15 58 43 65 84c12 71 -31 106 -130 106c-77 0 -137 -33 -182 -98c-5 -7 -10 -8 -17 -5l-15 7c-6 3 -7 8 -2 17z" />
    <glyph glyph-name="uni0434" unicode="&#x434;" horiz-adv-x="548" 
d="M186 713l2 16c1 8 5 12 14 12c114 0 195 -20 242 -60c63 -49 82 -143 57 -282l-40 -225c-21 -125 -104 -188 -247 -188c-70 0 -121 17 -153 52c-31 33 -41 80 -31 140l25 140c22 125 102 187 241 187c95 0 151 -33 166 -100c20 116 4 197 -47 242c-42 37 -115 55 -220 55
c-7 0 -10 4 -9 11zM418 175l26 141c8 47 0 84 -25 110c-25 27 -66 40 -122 40c-116 0 -183 -50 -200 -151l-25 -140c-9 -47 -1 -84 24 -110c25 -27 66 -40 123 -40c115 0 182 50 199 150z" />
    <glyph glyph-name="uni0435" unicode="&#x435;" horiz-adv-x="519" 
d="M29 187l25 136c11 65 39 115 83 150c44 36 100 54 169 54c67 0 117 -15 150 -46s43 -74 30 -128c-21 -89 -97 -134 -230 -134c-63 0 -122 6 -175 18l-10 -58c-18 -104 29 -156 140 -156c80 0 143 31 190 93c6 7 12 8 19 4l12 -8c7 -4 7 -10 1 -17
c-53 -73 -130 -109 -229 -109c-69 0 -119 19 -149 56c-28 35 -37 83 -26 145zM444 359c11 43 3 75 -22 97s-66 33 -122 33c-55 0 -100 -15 -136 -45c-36 -29 -59 -70 -68 -123l-9 -49c53 -13 112 -19 176 -19c103 0 164 35 181 106z" />
    <glyph glyph-name="uni0451" unicode="&#x451;" horiz-adv-x="519" 
d="M234 677h6c15 0 21 -8 19 -23l-2 -7c-3 -15 -11 -22 -26 -22h-7c-15 0 -21 7 -18 22l1 7c3 15 12 23 27 23zM425 677h6c15 0 22 -8 19 -23l-1 -7c-3 -15 -13 -22 -28 -22h-5c-16 0 -23 7 -20 22l1 7c3 15 12 23 28 23zM29 187l25 136c11 65 39 115 83 150
c44 36 100 54 169 54c67 0 117 -15 150 -46s43 -74 30 -128c-21 -89 -97 -134 -230 -134c-63 0 -122 6 -175 18l-10 -58c-18 -104 29 -156 140 -156c80 0 143 31 190 93c6 7 12 8 19 4l12 -8c7 -4 7 -10 1 -17c-53 -73 -130 -109 -229 -109c-69 0 -119 19 -149 56
c-28 35 -37 83 -26 145zM444 359c11 43 3 75 -22 97s-66 33 -122 33c-55 0 -100 -15 -136 -45c-36 -29 -59 -70 -68 -123l-9 -49c53 -13 112 -19 176 -19c103 0 164 35 181 106z" />
    <glyph glyph-name="uni0436" unicode="&#x436;" horiz-adv-x="738" 
d="M397 512h19c8 0 11 -4 9 -11l-38 -218h110l195 220c5 6 13 9 24 9h20c11 0 13 -4 5 -13l-204 -229c31 -11 53 -36 66 -74l59 -183c3 -9 0 -13 -9 -13h-19c-9 0 -15 3 -17 10l-54 168c-14 44 -45 66 -94 66h-89l-41 -232c-1 -8 -5 -12 -14 -12h-19c-8 0 -11 4 -9 12
l40 232h-88c-49 0 -89 -22 -118 -66l-111 -168c-5 -7 -12 -10 -22 -10h-20c-9 0 -11 4 -4 13l124 183c27 41 58 67 93 77l-124 226c-5 9 -1 13 10 13h16c11 0 18 -3 21 -9l118 -220h113l37 218c2 7 7 11 15 11z" />
    <glyph glyph-name="uni0437" unicode="&#x437;" horiz-adv-x="500" 
d="M59 407c43 80 117 120 224 120c59 0 105 -13 138 -40c32 -27 45 -63 38 -108c-10 -57 -43 -95 -99 -114v-2c55 -19 77 -62 66 -129c-16 -99 -92 -148 -227 -148c-107 0 -172 47 -195 140c-2 8 2 13 11 16l18 5c9 3 13 0 14 -8c7 -28 15 -48 24 -60c27 -36 71 -54 132 -54
c107 0 166 38 179 114c13 70 -20 105 -101 105h-115c-8 0 -11 4 -9 13l2 12c1 8 5 12 14 12h112c75 0 119 32 130 97c6 33 -4 59 -30 80c-25 20 -61 30 -107 30c-88 0 -148 -32 -180 -95c-5 -8 -11 -11 -18 -9l-16 6c-7 3 -9 8 -5 17z" />
    <glyph glyph-name="uni0438" unicode="&#x438;" horiz-adv-x="546" 
d="M485 512h19c8 0 11 -4 9 -11l-74 -428c-5 -26 -21 -44 -48 -55c-57 -21 -119 -32 -186 -32c-129 0 -183 65 -160 195l56 320c2 7 7 11 14 11h20c8 0 11 -4 9 -11l-56 -320c-19 -104 24 -156 127 -156c57 0 108 9 155 26c15 7 25 18 28 34l73 416c1 7 5 11 14 11z" />
    <glyph glyph-name="uni0439" unicode="&#x439;" horiz-adv-x="546" 
d="M493 692c-34 -75 -90 -113 -168 -113c-83 0 -128 38 -136 113c-1 6 1 10 8 11l15 5c7 1 11 0 12 -5c6 -60 40 -90 103 -90c61 0 106 30 134 91c3 5 6 6 11 5l18 -6c5 -2 6 -6 3 -11zM485 512h19c8 0 11 -4 9 -11l-74 -428c-5 -26 -21 -44 -48 -55
c-57 -21 -119 -32 -186 -32c-129 0 -183 65 -160 195l56 320c2 7 7 11 14 11h20c8 0 11 -4 9 -11l-56 -320c-19 -104 24 -156 127 -156c57 0 108 9 155 26c15 7 25 18 28 34l73 416c1 7 5 11 14 11z" />
    <glyph glyph-name="uni043A" unicode="&#x43a;" horiz-adv-x="511" 
d="M376 195l61 -182c3 -9 -1 -13 -10 -13h-18c-9 0 -15 3 -18 10l-53 168c-15 44 -46 66 -95 66h-141l-41 -232c-2 -8 -7 -12 -14 -12h-19c-7 0 -11 4 -10 12l86 489c2 7 7 11 15 11h18c9 0 12 -4 10 -11l-38 -218h147l211 220c6 6 15 9 26 9h17c13 0 14 -5 4 -15l-217 -224
c39 -7 65 -33 79 -78z" />
    <glyph glyph-name="uni043B" unicode="&#x43b;" horiz-adv-x="535" 
d="M188 512h303c8 0 11 -4 9 -11l-86 -489c-2 -8 -7 -12 -14 -12h-20c-8 0 -11 4 -9 12l81 460h-243l-43 -185c-27 -114 -57 -192 -91 -234c-19 -23 -53 -45 -102 -66c-7 -3 -11 -1 -13 5l-6 20c-2 5 0 9 6 12c41 20 68 37 79 51c31 38 60 110 85 216l50 210c2 7 7 11 14 11
z" />
    <glyph glyph-name="uni043C" unicode="&#x43c;" horiz-adv-x="635" 
d="M570 512h19c9 0 12 -4 10 -13l-86 -487c-2 -8 -7 -12 -15 -12h-15c-9 0 -12 4 -11 12l57 319c5 33 14 71 27 115h-2l-65 -93l-184 -248c-5 -7 -11 -10 -19 -10h-10c-7 0 -12 3 -14 10l-96 243c-14 34 -26 67 -35 99h-2c-5 -48 -10 -89 -16 -124l-55 -311
c-1 -8 -5 -12 -13 -12h-17c-8 0 -11 4 -10 12l86 487c2 9 7 13 16 13h13c8 0 13 -3 16 -10l140 -360l264 359c5 7 10 11 17 11z" />
    <glyph glyph-name="uni043D" unicode="&#x43d;" horiz-adv-x="555" 
d="M492 512h19c8 0 11 -4 9 -11l-85 -489c-2 -8 -7 -12 -14 -12h-20c-8 0 -11 4 -9 12l40 232h-329l-41 -232c-2 -8 -7 -12 -14 -12h-19c-7 0 -11 4 -10 12l86 489c2 7 7 11 14 11h20c8 0 11 -4 9 -11l-38 -218h330l38 218c2 7 7 11 14 11z" />
    <glyph glyph-name="uni043E" unicode="&#x43e;" horiz-adv-x="537" 
d="M30 162l33 190c9 54 36 97 80 128s99 47 164 47c66 0 116 -16 149 -48s45 -75 36 -130l-33 -189c-9 -54 -36 -97 -80 -128c-43 -31 -98 -46 -164 -46c-65 0 -115 16 -148 47c-34 32 -46 75 -37 129zM416 161l33 191c8 42 -2 75 -29 100c-27 24 -66 36 -119 36
c-51 0 -95 -12 -130 -36c-36 -25 -58 -58 -65 -100l-33 -191c-8 -41 2 -74 29 -99s66 -37 118 -37s96 12 131 37c36 24 58 57 65 99z" />
    <glyph glyph-name="uni043F" unicode="&#x43f;" horiz-adv-x="545" 
d="M139 494c59 22 121 33 186 33c129 0 183 -65 160 -196l-56 -319c-2 -8 -7 -12 -14 -12h-20c-8 0 -11 4 -9 12l56 320c19 103 -24 155 -128 155c-53 0 -104 -9 -155 -26c-15 -7 -24 -18 -27 -33l-72 -416c-2 -8 -7 -12 -14 -12h-20c-8 0 -11 4 -9 12l75 427
c5 26 21 44 47 55z" />
    <glyph glyph-name="uni0440" unicode="&#x440;" horiz-adv-x="533" 
d="M142 498c51 19 108 29 171 29c137 0 195 -67 172 -202l-27 -147c-22 -128 -99 -192 -230 -192c-57 0 -112 14 -165 43l-42 -237c-2 -8 -7 -12 -14 -12h-20c-8 0 -11 4 -9 12l115 651c5 26 21 44 49 55zM416 181l26 145c18 107 -29 161 -140 161c-49 0 -95 -8 -138 -23
c-17 -7 -28 -18 -31 -34l-63 -361c54 -29 108 -44 163 -44c103 0 164 52 183 156z" />
    <glyph glyph-name="uni0441" unicode="&#x441;" horiz-adv-x="510" 
d="M30 183l27 154c23 127 105 190 245 190c108 0 169 -46 182 -138c1 -9 -3 -15 -10 -17l-15 -4c-8 -3 -13 -1 -15 7c-11 75 -61 113 -148 113c-112 0 -177 -51 -196 -154l-28 -155c-9 -48 -1 -86 23 -113c25 -27 64 -41 119 -41c91 0 155 40 191 119c4 8 10 11 17 8l17 -6
c7 -3 9 -8 5 -16c-47 -96 -125 -144 -236 -144c-69 0 -118 18 -149 54c-30 34 -40 82 -29 143z" />
    <glyph glyph-name="uni0442" unicode="&#x442;" horiz-adv-x="811" 
d="M417 479c73 32 137 48 191 48c118 0 166 -63 144 -188l-58 -327c-2 -8 -7 -12 -14 -12h-19c-7 0 -11 4 -10 12l58 327c17 99 -20 148 -112 148c-56 0 -110 -14 -162 -41c11 -26 12 -61 5 -105l-58 -329c-2 -8 -7 -12 -14 -12h-19c-9 0 -12 4 -10 12l58 327
c17 99 -21 148 -116 148c-45 0 -85 -8 -121 -24c-15 -7 -25 -18 -28 -35l-72 -416c-2 -8 -7 -12 -14 -12h-20c-8 0 -11 4 -9 12l75 427c5 26 21 45 47 57c49 21 100 31 153 31c59 0 101 -16 125 -48z" />
    <glyph glyph-name="uni0443" unicode="&#x443;" horiz-adv-x="548" 
d="M484 512h20c8 0 11 -4 9 -11l-94 -538c-25 -144 -108 -216 -247 -216c-92 0 -150 38 -174 114c-4 8 -1 14 8 18l14 7c9 4 15 2 18 -5c21 -63 68 -95 141 -95c110 0 175 58 196 175l12 65c-64 -22 -124 -33 -181 -33c-129 0 -183 65 -160 196l55 312c2 7 7 11 14 11h20
c8 0 11 -4 9 -11l-55 -313c-19 -104 24 -156 128 -156c55 0 114 11 177 34l76 435c2 7 7 11 14 11z" />
    <glyph glyph-name="uni0444" unicode="&#x444;" horiz-adv-x="736" 
d="M465 728l-37 -207c29 3 57 5 84 6c141 0 199 -69 175 -206l-24 -138c-23 -131 -105 -197 -246 -197c-36 1 -63 3 -82 6l-35 -200c-2 -8 -7 -12 -14 -12h-20c-8 0 -11 4 -9 12l35 200c-19 -3 -48 -5 -85 -6c-141 0 -200 69 -176 206l23 130c24 137 106 205 247 205
c20 0 48 -2 84 -6l37 207c1 8 5 12 14 12h19c7 0 11 -4 10 -12zM96 317l-22 -128c-19 -109 28 -163 141 -163c25 0 53 2 85 5l79 451c-31 3 -59 5 -83 5c-114 0 -181 -57 -200 -170zM621 188l24 136c19 109 -29 163 -142 163c-23 0 -51 -2 -83 -5l-79 -451
c30 -3 57 -5 81 -5c113 0 180 54 199 162z" />
    <glyph glyph-name="uni0445" unicode="&#x445;" horiz-adv-x="473" 
d="M452 512h23c11 0 12 -4 4 -12l-224 -237l149 -251c4 -8 1 -12 -10 -12h-18c-9 0 -15 3 -18 10l-133 223l-209 -223c-5 -7 -13 -10 -22 -10h-22c-11 0 -13 4 -6 12l237 252l-142 236c-3 8 0 12 11 12h16c10 0 16 -3 18 -9l127 -209l197 209c6 6 13 9 22 9z" />
    <glyph glyph-name="uni0447" unicode="&#x447;" horiz-adv-x="501" 
d="M45 373l23 128c2 7 7 11 14 11h19c9 0 12 -4 10 -11l-24 -132c-9 -49 -2 -85 20 -106c21 -21 61 -31 118 -31c45 0 96 9 154 26l43 243c2 7 7 11 14 11h20c8 0 11 -4 9 -11l-86 -489c-2 -8 -7 -12 -14 -12h-19c-8 0 -11 4 -9 12l36 205c-59 -16 -112 -24 -159 -24
c-133 0 -190 60 -169 180z" />
    <glyph glyph-name="uni0446" unicode="&#x446;" horiz-adv-x="569" 
d="M115 512h20c8 0 11 -4 9 -11l-56 -321c-18 -103 25 -155 128 -155c12 0 71 10 176 29l79 447c1 7 5 11 14 11h19c8 0 11 -4 9 -11l-78 -444c56 7 79 -19 70 -78l-19 -106c-2 -8 -6 -12 -12 -12h-18c-9 0 -13 4 -11 12l18 102c7 35 -8 51 -45 46
c-151 -23 -222 -35 -213 -35c-129 0 -183 65 -160 195l56 320c2 7 7 11 14 11z" />
    <glyph glyph-name="uni0448" unicode="&#x448;" horiz-adv-x="806" 
d="M744 512h20c8 0 11 -4 9 -11l-75 -428c-5 -27 -21 -47 -46 -58c-47 -19 -98 -29 -155 -29c-59 0 -100 15 -124 46c-56 -31 -118 -46 -187 -46c-117 0 -165 64 -143 191l57 324c2 7 7 11 14 11h20c8 0 11 -4 9 -11l-58 -328c-17 -99 20 -148 112 -148c51 0 103 13 158 39
c-11 25 -13 61 -6 107l59 330c1 7 5 11 14 11h19c8 0 11 -4 9 -11l-58 -330c-17 -97 22 -146 117 -146c44 0 84 8 120 24c15 7 25 20 29 39l72 413c2 7 7 11 14 11z" />
    <glyph glyph-name="uni0449" unicode="&#x449;" horiz-adv-x="829" 
d="M43 177l57 324c2 7 7 11 14 11h20c8 0 11 -4 9 -11l-58 -328c-17 -99 20 -148 112 -148c51 0 103 13 158 39c-11 25 -13 61 -6 107l59 330c1 7 5 11 14 11h19c8 0 11 -4 9 -11l-58 -330c-17 -97 22 -146 117 -146c16 0 63 10 142 30l79 446c2 7 7 11 14 11h20
c8 0 11 -4 9 -11l-78 -443c56 7 79 -20 70 -79l-18 -106c-2 -8 -6 -12 -12 -12h-19c-9 0 -12 4 -10 12l18 102c5 35 -10 51 -45 46c-5 -1 -32 -7 -81 -20c-37 -10 -70 -15 -101 -15c-59 0 -100 15 -124 46c-56 -31 -118 -46 -187 -46c-117 0 -165 64 -143 191z" />
    <glyph glyph-name="uni044F" unicode="&#x44f;" horiz-adv-x="512" 
d="M244 512h222c8 0 11 -4 9 -12l-85 -488c-2 -8 -7 -12 -14 -12h-20c-8 0 -11 4 -9 12l32 182h-183l-158 -184c-5 -7 -13 -10 -24 -10h-18c-12 0 -14 5 -6 14l161 186c-37 5 -64 22 -81 50c-18 29 -23 64 -16 107c9 49 30 88 65 115c33 27 75 40 125 40zM429 474h-187
c-81 0 -129 -41 -144 -122c-7 -37 -1 -66 16 -87s45 -32 82 -32h190z" />
    <glyph glyph-name="uni044C" unicode="&#x44c;" horiz-adv-x="506" 
d="M144 501l-32 -182c64 22 123 33 176 33c62 0 107 -16 136 -48c29 -33 39 -78 28 -135c-21 -122 -100 -183 -235 -183c-65 0 -119 9 -161 28c-15 7 -25 14 -29 21s-5 19 -2 35l77 431c2 7 7 11 14 11h18c9 0 12 -4 10 -11zM89 48c36 -15 79 -23 130 -23
c109 0 172 49 191 147c8 46 1 81 -22 106s-59 37 -108 37c-55 0 -113 -12 -174 -35l-36 -198c-2 -16 4 -27 19 -34z" />
    <glyph glyph-name="uni044A" unicode="&#x44a;" horiz-adv-x="598" 
d="M237 501l-32 -182c64 22 123 33 177 33c61 0 106 -16 135 -48c29 -33 38 -78 28 -136c-21 -121 -100 -182 -235 -182c-65 0 -119 9 -161 28c-15 7 -25 14 -29 21s-5 19 -2 35l72 403h-141c-9 0 -12 4 -10 12l2 16c2 7 7 11 14 11h173c8 0 11 -4 9 -11zM182 48
c36 -15 79 -23 129 -23c110 0 174 49 191 147c8 45 1 81 -21 106c-23 25 -59 37 -108 37c-55 0 -113 -12 -175 -35l-35 -198c-1 -11 -1 -18 1 -21c2 -4 8 -8 18 -13z" />
    <glyph glyph-name="uni044B" unicode="&#x44b;" horiz-adv-x="683" 
d="M144 501l-32 -182c64 22 123 33 176 33c62 0 107 -16 136 -48c29 -33 39 -78 28 -135c-21 -122 -100 -183 -235 -183c-65 0 -119 9 -161 28c-15 7 -25 14 -29 21s-5 19 -2 35l77 431c2 7 7 11 14 11h18c9 0 12 -4 10 -11zM618 512h19c9 0 12 -4 10 -11l-86 -489
c-2 -8 -7 -12 -14 -12h-20c-8 0 -11 4 -9 12l86 489c2 7 7 11 14 11zM89 48c36 -15 79 -23 130 -23c109 0 172 49 191 147c8 46 1 81 -22 106s-59 37 -108 37c-55 0 -113 -12 -174 -35l-36 -198c-2 -16 4 -27 19 -34z" />
    <glyph glyph-name="uni044D" unicode="&#x44d;" horiz-adv-x="508" 
d="M54 391c43 91 119 136 228 136c69 0 119 -18 150 -54c29 -35 39 -83 28 -144l-27 -153c-22 -127 -103 -190 -242 -190c-113 0 -175 48 -186 145c-1 7 2 12 10 16l19 5c7 3 12 0 15 -8c9 -79 58 -119 147 -119c111 0 176 51 195 154l11 63l-230 1c-8 0 -11 4 -9 11l3 16
c1 8 5 12 13 12h230l9 53c19 102 -27 153 -140 153c-88 0 -150 -37 -186 -112c-5 -8 -11 -11 -17 -8l-17 6c-7 3 -8 8 -4 17z" />
    <glyph glyph-name="uni044E" unicode="&#x44e;" horiz-adv-x="739" 
d="M261 280l13 76c9 53 36 95 79 126c42 30 95 45 160 45s113 -16 146 -49c32 -33 43 -76 34 -130l-35 -194c-9 -53 -35 -95 -77 -124s-96 -44 -161 -44c-64 0 -112 16 -145 47s-45 73 -36 127l14 80h-151l-40 -228c-2 -8 -7 -12 -14 -12h-19c-7 0 -11 4 -10 12l86 489
c2 7 7 11 14 11h20c8 0 11 -4 9 -11l-39 -221h152zM616 158l35 196c7 41 -2 74 -28 98s-65 36 -116 36s-93 -12 -127 -36c-35 -25 -57 -58 -64 -100l-35 -195c-7 -41 3 -74 29 -97s64 -35 115 -35s94 12 129 35c35 24 55 57 62 98z" />
    <glyph glyph-name="increment" unicode="&#x2206;" horiz-adv-x="614" 
d="M371 710h22c9 0 15 -3 16 -10l127 -647c2 -9 3 -18 2 -25l-3 -15c-2 -9 -7 -13 -15 -13h-526c-9 0 -12 4 -10 13l3 15c1 5 4 14 10 25l356 647c3 7 9 10 18 10zM491 40l-83 435l-17 103c-6 41 -11 71 -14 88h-3c-9 -15 -24 -45 -45 -88c-22 -43 -40 -78 -54 -103
l-237 -435h453z" />
    <glyph glyph-name="Omega" unicode="&#x2126;" horiz-adv-x="745" 
d="M74 379c17 101 61 184 131 248c69 65 150 97 242 97c93 0 163 -32 210 -97s62 -148 45 -251c-25 -146 -106 -257 -242 -332h182c7 0 11 -4 10 -12l-4 -19c-2 -9 -7 -13 -15 -13h-245c-7 0 -9 4 -8 11l3 15c1 6 4 10 11 13c148 70 235 181 262 334c16 90 5 164 -34 221
c-39 58 -100 87 -182 87c-80 0 -150 -29 -210 -87c-59 -57 -96 -131 -112 -220c-27 -150 21 -262 144 -335c5 -2 7 -6 7 -13l-3 -15c-2 -7 -6 -11 -12 -11h-245c-9 0 -12 4 -10 13l3 19c1 8 6 12 15 12h181c-108 77 -149 188 -124 335z" />
    <glyph glyph-name="mu" unicode="&#xb5;" horiz-adv-x="542" 
d="M484 512h19c7 0 11 -4 10 -11l-75 -429c-5 -25 -21 -43 -48 -54c-55 -22 -114 -33 -175 -33c-81 0 -130 30 -147 91l-50 -284c-2 -8 -7 -12 -14 -12h-20c-7 0 -10 4 -8 12l124 709c2 7 7 11 14 11h20c8 0 11 -4 9 -11l-56 -321c-19 -104 24 -156 128 -156
c55 0 107 9 154 27c15 6 25 17 28 33l73 417c2 7 7 11 14 11z" />
    <glyph glyph-name="pi" unicode="&#x3c0;" horiz-adv-x="600" 
d="M198 512h410c9 0 12 -4 10 -11l-3 -16c-1 -8 -5 -12 -13 -12h-70l-58 -329c-8 -48 -5 -88 8 -119c2 -9 -1 -15 -9 -18l-18 -8c-7 -3 -12 -1 -15 6c-15 37 -18 84 -9 141l58 327h-274l-82 -461c-2 -8 -7 -12 -14 -12h-19c-8 0 -11 4 -9 12l81 461c-39 -1 -79 -11 -118 -32
c-9 -4 -14 -3 -16 3l-4 16c-2 7 1 13 8 16c46 24 98 36 156 36z" />
    <glyph glyph-name="zero" unicode="0" horiz-adv-x="621" 
d="M45 217l50 283c13 71 44 126 93 165c51 39 116 59 195 59c78 0 136 -21 174 -64c37 -42 49 -98 36 -168l-50 -283c-12 -71 -43 -125 -93 -164c-51 -39 -115 -59 -194 -59s-137 21 -174 63c-37 41 -49 97 -37 168zM498 213l50 284c10 57 0 102 -29 135
c-30 33 -77 49 -142 49s-118 -16 -160 -49c-41 -33 -67 -78 -77 -135l-50 -284c-10 -58 0 -103 29 -135c30 -33 78 -49 143 -49s118 16 159 49c41 32 67 77 77 135z" />
    <glyph glyph-name="one" unicode="1" horiz-adv-x="415" 
d="M364 710h18c8 0 12 -4 11 -13l-121 -684c-2 -9 -7 -13 -15 -13h-21c-9 0 -12 4 -10 13l113 641l-244 -123c-9 -5 -15 -3 -18 4l-7 18c-3 6 -1 11 8 16l267 136c7 3 13 5 19 5z" />
    <glyph glyph-name="two" unicode="2" horiz-adv-x="582" 
d="M103 562c65 108 159 162 280 162c69 0 121 -19 154 -58s45 -90 34 -155c-12 -69 -46 -123 -102 -162c-33 -23 -98 -53 -195 -89c-63 -23 -108 -42 -133 -59c-42 -28 -67 -64 -75 -108l-8 -50h415c9 0 12 -4 10 -12l-3 -18c-2 -9 -7 -13 -15 -13h-450c-9 0 -13 4 -11 13
l12 72c11 59 42 107 92 143c32 23 86 48 161 75c81 29 135 53 162 71c52 34 83 80 93 139c9 52 0 93 -26 123c-27 30 -67 45 -122 45c-99 0 -176 -45 -232 -135c-5 -7 -10 -10 -17 -7l-20 7c-6 4 -7 9 -4 16z" />
    <glyph glyph-name="three" unicode="3" horiz-adv-x="592" 
d="M559 524c-14 -81 -55 -134 -124 -157c73 -28 102 -87 86 -177c-24 -136 -114 -204 -269 -204c-75 0 -130 15 -166 46c-33 28 -52 72 -59 132c-2 8 2 13 11 16l19 7c8 3 13 0 15 -9c7 -53 22 -90 47 -112c28 -25 74 -37 138 -37c126 0 199 55 218 164c8 47 2 83 -19 109
c-21 27 -56 41 -103 41h-167c-9 0 -12 4 -10 12l3 17c1 9 6 13 15 13h161c45 0 81 14 110 42c25 25 42 58 49 97c9 50 0 89 -25 116s-64 41 -118 41c-61 0 -108 -11 -143 -34c-33 -21 -61 -58 -86 -109c-4 -7 -10 -10 -18 -7l-17 6c-8 3 -10 8 -6 17c28 59 63 101 104 128
c44 28 102 42 175 42c67 0 117 -18 148 -54c32 -35 42 -84 31 -146z" />
    <glyph glyph-name="four" unicode="4" horiz-adv-x="600" 
d="M446 249h105c9 0 12 -4 10 -13l-3 -16c-1 -9 -5 -13 -14 -13h-105l-34 -194c-2 -9 -7 -13 -15 -13h-19c-9 0 -12 4 -10 13l34 194h-370c-8 0 -12 4 -11 13l3 13c1 7 3 12 7 16l452 463c6 6 13 9 20 9h20c9 0 13 -5 11 -14zM475 656l-400 -407h327z" />
    <glyph glyph-name="five" unicode="5" horiz-adv-x="584" 
d="M198 710h370c8 0 12 -4 11 -13l-4 -18c-1 -8 -5 -12 -14 -12h-352l-68 -247h180c74 0 129 -20 164 -60c34 -39 45 -92 33 -159c-11 -63 -40 -114 -86 -153c-49 -42 -112 -63 -188 -63c-133 0 -210 52 -230 156c-1 8 3 13 10 16l23 7c7 4 12 1 14 -8
c15 -85 78 -128 189 -128c60 0 110 17 150 51c37 32 61 74 70 126c10 55 1 97 -27 128c-27 29 -70 44 -129 44h-213c-11 0 -16 6 -13 17l82 294c4 15 13 22 28 22z" />
    <glyph glyph-name="six" unicode="6" horiz-adv-x="615" 
d="M137 476l-19 -105c63 25 138 38 223 38c161 0 230 -72 205 -217c-25 -137 -120 -206 -287 -206c-82 0 -141 23 -177 68c-36 44 -47 105 -33 183l42 241c29 164 127 246 296 246c123 0 195 -50 216 -151c1 -7 -2 -12 -11 -15l-20 -7c-8 -4 -13 -1 -14 8
c-17 81 -77 122 -179 122c-138 0 -219 -68 -242 -205zM110 326l-15 -92c-12 -65 -4 -116 25 -151c29 -36 78 -54 145 -54c137 0 215 56 236 168c19 113 -38 169 -170 169c-75 0 -148 -13 -221 -40z" />
    <glyph glyph-name="seven" unicode="7" horiz-adv-x="507" 
d="M105 710h444c9 0 13 -4 11 -13l-2 -12c-2 -6 -4 -12 -7 -18l-404 -656c-5 -7 -14 -11 -25 -11h-21c-8 0 -9 4 -4 13l405 654h-405c-8 0 -12 4 -11 12l4 18c2 9 7 13 15 13z" />
    <glyph glyph-name="eight" unicode="8" horiz-adv-x="608" 
d="M115 548c10 57 38 101 85 132c46 29 106 44 179 44c76 0 131 -16 166 -47c34 -31 46 -76 36 -134c-17 -89 -80 -150 -191 -181c53 -18 91 -39 114 -63c30 -32 40 -75 31 -129c-22 -123 -117 -184 -286 -184c-171 0 -245 59 -223 178c17 98 90 165 218 200
c-101 37 -144 99 -129 184zM537 544c17 93 -39 140 -166 140c-123 0 -194 -47 -211 -140c-9 -48 5 -85 40 -111c21 -16 63 -33 126 -51l14 -4c116 26 182 81 197 166zM488 173c9 53 -6 92 -46 118c-21 14 -71 32 -151 55c-129 -27 -201 -86 -218 -178
c-16 -95 45 -142 183 -142s215 49 232 147z" />
    <glyph glyph-name="nine" unicode="9" horiz-adv-x="616" 
d="M497 234l19 105c-61 -25 -135 -38 -223 -38c-161 0 -229 72 -204 217c11 67 42 118 92 154c49 35 114 52 194 52c82 0 141 -23 178 -68c35 -44 46 -105 32 -183l-42 -241c-29 -164 -127 -246 -295 -246c-124 0 -196 50 -217 151c-1 7 3 12 11 15l20 7c8 3 13 1 15 -8
c17 -81 76 -122 178 -122c138 0 219 68 242 205zM524 384l16 92c11 65 3 116 -25 151c-29 36 -78 54 -145 54c-137 0 -216 -56 -237 -168c-19 -113 38 -169 171 -169c78 0 151 13 220 40z" />
    <glyph glyph-name="zero.denom" horiz-adv-x="369" 
d="M11 129l25 146c15 87 70 130 166 130c44 0 77 -13 99 -38c21 -25 27 -58 20 -99l-25 -146c-16 -87 -71 -130 -165 -130c-45 0 -79 13 -100 38s-27 58 -20 99zM260 125l25 146c5 30 0 54 -16 71c-15 18 -40 27 -73 27c-71 0 -112 -33 -124 -98l-25 -146
c-5 -30 0 -54 15 -71c15 -18 40 -27 74 -27c71 0 112 33 124 98z" />
    <glyph glyph-name="one.denom" horiz-adv-x="262" 
d="M199 397h7c9 0 13 -4 11 -13l-65 -371c-2 -9 -7 -13 -15 -13h-12c-9 0 -12 4 -10 13l59 336l-139 -69c-8 -4 -13 -3 -16 4l-4 10c-2 7 1 12 8 17l159 81c7 3 12 5 17 5z" />
    <glyph glyph-name="two.denom" horiz-adv-x="346" 
d="M39 293c40 75 93 112 159 112c42 0 73 -12 93 -35c19 -22 25 -50 19 -84s-23 -61 -50 -80c-17 -11 -47 -23 -91 -38l-65 -22c-41 -13 -64 -40 -71 -79l-6 -32h224c8 0 11 -4 10 -12l-2 -12c-2 -7 -7 -11 -14 -11h-246c-9 0 -13 4 -12 13l8 43c11 59 43 99 98 118l66 23
c40 15 64 25 72 30c23 13 36 33 41 59c5 25 0 45 -13 60c-14 15 -36 23 -67 23c-50 0 -90 -29 -119 -87c-4 -7 -10 -10 -17 -9l-12 4c-9 2 -10 7 -5 16z" />
    <glyph glyph-name="three.denom" horiz-adv-x="358" 
d="M34 294c35 74 91 111 170 111c39 0 67 -11 86 -32c17 -21 23 -48 18 -82c-7 -42 -28 -71 -65 -88c37 -19 51 -52 44 -100c-13 -74 -65 -111 -155 -111c-79 0 -124 36 -133 108c-1 9 2 14 9 17l13 4c8 3 13 0 15 -9c3 -31 12 -52 27 -65c15 -14 40 -21 74 -21
c67 0 104 27 113 81c4 22 1 40 -9 55c-11 15 -27 23 -48 23h-71c-7 0 -10 4 -9 11l2 11c1 8 6 12 14 12h68c42 0 67 24 76 71c4 25 0 44 -13 59s-34 22 -61 22c-61 0 -105 -29 -132 -87c-4 -9 -10 -12 -19 -9l-9 4c-7 3 -9 8 -5 15z" />
    <glyph glyph-name="four.denom" horiz-adv-x="350" 
d="M238 144h51c8 0 11 -3 9 -10l-2 -11c-1 -7 -5 -11 -13 -11h-50l-18 -101c-1 -7 -6 -11 -13 -11h-15c-7 0 -9 4 -8 11l18 101h-201c-7 0 -10 4 -9 11l1 9c2 7 4 12 7 15l240 242c5 5 12 8 20 8h16c8 0 11 -4 10 -13zM239 349l-205 -205h168z" />
    <glyph glyph-name="five.denom" horiz-adv-x="347" 
d="M96 397h212c7 0 9 -3 7 -10l-2 -14c-1 -7 -4 -10 -11 -10h-193l-34 -124h86c47 0 81 -11 102 -34c19 -21 26 -51 19 -89c-15 -83 -67 -124 -157 -124c-79 0 -122 36 -129 107c-2 9 1 14 8 17l13 4c8 3 13 0 15 -8c3 -57 35 -86 96 -86c67 0 107 31 118 92
c9 59 -21 88 -90 88h-113c-8 0 -11 4 -9 13l45 165c3 9 8 13 17 13z" />
    <glyph glyph-name="six.denom" horiz-adv-x="367" 
d="M68 253l-8 -46c44 17 87 25 129 25c89 0 126 -40 112 -120c-15 -80 -72 -120 -171 -120c-96 0 -135 52 -117 156l19 108c17 99 75 149 174 149c66 0 106 -25 120 -76c3 -5 1 -9 -6 -12l-15 -6c-7 -3 -12 -2 -13 3c-12 37 -43 56 -92 56c-75 0 -119 -39 -132 -117zM53 170
l-4 -27c-13 -77 16 -116 87 -116c75 0 117 29 128 87c10 56 -19 84 -86 84c-43 0 -84 -9 -125 -28z" />
    <glyph glyph-name="seven.denom" horiz-adv-x="302" 
d="M42 397h251c7 0 10 -3 9 -10l-2 -9l-5 -13l-216 -357c-4 -5 -10 -8 -17 -8h-16c-9 0 -10 4 -5 13l213 349h-218c-7 0 -10 3 -9 9l3 15c1 7 5 11 12 11z" />
    <glyph glyph-name="eight.denom" horiz-adv-x="370" 
d="M45 298c12 71 64 107 157 107c43 0 75 -10 96 -30c21 -19 29 -45 24 -76c-9 -47 -40 -80 -93 -98c56 -16 80 -48 71 -95c-13 -76 -70 -114 -170 -114c-47 0 -83 10 -106 29s-31 45 -26 79c9 47 43 81 103 102c-46 16 -65 48 -56 96zM284 299c9 50 -20 75 -87 75
c-69 0 -107 -26 -115 -79c-4 -24 2 -42 17 -54c15 -11 44 -20 88 -27c57 13 90 41 97 85zM261 106c4 24 -3 42 -20 53s-49 20 -96 27c-65 -15 -100 -44 -107 -86c-9 -51 23 -77 98 -77c73 0 115 28 125 83z" />
    <glyph glyph-name="nine.denom" horiz-adv-x="367" 
d="M262 144l8 47c-49 -18 -92 -27 -129 -27c-88 0 -125 41 -112 123c15 79 72 118 171 118c96 0 135 -52 117 -157l-19 -108c-17 -99 -76 -148 -175 -148c-66 0 -106 25 -120 75c-3 5 0 9 7 12l15 7c7 3 11 2 13 -3c11 -37 41 -56 91 -56c74 0 118 39 133 117zM276 227l5 26
c13 78 -16 117 -87 117c-75 0 -118 -29 -128 -88c-9 -55 19 -83 86 -83c45 0 87 9 124 28z" />
    <glyph glyph-name="zero.num" horiz-adv-x="369" 
d="M68 451l25 145c15 87 70 130 166 130c44 0 77 -13 99 -38c21 -25 27 -57 20 -98l-25 -146c-16 -87 -71 -130 -165 -130c-45 0 -79 13 -100 38s-27 58 -20 99zM317 447l25 145c5 30 0 54 -16 72c-15 17 -40 26 -73 26c-71 0 -112 -33 -124 -98l-25 -145
c-5 -31 0 -55 15 -72s40 -26 74 -26c71 0 112 33 124 98z" />
    <glyph glyph-name="one.num" horiz-adv-x="262" 
d="M256 718h7c9 0 13 -4 11 -12l-65 -372c-2 -8 -7 -12 -15 -12h-12c-9 0 -12 4 -10 12l59 337l-139 -70c-8 -4 -13 -3 -16 4l-4 10c-2 7 1 12 8 17l159 82c5 3 11 4 17 4z" />
    <glyph glyph-name="two.num" horiz-adv-x="346" 
d="M95 614c18 31 31 52 40 61c32 34 72 51 119 51c42 0 73 -12 93 -35c19 -21 25 -49 19 -84c-6 -34 -23 -60 -50 -79c-17 -11 -47 -24 -90 -38l-66 -22c-39 -14 -63 -40 -71 -79l-6 -33h224c9 0 12 -4 10 -11l-2 -12c-2 -7 -7 -11 -14 -11h-246c-9 0 -13 4 -11 13l8 43
c10 59 42 98 97 118l66 23c39 14 64 24 73 29c23 14 36 34 41 59c4 25 0 45 -13 60c-14 16 -36 24 -67 24c-51 0 -91 -29 -120 -87c-4 -9 -10 -12 -17 -9l-12 4c-8 2 -10 7 -5 15z" />
    <glyph glyph-name="three.num" horiz-adv-x="358" 
d="M92 616c34 73 90 110 169 110c39 0 67 -11 86 -32c18 -21 24 -48 19 -82c-7 -43 -28 -72 -65 -87c37 -20 52 -54 43 -101c-12 -73 -63 -110 -154 -110c-79 0 -124 36 -133 108c-2 9 1 14 9 16l13 4c9 3 13 0 14 -8c3 -31 13 -52 28 -65c15 -14 40 -21 74 -21
c65 0 103 27 113 81c4 21 1 39 -9 54c-11 15 -27 23 -48 23h-71c-7 0 -11 4 -10 12l2 10c2 8 7 12 15 12h68c41 0 66 24 76 71c4 25 0 44 -13 59s-34 22 -61 22c-61 0 -105 -29 -132 -87c-4 -9 -10 -11 -19 -8l-10 3c-7 3 -8 8 -4 16z" />
    <glyph glyph-name="four.num" horiz-adv-x="351" 
d="M296 466h50c7 0 11 -4 10 -11l-2 -10c-1 -8 -6 -12 -13 -12h-51l-17 -100c-1 -7 -6 -11 -13 -11h-15c-7 0 -9 4 -8 11l17 100h-200c-7 0 -11 4 -10 12l2 9c2 7 4 12 7 14l240 243c5 5 11 7 20 7h16c7 0 10 -4 9 -12zM296 671l-204 -205h168z" />
    <glyph glyph-name="five.num" horiz-adv-x="347" 
d="M152 718h212c7 0 9 -3 7 -9l-2 -15c-1 -6 -4 -9 -11 -9h-193l-34 -125h86c47 0 81 -11 102 -34c19 -21 26 -51 19 -88c-15 -83 -67 -124 -157 -124c-79 0 -122 36 -129 107c-2 9 1 14 8 17l13 3c9 3 14 0 15 -7c3 -57 35 -86 96 -86c68 0 107 31 118 92
c10 59 -20 88 -90 88h-113c-8 0 -11 4 -9 13l45 165c3 8 8 12 17 12z" />
    <glyph glyph-name="six.num" horiz-adv-x="367" 
d="M124 574l-8 -46c45 17 88 26 129 26c89 0 127 -40 112 -120s-72 -120 -171 -120c-96 0 -135 52 -117 156l19 108c17 99 75 148 174 148c65 0 105 -25 120 -75c3 -5 1 -9 -6 -12l-15 -7c-7 -3 -12 -2 -13 3c-12 38 -43 57 -92 57c-75 0 -119 -39 -132 -118zM109 491
l-4 -26c-13 -78 16 -117 87 -117c75 0 117 29 128 88c9 55 -19 83 -86 83c-43 0 -84 -9 -125 -28z" />
    <glyph glyph-name="seven.num" horiz-adv-x="302" 
d="M99 718h251c7 0 10 -3 9 -9l-2 -9c0 1 -2 -3 -5 -14l-216 -356c-4 -5 -10 -8 -17 -8h-16c-9 0 -10 4 -5 13l213 349h-218c-7 0 -10 3 -9 9l3 15c1 7 5 10 12 10z" />
    <glyph glyph-name="eight.num" horiz-adv-x="371" 
d="M102 620c12 71 64 106 157 106c43 0 75 -10 96 -29s29 -45 24 -76c-9 -47 -40 -80 -93 -99c56 -15 80 -46 71 -95c-13 -75 -70 -113 -170 -113c-47 0 -83 9 -106 28s-31 45 -26 79c9 47 43 81 103 102c-45 17 -64 49 -56 97zM341 621c9 49 -20 74 -87 74
c-69 0 -107 -26 -115 -78c-4 -25 2 -43 17 -54c15 -12 44 -21 88 -28c58 15 90 44 97 86zM318 427c4 24 -3 42 -20 54c-17 11 -49 20 -96 27c-65 -19 -100 -48 -107 -86c-9 -51 23 -77 98 -77c73 0 115 27 125 82z" />
    <glyph glyph-name="nine.num" horiz-adv-x="368" 
d="M319 465l8 47c-47 -17 -90 -26 -129 -26c-88 0 -125 41 -112 122c14 79 71 118 171 118c96 0 135 -52 117 -156l-19 -108c-17 -99 -76 -148 -175 -148c-66 0 -106 25 -120 74c-3 5 0 9 7 13l15 7c7 3 11 2 13 -3c11 -38 41 -57 91 -57c74 0 118 39 133 117zM333 548l5 27
c14 78 -15 117 -87 117c-75 0 -118 -29 -128 -88c-10 -56 19 -84 86 -84c45 0 87 9 124 28z" />
    <glyph glyph-name="fraction" unicode="&#x2044;" horiz-adv-x="141" 
d="M-196 13l505 685c5 8 13 12 23 12h17c11 0 14 -4 7 -13l-504 -685c-7 -8 -15 -12 -26 -12h-15c-10 0 -12 4 -7 13z" />
    <glyph glyph-name="onehalf" unicode="&#xbd;" horiz-adv-x="886" 
d="M272 718h6c9 0 13 -4 11 -12l-65 -372c-2 -8 -7 -12 -15 -12h-12c-9 0 -12 4 -10 12l60 337l-139 -70c-9 -4 -14 -3 -17 4l-3 10c-3 7 -1 13 8 17l159 82c5 3 10 4 17 4zM685 710h17c10 0 12 -4 7 -13l-504 -685c-7 -8 -15 -12 -26 -12h-16c-11 0 -13 4 -6 13l504 685
c5 8 13 12 24 12zM569 293c21 35 35 55 40 61c32 34 72 51 120 51c42 0 73 -12 93 -35c19 -22 25 -50 19 -84s-23 -61 -50 -80c-17 -11 -47 -23 -91 -38l-65 -22c-41 -13 -64 -40 -71 -79l-6 -32h223c9 0 12 -4 11 -12l-2 -12c-2 -7 -7 -11 -14 -11h-246c-10 0 -14 4 -12 13
l8 43c11 59 43 99 98 118l65 23c40 14 64 24 73 30c23 13 36 33 41 59c4 25 0 45 -13 60c-14 15 -36 23 -67 23c-37 0 -68 -14 -92 -42c-8 -9 -15 -19 -20 -30l-8 -15c-4 -7 -10 -10 -17 -9l-11 4c-9 2 -11 7 -6 16z" />
    <glyph glyph-name="onethird" unicode="&#x2153;" horiz-adv-x="906" 
d="M272 718h6c9 0 13 -4 11 -12l-65 -372c-2 -8 -7 -12 -15 -12h-12c-9 0 -12 4 -10 12l60 337l-139 -70c-9 -4 -14 -3 -17 4l-3 10c-3 7 -1 13 8 17l159 82c5 3 10 4 17 4zM695 710h17c11 0 14 -4 7 -13l-504 -685c-7 -8 -15 -12 -26 -12h-15c-10 0 -12 4 -7 13l505 685
c5 8 13 12 23 12zM578 294c35 74 91 111 169 111c39 0 68 -11 87 -32c17 -21 23 -48 18 -82c-7 -42 -28 -71 -65 -88c37 -19 51 -52 44 -100c-13 -74 -65 -111 -155 -111c-79 0 -124 36 -133 108c-1 9 2 14 9 17l13 4c9 3 13 0 14 -9c4 -31 13 -52 28 -65
c15 -14 40 -21 74 -21c67 0 104 27 113 81c4 22 1 40 -9 55c-11 15 -27 23 -48 23h-71c-7 0 -11 4 -10 11l3 11c1 8 6 12 14 12h68c42 0 67 24 76 71c4 25 0 44 -13 59s-34 22 -61 22c-61 0 -105 -29 -132 -87c-4 -9 -10 -12 -19 -9l-9 4c-7 3 -9 8 -5 15z" />
    <glyph glyph-name="twothirds" unicode="&#x2154;" horiz-adv-x="919" 
d="M103 614c18 31 31 52 40 61c32 34 72 51 120 51c42 0 73 -12 93 -35c19 -21 25 -49 19 -84s-23 -61 -51 -79c-17 -12 -47 -25 -90 -38l-65 -22c-41 -14 -64 -40 -71 -79l-7 -33h224c8 0 12 -4 11 -11l-3 -12c-1 -7 -5 -11 -14 -11h-245c-10 0 -14 4 -12 13l8 43
c11 59 43 99 98 118l65 23c40 15 64 24 73 29c23 14 36 34 41 59c4 25 0 45 -13 60c-14 16 -36 24 -67 24c-37 0 -68 -14 -93 -42c-7 -9 -14 -19 -20 -30c-6 -12 -8 -17 -7 -15c-4 -9 -10 -12 -17 -9l-11 4c-9 2 -11 7 -6 15zM742 710h17c11 0 14 -4 7 -13l-504 -685
c-5 -8 -14 -12 -26 -12h-15c-11 0 -13 4 -6 13l504 685c5 8 13 12 23 12zM597 294c33 74 90 111 169 111c39 0 67 -11 86 -32c18 -21 24 -48 19 -82c-7 -42 -29 -71 -66 -88c38 -19 53 -52 44 -100c-12 -74 -63 -111 -154 -111c-81 0 -125 36 -133 108c-1 9 2 14 9 17l13 4
c7 3 12 0 14 -9c3 -31 12 -52 27 -65c16 -14 41 -21 75 -21c65 0 103 27 113 81c3 22 0 40 -9 55c-11 15 -27 23 -48 23h-71c-7 0 -11 4 -10 11l2 11c1 8 6 12 15 12h67c42 0 67 24 76 71c5 24 1 44 -12 59s-34 22 -61 22c-61 0 -105 -29 -132 -87c-5 -9 -11 -12 -20 -9
l-9 4c-7 3 -8 8 -4 15z" />
    <glyph glyph-name="onequarter" unicode="&#xbc;" horiz-adv-x="821" 
d="M272 718h6c9 0 13 -4 11 -12l-65 -372c-2 -8 -7 -12 -15 -12h-12c-9 0 -12 4 -10 12l60 337l-139 -70c-9 -4 -14 -3 -17 4l-3 10c-3 7 -1 13 8 17l159 82c5 3 10 4 17 4zM684 710h18c11 0 13 -4 6 -13l-504 -685c-5 -8 -14 -12 -26 -12h-15c-11 0 -13 4 -6 13l504 685
c5 8 13 12 23 12zM698 144h50c8 0 11 -3 9 -10l-1 -11c-1 -7 -6 -11 -13 -11h-51l-17 -101c-1 -7 -6 -11 -13 -11h-15c-7 0 -9 4 -8 11l17 101h-200c-7 0 -11 4 -10 11l2 9c2 8 4 13 6 15l241 242c5 5 12 8 19 8h17c7 0 10 -4 9 -13zM698 349l-204 -205h168z" />
    <glyph glyph-name="threequarters" unicode="&#xbe;" horiz-adv-x="873" 
d="M99 616c33 73 90 110 169 110c39 0 67 -11 86 -32c18 -21 24 -48 19 -82c-7 -41 -28 -70 -65 -87c37 -20 51 -53 43 -100c-12 -74 -63 -111 -154 -111c-79 0 -124 36 -133 108c-1 9 2 14 9 16l13 5c9 2 13 -1 14 -9c3 -31 13 -52 28 -65c15 -14 40 -21 74 -21
c65 0 103 27 113 81c4 21 1 39 -9 54c-11 15 -27 23 -48 23h-71c-7 0 -11 4 -10 12l3 10c1 8 6 12 14 12h68c42 0 67 24 76 72c4 25 0 44 -13 58c-13 15 -34 22 -61 22c-61 0 -105 -29 -132 -86c-4 -9 -10 -12 -19 -9l-10 3c-7 3 -8 8 -4 16zM739 710h18c11 0 13 -4 6 -13
l-503 -685c-7 -8 -16 -12 -27 -12h-15c-11 0 -13 4 -6 13l504 685c5 8 13 12 23 12zM751 144h50c7 0 11 -4 10 -11l-2 -10c-1 -8 -6 -12 -13 -12h-51l-17 -100c-1 -7 -6 -11 -13 -11h-15c-7 0 -9 4 -8 11l17 100h-200c-7 0 -11 4 -10 12l2 9c2 7 4 12 6 14l241 243
c5 5 11 7 19 7h17c7 0 10 -4 9 -12zM751 349l-204 -205h168z" />
    <glyph glyph-name="oneeighth" unicode="&#x215b;" horiz-adv-x="896" 
d="M272 718h6c9 0 13 -4 11 -12l-65 -372c-2 -8 -7 -12 -15 -12h-12c-9 0 -12 4 -10 12l60 337l-139 -70c-9 -4 -14 -3 -17 4l-3 10c-3 7 -1 13 8 17l159 82c5 3 10 4 17 4zM683 710h17c11 0 14 -4 7 -13l-504 -685c-5 -8 -14 -12 -26 -12h-15c-11 0 -13 4 -6 13l504 685
c5 8 13 12 23 12zM566 298c12 71 64 107 157 107c42 0 74 -10 96 -30c21 -19 29 -45 24 -76c-9 -47 -40 -80 -93 -98c56 -16 80 -48 71 -95c-13 -76 -70 -114 -170 -114c-48 0 -83 10 -106 29s-32 45 -26 79c9 47 43 81 103 102c-46 15 -65 47 -56 96zM805 299
c9 50 -20 75 -87 75c-69 0 -107 -26 -115 -79c-4 -24 2 -42 17 -54c15 -11 44 -20 88 -27c57 12 89 40 97 85zM782 106c4 24 -3 42 -20 53s-49 20 -96 27c-65 -15 -100 -44 -107 -86c-11 -51 22 -77 98 -77c73 0 115 28 125 83z" />
    <glyph glyph-name="threeeighths" unicode="&#x215c;" horiz-adv-x="935" 
d="M96 616c34 73 91 110 170 110c39 0 67 -11 86 -32c17 -21 23 -48 18 -82c-7 -41 -28 -70 -65 -87c37 -19 51 -53 44 -100c-13 -74 -65 -111 -155 -111c-79 0 -124 36 -133 108c-1 9 2 14 9 16l13 5c9 2 14 -1 15 -9c3 -31 12 -52 27 -65c15 -14 40 -21 74 -21
c67 0 104 27 113 81c4 21 1 39 -9 54c-11 15 -27 23 -48 23h-71c-7 0 -10 4 -9 12l2 10c1 8 6 12 14 12h68c42 0 67 24 76 72c4 25 0 44 -13 58c-13 15 -34 22 -61 22c-61 0 -105 -29 -132 -86c-4 -9 -10 -12 -19 -9l-9 3c-7 3 -9 9 -5 16zM732 710h17c11 0 14 -4 7 -13
l-504 -685c-5 -8 -14 -12 -26 -12h-15c-11 0 -13 4 -6 13l504 685c5 8 13 12 23 12zM609 298c12 71 64 107 157 107c43 0 75 -10 96 -30c21 -19 29 -45 24 -76c-9 -47 -40 -80 -93 -98c56 -16 80 -48 71 -95c-13 -76 -70 -114 -170 -114c-47 0 -83 10 -106 29s-31 45 -26 79
c9 47 43 81 103 102c-46 16 -65 48 -56 96zM848 299c9 50 -20 75 -87 75c-69 0 -107 -26 -115 -79c-4 -24 2 -42 17 -54c15 -11 44 -20 88 -27c57 13 90 41 97 85zM825 106c4 24 -3 42 -20 53s-49 20 -96 27c-65 -15 -100 -44 -107 -86c-9 -51 23 -77 98 -77
c73 0 115 28 125 83z" />
    <glyph glyph-name="fiveeighths" unicode="&#x215d;" horiz-adv-x="917" 
d="M155 718h212c7 0 9 -3 7 -10l-2 -14c-1 -7 -4 -10 -11 -10h-193l-34 -124h87c95 0 135 -41 120 -122c-13 -83 -66 -125 -157 -125c-79 0 -122 36 -129 108c-1 9 2 14 9 16l12 4c8 2 13 0 15 -7c3 -58 35 -87 96 -87c69 0 108 31 118 93c11 59 -19 88 -90 88h-113
c-8 0 -11 4 -8 13l45 164c3 9 8 13 16 13zM712 710h17c10 0 12 -4 7 -13l-504 -685c-7 -8 -15 -12 -26 -12h-16c-11 0 -13 4 -6 13l504 685c7 8 15 12 24 12zM591 298c12 71 64 107 157 107c42 0 74 -10 96 -30c21 -19 29 -45 24 -76c-9 -47 -40 -80 -93 -98
c56 -16 80 -48 71 -95c-13 -76 -70 -114 -170 -114c-48 0 -83 10 -106 29s-32 45 -26 79c8 47 42 81 103 102c-47 16 -65 48 -56 96zM830 299c8 50 -21 75 -87 75c-69 0 -107 -26 -115 -79c-5 -24 1 -42 16 -54c15 -11 45 -20 89 -27c57 13 89 41 97 85zM806 106
c5 24 -2 42 -19 53s-49 20 -96 27c-65 -15 -101 -44 -108 -86c-9 -51 24 -77 99 -77c74 0 115 28 124 83z" />
    <glyph glyph-name="seveneighths" unicode="&#x215e;" horiz-adv-x="894" 
d="M112 718h251c7 0 10 -3 9 -9l-2 -9c0 -4 -2 -9 -5 -14l-216 -357c-3 -5 -9 -7 -17 -7h-15c-8 0 -10 4 -5 12l212 349h-218c-6 0 -9 3 -8 10l2 15c2 7 6 10 12 10zM657 710h18c11 0 13 -4 6 -13l-504 -685c-5 -8 -14 -12 -26 -12h-15c-11 0 -13 4 -6 13l504 685
c5 8 13 12 23 12zM562 298c12 71 64 107 157 107c42 0 74 -10 96 -30c21 -19 29 -45 24 -76c-9 -47 -40 -80 -93 -98c56 -16 80 -48 71 -95c-13 -76 -70 -114 -170 -114c-48 0 -83 10 -106 29s-32 45 -26 79c9 47 43 81 103 102c-46 15 -65 47 -56 96zM801 299
c4 23 -1 41 -16 54c-15 14 -39 21 -71 21c-69 0 -107 -26 -115 -79c-4 -24 2 -42 17 -54c15 -11 44 -20 88 -27c57 12 89 40 97 85zM778 106c4 24 -3 42 -20 53s-49 20 -96 27c-65 -15 -100 -44 -107 -86c-11 -51 22 -77 98 -77c73 0 115 28 125 83z" />
    <glyph glyph-name="uni2080" unicode="&#x2080;" horiz-adv-x="369" 
d="M-10 10l25 146c15 87 70 130 166 130c44 0 77 -13 99 -38c21 -25 27 -58 20 -99l-25 -146c-16 -87 -71 -130 -165 -130c-45 0 -79 13 -100 38s-27 58 -20 99zM239 6l25 146c5 30 0 54 -16 71c-15 18 -40 27 -73 27c-71 0 -112 -33 -124 -98l-25 -146c-5 -30 0 -54 15 -71
c15 -18 40 -27 74 -27c71 0 112 33 124 98z" />
    <glyph glyph-name="uni2081" unicode="&#x2081;" horiz-adv-x="262" 
d="M178 278h7c9 0 13 -4 11 -13l-65 -371c-2 -9 -7 -13 -15 -13h-12c-9 0 -12 4 -10 13l59 336l-139 -69c-8 -4 -13 -3 -16 4l-4 10c-2 7 1 12 8 17l159 81c7 3 12 5 17 5z" />
    <glyph glyph-name="uni2082" unicode="&#x2082;" horiz-adv-x="346" 
d="M18 174c40 75 93 112 159 112c42 0 73 -12 93 -35c19 -22 25 -50 19 -84s-23 -61 -50 -80c-17 -11 -47 -23 -91 -38l-65 -22c-41 -13 -64 -40 -71 -79l-6 -32h224c8 0 11 -4 10 -12l-2 -12c-2 -7 -7 -11 -14 -11h-246c-9 0 -13 4 -12 13l8 43c11 59 43 99 98 118l66 23
c40 15 64 25 72 30c23 13 36 33 41 59c5 25 0 45 -13 60c-14 15 -36 23 -67 23c-50 0 -90 -29 -119 -87c-4 -7 -10 -10 -17 -9l-12 4c-9 2 -10 7 -5 16z" />
    <glyph glyph-name="uni2083" unicode="&#x2083;" horiz-adv-x="358" 
d="M13 175c35 74 91 111 170 111c39 0 67 -11 86 -32c17 -21 23 -48 18 -82c-7 -42 -28 -71 -65 -88c37 -19 51 -52 44 -100c-13 -74 -65 -111 -155 -111c-79 0 -124 36 -133 108c-1 9 2 14 9 17l13 4c8 3 13 0 15 -9c3 -31 12 -52 27 -65c15 -14 40 -21 74 -21
c67 0 104 27 113 81c4 22 1 40 -9 55c-11 15 -27 23 -48 23h-71c-7 0 -10 4 -9 11l2 11c1 8 6 12 14 12h68c42 0 67 24 76 71c4 25 0 44 -13 59s-34 22 -61 22c-61 0 -105 -29 -132 -87c-4 -9 -10 -12 -19 -9l-9 4c-7 3 -9 8 -5 15z" />
    <glyph glyph-name="uni2084" unicode="&#x2084;" horiz-adv-x="351" 
d="M217 25h51c8 0 11 -3 9 -10l-2 -11c-1 -7 -5 -11 -13 -11h-50l-18 -101c-1 -7 -6 -11 -13 -11h-15c-7 0 -9 4 -8 11l18 101h-201c-7 0 -10 4 -9 11l1 9c2 7 4 12 7 15l240 242c5 5 12 8 20 8h16c8 0 11 -4 10 -13zM218 230l-205 -205h168z" />
    <glyph glyph-name="uni2085" unicode="&#x2085;" horiz-adv-x="347" 
d="M75 278h212c7 0 9 -3 7 -10l-2 -14c-1 -7 -4 -10 -11 -10h-193l-34 -124h86c47 0 81 -11 102 -34c19 -21 26 -51 19 -89c-15 -83 -67 -124 -157 -124c-79 0 -122 36 -129 107c-2 9 1 14 8 17l13 4c8 3 13 0 15 -8c3 -57 35 -86 96 -86c67 0 107 31 118 92
c9 59 -21 88 -90 88h-113c-8 0 -11 4 -9 13l45 165c3 9 8 13 17 13z" />
    <glyph glyph-name="uni2086" unicode="&#x2086;" horiz-adv-x="368" 
d="M47 134l-8 -46c44 17 87 25 129 25c89 0 126 -40 112 -120c-15 -80 -72 -120 -171 -120c-96 0 -135 52 -117 156l19 108c17 99 75 149 174 149c66 0 106 -25 120 -76c3 -5 1 -9 -6 -12l-15 -6c-7 -3 -12 -2 -13 3c-12 37 -43 56 -92 56c-75 0 -119 -39 -132 -117zM32 51
l-4 -27c-13 -77 16 -116 87 -116c75 0 117 29 128 87c10 56 -19 84 -86 84c-43 0 -84 -9 -125 -28z" />
    <glyph glyph-name="uni2087" unicode="&#x2087;" horiz-adv-x="302" 
d="M22 278h250c7 0 10 -3 9 -10l-2 -9c0 -3 -2 -8 -5 -13l-215 -357c-4 -5 -10 -8 -18 -8h-15c-9 0 -10 4 -5 13l212 349h-217c-7 0 -10 3 -9 9l3 15c1 7 5 11 12 11z" />
    <glyph glyph-name="uni2088" unicode="&#x2088;" horiz-adv-x="370" 
d="M24 179c12 71 64 107 157 107c43 0 75 -10 96 -30c21 -19 29 -45 24 -76c-9 -47 -40 -80 -93 -98c56 -16 80 -48 71 -95c-13 -76 -70 -114 -170 -114c-47 0 -83 10 -106 29s-31 45 -26 79c9 47 43 81 103 102c-46 16 -65 48 -56 96zM263 180c9 50 -20 75 -87 75
c-69 0 -107 -26 -115 -79c-4 -24 2 -42 17 -54c15 -11 44 -20 88 -27c57 13 90 41 97 85zM240 -13c4 24 -3 42 -20 53s-49 20 -96 27c-65 -15 -100 -44 -107 -86c-9 -51 23 -77 98 -77c73 0 115 28 125 83z" />
    <glyph glyph-name="uni2089" unicode="&#x2089;" horiz-adv-x="367" 
d="M241 25l8 47c-49 -18 -92 -27 -129 -27c-88 0 -125 41 -112 123c14 79 71 118 171 118c96 0 135 -52 117 -157l-19 -107c-17 -99 -76 -149 -175 -149c-66 0 -106 25 -120 75c-3 5 0 9 7 12l15 8c7 3 11 1 13 -4c11 -37 41 -56 91 -56c74 0 118 39 133 117zM255 108l5 27
c13 77 -16 116 -87 116c-75 0 -118 -29 -128 -87c-9 -56 19 -84 86 -84c45 0 87 9 124 28z" />
    <glyph glyph-name="uni2070" unicode="&#x2070;" horiz-adv-x="369" 
d="M84 543l25 145c15 87 70 130 166 130c45 0 78 -13 99 -38c21 -24 27 -57 20 -98l-25 -146c-16 -87 -71 -130 -165 -130c-45 0 -79 13 -100 38s-27 58 -20 99zM333 539l25 145c5 30 0 54 -15 72s-40 27 -73 27c-71 0 -113 -33 -124 -99l-26 -145c-5 -31 0 -54 15 -71
c16 -18 41 -27 75 -27c70 0 111 33 123 98z" />
    <glyph glyph-name="uni00B9" unicode="&#xb9;" horiz-adv-x="262" 
d="M273 810h6c9 0 13 -4 12 -12l-66 -372c-2 -8 -7 -12 -15 -12h-11c-8 0 -12 4 -11 12l60 337l-139 -70c-7 -4 -13 -3 -17 4l-3 11c-3 7 0 12 8 16l159 82c5 3 11 4 17 4z" />
    <glyph glyph-name="uni00B2" unicode="&#xb2;" horiz-adv-x="346" 
d="M111 707c21 34 34 54 40 60c32 34 72 51 120 51c42 0 73 -12 93 -35c19 -21 25 -49 19 -84s-23 -61 -51 -79c-17 -12 -47 -25 -90 -38l-65 -22c-41 -14 -64 -40 -71 -79l-7 -33h224c8 0 12 -4 11 -11l-3 -12c-1 -7 -5 -11 -14 -11h-246c-9 0 -13 4 -11 13l8 43
c11 59 43 99 98 118l65 23c40 14 64 24 73 30c23 13 36 33 41 59c4 25 0 45 -13 60c-14 15 -36 23 -67 23c-37 0 -68 -14 -93 -42c-7 -9 -14 -19 -20 -30c-6 -12 -8 -17 -7 -15c-4 -7 -10 -10 -17 -9l-11 4c-9 2 -11 7 -6 16z" />
    <glyph glyph-name="uni00B3" unicode="&#xb3;" horiz-adv-x="358" 
d="M107 708c35 73 91 110 170 110c39 0 67 -11 86 -32c17 -21 23 -48 18 -82c-7 -41 -28 -70 -65 -87c37 -20 51 -54 44 -101c-13 -73 -65 -110 -155 -110c-79 0 -124 36 -133 108c-1 9 2 14 9 16l13 5c9 2 14 -1 15 -9c3 -31 12 -52 27 -65c15 -14 40 -21 74 -21
c67 0 104 27 113 81c4 21 1 39 -9 54c-11 15 -27 23 -48 23h-71c-7 0 -10 4 -9 12l2 10c1 8 6 12 14 12h68c42 0 67 24 76 71c4 25 0 44 -13 59s-34 22 -61 22c-61 0 -105 -29 -132 -86c-4 -9 -10 -12 -19 -9l-9 3c-7 3 -9 9 -5 16z" />
    <glyph glyph-name="uni2074" unicode="&#x2074;" horiz-adv-x="350" 
d="M311 558h51c7 0 10 -4 9 -11l-1 -10c-1 -8 -6 -12 -14 -12h-50l-18 -100c-1 -7 -6 -11 -13 -11h-15c-7 0 -9 4 -8 11l18 100h-201c-7 0 -10 4 -9 12l2 9c1 6 3 11 6 14l241 242c5 5 11 8 19 8h16c8 0 11 -4 10 -12zM312 763l-205 -205h169z" />
    <glyph glyph-name="uni2075" unicode="&#x2075;" horiz-adv-x="347" 
d="M167 810h212c7 0 9 -3 7 -9l-2 -15c-1 -6 -4 -9 -11 -9h-193l-34 -124h87c47 0 81 -11 102 -34c19 -22 25 -52 18 -89c-13 -83 -66 -124 -157 -124c-79 0 -122 36 -129 107c-1 9 2 15 9 17l12 3c8 3 13 1 15 -7c3 -57 35 -86 96 -86c69 0 109 31 118 92
c10 59 -20 88 -90 88h-113c-9 0 -11 4 -8 13l45 165c3 8 8 12 16 12z" />
    <glyph glyph-name="uni2076" unicode="&#x2076;" horiz-adv-x="368" 
d="M141 667l-8 -47c45 17 88 26 129 26c89 0 126 -40 112 -120c-15 -80 -72 -120 -171 -120c-96 0 -135 52 -117 156l19 108c17 99 75 148 174 148c65 0 105 -25 120 -75c3 -5 1 -9 -6 -12l-15 -7c-7 -3 -12 -1 -13 4c-12 37 -43 56 -92 56c-75 0 -119 -39 -132 -117z
M126 584l-4 -27c-14 -78 15 -117 87 -117c75 0 117 29 128 88c10 56 -19 84 -86 84c-35 0 -76 -9 -125 -28z" />
    <glyph glyph-name="uni2077" unicode="&#x2077;" horiz-adv-x="302" 
d="M116 810h250c7 0 10 -3 9 -9l-2 -9c0 -3 -2 -7 -5 -14l-215 -356c-4 -5 -10 -8 -18 -8h-15c-9 0 -10 4 -5 12l212 349h-217c-7 0 -10 3 -9 10l3 15c1 7 5 10 12 10z" />
    <glyph glyph-name="uni2078" unicode="&#x2078;" horiz-adv-x="370" 
d="M118 712c12 71 64 106 157 106c43 0 75 -10 96 -29s29 -45 24 -76c-9 -47 -40 -80 -93 -99c56 -15 80 -46 71 -95c-13 -75 -70 -113 -170 -113c-47 0 -83 9 -106 28s-31 45 -26 79c9 49 44 83 103 102c-45 17 -64 49 -56 97zM357 713c9 49 -20 74 -87 74
c-69 0 -107 -26 -115 -78c-4 -24 2 -42 17 -54s44 -21 88 -28c58 15 90 44 97 86zM334 519c4 24 -3 42 -20 54c-17 11 -49 20 -96 27c-65 -15 -100 -44 -107 -86c-9 -51 23 -77 98 -77c73 0 115 27 125 82z" />
    <glyph glyph-name="uni2079" unicode="&#x2079;" horiz-adv-x="368" 
d="M335 557l8 47c-47 -17 -90 -26 -129 -26c-88 0 -125 41 -112 122c14 79 71 118 171 118c96 0 135 -52 117 -156l-19 -108c-17 -99 -76 -148 -175 -148c-66 0 -106 25 -120 74c-3 5 0 10 7 13l15 7c7 3 11 2 13 -3c11 -38 41 -57 91 -57c74 0 118 39 133 117zM349 640
l5 27c14 78 -15 117 -87 117c-75 0 -118 -29 -128 -88c-10 -56 19 -84 86 -84c38 0 79 9 124 28z" />
    <glyph glyph-name="asterisk" unicode="*" horiz-adv-x="386" 
d="M249 673h15c6 0 8 -3 6 -8l-26 -114l115 40c5 2 9 0 11 -5l1 -14c1 -7 -1 -10 -8 -11l-116 -29l57 -90c3 -4 2 -8 -3 -12l-15 -9c-5 -3 -9 -2 -11 3l-46 96l-80 -96c-4 -6 -8 -7 -12 -3l-11 10c-5 3 -4 7 1 12l88 89l-103 30c-8 1 -10 5 -5 10l7 15c3 5 7 7 12 4l99 -40
l15 114c0 5 3 8 9 8z" />
    <glyph glyph-name="backslash" unicode="\" horiz-adv-x="390" 
d="M249 -49l-145 748c-1 7 2 11 10 11h20c9 0 14 -4 15 -11l145 -748c1 -7 -2 -11 -10 -11h-21c-7 0 -11 4 -14 11z" />
    <glyph glyph-name="middot" unicode="&#xb7;" horiz-adv-x="193" 
d="M93 297h5c17 0 25 -9 22 -27l-2 -6c-3 -18 -13 -27 -32 -27h-5c-19 0 -26 9 -22 27l1 6c3 18 14 27 33 27z" />
    <glyph glyph-name="bullet" unicode="&#x2022;" horiz-adv-x="274" 
d="M121 213c-14 0 -25 5 -32 15c-8 9 -11 21 -8 35c6 33 25 50 58 50c15 0 26 -5 33 -14s10 -21 7 -36c-5 -33 -24 -50 -58 -50z" />
    <glyph glyph-name="colon" unicode=":" horiz-adv-x="198" 
d="M111 399h5c17 0 25 -9 22 -27l-1 -6c-3 -18 -14 -27 -33 -27h-5c-19 0 -26 9 -22 27l1 6c3 18 14 27 33 27zM70 138h5c18 0 25 -9 22 -27l-1 -6c-3 -18 -14 -27 -33 -27h-5c-18 0 -25 9 -22 27l2 6c3 18 13 27 32 27z" />
    <glyph glyph-name="comma" unicode="," horiz-adv-x="158" 
d="M64 45l-73 -155c-3 -7 -8 -11 -15 -11h-9c-6 0 -9 3 -8 9l58 157c3 10 9 15 19 15h17c13 0 16 -5 11 -15z" />
    <glyph glyph-name="ellipsis" unicode="&#x2026;" horiz-adv-x="555" 
d="M41 55h5c18 0 25 -9 22 -27l-1 -6c-3 -18 -14 -27 -33 -27h-5c-18 0 -25 9 -22 27l2 6c3 18 13 27 32 27zM238 55h5c18 0 25 -9 22 -27l-1 -6c-3 -18 -14 -27 -33 -27h-5c-19 0 -26 9 -22 27l1 6c3 18 14 27 33 27zM434 55h5c18 0 25 -9 22 -27l-1 -6
c-3 -18 -14 -27 -33 -27h-5c-18 0 -25 9 -22 27l2 6c3 18 13 27 32 27z" />
    <glyph glyph-name="exclam" unicode="!" horiz-adv-x="189" 
d="M161 740h23c8 0 11 -4 9 -12l-105 -566c-2 -7 -7 -11 -14 -11h-11c-8 0 -11 4 -9 11l93 566c1 8 5 12 14 12zM50 55h5c17 0 25 -9 22 -27l-1 -6c-3 -18 -14 -27 -33 -27h-5c-17 0 -25 9 -22 27l1 6c3 18 14 27 33 27z" />
    <glyph glyph-name="exclamdown" unicode="&#xa1;" horiz-adv-x="178" 
d="M116 454h-5c-18 0 -25 9 -22 27l1 6c3 18 13 27 32 27h5c18 0 25 -9 22 -27v-6c-3 -18 -14 -27 -33 -27zM4 -231h-23c-7 0 -10 4 -9 12l106 566c2 8 7 12 14 12h11c8 0 11 -4 9 -12l-94 -566c-1 -8 -5 -12 -14 -12z" />
    <glyph glyph-name="numbersign" unicode="#" horiz-adv-x="669" 
d="M532 469h117c8 0 10 -4 7 -12l-8 -18c-4 -7 -10 -10 -18 -10h-117l-89 -187h117c9 0 11 -4 8 -12l-10 -18c-3 -7 -8 -10 -16 -10h-117l-90 -190c-5 -8 -11 -12 -18 -12h-20c-7 0 -9 4 -6 12l90 190h-175l-90 -190c-3 -8 -9 -12 -17 -12h-20c-9 0 -11 4 -6 12l90 190h-115
c-8 0 -10 4 -7 11l9 18c3 7 9 11 17 11h115l89 187h-116c-7 0 -9 4 -6 11l9 18c3 7 8 11 17 11h115l79 166c3 8 9 12 17 12h20c7 0 9 -4 6 -12l-79 -166h175l79 166c5 8 10 12 17 12h20c9 0 11 -4 6 -12zM295 429l-89 -187h175l89 187h-175z" />
    <glyph glyph-name="period" unicode="." horiz-adv-x="162" 
d="M41 55h5c18 0 25 -9 22 -27l-1 -6c-3 -18 -14 -27 -33 -27h-5c-18 0 -25 9 -22 27l2 6c3 18 13 27 32 27z" />
    <glyph glyph-name="question" unicode="?" horiz-adv-x="555" 
d="M81 576c61 109 152 164 275 164c72 0 127 -20 164 -61c35 -39 48 -87 37 -146c-11 -60 -35 -109 -73 -148c-21 -21 -58 -47 -110 -78c-76 -46 -119 -97 -130 -154c-2 -9 -7 -13 -14 -13h-15c-8 0 -12 4 -11 13c13 71 62 132 149 185c46 27 79 51 98 71
c31 33 51 74 60 124c9 48 0 87 -27 118c-29 32 -73 48 -132 48c-103 0 -181 -46 -233 -138c-5 -8 -11 -11 -17 -8l-16 7c-7 3 -9 9 -5 16zM205 55h5c18 0 25 -9 22 -27v-6c-3 -18 -14 -27 -33 -27h-5c-18 0 -25 9 -22 27l1 6c3 18 13 27 32 27z" />
    <glyph glyph-name="questiondown" unicode="&#xbf;" horiz-adv-x="549" 
d="M328 455h-5c-18 0 -25 9 -22 27l1 5c3 19 13 28 32 28h5c18 0 25 -9 22 -28v-5c-3 -18 -14 -27 -33 -27zM453 -66c-61 -109 -153 -164 -275 -164c-73 0 -127 20 -164 61c-35 39 -48 87 -38 146c11 59 35 108 74 147c20 21 57 47 110 79c76 46 119 97 130 154
c1 8 6 12 13 12h16c7 0 11 -4 10 -12c-12 -71 -62 -132 -149 -185c-47 -29 -79 -53 -97 -71c-32 -33 -52 -75 -61 -124c-9 -48 0 -87 27 -117c29 -33 73 -49 132 -49c103 0 181 46 233 138c6 9 12 11 18 8l16 -7c7 -3 8 -9 5 -16z" />
    <glyph glyph-name="quotedbl" unicode="&#x22;" horiz-adv-x="267" 
d="M176 699l-45 -205c-1 -7 -5 -10 -13 -10h-11c-7 0 -10 3 -9 10l37 205c1 7 5 11 12 11h19c8 0 11 -4 10 -11zM273 699l-45 -205c-1 -7 -6 -10 -13 -10h-12c-7 0 -9 3 -8 10l36 205c1 7 5 11 12 11h20c7 0 11 -4 10 -11z" />
    <glyph glyph-name="quotesingle" unicode="'" horiz-adv-x="170" 
d="M176 699l-45 -205c-1 -7 -5 -10 -13 -10h-11c-7 0 -10 3 -9 10l37 205c1 7 5 11 12 11h19c8 0 11 -4 10 -11z" />
    <glyph glyph-name="semicolon" unicode=";" horiz-adv-x="200" 
d="M118 482h5c17 0 25 -9 22 -28l-2 -5c-3 -19 -13 -28 -32 -28h-5c-19 0 -26 9 -22 28l1 5c3 19 14 28 33 28zM88 45l-82 -155c-3 -7 -9 -11 -16 -11h-8c-7 0 -9 3 -7 9l66 157c3 10 10 15 20 15h17c13 0 16 -5 10 -15z" />
    <glyph glyph-name="slash" unicode="/" horiz-adv-x="398" 
d="M430 699l-410 -748c-3 -7 -9 -11 -18 -11h-21c-7 0 -9 4 -6 11l410 748c4 7 10 11 18 11h21c8 0 10 -4 6 -11z" />
    <glyph glyph-name="underscore" unicode="_" horiz-adv-x="510" 
d="M-12 0h427c9 0 12 -4 10 -13l-3 -16c-1 -9 -5 -13 -14 -13h-427c-8 0 -12 4 -11 13l3 16c2 9 7 13 15 13z" />
    <glyph glyph-name="braceleft" unicode="{" horiz-adv-x="303" 
d="M334 856h45c8 0 11 -4 9 -12l-3 -16c-1 -8 -5 -12 -13 -12h-43c-55 0 -88 -29 -98 -88l-45 -255c-11 -63 -40 -102 -87 -119c41 -15 56 -55 45 -119l-45 -254c-10 -59 12 -88 67 -88h43c7 0 11 -4 10 -12l-3 -16c-2 -8 -7 -12 -14 -12h-44c-45 0 -75 10 -90 31
c-15 19 -19 51 -11 95l44 251c7 36 5 62 -6 77c-11 17 -33 25 -67 25h-10c-6 0 -9 4 -8 12l3 20c2 8 6 12 12 12h11c60 0 96 34 109 102l44 252c8 44 23 76 45 95c23 21 56 31 100 31z" />
    <glyph glyph-name="braceright" unicode="}" horiz-adv-x="303" 
d="M119 856h45c44 0 74 -10 89 -31c15 -19 18 -51 11 -95l-45 -252c-11 -68 13 -102 74 -102h10c7 0 10 -4 8 -12l-4 -20c0 -8 -4 -12 -12 -12h-10c-61 0 -98 -34 -109 -102l-44 -251c-8 -44 -23 -76 -45 -95c-23 -21 -56 -31 -101 -31h-44c-8 0 -11 4 -9 12l3 16
c1 8 5 12 14 12h43c55 0 87 29 97 88l45 254c11 64 40 104 86 120c-40 17 -55 56 -44 118l45 255c10 59 -12 88 -66 88h-44c-7 0 -11 4 -10 12l3 16c2 8 7 12 14 12z" />
    <glyph glyph-name="bracketleft" unicode="[" horiz-adv-x="254" 
d="M178 856h151c7 0 10 -4 9 -11l-2 -17c-1 -7 -6 -11 -13 -11h-121l-163 -923h121c7 0 10 -4 9 -12l-3 -17c-1 -7 -6 -11 -14 -11h-151c-7 0 -10 4 -9 12l173 978c1 8 6 12 13 12z" />
    <glyph glyph-name="bracketright" unicode="]" horiz-adv-x="254" 
d="M119 856h151c7 0 10 -4 9 -12l-172 -978c-1 -8 -6 -12 -14 -12h-151c-7 0 -10 4 -9 11l3 17c1 8 6 12 14 12h120l163 923h-120c-7 0 -11 4 -10 11l3 17c1 7 6 11 13 11z" />
    <glyph glyph-name="parenleft" unicode="(" horiz-adv-x="239" 
d="M25 99l91 512c19 107 79 181 179 223c7 4 12 2 14 -6l5 -18c1 -7 -2 -12 -9 -16c-83 -36 -131 -97 -146 -183l-92 -516c-15 -87 12 -148 83 -183c6 -5 7 -11 3 -16l-11 -14c-6 -7 -11 -9 -16 -6c-43 21 -73 48 -89 81c-18 36 -22 83 -12 142z" />
    <glyph glyph-name="parenright" unicode=")" horiz-adv-x="239" 
d="M103 814l12 14c5 7 10 9 16 6c85 -43 118 -117 100 -223l-91 -512c-19 -107 -78 -182 -177 -224c-7 -3 -12 -1 -15 6l-5 20c-3 6 0 11 9 15c83 36 131 97 146 183l92 517c8 49 5 87 -8 116c-13 27 -38 49 -75 67c-7 4 -8 9 -4 15z" />
    <glyph glyph-name="emdash" unicode="&#x2014;" horiz-adv-x="778" 
d="M73 288h626c8 0 12 -4 11 -12l-4 -17c-1 -8 -5 -12 -14 -12h-627c-8 0 -12 4 -11 12l4 17c1 8 6 12 15 12z" />
    <glyph glyph-name="endash" unicode="&#x2013;" horiz-adv-x="579" 
d="M73 288h427c9 0 12 -4 10 -12l-3 -17c-2 -8 -7 -12 -14 -12h-427c-9 0 -13 4 -11 12l3 17c2 8 7 12 15 12z" />
    <glyph glyph-name="hyphen" unicode="-" horiz-adv-x="426" 
d="M74 286h273c9 0 12 -4 10 -12l-3 -17c-1 -8 -5 -12 -14 -12h-273c-8 0 -12 4 -11 12l3 17c2 8 7 12 15 12z" />
    <glyph glyph-name="guillemotleft" unicode="&#xab;" horiz-adv-x="551" 
d="M82 260l151 -183c5 -6 5 -11 -2 -16l-13 -10c-7 -4 -13 -4 -16 0l-169 204c-3 5 -2 10 3 15l241 206c7 5 12 5 15 0l10 -15c4 -6 3 -11 -3 -16zM307 260l151 -183c5 -6 4 -11 -3 -16l-13 -10c-7 -4 -13 -4 -16 0l-168 204c-4 5 -3 10 3 15l241 206c6 5 11 5 15 0l10 -15
c4 -6 3 -11 -4 -16z" />
    <glyph glyph-name="guillemotright" unicode="&#xbb;" horiz-adv-x="554" 
d="M230 265l-152 185c-3 5 -2 10 4 15l14 12c7 5 12 5 15 0l170 -207c3 -5 2 -10 -3 -15l-239 -203c-7 -5 -13 -5 -16 0l-12 14c-4 5 -3 10 3 15zM455 265l-152 185c-5 5 -3 10 4 15l14 11c7 5 12 5 16 0l169 -206c3 -5 2 -10 -3 -15l-239 -203c-6 -5 -11 -5 -16 0l-12 14
c-5 5 -4 10 3 15z" />
    <glyph glyph-name="guilsinglleft" unicode="&#x2039;" horiz-adv-x="328" 
d="M83 262l151 -184c5 -5 4 -10 -3 -15l-13 -12c-6 -5 -11 -5 -16 0l-168 204c-4 5 -3 10 2 15l240 205c6 5 11 5 16 0l11 -13c5 -5 3 -10 -4 -15z" />
    <glyph glyph-name="guilsinglright" unicode="&#x203a;" horiz-adv-x="330" 
d="M232 267l-152 185c-3 5 -2 10 4 15l14 10c7 5 12 5 15 0l170 -207c3 -5 2 -10 -3 -15l-239 -204c-7 -5 -13 -5 -16 0l-13 17c-5 5 -4 10 3 15z" />
    <glyph glyph-name="quotedblbase" unicode="&#x201e;" horiz-adv-x="264" 
d="M65 45l-73 -155c-3 -7 -8 -11 -15 -11h-9c-6 0 -9 3 -8 9l58 157c3 10 9 15 19 15h16c13 0 17 -5 12 -15zM170 45l-74 -155c-2 -7 -7 -11 -14 -11h-9c-6 0 -9 3 -8 9l58 157c3 10 9 15 18 15h17c13 0 17 -5 12 -15z" />
    <glyph glyph-name="quotedblleft" unicode="&#x201c;" horiz-adv-x="290" 
d="M98 544l74 154c3 8 8 12 15 12h9c6 0 9 -3 8 -9l-58 -157c-3 -10 -9 -15 -19 -15h-17c-12 0 -16 5 -12 15zM203 544l74 154c3 8 7 12 14 12h9c7 0 10 -3 9 -9l-58 -157c-3 -10 -9 -15 -19 -15h-17c-12 0 -16 5 -12 15z" />
    <glyph glyph-name="quotedblright" unicode="&#x201d;" horiz-adv-x="287" 
d="M205 695l-73 -154c-3 -8 -8 -12 -15 -12h-9c-6 0 -9 3 -8 9l58 157c3 10 9 15 19 15h16c13 0 17 -5 12 -15zM310 695l-73 -154c-3 -8 -8 -12 -15 -12h-9c-6 0 -9 3 -8 9l58 157c3 10 9 15 19 15h16c13 0 17 -5 12 -15z" />
    <glyph glyph-name="quoteleft" unicode="&#x2018;" horiz-adv-x="185" 
d="M98 544l74 154c3 8 8 12 15 12h9c6 0 9 -3 8 -9l-58 -157c-3 -10 -9 -15 -19 -15h-17c-12 0 -16 5 -12 15z" />
    <glyph glyph-name="quoteright" unicode="&#x2019;" horiz-adv-x="182" 
d="M205 695l-73 -154c-3 -8 -8 -12 -15 -12h-9c-6 0 -9 3 -8 9l58 157c3 10 9 15 19 15h16c13 0 17 -5 12 -15z" />
    <glyph glyph-name="quotesinglbase" unicode="&#x201a;" horiz-adv-x="150" 
d="M69 98l-46 -202c-1 -8 -5 -12 -13 -12h-11c-8 0 -12 4 -11 12l38 202c2 8 6 12 13 12h20c9 0 12 -4 10 -12z" />
    <glyph glyph-name="CR" horiz-adv-x="322" 
 />
    <glyph glyph-name="null" horiz-adv-x="142" 
 />
    <glyph glyph-name="Euro" unicode="&#x20ac;" horiz-adv-x="723" 
d="M174 443l8 44c14 76 48 134 101 175c54 42 124 63 211 63c119 0 191 -41 217 -124c5 -9 2 -16 -8 -20l-14 -5c-10 -4 -16 -2 -19 6c-21 67 -83 100 -184 100c-71 0 -129 -18 -174 -53c-44 -34 -71 -82 -82 -143l-8 -43h338c9 0 11 -4 7 -11l-7 -14c-3 -7 -9 -11 -17 -11
h-328l-21 -114h296c9 0 11 -4 6 -11l-6 -14c-5 -7 -11 -11 -18 -11h-283l-6 -33c-11 -61 0 -109 33 -144s84 -52 155 -52c105 0 180 36 224 109c7 9 14 11 22 6l14 -7c9 -5 9 -12 2 -21c-54 -87 -144 -130 -270 -130c-85 0 -148 21 -187 63c-40 42 -53 101 -40 176l6 33
h-108c-8 0 -10 4 -7 12l6 13c5 7 11 11 18 11h98l20 114h-71c-9 0 -11 4 -8 12l7 13c4 7 9 11 16 11h61z" />
    <glyph glyph-name="uni20BD" unicode="&#x20bd;" horiz-adv-x="639" 
d="M128 185h367c7 0 11 -4 10 -13l-2 -11c-2 -8 -7 -12 -15 -12h-367l-24 -136c-2 -9 -7 -13 -15 -13h-21c-9 0 -12 4 -10 13l24 136h-53c-9 0 -12 4 -10 12l3 11c0 9 5 13 14 13h52l91 512c1 9 5 13 14 13h271c67 0 117 -19 149 -57c33 -39 43 -91 32 -156
s-40 -115 -85 -150c-45 -34 -101 -51 -169 -51h-237zM155 339h233c54 0 99 14 135 43c37 29 59 69 68 120c9 52 1 93 -25 122s-66 43 -120 43h-234z" />
    <glyph glyph-name="cent" unicode="&#xa2;" horiz-adv-x="530" 
d="M427 152l17 -6c7 -3 8 -8 4 -16c-42 -89 -113 -137 -214 -143l-11 -59c-2 -8 -7 -12 -14 -12h-20c-8 0 -11 4 -9 12l10 59c-61 3 -104 22 -131 59c-26 35 -34 81 -24 139l27 153c22 118 96 180 223 187l13 73c1 8 5 12 14 12h20c7 0 11 -4 10 -12l-14 -73
c97 -5 151 -50 161 -136c1 -8 -2 -13 -9 -16l-17 -6c-8 -3 -13 0 -15 8c-5 39 -19 68 -40 85c-23 19 -59 28 -108 28c-113 0 -178 -51 -195 -153l-28 -156c-9 -48 -1 -86 23 -113c25 -27 64 -41 118 -41c91 0 155 40 192 119c3 8 9 11 17 8z" />
    <glyph glyph-name="currency" unicode="&#xa4;" horiz-adv-x="594" 
d="M143 566l46 -55c48 35 99 52 152 52s98 -17 134 -52l66 56c7 6 12 6 17 0l11 -13c5 -5 5 -11 -2 -17l-67 -56c30 -41 40 -90 30 -145c-9 -53 -34 -101 -76 -143l46 -55c5 -5 4 -11 -3 -17l-16 -14c-6 -6 -11 -6 -16 0l-46 56c-49 -36 -100 -54 -153 -54
c-55 0 -100 18 -135 53l-67 -57c-6 -6 -11 -6 -16 0l-11 14c-5 5 -5 11 2 16l68 58c-30 40 -40 88 -31 143c10 55 36 103 77 144l-46 56c-5 5 -4 11 3 16l16 14c6 5 12 5 17 0zM489 337c9 52 -1 96 -30 132c-30 35 -71 53 -123 53s-99 -18 -141 -53
c-43 -36 -69 -80 -78 -132c-9 -51 1 -95 31 -132s71 -55 123 -55s99 18 141 55c42 36 68 80 77 132z" />
    <glyph glyph-name="dollar" unicode="$" horiz-adv-x="591" 
d="M369 788h19c7 0 11 -4 10 -12l-13 -70c55 -4 97 -20 128 -47c25 -23 46 -58 63 -105c2 -9 -1 -15 -10 -18l-18 -6c-8 -4 -13 -2 -16 5c-16 44 -36 75 -59 94c-29 23 -70 34 -124 34c-120 0 -189 -51 -206 -152c-9 -50 6 -85 43 -104c23 -12 67 -21 132 -28
c73 -8 125 -21 154 -40c45 -29 62 -78 50 -146c-21 -119 -107 -182 -260 -188l-13 -71c-1 -8 -5 -12 -14 -12h-19c-7 0 -11 4 -10 12l13 71c-105 6 -170 64 -195 173c-2 9 2 16 11 19l19 6c9 3 15 0 16 -8c13 -50 31 -86 55 -109c29 -26 71 -39 127 -39
c132 0 207 50 225 150c9 53 -5 89 -42 109c-21 11 -66 21 -133 28c-73 8 -124 21 -154 40c-45 29 -61 76 -50 142c21 122 103 185 244 190l13 70c2 8 7 12 14 12z" />
    <glyph glyph-name="florin" unicode="&#x192;" horiz-adv-x="420" 
d="M195 378l33 164c25 132 100 198 225 198c7 0 11 -4 11 -12l-1 -17c-1 -7 -6 -11 -14 -11c-98 0 -157 -53 -178 -160l-31 -162h153c7 0 11 -4 10 -12l-1 -17c-1 -7 -5 -11 -13 -11h-157l-71 -359c-25 -133 -101 -199 -226 -199c-7 0 -11 4 -10 12l1 17c1 7 5 11 13 11
c98 0 158 54 179 162l70 356h-145c-8 0 -11 4 -10 11l1 17c1 8 5 12 13 12h148z" />
    </font>
</defs>
</svg>
