<?xml version="1.0" standalone="no"?>
<!DOCTYPE svg PUBLIC "-//W3C//DTD SVG 1.1//EN" "http://www.w3.org/Graphics/SVG/1.1/DTD/svg11.dtd" >
<svg xmlns="http://www.w3.org/2000/svg" xmlns:xlink="http://www.w3.org/1999/xlink" version="1.1">
<metadata>
Created by FontForge 20160407 at Fri Oct  7 14:17:46 2016
 By Jimmy Wärting
Copyright \(c\) 2012 by Fontfabric LLC. All rights reserved.
</metadata>
<defs>
<font id="iCielPanton-Black" horiz-adv-x="529" >
  <font-face 
    font-family="iCiel Panton"
    font-weight="900"
    font-stretch="normal"
    units-per-em="1000"
    panose-1="0 0 10 0 0 0 0 0 0 0"
    ascent="740"
    descent="-260"
    x-height="520"
    cap-height="710"
    bbox="-371 -260 1261 1114.15"
    underline-thickness="50"
    underline-position="-100"
    stemh="161"
    stemv="138"
    unicode-range="U+0020-FB02"
  />
<missing-glyph horiz-adv-x="686" 
d="M638 668v-626c0 -28 -14 -42 -43 -42h-499c-29 0 -43 14 -43 42v626c0 28 14 42 43 42h499c29 0 43 -14 43 -42zM251 535v-360h189v360h-189z" />
    <glyph glyph-name="uniFB01" unicode="fi" horiz-adv-x="619" 
d="M326 740h213c26 0 39 -13 39 -39v-73c0 -27 -13 -40 -39 -40h-200c-45 0 -68 -21 -68 -64v-4h268c26 0 39 -13 39 -38v-444c0 -25 -13 -38 -39 -38h-109c-26 0 -39 13 -39 38v330h-120v-330c0 -25 -13 -38 -39 -38h-108c-26 0 -39 13 -39 38v330h-32c-26 0 -39 13 -39 39
v75c0 25 13 38 39 38h32v3c0 145 80 217 241 217z" />
    <glyph glyph-name="uniFB02" unicode="fl" horiz-adv-x="618" 
d="M326 740h209c26 0 39 -13 39 -39v-663c0 -25 -13 -38 -38 -38h-110c-25 0 -38 13 -38 38v550h-49c-45 0 -68 -21 -68 -64v-4h40c25 0 38 -13 38 -38v-75c0 -26 -13 -39 -38 -39h-40v-330c0 -25 -13 -38 -39 -38h-108c-26 0 -39 13 -39 38v330h-32c-26 0 -39 13 -39 39v75
c0 25 13 38 39 38h32v4c0 144 80 216 241 216z" />
    <glyph glyph-name=".notdef" horiz-adv-x="686" 
d="M638 668v-626c0 -28 -14 -42 -43 -42h-499c-29 0 -43 14 -43 42v626c0 28 14 42 43 42h499c29 0 43 -14 43 -42zM251 535v-360h189v360h-189z" />
    <glyph glyph-name="nonmarkingreturn" unicode=" " horiz-adv-x="180" 
 />
    <glyph glyph-name="A" unicode="A" horiz-adv-x="688" 
d="M452 677l231 -636c10 -27 0 -41 -29 -41h-108c-43 0 -68 14 -75 42l-23 72h-216l-23 -72c-5 -16 -12 -27 -21 -33c-11 -6 -28 -9 -52 -9h-105c-28 0 -37 14 -27 41l230 634c8 23 25 35 52 35h114c26 0 43 -11 52 -33zM403 271l-37 117c-13 45 -21 92 -22 140h-10
c1 -48 -6 -94 -19 -139l-37 -118h125z" />
    <glyph glyph-name="Aacute" unicode="&#xc1;" horiz-adv-x="688" 
d="M212 833l141 81c28 16 50 15 66 -3l51 -58c17 -19 16 -33 -5 -40l-182 -56c-23 -7 -38 -5 -46 5l-27 33c-14 17 -13 29 2 38zM452 677l231 -636c10 -27 0 -41 -29 -41h-108c-43 0 -68 14 -75 42l-23 72h-216l-23 -72c-5 -16 -12 -27 -21 -33c-11 -6 -28 -9 -52 -9h-105
c-28 0 -37 14 -27 41l230 634c8 23 25 35 52 35h114c26 0 43 -11 52 -33zM403 271l-37 117c-13 45 -21 92 -22 140h-10c1 -48 -6 -94 -19 -139l-37 -118h125z" />
    <glyph glyph-name="Abreve" unicode="&#x102;" horiz-adv-x="688" 
d="M520 860c-27 -71 -86 -106 -177 -106c-90 0 -149 35 -176 106c-6 16 0 28 17 35l66 25c17 6 29 2 38 -12c12 -22 30 -33 55 -33c23 0 41 11 54 33c8 13 20 18 36 13l70 -26c18 -7 24 -18 17 -35zM452 677l231 -636c10 -27 0 -41 -29 -41h-108c-43 0 -68 14 -75 42l-23 72
h-216l-23 -72c-5 -16 -12 -27 -21 -33c-11 -6 -28 -9 -52 -9h-105c-28 0 -37 14 -27 41l230 634c8 23 25 35 52 35h114c26 0 43 -11 52 -33zM403 271l-37 117c-13 45 -21 92 -22 140h-10c1 -48 -6 -94 -19 -139l-37 -118h125z" />
    <glyph glyph-name="Acircumflex" unicode="&#xc2;" horiz-adv-x="688" 
d="M332 920h32c27 0 51 -10 71 -30l102 -102c9 -9 12 -16 11 -23c-2 -7 -11 -11 -26 -11h-84c-33 0 -55 7 -66 21l-29 36l-31 -35c-13 -15 -34 -22 -65 -22h-79c-15 0 -24 4 -25 11c-2 7 1 14 10 23l102 102c20 20 46 30 77 30zM452 677l231 -636c10 -27 0 -41 -29 -41h-108
c-43 0 -68 14 -75 42l-23 72h-216l-23 -72c-5 -16 -12 -27 -21 -33c-11 -6 -28 -9 -52 -9h-105c-28 0 -37 14 -27 41l230 634c8 23 25 35 52 35h114c26 0 43 -11 52 -33zM403 271l-37 117c-13 45 -21 92 -22 140h-10c1 -48 -6 -94 -19 -139l-37 -118h125z" />
    <glyph glyph-name="Adieresis" unicode="&#xc4;" horiz-adv-x="688" 
d="M231 914h8c28 0 47 -5 58 -15c11 -11 16 -29 16 -56v-13c0 -27 -5 -45 -16 -55c-11 -11 -30 -16 -58 -16h-8c-27 0 -46 5 -57 16c-10 10 -15 28 -15 55v13c0 27 5 46 15 56c11 10 30 15 57 15zM447 914h7c28 0 47 -5 58 -15c10 -10 15 -29 15 -56v-13
c0 -27 -5 -45 -15 -55c-11 -11 -30 -16 -58 -16h-7c-28 0 -47 5 -58 16c-11 10 -16 28 -16 55v13c0 27 5 45 16 56c11 10 30 15 58 15zM452 677l231 -636c10 -27 0 -41 -29 -41h-108c-43 0 -68 14 -75 42l-23 72h-216l-23 -72c-5 -16 -12 -27 -21 -33c-11 -6 -28 -9 -52 -9
h-105c-28 0 -37 14 -27 41l230 634c8 23 25 35 52 35h114c26 0 43 -11 52 -33zM403 271l-37 117c-13 45 -21 92 -22 140h-10c1 -48 -6 -94 -19 -139l-37 -118h125z" />
    <glyph glyph-name="Agrave" unicode="&#xc0;" horiz-adv-x="688" 
d="M219 854l51 60c15 18 37 19 66 3l141 -83c16 -9 17 -21 3 -38l-28 -34c-8 -10 -23 -11 -46 -4l-181 56c-20 7 -22 20 -6 40zM452 677l231 -636c10 -27 0 -41 -29 -41h-108c-43 0 -68 14 -75 42l-23 72h-216l-23 -72c-5 -16 -12 -27 -21 -33c-11 -6 -28 -9 -52 -9h-105
c-28 0 -37 14 -27 41l230 634c8 23 25 35 52 35h114c26 0 43 -11 52 -33zM403 271l-37 117c-13 45 -21 92 -22 140h-10c1 -48 -6 -94 -19 -139l-37 -118h125z" />
    <glyph glyph-name="Amacron" unicode="&#x100;" horiz-adv-x="688" 
d="M221 892h244c14 0 24 -2 29 -7s7 -14 7 -29v-42c0 -15 -2 -24 -7 -29s-15 -7 -29 -7h-244c-14 0 -23 2 -28 7s-8 14 -8 29v42c0 24 12 36 36 36zM452 677l231 -636c10 -27 0 -41 -29 -41h-108c-43 0 -68 14 -75 42l-23 72h-216l-23 -72c-5 -16 -12 -27 -21 -33
c-11 -6 -28 -9 -52 -9h-105c-28 0 -37 14 -27 41l230 634c8 23 25 35 52 35h114c26 0 43 -11 52 -33zM403 271l-37 117c-13 45 -21 92 -22 140h-10c1 -48 -6 -94 -19 -139l-37 -118h125z" />
    <glyph glyph-name="Aogonek" unicode="&#x104;" horiz-adv-x="688" 
d="M287 710h113c27 0 45 -11 52 -33l232 -637c5 -16 4 -28 -4 -35c-51 -46 -74 -86 -69 -121c2 -12 8 -18 18 -18c6 0 12 2 19 6c11 7 18 5 23 -6l21 -47c5 -13 3 -23 -6 -30c-30 -23 -67 -35 -111 -35c-63 0 -98 22 -107 67c-11 58 14 118 75 179c-25 1 -43 4 -52 10
c-9 5 -15 16 -20 32l-22 72h-217l-23 -72c-8 -28 -32 -42 -72 -42h-106c-28 0 -37 14 -27 41l231 634c8 23 25 35 52 35zM403 271l-36 117c-14 45 -22 92 -23 140h-9c0 -48 -7 -94 -20 -139l-37 -118h125z" />
    <glyph glyph-name="Aring" unicode="&#xc5;" horiz-adv-x="688" 
d="M199 761c0 41 14 74 41 98c27 23 62 34 105 34s77 -12 103 -36s39 -56 39 -96c0 -38 -12 -67 -37 -88l233 -632c10 -27 0 -41 -29 -41h-108c-43 0 -68 14 -75 42l-23 72h-216l-23 -72c-5 -16 -12 -27 -21 -33c-11 -6 -28 -9 -52 -9h-105c-28 0 -37 14 -27 41l233 631
c-25 22 -38 52 -38 89zM385 759c0 27 -13 41 -40 41c-30 0 -45 -14 -45 -41s15 -40 45 -40c27 0 40 13 40 40zM403 271l-36 117c-13 45 -21 91 -23 138h-10c0 -47 -7 -92 -20 -137l-36 -118h125z" />
    <glyph glyph-name="Aringacute" unicode="&#x1fa;" horiz-adv-x="687" 
d="M236 926l125 56c27 12 47 12 62 -1l46 -45c16 -15 14 -24 -5 -29l-169 -42c-22 -5 -37 -4 -44 3l-26 26c-13 13 -10 23 11 32zM199 721c0 41 14 73 42 97c26 23 61 34 104 34s77 -12 103 -35c27 -25 40 -57 40 -96c0 -31 -11 -56 -34 -75l229 -605c11 -27 2 -41 -29 -41
h-108c-43 0 -68 14 -75 42l-23 72h-216l-23 -72c-5 -16 -12 -27 -21 -33c-11 -6 -28 -9 -52 -9h-105c-29 0 -38 14 -27 41l230 605c-23 19 -35 44 -35 75zM385 723c0 27 -13 41 -39 41c-29 0 -44 -14 -44 -41s15 -41 44 -41c26 0 39 14 39 41zM403 271l-37 117
c-13 45 -21 92 -22 140h-10c1 -48 -6 -94 -19 -139l-37 -118h125z" />
    <glyph glyph-name="Atilde" unicode="&#xc3;" horiz-adv-x="688" 
d="M429 909h60c16 0 24 -8 24 -23c0 -82 -33 -123 -98 -123c-28 0 -55 7 -82 21s-44 21 -51 21c-10 0 -15 -7 -15 -22c0 -13 -6 -20 -19 -20h-61c-15 0 -23 8 -23 23c0 82 32 123 95 123c29 0 58 -7 85 -20c27 -14 44 -21 51 -21c10 0 15 7 15 22c0 13 6 19 19 19zM452 677
l231 -636c10 -27 0 -41 -29 -41h-108c-43 0 -68 14 -75 42l-23 72h-216l-23 -72c-5 -16 -12 -27 -21 -33c-11 -6 -28 -9 -52 -9h-105c-28 0 -37 14 -27 41l230 634c8 23 25 35 52 35h114c26 0 43 -11 52 -33zM403 271l-37 117c-13 45 -21 92 -22 140h-10
c1 -48 -6 -94 -19 -139l-37 -118h125z" />
    <glyph glyph-name="AE" unicode="&#xc6;" horiz-adv-x="905" 
d="M634 175h204c28 0 42 -14 42 -42v-91c0 -28 -14 -42 -42 -42h-345c-29 0 -43 14 -43 42v63h-200l-43 -68c-15 -25 -41 -37 -78 -37h-103c-33 0 -42 14 -27 41l414 634c15 23 32 35 52 35h365c28 0 42 -14 42 -42v-90c0 -29 -14 -43 -42 -43h-196v-89h143
c28 0 42 -14 42 -42v-90c0 -29 -14 -43 -42 -43h-143v-96zM450 419l-103 -163h103v163z" />
    <glyph glyph-name="AEacute" unicode="&#x1fc;" horiz-adv-x="905" 
d="M511 833l141 81c28 16 50 15 66 -3l51 -58c17 -19 15 -33 -6 -40l-181 -56c-23 -7 -39 -5 -46 5l-28 33c-13 17 -12 29 3 38zM634 175h204c28 0 42 -14 42 -42v-91c0 -28 -14 -42 -42 -42h-345c-29 0 -43 14 -43 42v63h-200l-43 -68c-15 -25 -41 -37 -78 -37h-103
c-33 0 -42 14 -27 41l414 634c15 23 32 35 52 35h365c28 0 42 -14 42 -42v-90c0 -29 -14 -43 -42 -43h-196v-89h143c28 0 42 -14 42 -42v-90c0 -29 -14 -43 -42 -43h-143v-96zM450 419l-103 -163h103v163z" />
    <glyph glyph-name="B" unicode="B" horiz-adv-x="658" 
d="M93 711h293c69 0 123 -16 162 -49s59 -80 59 -141c0 -65 -24 -114 -72 -147v-4c67 -29 101 -87 101 -172c0 -63 -23 -112 -70 -147c-45 -34 -103 -51 -176 -51h-297c-29 0 -43 14 -43 42v626c0 29 14 43 43 43zM406 494c0 37 -20 56 -61 56h-97v-110h97c41 0 61 18 61 54
zM428 221c0 39 -21 58 -64 58h-116v-117h116c43 0 64 20 64 59z" />
    <glyph glyph-name="C" unicode="C" horiz-adv-x="651" 
d="M33 265v180c0 87 27 156 80 205c54 50 130 75 228 75c151 0 248 -58 292 -175c9 -27 0 -45 -27 -54l-107 -38c-16 -5 -27 -5 -34 -1c-8 3 -15 13 -20 28c-17 43 -52 65 -104 65c-73 0 -110 -35 -110 -104v-182c0 -69 37 -104 110 -104c53 0 88 22 104 65
c6 16 13 26 20 29c8 4 19 3 34 -2l107 -38c27 -9 36 -27 27 -54c-44 -117 -141 -175 -292 -175c-98 0 -174 25 -228 75c-53 49 -80 118 -80 205z" />
    <glyph glyph-name="Cacute" unicode="&#x106;" horiz-adv-x="651" 
d="M212 833l141 81c28 16 50 15 66 -3l51 -58c16 -19 14 -33 -6 -40l-181 -56c-23 -7 -39 -5 -46 5l-28 33c-13 17 -12 29 3 38zM33 265v180c0 87 27 156 80 205c54 50 130 75 228 75c151 0 248 -58 292 -175c9 -27 0 -45 -27 -54l-107 -38c-16 -5 -27 -5 -34 -1
c-8 3 -15 13 -20 28c-17 43 -52 65 -104 65c-73 0 -110 -35 -110 -104v-182c0 -69 37 -104 110 -104c53 0 88 22 104 65c6 16 13 26 20 29c8 4 19 3 34 -2l107 -38c27 -9 36 -27 27 -54c-44 -117 -141 -175 -292 -175c-98 0 -174 25 -228 75c-53 49 -80 118 -80 205z" />
    <glyph glyph-name="Ccaron" unicode="&#x10c;" horiz-adv-x="651" 
d="M442 920h76c15 0 24 -4 25 -11s-3 -15 -12 -24l-100 -102c-19 -19 -44 -29 -75 -29h-27c-29 0 -54 10 -73 29l-101 102c-9 9 -13 17 -12 24s9 11 24 11h84c32 0 54 -7 65 -22l31 -34l29 34c13 15 35 22 66 22zM33 265v180c0 87 27 156 80 205c54 50 130 75 228 75
c151 0 248 -58 292 -175c9 -27 0 -45 -27 -54l-107 -38c-16 -5 -27 -5 -34 -1c-8 3 -15 13 -20 28c-17 43 -52 65 -104 65c-73 0 -110 -35 -110 -104v-182c0 -69 37 -104 110 -104c53 0 88 22 104 65c6 16 13 26 20 29c8 4 19 3 34 -2l107 -38c27 -9 36 -27 27 -54
c-44 -117 -141 -175 -292 -175c-98 0 -174 25 -228 75c-53 49 -80 118 -80 205z" />
    <glyph glyph-name="Ccedilla" unicode="&#xc7;" horiz-adv-x="651" 
d="M499 252l107 -38c27 -9 36 -27 27 -54c-39 -105 -122 -163 -248 -173l-13 -33h9c28 -1 50 -11 65 -30s21 -42 18 -69c-7 -67 -58 -100 -151 -100c-29 0 -53 4 -74 11c-18 7 -27 17 -27 31v42c0 22 10 27 31 16c20 -10 39 -15 56 -15c23 0 34 8 34 23c0 14 -14 21 -42 22
h-21c-18 0 -22 10 -13 30l32 73c-81 9 -144 37 -189 86s-67 112 -67 191v180c0 87 27 156 80 205c54 50 130 75 228 75c151 0 248 -58 292 -175c9 -27 0 -45 -27 -54l-107 -38c-16 -5 -27 -5 -34 -1c-8 3 -15 13 -20 28c-17 43 -52 65 -104 65c-73 0 -110 -35 -110 -104
v-182c0 -69 37 -104 110 -104c53 0 88 22 104 65c6 16 13 26 20 29c8 4 19 3 34 -2z" />
    <glyph glyph-name="Ccircumflex" unicode="&#x108;" horiz-adv-x="651" 
d="M331 920h32c27 0 51 -10 71 -30l103 -102c9 -9 12 -16 11 -23c-2 -7 -11 -11 -26 -11h-84c-33 0 -56 7 -67 21l-28 36l-32 -35c-12 -15 -34 -22 -65 -22h-78c-15 0 -24 4 -26 11s1 14 10 23l102 102c20 20 46 30 77 30zM33 265v180c0 87 27 156 80 205
c54 50 130 75 228 75c151 0 248 -58 292 -175c9 -27 0 -45 -27 -54l-107 -38c-16 -5 -27 -5 -34 -1c-8 3 -15 13 -20 28c-17 43 -52 65 -104 65c-73 0 -110 -35 -110 -104v-182c0 -69 37 -104 110 -104c53 0 88 22 104 65c6 16 13 26 20 29c8 4 19 3 34 -2l107 -38
c27 -9 36 -27 27 -54c-44 -117 -141 -175 -292 -175c-98 0 -174 25 -228 75c-53 49 -80 118 -80 205z" />
    <glyph glyph-name="Cdotaccent" unicode="&#x10a;" horiz-adv-x="651" 
d="M340 915h6c29 0 48 -5 59 -16c10 -10 15 -30 15 -59v-8c0 -29 -5 -49 -15 -59c-11 -11 -30 -16 -59 -16h-6c-29 0 -49 5 -60 16c-11 10 -16 30 -16 59v8c0 29 5 49 16 59c11 11 31 16 60 16zM33 265v180c0 87 27 156 80 205c54 50 130 75 228 75c151 0 248 -58 292 -175
c9 -27 0 -45 -27 -54l-107 -38c-16 -5 -27 -5 -34 -1c-8 3 -15 13 -20 28c-17 43 -52 65 -104 65c-73 0 -110 -35 -110 -104v-182c0 -69 37 -104 110 -104c53 0 88 22 104 65c6 16 13 26 20 29c8 4 19 3 34 -2l107 -38c27 -9 36 -27 27 -54c-44 -117 -141 -175 -292 -175
c-98 0 -174 25 -228 75c-53 49 -80 118 -80 205z" />
    <glyph glyph-name="D" unicode="D" horiz-adv-x="677" 
d="M93 710h244c97 0 173 -25 227 -75c53 -49 80 -118 80 -205v-150c0 -87 -27 -155 -80 -204c-54 -51 -130 -76 -227 -76h-244c-29 0 -43 14 -43 42v626c0 28 14 42 43 42zM446 283v144c0 72 -39 108 -116 108h-82v-360h82c77 0 116 36 116 108z" />
    <glyph glyph-name="Eth" unicode="&#xd0;" horiz-adv-x="706" 
d="M122 710h244c98 0 174 -25 228 -75c53 -49 80 -118 80 -205v-150c0 -87 -27 -155 -80 -204c-54 -51 -130 -76 -228 -76h-244c-28 0 -42 14 -42 42v254h-46c-17 0 -25 9 -25 26v76c0 17 8 26 25 26h46v244c0 28 14 42 42 42zM476 283v144c0 72 -39 108 -117 108h-81v-111
h82c16 0 24 -9 24 -26v-76c0 -17 -8 -26 -24 -26h-82v-121h81c78 0 117 36 117 108z" />
    <glyph glyph-name="Dcaron" unicode="&#x10e;" horiz-adv-x="677" 
d="M416 920h76c15 0 23 -4 24 -11s-2 -15 -11 -24l-101 -102c-19 -19 -44 -29 -74 -29h-28c-29 0 -54 10 -73 29l-101 102c-9 9 -13 17 -12 24s9 11 24 11h84c31 0 53 -7 66 -22l30 -34l30 34c13 15 35 22 66 22zM93 710h244c97 0 173 -25 227 -75c53 -49 80 -118 80 -205
v-150c0 -87 -27 -155 -80 -204c-54 -51 -130 -76 -227 -76h-244c-29 0 -43 14 -43 42v626c0 28 14 42 43 42zM446 283v144c0 72 -39 108 -116 108h-82v-360h82c77 0 116 36 116 108z" />
    <glyph glyph-name="Dcroat" unicode="&#x110;" horiz-adv-x="706" 
d="M122 710h244c98 0 174 -25 228 -75c53 -49 80 -118 80 -205v-150c0 -87 -27 -155 -80 -204c-54 -51 -130 -76 -228 -76h-244c-28 0 -42 14 -42 42v254h-46c-17 0 -25 9 -25 26v76c0 17 8 26 25 26h46v244c0 28 14 42 42 42zM476 283v144c0 72 -39 108 -117 108h-81v-111
h82c16 0 24 -9 24 -26v-76c0 -17 -8 -26 -24 -26h-82v-121h81c78 0 117 36 117 108z" />
    <glyph glyph-name="E" unicode="E" horiz-adv-x="588" 
d="M93 710h419c29 0 43 -14 43 -42v-90c0 -29 -14 -43 -43 -43h-264v-89h211c29 0 43 -14 43 -42v-90c0 -29 -14 -43 -43 -43h-211v-96h273c28 0 42 -14 42 -42v-91c0 -28 -14 -42 -42 -42h-428c-29 0 -43 14 -43 42v626c0 28 14 42 43 42z" />
    <glyph glyph-name="Eacute" unicode="&#xc9;" horiz-adv-x="588" 
d="M172 833l141 81c28 16 50 15 66 -3l51 -58c17 -19 15 -33 -6 -40l-181 -56c-23 -7 -39 -5 -46 5l-28 33c-13 17 -12 29 3 38zM93 710h419c29 0 43 -14 43 -42v-90c0 -29 -14 -43 -43 -43h-264v-89h211c29 0 43 -14 43 -42v-90c0 -29 -14 -43 -43 -43h-211v-96h273
c28 0 42 -14 42 -42v-91c0 -28 -14 -42 -42 -42h-428c-29 0 -43 14 -43 42v626c0 28 14 42 43 42z" />
    <glyph glyph-name="Ebreve" unicode="&#x114;" horiz-adv-x="588" 
d="M480 860c-27 -71 -86 -106 -177 -106s-150 35 -176 106c-6 16 0 28 17 35l66 25c17 6 29 2 38 -12c12 -22 30 -33 55 -33c23 0 41 11 54 33c8 13 20 18 36 13l70 -26c17 -7 23 -18 17 -35zM93 710h419c29 0 43 -14 43 -42v-90c0 -29 -14 -43 -43 -43h-264v-89h211
c29 0 43 -14 43 -42v-90c0 -29 -14 -43 -43 -43h-211v-96h273c28 0 42 -14 42 -42v-91c0 -28 -14 -42 -42 -42h-428c-29 0 -43 14 -43 42v626c0 28 14 42 43 42z" />
    <glyph glyph-name="Ecaron" unicode="&#x11a;" horiz-adv-x="588" 
d="M403 920h76c15 0 23 -4 24 -11s-3 -15 -12 -24l-100 -102c-19 -19 -44 -29 -75 -29h-27c-29 0 -54 10 -73 29l-101 102c-9 9 -13 17 -12 24s9 11 24 11h84c31 0 53 -7 66 -22l30 -34l30 34c13 15 35 22 66 22zM93 710h419c29 0 43 -14 43 -42v-90c0 -29 -14 -43 -43 -43
h-264v-89h211c29 0 43 -14 43 -42v-90c0 -29 -14 -43 -43 -43h-211v-96h273c28 0 42 -14 42 -42v-91c0 -28 -14 -42 -42 -42h-428c-29 0 -43 14 -43 42v626c0 28 14 42 43 42z" />
    <glyph glyph-name="Ecircumflex" unicode="&#xca;" horiz-adv-x="588" 
d="M291 920h32c27 0 51 -10 72 -30l102 -102c9 -9 12 -16 11 -23c-2 -7 -11 -11 -26 -11h-84c-34 0 -56 7 -66 21l-29 36l-31 -35c-13 -15 -35 -22 -66 -22h-78c-15 0 -24 4 -26 11c-1 7 2 14 11 23l102 102c19 20 45 30 76 30zM93 710h419c29 0 43 -14 43 -42v-90
c0 -29 -14 -43 -43 -43h-264v-89h211c29 0 43 -14 43 -42v-90c0 -29 -14 -43 -43 -43h-211v-96h273c28 0 42 -14 42 -42v-91c0 -28 -14 -42 -42 -42h-428c-29 0 -43 14 -43 42v626c0 28 14 42 43 42z" />
    <glyph glyph-name="Edieresis" unicode="&#xcb;" horiz-adv-x="588" 
d="M191 914h8c27 0 46 -5 57 -15c11 -11 16 -29 16 -56v-13c0 -27 -5 -45 -16 -55c-11 -11 -30 -16 -57 -16h-8c-27 0 -46 5 -57 16c-10 10 -15 28 -15 55v13c0 27 5 46 15 56c11 10 30 15 57 15zM407 914h7c27 0 46 -5 57 -15c10 -10 15 -29 15 -56v-13
c0 -27 -5 -45 -15 -55c-11 -11 -30 -16 -57 -16h-7c-28 0 -47 5 -58 16c-11 10 -16 28 -16 55v13c0 27 5 45 16 56c11 10 30 15 58 15zM93 710h419c29 0 43 -14 43 -42v-90c0 -29 -14 -43 -43 -43h-264v-89h211c29 0 43 -14 43 -42v-90c0 -29 -14 -43 -43 -43h-211v-96h273
c28 0 42 -14 42 -42v-91c0 -28 -14 -42 -42 -42h-428c-29 0 -43 14 -43 42v626c0 28 14 42 43 42z" />
    <glyph glyph-name="Edotaccent" unicode="&#x116;" horiz-adv-x="588" 
d="M300 915h6c29 0 48 -5 59 -16c10 -10 15 -30 15 -59v-8c0 -29 -5 -49 -15 -59c-11 -11 -30 -16 -59 -16h-6c-29 0 -48 5 -59 16s-16 30 -16 59v8c0 29 5 49 16 59c11 11 30 16 59 16zM93 710h419c29 0 43 -14 43 -42v-90c0 -29 -14 -43 -43 -43h-264v-89h211
c29 0 43 -14 43 -42v-90c0 -29 -14 -43 -43 -43h-211v-96h273c28 0 42 -14 42 -42v-91c0 -28 -14 -42 -42 -42h-428c-29 0 -43 14 -43 42v626c0 28 14 42 43 42z" />
    <glyph glyph-name="Egrave" unicode="&#xc8;" horiz-adv-x="588" 
d="M179 854l51 60c15 18 37 19 66 3l141 -83c16 -9 17 -21 2 -38l-27 -34c-9 -10 -24 -11 -46 -4l-182 56c-19 7 -21 20 -5 40zM93 710h419c29 0 43 -14 43 -42v-90c0 -29 -14 -43 -43 -43h-264v-89h211c29 0 43 -14 43 -42v-90c0 -29 -14 -43 -43 -43h-211v-96h273
c28 0 42 -14 42 -42v-91c0 -28 -14 -42 -42 -42h-428c-29 0 -43 14 -43 42v626c0 28 14 42 43 42z" />
    <glyph glyph-name="Emacron" unicode="&#x112;" horiz-adv-x="588" 
d="M181 892h243c15 0 24 -2 29 -7s8 -14 8 -29v-42c0 -15 -3 -24 -8 -29s-14 -7 -29 -7h-243c-15 0 -24 2 -29 7s-7 14 -7 29v42c0 24 12 36 36 36zM93 710h419c29 0 43 -14 43 -42v-90c0 -29 -14 -43 -43 -43h-264v-89h211c29 0 43 -14 43 -42v-90c0 -29 -14 -43 -43 -43
h-211v-96h273c28 0 42 -14 42 -42v-91c0 -28 -14 -42 -42 -42h-428c-29 0 -43 14 -43 42v626c0 28 14 42 43 42z" />
    <glyph glyph-name="Eogonek" unicode="&#x118;" horiz-adv-x="588" 
d="M93 710h419c29 0 43 -14 43 -42v-90c0 -29 -14 -43 -43 -43h-264v-89h211c29 0 43 -14 43 -42v-90c0 -29 -14 -43 -43 -43h-211v-96h273c28 0 42 -14 42 -42v-91c0 -15 -3 -26 -10 -33c-49 -58 -72 -99 -69 -124c1 -11 7 -17 18 -17c7 0 12 2 17 5c11 7 19 5 24 -6
l20 -47c5 -13 4 -23 -5 -30c-29 -23 -66 -34 -111 -34c-62 0 -98 22 -107 67c-12 59 14 118 77 177h-324c-29 0 -43 14 -43 42v626c0 28 14 42 43 42z" />
    <glyph glyph-name="F" unicode="F" horiz-adv-x="575" 
d="M93 710h419c29 0 43 -14 43 -42v-90c0 -29 -14 -43 -43 -43h-264v-116h211c29 0 43 -14 43 -42v-90c0 -29 -14 -43 -43 -43h-211v-202c0 -28 -14 -42 -42 -42h-113c-29 0 -43 14 -43 42v626c0 28 14 42 43 42z" />
    <glyph glyph-name="G" unicode="G" horiz-adv-x="677" 
d="M353 408h253c28 0 42 -14 42 -43v-132c0 -73 -27 -132 -80 -177c-55 -47 -131 -71 -227 -71c-98 0 -174 25 -228 75c-53 49 -80 118 -80 205v180c0 87 27 156 80 205c54 50 130 75 228 75c151 0 248 -58 292 -175c9 -27 0 -45 -27 -54l-107 -38c-15 -5 -27 -5 -34 -2
c-8 4 -15 14 -20 29c-17 43 -52 65 -104 65c-73 0 -110 -35 -110 -104v-182c0 -69 37 -104 110 -104c72 0 108 23 108 68v20h-96c-28 0 -42 14 -42 42v75c0 29 14 43 42 43z" />
    <glyph glyph-name="Gbreve" unicode="&#x11e;" horiz-adv-x="677" 
d="M518 870c-27 -71 -86 -106 -177 -106s-150 35 -176 106c-6 16 0 28 17 35l66 25c17 6 29 2 38 -12c12 -22 30 -33 55 -33c23 0 41 11 54 33c8 13 20 18 36 13l70 -26c17 -7 23 -18 17 -35zM353 408h253c28 0 42 -14 42 -43v-132c0 -73 -27 -132 -80 -177
c-55 -47 -131 -71 -227 -71c-98 0 -174 25 -228 75c-53 49 -80 118 -80 205v180c0 87 27 156 80 205c54 50 130 75 228 75c151 0 248 -58 292 -175c9 -27 0 -45 -27 -54l-107 -38c-15 -5 -27 -5 -34 -2c-8 4 -15 14 -20 29c-17 43 -52 65 -104 65c-73 0 -110 -35 -110 -104
v-182c0 -69 37 -104 110 -104c72 0 108 23 108 68v20h-96c-28 0 -42 14 -42 42v75c0 29 14 43 42 43z" />
    <glyph glyph-name="Gcircumflex" unicode="&#x11c;" horiz-adv-x="677" 
d="M329 930h32c27 0 51 -10 72 -30l102 -102c9 -9 12 -16 11 -23c-2 -7 -11 -11 -26 -11h-84c-34 0 -56 7 -66 21l-29 36l-31 -35c-13 -15 -35 -22 -66 -22h-78c-15 0 -24 4 -26 11c-1 7 2 14 11 23l102 102c19 20 45 30 76 30zM353 408h253c28 0 42 -14 42 -43v-132
c0 -73 -27 -132 -80 -177c-55 -47 -131 -71 -227 -71c-98 0 -174 25 -228 75c-53 49 -80 118 -80 205v180c0 87 27 156 80 205c54 50 130 75 228 75c151 0 248 -58 292 -175c9 -27 0 -45 -27 -54l-107 -38c-15 -5 -27 -5 -34 -2c-8 4 -15 14 -20 29c-17 43 -52 65 -104 65
c-73 0 -110 -35 -110 -104v-182c0 -69 37 -104 110 -104c72 0 108 23 108 68v20h-96c-28 0 -42 14 -42 42v75c0 29 14 43 42 43z" />
    <glyph glyph-name="uni0122" unicode="&#x122;" horiz-adv-x="677" 
d="M353 408h253c28 0 42 -14 42 -43v-132c0 -73 -27 -132 -80 -177c-55 -47 -131 -71 -227 -71c-98 0 -174 25 -228 75c-53 49 -80 118 -80 205v180c0 87 27 156 80 205c54 50 130 75 228 75c151 0 248 -58 292 -175c9 -27 0 -45 -27 -54l-107 -38c-15 -5 -27 -5 -34 -2
c-8 4 -15 14 -20 29c-17 43 -52 65 -104 65c-73 0 -110 -35 -110 -104v-182c0 -69 37 -104 110 -104c72 0 108 23 108 68v20h-96c-28 0 -42 14 -42 42v75c0 29 14 43 42 43zM438 -90l-48 -137c-7 -22 -23 -33 -46 -33h-63c-21 0 -30 10 -27 30l16 140c4 28 19 42 44 42h90
c33 0 45 -14 34 -42z" />
    <glyph glyph-name="Gdotaccent" unicode="&#x120;" horiz-adv-x="677" 
d="M338 925h6c29 0 48 -5 59 -16c10 -10 15 -30 15 -59v-8c0 -29 -5 -49 -15 -59c-11 -11 -30 -16 -59 -16h-6c-29 0 -48 5 -59 16s-16 30 -16 59v8c0 29 5 49 16 59c11 11 30 16 59 16zM353 408h253c28 0 42 -14 42 -43v-132c0 -73 -27 -132 -80 -177
c-55 -47 -131 -71 -227 -71c-98 0 -174 25 -228 75c-53 49 -80 118 -80 205v180c0 87 27 156 80 205c54 50 130 75 228 75c151 0 248 -58 292 -175c9 -27 0 -45 -27 -54l-107 -38c-15 -5 -27 -5 -34 -2c-8 4 -15 14 -20 29c-17 43 -52 65 -104 65c-73 0 -110 -35 -110 -104
v-182c0 -69 37 -104 110 -104c72 0 108 23 108 68v20h-96c-28 0 -42 14 -42 42v75c0 29 14 43 42 43z" />
    <glyph glyph-name="H" unicode="H" horiz-adv-x="690" 
d="M484 711h114c28 0 42 -14 42 -43v-626c0 -28 -14 -42 -42 -42h-114c-28 0 -42 14 -42 42v230h-194v-230c0 -28 -14 -42 -42 -42h-113c-29 0 -43 14 -43 42v626c0 29 14 43 43 43h113c28 0 42 -14 42 -43v-221h194v221c0 29 14 43 42 43z" />
    <glyph glyph-name="Hbar" unicode="&#x126;" horiz-adv-x="722" 
d="M655 629h38c16 0 24 -9 24 -26v-54c0 -17 -8 -26 -24 -26h-38v-481c0 -28 -14 -42 -42 -42h-113c-29 0 -43 14 -43 42v230h-193v-230c0 -28 -14 -42 -43 -42h-113c-28 0 -42 14 -42 42v481h-37c-16 0 -24 9 -24 26v54c0 17 8 26 24 26h37v39c0 29 14 43 42 43h113
c29 0 43 -14 43 -43v-39h193v39c0 29 14 43 43 43h113c28 0 42 -14 42 -43v-39zM264 523v-76h193v76h-193z" />
    <glyph glyph-name="Hcircumflex" unicode="&#x124;" horiz-adv-x="690" 
d="M334 920h32c27 0 51 -10 71 -30l103 -102c9 -9 12 -16 10 -23s-11 -11 -26 -11h-83c-33 0 -56 7 -67 21l-29 36l-31 -35c-13 -15 -34 -22 -65 -22h-79c-15 0 -24 4 -25 11c-2 7 1 14 10 23l102 102c20 20 46 30 77 30zM484 711h114c28 0 42 -14 42 -43v-626
c0 -28 -14 -42 -42 -42h-114c-28 0 -42 14 -42 42v230h-194v-230c0 -28 -14 -42 -42 -42h-113c-29 0 -43 14 -43 42v626c0 29 14 43 43 43h113c28 0 42 -14 42 -43v-221h194v221c0 29 14 43 42 43z" />
    <glyph glyph-name="I" unicode="I" horiz-adv-x="299" 
d="M50 40v630c0 27 13 40 40 40h118c27 0 40 -13 40 -40v-630c0 -27 -13 -40 -40 -40h-118c-27 0 -40 13 -40 40z" />
    <glyph glyph-name="IJ" unicode="&#x132;" horiz-adv-x="884" 
d="M682 711h116c27 0 41 -14 41 -42v-422c0 -83 -23 -147 -70 -192c-47 -47 -116 -70 -206 -70c-131 0 -218 56 -260 169c-9 26 0 44 27 54l104 37c27 10 45 2 56 -24c17 -41 43 -61 78 -61c49 0 73 29 73 86v423c0 28 14 42 41 42zM50 40v630c0 27 13 40 40 40h118
c27 0 40 -13 40 -40v-630c0 -27 -13 -40 -40 -40h-118c-27 0 -40 13 -40 40z" />
    <glyph glyph-name="Iacute" unicode="&#xcd;" horiz-adv-x="299" 
d="M17 833l141 81c28 16 50 15 66 -3l51 -58c16 -19 14 -33 -6 -40l-181 -56c-23 -7 -39 -5 -46 5l-28 33c-13 17 -12 29 3 38zM48 40v630c0 27 13 40 40 40h118c27 0 40 -13 40 -40v-630c0 -27 -13 -40 -40 -40h-118c-27 0 -40 13 -40 40z" />
    <glyph glyph-name="Ibreve" unicode="&#x12c;" horiz-adv-x="299" 
d="M326 860c-27 -71 -86 -106 -177 -106s-150 35 -176 106c-7 16 -1 28 17 35l66 25c17 7 29 3 38 -12c12 -22 30 -33 55 -33c23 0 41 11 54 33c8 13 20 18 35 13l71 -26c17 -7 23 -18 17 -35zM49 40v630c0 27 13 40 40 40h118c27 0 40 -13 40 -40v-630
c0 -27 -13 -40 -40 -40h-118c-27 0 -40 13 -40 40z" />
    <glyph glyph-name="Icircumflex" unicode="&#xce;" horiz-adv-x="299" 
d="M138 920h32c27 0 51 -10 71 -30l103 -102c9 -9 12 -16 11 -23c-2 -7 -11 -11 -26 -11h-84c-33 0 -56 7 -67 21l-28 36l-32 -35c-12 -15 -34 -22 -65 -22h-78c-15 0 -24 4 -26 11s1 14 10 23l102 102c20 20 46 30 77 30zM50 40v630c0 27 13 40 40 40h118
c27 0 40 -13 40 -40v-630c0 -27 -13 -40 -40 -40h-118c-27 0 -40 13 -40 40z" />
    <glyph glyph-name="Idieresis" unicode="&#xcf;" horiz-adv-x="299" 
d="M38 914h8c27 0 46 -5 57 -15c11 -11 16 -29 16 -56v-13c0 -27 -5 -45 -16 -55c-11 -11 -30 -16 -57 -16h-8c-28 0 -47 5 -57 16c-10 10 -15 28 -15 55v13c0 27 5 46 15 56s29 15 57 15zM254 914h7c27 0 46 -5 57 -15c10 -10 15 -29 15 -56v-13c0 -27 -5 -45 -15 -55
c-11 -11 -30 -16 -57 -16h-7c-28 0 -47 5 -58 16c-11 10 -16 28 -16 55v13c0 27 5 45 16 56c11 10 30 15 58 15zM50 40v630c0 27 13 40 40 40h118c27 0 40 -13 40 -40v-630c0 -27 -13 -40 -40 -40h-118c-27 0 -40 13 -40 40z" />
    <glyph glyph-name="Idotaccent" unicode="&#x130;" horiz-adv-x="299" 
d="M147 915h6c29 0 48 -5 59 -16c10 -10 15 -30 15 -59v-8c0 -29 -5 -49 -15 -59c-11 -11 -30 -16 -59 -16h-6c-29 0 -49 5 -60 16c-11 10 -16 30 -16 59v8c0 29 5 49 16 59c11 11 31 16 60 16zM50 40v630c0 27 13 40 40 40h118c27 0 40 -13 40 -40v-630
c0 -27 -13 -40 -40 -40h-118c-27 0 -40 13 -40 40z" />
    <glyph glyph-name="Igrave" unicode="&#xcc;" horiz-adv-x="299" 
d="M24 854l51 60c15 18 37 19 66 3l141 -83c16 -9 17 -21 2 -38l-27 -34c-9 -10 -24 -11 -46 -4l-182 56c-19 7 -21 20 -5 40zM48 40v630c0 27 13 40 40 40h118c27 0 40 -13 40 -40v-630c0 -27 -13 -40 -40 -40h-118c-27 0 -40 13 -40 40z" />
    <glyph glyph-name="Imacron" unicode="&#x12a;" horiz-adv-x="299" 
d="M27 892h244c15 0 24 -2 29 -7s8 -14 8 -29v-42c0 -15 -3 -24 -8 -29s-14 -7 -29 -7h-244c-14 0 -23 2 -28 7s-7 14 -7 29v42c0 24 12 36 35 36zM50 40v630c0 27 13 40 40 40h118c27 0 40 -13 40 -40v-630c0 -27 -13 -40 -40 -40h-118c-27 0 -40 13 -40 40z" />
    <glyph glyph-name="Iogonek" unicode="&#x12e;" horiz-adv-x="299" 
d="M238 -134l21 -47c5 -13 3 -23 -6 -30c-30 -23 -67 -35 -111 -35c-63 0 -98 22 -107 67c-12 59 12 118 72 179c-23 0 -38 4 -46 11c-7 6 -11 17 -11 34v625c0 27 13 40 40 40h118c27 0 40 -13 40 -40v-630c0 -17 -4 -29 -13 -36c-43 -45 -62 -85 -57 -120
c2 -12 8 -18 18 -18c6 0 12 2 19 6c11 7 18 5 23 -6z" />
    <glyph glyph-name="Itilde" unicode="&#x128;" horiz-adv-x="299" 
d="M236 909h60c15 0 23 -8 23 -23c0 -45 -8 -77 -25 -96c-15 -18 -40 -27 -73 -27c-28 0 -55 7 -81 21c-27 14 -44 21 -51 21c-10 0 -15 -7 -15 -22c0 -13 -6 -20 -19 -20h-62c-15 0 -23 8 -23 23c0 82 32 123 96 123c29 0 57 -7 84 -20c27 -14 45 -21 52 -21
c9 0 14 7 14 22c0 13 7 19 20 19zM50 40v630c0 27 13 40 40 40h118c27 0 40 -13 40 -40v-630c0 -27 -13 -40 -40 -40h-118c-27 0 -40 13 -40 40z" />
    <glyph glyph-name="J" unicode="J" horiz-adv-x="587" 
d="M384 711h115c27 0 41 -14 41 -42v-422c0 -83 -23 -147 -70 -192c-47 -47 -116 -70 -205 -70c-132 0 -219 56 -260 169c-10 26 -1 44 26 54l104 37c27 10 45 2 56 -24c17 -41 43 -61 78 -61c49 0 73 29 73 86v423c0 28 14 42 42 42z" />
    <glyph glyph-name="Jcircumflex" unicode="&#x134;" horiz-adv-x="587" 
d="M430 920h32c27 0 51 -10 71 -30l103 -102c9 -9 12 -16 11 -23c-2 -7 -11 -11 -26 -11h-84c-33 0 -56 7 -67 21l-29 36l-31 -35c-13 -15 -34 -22 -65 -22h-79c-15 0 -24 4 -25 11c-2 7 1 14 10 23l102 102c20 20 46 30 77 30zM384 711h115c27 0 41 -14 41 -42v-422
c0 -83 -23 -147 -70 -192c-47 -47 -116 -70 -205 -70c-132 0 -219 56 -260 169c-10 26 -1 44 26 54l104 37c27 10 45 2 56 -24c17 -41 43 -61 78 -61c49 0 73 29 73 86v423c0 28 14 42 42 42z" />
    <glyph glyph-name="K" unicode="K" horiz-adv-x="655" 
d="M512 299l132 -250c7 -14 9 -26 5 -35c-5 -9 -15 -14 -31 -14h-108c-46 0 -76 14 -89 42l-87 179c-17 33 -39 50 -68 50h-18v-229c0 -28 -14 -42 -42 -42h-113c-29 0 -43 14 -43 42v626c0 28 14 42 43 42h113c28 0 42 -14 42 -42v-222h22l144 227c10 16 19 26 28 30
c9 5 27 7 52 7h115c15 0 25 -4 29 -12c5 -9 3 -19 -5 -32l-182 -290c23 -17 44 -42 61 -77z" />
    <glyph glyph-name="uni0136" unicode="&#x136;" horiz-adv-x="655" 
d="M512 299l132 -250c7 -14 9 -26 5 -35c-5 -9 -15 -14 -31 -14h-108c-46 0 -76 14 -89 42l-87 179c-17 33 -39 50 -68 50h-18v-229c0 -28 -14 -42 -42 -42h-113c-29 0 -43 14 -43 42v626c0 28 14 42 43 42h113c28 0 42 -14 42 -42v-222h22l144 227c10 16 19 26 28 30
c9 5 27 7 52 7h115c15 0 25 -4 29 -12c5 -9 3 -19 -5 -32l-182 -290c23 -17 44 -42 61 -77zM422 -90l-48 -137c-7 -22 -22 -33 -45 -33h-64c-20 0 -29 10 -27 30l16 140c4 28 19 42 45 42h89c33 0 45 -14 34 -42z" />
    <glyph glyph-name="L" unicode="L" horiz-adv-x="542" 
d="M93 710h113c28 0 42 -14 42 -42v-493h241c28 0 42 -14 42 -42v-91c0 -28 -14 -42 -42 -42h-396c-29 0 -43 14 -43 42v626c0 28 14 42 43 42z" />
    <glyph glyph-name="Lacute" unicode="&#x139;" horiz-adv-x="542" 
d="M17 833l141 81c28 16 50 15 66 -3l51 -58c16 -19 14 -33 -6 -40l-181 -56c-23 -7 -39 -5 -46 5l-28 33c-13 17 -12 29 3 38zM91 710h113c28 0 42 -14 42 -42v-493h241c28 0 42 -14 42 -42v-91c0 -28 -14 -42 -42 -42h-396c-29 0 -43 14 -43 42v626c0 28 14 42 43 42z" />
    <glyph glyph-name="Lcaron" unicode="&#x13d;" horiz-adv-x="545" 
d="M92 710h113c29 0 43 -14 43 -42v-493h240c28 0 42 -14 42 -42v-91c0 -28 -14 -42 -42 -42h-396c-28 0 -42 14 -42 42v626c0 28 14 42 42 42zM500 671l-58 -158c-9 -23 -24 -34 -47 -34h-58c-18 0 -26 9 -24 26l19 166c3 26 17 39 44 39h90c32 0 43 -13 34 -39z" />
    <glyph glyph-name="uni013B" unicode="&#x13b;" horiz-adv-x="542" 
d="M93 710h113c28 0 42 -14 42 -42v-493h241c28 0 42 -14 42 -42v-91c0 -28 -14 -42 -42 -42h-396c-29 0 -43 14 -43 42v626c0 28 14 42 43 42zM368 -90l-48 -137c-7 -22 -22 -33 -45 -33h-64c-20 0 -29 10 -27 30l17 140c3 28 17 42 44 42h89c33 0 45 -14 34 -42z" />
    <glyph glyph-name="Ldot" unicode="&#x13f;" horiz-adv-x="545" 
d="M93 710h113c28 0 42 -14 42 -42v-493h241c28 0 42 -14 42 -42v-91c0 -28 -14 -42 -42 -42h-396c-29 0 -43 14 -43 42v626c0 28 14 42 43 42zM383 500h36c28 0 47 -5 58 -16s16 -30 16 -58v-38c0 -28 -5 -47 -16 -58s-30 -16 -58 -16h-36c-28 0 -47 5 -58 16
s-16 30 -16 58v38c0 28 5 47 16 58s30 16 58 16z" />
    <glyph glyph-name="Lslash" unicode="&#x141;" horiz-adv-x="590" 
d="M296 175h240c28 0 42 -14 42 -42v-91c0 -28 -14 -42 -42 -42h-396c-28 0 -42 14 -42 42v206l-40 -17c-19 -9 -32 -5 -41 12l-25 51c-8 17 -4 29 13 36l93 42v296c0 28 14 42 42 42h113c29 0 43 -14 43 -42v-208l112 50c19 9 32 5 41 -13l25 -50c8 -17 4 -29 -13 -36
l-165 -74v-162z" />
    <glyph glyph-name="M" unicode="M" horiz-adv-x="825" 
d="M632 711h100c29 0 43 -14 43 -42v-628c0 -27 -14 -41 -43 -41h-109c-28 0 -42 14 -42 41v143c0 72 15 159 44 262h-11c-17 -56 -39 -111 -67 -165l-56 -113c-11 -19 -27 -29 -48 -29h-67c-22 0 -38 10 -48 29l-59 113c-21 37 -41 92 -62 165h-10c27 -109 41 -197 41 -263
v-142c0 -27 -14 -41 -43 -41h-102c-29 0 -43 14 -43 41v628c0 28 14 42 43 42h94c28 0 48 -10 59 -31l165 -324l165 323c11 21 30 32 56 32z" />
    <glyph glyph-name="N" unicode="N" horiz-adv-x="700" 
d="M506 710h102c28 0 42 -14 42 -42v-626c0 -28 -14 -42 -42 -42h-113c-19 0 -32 7 -41 20l-154 237c-33 52 -62 121 -88 206h-8c22 -101 33 -187 33 -258v-163c0 -28 -14 -42 -43 -42h-101c-29 0 -43 14 -43 42v626c0 28 14 42 43 42h118c19 0 33 -7 42 -20l164 -256
c13 -21 41 -82 84 -183h8c-30 97 -45 181 -45 253v164c0 28 14 42 42 42z" />
    <glyph glyph-name="Nacute" unicode="&#x143;" horiz-adv-x="700" 
d="M222 833l141 81c28 16 50 15 66 -3l51 -58c17 -19 16 -33 -5 -40l-182 -56c-23 -7 -38 -5 -46 5l-27 33c-14 17 -13 29 2 38zM506 710h102c28 0 42 -14 42 -42v-626c0 -28 -14 -42 -42 -42h-113c-19 0 -32 7 -41 20l-154 237c-33 52 -62 121 -88 206h-8
c22 -101 33 -187 33 -258v-163c0 -28 -14 -42 -43 -42h-101c-29 0 -43 14 -43 42v626c0 28 14 42 43 42h118c19 0 33 -7 42 -20l164 -256c13 -21 41 -82 84 -183h8c-30 97 -45 181 -45 253v164c0 28 14 42 42 42z" />
    <glyph glyph-name="Ncaron" unicode="&#x147;" horiz-adv-x="700" 
d="M453 920h76c15 0 23 -4 24 -11s-2 -15 -11 -24l-101 -102c-19 -19 -44 -29 -74 -29h-28c-29 0 -54 10 -73 29l-101 102c-9 9 -13 17 -12 24s9 11 24 11h84c31 0 53 -7 66 -22l30 -34l30 34c13 15 35 22 66 22zM506 710h102c28 0 42 -14 42 -42v-626
c0 -28 -14 -42 -42 -42h-113c-19 0 -32 7 -41 20l-154 237c-33 52 -62 121 -88 206h-8c22 -101 33 -187 33 -258v-163c0 -28 -14 -42 -43 -42h-101c-29 0 -43 14 -43 42v626c0 28 14 42 43 42h118c19 0 33 -7 42 -20l164 -256c13 -21 41 -82 84 -183h8
c-30 97 -45 181 -45 253v164c0 28 14 42 42 42z" />
    <glyph glyph-name="uni0145" unicode="&#x145;" horiz-adv-x="700" 
d="M506 710h102c28 0 42 -14 42 -42v-626c0 -28 -14 -42 -42 -42h-113c-19 0 -32 7 -41 20l-154 237c-33 52 -62 121 -88 206h-8c22 -101 33 -187 33 -258v-163c0 -28 -14 -42 -43 -42h-101c-29 0 -43 14 -43 42v626c0 28 14 42 43 42h118c19 0 33 -7 42 -20l164 -256
c13 -21 41 -82 84 -183h8c-30 97 -45 181 -45 253v164c0 28 14 42 42 42zM440 -90l-48 -137c-7 -22 -22 -33 -45 -33h-64c-20 0 -29 10 -27 30l17 140c3 28 17 42 44 42h89c33 0 45 -14 34 -42z" />
    <glyph glyph-name="Eng" unicode="&#x14a;" horiz-adv-x="700" 
d="M506 710h102c28 0 42 -14 42 -42v-678c0 -147 -85 -220 -254 -220c-27 0 -40 13 -40 39v85c0 27 13 40 40 40c43 0 65 23 65 68v9l-161 246c-33 52 -62 121 -88 206h-8c22 -101 33 -187 33 -258v-163c0 -28 -14 -42 -43 -42h-101c-29 0 -43 14 -43 42v626
c0 28 14 42 43 42h118c19 0 33 -7 42 -20l164 -256c13 -21 41 -82 84 -183h8c-30 97 -45 181 -45 253v164c0 28 14 42 42 42z" />
    <glyph glyph-name="Ntilde" unicode="&#xd1;" horiz-adv-x="700" 
d="M439 909h60c16 0 24 -8 24 -23c0 -82 -33 -123 -98 -123c-28 0 -55 7 -82 21s-44 21 -51 21c-10 0 -15 -7 -15 -22c0 -13 -6 -20 -19 -20h-61c-15 0 -23 8 -23 23c0 82 32 123 95 123c29 0 58 -7 85 -20c27 -14 44 -21 51 -21c10 0 15 7 15 22c0 13 6 19 19 19zM506 710
h102c28 0 42 -14 42 -42v-626c0 -28 -14 -42 -42 -42h-113c-19 0 -32 7 -41 20l-154 237c-33 52 -62 121 -88 206h-8c22 -101 33 -187 33 -258v-163c0 -28 -14 -42 -43 -42h-101c-29 0 -43 14 -43 42v626c0 28 14 42 43 42h118c19 0 33 -7 42 -20l164 -256
c13 -21 41 -82 84 -183h8c-30 97 -45 181 -45 253v164c0 28 14 42 42 42z" />
    <glyph glyph-name="O" unicode="O" horiz-adv-x="682" 
d="M33 265v180c0 87 27 156 80 205c54 50 130 75 228 75c97 0 173 -25 227 -75c53 -49 80 -118 80 -205v-180c0 -87 -27 -156 -80 -205c-54 -50 -130 -75 -227 -75c-98 0 -174 25 -228 75c-53 49 -80 118 -80 205zM450 256v198c0 64 -36 96 -109 96s-110 -32 -110 -96v-198
c0 -64 37 -96 110 -96s109 32 109 96z" />
    <glyph glyph-name="Oacute" unicode="&#xd3;" horiz-adv-x="682" 
d="M210 843l141 81c28 16 50 15 66 -3l51 -58c17 -19 15 -33 -6 -40l-181 -56c-23 -7 -39 -5 -46 5l-28 33c-13 17 -12 29 3 38zM33 265v180c0 87 27 156 80 205c54 50 130 75 228 75c97 0 173 -25 227 -75c53 -49 80 -118 80 -205v-180c0 -87 -27 -156 -80 -205
c-54 -50 -130 -75 -227 -75c-98 0 -174 25 -228 75c-53 49 -80 118 -80 205zM450 256v198c0 64 -36 96 -109 96s-110 -32 -110 -96v-198c0 -64 37 -96 110 -96s109 32 109 96z" />
    <glyph glyph-name="Obreve" unicode="&#x14e;" horiz-adv-x="682" 
d="M518 870c-27 -71 -86 -106 -177 -106s-150 35 -176 106c-6 16 0 28 17 35l66 25c17 6 29 2 38 -12c12 -22 30 -33 55 -33c23 0 41 11 54 33c8 13 20 18 36 13l70 -26c17 -7 23 -18 17 -35zM33 265v180c0 87 27 156 80 205c54 50 130 75 228 75c97 0 173 -25 227 -75
c53 -49 80 -118 80 -205v-180c0 -87 -27 -156 -80 -205c-54 -50 -130 -75 -227 -75c-98 0 -174 25 -228 75c-53 49 -80 118 -80 205zM450 256v198c0 64 -36 96 -109 96s-110 -32 -110 -96v-198c0 -64 37 -96 110 -96s109 32 109 96z" />
    <glyph glyph-name="Ocircumflex" unicode="&#xd4;" horiz-adv-x="682" 
d="M329 930h32c27 0 51 -10 72 -30l102 -102c9 -9 12 -16 11 -23c-2 -7 -11 -11 -26 -11h-84c-34 0 -56 7 -66 21l-29 36l-31 -35c-13 -15 -35 -22 -66 -22h-78c-15 0 -24 4 -26 11c-1 7 2 14 11 23l102 102c19 20 45 30 76 30zM33 265v180c0 87 27 156 80 205
c54 50 130 75 228 75c97 0 173 -25 227 -75c53 -49 80 -118 80 -205v-180c0 -87 -27 -156 -80 -205c-54 -50 -130 -75 -227 -75c-98 0 -174 25 -228 75c-53 49 -80 118 -80 205zM450 256v198c0 64 -36 96 -109 96s-110 -32 -110 -96v-198c0 -64 37 -96 110 -96
s109 32 109 96z" />
    <glyph glyph-name="Odieresis" unicode="&#xd6;" horiz-adv-x="682" 
d="M229 924h8c27 0 46 -5 57 -15c11 -11 16 -29 16 -56v-13c0 -27 -5 -45 -16 -55c-11 -11 -30 -16 -57 -16h-8c-27 0 -46 5 -57 16c-10 10 -15 28 -15 55v13c0 27 5 46 15 56c11 10 30 15 57 15zM445 924h7c27 0 46 -5 57 -15c10 -10 15 -29 15 -56v-13
c0 -27 -5 -45 -15 -55c-11 -11 -30 -16 -57 -16h-7c-28 0 -47 5 -58 16c-11 10 -16 28 -16 55v13c0 27 5 45 16 56c11 10 30 15 58 15zM33 265v180c0 87 27 156 80 205c54 50 130 75 228 75c97 0 173 -25 227 -75c53 -49 80 -118 80 -205v-180c0 -87 -27 -156 -80 -205
c-54 -50 -130 -75 -227 -75c-98 0 -174 25 -228 75c-53 49 -80 118 -80 205zM450 256v198c0 64 -36 96 -109 96s-110 -32 -110 -96v-198c0 -64 37 -96 110 -96s109 32 109 96z" />
    <glyph glyph-name="Ograve" unicode="&#xd2;" horiz-adv-x="682" 
d="M217 864l51 60c15 18 37 19 66 3l141 -83c16 -9 17 -21 2 -38l-27 -34c-9 -10 -24 -11 -46 -4l-182 56c-19 7 -21 20 -5 40zM33 265v180c0 87 27 156 80 205c54 50 130 75 228 75c97 0 173 -25 227 -75c53 -49 80 -118 80 -205v-180c0 -87 -27 -156 -80 -205
c-54 -50 -130 -75 -227 -75c-98 0 -174 25 -228 75c-53 49 -80 118 -80 205zM450 256v198c0 64 -36 96 -109 96s-110 -32 -110 -96v-198c0 -64 37 -96 110 -96s109 32 109 96z" />
    <glyph glyph-name="Ohungarumlaut" unicode="&#x150;" horiz-adv-x="682" 
d="M158 812l71 95c16 23 38 31 65 26l67 -15c13 -3 21 -8 23 -17c2 -8 -2 -16 -12 -25l-113 -95c-17 -14 -31 -19 -44 -15l-45 8c-23 5 -27 17 -12 38zM351 811l76 96c19 23 41 31 66 24l69 -18c13 -4 21 -10 24 -18c2 -9 -2 -17 -13 -25l-122 -92c-15 -13 -30 -18 -44 -15
l-44 10c-25 5 -29 17 -12 38zM33 265v180c0 87 27 156 80 205c54 50 130 75 228 75c97 0 173 -25 227 -75c53 -49 80 -118 80 -205v-180c0 -87 -27 -156 -80 -205c-54 -50 -130 -75 -227 -75c-98 0 -174 25 -228 75c-53 49 -80 118 -80 205zM450 256v198
c0 64 -36 96 -109 96s-110 -32 -110 -96v-198c0 -64 37 -96 110 -96s109 32 109 96z" />
    <glyph glyph-name="Omacron" unicode="&#x14c;" horiz-adv-x="682" 
d="M219 902h243c15 0 24 -2 29 -7s8 -14 8 -29v-42c0 -15 -3 -24 -8 -29s-14 -7 -29 -7h-243c-15 0 -24 2 -29 7s-7 14 -7 29v42c0 24 12 36 36 36zM33 265v180c0 87 27 156 80 205c54 50 130 75 228 75c97 0 173 -25 227 -75c53 -49 80 -118 80 -205v-180
c0 -87 -27 -156 -80 -205c-54 -50 -130 -75 -227 -75c-98 0 -174 25 -228 75c-53 49 -80 118 -80 205zM450 256v198c0 64 -36 96 -109 96s-110 -32 -110 -96v-198c0 -64 37 -96 110 -96s109 32 109 96z" />
    <glyph glyph-name="Oslash" unicode="&#xd8;" horiz-adv-x="682" 
d="M559 753h96c13 0 16 -6 9 -18l-72 -109c38 -46 57 -106 57 -181v-180c0 -87 -27 -155 -80 -204c-53 -50 -129 -75 -227 -76c-60 0 -111 9 -153 27l-25 -38c-7 -11 -19 -16 -35 -16h-94c-14 0 -17 6 -8 19l67 103c-40 48 -60 110 -60 185v180c0 87 27 156 80 205
c54 50 130 75 228 75c60 0 112 -10 156 -29l27 41c7 11 19 16 34 16zM234 282l167 256c-16 8 -36 12 -59 12c-73 0 -110 -32 -110 -96v-146c0 -5 1 -14 2 -26zM450 422l-164 -252c18 -7 37 -10 56 -10c73 0 109 32 109 96v142c0 11 0 19 -1 24z" />
    <glyph glyph-name="Oslashacute" unicode="&#x1fe;" horiz-adv-x="682" 
d="M212 843l141 81c27 15 49 14 66 -3l51 -58c16 -19 14 -33 -6 -40l-181 -56c-23 -7 -39 -5 -47 5l-27 33c-14 17 -13 29 3 38zM559 753h96c13 0 16 -6 9 -18l-72 -109c38 -46 57 -106 57 -181v-180c0 -87 -27 -155 -80 -204c-53 -50 -129 -75 -227 -76
c-60 0 -111 9 -153 27l-25 -38c-7 -11 -19 -16 -35 -16h-94c-14 0 -17 6 -8 19l67 103c-40 48 -60 110 -60 185v180c0 87 27 156 80 205c54 50 130 75 228 75c60 0 112 -10 156 -29l27 41c7 11 19 16 34 16zM234 282l167 256c-16 8 -36 12 -59 12c-73 0 -110 -32 -110 -96
v-146c0 -5 1 -14 2 -26zM450 422l-164 -252c18 -7 37 -10 56 -10c73 0 109 32 109 96v142c0 11 0 19 -1 24z" />
    <glyph glyph-name="Otilde" unicode="&#xd5;" horiz-adv-x="682" 
d="M427 919h60c15 0 23 -8 23 -23c0 -82 -32 -123 -97 -123c-28 0 -55 7 -82 21s-44 21 -51 21c-10 0 -15 -7 -15 -22c0 -13 -6 -20 -19 -20h-61c-16 0 -24 8 -24 23c0 82 32 123 96 123c29 0 58 -7 85 -20c27 -14 44 -21 51 -21c10 0 15 7 15 22c0 13 6 19 19 19zM33 265
v180c0 87 27 156 80 205c54 50 130 75 228 75c97 0 173 -25 227 -75c53 -49 80 -118 80 -205v-180c0 -87 -27 -156 -80 -205c-54 -50 -130 -75 -227 -75c-98 0 -174 25 -228 75c-53 49 -80 118 -80 205zM450 256v198c0 64 -36 96 -109 96s-110 -32 -110 -96v-198
c0 -64 37 -96 110 -96s109 32 109 96z" />
    <glyph glyph-name="OE" unicode="&#x152;" horiz-adv-x="884" 
d="M599 175h218c28 0 42 -14 42 -42v-91c0 -28 -14 -42 -42 -42h-352c-33 -10 -74 -15 -124 -15c-98 0 -174 25 -228 75c-53 49 -80 118 -80 205v180c0 87 27 156 80 205c54 50 130 75 228 75c43 0 82 -5 116 -15h352c28 0 42 -14 42 -42v-90c0 -29 -14 -43 -42 -43h-210
v-89h156c29 0 43 -14 43 -42v-90c0 -29 -14 -43 -43 -43h-156v-96zM231 454v-198c0 -64 37 -96 110 -96c23 0 43 4 60 12v366c-17 8 -37 12 -60 12c-73 0 -110 -32 -110 -96z" />
    <glyph glyph-name="P" unicode="P" horiz-adv-x="647" 
d="M93 710h276c79 0 141 -22 188 -65c47 -45 70 -106 70 -185c0 -78 -23 -139 -70 -183c-45 -43 -107 -64 -186 -64h-123v-171c0 -28 -14 -42 -42 -42h-113c-29 0 -43 14 -43 42v626c0 28 14 42 43 42zM248 388h99c50 0 75 24 75 73s-25 74 -75 74h-99v-147z" />
    <glyph glyph-name="Thorn" unicode="&#xde;" horiz-adv-x="636" 
d="M247 620h108c81 0 145 -23 193 -70s72 -110 72 -191c0 -80 -24 -143 -72 -190c-48 -46 -112 -69 -193 -69h-108v-58c0 -28 -14 -42 -42 -42h-113c-28 0 -42 14 -42 42v626c0 28 14 42 42 42h113c28 0 42 -14 42 -42v-48zM247 275h83c26 0 47 8 62 24s23 36 23 61
s-8 45 -23 61s-36 24 -62 24h-83v-170z" />
    <glyph glyph-name="Q" unicode="Q" horiz-adv-x="695" 
d="M602 100l55 -65c17 -21 16 -41 -5 -60l-74 -58c-21 -19 -41 -17 -59 5l-65 77c-34 -9 -72 -14 -113 -14c-98 0 -174 25 -228 75c-53 49 -80 118 -80 205v180c0 87 27 156 80 205c54 50 130 75 228 75c97 0 173 -25 227 -75c53 -49 80 -118 80 -205v-180
c0 -67 -15 -122 -46 -165zM231 454v-198c0 -64 37 -96 110 -96s109 32 109 96v198c0 64 -36 96 -109 96s-110 -32 -110 -96z" />
    <glyph glyph-name="R" unicode="R" horiz-adv-x="661" 
d="M93 710h285c77 0 137 -21 181 -62c45 -43 68 -102 68 -179c0 -97 -36 -166 -108 -206c11 -13 20 -28 27 -43l90 -171c7 -14 9 -26 5 -35c-5 -9 -15 -14 -31 -14h-108c-47 0 -77 16 -92 48l-64 137c-17 34 -42 51 -75 51h-23v-194c0 -28 -14 -42 -42 -42h-113
c-29 0 -43 14 -43 42v626c0 28 14 42 43 42zM422 470c0 43 -22 65 -66 65h-108v-132h108c44 0 66 22 66 67z" />
    <glyph glyph-name="Racute" unicode="&#x154;" horiz-adv-x="661" 
d="M188 833l141 81c27 15 49 14 66 -3l51 -58c16 -19 14 -33 -6 -40l-181 -56c-23 -7 -39 -5 -47 5l-27 33c-14 17 -13 29 3 38zM93 710h285c77 0 137 -21 181 -62c45 -43 68 -102 68 -179c0 -97 -36 -166 -108 -206c11 -13 20 -28 27 -43l90 -171c7 -14 9 -26 5 -35
c-5 -9 -15 -14 -31 -14h-108c-47 0 -77 16 -92 48l-64 137c-17 34 -42 51 -75 51h-23v-194c0 -28 -14 -42 -42 -42h-113c-29 0 -43 14 -43 42v626c0 28 14 42 43 42zM422 470c0 43 -22 65 -66 65h-108v-132h108c44 0 66 22 66 67z" />
    <glyph glyph-name="Rcaron" unicode="&#x158;" horiz-adv-x="661" 
d="M418 920h76c15 0 24 -4 25 -11s-3 -15 -12 -24l-100 -102c-19 -19 -44 -29 -75 -29h-27c-30 0 -54 10 -73 29l-101 102c-9 9 -13 17 -12 24s8 11 23 11h84c33 0 55 -7 66 -22l31 -34l29 34c13 15 35 22 66 22zM93 710h285c77 0 137 -21 181 -62c45 -43 68 -102 68 -179
c0 -97 -36 -166 -108 -206c11 -13 20 -28 27 -43l90 -171c7 -14 9 -26 5 -35c-5 -9 -15 -14 -31 -14h-108c-47 0 -77 16 -92 48l-64 137c-17 34 -42 51 -75 51h-23v-194c0 -28 -14 -42 -42 -42h-113c-29 0 -43 14 -43 42v626c0 28 14 42 43 42zM422 470c0 43 -22 65 -66 65
h-108v-132h108c44 0 66 22 66 67z" />
    <glyph glyph-name="uni0156" unicode="&#x156;" horiz-adv-x="661" 
d="M93 710h285c77 0 137 -21 181 -62c45 -43 68 -102 68 -179c0 -97 -36 -166 -108 -206c11 -13 20 -28 27 -43l90 -171c7 -14 9 -26 5 -35c-5 -9 -15 -14 -31 -14h-108c-47 0 -77 16 -92 48l-64 137c-17 34 -42 51 -75 51h-23v-194c0 -28 -14 -42 -42 -42h-113
c-29 0 -43 14 -43 42v626c0 28 14 42 43 42zM422 470c0 43 -22 65 -66 65h-108v-132h108c44 0 66 22 66 67zM428 -90l-49 -137c-7 -22 -22 -33 -45 -33h-64c-20 0 -29 10 -26 30l16 140c4 28 19 42 44 42h90c33 0 44 -14 34 -42z" />
    <glyph glyph-name="S" unicode="S" horiz-adv-x="647" 
d="M26 501c0 67 26 121 77 162c53 41 127 62 220 62c140 0 233 -47 279 -140c13 -26 5 -45 -24 -56l-100 -43c-13 -6 -24 -8 -31 -5s-15 11 -23 26c-17 35 -51 52 -101 52c-63 0 -95 -17 -95 -52c0 -19 13 -34 39 -43c17 -7 47 -13 92 -18c81 -11 140 -29 177 -52
c59 -37 89 -98 89 -181c0 -71 -30 -128 -89 -169c-56 -39 -130 -59 -221 -59c-156 0 -253 52 -291 155c-9 26 0 44 27 55l94 34c27 9 47 2 59 -22c18 -35 56 -53 113 -53c71 0 107 19 107 57c0 29 -39 48 -117 59c-87 12 -148 28 -184 49c-65 36 -97 97 -97 182z" />
    <glyph glyph-name="Sacute" unicode="&#x15a;" horiz-adv-x="647" 
d="M191 843l141 81c28 16 50 15 66 -3l51 -58c16 -19 14 -33 -6 -40l-181 -56c-23 -7 -39 -5 -46 5l-28 33c-13 17 -12 29 3 38zM26 501c0 67 26 121 77 162c53 41 127 62 220 62c140 0 233 -47 279 -140c13 -26 5 -45 -24 -56l-100 -43c-13 -6 -24 -8 -31 -5s-15 11 -23 26
c-17 35 -51 52 -101 52c-63 0 -95 -17 -95 -52c0 -19 13 -34 39 -43c17 -7 47 -13 92 -18c81 -11 140 -29 177 -52c59 -37 89 -98 89 -181c0 -71 -30 -128 -89 -169c-56 -39 -130 -59 -221 -59c-156 0 -253 52 -291 155c-9 26 0 44 27 55l94 34c27 9 47 2 59 -22
c18 -35 56 -53 113 -53c71 0 107 19 107 57c0 29 -39 48 -117 59c-87 12 -148 28 -184 49c-65 36 -97 97 -97 182z" />
    <glyph glyph-name="Scaron" unicode="&#x160;" horiz-adv-x="647" 
d="M421 930h76c15 0 24 -4 25 -11s-3 -15 -12 -24l-100 -102c-19 -19 -44 -29 -75 -29h-27c-29 0 -54 10 -73 29l-101 102c-9 9 -13 17 -12 24s9 11 24 11h84c32 0 54 -7 65 -22l31 -34l29 34c13 15 35 22 66 22zM26 501c0 67 26 121 77 162c53 41 127 62 220 62
c140 0 233 -47 279 -140c13 -26 5 -45 -24 -56l-100 -43c-13 -6 -24 -8 -31 -5s-15 11 -23 26c-17 35 -51 52 -101 52c-63 0 -95 -17 -95 -52c0 -19 13 -34 39 -43c17 -7 47 -13 92 -18c81 -11 140 -29 177 -52c59 -37 89 -98 89 -181c0 -71 -30 -128 -89 -169
c-56 -39 -130 -59 -221 -59c-156 0 -253 52 -291 155c-9 26 0 44 27 55l94 34c27 9 47 2 59 -22c18 -35 56 -53 113 -53c71 0 107 19 107 57c0 29 -39 48 -117 59c-87 12 -148 28 -184 49c-65 36 -97 97 -97 182z" />
    <glyph glyph-name="Scedilla" unicode="&#x15e;" horiz-adv-x="646" 
d="M360 446c80 -11 139 -29 176 -52c60 -37 90 -98 90 -181c0 -63 -23 -114 -68 -153c-43 -38 -102 -62 -176 -71l-14 -35h10c27 -1 49 -11 64 -30s21 -42 18 -69c-7 -67 -57 -100 -150 -100c-29 0 -54 4 -75 11c-17 7 -26 17 -26 31l-1 42c0 22 11 27 32 16
c19 -10 37 -15 55 -15c23 0 34 8 34 23c0 14 -14 21 -42 22h-20c-18 0 -23 10 -14 30l32 71c-138 6 -225 57 -260 154c-10 27 -1 45 26 55l95 34c15 5 27 7 35 4s16 -12 24 -26c17 -35 55 -53 112 -53c72 0 108 19 108 57c0 29 -39 48 -117 59c-87 12 -148 28 -184 49
c-65 36 -97 97 -97 182c0 67 26 121 77 162c53 41 126 62 219 62c140 0 233 -47 280 -140c13 -26 5 -45 -24 -56l-100 -43c-14 -6 -25 -8 -32 -5s-15 11 -22 26c-18 35 -52 52 -102 52c-63 0 -94 -17 -94 -52c0 -19 13 -34 39 -43c17 -7 47 -13 92 -18z" />
    <glyph glyph-name="Scircumflex" unicode="&#x15c;" horiz-adv-x="647" 
d="M310 930h32c27 0 51 -10 71 -30l103 -102c9 -9 12 -16 11 -23c-2 -7 -11 -11 -26 -11h-84c-33 0 -56 7 -67 21l-28 36l-32 -35c-12 -15 -34 -22 -65 -22h-78c-15 0 -24 4 -26 11s1 14 10 23l102 102c20 20 46 30 77 30zM26 501c0 67 26 121 77 162c53 41 127 62 220 62
c140 0 233 -47 279 -140c13 -26 5 -45 -24 -56l-100 -43c-13 -6 -24 -8 -31 -5s-15 11 -23 26c-17 35 -51 52 -101 52c-63 0 -95 -17 -95 -52c0 -19 13 -34 39 -43c17 -7 47 -13 92 -18c81 -11 140 -29 177 -52c59 -37 89 -98 89 -181c0 -71 -30 -128 -89 -169
c-56 -39 -130 -59 -221 -59c-156 0 -253 52 -291 155c-9 26 0 44 27 55l94 34c27 9 47 2 59 -22c18 -35 56 -53 113 -53c71 0 107 19 107 57c0 29 -39 48 -117 59c-87 12 -148 28 -184 49c-65 36 -97 97 -97 182z" />
    <glyph glyph-name="uni0218" unicode="&#x218;" horiz-adv-x="647" 
d="M26 501c0 67 26 121 77 162c53 41 127 62 220 62c140 0 233 -47 279 -140c13 -26 5 -45 -24 -56l-100 -43c-13 -6 -24 -8 -31 -5s-15 11 -23 26c-17 35 -51 52 -101 52c-63 0 -95 -17 -95 -52c0 -19 13 -34 39 -43c17 -7 47 -13 92 -18c81 -11 140 -29 177 -52
c59 -37 89 -98 89 -181c0 -71 -30 -128 -89 -169c-56 -39 -130 -59 -221 -59c-156 0 -253 52 -291 155c-9 26 0 44 27 55l94 34c27 9 47 2 59 -22c18 -35 56 -53 113 -53c71 0 107 19 107 57c0 29 -39 48 -117 59c-87 12 -148 28 -184 49c-65 36 -97 97 -97 182zM417 -90
l-48 -137c-7 -22 -23 -33 -46 -33h-63c-21 0 -30 10 -27 30l16 140c4 28 19 42 44 42h90c33 0 45 -14 34 -42z" />
    <glyph glyph-name="T" unicode="T" horiz-adv-x="603" 
d="M54 710h495c29 0 43 -14 43 -42v-90c0 -29 -14 -43 -43 -43h-148v-493c0 -28 -14 -42 -43 -42h-113c-28 0 -42 14 -42 42v493h-149c-28 0 -42 14 -42 43v90c0 28 14 42 42 42z" />
    <glyph glyph-name="Tbar" unicode="&#x166;" horiz-adv-x="614" 
d="M60 710h495c28 0 42 -14 42 -42v-90c0 -29 -14 -43 -42 -43h-149v-163h96c17 0 25 -9 25 -26v-67c0 -18 -8 -27 -25 -27h-96v-210c0 -28 -14 -42 -42 -42h-113c-29 0 -43 14 -43 42v210h-95c-17 0 -25 9 -25 27v67c0 17 8 26 25 26h95v163h-148c-29 0 -43 14 -43 43v90
c0 28 14 42 43 42z" />
    <glyph glyph-name="Tcaron" unicode="&#x164;" horiz-adv-x="603" 
d="M402 920h76c15 0 23 -4 24 -11s-3 -15 -12 -24l-100 -102c-19 -19 -44 -29 -75 -29h-27c-29 0 -54 10 -73 29l-101 102c-9 9 -13 17 -12 24s9 11 24 11h84c31 0 53 -7 66 -22l30 -34l30 34c13 15 35 22 66 22zM54 710h495c29 0 43 -14 43 -42v-90c0 -29 -14 -43 -43 -43
h-148v-493c0 -28 -14 -42 -43 -42h-113c-28 0 -42 14 -42 42v493h-149c-28 0 -42 14 -42 43v90c0 28 14 42 42 42z" />
    <glyph glyph-name="uni021A" unicode="&#x21a;" horiz-adv-x="603" 
d="M54 710h495c29 0 43 -14 43 -42v-90c0 -29 -14 -43 -43 -43h-148v-493c0 -28 -14 -42 -43 -42h-113c-28 0 -42 14 -42 42v493h-149c-28 0 -42 14 -42 43v90c0 28 14 42 42 42zM387 -90l-52 -137c-7 -22 -23 -33 -48 -33h-67c-21 0 -31 10 -29 30l18 140c4 28 20 42 47 42
h95c35 0 47 -14 36 -42z" />
    <glyph glyph-name="U" unicode="U" horiz-adv-x="692" 
d="M243 668v-416c0 -61 34 -92 103 -92s104 31 104 92v416c0 28 14 42 42 42h113c29 0 43 -14 43 -42v-407c0 -85 -26 -152 -77 -201c-53 -50 -128 -75 -225 -75s-171 25 -224 75c-51 49 -77 116 -77 201v407c0 28 14 42 42 42h113c29 0 43 -14 43 -42z" />
    <glyph glyph-name="Uacute" unicode="&#xda;" horiz-adv-x="692" 
d="M215 833l141 81c28 16 50 15 66 -3l51 -58c17 -19 16 -33 -5 -40l-182 -56c-23 -7 -38 -5 -46 5l-27 33c-14 17 -13 29 2 38zM243 668v-416c0 -61 34 -92 103 -92s104 31 104 92v416c0 28 14 42 42 42h113c29 0 43 -14 43 -42v-407c0 -85 -26 -152 -77 -201
c-53 -50 -128 -75 -225 -75s-171 25 -224 75c-51 49 -77 116 -77 201v407c0 28 14 42 42 42h113c29 0 43 -14 43 -42z" />
    <glyph glyph-name="Ubreve" unicode="&#x16c;" horiz-adv-x="692" 
d="M524 860c-27 -71 -87 -106 -178 -106c-90 0 -149 35 -176 106c-6 16 0 28 17 35l66 25c17 7 30 3 39 -12c12 -22 30 -33 54 -33s42 11 55 33c8 13 20 18 35 13l70 -26c18 -7 24 -18 18 -35zM243 668v-416c0 -61 34 -92 103 -92s104 31 104 92v416c0 28 14 42 42 42h113
c29 0 43 -14 43 -42v-407c0 -85 -26 -152 -77 -201c-53 -50 -128 -75 -225 -75s-171 25 -224 75c-51 49 -77 116 -77 201v407c0 28 14 42 42 42h113c29 0 43 -14 43 -42z" />
    <glyph glyph-name="Ucircumflex" unicode="&#xdb;" horiz-adv-x="692" 
d="M335 920h32c27 0 51 -10 71 -30l103 -102c9 -9 12 -16 10 -23s-11 -11 -26 -11h-83c-33 0 -56 7 -67 21l-29 36l-31 -35c-13 -15 -34 -22 -65 -22h-79c-15 0 -24 4 -25 11c-2 7 1 14 10 23l102 102c20 20 46 30 77 30zM243 668v-416c0 -61 34 -92 103 -92s104 31 104 92
v416c0 28 14 42 42 42h113c29 0 43 -14 43 -42v-407c0 -85 -26 -152 -77 -201c-53 -50 -128 -75 -225 -75s-171 25 -224 75c-51 49 -77 116 -77 201v407c0 28 14 42 42 42h113c29 0 43 -14 43 -42z" />
    <glyph glyph-name="Udieresis" unicode="&#xdc;" horiz-adv-x="692" 
d="M235 914h7c28 0 47 -5 58 -15c11 -11 16 -29 16 -56v-13c0 -27 -5 -45 -16 -55c-11 -11 -30 -16 -58 -16h-7c-28 0 -47 5 -57 16c-10 10 -15 28 -15 55v13c0 27 5 46 15 56s29 15 57 15zM450 914h7c28 0 47 -5 58 -15c10 -10 15 -29 15 -56v-13c0 -27 -5 -45 -15 -55
c-11 -11 -30 -16 -58 -16h-7c-27 0 -46 5 -57 16c-11 10 -16 28 -16 55v13c0 27 5 45 16 56c11 10 30 15 57 15zM243 668v-416c0 -61 34 -92 103 -92s104 31 104 92v416c0 28 14 42 42 42h113c29 0 43 -14 43 -42v-407c0 -85 -26 -152 -77 -201c-53 -50 -128 -75 -225 -75
s-171 25 -224 75c-51 49 -77 116 -77 201v407c0 28 14 42 42 42h113c29 0 43 -14 43 -42z" />
    <glyph glyph-name="Ugrave" unicode="&#xd9;" horiz-adv-x="692" 
d="M222 854l51 60c15 18 37 19 66 3l141 -83c16 -9 17 -21 3 -38l-28 -34c-8 -10 -23 -11 -46 -4l-181 56c-20 7 -22 20 -6 40zM243 668v-416c0 -61 34 -92 103 -92s104 31 104 92v416c0 28 14 42 42 42h113c29 0 43 -14 43 -42v-407c0 -85 -26 -152 -77 -201
c-53 -50 -128 -75 -225 -75s-171 25 -224 75c-51 49 -77 116 -77 201v407c0 28 14 42 42 42h113c29 0 43 -14 43 -42z" />
    <glyph glyph-name="Uhungarumlaut" unicode="&#x170;" horiz-adv-x="692" 
d="M163 802l71 95c16 23 38 31 65 26l67 -15c13 -3 21 -8 23 -17c2 -8 -2 -16 -12 -25l-113 -95c-16 -13 -31 -18 -44 -15l-44 8c-23 5 -28 17 -13 38zM357 801l76 96c18 23 40 31 65 24l70 -18c13 -4 21 -10 23 -18c2 -9 -2 -17 -13 -25l-121 -92c-17 -13 -32 -18 -45 -15
l-44 10c-24 5 -28 17 -11 38zM243 668v-416c0 -61 34 -92 103 -92s104 31 104 92v416c0 28 14 42 42 42h113c29 0 43 -14 43 -42v-407c0 -85 -26 -152 -77 -201c-53 -50 -128 -75 -225 -75s-171 25 -224 75c-51 49 -77 116 -77 201v407c0 28 14 42 42 42h113
c29 0 43 -14 43 -42z" />
    <glyph glyph-name="Umacron" unicode="&#x16a;" horiz-adv-x="692" 
d="M224 892h244c15 0 24 -2 29 -7s7 -14 7 -29v-42c0 -15 -2 -24 -7 -29s-14 -7 -29 -7h-244c-14 0 -23 2 -28 7s-8 14 -8 29v42c0 24 12 36 36 36zM243 668v-416c0 -61 34 -92 103 -92s104 31 104 92v416c0 28 14 42 42 42h113c29 0 43 -14 43 -42v-407
c0 -85 -26 -152 -77 -201c-53 -50 -128 -75 -225 -75s-171 25 -224 75c-51 49 -77 116 -77 201v407c0 28 14 42 42 42h113c29 0 43 -14 43 -42z" />
    <glyph glyph-name="Uogonek" unicode="&#x172;" horiz-adv-x="692" 
d="M492 710h113c29 0 43 -14 43 -42v-407c0 -90 -29 -160 -86 -209c-73 -72 -106 -128 -101 -168c2 -12 8 -18 19 -18c5 0 11 2 18 6c11 7 19 5 24 -6l20 -47c5 -13 4 -23 -5 -30c-31 -23 -68 -35 -112 -35c-59 0 -92 21 -100 64c-11 52 11 108 64 169c-9 -1 -24 -2 -43 -2
c-97 0 -171 25 -224 75c-51 49 -77 116 -77 201v407c0 28 14 42 42 42h113c29 0 43 -14 43 -42v-416c0 -61 34 -92 103 -92s104 31 104 92v416c0 28 14 42 42 42z" />
    <glyph glyph-name="Uring" unicode="&#x16e;" horiz-adv-x="692" 
d="M217 855c0 36 12 65 37 86c24 21 55 31 94 31c38 0 69 -10 92 -31c23 -22 35 -51 35 -86s-12 -64 -36 -85c-23 -21 -54 -31 -91 -31c-39 0 -70 10 -94 31c-25 21 -37 49 -37 85zM382 855c0 24 -11 36 -34 36c-25 0 -38 -12 -38 -36c0 -23 13 -34 38 -34c23 0 34 11 34 34
zM243 668v-416c0 -61 34 -92 103 -92s104 31 104 92v416c0 28 14 42 42 42h113c29 0 43 -14 43 -42v-407c0 -85 -26 -152 -77 -201c-53 -50 -128 -75 -225 -75s-171 25 -224 75c-51 49 -77 116 -77 201v407c0 28 14 42 42 42h113c29 0 43 -14 43 -42z" />
    <glyph glyph-name="Utilde" unicode="&#x168;" horiz-adv-x="692" 
d="M432 909h61c15 0 23 -8 23 -23c0 -45 -8 -77 -25 -96c-15 -18 -40 -27 -73 -27c-28 0 -55 7 -82 21s-44 21 -51 21c-9 0 -14 -7 -14 -22c0 -13 -7 -20 -20 -20h-61c-15 0 -23 8 -23 23c0 82 32 123 96 123c29 0 57 -7 84 -20c27 -14 44 -21 51 -21c10 0 15 7 15 22
c0 13 6 19 19 19zM243 668v-416c0 -61 34 -92 103 -92s104 31 104 92v416c0 28 14 42 42 42h113c29 0 43 -14 43 -42v-407c0 -85 -26 -152 -77 -201c-53 -50 -128 -75 -225 -75s-171 25 -224 75c-51 49 -77 116 -77 201v407c0 28 14 42 42 42h113c29 0 43 -14 43 -42z" />
    <glyph glyph-name="V" unicode="V" horiz-adv-x="682" 
d="M537 710h113c28 0 37 -14 27 -41l-221 -634c-8 -23 -25 -35 -52 -35h-125c-27 0 -45 11 -52 33l-222 636c-10 27 0 41 29 41h114c43 0 68 -14 75 -42l95 -342c11 -39 18 -82 22 -129h9c3 46 10 89 21 128l95 343c7 28 31 42 72 42z" />
    <glyph glyph-name="W" unicode="W" horiz-adv-x="939" 
d="M787 710h111c15 0 24 -3 28 -10c3 -6 3 -16 -1 -31l-159 -634c-5 -23 -22 -35 -51 -35h-117c-29 0 -47 11 -52 33l-54 233c-11 56 -18 116 -19 180h-8c-2 -62 -9 -122 -22 -180l-53 -231c-7 -23 -24 -35 -52 -35h-115c-30 0 -47 11 -52 33l-158 636c-4 15 -4 25 -1 31
c4 7 13 10 28 10h123c33 0 51 -12 56 -37l44 -262c9 -54 14 -113 14 -177h7c0 61 6 120 19 177l62 262c5 25 24 37 56 37h108c32 0 51 -12 56 -37l61 -262c11 -49 17 -108 19 -177h8c2 65 7 124 15 177l42 262c5 25 24 37 57 37z" />
    <glyph glyph-name="Wacute" unicode="&#x1e82;" horiz-adv-x="939" 
d="M344 833l141 81c28 16 50 15 66 -3l51 -58c17 -19 15 -33 -6 -40l-181 -56c-23 -7 -39 -5 -46 5l-28 33c-13 17 -12 29 3 38zM787 710h111c15 0 24 -3 28 -10c3 -6 3 -16 -1 -31l-159 -634c-5 -23 -22 -35 -51 -35h-117c-29 0 -47 11 -52 33l-54 233
c-11 56 -18 116 -19 180h-8c-2 -62 -9 -122 -22 -180l-53 -231c-7 -23 -24 -35 -52 -35h-115c-30 0 -47 11 -52 33l-158 636c-4 15 -4 25 -1 31c4 7 13 10 28 10h123c33 0 51 -12 56 -37l44 -262c9 -54 14 -113 14 -177h7c0 61 6 120 19 177l62 262c5 25 24 37 56 37h108
c32 0 51 -12 56 -37l61 -262c11 -49 17 -108 19 -177h8c2 65 7 124 15 177l42 262c5 25 24 37 57 37z" />
    <glyph glyph-name="Wcircumflex" unicode="&#x174;" horiz-adv-x="939" 
d="M463 920h32c27 0 51 -10 72 -30l102 -102c9 -9 12 -16 11 -23c-2 -7 -11 -11 -26 -11h-84c-34 0 -56 7 -66 21l-29 36l-31 -35c-13 -15 -35 -22 -66 -22h-78c-15 0 -24 4 -26 11c-1 7 2 14 11 23l102 102c19 20 45 30 76 30zM787 710h111c15 0 24 -3 28 -10
c3 -6 3 -16 -1 -31l-159 -634c-5 -23 -22 -35 -51 -35h-117c-29 0 -47 11 -52 33l-54 233c-11 56 -18 116 -19 180h-8c-2 -62 -9 -122 -22 -180l-53 -231c-7 -23 -24 -35 -52 -35h-115c-30 0 -47 11 -52 33l-158 636c-4 15 -4 25 -1 31c4 7 13 10 28 10h123
c33 0 51 -12 56 -37l44 -262c9 -54 14 -113 14 -177h7c0 61 6 120 19 177l62 262c5 25 24 37 56 37h108c32 0 51 -12 56 -37l61 -262c11 -49 17 -108 19 -177h8c2 65 7 124 15 177l42 262c5 25 24 37 57 37z" />
    <glyph glyph-name="Wdieresis" unicode="&#x1e84;" horiz-adv-x="939" 
d="M363 914h8c27 0 46 -5 57 -15c11 -11 16 -29 16 -56v-13c0 -27 -5 -45 -16 -55c-11 -11 -30 -16 -57 -16h-8c-27 0 -46 5 -57 16c-10 10 -15 28 -15 55v13c0 27 5 46 15 56c11 10 30 15 57 15zM579 914h7c27 0 46 -5 57 -15c10 -10 15 -29 15 -56v-13
c0 -27 -5 -45 -15 -55c-11 -11 -30 -16 -57 -16h-7c-28 0 -47 5 -58 16c-11 10 -16 28 -16 55v13c0 27 5 45 16 56c11 10 30 15 58 15zM787 710h111c15 0 24 -3 28 -10c3 -6 3 -16 -1 -31l-159 -634c-5 -23 -22 -35 -51 -35h-117c-29 0 -47 11 -52 33l-54 233
c-11 56 -18 116 -19 180h-8c-2 -62 -9 -122 -22 -180l-53 -231c-7 -23 -24 -35 -52 -35h-115c-30 0 -47 11 -52 33l-158 636c-4 15 -4 25 -1 31c4 7 13 10 28 10h123c33 0 51 -12 56 -37l44 -262c9 -54 14 -113 14 -177h7c0 61 6 120 19 177l62 262c5 25 24 37 56 37h108
c32 0 51 -12 56 -37l61 -262c11 -49 17 -108 19 -177h8c2 65 7 124 15 177l42 262c5 25 24 37 57 37z" />
    <glyph glyph-name="Wgrave" unicode="&#x1e80;" horiz-adv-x="939" 
d="M351 854l51 60c15 18 37 19 66 3l141 -83c16 -9 17 -21 2 -38l-27 -34c-9 -10 -24 -11 -46 -4l-182 56c-19 7 -21 20 -5 40zM787 710h111c15 0 24 -3 28 -10c3 -6 3 -16 -1 -31l-159 -634c-5 -23 -22 -35 -51 -35h-117c-29 0 -47 11 -52 33l-54 233
c-11 56 -18 116 -19 180h-8c-2 -62 -9 -122 -22 -180l-53 -231c-7 -23 -24 -35 -52 -35h-115c-30 0 -47 11 -52 33l-158 636c-4 15 -4 25 -1 31c4 7 13 10 28 10h123c33 0 51 -12 56 -37l44 -262c9 -54 14 -113 14 -177h7c0 61 6 120 19 177l62 262c5 25 24 37 56 37h108
c32 0 51 -12 56 -37l61 -262c11 -49 17 -108 19 -177h8c2 65 7 124 15 177l42 262c5 25 24 37 57 37z" />
    <glyph glyph-name="X" unicode="X" horiz-adv-x="664" 
d="M446 362l208 -320c8 -11 10 -21 7 -29c-3 -9 -13 -13 -28 -13h-129c-26 0 -44 2 -53 6c-10 4 -20 14 -29 31l-95 164l-92 -164c-10 -16 -19 -26 -28 -30c-10 -5 -28 -7 -55 -7h-123c-15 0 -24 4 -28 12c-3 8 -1 18 7 30l205 320l-196 308c-7 11 -9 21 -6 28
c4 8 13 12 27 12h119c27 0 45 -2 54 -6c10 -4 20 -14 29 -29l90 -154l89 154c9 16 19 26 28 30c9 3 25 5 49 5h128c13 0 22 -4 26 -12c3 -7 1 -17 -6 -28z" />
    <glyph glyph-name="Y" unicode="Y" horiz-adv-x="675" 
d="M532 710h115c30 0 37 -14 21 -42l-231 -393v-233c0 -28 -14 -42 -42 -42h-113c-29 0 -43 14 -43 42v233l-230 393c-17 28 -10 42 21 42h120c27 0 44 -2 53 -5c11 -5 21 -15 30 -32l107 -204l110 204c9 17 19 27 30 32c9 3 26 5 52 5z" />
    <glyph glyph-name="Yacute" unicode="&#xdd;" horiz-adv-x="675" 
d="M211 833l141 81c28 16 50 15 66 -3l51 -58c16 -19 14 -33 -6 -40l-181 -56c-23 -7 -39 -5 -46 5l-28 33c-13 17 -12 29 3 38zM532 710h115c30 0 37 -14 21 -42l-231 -393v-233c0 -28 -14 -42 -42 -42h-113c-29 0 -43 14 -43 42v233l-230 393c-17 28 -10 42 21 42h120
c27 0 44 -2 53 -5c11 -5 21 -15 30 -32l107 -204l110 204c9 17 19 27 30 32c9 3 26 5 52 5z" />
    <glyph glyph-name="Ycircumflex" unicode="&#x176;" horiz-adv-x="675" 
d="M330 920h32c27 0 51 -10 71 -30l103 -102c9 -9 12 -16 11 -23c-2 -7 -11 -11 -26 -11h-84c-33 0 -56 7 -67 21l-28 36l-32 -35c-12 -15 -34 -22 -65 -22h-78c-15 0 -24 4 -26 11s1 14 10 23l102 102c20 20 46 30 77 30zM532 710h115c30 0 37 -14 21 -42l-231 -393v-233
c0 -28 -14 -42 -42 -42h-113c-29 0 -43 14 -43 42v233l-230 393c-17 28 -10 42 21 42h120c27 0 44 -2 53 -5c11 -5 21 -15 30 -32l107 -204l110 204c9 17 19 27 30 32c9 3 26 5 52 5z" />
    <glyph glyph-name="Ydieresis" unicode="&#x178;" horiz-adv-x="675" 
d="M230 914h8c27 0 46 -5 57 -15c11 -11 16 -29 16 -56v-13c0 -27 -5 -45 -16 -55c-11 -11 -30 -16 -57 -16h-8c-28 0 -47 5 -57 16c-10 10 -15 28 -15 55v13c0 27 5 46 15 56s29 15 57 15zM446 914h7c27 0 46 -5 57 -15c10 -10 15 -29 15 -56v-13c0 -27 -5 -45 -15 -55
c-11 -11 -30 -16 -57 -16h-7c-28 0 -47 5 -58 16c-11 10 -16 28 -16 55v13c0 27 5 45 16 56c11 10 30 15 58 15zM532 710h115c30 0 37 -14 21 -42l-231 -393v-233c0 -28 -14 -42 -42 -42h-113c-29 0 -43 14 -43 42v233l-230 393c-17 28 -10 42 21 42h120c27 0 44 -2 53 -5
c11 -5 21 -15 30 -32l107 -204l110 204c9 17 19 27 30 32c9 3 26 5 52 5z" />
    <glyph glyph-name="Ygrave" unicode="&#x1ef2;" horiz-adv-x="675" 
d="M218 854l51 60c15 18 37 19 66 3l141 -83c16 -9 17 -21 2 -38l-27 -34c-9 -10 -24 -11 -46 -4l-182 56c-19 7 -21 20 -5 40zM532 710h115c30 0 37 -14 21 -42l-231 -393v-233c0 -28 -14 -42 -42 -42h-113c-29 0 -43 14 -43 42v233l-230 393c-17 28 -10 42 21 42h120
c27 0 44 -2 53 -5c11 -5 21 -15 30 -32l107 -204l110 204c9 17 19 27 30 32c9 3 26 5 52 5z" />
    <glyph glyph-name="Z" unicode="Z" horiz-adv-x="611" 
d="M73 710h464c28 0 42 -14 42 -42v-60c0 -17 -4 -31 -13 -44l-277 -389h253c28 0 42 -14 42 -42v-91c0 -28 -14 -42 -42 -42h-474c-28 0 -42 14 -42 42v61c0 15 5 29 14 42l277 390h-244c-28 0 -42 14 -42 43v90c0 28 14 42 42 42z" />
    <glyph glyph-name="Zacute" unicode="&#x179;" horiz-adv-x="611" 
d="M180 833l141 81c28 16 50 15 66 -3l51 -58c17 -19 16 -33 -5 -40l-182 -56c-23 -7 -38 -5 -46 5l-27 33c-14 17 -13 29 2 38zM73 710h464c28 0 42 -14 42 -42v-60c0 -17 -4 -31 -13 -44l-277 -389h253c28 0 42 -14 42 -42v-91c0 -28 -14 -42 -42 -42h-474
c-28 0 -42 14 -42 42v61c0 15 5 29 14 42l277 390h-244c-28 0 -42 14 -42 43v90c0 28 14 42 42 42z" />
    <glyph glyph-name="Zcaron" unicode="&#x17d;" horiz-adv-x="611" 
d="M411 920h76c15 0 23 -4 24 -11s-2 -15 -11 -24l-101 -102c-19 -19 -44 -29 -74 -29h-28c-29 0 -54 10 -73 29l-101 102c-9 9 -13 17 -12 24s9 11 24 11h84c31 0 53 -7 66 -22l30 -34l30 34c13 15 35 22 66 22zM73 710h464c28 0 42 -14 42 -42v-60c0 -17 -4 -31 -13 -44
l-277 -389h253c28 0 42 -14 42 -42v-91c0 -28 -14 -42 -42 -42h-474c-28 0 -42 14 -42 42v61c0 15 5 29 14 42l277 390h-244c-28 0 -42 14 -42 43v90c0 28 14 42 42 42z" />
    <glyph glyph-name="Zdotaccent" unicode="&#x17b;" horiz-adv-x="611" 
d="M308 915h6c29 0 49 -5 59 -16c11 -10 16 -30 16 -59v-8c0 -29 -5 -48 -16 -59c-10 -11 -30 -16 -59 -16h-6c-29 0 -48 5 -59 16s-16 30 -16 59v8c0 29 5 49 16 59c11 11 30 16 59 16zM73 710h464c28 0 42 -14 42 -42v-60c0 -17 -4 -31 -13 -44l-277 -389h253
c28 0 42 -14 42 -42v-91c0 -28 -14 -42 -42 -42h-474c-28 0 -42 14 -42 42v61c0 15 5 29 14 42l277 390h-244c-28 0 -42 14 -42 43v90c0 28 14 42 42 42z" />
    <glyph glyph-name="a" unicode="a" 
d="M40 431c36 69 110 104 222 104c155 0 233 -72 233 -216v-246c0 -30 -13 -50 -38 -60c-44 -19 -110 -28 -198 -28c-91 0 -154 14 -189 41c-33 25 -49 66 -49 125c0 63 19 107 57 132c36 23 98 35 186 35l45 -1v25c0 34 -19 51 -56 51c-27 0 -48 -11 -65 -34
c-13 -18 -32 -22 -55 -13l-72 30c-27 12 -34 30 -21 55zM309 120v71c-9 1 -26 1 -53 1c-35 0 -53 -13 -53 -40s17 -40 51 -40c23 0 40 1 50 3c3 0 5 2 5 5z" />
    <glyph glyph-name="aacute" unicode="&#xe1;" 
d="M132 650l139 84c27 17 49 16 66 -2l53 -56c17 -19 15 -33 -5 -40l-181 -60c-23 -8 -38 -7 -46 3l-28 33c-14 17 -13 29 2 38zM40 431c36 69 110 104 222 104c155 0 233 -72 233 -216v-246c0 -30 -13 -50 -38 -60c-44 -19 -110 -28 -198 -28c-91 0 -154 14 -189 41
c-33 25 -49 66 -49 125c0 63 19 107 57 132c36 23 98 35 186 35l45 -1v25c0 34 -19 51 -56 51c-27 0 -48 -11 -65 -34c-13 -18 -32 -22 -55 -13l-72 30c-27 12 -34 30 -21 55zM309 120v71c-9 1 -26 1 -53 1c-35 0 -53 -13 -53 -40s17 -40 51 -40c23 0 40 1 50 3c3 0 5 2 5 5
z" />
    <glyph glyph-name="abreve" unicode="&#x103;" 
d="M440 680c-27 -71 -86 -106 -178 -106c-91 0 -149 35 -176 106c-6 16 0 28 18 35l65 25c17 6 30 2 39 -12c11 -22 29 -33 54 -33c24 0 42 11 55 33c8 13 20 17 35 12l71 -25c17 -7 23 -19 17 -35zM40 431c36 69 110 104 222 104c155 0 233 -72 233 -216v-246
c0 -30 -13 -50 -38 -60c-44 -19 -110 -28 -198 -28c-91 0 -154 14 -189 41c-33 25 -49 66 -49 125c0 63 19 107 57 132c36 23 98 35 186 35l45 -1v25c0 34 -19 51 -56 51c-27 0 -48 -11 -65 -34c-13 -18 -32 -22 -55 -13l-72 30c-27 12 -34 30 -21 55zM309 120v71
c-9 1 -26 1 -53 1c-35 0 -53 -13 -53 -40s17 -40 51 -40c23 0 40 1 50 3c3 0 5 2 5 5z" />
    <glyph glyph-name="acircumflex" unicode="&#xe2;" 
d="M256 740h27c28 0 52 -10 71 -29l103 -102c9 -9 12 -16 11 -23c-2 -8 -11 -12 -26 -12h-84c-33 0 -56 7 -67 22l-29 35l-31 -35c-13 -15 -35 -22 -65 -22h-74c-15 0 -24 4 -25 12c-2 7 1 14 10 23l102 102c20 19 46 29 77 29zM40 431c36 69 110 104 222 104
c155 0 233 -72 233 -216v-246c0 -30 -13 -50 -38 -60c-44 -19 -110 -28 -198 -28c-91 0 -154 14 -189 41c-33 25 -49 66 -49 125c0 63 19 107 57 132c36 23 98 35 186 35l45 -1v25c0 34 -19 51 -56 51c-27 0 -48 -11 -65 -34c-13 -18 -32 -22 -55 -13l-72 30
c-27 12 -34 30 -21 55zM309 120v71c-9 1 -26 1 -53 1c-35 0 -53 -13 -53 -40s17 -40 51 -40c23 0 40 1 50 3c3 0 5 2 5 5z" />
    <glyph glyph-name="adieresis" unicode="&#xe4;" 
d="M151 733h7c28 0 47 -5 58 -15c11 -11 16 -29 16 -56v-13c0 -27 -5 -45 -16 -56s-30 -16 -58 -16h-7c-27 0 -46 5 -57 16c-10 11 -15 29 -15 56v13c0 27 5 46 15 56s29 15 57 15zM366 733h7c28 0 47 -5 58 -15c10 -10 15 -29 15 -56v-13c0 -27 -5 -45 -15 -56
c-11 -11 -30 -16 -58 -16h-7c-27 0 -46 5 -57 16s-16 29 -16 56v13c0 27 5 45 16 56c11 10 30 15 57 15zM40 431c36 69 110 104 222 104c155 0 233 -72 233 -216v-246c0 -30 -13 -50 -38 -60c-44 -19 -110 -28 -198 -28c-91 0 -154 14 -189 41c-33 25 -49 66 -49 125
c0 63 19 107 57 132c36 23 98 35 186 35l45 -1v25c0 34 -19 51 -56 51c-27 0 -48 -11 -65 -34c-13 -18 -32 -22 -55 -13l-72 30c-27 12 -34 30 -21 55zM309 120v71c-9 1 -26 1 -53 1c-35 0 -53 -13 -53 -40s17 -40 51 -40c23 0 40 1 50 3c3 0 5 2 5 5z" />
    <glyph glyph-name="agrave" unicode="&#xe0;" 
d="M139 676l53 56c17 18 39 19 66 2l139 -84c15 -9 16 -21 2 -38l-29 -33c-7 -10 -23 -11 -46 -3l-180 60c-21 7 -22 21 -5 40zM40 431c36 69 110 104 222 104c155 0 233 -72 233 -216v-246c0 -30 -13 -50 -38 -60c-44 -19 -110 -28 -198 -28c-91 0 -154 14 -189 41
c-33 25 -49 66 -49 125c0 63 19 107 57 132c36 23 98 35 186 35l45 -1v25c0 34 -19 51 -56 51c-27 0 -48 -11 -65 -34c-13 -18 -32 -22 -55 -13l-72 30c-27 12 -34 30 -21 55zM309 120v71c-9 1 -26 1 -53 1c-35 0 -53 -13 -53 -40s17 -40 51 -40c23 0 40 1 50 3c3 0 5 2 5 5
z" />
    <glyph glyph-name="amacron" unicode="&#x101;" 
d="M140 710h244c15 0 24 -2 29 -7s7 -14 7 -29v-42c0 -15 -2 -24 -7 -29s-14 -7 -29 -7h-244c-14 0 -23 2 -28 7s-8 14 -8 29v42c0 24 12 36 36 36zM40 431c36 69 110 104 222 104c155 0 233 -72 233 -216v-246c0 -30 -13 -50 -38 -60c-44 -19 -110 -28 -198 -28
c-91 0 -154 14 -189 41c-33 25 -49 66 -49 125c0 63 19 107 57 132c36 23 98 35 186 35l45 -1v25c0 34 -19 51 -56 51c-27 0 -48 -11 -65 -34c-13 -18 -32 -22 -55 -13l-72 30c-27 12 -34 30 -21 55zM309 120v71c-9 1 -26 1 -53 1c-35 0 -53 -13 -53 -40s17 -40 51 -40
c23 0 40 1 50 3c3 0 5 2 5 5z" />
    <glyph glyph-name="aogonek" unicode="&#x105;" horiz-adv-x="530" 
d="M40 431c36 69 110 104 222 104c155 0 233 -72 233 -216v-246c0 -21 -4 -36 -12 -45c-51 -59 -75 -107 -70 -144c2 -12 8 -18 19 -18c5 0 11 2 18 6c11 7 19 5 24 -6l20 -47c5 -13 4 -23 -5 -30c-30 -23 -67 -35 -112 -35c-62 0 -97 22 -106 67c-11 52 11 108 66 168
c-29 -3 -55 -4 -78 -4c-91 0 -154 14 -189 41c-33 25 -49 66 -49 125c0 63 19 107 57 132c36 23 98 35 186 35l45 -1v25c0 34 -19 51 -56 51c-27 0 -48 -11 -65 -34c-13 -18 -32 -22 -55 -13l-72 30c-27 12 -34 30 -21 55zM309 120v71c-9 1 -26 1 -53 1
c-35 0 -53 -13 -53 -40s17 -40 51 -40c23 0 40 1 50 3c3 0 5 2 5 5z" />
    <glyph glyph-name="aring" unicode="&#xe5;" 
d="M134 680c0 36 12 65 37 86c23 21 54 31 93 31c38 0 69 -10 92 -31c24 -22 36 -51 36 -86s-12 -64 -36 -85c-23 -21 -54 -31 -92 -31s-69 10 -93 31c-25 21 -37 49 -37 85zM299 680c0 24 -12 36 -35 36c-25 0 -38 -12 -38 -36c0 -23 13 -34 38 -34c23 0 35 11 35 34z
M40 431c36 69 110 104 222 104c155 0 233 -72 233 -216v-246c0 -30 -13 -50 -38 -60c-44 -19 -110 -28 -198 -28c-91 0 -154 14 -189 41c-33 25 -49 66 -49 125c0 63 19 107 57 132c36 23 98 35 186 35l45 -1v25c0 34 -19 51 -56 51c-27 0 -48 -11 -65 -34
c-13 -18 -32 -22 -55 -13l-72 30c-27 12 -34 30 -21 55zM309 120v71c-9 1 -26 1 -53 1c-35 0 -53 -13 -53 -40s17 -40 51 -40c23 0 40 1 50 3c3 0 5 2 5 5z" />
    <glyph glyph-name="aringacute" unicode="&#x1fb;" 
d="M141 854l130 63c26 12 47 11 62 -2l49 -41c17 -15 15 -25 -4 -30l-169 -45c-21 -6 -35 -5 -43 3l-27 24c-13 12 -12 21 2 28zM134 671c0 35 12 63 36 84c23 20 53 30 91 30c37 0 66 -10 89 -31s34 -48 34 -83s-11 -62 -34 -82s-52 -30 -89 -30c-38 0 -68 10 -91 29
c-24 21 -36 48 -36 83zM294 671c0 23 -11 35 -33 35c-25 0 -37 -12 -37 -35c0 -22 12 -33 37 -33c22 0 33 11 33 33zM40 431c36 69 110 104 222 104c155 0 233 -72 233 -216v-246c0 -30 -13 -50 -38 -60c-44 -19 -110 -28 -198 -28c-91 0 -154 14 -189 41
c-33 25 -49 66 -49 125c0 63 19 107 57 132c36 23 98 35 186 35l45 -1v25c0 34 -19 51 -56 51c-27 0 -48 -11 -65 -34c-13 -18 -32 -22 -55 -13l-72 30c-27 12 -34 30 -21 55zM309 120v71c-9 1 -26 1 -53 1c-35 0 -53 -13 -53 -40s17 -40 51 -40c23 0 40 1 50 3c3 0 5 2 5 5
z" />
    <glyph glyph-name="atilde" unicode="&#xe3;" 
d="M348 731h61c15 0 23 -8 23 -23c0 -45 -8 -78 -25 -97c-15 -17 -40 -26 -73 -26c-28 0 -55 7 -81 21c-27 13 -44 20 -52 20c-9 0 -14 -7 -14 -22c0 -13 -6 -19 -19 -19h-62c-15 0 -23 8 -23 23c0 82 32 123 96 123c29 0 57 -7 84 -21s45 -21 52 -21c9 0 14 7 14 22
c0 13 6 20 19 20zM40 431c36 69 110 104 222 104c155 0 233 -72 233 -216v-246c0 -30 -13 -50 -38 -60c-44 -19 -110 -28 -198 -28c-91 0 -154 14 -189 41c-33 25 -49 66 -49 125c0 63 19 107 57 132c36 23 98 35 186 35l45 -1v25c0 34 -19 51 -56 51c-27 0 -48 -11 -65 -34
c-13 -18 -32 -22 -55 -13l-72 30c-27 12 -34 30 -21 55zM309 120v71c-9 1 -26 1 -53 1c-35 0 -53 -13 -53 -40s17 -40 51 -40c23 0 40 1 50 3c3 0 5 2 5 5z" />
    <glyph glyph-name="ae" unicode="&#xe6;" horiz-adv-x="781" 
d="M41 431c36 69 106 104 210 104c53 0 97 -13 132 -38c37 25 82 38 135 38c81 0 143 -21 185 -64c37 -39 56 -90 56 -155v-55c0 -35 -18 -52 -55 -52h-242v-24c0 -40 19 -60 57 -60c29 0 52 13 70 38c14 20 33 24 57 11l67 -33c27 -13 34 -32 19 -58
c-37 -65 -108 -98 -215 -98c-43 0 -82 9 -116 27c-43 -18 -94 -27 -153 -27c-89 0 -150 14 -183 41c-29 24 -43 66 -43 125c0 64 17 108 52 132c33 23 92 35 178 35l39 -1v31c0 30 -16 45 -48 45c-22 0 -41 -12 -56 -36c-11 -17 -27 -20 -50 -11l-75 30
c-27 12 -34 30 -21 55zM572 330v13c0 40 -18 60 -54 60c-37 0 -55 -20 -55 -60v-13h109zM292 116v75c-7 1 -22 1 -45 1c-29 0 -43 -13 -43 -40s14 -40 41 -40c20 0 36 1 47 4z" />
    <glyph glyph-name="aeacute" unicode="&#x1fd;" horiz-adv-x="781" 
d="M250 650l139 84c27 17 49 16 66 -2l53 -56c17 -19 16 -33 -5 -40l-180 -60c-23 -8 -39 -7 -46 3l-29 33c-14 17 -13 29 2 38zM41 431c36 69 106 104 210 104c53 0 97 -13 132 -38c37 25 82 38 135 38c81 0 143 -21 185 -64c37 -39 56 -90 56 -155v-55
c0 -35 -18 -52 -55 -52h-242v-24c0 -40 19 -60 57 -60c29 0 52 13 70 38c14 20 33 24 57 11l67 -33c27 -13 34 -32 19 -58c-37 -65 -108 -98 -215 -98c-43 0 -82 9 -116 27c-43 -18 -94 -27 -153 -27c-89 0 -150 14 -183 41c-29 24 -43 66 -43 125c0 64 17 108 52 132
c33 23 92 35 178 35l39 -1v31c0 30 -16 45 -48 45c-22 0 -41 -12 -56 -36c-11 -17 -27 -20 -50 -11l-75 30c-27 12 -34 30 -21 55zM572 330v13c0 40 -18 60 -54 60c-37 0 -55 -20 -55 -60v-13h109zM292 116v75c-7 1 -22 1 -45 1c-29 0 -43 -13 -43 -40s14 -40 41 -40
c20 0 36 1 47 4z" />
    <glyph glyph-name="b" unicode="b" horiz-adv-x="548" 
d="M79 739h109c26 0 39 -13 39 -38v-172c28 4 51 6 68 6c150 0 225 -72 225 -215v-108c0 -151 -81 -227 -244 -227c-79 0 -144 11 -197 34c-17 8 -27 16 -32 23s-7 19 -7 36v623c0 25 13 38 39 38zM334 202v122c0 33 -19 50 -57 50c-12 0 -29 -2 -50 -7v-210c0 -3 1 -4 2 -5
c9 -3 24 -5 43 -5c41 0 62 18 62 55z" />
    <glyph glyph-name="c" unicode="c" horiz-adv-x="522" 
d="M28 206v109c0 147 83 220 248 220c118 0 193 -46 225 -139c9 -27 0 -45 -27 -54l-93 -31c-26 -9 -44 0 -55 27s-30 41 -59 41c-35 0 -53 -18 -53 -54v-130c0 -36 18 -54 53 -54c29 0 48 14 59 41c6 15 13 24 20 28c8 3 20 2 35 -3l96 -29c29 -9 37 -27 26 -55
c-38 -92 -117 -138 -238 -138c-158 0 -237 74 -237 221z" />
    <glyph glyph-name="cacute" unicode="&#x107;" horiz-adv-x="522" 
d="M142 650l139 84c27 17 49 16 66 -2l53 -56c17 -19 15 -33 -5 -40l-180 -60c-23 -8 -39 -7 -47 3l-28 33c-14 17 -13 29 2 38zM28 206v109c0 147 83 220 248 220c118 0 193 -46 225 -139c9 -27 0 -45 -27 -54l-93 -31c-26 -9 -44 0 -55 27s-30 41 -59 41
c-35 0 -53 -18 -53 -54v-130c0 -36 18 -54 53 -54c29 0 48 14 59 41c6 15 13 24 20 28c8 3 20 2 35 -3l96 -29c29 -9 37 -27 26 -55c-38 -92 -117 -138 -238 -138c-158 0 -237 74 -237 221z" />
    <glyph glyph-name="ccaron" unicode="&#x10d;" horiz-adv-x="522" 
d="M364 723h70c13 0 21 -3 22 -10s-3 -14 -11 -22l-91 -94c-18 -19 -41 -28 -69 -28h-25c-27 0 -49 9 -67 28l-92 94c-9 9 -12 16 -11 22c1 7 8 10 22 10h76c29 0 49 -7 61 -20l28 -32l27 31c12 14 32 21 60 21zM28 206v109c0 147 83 220 248 220c118 0 193 -46 225 -139
c9 -27 0 -45 -27 -54l-93 -31c-26 -9 -44 0 -55 27s-30 41 -59 41c-35 0 -53 -18 -53 -54v-130c0 -36 18 -54 53 -54c29 0 48 14 59 41c6 15 13 24 20 28c8 3 20 2 35 -3l96 -29c29 -9 37 -27 26 -55c-38 -92 -117 -138 -238 -138c-158 0 -237 74 -237 221z" />
    <glyph glyph-name="ccedilla" unicode="&#xe7;" horiz-adv-x="522" 
d="M381 207l96 -29c29 -9 37 -27 26 -55c-31 -75 -90 -120 -177 -134l-13 -35h9c28 -1 50 -11 65 -30c15 -18 20 -41 17 -69c-7 -67 -57 -100 -150 -100c-29 0 -54 4 -75 11c-17 7 -26 17 -26 31v42c0 21 10 27 31 16c19 -10 37 -15 56 -15c22 0 33 8 33 23
c0 14 -14 21 -42 22h-20c-18 0 -23 10 -14 30l32 72c-134 11 -201 84 -201 219v109c0 147 83 220 248 220c118 0 193 -46 225 -139c9 -27 0 -45 -27 -54l-93 -31c-26 -9 -44 0 -55 27s-30 41 -59 41c-35 0 -53 -18 -53 -54v-130c0 -36 18 -54 53 -54c29 0 48 14 59 41
c6 15 13 24 20 28c8 3 20 2 35 -3z" />
    <glyph glyph-name="ccircumflex" unicode="&#x109;" horiz-adv-x="522" 
d="M266 735h27c27 0 50 -10 69 -29l100 -99c9 -9 12 -16 11 -23c-2 -7 -10 -11 -25 -11h-82c-33 0 -54 7 -65 21l-29 35l-30 -34c-13 -15 -34 -22 -64 -22h-72c-15 0 -23 4 -25 11s1 14 10 23l100 99c19 19 44 29 75 29zM28 206v109c0 147 83 220 248 220
c118 0 193 -46 225 -139c9 -27 0 -45 -27 -54l-93 -31c-26 -9 -44 0 -55 27s-30 41 -59 41c-35 0 -53 -18 -53 -54v-130c0 -36 18 -54 53 -54c29 0 48 14 59 41c6 15 13 24 20 28c8 3 20 2 35 -3l96 -29c29 -9 37 -27 26 -55c-38 -92 -117 -138 -238 -138
c-158 0 -237 74 -237 221z" />
    <glyph glyph-name="cdotaccent" unicode="&#x10b;" horiz-adv-x="522" 
d="M270 736h6c29 0 48 -5 59 -16c10 -10 15 -30 15 -59v-8c0 -29 -5 -49 -15 -59c-11 -11 -30 -16 -59 -16h-6c-29 0 -49 5 -60 16c-11 10 -16 30 -16 59v8c0 29 5 49 16 59c11 11 31 16 60 16zM28 206v109c0 147 83 220 248 220c118 0 193 -46 225 -139
c9 -27 0 -45 -27 -54l-93 -31c-26 -9 -44 0 -55 27s-30 41 -59 41c-35 0 -53 -18 -53 -54v-130c0 -36 18 -54 53 -54c29 0 48 14 59 41c6 15 13 24 20 28c8 3 20 2 35 -3l96 -29c29 -9 37 -27 26 -55c-38 -92 -117 -138 -238 -138c-158 0 -237 74 -237 221z" />
    <glyph glyph-name="d" unicode="d" horiz-adv-x="548" 
d="M28 201v108c0 151 75 226 226 226c7 0 29 -1 67 -3v170c0 25 13 38 39 38h109c26 0 39 -13 39 -38v-625c0 -27 -14 -46 -42 -57c-59 -23 -128 -35 -206 -35c-155 0 -232 72 -232 216zM321 156v213c-15 3 -29 5 -44 5c-41 0 -62 -18 -62 -55v-123c0 -33 19 -49 57 -49
c19 0 34 1 46 4c2 1 3 2 3 5z" />
    <glyph glyph-name="eth" unicode="&#xf0;" horiz-adv-x="559" 
d="M364 717l35 41c8 9 17 9 26 1l37 -29c10 -7 11 -16 2 -27l-28 -30c58 -53 87 -149 87 -288v-181c0 -69 -21 -122 -63 -160c-43 -39 -104 -59 -184 -59c-166 0 -249 71 -249 212v94c0 64 20 114 61 150c39 35 93 52 161 52c51 0 89 -9 114 -27c-5 36 -17 64 -38 85
l-34 -37c-7 -7 -16 -8 -27 -1l-33 21c-10 7 -10 16 -1 27l21 25c-20 4 -58 6 -113 6c-28 0 -42 13 -42 40l-1 71c0 27 14 41 41 41c100 0 176 -9 228 -27zM337 199v92c0 36 -20 54 -61 54c-42 0 -63 -18 -63 -54v-92c0 -35 21 -53 63 -53c41 0 61 18 61 53z" />
    <glyph glyph-name="dcaron" unicode="&#x10f;" horiz-adv-x="644" 
d="M28 201v108c0 151 75 226 226 226c7 0 29 -1 67 -3v170c0 25 13 38 39 38h109c26 0 39 -13 39 -38v-625c0 -27 -14 -46 -42 -57c-59 -23 -128 -35 -206 -35c-155 0 -232 72 -232 216zM721 698l-52 -155c-7 -23 -23 -34 -48 -34h-52c-11 0 -19 2 -22 6c-3 3 -4 11 -3 22
l17 161c2 17 6 28 13 33c7 6 18 9 35 9h79c31 0 42 -14 33 -42zM321 156v213c-15 3 -29 5 -44 5c-41 0 -62 -18 -62 -55v-123c0 -33 19 -49 57 -49c19 0 34 1 46 4c2 1 3 2 3 5z" />
    <glyph glyph-name="dslash" unicode="&#x111;" horiz-adv-x="548" 
d="M508 682h43c16 0 24 -9 24 -26v-47c0 -18 -8 -27 -24 -27h-43v-505c0 -27 -14 -46 -42 -57c-59 -23 -128 -35 -206 -35c-155 0 -232 72 -232 216v108c0 151 75 226 226 226c7 0 29 -1 67 -3v50h-86c-16 0 -24 9 -24 27v47c0 17 8 26 24 26h86v20c0 25 13 38 39 38h109
c26 0 39 -13 39 -38v-20zM321 156v213c-15 3 -29 5 -44 5c-41 0 -62 -18 -62 -55v-123c0 -33 19 -49 57 -49c19 0 34 1 46 4c2 1 3 2 3 5z" />
    <glyph glyph-name="e" unicode="e" horiz-adv-x="549" 
d="M27 216v88c0 75 21 132 64 172c43 39 105 59 186 59c83 0 146 -21 190 -64c41 -39 61 -91 61 -155v-55c0 -35 -18 -52 -55 -52h-260v-19c0 -43 22 -65 65 -65c34 0 61 12 80 37c13 18 31 21 56 10l69 -30c27 -13 33 -32 19 -58c-38 -66 -113 -99 -226 -99
c-85 0 -149 22 -192 66c-38 40 -57 95 -57 165zM341 330v13c0 40 -21 60 -64 60s-64 -20 -64 -60v-13h128z" />
    <glyph glyph-name="eacute" unicode="&#xe9;" horiz-adv-x="549" 
d="M146 650l140 84c27 17 49 16 66 -2l52 -56c17 -19 16 -33 -5 -40l-180 -60c-23 -7 -38 -6 -46 3l-29 33c-13 17 -13 29 2 38zM27 216v88c0 75 21 132 64 172c43 39 105 59 186 59c83 0 146 -21 190 -64c41 -39 61 -91 61 -155v-55c0 -35 -18 -52 -55 -52h-260v-19
c0 -43 22 -65 65 -65c34 0 61 12 80 37c13 18 31 21 56 10l69 -30c27 -13 33 -32 19 -58c-38 -66 -113 -99 -226 -99c-85 0 -149 22 -192 66c-38 40 -57 95 -57 165zM341 330v13c0 40 -21 60 -64 60s-64 -20 -64 -60v-13h128z" />
    <glyph glyph-name="ebreve" unicode="&#x115;" horiz-adv-x="549" 
d="M455 680c-27 -71 -86 -106 -178 -106c-91 0 -149 35 -176 106c-6 16 0 28 17 35l66 25c17 6 30 2 39 -12c11 -22 29 -33 54 -33c24 0 42 11 55 33c8 13 20 17 35 12l70 -25c18 -7 24 -19 18 -35zM27 216v88c0 75 21 132 64 172c43 39 105 59 186 59c83 0 146 -21 190 -64
c41 -39 61 -91 61 -155v-55c0 -35 -18 -52 -55 -52h-260v-19c0 -43 22 -65 65 -65c34 0 61 12 80 37c13 18 31 21 56 10l69 -30c27 -13 33 -32 19 -58c-38 -66 -113 -99 -226 -99c-85 0 -149 22 -192 66c-38 40 -57 95 -57 165zM341 330v13c0 40 -21 60 -64 60
s-64 -20 -64 -60v-13h128z" />
    <glyph glyph-name="ecaron" unicode="&#x11b;" horiz-adv-x="549" 
d="M369 723h69c14 0 22 -3 23 -10c1 -6 -2 -13 -11 -22l-92 -94c-18 -19 -41 -28 -68 -28h-25c-27 0 -50 9 -67 28l-93 94c-20 21 -16 32 11 32h77c29 0 49 -7 60 -20l28 -32l27 31c12 14 32 21 61 21zM27 216v88c0 75 21 132 64 172c43 39 105 59 186 59
c83 0 146 -21 190 -64c41 -39 61 -91 61 -155v-55c0 -35 -18 -52 -55 -52h-260v-19c0 -43 22 -65 65 -65c34 0 61 12 80 37c13 18 31 21 56 10l69 -30c27 -13 33 -32 19 -58c-38 -66 -113 -99 -226 -99c-85 0 -149 22 -192 66c-38 40 -57 95 -57 165zM341 330v13
c0 40 -21 60 -64 60s-64 -20 -64 -60v-13h128z" />
    <glyph glyph-name="ecircumflex" unicode="&#xea;" horiz-adv-x="549" 
d="M270 735h27c27 0 51 -10 70 -29l100 -99c9 -9 12 -16 11 -23c-2 -7 -11 -11 -26 -11h-82c-31 0 -53 7 -65 21l-28 35l-31 -34c-12 -15 -33 -22 -63 -22h-73c-15 0 -23 4 -25 11c-1 7 2 14 11 23l99 99c20 19 45 29 75 29zM27 216v88c0 75 21 132 64 172
c43 39 105 59 186 59c83 0 146 -21 190 -64c41 -39 61 -91 61 -155v-55c0 -35 -18 -52 -55 -52h-260v-19c0 -43 22 -65 65 -65c34 0 61 12 80 37c13 18 31 21 56 10l69 -30c27 -13 33 -32 19 -58c-38 -66 -113 -99 -226 -99c-85 0 -149 22 -192 66c-38 40 -57 95 -57 165z
M341 330v13c0 40 -21 60 -64 60s-64 -20 -64 -60v-13h128z" />
    <glyph glyph-name="edieresis" unicode="&#xeb;" horiz-adv-x="549" 
d="M166 733h7c28 0 47 -5 58 -15c11 -11 16 -29 16 -56v-13c0 -27 -5 -45 -16 -56s-30 -16 -58 -16h-7c-27 0 -46 5 -57 16c-10 11 -15 29 -15 56v13c0 27 5 46 15 56s29 15 57 15zM381 733h7c28 0 47 -5 58 -15c10 -10 15 -29 15 -56v-13c0 -27 -5 -45 -15 -56
c-11 -11 -30 -16 -58 -16h-7c-27 0 -46 5 -57 16s-16 29 -16 56v13c0 27 5 45 16 56c11 10 30 15 57 15zM27 216v88c0 75 21 132 64 172c43 39 105 59 186 59c83 0 146 -21 190 -64c41 -39 61 -91 61 -155v-55c0 -35 -18 -52 -55 -52h-260v-19c0 -43 22 -65 65 -65
c34 0 61 12 80 37c13 18 31 21 56 10l69 -30c27 -13 33 -32 19 -58c-38 -66 -113 -99 -226 -99c-85 0 -149 22 -192 66c-38 40 -57 95 -57 165zM341 330v13c0 40 -21 60 -64 60s-64 -20 -64 -60v-13h128z" />
    <glyph glyph-name="edotaccent" unicode="&#x117;" horiz-adv-x="549" 
d="M274 736h6c29 0 49 -5 59 -16c11 -10 16 -30 16 -59v-8c0 -29 -5 -48 -16 -59c-10 -11 -30 -16 -59 -16h-6c-29 0 -48 5 -59 16s-16 30 -16 59v8c0 29 5 49 16 59c11 11 30 16 59 16zM27 216v88c0 75 21 132 64 172c43 39 105 59 186 59c83 0 146 -21 190 -64
c41 -39 61 -91 61 -155v-55c0 -35 -18 -52 -55 -52h-260v-19c0 -43 22 -65 65 -65c34 0 61 12 80 37c13 18 31 21 56 10l69 -30c27 -13 33 -32 19 -58c-38 -66 -113 -99 -226 -99c-85 0 -149 22 -192 66c-38 40 -57 95 -57 165zM341 330v13c0 40 -21 60 -64 60
s-64 -20 -64 -60v-13h128z" />
    <glyph glyph-name="egrave" unicode="&#xe8;" horiz-adv-x="549" 
d="M154 676l53 56c17 18 39 19 66 2l139 -84c15 -9 15 -21 2 -38l-29 -33c-7 -10 -23 -11 -46 -3l-180 60c-21 7 -22 21 -5 40zM27 216v88c0 75 21 132 64 172c43 39 105 59 186 59c83 0 146 -21 190 -64c41 -39 61 -91 61 -155v-55c0 -35 -18 -52 -55 -52h-260v-19
c0 -43 22 -65 65 -65c34 0 61 12 80 37c13 18 31 21 56 10l69 -30c27 -13 33 -32 19 -58c-38 -66 -113 -99 -226 -99c-85 0 -149 22 -192 66c-38 40 -57 95 -57 165zM341 330v13c0 40 -21 60 -64 60s-64 -20 -64 -60v-13h128z" />
    <glyph glyph-name="emacron" unicode="&#x113;" horiz-adv-x="549" 
d="M165 702h224c13 0 22 -2 26 -7c5 -5 7 -14 7 -27v-41c0 -13 -2 -22 -7 -27c-4 -5 -13 -7 -26 -7h-224c-21 0 -32 11 -32 34v41c0 23 11 34 32 34zM27 216v88c0 75 21 132 64 172c43 39 105 59 186 59c83 0 146 -21 190 -64c41 -39 61 -91 61 -155v-55
c0 -35 -18 -52 -55 -52h-260v-19c0 -43 22 -65 65 -65c34 0 61 12 80 37c13 18 31 21 56 10l69 -30c27 -13 33 -32 19 -58c-38 -66 -113 -99 -226 -99c-85 0 -149 22 -192 66c-38 40 -57 95 -57 165zM341 330v13c0 40 -21 60 -64 60s-64 -20 -64 -60v-13h128z" />
    <glyph glyph-name="eogonek" unicode="&#x119;" horiz-adv-x="550" 
d="M27 216v88c0 75 21 132 64 172c43 39 105 59 186 59c83 0 146 -21 190 -64c41 -39 61 -91 61 -155v-55c0 -35 -18 -52 -55 -52h-260v-19c0 -43 22 -65 65 -65c34 0 61 12 80 37c13 18 31 21 56 10l69 -30c27 -13 33 -32 19 -58c-8 -15 -18 -28 -30 -39
c-55 -63 -80 -117 -74 -161c1 -12 7 -18 18 -18c6 0 12 2 18 6c11 7 19 5 24 -6l20 -47c6 -13 4 -23 -5 -30c-30 -23 -67 -35 -111 -35c-63 0 -98 22 -107 67c-10 52 12 107 66 166c-19 -1 -34 -2 -45 -2c-85 0 -149 22 -192 66c-38 40 -57 95 -57 165zM341 330v13
c0 40 -21 60 -64 60s-64 -20 -64 -60v-13h128z" />
    <glyph glyph-name="f" unicode="f" horiz-adv-x="388" 
d="M322 740h18c26 0 39 -13 39 -39v-73c0 -27 -13 -40 -39 -40c-45 0 -68 -21 -68 -64v-4h69c25 0 38 -13 38 -38v-75c0 -26 -13 -39 -38 -39h-69v-330c0 -25 -13 -38 -39 -38h-108c-26 0 -39 13 -39 38v330h-33c-25 0 -38 13 -38 39v75c0 25 13 38 38 38h33v2
c0 144 79 217 236 218z" />
    <glyph glyph-name="g" unicode="g" horiz-adv-x="547" 
d="M27 229v80c0 151 81 226 244 226c83 0 149 -11 197 -34c17 -7 27 -15 32 -22s7 -19 7 -36v-442c0 -154 -80 -231 -241 -231c-107 0 -181 33 -223 99c-15 24 -9 43 19 58l84 41c23 11 41 8 54 -10c19 -24 40 -36 65 -36c37 0 55 19 55 58v40c-27 -4 -49 -6 -68 -6
c-150 0 -225 72 -225 215zM317 369c-10 3 -24 4 -41 4c-41 0 -62 -18 -62 -55v-93c0 -33 19 -50 57 -50l49 5v184c0 3 -1 4 -3 5z" />
    <glyph glyph-name="gbreve" unicode="&#x11f;" horiz-adv-x="547" 
d="M457 680c-27 -71 -86 -106 -178 -106c-91 0 -149 35 -176 106c-6 16 0 28 17 35l66 25c17 6 30 2 39 -12c11 -22 29 -33 54 -33c24 0 42 11 55 33c8 13 20 17 35 12l70 -25c18 -7 24 -19 18 -35zM27 229v80c0 151 81 226 244 226c83 0 149 -11 197 -34
c17 -7 27 -15 32 -22s7 -19 7 -36v-442c0 -154 -80 -231 -241 -231c-107 0 -181 33 -223 99c-15 24 -9 43 19 58l84 41c23 11 41 8 54 -10c19 -24 40 -36 65 -36c37 0 55 19 55 58v40c-27 -4 -49 -6 -68 -6c-150 0 -225 72 -225 215zM317 369c-10 3 -24 4 -41 4
c-41 0 -62 -18 -62 -55v-93c0 -33 19 -50 57 -50l49 5v184c0 3 -1 4 -3 5z" />
    <glyph glyph-name="gcircumflex" unicode="&#x11d;" horiz-adv-x="547" 
d="M272 735h27c27 0 51 -10 70 -29l100 -99c9 -9 12 -16 11 -23c-2 -7 -11 -11 -26 -11h-82c-31 0 -53 7 -65 21l-28 35l-31 -34c-12 -15 -33 -22 -63 -22h-73c-15 0 -23 4 -25 11c-1 7 2 14 11 23l99 99c20 19 45 29 75 29zM27 229v80c0 151 81 226 244 226
c83 0 149 -11 197 -34c17 -7 27 -15 32 -22s7 -19 7 -36v-442c0 -154 -80 -231 -241 -231c-107 0 -181 33 -223 99c-15 24 -9 43 19 58l84 41c23 11 41 8 54 -10c19 -24 40 -36 65 -36c37 0 55 19 55 58v40c-27 -4 -49 -6 -68 -6c-150 0 -225 72 -225 215zM317 369
c-10 3 -24 4 -41 4c-41 0 -62 -18 -62 -55v-93c0 -33 19 -50 57 -50l49 5v184c0 3 -1 4 -3 5z" />
    <glyph glyph-name="uni0123" unicode="&#x123;" horiz-adv-x="548" 
d="M191 612l40 94c9 23 27 35 52 35h58c12 0 20 -2 23 -6s4 -12 3 -23l-9 -100c-3 -30 -20 -45 -50 -45h-84c-35 0 -46 15 -33 45zM27 229v80c0 151 81 226 244 226c83 0 149 -11 197 -34c17 -7 27 -15 32 -22s7 -19 7 -36v-442c0 -154 -80 -231 -241 -231
c-107 0 -181 33 -223 99c-15 24 -9 43 19 58l84 41c23 11 41 8 54 -10c19 -24 40 -36 65 -36c37 0 55 19 55 58v40c-27 -4 -49 -6 -68 -6c-150 0 -225 72 -225 215zM317 369c-10 3 -24 4 -41 4c-41 0 -62 -18 -62 -55v-93c0 -33 19 -50 57 -50l49 5v184c0 3 -1 4 -3 5z" />
    <glyph glyph-name="gdotaccent" unicode="&#x121;" horiz-adv-x="547" 
d="M276 736h6c29 0 49 -5 59 -16c11 -10 16 -30 16 -59v-8c0 -29 -5 -48 -16 -59c-10 -11 -30 -16 -59 -16h-6c-29 0 -48 5 -59 16s-16 30 -16 59v8c0 29 5 49 16 59c11 11 30 16 59 16zM27 229v80c0 151 81 226 244 226c83 0 149 -11 197 -34c17 -7 27 -15 32 -22
s7 -19 7 -36v-442c0 -154 -80 -231 -241 -231c-107 0 -181 33 -223 99c-15 24 -9 43 19 58l84 41c23 11 41 8 54 -10c19 -24 40 -36 65 -36c37 0 55 19 55 58v40c-27 -4 -49 -6 -68 -6c-150 0 -225 72 -225 215zM317 369c-10 3 -24 4 -41 4c-41 0 -62 -18 -62 -55v-93
c0 -33 19 -50 57 -50l49 5v184c0 3 -1 4 -3 5z" />
    <glyph glyph-name="h" unicode="h" horiz-adv-x="558" 
d="M80 740h110c25 0 38 -13 38 -38v-171c24 3 47 4 68 4c150 0 225 -72 225 -216v-281c0 -25 -13 -38 -38 -38h-110c-25 0 -38 13 -38 38v274c0 37 -20 55 -60 55c-21 0 -36 -1 -47 -4v-325c0 -25 -13 -38 -38 -38h-110c-25 0 -38 13 -38 38v664c0 25 13 38 38 38z" />
    <glyph glyph-name="hbar" unicode="&#x127;" horiz-adv-x="559" 
d="M229 581v-50c21 3 44 4 68 4c150 0 225 -72 225 -216v-281c0 -25 -13 -38 -38 -38h-110c-25 0 -38 13 -38 38v274c0 37 -20 55 -60 55c-21 0 -36 -1 -47 -4v-325c0 -25 -13 -38 -39 -38h-109c-26 0 -39 13 -39 38v543h-28c-16 0 -24 9 -24 27v45c0 17 8 26 24 26h28v23
c0 25 13 38 39 38h109c26 0 39 -13 39 -38v-23h91c17 0 25 -9 25 -26v-45c0 -18 -8 -27 -25 -27h-91z" />
    <glyph glyph-name="hcircumflex" unicode="&#x125;" horiz-adv-x="558" 
d="M129 941h26c26 0 49 -10 68 -29l99 -98c8 -8 11 -15 10 -22c-2 -7 -10 -11 -25 -11h-81c-31 0 -52 7 -63 21l-28 34l-30 -34c-12 -14 -33 -21 -63 -21h-71c-15 0 -23 4 -24 11c-2 6 1 13 10 22l98 98c19 19 44 29 74 29zM80 740h109c26 0 39 -13 39 -38v-171
c21 3 44 4 68 4c150 0 225 -72 225 -216v-281c0 -25 -13 -38 -38 -38h-110c-25 0 -38 13 -38 38v274c0 37 -20 55 -60 55c-21 0 -36 -1 -47 -4v-325c0 -25 -13 -38 -39 -38h-109c-26 0 -39 13 -39 38v664c0 25 13 38 39 38z" />
    <glyph glyph-name="i" unicode="i" horiz-adv-x="269" 
d="M110 722h50c28 0 47 -5 58 -16s16 -30 16 -58v-11c0 -28 -5 -47 -16 -58s-30 -16 -58 -16h-50c-29 0 -48 5 -59 16s-16 30 -16 58v11c0 28 5 47 16 58s30 16 59 16zM80 520h109c26 0 39 -13 39 -38v-444c0 -25 -13 -38 -39 -38h-109c-26 0 -39 13 -39 38v444
c0 25 13 38 39 38z" />
    <glyph glyph-name="dotlessi" unicode="&#x131;" horiz-adv-x="269" 
d="M80 520h109c26 0 39 -13 39 -38v-444c0 -25 -13 -38 -39 -38h-109c-26 0 -39 13 -39 38v444c0 25 13 38 39 38z" />
    <glyph glyph-name="iacute" unicode="&#xed;" horiz-adv-x="269" 
d="M1 643l127 91c26 19 48 19 66 2l56 -53c17 -18 16 -31 -3 -40l-169 -69c-21 -10 -37 -10 -46 0l-31 31c-13 15 -13 28 0 38zM78 520h109c26 0 39 -13 39 -38v-444c0 -25 -13 -38 -39 -38h-109c-26 0 -39 13 -39 38v444c0 25 13 38 39 38z" />
    <glyph glyph-name="ibreve" unicode="&#x12d;" horiz-adv-x="269" 
d="M219 740l71 -25c17 -7 23 -19 17 -35c-27 -71 -84 -106 -173 -106s-147 35 -172 106c-7 16 -1 28 17 35l66 25c17 6 29 2 38 -12c11 -21 28 -32 51 -32c22 0 39 11 50 32c8 13 20 17 35 12zM79 520h109c26 0 39 -13 39 -38v-444c0 -25 -13 -38 -39 -38h-109
c-26 0 -39 13 -39 38v444c0 25 13 38 39 38z" />
    <glyph glyph-name="icircumflex" unicode="&#xee;" horiz-adv-x="269" 
d="M222 707l94 -100c9 -9 12 -16 11 -23c-2 -7 -11 -11 -26 -11h-80c-34 0 -56 7 -65 21l-24 35l-25 -35c-11 -14 -32 -21 -64 -21h-71c-15 0 -23 4 -25 11c-1 7 2 14 10 23l94 100c18 19 43 28 75 28h26c29 0 52 -9 70 -28zM79 520h109c26 0 39 -13 39 -38v-444
c0 -25 -13 -38 -39 -38h-109c-26 0 -39 13 -39 38v444c0 25 13 38 39 38z" />
    <glyph glyph-name="idieresis" unicode="&#xef;" horiz-adv-x="269" 
d="M27 733h8c28 0 47 -5 58 -15c11 -11 16 -29 16 -56v-13c0 -27 -5 -45 -16 -56s-30 -16 -58 -16h-8c-27 0 -46 5 -57 16c-10 11 -15 29 -15 56v13c0 27 5 46 15 56c11 10 30 15 57 15zM234 733h7c28 0 47 -5 58 -15c10 -10 15 -29 15 -56v-13c0 -27 -5 -45 -15 -56
c-11 -11 -30 -16 -58 -16h-7c-27 0 -46 5 -57 16s-16 29 -16 56v13c0 27 5 45 16 56c11 10 30 15 57 15zM80 520h109c26 0 39 -13 39 -38v-444c0 -25 -13 -38 -39 -38h-109c-26 0 -39 13 -39 38v444c0 25 13 38 39 38z" />
    <glyph glyph-name="igrave" unicode="&#xec;" horiz-adv-x="269" 
d="M13 683l56 53c18 17 40 17 66 -2l127 -91c13 -10 13 -23 0 -38l-31 -31c-9 -10 -25 -10 -46 0l-169 69c-19 8 -20 21 -3 40zM77 520h109c26 0 39 -13 39 -38v-444c0 -25 -13 -38 -39 -38h-109c-26 0 -39 13 -39 38v444c0 25 13 38 39 38z" />
    <glyph glyph-name="ij" unicode="&#x133;" horiz-adv-x="540" 
d="M110 722h50c28 0 47 -5 58 -16s16 -30 16 -58v-11c0 -28 -5 -47 -16 -58s-30 -16 -58 -16h-50c-29 0 -48 5 -59 16s-16 30 -16 58v11c0 28 5 47 16 58s30 16 59 16zM379 722h50c29 0 48 -5 58 -16c11 -11 16 -30 16 -58v-11c0 -28 -5 -47 -16 -58
c-10 -11 -29 -16 -58 -16h-50c-29 0 -48 5 -58 16c-11 11 -16 30 -16 58v11c0 28 5 47 16 58c10 11 29 16 58 16zM80 520h109c26 0 39 -13 39 -38v-444c0 -25 -13 -38 -39 -38h-109c-26 0 -39 13 -39 38v444c0 25 13 38 39 38zM350 520h108c26 0 39 -13 39 -38v-492
c0 -147 -85 -220 -254 -220c-27 0 -40 13 -40 39v85c0 27 13 40 40 40c45 0 68 23 68 68v480c0 25 13 38 39 38z" />
    <glyph glyph-name="imacron" unicode="&#x12b;" horiz-adv-x="269" 
d="M46 707h176c11 0 18 -2 22 -7c3 -5 5 -14 5 -28v-42c0 -15 -2 -24 -5 -29c-4 -5 -11 -7 -22 -7h-176c-11 0 -18 2 -21 7s-5 14 -5 29v42c0 23 9 35 26 35zM80 520h109c26 0 39 -13 39 -38v-444c0 -25 -13 -38 -39 -38h-109c-26 0 -39 13 -39 38v444c0 25 13 38 39 38z
" />
    <glyph glyph-name="iogonek" unicode="&#x12f;" horiz-adv-x="269" 
d="M160 563h-50c-29 0 -48 5 -59 16s-16 30 -16 58v11c0 28 5 47 16 58s30 16 59 16h50c28 0 47 -5 58 -16s16 -30 16 -58v-11c0 -28 -5 -47 -16 -58s-30 -16 -58 -16zM226 -135l19 -46c5 -13 4 -23 -5 -30c-30 -23 -67 -35 -110 -35c-62 0 -97 22 -106 67
c-11 55 10 115 65 179c-19 0 -32 3 -39 10c-6 6 -9 17 -9 33v439c0 25 13 38 39 38h109c26 0 39 -13 39 -38v-444c0 -15 -3 -25 -10 -31c-39 -47 -57 -88 -52 -123c2 -12 8 -18 19 -18c5 0 11 2 17 5c11 7 19 5 24 -6z" />
    <glyph glyph-name="itilde" unicode="&#x129;" horiz-adv-x="269" 
d="M201 738h50c13 0 19 -8 19 -24c0 -84 -27 -126 -81 -126c-23 0 -45 7 -66 20s-34 20 -40 20c-9 0 -13 -7 -13 -20s-5 -20 -16 -20h-52c-13 0 -19 8 -19 24c0 84 27 126 80 126c24 0 47 -7 68 -21s35 -21 40 -21c9 0 14 7 14 22c0 13 5 20 16 20zM80 520h109
c26 0 39 -13 39 -38v-444c0 -25 -13 -38 -39 -38h-109c-26 0 -39 13 -39 38v444c0 25 13 38 39 38z" />
    <glyph glyph-name="j" unicode="j" horiz-adv-x="271" 
d="M110 722h50c29 0 48 -5 58 -16c11 -11 16 -30 16 -58v-11c0 -28 -5 -47 -16 -58c-10 -11 -29 -16 -58 -16h-50c-29 0 -48 5 -58 16c-11 11 -16 30 -16 58v11c0 28 5 47 16 58c10 11 29 16 58 16zM81 520h108c26 0 39 -13 39 -38v-492c0 -147 -85 -220 -254 -220
c-27 0 -40 13 -40 39v85c0 27 13 40 40 40c45 0 68 23 68 68v480c0 25 13 38 39 38z" />
    <glyph glyph-name="uni0237" unicode="&#x237;" horiz-adv-x="271" 
d="M82 520h107c27 0 40 -13 40 -38v-492c0 -147 -85 -220 -255 -220c-26 0 -39 13 -39 39v85c0 27 13 40 39 40c45 0 68 23 68 68v480c0 25 13 38 40 38z" />
    <glyph glyph-name="jcircumflex" unicode="&#x135;" horiz-adv-x="270" 
d="M128 735h27c27 0 51 -9 70 -28l100 -100c9 -9 12 -16 11 -23c-2 -7 -11 -11 -26 -11h-82c-33 0 -54 7 -65 21l-29 35l-30 -35c-13 -14 -34 -21 -63 -21h-73c-15 0 -23 4 -25 11c-1 7 2 14 10 23l100 100c19 19 44 28 75 28zM81 520h108c26 0 39 -13 39 -38v-492
c0 -147 -85 -220 -254 -220c-27 0 -40 13 -40 39v85c0 27 13 40 40 40c45 0 68 23 68 68v480c0 25 13 38 39 38z" />
    <glyph glyph-name="k" unicode="k" horiz-adv-x="553" 
d="M445 232l88 -181c17 -34 7 -51 -31 -51h-92c-23 0 -40 2 -49 7c-10 5 -18 15 -24 31l-45 120c-9 20 -24 30 -46 30h-18v-149c0 -26 -13 -39 -39 -39h-109c-25 0 -38 13 -38 39v662c0 26 13 39 38 39h109c26 0 39 -13 39 -39v-361h21l84 144c13 24 37 36 72 36h89
c40 0 50 -16 31 -49l-113 -194c12 -10 23 -25 33 -45z" />
    <glyph glyph-name="uni0137" unicode="&#x137;" horiz-adv-x="553" 
d="M445 232l88 -181c17 -34 7 -51 -31 -51h-92c-23 0 -40 2 -49 7c-10 5 -18 15 -24 31l-45 120c-9 20 -24 30 -46 30h-18v-149c0 -26 -13 -39 -39 -39h-109c-25 0 -38 13 -38 39v662c0 26 13 39 38 39h109c26 0 39 -13 39 -39v-361h21l84 144c13 24 37 36 72 36h89
c40 0 50 -16 31 -49l-113 -194c12 -10 23 -25 33 -45zM379 -87l-40 -108c-9 -23 -26 -35 -52 -35h-58c-12 0 -20 2 -23 6s-4 12 -3 23l10 114c3 29 19 44 49 44h85c33 0 43 -15 32 -44z" />
    <glyph glyph-name="kgreenlandic" unicode="&#x138;" horiz-adv-x="549" 
d="M394 312l136 -263c17 -33 7 -49 -31 -49h-92c-39 0 -65 12 -77 36l-68 125l-34 -44v-77c0 -27 -14 -40 -41 -40h-105c-27 0 -41 13 -41 40v441c0 26 14 39 41 39h105c27 0 41 -13 41 -39v-109l88 114c17 23 41 34 71 34h114c19 0 30 -4 34 -13c3 -8 0 -18 -10 -31z" />
    <glyph glyph-name="l" unicode="l" horiz-adv-x="272" 
d="M229 702v-664c0 -25 -13 -38 -38 -38h-110c-25 0 -38 13 -38 38v664c0 25 13 38 38 38h110c25 0 38 -13 38 -38z" />
    <glyph glyph-name="lacute" unicode="&#x13a;" horiz-adv-x="272" 
d="M2 848l140 83c27 15 49 14 64 -4l50 -61c17 -20 15 -33 -5 -40l-177 -54c-23 -8 -38 -7 -46 3l-28 35c-13 17 -13 30 2 38zM226 702v-664c0 -25 -13 -38 -39 -38h-109c-26 0 -39 13 -39 38v664c0 25 13 38 39 38h109c26 0 39 -13 39 -38z" />
    <glyph glyph-name="lcaron" unicode="&#x13e;" horiz-adv-x="338" 
d="M229 702v-664c0 -25 -13 -38 -38 -38h-110c-25 0 -38 13 -38 38v664c0 25 13 38 38 38h110c25 0 38 -13 38 -38zM449 701l-55 -143c-9 -23 -25 -34 -47 -34h-58c-11 0 -18 2 -21 5s-4 10 -3 20l16 152c3 26 17 39 44 39h90c33 0 45 -13 34 -39z" />
    <glyph glyph-name="uni013C" unicode="&#x13c;" horiz-adv-x="272" 
d="M229 702v-664c0 -25 -13 -38 -38 -38h-110c-25 0 -38 13 -38 38v664c0 25 13 38 38 38h110c25 0 38 -13 38 -38zM215 -82l-40 -105c-9 -23 -27 -35 -52 -35h-61c-12 0 -20 2 -24 6c-3 4 -4 12 -3 23l10 111c3 30 19 45 49 45h89c33 0 43 -15 32 -45z" />
    <glyph glyph-name="ldot" unicode="&#x140;" horiz-adv-x="479" 
d="M229 702v-664c0 -25 -13 -38 -38 -38h-110c-25 0 -38 13 -38 38v664c0 25 13 38 38 38h110c25 0 38 -13 38 -38zM357 476h38c30 0 51 -6 62 -17s17 -32 17 -61v-41c0 -29 -6 -50 -17 -61s-32 -17 -62 -17h-38c-29 0 -50 6 -61 17s-17 32 -17 61v41c0 29 6 50 17 61
s32 17 61 17z" />
    <glyph glyph-name="lslash" unicode="&#x142;" horiz-adv-x="377" 
d="M351 483l25 -43c9 -15 5 -28 -10 -37l-86 -45v-320c0 -25 -13 -38 -39 -38h-109c-26 0 -39 13 -39 38v220l-26 -14c-18 -10 -32 -7 -42 10l-25 43c-9 15 -5 28 11 37l82 44v324c0 25 13 38 39 38h109c26 0 39 -13 39 -38v-225l29 16c18 10 32 7 42 -10z" />
    <glyph glyph-name="m" unicode="m" horiz-adv-x="814" 
d="M408 509c47 17 98 26 153 26c144 0 216 -72 216 -216v-281c0 -25 -13 -38 -38 -38h-110c-25 0 -38 13 -38 38v276c0 35 -17 53 -51 53c-13 0 -27 -2 -42 -5c3 -13 4 -28 4 -46v-278c0 -25 -13 -38 -39 -38h-109c-26 0 -39 13 -39 38v276c0 35 -17 53 -51 53
c-11 0 -23 -1 -34 -3c-3 -1 -4 -3 -4 -6v-320c0 -25 -13 -38 -38 -38h-110c-25 0 -38 13 -38 38v400c0 29 14 49 41 60c64 25 132 37 204 37c49 0 90 -9 123 -26z" />
    <glyph glyph-name="n" unicode="n" horiz-adv-x="556" 
d="M81 498c64 25 135 37 213 37c150 0 225 -72 225 -216v-281c0 -25 -13 -38 -38 -38h-110c-25 0 -38 13 -38 38v274c0 37 -20 55 -60 55c-18 0 -33 -1 -44 -4c-2 -1 -3 -2 -3 -4v-321c0 -25 -13 -38 -38 -38h-110c-25 0 -38 13 -38 38v400c0 29 14 49 41 60z" />
    <glyph glyph-name="nacute" unicode="&#x144;" horiz-adv-x="556" 
d="M147 650l139 84c27 17 49 16 66 -2l53 -56c17 -19 15 -33 -5 -40l-180 -60c-23 -8 -39 -7 -47 3l-28 33c-14 17 -13 29 2 38zM81 498c64 25 135 37 213 37c150 0 225 -72 225 -216v-281c0 -25 -13 -38 -38 -38h-110c-25 0 -38 13 -38 38v274c0 37 -20 55 -60 55
c-18 0 -33 -1 -44 -4c-2 -1 -3 -2 -3 -4v-321c0 -25 -13 -38 -38 -38h-110c-25 0 -38 13 -38 38v400c0 29 14 49 41 60z" />
    <glyph glyph-name="napostrophe" unicode="&#x149;" horiz-adv-x="556" 
d="M253 701l-92 -137c-12 -17 -29 -25 -51 -25h-70c-18 0 -24 8 -19 25l52 142c9 23 25 34 48 34h107c35 0 43 -13 25 -39zM80 498c64 25 135 37 213 37c150 0 225 -72 225 -216v-281c0 -25 -13 -38 -38 -38h-110c-25 0 -38 13 -38 38v274c0 37 -20 55 -60 55
c-18 0 -33 -1 -44 -4c-2 -1 -3 -2 -3 -4v-321c0 -25 -13 -38 -38 -38h-110c-25 0 -38 13 -38 38v400c0 29 14 49 41 60z" />
    <glyph glyph-name="ncaron" unicode="&#x148;" horiz-adv-x="556" 
d="M369 723h70c13 0 21 -3 22 -10s-3 -14 -11 -22l-91 -94c-18 -19 -41 -28 -69 -28h-25c-27 0 -49 9 -67 28l-92 94c-9 9 -12 16 -11 22c1 7 8 10 22 10h76c29 0 49 -7 61 -20l28 -32l27 31c12 14 32 21 60 21zM81 498c64 25 135 37 213 37c150 0 225 -72 225 -216v-281
c0 -25 -13 -38 -38 -38h-110c-25 0 -38 13 -38 38v274c0 37 -20 55 -60 55c-18 0 -33 -1 -44 -4c-2 -1 -3 -2 -3 -4v-321c0 -25 -13 -38 -38 -38h-110c-25 0 -38 13 -38 38v400c0 29 14 49 41 60z" />
    <glyph glyph-name="uni0146" unicode="&#x146;" horiz-adv-x="556" 
d="M81 498c64 25 135 37 213 37c150 0 225 -72 225 -216v-281c0 -25 -13 -38 -38 -38h-110c-25 0 -38 13 -38 38v274c0 37 -20 55 -60 55c-18 0 -33 -1 -44 -4c-2 -1 -3 -2 -3 -4v-321c0 -25 -13 -38 -38 -38h-110c-25 0 -38 13 -38 38v400c0 29 14 49 41 60zM368 -77
l-40 -108c-9 -23 -26 -35 -52 -35h-58c-12 0 -20 2 -23 6s-4 12 -3 23l9 114c3 29 20 44 50 44h84c33 0 44 -15 33 -44z" />
    <glyph glyph-name="eng" unicode="&#x14b;" horiz-adv-x="557" 
d="M81 498c64 25 135 37 213 37c150 0 225 -72 225 -216v-333c0 -144 -83 -216 -250 -216c-26 0 -39 13 -39 39v84c0 25 13 38 39 38c43 0 64 22 64 67v314c0 37 -20 55 -60 55c-18 0 -33 -1 -44 -4c-2 -1 -3 -2 -3 -4v-321c0 -25 -13 -38 -38 -38h-110c-25 0 -38 13 -38 38
v400c0 29 14 49 41 60z" />
    <glyph glyph-name="ntilde" unicode="&#xf1;" horiz-adv-x="556" 
d="M364 731h60c15 0 23 -8 23 -23c0 -45 -8 -78 -25 -97c-15 -17 -40 -26 -73 -26c-28 0 -55 7 -81 21c-27 13 -44 20 -51 20c-10 0 -15 -7 -15 -22c0 -13 -6 -19 -19 -19h-62c-15 0 -23 8 -23 23c0 82 32 123 96 123c29 0 57 -7 84 -21s45 -21 52 -21c9 0 14 7 14 22
c0 13 7 20 20 20zM81 498c64 25 135 37 213 37c150 0 225 -72 225 -216v-281c0 -25 -13 -38 -38 -38h-110c-25 0 -38 13 -38 38v274c0 37 -20 55 -60 55c-18 0 -33 -1 -44 -4c-2 -1 -3 -2 -3 -4v-321c0 -25 -13 -38 -38 -38h-110c-25 0 -38 13 -38 38v400c0 29 14 49 41 60z
" />
    <glyph glyph-name="o" unicode="o" horiz-adv-x="552" 
d="M28 204v112c0 69 21 122 63 161c43 39 105 58 185 58c81 0 143 -19 186 -58c41 -38 62 -92 62 -161v-112c0 -69 -21 -123 -62 -160c-43 -39 -105 -59 -186 -59c-80 0 -142 20 -185 59c-42 38 -63 91 -63 160zM339 199v122c0 36 -21 54 -63 54c-41 0 -62 -18 -62 -54v-122
c0 -35 21 -53 62 -53c42 0 63 18 63 53z" />
    <glyph glyph-name="oacute" unicode="&#xf3;" horiz-adv-x="552" 
d="M145 650l139 84c27 17 49 16 66 -2l53 -56c17 -19 15 -33 -5 -40l-180 -60c-23 -8 -39 -7 -47 3l-28 33c-14 17 -13 29 2 38zM28 204v112c0 69 21 122 63 161c43 39 105 58 185 58c81 0 143 -19 186 -58c41 -38 62 -92 62 -161v-112c0 -69 -21 -123 -62 -160
c-43 -39 -105 -59 -186 -59c-80 0 -142 20 -185 59c-42 38 -63 91 -63 160zM339 199v122c0 36 -21 54 -63 54c-41 0 -62 -18 -62 -54v-122c0 -35 21 -53 62 -53c42 0 63 18 63 53z" />
    <glyph glyph-name="obreve" unicode="&#x14f;" horiz-adv-x="552" 
d="M453 680c-27 -71 -86 -106 -177 -106c-92 0 -151 35 -176 106c-7 16 -1 28 17 35l66 25c17 6 29 2 38 -12c11 -22 30 -33 55 -33c23 0 41 11 54 33c8 13 20 17 35 12l71 -25c17 -7 23 -19 17 -35zM28 204v112c0 69 21 122 63 161c43 39 105 58 185 58
c81 0 143 -19 186 -58c41 -38 62 -92 62 -161v-112c0 -69 -21 -123 -62 -160c-43 -39 -105 -59 -186 -59c-80 0 -142 20 -185 59c-42 38 -63 91 -63 160zM339 199v122c0 36 -21 54 -63 54c-41 0 -62 -18 -62 -54v-122c0 -35 21 -53 62 -53c42 0 63 18 63 53z" />
    <glyph glyph-name="ocircumflex" unicode="&#xf4;" horiz-adv-x="552" 
d="M269 735h27c27 0 50 -10 69 -29l100 -99c9 -9 12 -16 11 -23c-2 -7 -10 -11 -25 -11h-82c-33 0 -54 7 -65 21l-29 35l-30 -34c-13 -15 -34 -22 -64 -22h-72c-15 0 -23 4 -25 11s1 14 10 23l100 99c19 19 44 29 75 29zM28 204v112c0 69 21 122 63 161c43 39 105 58 185 58
c81 0 143 -19 186 -58c41 -38 62 -92 62 -161v-112c0 -69 -21 -123 -62 -160c-43 -39 -105 -59 -186 -59c-80 0 -142 20 -185 59c-42 38 -63 91 -63 160zM339 199v122c0 36 -21 54 -63 54c-41 0 -62 -18 -62 -54v-122c0 -35 21 -53 62 -53c42 0 63 18 63 53z" />
    <glyph glyph-name="odieresis" unicode="&#xf6;" horiz-adv-x="552" 
d="M164 733h8c27 0 46 -5 57 -15c11 -11 16 -29 16 -56v-13c0 -27 -5 -45 -16 -56s-30 -16 -57 -16h-8c-27 0 -46 5 -57 16c-10 11 -15 29 -15 56v13c0 27 5 46 15 56s29 15 57 15zM380 733h7c27 0 46 -5 57 -15c10 -10 15 -29 15 -56v-13c0 -27 -5 -45 -15 -56
c-11 -11 -30 -16 -57 -16h-7c-28 0 -47 5 -58 16s-16 29 -16 56v13c0 27 5 45 16 56c11 10 30 15 58 15zM28 204v112c0 69 21 122 63 161c43 39 105 58 185 58c81 0 143 -19 186 -58c41 -38 62 -92 62 -161v-112c0 -69 -21 -123 -62 -160c-43 -39 -105 -59 -186 -59
c-80 0 -142 20 -185 59c-42 38 -63 91 -63 160zM339 199v122c0 36 -21 54 -63 54c-41 0 -62 -18 -62 -54v-122c0 -35 21 -53 62 -53c42 0 63 18 63 53z" />
    <glyph glyph-name="ograve" unicode="&#xf2;" horiz-adv-x="552" 
d="M152 676l53 56c17 18 39 19 66 2l139 -84c15 -9 16 -21 2 -38l-28 -33c-8 -10 -24 -11 -47 -3l-180 60c-20 7 -22 21 -5 40zM28 204v112c0 69 21 122 63 161c43 39 105 58 185 58c81 0 143 -19 186 -58c41 -38 62 -92 62 -161v-112c0 -69 -21 -123 -62 -160
c-43 -39 -105 -59 -186 -59c-80 0 -142 20 -185 59c-42 38 -63 91 -63 160zM339 199v122c0 36 -21 54 -63 54c-41 0 -62 -18 -62 -54v-122c0 -35 21 -53 62 -53c42 0 63 18 63 53z" />
    <glyph glyph-name="ohungarumlaut" unicode="&#x151;" horiz-adv-x="552" 
d="M107 611l66 87c15 21 35 29 60 24l61 -14c12 -3 19 -8 21 -16c2 -7 -2 -15 -11 -23l-103 -87c-16 -12 -30 -17 -41 -14l-41 7c-21 5 -25 17 -12 36zM286 610l69 88c17 21 37 28 61 22l64 -17c13 -3 20 -9 22 -17c1 -7 -3 -15 -12 -22l-112 -84c-16 -13 -30 -17 -41 -14
l-41 9c-23 4 -27 16 -10 35zM28 204v112c0 69 21 122 63 161c43 39 105 58 185 58c81 0 143 -19 186 -58c41 -38 62 -92 62 -161v-112c0 -69 -21 -123 -62 -160c-43 -39 -105 -59 -186 -59c-80 0 -142 20 -185 59c-42 38 -63 91 -63 160zM339 199v122c0 36 -21 54 -63 54
c-41 0 -62 -18 -62 -54v-122c0 -35 21 -53 62 -53c42 0 63 18 63 53z" />
    <glyph glyph-name="omacron" unicode="&#x14d;" horiz-adv-x="552" 
d="M164 702h223c13 0 22 -2 27 -7s7 -14 7 -27v-41c0 -13 -2 -22 -7 -27s-14 -7 -27 -7h-223c-13 0 -22 2 -26 7c-5 5 -7 14 -7 27v41c0 23 11 34 33 34zM28 204v112c0 69 21 122 63 161c43 39 105 58 185 58c81 0 143 -19 186 -58c41 -38 62 -92 62 -161v-112
c0 -69 -21 -123 -62 -160c-43 -39 -105 -59 -186 -59c-80 0 -142 20 -185 59c-42 38 -63 91 -63 160zM339 199v122c0 36 -21 54 -63 54c-41 0 -62 -18 -62 -54v-122c0 -35 21 -53 62 -53c42 0 63 18 63 53z" />
    <glyph glyph-name="oslash" unicode="&#xf8;" horiz-adv-x="552" 
d="M436 552h58c13 0 15 -6 8 -18l-38 -60c40 -38 60 -91 60 -158v-112c0 -69 -21 -123 -62 -160c-43 -39 -105 -59 -186 -59c-40 0 -77 5 -110 16l-15 -22c-6 -9 -17 -14 -32 -14h-57c-13 0 -16 6 -9 18l39 60c-43 38 -64 92 -64 161v112c0 69 21 122 63 161
c43 39 105 58 185 58c44 0 82 -6 115 -18l13 21c6 9 17 14 32 14zM214 225l103 162c-10 8 -24 12 -41 12c-41 0 -62 -18 -62 -54v-120zM338 293l-102 -161c9 -7 23 -10 40 -10c42 0 63 18 63 53v110z" />
    <glyph glyph-name="oslashacute" unicode="&#x1ff;" horiz-adv-x="552" 
d="M145 650l139 84c27 17 49 16 66 -2l53 -56c17 -19 15 -33 -5 -40l-180 -60c-23 -8 -39 -7 -47 3l-28 33c-14 17 -13 29 2 38zM436 552h58c13 0 15 -6 8 -18l-38 -60c40 -38 60 -91 60 -158v-112c0 -69 -21 -123 -62 -160c-43 -39 -105 -59 -186 -59c-40 0 -77 5 -110 16
l-15 -22c-6 -9 -17 -14 -32 -14h-57c-13 0 -16 6 -9 18l39 60c-43 38 -64 92 -64 161v112c0 69 21 122 63 161c43 39 105 58 185 58c44 0 82 -6 115 -18l13 21c6 9 17 14 32 14zM214 225l103 162c-10 8 -24 12 -41 12c-41 0 -62 -18 -62 -54v-120zM338 293l-102 -161
c9 -7 23 -10 40 -10c42 0 63 18 63 53v110z" />
    <glyph glyph-name="otilde" unicode="&#xf5;" horiz-adv-x="552" 
d="M362 731h60c15 0 23 -8 23 -23c0 -45 -8 -78 -25 -97c-15 -17 -40 -26 -73 -26c-28 0 -55 7 -81 21c-27 13 -44 20 -51 20c-10 0 -15 -7 -15 -22c0 -13 -6 -19 -19 -19h-62c-15 0 -23 8 -23 23c0 82 32 123 96 123c29 0 57 -7 84 -21s45 -21 52 -21c9 0 14 7 14 22
c0 13 7 20 20 20zM28 204v112c0 69 21 122 63 161c43 39 105 58 185 58c81 0 143 -19 186 -58c41 -38 62 -92 62 -161v-112c0 -69 -21 -123 -62 -160c-43 -39 -105 -59 -186 -59c-80 0 -142 20 -185 59c-42 38 -63 91 -63 160zM339 199v122c0 36 -21 54 -63 54
c-41 0 -62 -18 -62 -54v-122c0 -35 21 -53 62 -53c42 0 63 18 63 53z" />
    <glyph glyph-name="oe" unicode="&#x153;" horiz-adv-x="803" 
d="M402 494c38 27 84 41 139 41c81 0 142 -21 184 -64c37 -39 56 -90 56 -155v-55c0 -35 -18 -52 -54 -52h-242v-19c0 -43 19 -65 57 -65c28 0 50 12 67 35c8 12 15 19 22 21c9 3 21 1 38 -7l67 -33c27 -13 34 -32 19 -58c-37 -65 -108 -98 -215 -98c-54 0 -100 14 -139 42
c-36 -28 -82 -42 -138 -42c-77 0 -136 20 -176 59c-39 37 -59 91 -59 160v112c0 69 20 123 59 161c40 39 99 58 176 58c55 0 101 -14 139 -41zM595 330v13c0 40 -18 60 -54 60c-37 0 -55 -20 -55 -60v-13h109zM314 196v128c0 34 -17 51 -51 51c-33 0 -49 -17 -49 -51v-128
c0 -33 16 -50 49 -50c34 0 51 17 51 50z" />
    <glyph glyph-name="p" unicode="p" horiz-adv-x="548" 
d="M82 501c57 23 127 34 209 34c153 0 229 -72 229 -216v-108c0 -151 -78 -226 -233 -226c-8 0 -28 2 -60 5v-171c0 -25 -13 -38 -39 -38h-109c-26 0 -39 13 -39 38v624c0 27 14 47 42 58zM334 201v123c0 33 -19 49 -57 49c-19 0 -35 -2 -46 -5c-3 -1 -4 -3 -4 -6v-211
c15 -3 30 -5 45 -5c41 0 62 18 62 55z" />
    <glyph glyph-name="thorn" unicode="&#xfe;" horiz-adv-x="550" 
d="M42 -181v882c0 26 13 39 39 39h110c25 0 38 -13 38 -39v-169c19 2 41 3 64 3c153 0 229 -72 229 -216v-108c0 -151 -78 -226 -233 -226c-8 0 -28 2 -60 5v-171c0 -25 -13 -38 -39 -38h-109c-26 0 -39 13 -39 38zM336 201v123c0 33 -19 49 -57 49c-16 0 -33 -2 -50 -6
v-216c15 -3 30 -5 45 -5c41 0 62 18 62 55z" />
    <glyph glyph-name="q" unicode="q" horiz-adv-x="548" 
d="M272 535c83 0 149 -11 197 -34c17 -8 27 -16 32 -23s7 -18 7 -35v-624c0 -25 -13 -38 -39 -38h-109c-26 0 -39 13 -39 38v172c-27 -4 -49 -6 -68 -6c-150 0 -225 72 -225 215v109c0 151 81 226 244 226zM215 318v-122c0 -33 19 -50 57 -50l49 5v211c0 4 -1 6 -4 7
c-11 3 -24 4 -40 4c-41 0 -62 -18 -62 -55z" />
    <glyph glyph-name="r" unicode="r" horiz-adv-x="362" 
d="M285 535h31c25 0 38 -13 38 -38v-85c0 -26 -13 -39 -38 -39h-38c-18 0 -33 -1 -46 -4c-3 0 -5 -2 -5 -6v-325c0 -25 -13 -38 -39 -38h-109c-26 0 -39 13 -39 38v405c0 29 14 49 42 60c49 19 116 29 203 32z" />
    <glyph glyph-name="racute" unicode="&#x155;" horiz-adv-x="362" 
d="M67 650l139 84c27 17 49 16 66 -2l53 -56c17 -19 16 -33 -5 -40l-180 -60c-23 -8 -39 -7 -46 3l-29 33c-13 17 -13 29 2 38zM285 535h31c25 0 38 -13 38 -38v-85c0 -26 -13 -39 -38 -39h-38c-18 0 -33 -1 -46 -4c-3 0 -5 -2 -5 -6v-325c0 -25 -13 -38 -39 -38h-109
c-26 0 -39 13 -39 38v405c0 29 14 49 42 60c49 19 116 29 203 32z" />
    <glyph glyph-name="rcaron" unicode="&#x159;" horiz-adv-x="362" 
d="M292 723h69c28 0 32 -11 12 -32l-92 -94c-18 -19 -41 -28 -68 -28h-25c-27 0 -50 9 -67 28l-93 94c-20 21 -16 32 11 32h77c29 0 49 -7 60 -20l28 -32l27 31c12 14 32 21 61 21zM287 535h31c25 0 38 -13 38 -38v-85c0 -26 -13 -39 -38 -39h-38c-18 0 -33 -1 -46 -4
c-3 0 -5 -2 -5 -6v-325c0 -25 -13 -38 -39 -38h-109c-26 0 -39 13 -39 38v405c0 29 14 49 42 60c49 19 116 29 203 32z" />
    <glyph glyph-name="uni0157" unicode="&#x157;" horiz-adv-x="362" 
d="M285 535h31c25 0 38 -13 38 -38v-85c0 -26 -13 -39 -38 -39h-38c-18 0 -33 -1 -46 -4c-3 0 -5 -2 -5 -6v-325c0 -25 -13 -38 -39 -38h-109c-26 0 -39 13 -39 38v405c0 29 14 49 42 60c49 19 116 29 203 32zM213 -83l-40 -109c-8 -23 -25 -35 -52 -35h-58
c-12 0 -20 2 -23 6s-4 12 -3 23l10 115c3 29 19 44 49 44h85c33 0 43 -15 32 -44z" />
    <glyph glyph-name="s" unicode="s" horiz-adv-x="518" 
d="M25 364c0 53 19 94 56 124c39 31 94 47 167 47c115 0 192 -36 231 -107c13 -25 6 -43 -21 -55l-76 -33c-15 -6 -25 -8 -32 -5c-4 1 -11 8 -20 19c-15 19 -39 28 -72 28c-42 0 -63 -9 -63 -27c0 -11 6 -18 17 -22c11 -5 32 -8 65 -11c80 -7 137 -22 170 -45
c34 -24 51 -62 51 -115c0 -55 -20 -98 -60 -129c-41 -32 -100 -48 -175 -48c-128 0 -207 40 -238 119c-10 25 -2 42 24 52l79 28c25 9 42 4 53 -15c13 -21 38 -32 75 -32c48 0 72 10 72 31c0 13 -6 21 -19 26c-12 5 -37 8 -76 11c-68 5 -118 18 -151 39
c-38 25 -57 65 -57 120z" />
    <glyph glyph-name="sacute" unicode="&#x15b;" horiz-adv-x="518" 
d="M122 650l139 84c27 17 49 16 66 -2l53 -56c17 -19 15 -33 -5 -40l-181 -60c-23 -8 -38 -7 -46 3l-28 33c-14 17 -13 29 2 38zM25 364c0 53 19 94 56 124c39 31 94 47 167 47c115 0 192 -36 231 -107c13 -25 6 -43 -21 -55l-76 -33c-15 -6 -25 -8 -32 -5
c-4 1 -11 8 -20 19c-15 19 -39 28 -72 28c-42 0 -63 -9 -63 -27c0 -11 6 -18 17 -22c11 -5 32 -8 65 -11c80 -7 137 -22 170 -45c34 -24 51 -62 51 -115c0 -55 -20 -98 -60 -129c-41 -32 -100 -48 -175 -48c-128 0 -207 40 -238 119c-10 25 -2 42 24 52l79 28
c25 9 42 4 53 -15c13 -21 38 -32 75 -32c48 0 72 10 72 31c0 13 -6 21 -19 26c-12 5 -37 8 -76 11c-68 5 -118 18 -151 39c-38 25 -57 65 -57 120z" />
    <glyph glyph-name="scaron" unicode="&#x161;" horiz-adv-x="518" 
d="M343 719h69c13 0 21 -3 22 -10c1 -6 -3 -13 -11 -22l-90 -92c-18 -18 -41 -27 -68 -27h-25c-27 0 -49 9 -66 27l-91 92c-20 21 -16 32 11 32h75c29 0 49 -7 60 -20l28 -31l26 31c12 13 32 20 60 20zM25 364c0 53 19 94 56 124c39 31 94 47 167 47c115 0 192 -36 231 -107
c13 -25 6 -43 -21 -55l-76 -33c-15 -6 -25 -8 -32 -5c-4 1 -11 8 -20 19c-15 19 -39 28 -72 28c-42 0 -63 -9 -63 -27c0 -11 6 -18 17 -22c11 -5 32 -8 65 -11c80 -7 137 -22 170 -45c34 -24 51 -62 51 -115c0 -55 -20 -98 -60 -129c-41 -32 -100 -48 -175 -48
c-128 0 -207 40 -238 119c-10 25 -2 42 24 52l79 28c25 9 42 4 53 -15c13 -21 38 -32 75 -32c48 0 72 10 72 31c0 13 -6 21 -19 26c-12 5 -37 8 -76 11c-68 5 -118 18 -151 39c-38 25 -57 65 -57 120z" />
    <glyph glyph-name="scedilla" unicode="&#x15f;" horiz-adv-x="518" 
d="M25 364c0 53 19 94 56 124c39 31 94 47 167 47c115 0 192 -36 231 -107c13 -25 6 -43 -21 -55l-76 -33c-15 -6 -25 -8 -32 -5c-4 1 -11 8 -20 19c-15 19 -39 28 -72 28c-42 0 -63 -9 -63 -27c0 -11 6 -18 17 -22c11 -5 32 -8 65 -11c80 -7 137 -22 170 -45
c34 -24 51 -62 51 -115c0 -101 -60 -159 -180 -174l-17 -41h10c27 -1 48 -10 63 -28s20 -40 17 -67c-7 -64 -56 -96 -146 -96c-29 0 -53 3 -74 10c-17 7 -25 17 -25 30l-1 40c0 21 10 27 31 16c17 -9 35 -14 54 -14c22 0 33 7 33 22c0 13 -14 20 -41 21h-20
c-17 0 -22 9 -13 28l35 78c-105 7 -172 46 -199 117c-10 25 -2 42 24 52l79 28c25 9 42 4 53 -15c13 -21 38 -32 75 -32c48 0 72 10 72 31c0 13 -6 21 -19 26c-12 5 -37 8 -76 11c-68 5 -118 18 -151 39c-38 25 -57 65 -57 120z" />
    <glyph glyph-name="scircumflex" unicode="&#x15d;" horiz-adv-x="518" 
d="M246 735h26c27 0 51 -10 70 -29l100 -99c9 -9 12 -16 11 -23c-2 -7 -11 -11 -26 -11h-82c-31 0 -53 7 -65 21l-28 35l-30 -34c-13 -15 -34 -22 -64 -22h-72c-15 0 -24 4 -25 11c-2 7 1 14 10 23l100 99c19 19 44 29 75 29zM25 364c0 53 19 94 56 124c39 31 94 47 167 47
c115 0 192 -36 231 -107c13 -25 6 -43 -21 -55l-76 -33c-15 -6 -25 -8 -32 -5c-4 1 -11 8 -20 19c-15 19 -39 28 -72 28c-42 0 -63 -9 -63 -27c0 -11 6 -18 17 -22c11 -5 32 -8 65 -11c80 -7 137 -22 170 -45c34 -24 51 -62 51 -115c0 -55 -20 -98 -60 -129
c-41 -32 -100 -48 -175 -48c-128 0 -207 40 -238 119c-10 25 -2 42 24 52l79 28c25 9 42 4 53 -15c13 -21 38 -32 75 -32c48 0 72 10 72 31c0 13 -6 21 -19 26c-12 5 -37 8 -76 11c-68 5 -118 18 -151 39c-38 25 -57 65 -57 120z" />
    <glyph glyph-name="uni0219" unicode="&#x219;" horiz-adv-x="518" 
d="M25 364c0 53 19 94 56 124c39 31 94 47 167 47c115 0 192 -36 231 -107c13 -25 6 -43 -21 -55l-76 -33c-15 -6 -25 -8 -32 -5c-4 1 -11 8 -20 19c-15 19 -39 28 -72 28c-42 0 -63 -9 -63 -27c0 -11 6 -18 17 -22c11 -5 32 -8 65 -11c80 -7 137 -22 170 -45
c34 -24 51 -62 51 -115c0 -55 -20 -98 -60 -129c-41 -32 -100 -48 -175 -48c-128 0 -207 40 -238 119c-10 25 -2 42 24 52l79 28c25 9 42 4 53 -15c13 -21 38 -32 75 -32c48 0 72 10 72 31c0 13 -6 21 -19 26c-12 5 -37 8 -76 11c-68 5 -118 18 -151 39
c-38 25 -57 65 -57 120zM346 -85l-40 -101c-9 -23 -26 -35 -52 -35h-58c-12 0 -20 2 -23 6c-3 3 -4 11 -3 23l10 107c3 30 19 45 49 45h85c33 0 43 -15 32 -45z" />
    <glyph glyph-name="germandbls" unicode="&#xdf;" horiz-adv-x="589" 
d="M42 42v485c0 69 20 124 61 163c42 40 103 60 182 60c169 0 253 -69 253 -206c0 -67 -24 -117 -72 -150v-4c67 -30 100 -91 100 -182c0 -139 -77 -208 -230 -208h-41c-28 0 -42 14 -42 42v91c0 28 14 42 42 42h14c37 1 56 20 56 59c0 40 -19 60 -56 60h-14
c-28 0 -42 14 -42 43v86c0 28 12 42 36 42h8c31 0 46 19 46 56c0 36 -19 54 -58 54c-38 0 -57 -19 -57 -57v-476c0 -28 -14 -42 -43 -42h-101c-28 0 -42 14 -42 42z" />
    <glyph glyph-name="longs" unicode="&#x17f;" horiz-adv-x="333" 
d="M85 520v3c0 145 85 217 254 217c27 0 40 -13 40 -39v-73c0 -27 -13 -40 -40 -40c-45 0 -68 -23 -68 -68v-482c0 -25 -13 -38 -39 -38h-108c-26 0 -39 13 -39 38v330h-32c-26 0 -39 13 -39 39v75c0 25 13 38 39 38h32z" />
    <glyph glyph-name="t" unicode="t" horiz-adv-x="402" 
d="M127 640h109c26 0 39 -13 39 -38v-82h69c25 0 38 -13 38 -38v-75c0 -26 -13 -39 -38 -39h-69v-147c0 -27 5 -45 16 -56c9 -9 27 -14 52 -14c26 0 39 -13 39 -39v-86c0 -26 -13 -39 -39 -39c-89 -1 -153 14 -192 46c-42 35 -63 93 -63 175v160h-43c-25 0 -38 13 -38 39v75
c0 25 13 38 38 38h43v82c0 25 13 38 39 38z" />
    <glyph glyph-name="tbar" unicode="&#x167;" horiz-adv-x="402" 
d="M127 640h110c25 0 38 -13 38 -38v-82h70c25 0 38 -13 38 -38v-75c0 -25 -13 -38 -38 -38h-70v-53h69c16 0 24 -9 24 -26v-46c0 -18 -8 -27 -24 -27h-69v-5c0 -25 6 -41 18 -50c9 -7 25 -10 50 -10c27 0 40 -13 40 -40v-86c0 -26 -13 -39 -40 -39c-89 -1 -152 14 -191 47
c-42 34 -63 92 -63 175v8h-44c-16 0 -24 9 -24 27v46c0 17 8 26 24 26h44v53h-44c-25 0 -38 13 -38 38v75c0 25 13 38 38 38h44v82c0 25 13 38 38 38z" />
    <glyph glyph-name="tcaron" unicode="&#x165;" horiz-adv-x="401" 
d="M489 698l-44 -109c-9 -23 -25 -34 -50 -34h-57c-11 0 -18 2 -21 6c-3 3 -5 11 -4 22l9 115c3 28 18 42 47 42h87c34 0 45 -14 33 -42zM127 640h109c26 0 39 -13 39 -38v-82h69c25 0 38 -13 38 -38v-75c0 -26 -13 -39 -38 -39h-69v-147c0 -27 5 -45 16 -56
c9 -9 27 -14 52 -14c26 0 39 -13 39 -39v-86c0 -26 -13 -39 -39 -39c-89 -1 -153 14 -192 46c-42 35 -63 93 -63 175v160h-43c-25 0 -38 13 -38 39v75c0 25 13 38 38 38h43v82c0 25 13 38 39 38z" />
    <glyph glyph-name="uni021B" unicode="&#x21b;" horiz-adv-x="402" 
d="M127 640h109c26 0 39 -13 39 -38v-82h69c25 0 38 -13 38 -38v-75c0 -26 -13 -39 -38 -39h-69v-147c0 -27 5 -45 16 -56c9 -9 27 -14 52 -14c26 0 39 -13 39 -39v-86c0 -26 -13 -39 -39 -39c-89 -1 -153 14 -192 46c-42 35 -63 93 -63 175v160h-43c-25 0 -38 13 -38 39v75
c0 25 13 38 38 38h43v82c0 25 13 38 39 38zM309 -90l-48 -137c-7 -22 -22 -33 -45 -33h-64c-20 0 -29 10 -27 30l16 140c4 28 19 42 45 42h89c33 0 45 -14 34 -42z" />
    <glyph glyph-name="u" unicode="u" horiz-adv-x="556" 
d="M368 520h110c25 0 38 -13 38 -38v-400c0 -29 -14 -49 -41 -60c-63 -25 -134 -37 -213 -37c-150 0 -225 72 -225 216v281c0 25 13 38 38 38h110c25 0 38 -13 38 -38v-274c0 -37 20 -55 60 -55c13 0 27 1 40 4c5 1 7 4 7 9v316c0 25 13 38 38 38z" />
    <glyph glyph-name="uacute" unicode="&#xfa;" horiz-adv-x="556" 
d="M146 650l139 84c27 17 49 16 66 -2l53 -56c17 -19 15 -33 -5 -40l-180 -60c-23 -8 -39 -7 -47 3l-28 33c-14 17 -13 29 2 38zM368 520h110c25 0 38 -13 38 -38v-400c0 -29 -14 -49 -41 -60c-63 -25 -134 -37 -213 -37c-150 0 -225 72 -225 216v281c0 25 13 38 38 38h110
c25 0 38 -13 38 -38v-274c0 -37 20 -55 60 -55c13 0 27 1 40 4c5 1 7 4 7 9v316c0 25 13 38 38 38z" />
    <glyph glyph-name="ubreve" unicode="&#x16d;" horiz-adv-x="556" 
d="M454 680c-27 -71 -86 -106 -177 -106c-92 0 -151 35 -176 106c-7 16 -1 28 17 35l66 25c17 6 29 2 38 -12c11 -22 30 -33 55 -33c23 0 41 11 54 33c8 13 20 17 35 12l71 -25c17 -7 23 -19 17 -35zM368 520h110c25 0 38 -13 38 -38v-400c0 -29 -14 -49 -41 -60
c-63 -25 -134 -37 -213 -37c-150 0 -225 72 -225 216v281c0 25 13 38 38 38h110c25 0 38 -13 38 -38v-274c0 -37 20 -55 60 -55c13 0 27 1 40 4c5 1 7 4 7 9v316c0 25 13 38 38 38z" />
    <glyph glyph-name="ucircumflex" unicode="&#xfb;" horiz-adv-x="556" 
d="M270 740h27c28 0 52 -10 71 -29l103 -102c9 -9 12 -16 11 -23c-2 -8 -11 -12 -26 -12h-84c-33 0 -56 7 -67 22l-28 35l-32 -35c-13 -15 -34 -22 -65 -22h-74c-15 0 -24 4 -25 12c-2 7 1 14 10 23l102 102c20 19 46 29 77 29zM368 520h110c25 0 38 -13 38 -38v-400
c0 -29 -14 -49 -41 -60c-63 -25 -134 -37 -213 -37c-150 0 -225 72 -225 216v281c0 25 13 38 38 38h110c25 0 38 -13 38 -38v-274c0 -37 20 -55 60 -55c13 0 27 1 40 4c5 1 7 4 7 9v316c0 25 13 38 38 38z" />
    <glyph glyph-name="udieresis" unicode="&#xfc;" horiz-adv-x="556" 
d="M165 733h8c27 0 46 -5 57 -15c11 -11 16 -29 16 -56v-13c0 -27 -5 -45 -16 -56s-30 -16 -57 -16h-8c-27 0 -46 5 -57 16c-10 11 -15 29 -15 56v13c0 27 5 46 15 56s29 15 57 15zM381 733h7c27 0 46 -5 57 -15c10 -10 15 -29 15 -56v-13c0 -27 -5 -45 -15 -56
c-11 -11 -30 -16 -57 -16h-7c-28 0 -47 5 -58 16s-16 29 -16 56v13c0 27 5 45 16 56c11 10 30 15 58 15zM368 520h110c25 0 38 -13 38 -38v-400c0 -29 -14 -49 -41 -60c-63 -25 -134 -37 -213 -37c-150 0 -225 72 -225 216v281c0 25 13 38 38 38h110c25 0 38 -13 38 -38
v-274c0 -37 20 -55 60 -55c13 0 27 1 40 4c5 1 7 4 7 9v316c0 25 13 38 38 38z" />
    <glyph glyph-name="ugrave" unicode="&#xf9;" horiz-adv-x="556" 
d="M153 676l53 56c17 18 39 19 66 2l139 -84c15 -9 16 -21 2 -38l-28 -33c-8 -10 -24 -11 -47 -3l-180 60c-20 7 -22 21 -5 40zM368 520h110c25 0 38 -13 38 -38v-400c0 -29 -14 -49 -41 -60c-63 -25 -134 -37 -213 -37c-150 0 -225 72 -225 216v281c0 25 13 38 38 38h110
c25 0 38 -13 38 -38v-274c0 -37 20 -55 60 -55c13 0 27 1 40 4c5 1 7 4 7 9v316c0 25 13 38 38 38z" />
    <glyph glyph-name="uhungarumlaut" unicode="&#x171;" horiz-adv-x="556" 
d="M94 618l70 95c17 23 39 31 66 26l67 -14c13 -3 20 -9 22 -17s-2 -17 -11 -26l-113 -95c-17 -13 -32 -18 -45 -15l-44 8c-24 5 -28 17 -12 38zM287 618l76 95c17 23 39 31 66 24l69 -18c13 -4 21 -10 23 -18c2 -9 -2 -17 -12 -25l-122 -91c-16 -13 -31 -18 -44 -15l-44 9
c-24 5 -28 18 -12 39zM368 520h110c25 0 38 -13 38 -38v-400c0 -29 -14 -49 -41 -60c-63 -25 -134 -37 -213 -37c-150 0 -225 72 -225 216v281c0 25 13 38 38 38h110c25 0 38 -13 38 -38v-274c0 -37 20 -55 60 -55c13 0 27 1 40 4c5 1 7 4 7 9v316c0 25 13 38 38 38z" />
    <glyph glyph-name="umacron" unicode="&#x16b;" horiz-adv-x="556" 
d="M154 710h244c15 0 24 -2 29 -7s8 -14 8 -29v-42c0 -15 -3 -24 -8 -29s-14 -7 -29 -7h-244c-14 0 -23 2 -28 7s-7 14 -7 29v42c0 24 12 36 35 36zM368 520h110c25 0 38 -13 38 -38v-400c0 -29 -14 -49 -41 -60c-63 -25 -134 -37 -213 -37c-150 0 -225 72 -225 216v281
c0 25 13 38 38 38h110c25 0 38 -13 38 -38v-274c0 -37 20 -55 60 -55c13 0 27 1 40 4c5 1 7 4 7 9v316c0 25 13 38 38 38z" />
    <glyph glyph-name="uogonek" unicode="&#x173;" horiz-adv-x="557" 
d="M368 520h110c25 0 38 -13 38 -38v-400c0 -19 -3 -32 -10 -41c-52 -67 -76 -118 -71 -154c2 -12 8 -18 18 -18c6 0 12 2 19 6c11 7 18 5 23 -6l21 -50c5 -13 3 -23 -6 -30c-30 -23 -67 -35 -111 -35c-63 0 -98 22 -107 67c-11 54 12 111 67 171c-33 -5 -65 -7 -97 -7
c-150 0 -225 72 -225 216v281c0 25 13 38 38 38h110c25 0 38 -13 38 -38v-274c0 -37 20 -55 60 -55c13 0 27 1 40 4c5 1 7 4 7 9v316c0 25 13 38 38 38z" />
    <glyph glyph-name="uring" unicode="&#x16f;" horiz-adv-x="556" 
d="M145 651c0 36 12 65 37 86c23 21 54 31 93 31c38 0 69 -10 92 -31c24 -22 36 -51 36 -86s-12 -64 -36 -85c-23 -21 -54 -31 -92 -31s-69 10 -93 31c-25 21 -37 49 -37 85zM310 651c0 23 -12 35 -35 35c-25 0 -38 -12 -38 -35s13 -35 38 -35c23 0 35 12 35 35zM368 520
h110c25 0 38 -13 38 -38v-400c0 -29 -14 -49 -41 -60c-63 -25 -134 -37 -213 -37c-150 0 -225 72 -225 216v281c0 25 13 38 38 38h110c25 0 38 -13 38 -38v-274c0 -37 20 -55 60 -55c13 0 27 1 40 4c5 1 7 4 7 9v316c0 25 13 38 38 38z" />
    <glyph glyph-name="utilde" unicode="&#x169;" horiz-adv-x="556" 
d="M363 731h60c15 0 23 -8 23 -23c0 -45 -8 -78 -25 -97c-15 -17 -40 -26 -73 -26c-28 0 -55 7 -81 21c-27 13 -44 20 -51 20c-10 0 -15 -7 -15 -22c0 -13 -6 -19 -19 -19h-62c-15 0 -23 8 -23 23c0 82 32 123 96 123c29 0 57 -7 84 -21s45 -21 52 -21c9 0 14 7 14 22
c0 13 7 20 20 20zM368 520h110c25 0 38 -13 38 -38v-400c0 -29 -14 -49 -41 -60c-63 -25 -134 -37 -213 -37c-150 0 -225 72 -225 216v281c0 25 13 38 38 38h110c25 0 38 -13 38 -38v-274c0 -37 20 -55 60 -55c13 0 27 1 40 4c5 1 7 4 7 9v316c0 25 13 38 38 38z" />
    <glyph glyph-name="v" unicode="v" horiz-adv-x="548" 
d="M405 520h101c19 0 30 -3 34 -9c5 -6 4 -18 -2 -35l-160 -442c-9 -23 -27 -34 -52 -34h-109c-27 0 -44 11 -53 34l-154 442c-6 17 -7 29 -2 35c4 6 15 9 34 9h96c21 0 36 -2 44 -7s14 -16 18 -31l52 -174c10 -34 16 -76 18 -127h8c2 50 8 92 18 127l49 173
c5 17 10 27 17 32s22 7 43 7z" />
    <glyph glyph-name="w" unicode="w" horiz-adv-x="775" 
d="M638 520h90c18 0 29 -3 34 -9c4 -6 3 -18 -2 -35l-118 -442c-6 -23 -23 -34 -52 -34h-98c-30 0 -48 11 -53 34l-32 134c-9 40 -15 87 -18 142h-7c-5 -55 -12 -102 -21 -142l-33 -134c-6 -23 -23 -34 -52 -34h-91c-29 0 -46 11 -53 34l-119 442c-5 17 -6 29 -2 35
c5 6 16 9 34 9h94c23 0 39 -2 47 -7c9 -5 14 -15 17 -31l24 -133c6 -35 10 -87 12 -156h8c3 69 9 121 16 156l30 132c3 16 8 27 17 32c8 5 24 7 47 7h64c23 0 38 -2 46 -7s14 -15 17 -31l31 -133c8 -37 13 -89 16 -156h8c1 65 5 117 12 156l24 132c3 16 8 27 16 32
s24 7 47 7z" />
    <glyph glyph-name="wacute" unicode="&#x1e83;" horiz-adv-x="775" 
d="M258 650l140 84c27 17 49 16 66 -2l52 -56c17 -19 16 -33 -5 -40l-180 -60c-23 -7 -38 -6 -46 3l-29 33c-13 17 -13 29 2 38zM638 520h90c18 0 29 -3 34 -9c4 -6 3 -18 -2 -35l-118 -442c-6 -23 -23 -34 -52 -34h-98c-30 0 -48 11 -53 34l-32 134c-9 40 -15 87 -18 142
h-7c-5 -55 -12 -102 -21 -142l-33 -134c-6 -23 -23 -34 -52 -34h-91c-29 0 -46 11 -53 34l-119 442c-5 17 -6 29 -2 35c5 6 16 9 34 9h94c23 0 39 -2 47 -7c9 -5 14 -15 17 -31l24 -133c6 -35 10 -87 12 -156h8c3 69 9 121 16 156l30 132c3 16 8 27 17 32c8 5 24 7 47 7h64
c23 0 38 -2 46 -7s14 -15 17 -31l31 -133c8 -37 13 -89 16 -156h8c1 65 5 117 12 156l24 132c3 16 8 27 16 32s24 7 47 7z" />
    <glyph glyph-name="wcircumflex" unicode="&#x175;" horiz-adv-x="775" 
d="M382 735h27c27 0 51 -10 70 -29l100 -99c9 -9 12 -16 11 -23c-2 -7 -11 -11 -26 -11h-82c-31 0 -53 7 -65 21l-28 35l-31 -34c-12 -15 -33 -22 -63 -22h-73c-15 0 -23 4 -25 11c-1 7 2 14 11 23l99 99c20 19 45 29 75 29zM638 520h90c18 0 29 -3 34 -9c4 -6 3 -18 -2 -35
l-118 -442c-6 -23 -23 -34 -52 -34h-98c-30 0 -48 11 -53 34l-32 134c-9 40 -15 87 -18 142h-7c-5 -55 -12 -102 -21 -142l-33 -134c-6 -23 -23 -34 -52 -34h-91c-29 0 -46 11 -53 34l-119 442c-5 17 -6 29 -2 35c5 6 16 9 34 9h94c23 0 39 -2 47 -7c9 -5 14 -15 17 -31
l24 -133c6 -35 10 -87 12 -156h8c3 69 9 121 16 156l30 132c3 16 8 27 17 32c8 5 24 7 47 7h64c23 0 38 -2 46 -7s14 -15 17 -31l31 -133c8 -37 13 -89 16 -156h8c1 65 5 117 12 156l24 132c3 16 8 27 16 32s24 7 47 7z" />
    <glyph glyph-name="wdieresis" unicode="&#x1e85;" horiz-adv-x="775" 
d="M278 733h7c28 0 47 -5 58 -15c11 -11 16 -29 16 -56v-13c0 -27 -5 -45 -16 -56s-30 -16 -58 -16h-7c-27 0 -46 5 -57 16c-10 11 -15 29 -15 56v13c0 27 5 46 15 56s29 15 57 15zM493 733h7c28 0 47 -5 58 -15c10 -10 15 -29 15 -56v-13c0 -27 -5 -45 -15 -56
c-11 -11 -30 -16 -58 -16h-7c-27 0 -46 5 -57 16s-16 29 -16 56v13c0 27 5 45 16 56c11 10 30 15 57 15zM638 520h90c18 0 29 -3 34 -9c4 -6 3 -18 -2 -35l-118 -442c-6 -23 -23 -34 -52 -34h-98c-30 0 -48 11 -53 34l-32 134c-9 40 -15 87 -18 142h-7
c-5 -55 -12 -102 -21 -142l-33 -134c-6 -23 -23 -34 -52 -34h-91c-29 0 -46 11 -53 34l-119 442c-5 17 -6 29 -2 35c5 6 16 9 34 9h94c23 0 39 -2 47 -7c9 -5 14 -15 17 -31l24 -133c6 -35 10 -87 12 -156h8c3 69 9 121 16 156l30 132c3 16 8 27 17 32c8 5 24 7 47 7h64
c23 0 38 -2 46 -7s14 -15 17 -31l31 -133c8 -37 13 -89 16 -156h8c1 65 5 117 12 156l24 132c3 16 8 27 16 32s24 7 47 7z" />
    <glyph glyph-name="wgrave" unicode="&#x1e81;" horiz-adv-x="775" 
d="M266 676l53 56c17 18 39 19 66 2l139 -84c15 -9 15 -21 2 -38l-29 -33c-7 -10 -23 -11 -46 -3l-180 60c-21 7 -22 21 -5 40zM638 520h90c18 0 29 -3 34 -9c4 -6 3 -18 -2 -35l-118 -442c-6 -23 -23 -34 -52 -34h-98c-30 0 -48 11 -53 34l-32 134c-9 40 -15 87 -18 142h-7
c-5 -55 -12 -102 -21 -142l-33 -134c-6 -23 -23 -34 -52 -34h-91c-29 0 -46 11 -53 34l-119 442c-5 17 -6 29 -2 35c5 6 16 9 34 9h94c23 0 39 -2 47 -7c9 -5 14 -15 17 -31l24 -133c6 -35 10 -87 12 -156h8c3 69 9 121 16 156l30 132c3 16 8 27 17 32c8 5 24 7 47 7h64
c23 0 38 -2 46 -7s14 -15 17 -31l31 -133c8 -37 13 -89 16 -156h8c1 65 5 117 12 156l24 132c3 16 8 27 16 32s24 7 47 7z" />
    <glyph glyph-name="x" unicode="x" horiz-adv-x="553" 
d="M399 520h103c38 0 47 -15 26 -45l-137 -207l146 -223c11 -16 14 -27 10 -34s-17 -11 -38 -11h-100c-23 0 -38 2 -45 5c-9 4 -17 13 -25 28l-64 114l-62 -114c-7 -15 -16 -24 -25 -28c-8 -3 -23 -5 -44 -5h-100c-22 0 -35 4 -39 11s-1 18 10 34l147 222l-140 208
c-21 30 -11 45 30 45h98c35 0 59 -11 71 -33l56 -97l56 97c8 15 16 24 24 28c7 3 21 5 42 5z" />
    <glyph glyph-name="y" unicode="y" horiz-adv-x="558" 
d="M368 520h110c25 0 38 -13 38 -38v-481c0 -154 -80 -231 -240 -231c-107 0 -181 33 -223 99c-16 24 -10 43 19 58l84 41c22 11 40 7 55 -13c16 -22 37 -33 63 -33c37 0 56 19 56 58v39c-18 -3 -41 -4 -68 -4c-150 0 -225 72 -225 216v251c0 25 13 38 38 38h110
c25 0 38 -13 38 -38v-244c0 -37 20 -55 60 -55c19 0 34 1 47 4v295c0 25 13 38 38 38z" />
    <glyph glyph-name="yacute" unicode="&#xfd;" horiz-adv-x="558" 
d="M146 650l139 84c27 17 49 16 66 -2l53 -56c17 -19 15 -33 -5 -40l-180 -60c-23 -8 -39 -7 -47 3l-28 33c-14 17 -13 29 2 38zM368 520h110c25 0 38 -13 38 -38v-481c0 -154 -80 -231 -240 -231c-107 0 -181 33 -223 99c-16 24 -10 43 19 58l84 41c22 11 40 7 55 -13
c16 -22 37 -33 63 -33c37 0 56 19 56 58v39c-18 -3 -41 -4 -68 -4c-150 0 -225 72 -225 216v251c0 25 13 38 38 38h110c25 0 38 -13 38 -38v-244c0 -37 20 -55 60 -55c19 0 34 1 47 4v295c0 25 13 38 38 38z" />
    <glyph glyph-name="ycircumflex" unicode="&#x177;" horiz-adv-x="558" 
d="M270 735h27c27 0 50 -10 69 -29l100 -99c9 -9 12 -16 11 -23c-2 -7 -10 -11 -25 -11h-82c-33 0 -54 7 -65 21l-29 35l-30 -34c-13 -15 -34 -22 -64 -22h-72c-15 0 -23 4 -25 11s1 14 10 23l100 99c19 19 44 29 75 29zM368 520h110c25 0 38 -13 38 -38v-481
c0 -154 -80 -231 -240 -231c-107 0 -181 33 -223 99c-16 24 -10 43 19 58l84 41c22 11 40 7 55 -13c16 -22 37 -33 63 -33c37 0 56 19 56 58v39c-18 -3 -41 -4 -68 -4c-150 0 -225 72 -225 216v251c0 25 13 38 38 38h110c25 0 38 -13 38 -38v-244c0 -37 20 -55 60 -55
c19 0 34 1 47 4v295c0 25 13 38 38 38z" />
    <glyph glyph-name="ydieresis" unicode="&#xff;" horiz-adv-x="558" 
d="M165 733h8c27 0 46 -5 57 -15c11 -11 16 -29 16 -56v-13c0 -27 -5 -45 -16 -56s-30 -16 -57 -16h-8c-27 0 -46 5 -57 16c-10 11 -15 29 -15 56v13c0 27 5 46 15 56s29 15 57 15zM381 733h7c27 0 46 -5 57 -15c10 -10 15 -29 15 -56v-13c0 -27 -5 -45 -15 -56
c-11 -11 -30 -16 -57 -16h-7c-28 0 -47 5 -58 16s-16 29 -16 56v13c0 27 5 45 16 56c11 10 30 15 58 15zM368 520h110c25 0 38 -13 38 -38v-481c0 -154 -80 -231 -240 -231c-107 0 -181 33 -223 99c-16 24 -10 43 19 58l84 41c22 11 40 7 55 -13c16 -22 37 -33 63 -33
c37 0 56 19 56 58v39c-18 -3 -41 -4 -68 -4c-150 0 -225 72 -225 216v251c0 25 13 38 38 38h110c25 0 38 -13 38 -38v-244c0 -37 20 -55 60 -55c19 0 34 1 47 4v295c0 25 13 38 38 38z" />
    <glyph glyph-name="ygrave" unicode="&#x1ef3;" horiz-adv-x="558" 
d="M153 676l53 56c17 18 39 19 66 2l139 -84c15 -9 16 -21 2 -38l-28 -33c-8 -10 -24 -11 -47 -3l-180 60c-20 7 -22 21 -5 40zM368 520h110c25 0 38 -13 38 -38v-481c0 -154 -80 -231 -240 -231c-107 0 -181 33 -223 99c-16 24 -10 43 19 58l84 41c22 11 40 7 55 -13
c16 -22 37 -33 63 -33c37 0 56 19 56 58v39c-18 -3 -41 -4 -68 -4c-150 0 -225 72 -225 216v251c0 25 13 38 38 38h110c25 0 38 -13 38 -38v-244c0 -37 20 -55 60 -55c19 0 34 1 47 4v295c0 25 13 38 38 38z" />
    <glyph glyph-name="z" unicode="z" horiz-adv-x="493" 
d="M253 158h177c25 0 38 -12 38 -37v-83c0 -25 -13 -38 -38 -38h-366c-26 0 -39 13 -39 38v78c0 16 5 29 15 40l185 206h-156c-25 0 -38 12 -38 37v83c0 25 13 38 38 38h356c25 0 38 -13 38 -38v-78c0 -15 -7 -31 -20 -46z" />
    <glyph glyph-name="zacute" unicode="&#x17a;" horiz-adv-x="493" 
d="M116 650l139 84c27 17 49 16 66 -2l53 -56c17 -19 16 -33 -5 -40l-180 -60c-23 -8 -39 -7 -46 3l-29 33c-14 17 -13 29 2 38zM253 158h177c25 0 38 -12 38 -37v-83c0 -25 -13 -38 -38 -38h-366c-26 0 -39 13 -39 38v78c0 16 5 29 15 40l185 206h-156c-25 0 -38 12 -38 37
v83c0 25 13 38 38 38h356c25 0 38 -13 38 -38v-78c0 -15 -7 -31 -20 -46z" />
    <glyph glyph-name="zcaron" unicode="&#x17e;" horiz-adv-x="493" 
d="M336 718h69c13 0 21 -3 22 -10c1 -6 -3 -13 -11 -21l-90 -92c-17 -18 -40 -27 -67 -27h-25c-27 0 -49 9 -66 27l-91 92c-19 21 -16 31 11 31h76c29 0 48 -6 59 -19l27 -31l27 31c11 13 31 19 59 19zM253 158h177c25 0 38 -12 38 -37v-83c0 -25 -13 -38 -38 -38h-366
c-26 0 -39 13 -39 38v78c0 16 5 29 15 40l185 206h-156c-25 0 -38 12 -38 37v83c0 25 13 38 38 38h356c25 0 38 -13 38 -38v-78c0 -15 -7 -31 -20 -46z" />
    <glyph glyph-name="zdotaccent" unicode="&#x17c;" horiz-adv-x="493" 
d="M244 736h6c29 0 48 -5 59 -16c10 -10 15 -30 15 -59v-8c0 -29 -5 -49 -15 -59c-11 -11 -30 -16 -59 -16h-6c-29 0 -48 5 -59 16s-16 30 -16 59v8c0 29 5 49 16 59c11 11 30 16 59 16zM253 158h177c25 0 38 -12 38 -37v-83c0 -25 -13 -38 -38 -38h-366
c-26 0 -39 13 -39 38v78c0 16 5 29 15 40l185 206h-156c-25 0 -38 12 -38 37v83c0 25 13 38 38 38h356c25 0 38 -13 38 -38v-78c0 -15 -7 -31 -20 -46z" />
    <glyph glyph-name="ordfeminine" unicode="&#xaa;" horiz-adv-x="354" 
d="M44 619c28 36 72 54 133 54c94 0 141 -42 141 -127v-129c0 -24 -12 -41 -37 -50c-29 -10 -64 -15 -106 -15c-54 0 -92 9 -115 26c-19 15 -29 38 -29 69c0 32 10 56 30 71c23 17 62 26 116 26c6 0 11 0 14 -1v16c0 13 -6 20 -18 20c-7 0 -16 -5 -27 -14
c-14 -14 -31 -17 -50 -9l-37 19c-23 11 -28 25 -15 44zM191 469h-18c-12 0 -18 -5 -18 -16s6 -17 18 -17l16 1c1 0 2 1 2 2v30z" />
    <glyph glyph-name="ordmasculine" unicode="&#xba;" horiz-adv-x="352" 
d="M30 482v61c0 41 12 73 37 96c26 23 62 35 109 35c97 0 146 -44 146 -131v-61c0 -87 -49 -130 -146 -130s-146 43 -146 130zM199 481v64c0 13 -8 19 -23 19s-23 -6 -23 -19v-64c0 -13 8 -19 23 -19s23 6 23 19z" />
    <glyph glyph-name="uni0410" unicode="&#x410;" horiz-adv-x="688" 
d="M452 677l231 -636c10 -27 0 -41 -29 -41h-108c-43 0 -68 14 -75 42l-23 72h-216l-23 -72c-5 -16 -12 -27 -21 -33c-11 -6 -28 -9 -52 -9h-105c-28 0 -37 14 -27 41l230 634c8 23 25 35 52 35h114c26 0 43 -11 52 -33zM403 271l-37 117c-13 45 -21 92 -22 140h-10
c1 -48 -6 -94 -19 -139l-37 -118h125z" />
    <glyph glyph-name="uni0411" unicode="&#x411;" horiz-adv-x="641" 
d="M93 711h441c28 0 42 -14 42 -43v-78c0 -28 -14 -42 -42 -42h-286v-89h143c71 0 127 -20 169 -61c43 -41 64 -98 64 -169c0 -70 -21 -126 -64 -167c-42 -41 -98 -62 -169 -62h-299c-28 0 -42 13 -42 40v628c0 29 14 43 43 43zM422 230c0 44 -24 66 -73 66h-101v-133h101
c49 0 73 22 73 67z" />
    <glyph glyph-name="uni0412" unicode="&#x412;" horiz-adv-x="658" 
d="M93 711h293c69 0 123 -16 162 -49s59 -80 59 -141c0 -65 -24 -114 -72 -147v-4c67 -29 101 -87 101 -172c0 -63 -23 -112 -70 -147c-45 -34 -103 -51 -176 -51h-297c-29 0 -43 14 -43 42v626c0 29 14 43 43 43zM406 494c0 37 -20 56 -61 56h-97v-110h97c41 0 61 18 61 54
zM428 221c0 39 -21 58 -64 58h-116v-117h116c43 0 64 20 64 59z" />
    <glyph glyph-name="uni0413" unicode="&#x413;" horiz-adv-x="531" 
d="M93 710h384c29 0 43 -14 43 -42v-90c0 -29 -14 -43 -43 -43h-229v-493c0 -28 -14 -42 -42 -42h-113c-29 0 -43 14 -43 42v626c0 28 14 42 43 42z" />
    <glyph glyph-name="uni0414" unicode="&#x414;" horiz-adv-x="789" 
d="M204 710h436c29 0 43 -14 43 -42v-493h48c28 0 42 -14 42 -41v-245c0 -28 -14 -42 -42 -42h-110c-29 0 -43 14 -43 42v111h-366v-111c0 -28 -14 -42 -42 -42h-111c-28 0 -42 14 -42 42v245c0 27 14 41 42 41h22c53 45 80 133 80 265v228c0 28 14 42 43 42zM355 535v-94
c0 -111 -16 -200 -47 -266h177v360h-130z" />
    <glyph glyph-name="uni0415" unicode="&#x415;" horiz-adv-x="588" 
d="M93 710h419c29 0 43 -14 43 -42v-90c0 -29 -14 -43 -43 -43h-264v-89h211c29 0 43 -14 43 -42v-90c0 -29 -14 -43 -43 -43h-211v-96h273c28 0 42 -14 42 -42v-91c0 -28 -14 -42 -42 -42h-428c-29 0 -43 14 -43 42v626c0 28 14 42 43 42z" />
    <glyph glyph-name="uni0401" unicode="&#x401;" horiz-adv-x="588" 
d="M187 906h8c27 0 46 -5 57 -15c11 -11 16 -29 16 -56v-13c0 -27 -5 -45 -16 -56s-30 -16 -57 -16h-8c-27 0 -46 5 -57 16c-10 11 -15 29 -15 56v13c0 27 5 46 15 56c11 10 30 15 57 15zM403 906h7c27 0 46 -5 57 -15c10 -10 15 -29 15 -56v-13c0 -27 -5 -45 -15 -56
c-11 -11 -30 -16 -57 -16h-7c-28 0 -47 5 -58 16s-16 29 -16 56v13c0 27 5 45 16 56c11 10 30 15 58 15zM93 710h419c29 0 43 -14 43 -42v-90c0 -29 -14 -43 -43 -43h-264v-89h211c29 0 43 -14 43 -42v-90c0 -29 -14 -43 -43 -43h-211v-96h273c28 0 42 -14 42 -42v-91
c0 -28 -14 -42 -42 -42h-428c-29 0 -43 14 -43 42v626c0 28 14 42 43 42z" />
    <glyph glyph-name="uni0416" unicode="&#x416;" horiz-adv-x="978" 
d="M816 710h115c32 0 40 -15 24 -44l-160 -300c16 -17 31 -40 45 -67l126 -250c7 -14 9 -26 5 -35c-5 -9 -15 -14 -31 -14h-108c-47 0 -76 14 -89 42l-82 184c-14 31 -36 46 -65 46h-8v-230c0 -28 -14 -42 -42 -42h-114c-28 0 -42 14 -42 42v230h-8c-29 0 -51 -15 -65 -46
l-82 -184c-13 -28 -42 -42 -89 -42h-108c-16 0 -26 5 -31 14c-4 9 -2 21 5 35l126 250c14 27 29 50 45 67l-160 300c-14 29 -6 44 24 44h115c27 0 45 -2 54 -6c9 -5 18 -15 26 -31l118 -228c6 1 13 1 22 1h8v222c0 28 14 42 42 42h114c28 0 42 -14 42 -42v-222h8
c9 0 17 0 22 -1l118 228c8 16 17 26 27 31c9 4 26 6 53 6z" />
    <glyph glyph-name="uni0417" unicode="&#x417;" horiz-adv-x="649" 
d="M599 517c0 -68 -26 -116 -78 -145c68 -31 102 -88 102 -170c0 -145 -94 -217 -283 -217c-169 0 -276 58 -320 175c-9 27 0 45 27 54l98 35c26 9 44 0 54 -27c17 -43 59 -65 125 -65c61 0 91 20 91 59s-21 59 -62 59h-95c-29 0 -43 14 -43 42v83c0 29 14 43 43 43h79
c41 0 61 18 61 55s-26 55 -78 55c-62 0 -101 -22 -118 -65c-6 -15 -13 -25 -20 -29c-7 -3 -19 -3 -34 2l-99 35c-27 9 -36 27 -26 54c43 117 148 175 316 175c173 0 260 -69 260 -208z" />
    <glyph glyph-name="uni0418" unicode="&#x418;" horiz-adv-x="705" 
d="M492 711h120c29 0 43 -14 43 -43v-626c0 -28 -14 -42 -43 -42h-112c-29 0 -43 14 -43 43v170c0 63 13 146 38 248h-8c-29 -79 -60 -148 -94 -206l-138 -235c-7 -13 -21 -20 -41 -20h-121c-29 0 -43 14 -43 42v626c0 28 14 42 43 42h113c28 0 42 -14 42 -42v-171
c0 -83 -12 -165 -37 -247h7c36 91 68 161 96 208l136 233c9 13 23 20 42 20z" />
    <glyph glyph-name="uni0419" unicode="&#x419;" horiz-adv-x="705" 
d="M559 859c-31 -75 -98 -112 -202 -112c-103 0 -169 37 -200 112c-7 17 0 29 20 37l75 26c19 7 34 2 43 -13c14 -23 35 -34 62 -34s47 11 62 34c10 15 23 19 40 14l80 -27c20 -7 27 -20 20 -37zM492 711h120c29 0 43 -14 43 -43v-626c0 -28 -14 -42 -43 -42h-112
c-29 0 -43 14 -43 43v170c0 63 13 146 38 248h-8c-29 -79 -60 -148 -94 -206l-138 -235c-7 -13 -21 -20 -41 -20h-121c-29 0 -43 14 -43 42v626c0 28 14 42 43 42h113c28 0 42 -14 42 -42v-171c0 -83 -12 -165 -37 -247h7c36 91 68 161 96 208l136 233c9 13 23 20 42 20z
" />
    <glyph glyph-name="uni041A" unicode="&#x41a;" horiz-adv-x="655" 
d="M512 299l132 -250c7 -14 9 -26 5 -35c-5 -9 -15 -14 -31 -14h-108c-46 0 -76 14 -89 42l-87 179c-17 33 -39 50 -68 50h-18v-229c0 -28 -14 -42 -42 -42h-113c-29 0 -43 14 -43 42v626c0 28 14 42 43 42h113c28 0 42 -14 42 -42v-222h22l144 227c10 16 19 26 28 30
c9 5 27 7 52 7h115c15 0 25 -4 29 -12c5 -9 3 -19 -5 -32l-182 -290c23 -17 44 -42 61 -77z" />
    <glyph glyph-name="uni041B" unicode="&#x41b;" horiz-adv-x="698" 
d="M176 710h427c29 0 43 -14 43 -42v-626c0 -28 -14 -42 -43 -42h-113c-28 0 -42 14 -42 42v493h-120v-94c0 -135 -20 -238 -60 -311c-31 -58 -81 -104 -149 -137c-24 -13 -43 -6 -57 20l-57 102c-13 24 -6 43 20 58c36 21 62 47 77 76c21 42 31 106 31 191v228
c0 28 14 42 43 42z" />
    <glyph glyph-name="uni041C" unicode="&#x41c;" horiz-adv-x="825" 
d="M632 711h100c29 0 43 -14 43 -42v-628c0 -27 -14 -41 -43 -41h-109c-28 0 -42 14 -42 41v143c0 72 15 159 44 262h-11c-17 -56 -39 -111 -67 -165l-56 -113c-11 -19 -27 -29 -48 -29h-67c-22 0 -38 10 -48 29l-59 113c-21 37 -41 92 -62 165h-10c27 -109 41 -197 41 -263
v-142c0 -27 -14 -41 -43 -41h-102c-29 0 -43 14 -43 41v628c0 28 14 42 43 42h94c28 0 48 -10 59 -31l165 -324l165 323c11 21 30 32 56 32z" />
    <glyph glyph-name="uni041D" unicode="&#x41d;" horiz-adv-x="690" 
d="M484 711h114c28 0 42 -14 42 -43v-626c0 -28 -14 -42 -42 -42h-114c-28 0 -42 14 -42 42v230h-194v-230c0 -28 -14 -42 -42 -42h-113c-29 0 -43 14 -43 42v626c0 29 14 43 43 43h113c28 0 42 -14 42 -43v-221h194v221c0 29 14 43 42 43z" />
    <glyph glyph-name="uni041E" unicode="&#x41e;" horiz-adv-x="682" 
d="M33 265v180c0 87 27 156 80 205c54 50 130 75 228 75c97 0 173 -25 227 -75c53 -49 80 -118 80 -205v-180c0 -87 -27 -156 -80 -205c-54 -50 -130 -75 -227 -75c-98 0 -174 25 -228 75c-53 49 -80 118 -80 205zM450 256v198c0 64 -36 96 -109 96s-110 -32 -110 -96v-198
c0 -64 37 -96 110 -96s109 32 109 96z" />
    <glyph glyph-name="uni041F" unicode="&#x41f;" horiz-adv-x="685" 
d="M93 710h500c28 0 42 -14 42 -42v-626c0 -28 -14 -42 -42 -42h-114c-28 0 -42 14 -42 42v493h-189v-493c0 -28 -14 -42 -42 -42h-113c-29 0 -43 14 -43 42v626c0 28 14 42 43 42z" />
    <glyph glyph-name="uni0420" unicode="&#x420;" horiz-adv-x="647" 
d="M93 710h276c79 0 141 -22 188 -65c47 -45 70 -106 70 -185c0 -78 -23 -139 -70 -183c-45 -43 -107 -64 -186 -64h-123v-171c0 -28 -14 -42 -42 -42h-113c-29 0 -43 14 -43 42v626c0 28 14 42 43 42zM248 388h99c50 0 75 24 75 73s-25 74 -75 74h-99v-147z" />
    <glyph glyph-name="uni0421" unicode="&#x421;" horiz-adv-x="651" 
d="M33 265v180c0 87 27 156 80 205c54 50 130 75 228 75c151 0 248 -58 292 -175c9 -27 0 -45 -27 -54l-107 -38c-16 -5 -27 -5 -34 -1c-8 3 -15 13 -20 28c-17 43 -52 65 -104 65c-73 0 -110 -35 -110 -104v-182c0 -69 37 -104 110 -104c53 0 88 22 104 65
c6 16 13 26 20 29c8 4 19 3 34 -2l107 -38c27 -9 36 -27 27 -54c-44 -117 -141 -175 -292 -175c-98 0 -174 25 -228 75c-53 49 -80 118 -80 205z" />
    <glyph glyph-name="uni0422" unicode="&#x422;" horiz-adv-x="603" 
d="M54 710h495c29 0 43 -14 43 -42v-90c0 -29 -14 -43 -43 -43h-148v-493c0 -28 -14 -42 -43 -42h-113c-28 0 -42 14 -42 42v493h-149c-28 0 -42 14 -42 43v90c0 28 14 42 42 42z" />
    <glyph glyph-name="uni0423" unicode="&#x423;" horiz-adv-x="628" 
d="M479 710h119c26 0 33 -14 21 -42l-264 -631c-7 -15 -14 -25 -23 -30s-24 -7 -46 -7h-127c-27 0 -34 14 -21 42l75 168l-212 458c-13 28 -5 42 24 42h118c25 0 42 -2 51 -5c11 -5 19 -15 26 -32l97 -222l92 222c6 17 14 27 23 31c8 4 24 6 47 6z" />
    <glyph glyph-name="uni0424" unicode="&#x424;" horiz-adv-x="862" 
d="M375 735h112c29 0 43 -14 43 -42v-43h30c93 0 164 -23 213 -70c49 -46 73 -111 73 -196v-54c0 -84 -24 -149 -73 -195c-50 -47 -121 -70 -213 -70h-30v-43c0 -29 -14 -43 -43 -43h-112c-29 0 -43 14 -43 43v43h-30c-93 0 -164 23 -213 70c-49 46 -73 111 -73 195v54
c0 85 24 150 73 196c49 47 120 70 213 70h30v43c0 28 14 42 43 42zM332 480h-21c-62 0 -93 -29 -93 -88v-69c0 -59 31 -88 93 -88h21v245zM644 323v69c0 59 -31 88 -93 88h-21v-245h21c62 0 93 29 93 88z" />
    <glyph glyph-name="uni0425" unicode="&#x425;" horiz-adv-x="664" 
d="M446 362l208 -320c8 -11 10 -21 7 -29c-3 -9 -13 -13 -28 -13h-129c-26 0 -44 2 -53 6c-10 4 -20 14 -29 31l-95 164l-92 -164c-10 -16 -19 -26 -28 -30c-10 -5 -28 -7 -55 -7h-123c-15 0 -24 4 -28 12c-3 8 -1 18 7 30l205 320l-196 308c-7 11 -9 21 -6 28
c4 8 13 12 27 12h119c27 0 45 -2 54 -6c10 -4 20 -14 29 -29l90 -154l89 154c9 16 19 26 28 30c9 3 25 5 49 5h128c13 0 22 -4 26 -12c3 -7 1 -17 -6 -28z" />
    <glyph glyph-name="uni0427" unicode="&#x427;" horiz-adv-x="658" 
d="M452 710h113c28 0 42 -14 42 -42v-626c0 -28 -14 -42 -42 -42h-113c-29 0 -43 14 -43 42v195c-31 -5 -65 -7 -102 -7c-186 0 -279 93 -279 278v160c0 28 14 42 42 42h113c29 0 43 -14 43 -42v-160c0 -61 37 -92 111 -92c28 0 52 2 72 7v245c0 28 14 42 43 42z" />
    <glyph glyph-name="uni0426" unicode="&#x426;" horiz-adv-x="732" 
d="M632 175h41c29 0 43 -14 43 -41v-245c0 -29 -14 -43 -43 -43h-103c-28 0 -42 14 -42 43v111h-435c-29 0 -43 14 -43 42v626c0 28 14 42 43 42h113c28 0 42 -14 42 -42v-493h186v493c0 28 14 42 43 42h113c28 0 42 -14 42 -42v-493z" />
    <glyph glyph-name="uni0428" unicode="&#x428;" horiz-adv-x="950" 
d="M744 710h114c28 0 42 -14 42 -42v-626c0 -28 -14 -42 -42 -42h-765c-29 0 -43 14 -43 42v626c0 28 14 42 43 42h113c28 0 42 -14 42 -42v-493h128v493c0 28 14 42 43 42h113c28 0 42 -14 42 -42v-493h128v493c0 28 14 42 42 42z" />
    <glyph glyph-name="uni0429" unicode="&#x429;" horiz-adv-x="1000" 
d="M900 175h41c28 0 42 -14 42 -41v-246c0 -28 -14 -42 -42 -42h-103c-29 0 -43 14 -43 42v112h-702c-29 0 -43 14 -43 42v626c0 28 14 42 43 42h113c28 0 42 -14 42 -42v-493h128v493c0 28 14 42 43 42h113c28 0 42 -14 42 -42v-493h128v493c0 28 14 42 42 42h114
c28 0 42 -14 42 -42v-493z" />
    <glyph glyph-name="uni042F" unicode="&#x42f;" horiz-adv-x="660" 
d="M34 469c0 77 22 136 67 179c44 41 104 62 181 62h286c28 0 42 -14 42 -42v-626c0 -28 -14 -42 -42 -42h-114c-28 0 -42 14 -42 42v194h-27c-38 0 -64 -17 -77 -51l-59 -143c-7 -17 -17 -29 -30 -34c-11 -5 -31 -8 -58 -8h-109c-33 0 -41 16 -26 49l82 171
c9 17 19 33 28 46c-68 40 -102 108 -102 203zM412 535h-107c-44 0 -66 -22 -66 -65s22 -64 66 -64h107v129z" />
    <glyph glyph-name="uni042C" unicode="&#x42c;" horiz-adv-x="647" 
d="M369 0h-276c-29 0 -43 14 -43 42v626c0 28 14 42 43 42h113c28 0 42 -14 42 -42v-171h123c79 0 141 -21 186 -64c47 -44 70 -105 70 -183c0 -79 -23 -140 -70 -185c-47 -43 -109 -65 -188 -65zM248 322v-147h99c50 0 75 25 75 74s-25 73 -75 73h-99z" />
    <glyph glyph-name="uni042A" unicode="&#x42a;" horiz-adv-x="781" 
d="M383 497h122c79 0 141 -21 187 -64c46 -44 69 -105 69 -183c0 -79 -23 -140 -70 -185c-46 -43 -108 -65 -187 -65h-277c-28 0 -42 14 -42 42v493h-131c-28 0 -42 14 -42 42v91c0 28 14 42 42 42h286c29 0 43 -14 43 -42v-171zM383 175h98c50 0 75 25 75 74s-25 73 -75 73
h-98v-147z" />
    <glyph glyph-name="uni042B" unicode="&#x42b;" horiz-adv-x="939" 
d="M369 0h-276c-29 0 -43 14 -43 42v626c0 28 14 42 43 42h113c28 0 42 -14 42 -42v-171h123c79 0 141 -21 186 -64c47 -44 70 -105 70 -183c0 -79 -23 -140 -70 -185c-47 -43 -109 -65 -188 -65zM690 40v630c0 27 13 40 40 40h118c27 0 40 -13 40 -40v-630
c0 -27 -13 -40 -40 -40h-118c-27 0 -40 13 -40 40zM248 322v-147h99c50 0 75 25 75 74s-25 73 -75 73h-99z" />
    <glyph glyph-name="uni042D" unicode="&#x42d;" horiz-adv-x="655" 
d="M21 550c44 117 141 175 292 175c98 0 174 -25 228 -75c53 -49 80 -118 80 -205v-180c0 -87 -27 -156 -80 -205c-54 -50 -130 -75 -228 -75c-151 0 -248 58 -292 175c-9 27 0 45 27 54l98 35c26 9 44 0 54 -27c17 -43 55 -65 113 -65c73 0 110 32 110 96v21h-167
c-28 0 -42 14 -42 43v84c0 29 14 43 42 43h167v17c0 61 -37 92 -110 92c-58 0 -96 -22 -113 -65c-5 -15 -12 -25 -19 -29c-8 -3 -20 -3 -35 2l-98 35c-27 9 -36 27 -27 54z" />
    <glyph glyph-name="uni042E" unicode="&#x42e;" horiz-adv-x="969" 
d="M338 447v20c0 81 26 144 79 189c53 46 125 69 218 69c96 0 170 -25 223 -75c51 -49 77 -118 77 -205v-180c0 -87 -26 -156 -77 -205c-53 -50 -127 -75 -223 -75c-93 0 -166 24 -219 71s-79 112 -79 194v22h-89v-230c0 -28 -14 -42 -42 -42h-113c-29 0 -43 14 -43 42v626
c0 28 14 42 43 42h113c28 0 42 -14 42 -42v-221h90zM737 255v200c0 63 -34 95 -102 95c-67 0 -100 -32 -100 -95v-200c0 -63 33 -95 100 -95c68 0 102 32 102 95z" />
    <glyph glyph-name="uni0430" unicode="&#x430;" 
d="M40 431c36 69 110 104 222 104c155 0 233 -72 233 -216v-246c0 -30 -13 -50 -38 -60c-44 -19 -110 -28 -198 -28c-91 0 -154 14 -189 41c-33 25 -49 66 -49 125c0 63 19 107 57 132c36 23 98 35 186 35l45 -1v25c0 34 -19 51 -56 51c-27 0 -48 -11 -65 -34
c-13 -18 -32 -22 -55 -13l-72 30c-27 12 -34 30 -21 55zM309 120v71c-9 1 -26 1 -53 1c-35 0 -53 -13 -53 -40s17 -40 51 -40c23 0 40 1 50 3c3 0 5 2 5 5z" />
    <glyph glyph-name="uni0431" unicode="&#x431;" horiz-adv-x="560" 
d="M329 729h32c29 0 53 4 72 12c25 12 43 3 54 -26l26 -73c7 -24 -1 -42 -24 -55c-22 -11 -61 -16 -116 -16h-41c-76 0 -114 -28 -114 -85v-9c25 19 56 28 93 28c67 0 121 -19 161 -58c41 -40 61 -94 61 -161v-82c0 -69 -21 -123 -63 -160c-43 -39 -105 -59 -186 -59
c-80 0 -142 20 -185 59c-42 38 -63 91 -63 160v193c0 119 22 203 66 254c45 52 120 78 227 78zM347 199v92c0 36 -21 54 -63 54c-41 0 -62 -18 -62 -54v-92c0 -35 21 -53 62 -53c42 0 63 18 63 53z" />
    <glyph glyph-name="uni0432" unicode="&#x432;" horiz-adv-x="541" 
d="M499 372c0 -43 -14 -76 -41 -100c41 -27 62 -67 62 -122c0 -47 -16 -83 -47 -110s-73 -40 -126 -40h-267c-26 0 -39 13 -39 38v444c0 25 13 38 39 38h252c53 0 94 -13 124 -40c29 -26 43 -62 43 -108zM223 324h58c25 0 38 12 38 36s-13 36 -38 36h-58v-72zM223 123h66
c29 0 43 14 43 42c0 26 -14 39 -43 39h-66v-81z" />
    <glyph glyph-name="uni0433" unicode="&#x433;" horiz-adv-x="438" 
d="M79 520h310c25 0 38 -13 38 -38v-87c0 -26 -13 -39 -38 -39h-162v-318c0 -25 -13 -38 -38 -38h-110c-25 0 -38 13 -38 38v444c0 25 13 38 38 38z" />
    <glyph glyph-name="uni0434" unicode="&#x434;" horiz-adv-x="648" 
d="M561 152h34c25 0 38 -13 38 -39v-214c0 -25 -13 -38 -38 -38h-104c-27 0 -40 13 -40 38v90h-249v-90c0 -25 -13 -38 -39 -38h-105c-25 0 -38 13 -38 38v214c0 26 13 39 38 39h15c31 29 46 83 46 162v168c0 25 12 38 37 38h366c26 0 39 -13 39 -38v-330zM294 356v-42
c0 -65 -8 -119 -24 -162h104v204h-80z" />
    <glyph glyph-name="uni0435" unicode="&#x435;" horiz-adv-x="549" 
d="M27 216v88c0 75 21 132 64 172c43 39 105 59 186 59c83 0 146 -21 190 -64c41 -39 61 -91 61 -155v-55c0 -35 -18 -52 -55 -52h-260v-19c0 -43 22 -65 65 -65c34 0 61 12 80 37c13 18 31 21 56 10l69 -30c27 -13 33 -32 19 -58c-38 -66 -113 -99 -226 -99
c-85 0 -149 22 -192 66c-38 40 -57 95 -57 165zM341 330v13c0 40 -21 60 -64 60s-64 -20 -64 -60v-13h128z" />
    <glyph glyph-name="uni0451" unicode="&#x451;" horiz-adv-x="549" 
d="M166 733h7c28 0 47 -5 58 -15c11 -11 16 -29 16 -56v-13c0 -27 -5 -45 -16 -56s-30 -16 -58 -16h-7c-27 0 -46 5 -57 16c-10 11 -15 29 -15 56v13c0 27 5 46 15 56s29 15 57 15zM381 733h7c28 0 47 -5 58 -15c10 -10 15 -29 15 -56v-13c0 -27 -5 -45 -15 -56
c-11 -11 -30 -16 -58 -16h-7c-27 0 -46 5 -57 16s-16 29 -16 56v13c0 27 5 45 16 56c11 10 30 15 57 15zM27 216v88c0 75 21 132 64 172c43 39 105 59 186 59c83 0 146 -21 190 -64c41 -39 61 -91 61 -155v-55c0 -35 -18 -52 -55 -52h-260v-19c0 -43 22 -65 65 -65
c34 0 61 12 80 37c13 18 31 21 56 10l69 -30c27 -13 33 -32 19 -58c-38 -66 -113 -99 -226 -99c-85 0 -149 22 -192 66c-38 40 -57 95 -57 165zM341 330v13c0 40 -21 60 -64 60s-64 -20 -64 -60v-13h128z" />
    <glyph glyph-name="uni0436" unicode="&#x436;" horiz-adv-x="792" 
d="M341 520h108c26 0 39 -13 39 -39v-141h15l66 144c11 24 35 36 72 36h89c37 0 48 -16 31 -49l-98 -202c9 -9 17 -22 24 -37l82 -181c15 -34 5 -51 -31 -51h-92c-23 0 -40 2 -50 7s-18 16 -23 31l-39 120c-7 17 -19 27 -37 29c-2 1 -5 1 -9 1v-149c0 -26 -13 -39 -39 -39
h-108c-26 0 -39 13 -39 39v149c-4 0 -7 0 -8 -1c-19 -1 -31 -10 -38 -29l-39 -120c-5 -15 -13 -26 -23 -31s-27 -7 -50 -7h-92c-21 0 -33 4 -37 12s-2 21 6 39l82 181c8 15 16 28 24 37l-99 202c-15 33 -5 49 32 49h89c37 0 61 -12 72 -36l66 -144h15v141c0 26 13 39 39 39z
" />
    <glyph glyph-name="uni0437" unicode="&#x437;" horiz-adv-x="524" 
d="M24 397c32 92 113 138 242 138c147 0 221 -54 221 -161c0 -53 -18 -87 -54 -103v-6c44 -21 66 -61 66 -120c0 -107 -75 -160 -226 -160c-134 0 -220 46 -258 138c-12 29 -3 47 27 55l73 22c25 8 42 1 51 -21c15 -33 46 -50 93 -50c41 0 62 12 62 37c0 21 -13 31 -40 31
h-65c-23 0 -34 11 -34 34v61c0 23 11 34 34 34h62c26 0 39 10 39 30c0 23 -17 35 -50 35c-49 0 -81 -16 -95 -49c-5 -13 -10 -20 -15 -23c-7 -5 -18 -5 -33 0l-73 23c-28 9 -37 28 -27 55z" />
    <glyph glyph-name="uni0438" unicode="&#x438;" horiz-adv-x="564" 
d="M80 520h109c26 0 39 -13 39 -38v-81c0 -42 -9 -99 -27 -171h6c12 33 29 73 51 122l77 142c7 17 21 26 40 26h110c25 0 38 -13 38 -38v-444c0 -25 -13 -38 -38 -38h-110c-25 0 -38 13 -38 38v81c0 43 9 100 27 171h-6c-15 -42 -34 -86 -55 -132l-73 -132
c-8 -17 -22 -26 -41 -26h-109c-26 0 -39 13 -39 38v444c0 25 13 38 39 38z" />
    <glyph glyph-name="uni0439" unicode="&#x439;" horiz-adv-x="564" 
d="M467 680c-27 -71 -87 -106 -178 -106c-90 0 -149 35 -176 106c-6 17 0 28 17 35l66 25c17 7 30 3 39 -12c12 -22 30 -33 54 -33s42 11 55 33c8 14 20 18 35 13l70 -26c18 -6 24 -18 18 -35zM80 520h109c26 0 39 -13 39 -38v-81c0 -42 -9 -99 -27 -171h6
c12 33 29 73 51 122l77 142c7 17 21 26 40 26h110c25 0 38 -13 38 -38v-444c0 -25 -13 -38 -38 -38h-110c-25 0 -38 13 -38 38v81c0 43 9 100 27 171h-6c-15 -42 -34 -86 -55 -132l-73 -132c-8 -17 -22 -26 -41 -26h-109c-26 0 -39 13 -39 38v444c0 25 13 38 39 38z" />
    <glyph glyph-name="uni043A" unicode="&#x43a;" horiz-adv-x="552" 
d="M444 232l89 -181c17 -34 6 -51 -32 -51h-92c-23 0 -40 2 -49 7s-17 15 -23 31l-46 120c-8 20 -22 30 -43 30h-21v-149c0 -26 -13 -39 -38 -39h-109c-26 0 -39 13 -39 39v442c0 26 13 39 39 39h109c25 0 38 -13 38 -39v-141h22l83 144c13 24 37 36 72 36h89
c40 0 51 -16 32 -49l-113 -194c11 -9 21 -24 32 -45z" />
    <glyph glyph-name="uni043B" unicode="&#x43b;" horiz-adv-x="563" 
d="M128 520h354c26 0 39 -13 39 -38v-444c0 -25 -13 -38 -39 -38h-109c-26 0 -39 13 -39 38v318h-72v-36c0 -109 -17 -190 -52 -244c-22 -35 -58 -64 -108 -87c-20 -9 -36 -2 -48 20l-52 92c-10 17 -5 32 15 44c24 15 41 32 50 52c15 32 23 84 23 156v129c0 25 13 38 38 38z
" />
    <glyph glyph-name="uni043C" unicode="&#x43c;" horiz-adv-x="663" 
d="M489 520h91c17 0 28 -3 34 -9c5 -6 8 -17 8 -32v-441c0 -25 -13 -38 -39 -38h-89c-27 0 -40 13 -40 39v78c0 49 11 109 32 182h-7c-13 -41 -26 -74 -39 -98l-39 -73c-9 -19 -25 -29 -48 -29h-46c-22 0 -38 10 -48 30l-38 72c-11 21 -24 53 -37 98h-7
c21 -82 31 -143 31 -183v-77c0 -26 -13 -39 -40 -39h-88c-15 0 -26 3 -31 8s-8 15 -8 30v441c0 27 14 41 43 41h86c25 0 44 -10 55 -31l106 -199l105 198c12 21 30 32 53 32z" />
    <glyph glyph-name="uni043D" unicode="&#x43d;" horiz-adv-x="558" 
d="M369 520h110c25 0 38 -13 38 -38v-444c0 -25 -13 -38 -38 -38h-110c-25 0 -38 13 -38 38v144h-104v-144c0 -25 -13 -38 -38 -38h-110c-25 0 -38 13 -38 38v444c0 25 13 38 38 38h110c25 0 38 -13 38 -38v-136h104v136c0 25 13 38 38 38z" />
    <glyph glyph-name="uni043E" unicode="&#x43e;" horiz-adv-x="552" 
d="M28 204v112c0 69 21 122 63 161c43 39 105 58 185 58c81 0 143 -19 186 -58c41 -38 62 -92 62 -161v-112c0 -69 -21 -123 -62 -160c-43 -39 -105 -59 -186 -59c-80 0 -142 20 -185 59c-42 38 -63 91 -63 160zM339 199v122c0 36 -21 54 -63 54c-41 0 -62 -18 -62 -54v-122
c0 -35 21 -53 62 -53c42 0 63 18 63 53z" />
    <glyph glyph-name="uni043F" unicode="&#x43f;" horiz-adv-x="554" 
d="M79 520h396c25 0 38 -13 38 -38v-444c0 -25 -13 -38 -38 -38h-110c-25 0 -38 13 -38 38v318h-100v-318c0 -25 -13 -38 -38 -38h-110c-25 0 -38 13 -38 38v444c0 25 13 38 38 38z" />
    <glyph glyph-name="uni0440" unicode="&#x440;" horiz-adv-x="548" 
d="M82 501c57 23 127 34 209 34c153 0 229 -72 229 -216v-108c0 -151 -78 -226 -233 -226c-8 0 -28 2 -60 5v-171c0 -25 -13 -38 -39 -38h-109c-26 0 -39 13 -39 38v624c0 27 14 47 42 58zM334 201v123c0 33 -19 49 -57 49c-19 0 -35 -2 -46 -5c-3 -1 -4 -3 -4 -6v-211
c15 -3 30 -5 45 -5c41 0 62 18 62 55z" />
    <glyph glyph-name="uni0441" unicode="&#x441;" horiz-adv-x="522" 
d="M28 206v109c0 147 83 220 248 220c118 0 193 -46 225 -139c9 -27 0 -45 -27 -54l-93 -31c-26 -9 -44 0 -55 27s-30 41 -59 41c-35 0 -53 -18 -53 -54v-130c0 -36 18 -54 53 -54c29 0 48 14 59 41c6 15 13 24 20 28c8 3 20 2 35 -3l96 -29c29 -9 37 -27 26 -55
c-38 -92 -117 -138 -238 -138c-158 0 -237 74 -237 221z" />
    <glyph glyph-name="uni0442" unicode="&#x442;" horiz-adv-x="496" 
d="M50 520h396c25 0 38 -13 38 -38v-87c0 -26 -13 -39 -38 -39h-105v-318c0 -25 -13 -38 -38 -38h-110c-25 0 -38 13 -38 38v318h-105c-25 0 -38 13 -38 39v87c0 25 13 38 38 38z" />
    <glyph glyph-name="uni0443" unicode="&#x443;" horiz-adv-x="558" 
d="M368 520h110c25 0 38 -13 38 -38v-481c0 -154 -80 -231 -240 -231c-107 0 -181 33 -223 99c-16 24 -10 43 19 58l84 41c22 11 40 7 55 -13c16 -22 37 -33 63 -33c37 0 56 19 56 58v39c-18 -3 -41 -4 -68 -4c-150 0 -225 72 -225 216v251c0 25 13 38 38 38h110
c25 0 38 -13 38 -38v-244c0 -37 20 -55 60 -55c19 0 34 1 47 4v295c0 25 13 38 38 38z" />
    <glyph glyph-name="uni0444" unicode="&#x444;" horiz-adv-x="761" 
d="M474 701v-167c5 1 14 1 25 1c157 0 235 -80 235 -239v-73c0 -159 -78 -238 -235 -238c-11 0 -20 0 -25 1v-168c0 -25 -13 -38 -39 -38h-109c-26 0 -39 13 -39 38v168c-5 -1 -14 -1 -25 -1c-157 0 -235 79 -235 238v73c0 159 78 239 235 239c11 0 20 0 25 -1v167
c0 26 13 39 39 39h109c26 0 39 -13 39 -39zM213 307v-94c0 -45 19 -67 57 -67l22 1v225c-5 1 -12 1 -22 1c-38 0 -57 -22 -57 -66zM549 213v94c0 44 -19 66 -58 66c-10 0 -17 0 -22 -1v-225l22 -1c39 0 58 22 58 67z" />
    <glyph glyph-name="uni0445" unicode="&#x445;" horiz-adv-x="553" 
d="M399 520h103c38 0 47 -15 26 -45l-137 -207l146 -223c11 -16 14 -27 10 -34s-17 -11 -38 -11h-100c-23 0 -38 2 -45 5c-9 4 -17 13 -25 28l-64 114l-62 -114c-7 -15 -16 -24 -25 -28c-8 -3 -23 -5 -44 -5h-100c-22 0 -35 4 -39 11s-1 18 10 34l147 222l-140 208
c-21 30 -11 45 30 45h98c35 0 59 -11 71 -33l56 -97l56 97c8 15 16 24 24 28c7 3 21 5 42 5z" />
    <glyph glyph-name="uni0447" unicode="&#x447;" horiz-adv-x="531" 
d="M23 341v141c0 25 13 38 39 38h109c26 0 39 -13 39 -38v-125c0 -32 17 -48 50 -48c19 0 34 2 43 7v166c0 25 13 38 39 38h109c26 0 39 -13 39 -38v-444c0 -25 -13 -38 -39 -38h-109c-26 0 -39 13 -39 38v112c-22 -3 -49 -5 -81 -5c-133 0 -199 65 -199 196z" />
    <glyph glyph-name="uni0446" unicode="&#x446;" horiz-adv-x="596" 
d="M509 164h32c26 0 39 -13 39 -40v-225c0 -25 -13 -38 -39 -38h-104c-26 0 -39 13 -39 38v101h-318c-26 0 -39 13 -39 38v444c0 25 13 38 39 38h109c26 0 39 -13 39 -38v-318h95v318c0 25 13 38 38 38h110c25 0 38 -13 38 -38v-318z" />
    <glyph glyph-name="uni0448" unicode="&#x448;" horiz-adv-x="788" 
d="M599 520h110c25 0 38 -13 38 -38v-444c0 -25 -13 -38 -38 -38h-630c-25 0 -38 13 -38 38v444c0 25 13 38 38 38h110c25 0 38 -13 38 -38v-318h74v318c0 25 13 38 38 38h110c25 0 38 -13 38 -38v-318h74v318c0 25 13 38 38 38z" />
    <glyph glyph-name="uni0449" unicode="&#x449;" horiz-adv-x="834" 
d="M747 164h32c26 0 39 -13 39 -40v-225c0 -25 -13 -38 -39 -38h-104c-26 0 -39 13 -39 38v101h-557c-25 0 -38 13 -38 38v444c0 25 13 38 38 38h110c25 0 38 -13 38 -38v-318h74v318c0 25 13 38 38 38h110c25 0 38 -13 38 -38v-318h74v318c0 25 13 38 38 38h110
c25 0 38 -13 38 -38v-318z" />
    <glyph glyph-name="uni044F" unicode="&#x44f;" horiz-adv-x="548" 
d="M220 520h246c26 0 39 -13 39 -38v-444c0 -25 -13 -38 -39 -38h-109c-26 0 -39 13 -39 38v116h-42l-52 -117c-11 -25 -35 -37 -74 -37h-94c-22 0 -35 4 -39 13c-4 7 -1 20 8 38l78 135c-49 31 -73 81 -73 151c0 58 17 103 52 136c33 31 79 47 138 47zM318 376h-62
c-25 0 -38 -13 -38 -39c0 -25 13 -38 38 -38h62v77z" />
    <glyph glyph-name="uni044C" unicode="&#x44c;" 
d="M227 385h84c63 0 113 -17 148 -50c36 -34 54 -82 54 -143c0 -62 -18 -110 -54 -143c-35 -33 -84 -49 -148 -49h-232c-25 0 -38 13 -38 38v444c0 25 13 38 38 38h110c25 0 38 -13 38 -38v-97zM227 147h52c31 0 47 15 47 45c0 29 -16 44 -47 44h-52v-89z" />
    <glyph glyph-name="uni044A" unicode="&#x44a;" horiz-adv-x="627" 
d="M325 385h84c63 0 112 -17 147 -50c36 -34 54 -82 54 -143c0 -62 -18 -110 -54 -143c-35 -33 -84 -49 -147 -49h-232c-25 0 -38 13 -38 38v324h-89c-25 0 -38 13 -38 39v81c0 25 13 38 38 38h237c25 0 38 -13 38 -38v-97zM325 147h52c31 0 47 15 47 45c0 29 -16 44 -47 44
h-52v-89z" />
    <glyph glyph-name="uni044B" unicode="&#x44b;" horiz-adv-x="763" 
d="M227 385h84c63 0 113 -17 148 -50c36 -34 54 -82 54 -143c0 -62 -18 -110 -54 -143c-35 -33 -84 -49 -148 -49h-232c-25 0 -38 13 -38 38v444c0 25 13 38 38 38h110c25 0 38 -13 38 -38v-97zM573 520h110c25 0 38 -13 38 -38v-444c0 -25 -13 -38 -38 -38h-110
c-25 0 -38 13 -38 38v444c0 25 13 38 38 38zM227 147h52c31 0 47 15 47 45c0 29 -16 44 -47 44h-52v-89z" />
    <glyph glyph-name="uni044D" unicode="&#x44d;" horiz-adv-x="523" 
d="M18 397c32 92 108 138 229 138c165 0 247 -73 247 -220v-109c0 -147 -79 -221 -237 -221c-120 0 -200 46 -239 138c-11 27 -2 46 27 56l73 22c26 7 43 1 52 -19c18 -35 44 -52 77 -52c43 0 65 19 65 57v8l-97 1c-23 0 -34 11 -34 34v64c0 23 11 34 34 34h97v7
c0 37 -22 56 -66 56c-33 0 -58 -17 -75 -52c-11 -21 -29 -28 -53 -20l-73 23c-27 9 -36 28 -27 55z" />
    <glyph glyph-name="uni044E" unicode="&#x44e;" horiz-adv-x="789" 
d="M273 346v5c15 123 95 184 242 184c80 0 141 -19 184 -58c41 -38 62 -92 62 -161v-112c0 -69 -21 -123 -62 -160c-43 -39 -104 -59 -184 -59c-150 0 -231 63 -242 189l-1 8h-45v-144c0 -25 -13 -38 -38 -38h-110c-25 0 -38 13 -38 38v444c0 25 13 38 38 38h110
c25 0 38 -13 38 -38v-136h46zM575 199v122c0 36 -20 54 -60 54s-60 -18 -60 -54v-122c0 -35 20 -53 60 -53s60 18 60 53z" />
    <glyph glyph-name="increment" unicode="&#x2206;" horiz-adv-x="677" 
d="M302 710h73c25 0 43 -11 52 -33l207 -506c14 -34 21 -60 21 -79v-50c0 -28 -14 -42 -42 -42h-548c-29 0 -43 14 -43 42v50c0 16 7 42 21 79l207 506c9 22 27 33 52 33zM452 157l-75 209c-21 57 -33 107 -36 152h-10c-1 -42 -13 -93 -35 -152l-74 -209h230z" />
    <glyph glyph-name="Omega" unicode="&#x2126;" horiz-adv-x="814" 
d="M45 394c0 97 34 176 101 238c68 61 155 92 260 92c106 0 193 -31 261 -92s102 -140 102 -236c0 -100 -37 -173 -110 -218h76c29 0 43 -14 43 -43v-93c0 -28 -14 -42 -43 -42h-269c-25 0 -38 13 -38 38v81c0 14 8 26 23 35c84 48 126 118 126 210c0 56 -14 101 -43 136
c-31 37 -74 55 -128 55c-52 0 -94 -18 -125 -55c-29 -35 -44 -81 -44 -136c0 -97 42 -167 125 -211c15 -7 23 -19 23 -35v-80c0 -25 -13 -38 -38 -38h-269c-28 0 -42 14 -42 42v93c0 29 14 43 42 43h74c-71 53 -107 125 -107 216z" />
    <glyph glyph-name="mu" unicode="&#xb5;" horiz-adv-x="571" 
d="M378 520h110c25 0 38 -13 38 -38v-400c0 -24 -11 -42 -33 -55c-44 -28 -97 -42 -158 -42c-39 0 -73 6 -102 18v-185c0 -25 -13 -38 -38 -38h-110c-25 0 -38 13 -38 38v664c0 25 13 38 38 38h110c25 0 38 -13 38 -38v-274c0 -37 20 -55 60 -55c15 0 28 1 39 4c5 1 8 4 8 9
v316c0 25 13 38 38 38z" />
    <glyph glyph-name="pi" unicode="&#x3c0;" horiz-adv-x="679" 
d="M171 520h447c25 0 38 -13 38 -38v-85c0 -26 -13 -39 -38 -39h-21v-181c0 -32 5 -59 16 -81c12 -27 5 -45 -22 -56l-98 -40c-25 -11 -43 -4 -54 19c-19 43 -28 92 -28 147v192h-100v-320c0 -25 -13 -38 -38 -38h-110c-25 0 -38 13 -38 38v320c-11 -1 -25 -5 -42 -12
c-25 -9 -41 -4 -50 17l-35 78c-11 23 -5 39 18 50c46 19 98 29 155 29z" />
    <glyph glyph-name="zero" unicode="0" horiz-adv-x="648" 
d="M39 246v219c0 80 25 143 75 190s120 70 210 70s160 -23 210 -70s75 -110 75 -190v-219c0 -81 -25 -145 -75 -191c-50 -47 -120 -70 -210 -70s-160 23 -210 70c-50 46 -75 110 -75 191zM411 238v235c0 51 -29 77 -87 77s-87 -26 -87 -77v-235c0 -52 29 -78 87 -78
s87 26 87 78z" />
    <glyph glyph-name="one" unicode="1" horiz-adv-x="449" 
d="M284 710h60c28 0 42 -14 42 -42v-626c0 -28 -14 -42 -42 -42h-113c-29 0 -43 14 -43 42v417l-67 -38c-29 -16 -50 -10 -65 17l-47 85c-12 23 -5 42 20 58l195 112c19 11 39 17 60 17z" />
    <glyph glyph-name="two" unicode="2" horiz-adv-x="613" 
d="M39 550c46 117 139 175 279 175c81 0 146 -23 195 -68c46 -43 69 -97 69 -164c0 -74 -19 -131 -56 -171c-32 -35 -89 -66 -170 -95c-9 -3 -23 -7 -41 -12l-38 -11c-26 -9 -39 -18 -39 -29v-6h287c29 0 43 -14 43 -43v-84c0 -28 -14 -42 -43 -42h-450c-29 0 -43 14 -43 42
v80c0 61 21 110 62 148c26 23 70 48 132 75c53 23 89 41 107 54c31 23 47 51 47 85c0 44 -23 66 -68 66c-37 0 -66 -22 -87 -66c-7 -16 -14 -26 -21 -29s-18 -3 -33 2l-106 39c-28 11 -37 29 -26 54z" />
    <glyph glyph-name="three" unicode="3" horiz-adv-x="626" 
d="M573 518c0 -63 -26 -112 -78 -146c66 -35 99 -91 99 -168c0 -146 -90 -219 -270 -219c-154 0 -252 58 -295 175c-10 27 -1 45 27 54l98 35c15 5 26 6 34 2c7 -3 14 -13 20 -29c16 -43 50 -65 101 -65c52 0 78 20 78 59s-22 59 -66 59h-61c-28 0 -42 14 -42 42v83
c0 29 14 43 42 43h44c45 0 68 18 68 55s-23 55 -68 55s-77 -22 -94 -65c-9 -27 -27 -36 -54 -27l-98 35c-27 9 -36 27 -27 54c44 117 142 175 295 175c79 0 140 -19 184 -57c42 -37 63 -87 63 -150z" />
    <glyph glyph-name="four" unicode="4" horiz-adv-x="657" 
d="M547 295h51c28 0 42 -14 42 -42v-70c0 -28 -14 -42 -42 -42h-51v-99c0 -28 -14 -42 -42 -42h-103c-28 0 -42 14 -42 42v99h-303c-28 0 -42 14 -42 42v66c0 29 7 51 22 68l304 363c17 20 39 30 65 30h99c28 0 42 -14 42 -42v-373zM360 464l-140 -169h140v169z" />
    <glyph glyph-name="five" unicode="5" horiz-adv-x="613" 
d="M146 711h366c29 0 43 -14 43 -43v-90c0 -28 -14 -42 -43 -42h-248l-7 -70h67c87 0 154 -23 200 -69c41 -42 62 -98 62 -169s-24 -128 -71 -173c-49 -47 -116 -70 -200 -70c-153 0 -250 55 -291 165c-9 26 -1 44 26 54l107 40c25 9 42 1 52 -25c15 -37 48 -56 97 -56
s74 25 74 74c0 45 -27 68 -80 68h-208c-32 0 -47 16 -44 49l31 297c3 23 9 38 18 47s26 13 49 13z" />
    <glyph glyph-name="six" unicode="6" horiz-adv-x="651" 
d="M236 457v-14c27 5 61 8 104 8c186 0 279 -77 279 -231c0 -75 -26 -133 -77 -174s-122 -61 -213 -61c-95 0 -167 23 -216 70c-49 46 -74 112 -74 199v202c0 87 25 153 74 199c50 47 122 70 216 70c145 0 238 -53 279 -159c9 -26 0 -44 -27 -54l-95 -37
c-14 -5 -25 -6 -33 -1c-6 4 -13 14 -22 29c-15 31 -48 47 -99 47c-64 0 -96 -31 -96 -93zM236 270v-38c0 -52 31 -78 93 -78s93 22 93 65c0 42 -31 63 -93 63c-39 0 -70 -4 -93 -12z" />
    <glyph glyph-name="seven" unicode="7" horiz-adv-x="568" 
d="M60 710h453c28 0 42 -14 42 -42v-68c0 -22 -4 -42 -12 -59l-237 -504c-7 -15 -16 -25 -25 -30c-10 -5 -28 -7 -54 -7h-110c-27 0 -34 14 -21 42l230 493h-266c-29 0 -43 14 -43 43v90c0 28 14 42 43 42z" />
    <glyph glyph-name="eight" unicode="8" horiz-adv-x="648" 
d="M54 511c0 67 24 120 72 158c48 37 114 56 197 56c88 0 155 -17 202 -52c46 -35 69 -84 69 -149c0 -57 -24 -106 -71 -147c63 -37 94 -94 94 -169c0 -149 -98 -223 -294 -223c-195 0 -293 68 -293 204c0 70 33 125 99 166c-50 35 -75 87 -75 156zM398 507
c0 35 -25 53 -74 53c-47 0 -70 -18 -70 -53c0 -28 24 -49 71 -63l30 -8c29 19 43 42 43 71zM411 206c0 21 -11 36 -33 47c-9 5 -42 15 -100 32c-33 -22 -50 -48 -50 -77c0 -40 31 -60 94 -60c59 0 89 19 89 58z" />
    <glyph glyph-name="nine" unicode="9" horiz-adv-x="651" 
d="M415 253v14c-27 -5 -61 -8 -104 -8c-186 0 -279 77 -279 231c0 75 26 134 77 175c51 40 122 60 213 60c95 0 167 -23 216 -70c49 -46 74 -112 74 -199v-202c0 -87 -25 -153 -74 -199c-50 -47 -122 -70 -216 -70c-145 0 -238 53 -279 159c-9 26 0 44 27 54l95 37
c14 5 25 6 33 1c6 -4 13 -14 22 -29c16 -31 49 -47 99 -47c64 0 96 31 96 93zM415 440v38c0 52 -31 78 -93 78s-93 -22 -93 -65c0 -42 31 -63 93 -63c39 0 70 4 93 12z" />
    <glyph glyph-name="zero.denom" horiz-adv-x="387" 
d="M27 141v113c0 46 14 82 43 109c30 27 71 40 124 40s94 -13 123 -40s43 -63 43 -109v-113c0 -47 -14 -83 -43 -109c-29 -27 -70 -40 -123 -40s-95 13 -124 40c-29 26 -43 62 -43 109zM222 139v117c0 17 -9 26 -28 26s-29 -9 -29 -26v-117c0 -18 10 -27 29 -27s28 9 28 27z
" />
    <glyph glyph-name="one.denom" horiz-adv-x="297" 
d="M177 395h33c19 0 32 -3 38 -8c5 -5 8 -17 8 -34v-313c0 -27 -14 -40 -43 -40h-54c-27 0 -41 13 -41 40v191l-27 -15c-24 -14 -43 -9 -58 14l-24 40c-12 23 -7 40 16 53l105 60c13 8 28 12 47 12z" />
    <glyph glyph-name="two.denom" horiz-adv-x="375" 
d="M30 308c26 63 80 95 163 95c49 0 87 -12 115 -35c27 -23 41 -54 41 -93c0 -71 -32 -116 -95 -135l-43 -13c-14 -2 -21 -5 -21 -10v-1h116c24 0 36 -12 36 -35v-47c0 -23 -11 -34 -34 -34h-247c-24 0 -36 11 -36 34v33c0 38 6 66 19 85c14 20 39 36 76 49l53 18
c23 9 35 22 35 41c0 15 -7 22 -22 22s-27 -7 -35 -22c-7 -14 -14 -23 -19 -26c-7 -4 -18 -3 -31 2l-50 18c-25 9 -32 27 -21 54z" />
    <glyph glyph-name="three.denom" horiz-adv-x="381" 
d="M24 307c23 64 79 96 168 96c101 0 152 -39 152 -117c0 -35 -13 -62 -39 -81c34 -17 51 -48 51 -95c0 -79 -55 -118 -164 -118c-94 0 -151 32 -172 95c-8 24 -3 39 16 46l44 15c25 9 42 2 53 -21c8 -17 26 -26 53 -26c23 0 34 7 34 20c0 15 -10 23 -30 23h-29
c-11 0 -19 2 -23 6c-3 3 -5 11 -5 23v50c0 13 2 21 5 25c4 4 13 6 26 6h20c20 0 30 7 30 21c0 15 -10 22 -30 22c-25 0 -43 -10 -52 -31c-11 -23 -29 -30 -52 -20l-38 16c-19 8 -25 23 -18 45z" />
    <glyph glyph-name="four.denom" horiz-adv-x="399" 
d="M334 176h11c14 0 23 -2 27 -7c4 -4 6 -12 6 -23v-46c0 -13 -2 -21 -6 -24c-4 -5 -13 -7 -27 -7h-11v-35c0 -23 -11 -34 -32 -34h-65c-21 0 -31 11 -31 34v35h-159c-24 0 -36 12 -36 35v30c0 18 5 33 14 44l160 192c14 17 33 25 58 25h51c16 0 27 -3 32 -8
c5 -6 8 -17 8 -32v-179zM206 242l-54 -66h54v66z" />
    <glyph glyph-name="five.denom" horiz-adv-x="377" 
d="M91 395h216c20 0 30 -10 30 -29v-45c0 -11 -2 -19 -6 -23c-3 -4 -11 -6 -24 -6h-139l-3 -26h31c104 0 156 -43 156 -130c0 -41 -14 -75 -41 -102c-29 -28 -69 -42 -119 -42c-85 0 -142 31 -169 92c-9 24 -3 40 18 49l48 19c14 5 24 7 30 6c7 -2 14 -10 20 -24
c10 -21 26 -31 48 -31c25 0 37 11 37 34s-13 35 -38 35h-119c-26 0 -38 12 -35 36l17 156c3 21 17 31 42 31z" />
    <glyph glyph-name="six.denom" horiz-adv-x="388" 
d="M164 259v-13c15 4 32 6 50 6c101 0 151 -43 151 -128c0 -43 -15 -76 -45 -99c-30 -22 -71 -33 -124 -33c-113 0 -169 49 -169 147v116c0 99 58 148 174 148c75 0 126 -23 153 -68c10 -17 5 -31 -14 -41l-58 -30c-14 -7 -26 -5 -37 7c-15 15 -29 22 -42 22
c-26 0 -39 -11 -39 -34zM164 141v-9c0 -21 11 -31 32 -31s31 8 31 23s-10 23 -31 23c-7 0 -17 -2 -32 -6z" />
    <glyph glyph-name="seven.denom" horiz-adv-x="343" 
d="M49 395h249c23 0 34 -10 34 -30v-34c0 -15 -3 -29 -9 -40l-123 -267c-8 -16 -26 -24 -53 -24h-60c-17 0 -27 3 -30 10c-3 6 -1 17 6 33l111 235h-128c-13 0 -22 3 -26 8s-6 14 -6 27v47c0 14 2 23 7 28s14 7 28 7z" />
    <glyph glyph-name="eight.denom" horiz-adv-x="395" 
d="M34 285c0 37 15 67 44 88s69 31 119 31c52 0 92 -10 121 -29c28 -19 42 -46 42 -79c0 -37 -14 -65 -42 -84c36 -25 54 -57 54 -96c0 -83 -58 -125 -175 -125s-175 36 -175 109c0 39 19 70 58 94c-31 25 -46 55 -46 91zM228 283c0 15 -11 22 -32 22c-20 0 -30 -7 -30 -21
c0 -11 13 -21 40 -30c15 9 22 18 22 29zM233 112c0 12 -14 23 -43 34c-19 -12 -29 -23 -29 -33c0 -16 13 -24 38 -24c23 0 34 8 34 23z" />
    <glyph glyph-name="nine.denom" horiz-adv-x="388" 
d="M224 136v13c-15 -4 -31 -6 -50 -6c-101 0 -151 43 -151 128c0 88 56 132 169 132s169 -49 169 -147v-116c0 -99 -58 -148 -174 -148c-77 0 -128 23 -153 68c-11 17 -6 31 14 41l58 30c15 7 27 5 36 -7c16 -15 30 -22 43 -22c26 0 39 11 39 34zM224 254v9
c0 21 -11 31 -32 31s-31 -8 -31 -23s10 -23 31 -23c7 0 17 2 32 6z" />
    <glyph glyph-name="zero.num" horiz-adv-x="387" 
d="M27 461v113c0 46 14 82 43 109c30 27 71 40 124 40s94 -13 123 -40s43 -63 43 -109v-113c0 -47 -14 -83 -43 -109c-29 -27 -70 -40 -123 -40s-95 13 -124 40c-29 26 -43 62 -43 109zM222 459v117c0 17 -9 26 -28 26s-29 -9 -29 -26v-117c0 -18 10 -27 29 -27s28 9 28 27z
" />
    <glyph glyph-name="one.num" horiz-adv-x="297" 
d="M177 715h33c19 0 32 -3 38 -8c5 -5 8 -17 8 -34v-313c0 -27 -14 -40 -43 -40h-54c-27 0 -41 13 -41 40v191l-27 -15c-24 -14 -43 -9 -58 14l-24 40c-12 23 -7 40 16 53l105 60c13 8 28 12 47 12z" />
    <glyph glyph-name="two.num" horiz-adv-x="375" 
d="M30 628c26 63 80 95 163 95c49 0 87 -12 115 -35c27 -23 41 -54 41 -93c0 -71 -32 -116 -95 -135l-43 -13c-14 -2 -21 -5 -21 -10v-1h116c24 0 36 -12 36 -35v-47c0 -23 -11 -34 -34 -34h-247c-24 0 -36 11 -36 34v33c0 38 6 66 19 85c14 20 39 36 76 49l53 18
c23 9 35 22 35 41c0 15 -7 22 -22 22s-27 -7 -35 -22c-7 -14 -14 -23 -19 -26c-7 -4 -18 -3 -31 2l-50 18c-25 9 -32 27 -21 54z" />
    <glyph glyph-name="three.num" horiz-adv-x="381" 
d="M24 627c23 64 79 96 168 96c101 0 152 -39 152 -117c0 -35 -13 -62 -39 -81c34 -21 51 -54 51 -98c0 -77 -55 -115 -164 -115c-94 0 -151 32 -172 95c-8 24 -3 39 16 46l44 15c25 9 42 2 53 -21c8 -17 26 -26 53 -26c23 0 34 7 34 20c0 15 -10 23 -30 23h-29
c-11 0 -19 2 -23 6c-3 3 -5 11 -5 23v50c0 13 2 21 5 25c4 4 13 6 26 6h20c20 0 30 7 30 21c0 15 -10 22 -30 22c-25 0 -43 -10 -52 -31c-11 -23 -29 -30 -52 -20l-38 16c-19 8 -25 23 -18 45z" />
    <glyph glyph-name="four.num" horiz-adv-x="399" 
d="M334 496h11c14 0 23 -2 27 -7c4 -4 6 -12 6 -23v-46c0 -13 -2 -21 -6 -24c-4 -5 -13 -7 -27 -7h-11v-35c0 -23 -11 -34 -32 -34h-65c-21 0 -31 11 -31 34v35h-159c-24 0 -36 12 -36 35v30c0 18 5 33 14 44l160 192c14 17 33 25 58 25h51c16 0 27 -3 32 -8
c5 -6 8 -17 8 -32v-179zM206 562l-54 -66h54v66z" />
    <glyph glyph-name="five.num" horiz-adv-x="377" 
d="M91 715h216c20 0 30 -10 30 -29v-45c0 -11 -2 -19 -6 -23c-3 -4 -11 -6 -24 -6h-139l-3 -26h31c104 0 156 -43 156 -130c0 -41 -14 -75 -41 -102c-29 -28 -69 -42 -119 -42c-85 0 -142 31 -169 92c-9 24 -3 40 18 49l48 19c14 5 24 7 30 6c7 -2 14 -10 20 -24
c10 -21 26 -31 48 -31c25 0 37 11 37 34s-13 35 -38 35h-119c-26 0 -38 12 -35 36l17 156c3 21 17 31 42 31z" />
    <glyph glyph-name="six.num" horiz-adv-x="388" 
d="M164 579v-13c15 4 32 6 50 6c101 0 151 -43 151 -128c0 -43 -15 -76 -45 -99c-30 -22 -71 -33 -124 -33c-113 0 -169 49 -169 147v116c0 99 58 148 174 148c75 0 126 -23 153 -68c10 -17 5 -31 -14 -41l-58 -30c-14 -7 -26 -5 -37 7c-15 15 -29 22 -42 22
c-26 0 -39 -11 -39 -34zM164 461v-9c0 -21 11 -31 32 -31s31 8 31 23s-10 23 -31 23c-7 0 -17 -2 -32 -6z" />
    <glyph glyph-name="seven.num" horiz-adv-x="343" 
d="M49 715h249c23 0 34 -10 34 -30v-34c0 -15 -3 -29 -9 -40l-123 -267c-8 -16 -26 -24 -53 -24h-60c-17 0 -27 3 -30 10c-3 6 -1 17 6 33l111 235h-128c-13 0 -22 3 -26 8s-6 14 -6 27v47c0 14 2 23 7 28s14 7 28 7z" />
    <glyph glyph-name="eight.num" horiz-adv-x="395" 
d="M34 605c0 37 15 67 44 88s69 31 119 31c52 0 92 -10 121 -29c28 -19 42 -46 42 -79c0 -37 -14 -65 -42 -84c36 -25 54 -57 54 -96c0 -83 -58 -125 -175 -125s-175 36 -175 109c0 39 19 70 58 94c-31 25 -46 55 -46 91zM228 603c0 15 -11 22 -32 22c-20 0 -30 -7 -30 -21
c0 -11 13 -21 40 -30c15 9 22 18 22 29zM233 432c0 12 -14 23 -43 34c-19 -12 -29 -23 -29 -33c0 -16 13 -24 38 -24c23 0 34 8 34 23z" />
    <glyph glyph-name="nine.num" horiz-adv-x="388" 
d="M224 456v13c-15 -4 -31 -6 -50 -6c-101 0 -151 43 -151 128c0 88 56 132 169 132s169 -49 169 -147v-116c0 -99 -58 -148 -174 -148c-77 0 -128 23 -153 68c-11 17 -6 31 14 41l58 30c15 7 27 5 36 -7c16 -15 30 -22 43 -22c26 0 39 11 39 34zM224 574v9
c0 21 -11 31 -32 31s-31 -8 -31 -23s10 -23 31 -23c7 0 17 2 32 6z" />
    <glyph glyph-name="fraction" unicode="&#x2044;" horiz-adv-x="264" 
d="M-198 42l466 633c17 23 43 35 78 35h96c15 0 24 -4 27 -11s1 -17 -7 -29l-465 -633c-12 -16 -23 -26 -32 -30c-9 -5 -26 -7 -51 -7h-91c-15 0 -24 4 -28 12c-4 9 -2 19 7 30z" />
    <glyph glyph-name="onehalf" unicode="&#xbd;" horiz-adv-x="870" 
d="M194 710h32c19 0 32 -3 38 -8c5 -5 8 -17 8 -34v-313c0 -27 -14 -40 -42 -40h-54c-28 0 -42 13 -42 40v191l-26 -15c-24 -13 -43 -8 -58 14l-24 40c-13 22 -7 40 16 53l104 61c14 7 30 11 48 11zM640 710h72c15 0 24 -4 27 -11s1 -17 -7 -29l-465 -633
c-12 -16 -22 -26 -31 -30c-9 -5 -26 -7 -51 -7h-67c-15 0 -25 4 -29 12s-2 18 7 30l466 633c17 23 43 35 78 35zM517 308c26 63 81 95 164 95c49 0 87 -12 114 -35s41 -54 41 -93c0 -71 -32 -116 -95 -135l-43 -13c-14 -2 -21 -5 -21 -10v-1h117c23 0 35 -12 35 -35v-47
c0 -23 -11 -34 -34 -34h-247c-24 0 -36 11 -36 34v33c0 38 6 66 19 85c14 20 39 36 76 49l53 18c23 9 35 22 35 41c0 15 -7 22 -22 22s-27 -7 -35 -22c-7 -14 -14 -23 -19 -26c-7 -4 -17 -3 -31 2l-50 18c-25 9 -32 27 -21 54z" />
    <glyph glyph-name="onethird" unicode="&#x2153;" horiz-adv-x="876" 
d="M640 710h72c15 0 24 -4 27 -11s1 -17 -7 -29l-465 -633c-12 -16 -23 -26 -32 -30c-9 -5 -26 -7 -51 -7h-67c-15 0 -24 4 -28 12c-4 9 -2 19 7 30l466 633c17 23 43 35 78 35zM194 706h32c19 0 32 -3 38 -8c5 -5 8 -17 8 -35v-312c0 -27 -14 -40 -42 -40h-54
c-28 0 -42 13 -42 40v191l-26 -15c-24 -14 -43 -9 -58 14l-24 40c-13 22 -7 40 16 53l104 60c13 8 29 12 48 12zM515 307c23 64 79 96 168 96c48 0 85 -10 112 -31s40 -49 40 -86c0 -35 -13 -62 -39 -81c34 -21 51 -54 51 -98c0 -77 -55 -115 -164 -115
c-95 0 -152 32 -173 95c-7 24 -2 39 17 46l44 15c15 5 26 6 33 3s13 -11 19 -24c8 -17 26 -26 54 -26c23 0 34 7 34 20c0 15 -10 23 -31 23h-28c-11 0 -19 2 -23 6c-3 3 -5 11 -5 23v50c0 13 2 21 5 25c4 4 13 6 26 6h19c21 0 31 7 31 21c0 15 -10 22 -31 22
c-24 0 -41 -10 -52 -31c-10 -23 -27 -30 -52 -20l-37 16c-19 8 -25 23 -18 45z" />
    <glyph glyph-name="twothirds" unicode="&#x2154;" horiz-adv-x="933" 
d="M34 630c26 63 81 94 164 94c49 0 87 -12 114 -35s41 -54 41 -93c0 -71 -32 -116 -95 -135l-43 -12c-14 -3 -21 -7 -21 -10v-2h117c23 0 35 -12 35 -35v-47c0 -23 -11 -34 -34 -34h-247c-24 0 -36 11 -36 34v33c0 38 6 66 19 85c14 20 39 36 76 49l53 18c23 9 35 22 35 41
c0 15 -7 23 -22 23s-27 -8 -35 -23c-7 -14 -14 -23 -19 -26c-7 -4 -17 -3 -31 2l-50 18c-25 9 -32 28 -21 55zM704 710h72c15 0 24 -4 27 -11s1 -17 -7 -29l-465 -633c-12 -16 -22 -26 -31 -30c-9 -5 -26 -7 -51 -7h-67c-15 0 -25 4 -29 12s-2 18 7 30l466 633
c17 23 43 35 78 35zM577 307c23 64 78 96 167 96c101 0 152 -39 152 -117c0 -35 -13 -62 -39 -81c34 -21 51 -53 51 -98c0 -77 -55 -115 -164 -115c-94 0 -151 32 -172 95c-8 24 -2 39 17 46l44 15c15 5 26 6 33 3s13 -11 19 -24c8 -17 26 -26 53 -26c23 0 34 7 34 20
c0 15 -10 23 -30 23h-29c-11 0 -19 2 -22 6c-3 3 -5 11 -5 23v50c0 13 2 21 5 25c4 4 12 6 25 6h20c20 0 30 7 30 21c0 15 -10 22 -30 22c-24 0 -41 -10 -52 -31c-11 -23 -29 -30 -52 -20l-37 16c-21 8 -27 23 -18 45z" />
    <glyph glyph-name="onequarter" unicode="&#xbc;" horiz-adv-x="859" 
d="M654 710h72c15 0 24 -4 27 -11s1 -17 -7 -29l-465 -633c-12 -16 -23 -26 -32 -30c-9 -5 -26 -7 -51 -7h-67c-15 0 -24 4 -28 12c-5 9 -2 19 7 30l466 633c17 23 43 35 78 35zM194 707h32c19 0 32 -3 38 -8c5 -5 8 -17 8 -34v-313c0 -27 -14 -40 -42 -40h-54
c-28 0 -42 13 -42 40v191l-26 -15c-24 -14 -43 -9 -58 14l-24 40c-13 22 -7 40 16 53l104 60c13 8 29 12 48 12zM694 395h51c16 0 27 -3 33 -8c5 -6 8 -17 8 -32v-179h10c14 0 23 -2 28 -7c4 -4 6 -12 6 -23v-46c0 -13 -2 -21 -6 -24c-5 -5 -14 -7 -28 -7h-10v-35
c0 -23 -11 -34 -32 -34h-65c-21 0 -31 11 -31 34v35h-160c-23 0 -35 12 -35 35v30c0 19 4 33 13 44l160 192c14 17 33 25 58 25zM603 176h55v66z" />
    <glyph glyph-name="threequarters" unicode="&#xbe;" horiz-adv-x="878" 
d="M31 629c23 64 79 96 168 96c48 0 85 -10 112 -31s40 -49 40 -86c0 -35 -13 -62 -39 -81c34 -22 51 -55 51 -99c0 -76 -55 -114 -164 -114c-95 0 -153 31 -173 94c-7 24 -1 39 17 46l44 16c15 5 26 6 33 3s13 -11 19 -24c8 -17 26 -26 54 -26c23 0 34 6 34 19
c0 15 -10 23 -31 23h-28c-11 0 -19 2 -23 6c-3 3 -5 11 -5 23v50c0 13 2 21 5 25c4 4 13 6 26 6h19c21 0 31 7 31 22c0 14 -10 21 -31 21c-25 0 -42 -10 -52 -30c-10 -24 -27 -31 -52 -21l-37 17c-19 8 -25 23 -18 45zM687 710h72c15 0 24 -4 27 -11s1 -17 -7 -29l-465 -633
c-12 -16 -23 -26 -32 -30c-9 -5 -26 -7 -51 -7h-67c-15 0 -24 4 -28 12c-4 9 -2 19 7 30l466 633c17 23 43 35 78 35zM716 395h51c16 0 27 -3 32 -8c5 -6 8 -17 8 -32v-179h11c14 0 23 -2 27 -7c4 -4 6 -12 6 -23v-46c0 -13 -2 -21 -6 -24c-4 -5 -13 -7 -27 -7h-11v-35
c0 -23 -11 -34 -32 -34h-65c-21 0 -31 11 -31 34v35h-159c-24 0 -36 12 -36 35v30c0 18 5 33 14 44l160 192c14 17 33 25 58 25zM679 176v66l-54 -66h54z" />
    <glyph glyph-name="oneeighth" unicode="&#x215b;" horiz-adv-x="893" 
d="M194 710h32c19 0 32 -3 38 -8c5 -5 8 -17 8 -34v-313c0 -27 -14 -40 -42 -40h-54c-28 0 -42 13 -42 40v191l-26 -15c-24 -13 -43 -8 -58 14l-24 40c-13 22 -7 40 16 53l104 61c14 7 30 11 48 11zM646 710h72c15 0 24 -4 27 -11s1 -17 -7 -29l-465 -633
c-12 -16 -23 -26 -32 -30c-9 -5 -26 -7 -51 -7h-67c-15 0 -24 4 -28 12c-4 9 -2 19 7 30l466 633c17 23 43 35 78 35zM524 285c0 37 15 67 44 88s69 31 119 31c52 0 93 -10 122 -29c28 -19 42 -46 42 -79c0 -36 -14 -64 -43 -84c37 -25 55 -57 55 -96
c0 -83 -59 -125 -176 -125s-175 36 -175 109c0 38 19 69 58 94c-31 25 -46 55 -46 91zM718 283c0 15 -10 22 -31 22c-20 0 -30 -7 -30 -21c0 -11 13 -21 39 -30c15 9 22 18 22 29zM723 112c0 12 -14 23 -43 34c-19 -11 -28 -22 -28 -33c0 -16 12 -24 37 -24c23 0 34 8 34 23
z" />
    <glyph glyph-name="threeeighths" unicode="&#x215c;" horiz-adv-x="927" 
d="M31 629c23 64 79 96 168 96c48 0 85 -10 112 -31s40 -49 40 -86c0 -35 -13 -62 -39 -81c34 -18 51 -50 51 -95c0 -79 -55 -118 -164 -118c-95 0 -153 31 -173 94c-7 24 -1 39 17 46l44 16c15 5 26 6 33 3s13 -11 19 -24c8 -17 26 -26 54 -26c23 0 34 6 34 19
c0 15 -10 23 -31 23h-28c-11 0 -19 2 -23 6c-3 3 -5 11 -5 23v50c0 13 2 21 5 25c4 4 13 6 26 6h19c21 0 31 7 31 22c0 14 -10 21 -31 21c-25 0 -42 -10 -52 -30c-10 -24 -27 -31 -52 -21l-37 17c-19 8 -25 23 -18 45zM690 710h72c15 0 24 -4 27 -12c4 -7 2 -17 -6 -28
l-465 -633c-13 -17 -23 -27 -32 -31s-26 -6 -51 -6h-67c-15 0 -24 4 -28 12c-5 9 -2 19 7 30l466 633c17 23 42 35 77 35zM562 285c0 37 15 67 44 88s69 31 119 31c52 0 92 -10 121 -29c28 -19 42 -46 42 -79c0 -37 -14 -65 -42 -84c36 -25 54 -57 54 -96
c0 -83 -58 -125 -175 -125s-175 36 -175 109c0 39 19 70 58 94c-31 25 -46 55 -46 91zM756 283c0 15 -11 22 -32 22c-20 0 -30 -7 -30 -21c0 -11 13 -21 40 -30c15 9 22 18 22 29zM761 112c0 12 -14 23 -43 34c-19 -12 -29 -23 -29 -33c0 -16 13 -24 38 -24c23 0 34 8 34 23
z" />
    <glyph glyph-name="fiveeighths" unicode="&#x215d;" horiz-adv-x="925" 
d="M96 716h215c21 0 31 -10 31 -30v-45c0 -11 -2 -19 -6 -22c-4 -4 -12 -6 -25 -6h-139l-2 -26h31c104 0 156 -43 156 -130c0 -41 -14 -75 -42 -102c-29 -28 -69 -42 -118 -42c-86 0 -143 31 -170 92c-10 24 -4 40 19 49l47 18c14 5 24 7 30 6c7 -2 14 -10 21 -23
c9 -21 25 -31 48 -31c24 0 36 11 36 34s-12 35 -37 35h-120c-15 0 -24 3 -29 8s-7 14 -6 27l18 157c2 21 16 31 42 31zM683 710h72c15 0 24 -4 27 -11s1 -17 -7 -29l-465 -633c-12 -16 -23 -26 -32 -30c-9 -5 -26 -7 -51 -7h-67c-15 0 -24 4 -28 12c-4 9 -2 19 7 30l466 633
c17 23 43 35 78 35zM561 285c0 37 15 67 44 88s68 31 118 31c53 0 93 -10 122 -29c28 -19 42 -46 42 -79c0 -37 -14 -65 -43 -84c37 -24 55 -56 55 -96c0 -83 -59 -125 -176 -125c-116 0 -174 36 -174 109c0 39 19 70 58 94c-31 24 -46 54 -46 91zM755 283
c0 15 -11 22 -32 22c-20 0 -30 -7 -30 -21c0 -11 13 -21 40 -30c15 9 22 19 22 29zM760 112c0 12 -15 23 -44 34c-19 -13 -28 -24 -28 -33c0 -16 12 -24 37 -24c23 0 35 8 35 23z" />
    <glyph glyph-name="seveneighths" unicode="&#x215e;" horiz-adv-x="865" 
d="M59 713h249c23 0 35 -10 35 -30v-34c0 -14 -3 -27 -10 -40l-123 -267c-7 -16 -25 -24 -53 -24h-59c-17 0 -28 3 -31 10c-3 6 -1 17 7 33l111 235h-129c-13 0 -21 3 -26 8c-3 5 -5 14 -5 27v47c0 15 2 24 7 28c5 5 14 7 27 7zM613 710h72c15 0 24 -4 27 -11s1 -17 -7 -29
l-465 -633c-12 -16 -22 -26 -31 -30c-9 -5 -26 -7 -51 -7h-67c-15 0 -25 4 -29 12s-2 18 7 30l466 633c17 23 43 35 78 35zM503 285c0 37 15 67 44 88s69 31 119 31c52 0 92 -10 121 -29c28 -19 42 -46 42 -79c0 -37 -14 -65 -42 -84c36 -25 54 -57 54 -96
c0 -83 -58 -125 -175 -125s-175 36 -175 109c0 39 19 70 58 94c-31 24 -46 54 -46 91zM697 283c0 15 -11 22 -32 22c-20 0 -30 -7 -30 -21c0 -11 13 -21 40 -30c15 9 22 18 22 29zM702 112c0 12 -14 23 -43 34c-19 -12 -29 -23 -29 -33c0 -16 13 -24 38 -24c23 0 34 8 34 23
z" />
    <glyph glyph-name="uni2080" unicode="&#x2080;" horiz-adv-x="387" 
d="M27 21v113c0 46 14 82 43 109c30 27 71 40 124 40s94 -13 123 -40s43 -63 43 -109v-113c0 -46 -14 -82 -43 -109s-70 -40 -123 -40s-94 13 -124 40c-29 27 -43 63 -43 109zM222 20v116c0 17 -9 26 -28 26s-29 -9 -29 -26v-116c0 -19 10 -28 29 -28s28 9 28 28z" />
    <glyph glyph-name="uni2081" unicode="&#x2081;" horiz-adv-x="297" 
d="M177 275h33c19 0 32 -3 38 -8c5 -5 8 -17 8 -34v-313c0 -27 -14 -40 -43 -40h-54c-27 0 -41 13 -41 40v191l-27 -14c-24 -14 -43 -9 -58 14l-24 39c-12 23 -7 40 16 53l105 61c13 7 28 11 47 11z" />
    <glyph glyph-name="uni2082" unicode="&#x2082;" horiz-adv-x="375" 
d="M30 189c25 63 80 94 163 94c49 0 87 -12 115 -35c27 -23 41 -53 41 -92c0 -72 -32 -117 -95 -136l-43 -12c-14 -3 -21 -7 -21 -10v-2h116c24 0 36 -12 36 -35v-47c0 -23 -11 -34 -34 -34h-247c-24 0 -36 11 -36 34v33c0 38 6 66 19 85c14 20 39 36 76 49l53 19
c23 9 35 22 35 40c0 15 -7 23 -22 23s-27 -8 -35 -23c-7 -14 -14 -23 -19 -26c-7 -4 -18 -3 -31 2l-50 18c-25 9 -32 28 -21 55z" />
    <glyph glyph-name="uni2083" unicode="&#x2083;" horiz-adv-x="381" 
d="M25 187c23 64 79 96 168 96c101 0 152 -39 152 -117c0 -35 -13 -62 -39 -81c34 -17 51 -48 51 -94c0 -79 -55 -119 -164 -119c-94 0 -151 32 -172 95c-8 24 -3 39 16 46l44 16c24 9 42 2 53 -21c8 -17 26 -26 53 -26c23 0 34 6 34 19c0 15 -10 23 -30 23h-29
c-11 0 -19 2 -23 6c-3 3 -5 11 -5 23v50c0 13 2 21 5 25c4 4 13 6 26 6h20c20 0 30 7 30 22c0 14 -10 21 -30 21c-25 0 -43 -10 -52 -31c-11 -23 -29 -30 -52 -20l-38 16c-19 8 -25 23 -18 45z" />
    <glyph glyph-name="uni2084" unicode="&#x2084;" horiz-adv-x="399" 
d="M334 56h11c14 0 23 -2 27 -6s6 -12 6 -23v-47c0 -12 -2 -20 -6 -24c-4 -5 -13 -7 -27 -7h-11v-34c0 -23 -11 -35 -32 -35h-65c-21 0 -31 12 -31 35v34h-159c-24 0 -36 12 -36 35v31c0 18 5 32 14 43l160 193c15 16 34 24 58 24h51c16 0 27 -3 32 -8s8 -16 8 -31v-180z
M206 122l-54 -66h54v66z" />
    <glyph glyph-name="uni2085" unicode="&#x2085;" horiz-adv-x="377" 
d="M92 275h216c20 0 30 -10 30 -29v-45c0 -11 -2 -19 -6 -23c-3 -4 -11 -6 -24 -6h-139l-3 -25h31c104 0 156 -43 156 -130c0 -41 -14 -75 -41 -102c-29 -29 -69 -43 -119 -43c-85 0 -142 31 -169 93c-10 24 -4 40 18 48l48 19c14 5 24 7 30 6c7 -2 14 -10 20 -23
c10 -21 26 -32 48 -32c25 0 37 12 37 35s-13 34 -38 34h-119c-26 0 -38 12 -35 36l17 157c3 20 17 30 42 30z" />
    <glyph glyph-name="uni2086" unicode="&#x2086;" horiz-adv-x="388" 
d="M164 139v-13c15 4 32 6 50 6c101 0 151 -42 151 -127c0 -89 -56 -133 -169 -133s-169 49 -169 148v116c0 98 58 147 174 147c75 0 126 -23 153 -68c10 -17 5 -31 -14 -41l-58 -29c-14 -8 -26 -6 -37 6c-13 15 -27 22 -42 22c-26 0 -39 -11 -39 -34zM164 21v-8
c0 -21 11 -32 32 -32s31 8 31 23s-10 23 -31 23c-10 0 -21 -2 -32 -6z" />
    <glyph glyph-name="uni2087" unicode="&#x2087;" horiz-adv-x="343" 
d="M48 275h249c14 0 23 -2 28 -6s7 -12 7 -24v-34c0 -13 -3 -27 -9 -40l-124 -267c-7 -16 -25 -24 -52 -24h-60c-17 0 -28 3 -31 10c-3 6 -1 17 7 33l111 235h-128c-13 0 -22 3 -26 8s-6 14 -6 27v48c0 14 2 23 7 28c5 4 14 6 27 6z" />
    <glyph glyph-name="uni2088" unicode="&#x2088;" horiz-adv-x="395" 
d="M34 166c0 37 15 67 44 88s69 31 119 31c52 0 92 -10 121 -29c28 -19 42 -46 42 -79c0 -37 -14 -65 -42 -84c36 -25 54 -57 54 -96c0 -83 -58 -125 -175 -125s-175 36 -175 109c0 39 19 70 58 94c-31 25 -46 55 -46 91zM228 164c0 15 -11 22 -32 22c-20 0 -30 -7 -30 -21
c0 -11 13 -21 40 -30c15 9 22 18 22 29zM233 -7c0 12 -14 23 -43 34c-19 -12 -29 -23 -29 -33c0 -16 13 -24 38 -24c23 0 34 8 34 23z" />
    <glyph glyph-name="uni2089" unicode="&#x2089;" horiz-adv-x="388" 
d="M224 16v14c-15 -4 -31 -6 -50 -6c-101 0 -151 42 -151 127c0 88 56 132 169 132s169 -49 169 -147v-116c0 -99 -58 -148 -174 -148c-76 0 -127 23 -153 69c-11 17 -6 31 14 41l58 29c14 7 26 5 36 -6c15 -15 30 -23 43 -23c26 0 39 11 39 34zM224 134v9
c0 21 -11 32 -32 32s-31 -8 -31 -24c0 -15 10 -22 31 -22c9 0 20 2 32 5z" />
    <glyph glyph-name="uni2070" unicode="&#x2070;" horiz-adv-x="387" 
d="M27 552v113c0 46 14 82 43 109c30 27 71 40 124 40s94 -13 123 -40s43 -63 43 -109v-113c0 -46 -14 -82 -43 -109s-70 -40 -123 -40s-94 13 -124 40c-29 27 -43 63 -43 109zM222 550v117c0 17 -9 26 -28 26s-29 -9 -29 -26v-117c0 -18 10 -27 29 -27s28 9 28 27z" />
    <glyph glyph-name="uni00B9" unicode="&#xb9;" horiz-adv-x="297" 
d="M177 806h33c19 0 32 -3 38 -8c5 -5 8 -17 8 -34v-313c0 -27 -14 -40 -43 -40h-54c-27 0 -41 13 -41 40v191l-27 -15c-24 -13 -43 -8 -58 14l-24 40c-12 23 -7 40 16 53l105 61c13 7 28 11 47 11z" />
    <glyph glyph-name="uni00B2" unicode="&#xb2;" horiz-adv-x="375" 
d="M30 715c25 63 80 94 163 94c49 0 87 -12 115 -35c27 -23 41 -53 41 -92c0 -72 -32 -117 -95 -136l-43 -12c-14 -3 -21 -7 -21 -10v-2h116c24 0 36 -12 36 -35v-47c0 -23 -11 -34 -34 -34h-247c-24 0 -36 11 -36 34v33c0 38 6 66 19 85c14 20 39 36 76 49l53 19
c23 9 35 22 35 40c0 15 -7 23 -22 23s-27 -8 -35 -23c-7 -14 -14 -23 -19 -26c-7 -4 -18 -3 -31 2l-50 18c-25 9 -32 28 -21 55z" />
    <glyph glyph-name="uni00B3" unicode="&#xb3;" horiz-adv-x="380" 
d="M24 718c23 64 79 96 168 96c48 0 85 -10 112 -31s40 -49 40 -86c0 -35 -13 -62 -39 -81c34 -17 51 -49 51 -95c0 -79 -55 -118 -164 -118c-95 0 -152 32 -173 95c-7 24 -1 39 17 46l44 16c15 5 26 6 33 3s13 -11 19 -24c9 -18 27 -27 54 -27c23 0 34 7 34 20
c0 15 -10 23 -31 23h-28c-11 0 -19 2 -23 6c-3 3 -5 11 -5 23v50c0 13 2 21 5 25c4 4 13 6 26 6h19c21 0 31 7 31 22c0 14 -10 21 -31 21c-24 0 -41 -10 -52 -31c-10 -23 -27 -30 -52 -20l-37 16c-19 8 -25 23 -18 45z" />
    <glyph glyph-name="uni2074" unicode="&#x2074;" horiz-adv-x="397" 
d="M332 587h11c14 0 23 -2 27 -7c4 -4 6 -12 6 -23v-46c0 -12 -2 -20 -6 -24c-4 -5 -13 -7 -27 -7h-11v-35c0 -23 -11 -34 -32 -34h-63c-21 0 -31 11 -31 34v35h-159c-24 0 -36 12 -36 35v31c0 18 5 32 14 43l160 192c14 17 33 25 58 25h49c16 0 27 -3 32 -8
c5 -6 8 -17 8 -32v-179zM206 653l-54 -66h54v66z" />
    <glyph glyph-name="uni2075" unicode="&#x2075;" horiz-adv-x="376" 
d="M92 806h216c20 0 30 -10 30 -29v-45c0 -11 -2 -19 -6 -23c-3 -4 -11 -6 -24 -6h-139l-3 -25h31c104 0 156 -43 156 -130c0 -41 -14 -75 -41 -102c-29 -29 -69 -43 -119 -43c-85 0 -142 31 -169 93c-10 24 -4 40 18 48l48 19c14 5 24 7 30 6c7 -2 14 -10 20 -24
c10 -21 26 -31 48 -31c25 0 37 12 37 35s-13 34 -38 34h-119c-26 0 -38 12 -35 36l17 157c3 20 17 30 42 30z" />
    <glyph glyph-name="uni2076" unicode="&#x2076;" horiz-adv-x="388" 
d="M164 670v-13c15 4 32 6 50 6c101 0 151 -42 151 -127c0 -89 -56 -133 -169 -133s-169 49 -169 148v115c0 99 58 148 174 148c75 0 126 -23 153 -68c10 -17 5 -31 -14 -41l-58 -29c-14 -8 -26 -6 -37 6c-13 15 -27 22 -42 22c-26 0 -39 -11 -39 -34zM164 552v-9
c0 -21 11 -31 32 -31s31 8 31 23s-10 23 -31 23c-7 0 -17 -2 -32 -6z" />
    <glyph glyph-name="uni2077" unicode="&#x2077;" horiz-adv-x="343" 
d="M49 806h249c23 0 34 -10 34 -30v-34c0 -15 -3 -29 -9 -40l-123 -267c-9 -16 -26 -24 -53 -24h-60c-17 0 -27 3 -30 10c-3 6 -1 17 6 33l111 235h-128c-13 0 -22 3 -26 8s-6 14 -6 27v47c0 14 2 23 7 28s14 7 28 7z" />
    <glyph glyph-name="uni2078" unicode="&#x2078;" horiz-adv-x="395" 
d="M34 696c0 37 15 67 44 88s69 31 119 31c109 0 163 -36 163 -108c0 -37 -14 -65 -42 -84c36 -23 54 -55 54 -96c0 -83 -58 -124 -175 -124s-175 36 -175 108c0 39 19 70 58 94c-31 25 -46 55 -46 91zM228 694c0 15 -11 22 -32 22c-20 0 -30 -7 -30 -21
c0 -11 13 -21 40 -30c15 9 22 18 22 29zM233 523c0 12 -14 23 -43 34c-19 -11 -29 -22 -29 -33c0 -16 13 -24 38 -24c23 0 34 8 34 23z" />
    <glyph glyph-name="uni2079" unicode="&#x2079;" horiz-adv-x="388" 
d="M224 547v13c-20 -4 -37 -6 -50 -6c-101 0 -151 43 -151 128c0 88 56 132 169 132s169 -49 169 -147v-116c0 -99 -58 -148 -174 -148c-76 0 -127 23 -153 68c-11 17 -6 31 14 42l58 29c15 7 27 5 36 -7c16 -15 30 -22 43 -22c26 0 39 11 39 34zM224 665v9
c0 21 -11 31 -32 31s-31 -8 -31 -23s10 -22 31 -22c9 0 20 2 32 5z" />
    <glyph glyph-name="asterisk" unicode="*" horiz-adv-x="349" 
d="M153 680h39c21 0 29 -10 25 -29l-11 -69l62 32c17 9 29 4 36 -15l13 -37c6 -19 -1 -29 -21 -32l-69 -11l49 -49c15 -15 15 -27 -2 -38l-32 -22c-17 -12 -30 -9 -39 8l-30 60l-31 -60c-9 -19 -21 -23 -36 -11l-34 25c-15 12 -16 25 -2 38l50 49l-69 11
c-20 3 -27 14 -21 33l13 36c6 19 18 24 36 15l62 -32l-12 69c-4 19 4 29 24 29z" />
    <glyph glyph-name="backslash" unicode="\" horiz-adv-x="494" 
d="M283 -25l-262 700c-9 23 0 35 25 35h112c26 0 43 -12 51 -35l262 -700c9 -23 0 -35 -25 -35h-112c-25 0 -42 12 -51 35z" />
    <glyph glyph-name="middot" unicode="&#xb7;" horiz-adv-x="281" 
d="M122 408h38c29 0 50 -6 61 -17c11 -12 17 -33 17 -62v-41c0 -29 -6 -50 -17 -61s-32 -17 -61 -17h-38c-30 0 -51 6 -62 17s-17 32 -17 61v41c0 29 6 50 17 62c11 11 32 17 62 17z" />
    <glyph glyph-name="bullet" unicode="&#x2022;" horiz-adv-x="396" 
d="M198 114c-42 0 -77 15 -106 44c-28 29 -42 64 -42 106c0 43 14 78 42 106c28 29 63 43 106 43s78 -14 106 -43c28 -28 42 -63 42 -106c0 -42 -14 -77 -42 -106c-29 -29 -64 -44 -106 -44z" />
    <glyph glyph-name="colon" unicode=":" horiz-adv-x="284" 
d="M123 540h38c30 0 51 -6 62 -17c11 -12 17 -33 17 -62v-41c0 -29 -6 -50 -17 -61s-32 -17 -62 -17h-38c-30 0 -51 6 -62 17s-17 32 -17 61v41c0 29 6 50 17 62c11 11 32 17 62 17zM123 190h38c30 0 51 -6 62 -17c11 -12 17 -33 17 -62v-41c0 -29 -6 -50 -17 -61
s-32 -17 -62 -17h-38c-30 0 -51 6 -62 17s-17 32 -17 61v41c0 29 6 50 17 62c11 11 32 17 62 17z" />
    <glyph glyph-name="comma" unicode="," horiz-adv-x="261" 
d="M228 135l-74 -219c-9 -25 -27 -38 -53 -38h-56c-13 0 -21 2 -24 6c-4 4 -5 12 -4 23l28 228c4 34 21 51 51 51h93c38 0 51 -17 39 -51z" />
    <glyph glyph-name="ellipsis" unicode="&#x2026;" horiz-adv-x="799" 
d="M113 190h38c29 0 50 -6 61 -17c11 -12 17 -33 17 -62v-41c0 -29 -6 -50 -17 -61s-32 -17 -61 -17h-38c-30 0 -51 6 -62 17s-17 32 -17 61v41c0 29 6 50 17 62c11 11 32 17 62 17zM381 190h38c29 0 50 -6 61 -17c11 -12 17 -33 17 -62v-41c0 -29 -6 -50 -17 -61
s-32 -17 -61 -17h-38c-30 0 -51 6 -62 17s-17 32 -17 61v41c0 29 6 50 17 62c11 11 32 17 62 17zM649 190h38c29 0 50 -6 61 -17c11 -12 17 -33 17 -62v-41c0 -29 -6 -50 -17 -61s-32 -17 -61 -17h-38c-30 0 -51 6 -62 17s-17 32 -17 61v41c0 29 6 50 17 62
c11 11 32 17 62 17z" />
    <glyph glyph-name="exclam" unicode="!" horiz-adv-x="284" 
d="M86 739h113c27 0 40 -12 39 -37l-18 -431c-1 -25 -13 -38 -37 -38h-82c-25 0 -37 13 -38 38l-16 431c-1 25 12 37 39 37zM116 183h50c30 0 51 -6 62 -17s17 -32 17 -61v-35c0 -29 -6 -50 -17 -61s-32 -17 -62 -17h-50c-29 0 -50 6 -61 17s-17 32 -17 61v35
c0 29 6 50 17 61s32 17 61 17z" />
    <glyph glyph-name="exclamdown" unicode="&#xa1;" horiz-adv-x="277" 
d="M163 336h-50c-30 0 -51 6 -62 17s-17 32 -17 62v34c0 30 6 51 17 62s32 16 62 16h50c30 0 51 -5 62 -16s17 -32 17 -62v-34c0 -30 -6 -51 -17 -62s-32 -17 -62 -17zM196 -220h-114c-26 0 -39 13 -38 38l16 430c1 25 13 38 38 38h81c25 0 37 -13 38 -38l17 -430
c1 -25 -12 -38 -38 -38z" />
    <glyph glyph-name="numbersign" unicode="#" horiz-adv-x="767" 
d="M655 539h58c15 0 24 -3 28 -8s4 -15 0 -29l-24 -83c-7 -23 -24 -35 -51 -35h-58l-29 -97h60c27 0 37 -12 29 -37l-27 -83c-7 -24 -24 -36 -51 -36h-57l-28 -93c-7 -25 -23 -38 -48 -38h-92c-26 0 -35 13 -28 38l28 93h-88l-28 -93c-7 -25 -24 -38 -49 -38h-91
c-27 0 -36 13 -27 38l27 93h-59c-25 0 -34 13 -28 38l26 83c7 23 24 35 51 35h57l29 97h-59c-27 0 -37 12 -29 37l26 83c7 23 23 35 50 35h58l28 96c7 25 24 38 49 38h91c26 0 35 -13 28 -38l-28 -96h88l28 96c9 25 25 38 49 38h92c27 0 36 -13 27 -38zM353 384l-30 -97h88
l30 97h-88z" />
    <glyph glyph-name="period" unicode="." horiz-adv-x="263" 
d="M113 190h38c29 0 50 -6 61 -17c11 -12 17 -33 17 -62v-41c0 -29 -6 -50 -17 -61s-32 -17 -61 -17h-38c-30 0 -51 6 -62 17s-17 32 -17 61v41c0 29 6 50 17 62c11 11 32 17 62 17z" />
    <glyph glyph-name="question" unicode="?" horiz-adv-x="593" 
d="M24 564c47 117 141 175 280 175c82 0 147 -19 195 -58c46 -38 69 -88 69 -150s-22 -112 -65 -149c-15 -12 -34 -25 -58 -39c-31 -17 -48 -28 -53 -31c-25 -17 -37 -35 -37 -55c0 -27 -14 -40 -41 -40h-90c-27 0 -41 13 -41 40c0 73 28 127 84 161c5 3 17 10 38 21
c15 8 26 15 33 21c23 18 34 41 34 69c0 38 -23 57 -69 57c-43 0 -78 -28 -103 -85c-7 -16 -14 -26 -21 -29s-18 -3 -33 2l-96 36c-27 9 -36 27 -26 54zM246 183h50c29 0 50 -6 61 -17s17 -32 17 -61v-35c0 -29 -6 -50 -17 -61s-32 -17 -61 -17h-50c-30 0 -51 6 -62 17
s-17 32 -17 61v35c0 29 6 50 17 61s32 17 62 17z" />
    <glyph glyph-name="questiondown" unicode="&#xbf;" horiz-adv-x="589" 
d="M345 335h-50c-30 0 -51 6 -62 17s-17 31 -17 61v35c0 29 6 50 17 61s32 17 62 17h50c29 0 50 -6 62 -17c11 -11 17 -32 17 -61v-35c0 -30 -6 -50 -17 -61s-32 -17 -62 -17zM566 -47c-46 -116 -139 -174 -279 -174c-83 0 -148 19 -195 58c-46 37 -69 87 -69 149
s22 112 65 149c14 13 33 26 57 40c30 17 48 27 53 31c25 17 38 36 38 55c0 27 13 40 40 40h91c27 0 40 -13 40 -40c0 -74 -28 -128 -84 -161c-6 -4 -18 -11 -37 -22c-15 -8 -27 -15 -34 -21c-23 -17 -34 -40 -34 -68c0 -38 23 -57 70 -57c43 0 77 28 102 85
c7 15 14 25 21 29c7 3 18 3 33 -2l96 -36c28 -11 37 -29 26 -55z" />
    <glyph glyph-name="quotedbl" unicode="&#x22;" horiz-adv-x="410" 
d="M199 676l-22 -198c-1 -14 -5 -23 -10 -27c-5 -3 -15 -5 -30 -5h-61c-15 0 -24 2 -28 5c-5 4 -7 13 -7 27v198c0 15 2 24 7 28c4 4 13 6 28 6h88c15 0 24 -2 29 -6c5 -5 7 -14 6 -28zM380 676l-21 -198c-2 -14 -6 -23 -11 -27c-5 -3 -15 -5 -30 -5h-61c-15 0 -24 2 -27 5
c-5 4 -7 13 -7 27v198c0 15 2 24 7 28c4 4 13 6 27 6h88c15 0 24 -2 29 -6c5 -5 7 -14 6 -28z" />
    <glyph glyph-name="quotesingle" unicode="'" horiz-adv-x="228" 
d="M199 676l-22 -198c-1 -14 -5 -23 -10 -27c-5 -3 -15 -5 -30 -5h-61c-15 0 -24 2 -28 5c-5 4 -7 13 -7 27v198c0 15 2 24 7 28c4 4 13 6 28 6h88c15 0 24 -2 29 -6c5 -5 7 -14 6 -28z" />
    <glyph glyph-name="semicolon" unicode=";" horiz-adv-x="285" 
d="M130 540h38c30 0 51 -6 62 -17c11 -12 17 -33 17 -62v-41c0 -29 -6 -50 -17 -61s-32 -17 -62 -17h-38c-29 0 -50 6 -62 17c-11 11 -17 32 -17 61v41c0 29 6 50 17 62c12 11 33 17 62 17zM233 135l-74 -219c-9 -25 -27 -38 -53 -38h-56c-12 0 -20 2 -24 6
c-3 4 -5 12 -4 23l28 228c4 34 21 51 52 51h92c38 0 51 -17 39 -51z" />
    <glyph glyph-name="slash" unicode="/" horiz-adv-x="493" 
d="M470 675l-260 -700c-9 -23 -26 -35 -51 -35h-112c-26 0 -35 12 -26 35l261 700c9 23 26 35 51 35h112c25 0 34 -12 25 -35z" />
    <glyph glyph-name="underscore" unicode="_" horiz-adv-x="505" 
d="M55 0h395c28 0 42 -14 42 -42v-85c0 -28 -14 -42 -42 -42h-395c-28 0 -42 14 -42 42v85c0 28 14 42 42 42z" />
    <glyph glyph-name="braceleft" unicode="{" horiz-adv-x="410" 
d="M256 856h99c25 0 38 -13 38 -38v-84c0 -25 -13 -38 -38 -38h-49c-15 0 -23 -8 -23 -23v-185c0 -59 -26 -105 -77 -136c51 -21 77 -67 77 -137v-179c0 -15 8 -23 23 -23h49c25 0 38 -13 38 -38v-84c0 -25 -13 -38 -38 -38h-96c-57 0 -97 11 -120 34c-23 21 -34 58 -34 109
v183c0 56 -21 84 -63 84h-6c-21 0 -32 13 -32 38v101c0 25 11 38 32 38h6c42 0 63 28 63 84v188c0 51 11 87 34 110s62 34 117 34z" />
    <glyph glyph-name="braceright" unicode="}" horiz-adv-x="410" 
d="M56 856h98c55 0 95 -11 118 -34s34 -59 34 -110v-188c0 -56 21 -84 62 -84h7c21 0 31 -13 31 -38v-101c0 -25 -11 -38 -32 -38h-6c-41 0 -62 -28 -62 -84v-183c0 -51 -11 -87 -34 -109c-23 -23 -63 -34 -120 -34h-96c-25 0 -38 13 -38 38v84c0 25 13 38 38 38h49
c15 0 23 8 23 23v179c0 70 25 116 76 137c-51 31 -76 77 -76 136v185c0 15 -8 23 -24 23h-48c-25 0 -38 13 -38 38v84c0 25 13 38 38 38z" />
    <glyph glyph-name="bracketleft" unicode="[" horiz-adv-x="354" 
d="M88 856h212c16 0 26 -2 31 -6c4 -5 6 -15 6 -31v-69c0 -16 -2 -26 -6 -30c-5 -5 -15 -7 -31 -7h-71v-715h71c16 0 26 -2 31 -6c4 -5 6 -15 6 -31v-71c0 -16 -2 -26 -6 -30c-5 -5 -15 -7 -31 -7h-212c-16 0 -26 2 -31 7s-7 15 -7 31v927c0 15 2 26 7 31s15 7 31 7z" />
    <glyph glyph-name="bracketright" unicode="]" horiz-adv-x="354" 
d="M54 856h212c16 0 26 -2 31 -7s7 -16 7 -31v-927c0 -16 -2 -26 -7 -31s-15 -7 -31 -7h-212c-16 0 -26 2 -30 7c-5 4 -7 14 -7 30v71c0 16 2 26 7 31c4 4 14 6 30 6h71v715h-71c-16 0 -26 2 -30 7c-5 4 -7 14 -7 30v69c0 16 2 26 7 31c4 4 14 6 30 6z" />
    <glyph glyph-name="parenleft" unicode="(" horiz-adv-x="318" 
d="M41 116v479c0 131 51 219 152 266c21 10 39 2 52 -25l48 -98c6 -13 7 -23 4 -30s-11 -14 -25 -22c-33 -18 -50 -50 -50 -96v-469c0 -46 17 -78 50 -96c14 -8 23 -15 26 -22s1 -17 -5 -30l-48 -99c-13 -26 -31 -34 -52 -24c-101 47 -152 135 -152 266z" />
    <glyph glyph-name="parenright" unicode=")" horiz-adv-x="318" 
d="M24 738l48 98c13 27 31 35 52 25c101 -47 151 -135 151 -266v-479c0 -131 -50 -219 -151 -266c-21 -10 -39 -2 -52 24l-48 99c-6 13 -7 24 -4 31c3 6 11 13 25 21c33 18 49 50 49 96v469c0 46 -16 78 -49 96c-14 8 -22 15 -25 22s-2 17 4 30z" />
    <glyph glyph-name="emdash" unicode="&#x2014;" horiz-adv-x="779" 
d="M86 352h607c28 0 42 -14 42 -43v-86c0 -28 -14 -42 -42 -42h-607c-28 0 -42 14 -42 42v86c0 29 14 43 42 43z" />
    <glyph glyph-name="endash" unicode="&#x2013;" horiz-adv-x="568" 
d="M86 351h395c29 0 43 -14 43 -42v-85c0 -28 -14 -42 -43 -42h-395c-28 0 -42 14 -42 42v85c0 28 14 42 42 42z" />
    <glyph glyph-name="hyphen" unicode="-" horiz-adv-x="402" 
d="M85 349h232c28 0 42 -14 42 -42v-85c0 -28 -14 -42 -42 -42h-232c-28 0 -42 14 -42 42v85c0 28 14 42 42 42z" />
    <glyph glyph-name="guillemotleft" unicode="&#xab;" horiz-adv-x="640" 
d="M212 265l114 -113c15 -15 15 -31 0 -48l-58 -58c-15 -15 -31 -15 -47 0l-192 192c-16 16 -16 32 0 48l197 199c17 17 33 17 48 0l54 -56c16 -15 16 -31 0 -47zM476 265l114 -113c15 -15 15 -31 0 -48l-58 -58c-15 -15 -31 -15 -47 0l-192 192c-17 15 -17 31 0 48l197 199
c16 16 32 16 48 0l54 -56c16 -15 16 -31 0 -47z" />
    <glyph glyph-name="guillemotright" unicode="&#xbb;" horiz-adv-x="640" 
d="M161 265l-117 117c-15 16 -15 32 0 47l54 56c17 17 33 17 48 0l198 -199c15 -17 15 -33 0 -48l-193 -192c-16 -16 -32 -16 -47 0l-58 58c-15 17 -15 33 0 48zM424 265l-116 117c-15 16 -15 32 0 47l54 56c16 17 32 17 48 0l198 -199c15 -16 15 -32 0 -48l-193 -192
c-16 -15 -32 -15 -47 0l-58 58c-15 17 -15 33 0 48z" />
    <glyph glyph-name="guilsinglleft" unicode="&#x2039;" horiz-adv-x="376" 
d="M212 265l114 -113c15 -15 15 -31 0 -48l-58 -58c-15 -15 -31 -15 -47 0l-192 192c-16 16 -16 32 0 48l197 199c17 17 33 17 48 0l54 -56c16 -15 16 -31 0 -47z" />
    <glyph glyph-name="guilsinglright" unicode="&#x203a;" horiz-adv-x="376" 
d="M159 265l-116 117c-15 16 -15 32 0 47l54 56c16 17 32 17 48 0l198 -199c15 -16 15 -32 0 -48l-193 -192c-16 -15 -32 -15 -47 0l-58 58c-15 17 -15 33 0 48z" />
    <glyph glyph-name="quotedblbase" unicode="&#x201e;" horiz-adv-x="469" 
d="M228 135l-74 -219c-9 -25 -27 -38 -53 -38h-56c-13 0 -21 2 -24 6c-4 4 -5 12 -4 23l28 228c4 34 21 51 51 51h93c38 0 51 -17 39 -51zM436 135l-74 -219c-9 -25 -27 -38 -53 -38h-56c-13 0 -21 2 -24 6c-4 4 -5 12 -4 23l28 228c4 34 21 51 51 51h93c38 0 51 -17 39 -51
z" />
    <glyph glyph-name="quotedblleft" unicode="&#x201c;" horiz-adv-x="470" 
d="M24 453l74 219c9 25 27 38 53 38h56c12 0 20 -2 24 -6c3 -4 5 -12 4 -23l-28 -228c-4 -34 -21 -51 -52 -51h-92c-38 0 -51 17 -39 51zM232 453l74 219c9 25 27 38 53 38h56c12 0 20 -2 24 -6c3 -4 5 -12 4 -23l-28 -228c-4 -34 -21 -51 -52 -51h-92c-38 0 -51 17 -39 51z
" />
    <glyph glyph-name="quotedblright" unicode="&#x201d;" horiz-adv-x="466" 
d="M242 660l-74 -220c-9 -25 -27 -38 -53 -38h-56c-12 0 -20 2 -24 6c-3 4 -5 12 -4 23l28 229c4 33 21 50 52 50h92c38 0 51 -17 39 -50zM450 660l-74 -220c-9 -25 -27 -38 -53 -38h-56c-12 0 -20 2 -24 6c-3 4 -5 12 -4 23l28 229c4 33 21 50 52 50h92c38 0 51 -17 39 -50
z" />
    <glyph glyph-name="quoteleft" unicode="&#x2018;" horiz-adv-x="262" 
d="M24 453l74 219c9 25 27 38 53 38h56c12 0 20 -2 24 -6c3 -4 5 -12 4 -23l-28 -228c-4 -34 -21 -51 -52 -51h-92c-38 0 -51 17 -39 51z" />
    <glyph glyph-name="quoteright" unicode="&#x2019;" horiz-adv-x="258" 
d="M242 660l-74 -219c-9 -25 -27 -38 -53 -38h-56c-12 0 -20 2 -24 6c-3 4 -5 12 -4 23l28 228c4 34 21 51 52 51h92c38 0 51 -17 39 -51z" />
    <glyph glyph-name="quotesinglbase" unicode="&#x201a;" horiz-adv-x="230" 
d="M198 72l-21 -188c-3 -25 -17 -38 -42 -38h-63c-25 0 -37 13 -37 38v188c0 25 12 38 37 38h88c28 0 41 -13 38 -38z" />
    <glyph glyph-name="CR" horiz-adv-x="322" 
 />
    <glyph glyph-name="null" horiz-adv-x="600" 
 />
    <glyph glyph-name="Euro" unicode="&#x20ac;" horiz-adv-x="764" 
d="M144 482v6c2 73 31 131 87 174c55 42 128 63 219 63c132 0 222 -43 270 -129c16 -27 8 -48 -23 -61l-93 -36c-22 -10 -41 -6 -57 12c-29 26 -63 39 -101 39c-67 0 -101 -21 -101 -63v-5h164c23 0 32 -11 25 -33l-14 -49c-7 -21 -22 -31 -45 -31h-136v-37h126
c23 0 32 -11 25 -33l-15 -49c-6 -21 -21 -31 -44 -31h-84v-7c5 -37 37 -55 96 -55c39 0 72 14 97 43c15 19 34 24 58 13l99 -38c31 -13 38 -33 23 -62c-44 -85 -134 -128 -270 -128c-183 0 -284 75 -304 225l-1 9h-98c-23 0 -32 11 -25 33l14 49c7 21 21 31 44 31h63v37h-52
c-23 0 -31 11 -26 32l15 50c6 21 21 31 44 31h20z" />
    <glyph glyph-name="uni20BD" unicode="&#x20bd;" horiz-adv-x="702" 
d="M298 206h254c25 0 38 -13 38 -38v-53c0 -26 -13 -39 -38 -39h-254v-34c0 -28 -14 -42 -42 -42h-113c-29 0 -43 14 -43 42v34h-36c-25 0 -38 13 -38 39v53c0 25 13 38 38 38h36v462c0 28 14 42 43 42h290c76 0 136 -20 179 -61s65 -98 65 -173s-22 -133 -65 -174
s-103 -61 -179 -61h-135v-35zM298 410h102c48 0 72 22 72 66c0 43 -25 65 -74 65h-100v-131z" />
    <glyph glyph-name="cent" unicode="&#xa2;" horiz-adv-x="545" 
d="M390 207l96 -29c29 -9 37 -27 26 -55c-27 -67 -76 -109 -146 -127v-41c0 -25 -13 -38 -38 -38h-92c-25 0 -38 13 -38 38v37c-107 22 -161 93 -161 214v109c0 117 54 187 161 211v45c0 25 13 38 38 38h92c25 0 38 -13 38 -38v-46c72 -19 120 -62 144 -129
c9 -27 0 -45 -26 -54l-94 -31c-26 -9 -44 0 -55 27s-30 41 -59 41c-35 0 -53 -18 -53 -54v-130c0 -36 18 -54 53 -54c29 0 48 14 59 41c6 15 13 24 20 28c8 3 20 2 35 -3z" />
    <glyph glyph-name="currency" unicode="&#xa4;" horiz-adv-x="646" 
d="M544 241l53 -53c18 -18 18 -36 0 -54l-72 -72c-18 -18 -36 -18 -54 0l-54 54c-30 -13 -61 -20 -94 -20s-65 7 -96 20l-54 -54c-18 -18 -36 -18 -54 0l-72 72c-18 18 -18 36 0 54l55 55c-13 30 -20 61 -20 94s7 64 20 94l-55 55c-18 18 -18 36 0 54l72 72
c18 18 36 18 54 0l54 -54c31 13 63 20 96 20s64 -7 94 -20l54 54c18 18 36 18 54 0l72 -72c18 -18 18 -36 0 -54l-53 -53c13 -33 20 -65 20 -96s-7 -63 -20 -96zM323 418c-23 0 -42 -8 -58 -24c-15 -15 -24 -34 -25 -57c1 -23 10 -43 25 -58c16 -16 35 -24 58 -24
s42 8 57 24c16 16 24 35 24 58s-8 42 -24 57c-15 16 -34 24 -57 24z" />
    <glyph glyph-name="dollar" unicode="$" horiz-adv-x="621" 
d="M259 761h104c25 0 38 -13 38 -38v-34c81 -14 139 -55 172 -122c13 -25 5 -43 -23 -55l-97 -43c-13 -6 -24 -8 -31 -5s-15 11 -22 26c-18 33 -48 49 -90 49c-55 0 -83 -15 -83 -45c0 -25 34 -42 103 -51c81 -11 139 -25 173 -44c61 -34 91 -92 91 -173
c0 -111 -64 -178 -193 -202v-35c0 -26 -13 -39 -38 -39h-104c-25 0 -38 13 -38 39v33c-100 15 -164 61 -192 138c-9 26 -1 44 26 53l93 33c27 10 46 3 57 -21c15 -33 48 -49 99 -49c63 0 95 16 95 48c0 25 -32 42 -97 50c-84 12 -143 27 -176 46c-63 35 -95 92 -95 172
c0 109 63 175 190 197v34c0 25 13 38 38 38z" />
    <glyph glyph-name="florin" unicode="&#x192;" horiz-adv-x="482" 
d="M147 424l9 80c16 157 107 236 272 236c26 0 39 -13 39 -39v-85c0 -27 -13 -40 -39 -40c-30 0 -51 -6 -64 -18c-12 -11 -20 -31 -23 -59l-8 -75h75c26 0 39 -13 39 -39v-87c0 -25 -13 -38 -39 -38h-91l-26 -244c-16 -157 -107 -236 -272 -236c-26 0 -39 13 -39 39v85
c0 27 13 40 39 40c52 0 81 26 87 77l24 239h-65c-25 0 -38 13 -38 38v87c0 26 13 39 38 39h82z" />
    <glyph glyph-name="sterling" unicode="&#xa3;" horiz-adv-x="675" 
d="M107 399v98c0 65 23 119 68 161c47 45 111 67 192 67c138 0 230 -56 275 -169c10 -25 1 -43 -26 -54l-106 -39c-15 -5 -26 -6 -33 -2c-6 3 -13 13 -21 29c-21 40 -48 60 -83 60c-43 0 -64 -21 -64 -62v-89h168c29 0 43 -14 43 -43v-61c0 -29 -14 -43 -43 -43h-173v-18
c-1 -33 -16 -59 -43 -78l1 -6c51 13 102 19 154 19h179c29 0 43 -14 43 -43v-84c0 -28 -14 -42 -43 -42h-520c-27 0 -41 14 -41 42v85c0 23 7 35 20 38l6 1c27 9 41 30 43 65v21h-27c-28 0 -42 14 -42 43v61c0 29 14 43 42 43h31z" />
    </font>
</defs>
</svg>
