<?xml version="1.0" standalone="no"?>
<!DOCTYPE svg PUBLIC "-//W3C//DTD SVG 1.1//EN" "http://www.w3.org/Graphics/SVG/1.1/DTD/svg11.dtd" >
<svg xmlns="http://www.w3.org/2000/svg" xmlns:xlink="http://www.w3.org/1999/xlink" version="1.1">
<metadata></metadata>
<defs>
<font id="iciel_pantonregular" horiz-adv-x="1357" >
<font-face units-per-em="2048" ascent="1516" descent="-532" />
<missing-glyph horiz-adv-x="483" />
<glyph unicode="&#xfb01;" horiz-adv-x="1163" d="M16 963v53q0 37 37 37h183v53q0 221 100 315t330 95h325q37 0 37 -37v-54q0 -37 -37 -36h-325q-166 0 -230 -62q-63 -61 -63 -221v-53h618q37 0 37 -37v-979q0 -37 -37 -37h-63q-37 0 -37 37v889h-518v-889q0 -37 -37 -37h-64q-37 0 -36 37v889h-183q-37 0 -37 37z" />
<glyph unicode="&#xfb02;" horiz-adv-x="1101" d="M16 963v53q0 37 37 37h183v55q0 217 100 313q100 94 330 95h256q37 0 36 -37v-1442q0 -37 -36 -37h-64q-37 0 -37 37v1352h-155q-164 0 -228 -60q-66 -61 -65 -223v-53h237q37 0 37 -37v-53q0 -37 -37 -37h-237v-889q0 -37 -37 -37h-64q-37 0 -36 37v889h-183 q-37 0 -37 37z" />
<glyph horiz-adv-x="0" />
<glyph unicode="&#xd;" horiz-adv-x="659" />
<glyph unicode=" "  horiz-adv-x="483" />
<glyph unicode="&#x09;" horiz-adv-x="483" />
<glyph unicode="&#xa0;" horiz-adv-x="483" />
<glyph unicode="!" horiz-adv-x="423" d="M125 70v12q0 47 16 65q16 16 64 17h12q82 0 82 -82v-12q0 -82 -82 -82h-12q-47 0 -64 16q-16 18 -16 66zM139 1479q0 37 37 37h72q37 0 37 -37l-19 -1098q0 -37 -37 -37h-36q-35 0 -37 37z" />
<glyph unicode="&#x22;" horiz-adv-x="604" d="M131 1004v417q0 33 35 33h57q37 0 35 -33l-18 -417q-2 -33 -37 -33h-37q-35 0 -35 33zM358 1004v417q0 33 33 33h60q37 0 34 -33l-20 -417q-2 -33 -35 -33h-39q-33 0 -33 33z" />
<glyph unicode="#" horiz-adv-x="1392" d="M70 428l16 55q10 35 51 35h209l100 338h-210q-39 0 -29 37l18 55q8 35 49 35h209l97 320q12 37 47 36h61q39 0 27 -36l-97 -320h322l96 320q12 37 47 36h62q39 0 26 -36l-94 -320h213q39 0 29 -37l-16 -57q-10 -33 -50 -33h-215l-100 -338h215q39 0 29 -37l-19 -57 q-10 -33 -47 -33h-215l-106 -354q-14 -37 -47 -37h-62q-39 0 -27 37l105 354h-322l-106 -354q-8 -37 -45 -37h-62q-39 0 -26 37l104 354h-211q-37 0 -26 37zM481 518h322l100 338h-321z" />
<glyph unicode="$" horiz-adv-x="1208" d="M84 360q-16 41 27 58l57 20q39 14 55 -24q109 -260 375 -260q367 0 367 264q0 137 -113 190q-68 33 -256 54q-231 23 -334 79q-158 86 -158 295q0 375 424 402v129q0 37 37 37h64q37 0 37 -37v-129q285 -27 426 -314q23 -39 -23 -57l-57 -27q-37 -14 -56 21 q-63 125 -137 178q-88 61 -235 61q-328 0 -328 -262q0 -131 113 -184q72 -33 254 -51q231 -23 331 -78q160 -88 160 -303q0 -371 -448 -402v-133q0 -37 -37 -37h-64q-37 0 -37 37v131q-322 27 -444 342z" />
<glyph unicode="%" horiz-adv-x="1662" d="M74 1034v150q0 141 82 221q86 80 241 80q158 0 244 -80q82 -80 82 -221v-150q0 -299 -326 -299q-156 0 -241 80q-82 78 -82 219zM190 1040q0 -193 207 -192q209 0 209 192v140q0 193 -209 192q-207 0 -207 -192v-140zM250 41l1016 1378q25 35 73 35h56q47 0 18 -39 l-1014 -1378q-25 -37 -80 -37h-47q-49 0 -22 41zM940 266v152q0 141 82 221q86 80 242 80q158 0 243 -80q82 -80 82 -221v-152q0 -139 -82 -217q-86 -80 -243 -80q-156 0 -242 80q-82 78 -82 217zM1057 274q0 -195 207 -194q207 0 206 194v138q0 195 -206 194 q-207 0 -207 -194v-138z" />
<glyph unicode="&#x26;" horiz-adv-x="1353" d="M86 371q0 264 311 413q-180 180 -180 349q0 143 98 243q104 106 273 107q156 0 260 -101q102 -100 102 -241q0 -139 -80 -230q-74 -80 -245 -155l-19 -8l367 -359l141 137q25 25 49 0l47 -49q20 -20 -2 -43l-145 -141l258 -256q37 -37 -16 -37h-86q-37 0 -58 23l-188 184 q-258 -236 -484 -236q-172 0 -286 113q-117 115 -117 287zM227 369q0 -115 78 -191t191 -76q168 0 387 201l-396 387q-260 -119 -260 -321zM348 1130q0 -121 168 -288l51 26q133 57 183 103q72 63 71 170q1 87 -65 153q-70 68 -168 68q-109 0 -176 -70q-63 -68 -64 -162z " />
<glyph unicode="'" horiz-adv-x="376" d="M131 1004v417q0 33 35 33h57q37 0 35 -33l-18 -417q-2 -33 -37 -33h-37q-35 0 -35 33z" />
<glyph unicode="(" horiz-adv-x="524" d="M123 203v1048q0 340 287 471q31 14 49 -20l26 -53q12 -29 -20 -50q-207 -98 -207 -339v-1065q0 -242 207 -340q35 -20 20 -50l-26 -53q-18 -35 -49 -20q-287 131 -287 471z" />
<glyph unicode=")" horiz-adv-x="524" d="M37 -195q-12 29 20 50q207 98 207 340v1065q0 242 -207 339q-33 20 -20 50l26 53q18 35 50 20q287 -131 286 -471v-1048q0 -340 -286 -471q-31 -14 -50 20z" />
<glyph unicode="*" horiz-adv-x="776" d="M115 1165l12 43q12 23 33 13l198 -82l-14 215q-6 25 21 24h43q29 0 22 -24l-16 -215l200 80q23 12 35 -13l13 -41q6 -25 -19 -30l-211 -50l139 -167q20 -16 -2 -33l-37 -25q-20 -18 -32 6l-113 183l-115 -181q-10 -25 -34 -10l-35 27q-23 16 -4 35l141 165l-207 52 q-29 2 -18 28z" />
<glyph unicode="+" horiz-adv-x="1161" d="M96 645v49q0 41 41 41h377v377q0 41 41 41h49q41 0 41 -41v-377h379q39 0 39 -41v-49q0 -39 -39 -39h-379v-379q0 -41 -41 -41h-49q-41 0 -41 41v379h-377q-41 0 -41 39z" />
<glyph unicode="," horiz-adv-x="370" d="M49 -219l70 340q6 45 51 45h53q57 0 39 -45l-117 -332q-10 -37 -45 -37h-26q-31 0 -25 29z" />
<glyph unicode="-" horiz-adv-x="864" d="M127 518v51q0 41 39 41h530q41 0 41 -41v-51q0 -41 -41 -41h-530q-39 0 -39 41z" />
<glyph unicode="." horiz-adv-x="380" d="M102 70v12q0 82 82 82h13q47 0 63 -17q16 -18 16 -65v-12q0 -82 -79 -82h-13q-82 0 -82 82z" />
<glyph unicode="/" horiz-adv-x="835" d="M68 -88l559 1509q12 33 51 33h67q37 0 25 -33l-561 -1509q-14 -35 -49 -35h-68q-37 0 -24 35z" />
<glyph unicode="0" horiz-adv-x="1282" d="M119 446v562q0 221 137 348t385 127t385 -127t137 -348v-562q0 -221 -137 -348t-385 -127t-385 127t-137 348zM266 446q0 -160 99 -247q98 -90 276 -90t277 90q96 88 96 247v562q0 160 -96 247q-98 90 -277 91q-178 0 -276 -91q-98 -88 -99 -247v-562z" />
<glyph unicode="1" horiz-adv-x="909" d="M55 1104q-18 33 19 53l499 281q27 16 58 16h55q41 0 41 -41v-1372q0 -41 -41 -41h-65q-43 0 -43 41v1233l-433 -240q-39 -23 -59 15z" />
<glyph unicode="2" horiz-adv-x="1208" d="M102 41v149q0 184 134 295q84 72 292 154q219 84 291 137q131 98 131 262q0 131 -88 217q-88 90 -229 91q-272 0 -383 -246q-16 -37 -51 -25l-64 25q-41 14 -24 51q141 332 526 332q209 0 342 -129q127 -125 127 -310q0 -215 -143 -337q-102 -90 -392 -205 q-156 -59 -213 -101q-100 -72 -100 -182v-80h795q41 0 41 -41v-57q0 -41 -41 -41h-908q-43 0 -43 41z" />
<glyph unicode="3" horiz-adv-x="1226" d="M94 328q-12 39 25 53l63 22q39 14 54 -26q43 -139 124 -201q90 -68 267 -67q344 0 344 294q0 272 -275 273h-297q-41 0 -41 39v55q0 41 41 41h279q123 0 190 74q63 68 64 178q0 283 -309 283q-168 0 -254 -64q-78 -59 -121 -199q-12 -35 -53 -24l-64 22q-37 14 -25 52 q55 178 173 262q125 88 348 88q221 0 338 -107q115 -106 114 -299q0 -241 -184 -321q229 -82 229 -355q0 -203 -120 -313q-127 -117 -377 -117q-420 0 -533 357z" />
<glyph unicode="4" horiz-adv-x="1249" d="M51 436v43q0 31 15 49l733 914q23 29 57 28h64q43 0 43 -40v-902h188q41 0 41 -41v-51q0 -41 -41 -41h-188v-354q0 -41 -41 -41h-60q-41 0 -41 41v354h-729q-41 0 -41 41zM227 528h594v738z" />
<glyph unicode="5" horiz-adv-x="1198" d="M84 293q-14 37 22 51l68 25q35 14 51 -27q86 -233 391 -233q154 0 248 92q90 90 90 233q0 137 -82 219q-88 88 -243 88h-443q-51 0 -45 50l62 600q6 63 69 63h744q41 0 41 -41v-57q0 -41 -41 -41h-674l-43 -436h338q231 0 358 -131q117 -119 117 -314q0 -197 -131 -328 q-137 -137 -365 -137q-414 0 -532 324z" />
<glyph unicode="6" horiz-adv-x="1271" d="M117 487v480q0 250 135 383t393 133q387 0 508 -314q12 -37 -27 -51l-61 -22q-35 -12 -51 26q-92 223 -369 224q-381 0 -381 -379v-170q199 63 402 63q508 0 508 -444q0 -209 -140 -326q-141 -119 -389 -119q-256 0 -393 140q-135 133 -135 376zM264 487q0 -379 381 -378 q182 0 283 79q98 80 98 228q0 305 -371 305q-231 0 -391 -70v-164z" />
<glyph unicode="7" horiz-adv-x="1062" d="M55 1356v57q0 41 39 41h903q39 0 39 -41v-41q0 -27 -10 -57l-567 -1278q-16 -37 -76 -37h-66q-37 0 -20 41l569 1274h-772q-39 0 -39 41z" />
<glyph unicode="8" horiz-adv-x="1261" d="M98 346q0 272 332 393q-289 117 -289 363q0 182 131 282q129 98 357 99q492 0 491 -371q0 -256 -286 -364q156 -55 231 -127q98 -94 98 -252q0 -397 -534 -398q-530 0 -531 375zM248 360q0 -260 383 -260q377 0 377 267q0 147 -129 219q-63 35 -308 100 q-324 -86 -323 -326zM291 1100q0 -129 104 -199q68 -45 244 -92l47 -14q289 84 289 305q0 254 -344 254q-340 0 -340 -254z" />
<glyph unicode="9" horiz-adv-x="1271" d="M98 1038q0 209 140 328q141 117 389 117q256 0 393 -137q135 -135 135 -379v-480q0 -250 -135 -383t-393 -133q-387 0 -508 314q-12 37 26 51l62 22q35 12 51 -26q92 -223 369 -223q379 0 379 378v170q-190 -63 -400 -63q-508 0 -508 444zM246 1038q0 -305 370 -305 q240 0 390 70v164q0 379 -379 379q-182 0 -283 -80q-98 -80 -98 -228z" />
<glyph unicode=":" horiz-adv-x="428" d="M127 70v12q0 47 16 65q16 16 64 17h12q82 0 82 -82v-12q0 -82 -82 -82h-12q-47 0 -64 16q-16 18 -16 66zM127 901v14q0 80 80 80h12q82 0 82 -80v-14q0 -80 -82 -80h-12q-80 0 -80 80z" />
<glyph unicode=";" horiz-adv-x="485" d="M106 -219l70 340q8 45 53 45h54q53 0 39 -45l-117 -332q-12 -37 -47 -37h-25q-29 0 -27 29zM174 901v14q0 80 80 80h12q82 0 82 -80v-14q0 -80 -82 -80h-12q-80 0 -80 80z" />
<glyph unicode="&#x3c;" horiz-adv-x="1017" d="M74 649v37q0 35 32 53l742 402q45 23 45 -31v-53q0 -47 -41 -68l-602 -315v-6l602 -318q41 -20 41 -67v-58q0 -53 -45 -30l-742 401q-33 18 -32 53z" />
<glyph unicode="=" horiz-adv-x="1224" d="M129 440v54q0 41 39 41h887q41 0 41 -41v-54q0 -41 -41 -41h-887q-39 0 -39 41zM129 846v53q0 39 39 39h887q41 0 41 -39v-53q0 -41 -41 -41h-887q-39 0 -39 41z" />
<glyph unicode="&#x3e;" horiz-adv-x="1017" d="M125 225v54q0 47 39 67l604 318v6l-602 315q-41 20 -41 68v57q0 55 45 31l739 -402q35 -18 35 -51v-39q0 -35 -35 -53l-739 -399q-45 -25 -45 28z" />
<glyph unicode="?" horiz-adv-x="1142" d="M63 1178q134 338 521 338q225 0 360 -125q127 -117 127 -297q0 -188 -102 -310q-53 -61 -205 -157q-182 -123 -182 -271q0 -39 -39 -39h-47q-39 0 -39 39q0 219 223 367q125 82 168 133q78 92 78 231q0 129 -90 209q-94 86 -256 86q-281 0 -381 -252q-16 -37 -52 -24 l-59 18q-39 14 -25 54zM432 70v12q0 82 82 82h12q47 0 64 -17q16 -18 16 -65v-12q0 -82 -80 -82h-12q-82 0 -82 82z" />
<glyph unicode="@" horiz-adv-x="1845" d="M98 524v148q0 375 213 592q219 219 607 219q395 0 612 -223q209 -215 209 -588v-148q0 -207 -107 -323q-98 -109 -248 -109q-102 0 -145 84q-176 -74 -375 -74q-354 0 -354 338v314q0 338 354 338q219 0 365 -62q70 -27 69 -96v-655q0 -82 86 -82q102 0 168 73 q76 88 76 252v150q0 330 -180 518q-188 195 -530 194q-334 0 -523 -190q-186 -188 -186 -522v-150q0 -334 186 -514q184 -178 523 -178q178 0 440 55q23 6 22 -14v-55q0 -25 -22 -31q-193 -55 -440 -55q-391 0 -607 209q-213 207 -213 585zM629 442q0 -229 250 -229 q174 0 301 63v619q0 33 -35 49q-112 39 -266 39q-250 0 -250 -233v-308z" />
<glyph unicode="A" horiz-adv-x="1312" d="M23 39l548 1386q12 35 52 35h61q41 0 53 -33l549 -1388q16 -39 -29 -39h-59q-63 0 -74 37l-153 389h-641l-154 -389q-10 -37 -72 -37h-55q-43 0 -26 39zM373 549h557l-246 629q-29 82 -29 141h-10q0 -66 -24 -141z" />
<glyph unicode="B" horiz-adv-x="1316" d="M160 41v1372q0 41 41 41h577q188 0 291 -96q104 -96 105 -277q0 -244 -193 -327v-4q244 -63 244 -359q0 -186 -117 -291q-113 -100 -307 -100h-600q-41 0 -41 41zM307 139h488q274 0 274 267q0 268 -274 268h-488v-535zM307 807h453q262 0 262 256q0 252 -262 252h-453 v-508z" />
<glyph unicode="C" horiz-adv-x="1302" d="M117 485v484q0 242 143 377q145 137 418 137q434 0 545 -350q3 -10 3 -18q0 -25 -28 -36l-63 -22q-9 -2 -16 -2q-26 0 -38 26q-82 264 -403 265q-201 0 -307 -99q-104 -98 -105 -276v-488q0 -176 105 -274q109 -100 307 -100q324 0 407 270q13 29 39 29q7 0 15 -2l63 -25 q28 -11 28 -34q0 -8 -3 -17q-113 -358 -549 -359q-268 0 -416 138q-145 135 -145 376z" />
<glyph unicode="D" horiz-adv-x="1337" d="M160 41v1372q0 41 41 41h432q283 0 440 -145q154 -143 154 -396v-372q0 -252 -154 -396q-158 -145 -440 -145h-432q-41 0 -41 41zM307 139h326q215 0 330 105q115 104 114 297v372q0 193 -114 297q-115 104 -330 105h-326v-1176z" />
<glyph unicode="E" horiz-adv-x="1173" d="M160 41v1372q0 41 41 41h829q39 0 39 -41v-57q0 -41 -39 -41h-723v-508h631q39 0 39 -41v-57q0 -41 -39 -41h-631v-529h750q39 0 39 -41v-57q0 -41 -39 -41h-856q-41 0 -41 41z" />
<glyph unicode="F" horiz-adv-x="1136" d="M160 41v1372q0 41 41 41h829q39 0 39 -41v-57q0 -41 -39 -41h-723v-531h623q39 0 39 -39v-57q0 -41 -39 -41h-623v-606q0 -41 -39 -41h-67q-41 0 -41 41z" />
<glyph unicode="G" horiz-adv-x="1341" d="M117 487v482q0 242 143 377q145 137 418 137q434 0 545 -350q3 -10 3 -18q0 -25 -28 -36l-63 -22q-9 -2 -16 -2q-26 0 -38 26q-82 264 -403 265q-203 0 -309 -99q-104 -98 -105 -276v-484q0 -180 107 -278q109 -100 309 -100q199 0 309 96q106 94 107 256v153h-396 q-41 0 -41 41v58q0 41 41 41h500q41 0 41 -41v-252q0 -225 -143 -355q-150 -135 -418 -135q-272 0 -420 140q-143 135 -143 376z" />
<glyph unicode="H" horiz-adv-x="1394" d="M160 41v1372q0 41 41 41h67q39 0 39 -41v-606h780v606q0 41 41 41h68q39 0 39 -41v-1372q0 -41 -39 -41h-68q-41 0 -41 41v627h-780v-627q0 -41 -39 -41h-67q-41 0 -41 41z" />
<glyph unicode="I" horiz-adv-x="466" d="M160 41v1372q0 41 41 41h67q39 0 39 -41v-1372q0 -41 -39 -41h-67q-41 0 -41 41z" />
<glyph unicode="J" horiz-adv-x="1167" d="M39 352q-4 10 -4 19q0 24 28 35l66 22q9 4 17 4q24 0 34 -31q63 -292 340 -292h2q346 0 346 346v960q0 39 39 39h70q41 0 41 -39v-958q0 -229 -127 -357q-131 -131 -369 -131q-391 0 -483 383z" />
<glyph unicode="K" horiz-adv-x="1247" d="M160 41v1372q0 41 41 41h67q39 0 39 -41v-608h242l459 614q27 35 82 35h73q32 0 32 -15q0 -9 -11 -24l-486 -639q154 -43 248 -229l260 -506q23 -41 -22 -41h-66q-61 0 -82 37l-227 455q-49 98 -109 137q-66 41 -184 41h-209v-629q0 -41 -39 -41h-67q-41 0 -41 41z" />
<glyph unicode="L" horiz-adv-x="1067" d="M160 41v1372q0 41 41 41h67q39 0 39 -41v-1274h694q39 0 39 -41v-57q0 -41 -39 -41h-800q-41 0 -41 41z" />
<glyph unicode="M" horiz-adv-x="1638" d="M160 41v1372q0 41 41 41h53q39 0 57 -33l508 -899l504 897q20 35 57 35h60q41 0 41 -41v-1372q0 -41 -41 -41h-62q-41 0 -41 41l2 836q0 188 25 362h-8q-66 -156 -158 -319l-311 -549q-14 -31 -47 -31h-41q-33 0 -49 31l-316 555q-76 129 -149 315h-9q23 -186 23 -367 v-833q0 -41 -41 -41h-57q-41 0 -41 41z" />
<glyph unicode="N" horiz-adv-x="1415" d="M160 41v1372q0 41 41 41h65q29 0 43 -20l637 -920q47 -68 109 -182q59 -106 73 -127h7q0 20 -13 153q-12 135 -12 228v829q0 39 41 39h63q41 0 41 -41v-1372q0 -41 -41 -41h-65q-31 0 -43 23l-653 938q-43 63 -99 172q-55 106 -65 120h-8q0 -16 12 -145q10 -129 10 -217 v-850q0 -41 -39 -41h-63q-41 0 -41 41z" />
<glyph unicode="O" d="M117 485v484q0 242 143 377q147 137 420 137q270 0 418 -137q143 -135 143 -377v-484q0 -242 -143 -376q-147 -137 -418 -138q-272 0 -420 138q-143 135 -143 376zM264 485q0 -180 107 -276q109 -100 309 -100q201 0 307 100q106 96 107 276v484q0 180 -107 278 q-106 98 -307 99q-201 0 -309 -99q-106 -98 -107 -278v-484z" />
<glyph unicode="P" horiz-adv-x="1273" d="M160 41v1372q0 41 41 41h547q215 0 337 -121q125 -121 125 -334t-125 -333q-123 -119 -337 -119h-441v-506q0 -41 -39 -41h-67q-41 0 -41 41zM307 684h428q150 0 236 84t86 231t-86 232q-86 84 -236 84h-428v-631z" />
<glyph unicode="Q" horiz-adv-x="1382" d="M117 485v484q0 242 143 377q147 137 420 137q270 0 418 -137q143 -135 143 -377v-484q0 -215 -119 -350l142 -166q12 -14 12 -28q0 -15 -16 -29l-46 -37q-14 -14 -28 -14q-15 0 -29 18l-147 174q-125 -82 -330 -82q-272 0 -420 138q-143 135 -143 376zM264 485 q0 -180 107 -276q109 -100 309 -100q201 0 307 100q106 96 107 276v484q0 180 -107 278q-106 98 -307 99q-201 0 -309 -99q-106 -98 -107 -278v-484z" />
<glyph unicode="R" horiz-adv-x="1318" d="M160 41v1372q0 41 41 41h579q203 0 316 -111q114 -112 114 -310q0 -351 -329 -404q80 -37 133 -142l229 -446q10 -15 10 -24q0 -17 -30 -17h-68q-63 0 -80 37l-198 395q-49 98 -109 137q-66 41 -184 41h-277v-569q0 -41 -39 -41h-67q-41 0 -41 41zM307 750h459 q137 0 213 73q78 72 78 207q0 285 -291 285h-459v-565z" />
<glyph unicode="S" horiz-adv-x="1282" d="M80 324q-3 10 -3 18q0 25 27 37l64 22q9 3 16 3q23 0 37 -27q113 -266 414 -266q407 0 407 285q0 142 -122 202q-80 41 -277 61q-256 29 -364 89q-176 94 -177 315q1 192 138 305q141 115 391 115q385 0 538 -316q6 -11 6 -20q0 -20 -28 -33l-64 -29q-33 -14 -53 19 q-120 237 -397 237h-2q-377 0 -377 -270q0 -141 131 -205q84 -39 293 -63q244 -29 350 -90q164 -94 164 -312q0 -203 -141 -315q-145 -115 -416 -115q-416 0 -555 353z" />
<glyph unicode="T" horiz-adv-x="1112" d="M27 1356v57q0 41 41 41h976q41 0 41 -41v-57q0 -41 -41 -41h-413v-1274q0 -41 -41 -41h-68q-41 0 -41 41v1274h-413q-41 0 -41 41z" />
<glyph unicode="U" horiz-adv-x="1396" d="M147 496v917q0 41 41 41h68q41 0 41 -41v-919q0 -385 401 -385t402 385v919q0 41 41 41h67q41 0 41 -41v-917q0 -246 -137 -383q-145 -143 -414 -144q-268 0 -413 144q-137 137 -138 383z" />
<glyph unicode="V" horiz-adv-x="1273" d="M25 1415q-16 39 26 39h60q61 0 73 -37l402 -1075l30 -98q14 -57 19 -66h6q4 8 18 64q16 63 29 100l402 1075q10 37 71 37h60q39 0 26 -39l-528 -1380q-14 -35 -53 -35h-62q-39 0 -53 33z" />
<glyph unicode="W" horiz-adv-x="1804" d="M43 1415q-8 39 27 39h82q45 0 55 -37l250 -989q8 -37 20 -117l17 -102h8q29 170 43 219l272 967q10 37 55 37h64q45 0 55 -37l269 -969q14 -49 45 -217h8q23 147 37 215l249 993q8 37 54 37h71q39 0 27 -39l-365 -1380q-10 -35 -53 -35h-63q-45 0 -53 33l-273 991 q-23 86 -41 201h-8q-10 -84 -41 -199l-276 -991q-10 -35 -52 -35h-65q-43 0 -51 33z" />
<glyph unicode="X" horiz-adv-x="1263" d="M39 43l500 696l-486 676q-27 39 21 39h82q51 0 77 -35l402 -563l403 563q23 35 74 35h82q47 0 20 -39l-487 -676l504 -696q12 -16 12 -26q0 -17 -33 -17h-82q-57 0 -77 37l-422 588l-416 -588q-23 -37 -78 -37h-78q-30 0 -30 16q0 10 12 27z" />
<glyph unicode="Y" horiz-adv-x="1284" d="M35 1413q-10 15 -10 24q0 17 30 17h84q57 0 78 -37l428 -674l432 674q20 37 78 37h78q30 0 30 -17q0 -9 -10 -24l-534 -823v-549q0 -41 -41 -41h-68q-41 0 -41 41v551z" />
<glyph unicode="Z" horiz-adv-x="1159" d="M68 41v55q0 31 14 47l809 1172h-774q-41 0 -41 41v57q0 41 41 41h919q41 0 41 -41v-55q0 -25 -14 -45l-811 -1174h805q41 0 41 -39v-59q0 -41 -41 -41h-951q-39 0 -38 41z" />
<glyph unicode="[" horiz-adv-x="557" d="M137 -262v1978q0 37 37 37h315q35 0 35 -37v-51q0 -37 -35 -37h-219v-1802h219q35 0 35 -35v-53q0 -37 -35 -37h-315q-37 0 -37 37z" />
<glyph unicode="\" horiz-adv-x="835" d="M66 1419q-12 35 24 35h70q35 0 49 -35l561 -1507q12 -35 -25 -35h-69q-35 0 -49 35z" />
<glyph unicode="]" horiz-adv-x="557" d="M33 -209q0 35 37 35h217v1802h-217q-37 0 -37 37v51q0 37 37 37h313q37 0 37 -37v-1978q0 -37 -37 -37h-313q-37 0 -37 37v53z" />
<glyph unicode="^" horiz-adv-x="1212" d="M109 1110l421 516q27 33 52 33h39q25 0 51 -33l426 -516q39 -45 -21 -45h-61q-47 0 -74 33l-338 420h-8l-336 -420q-25 -33 -74 -33h-57q-55 0 -20 45z" />
<glyph unicode="_" horiz-adv-x="1036" d="M55 -41q0 41 39 41h846q41 0 41 -41v-51q0 -41 -41 -41h-846q-39 0 -39 41v51z" />
<glyph unicode="`" horiz-adv-x="526" d="M47 1446l31 37q23 29 67 2l332 -205q25 -14 4 -41l-20 -25q-14 -16 -47 -2l-361 191q-31 12 -6 43z" />
<glyph unicode="a" horiz-adv-x="1048" d="M76 289q0 174 104 248q101 69 339 69h7q84 0 269 -20v94q0 281 -277 281q-203 0 -287 -150q-23 -31 -51 -16l-49 20q-26 9 -26 30q0 10 6 23q114 215 411 215q410 0 410 -405v-537q0 -86 -74 -116q-123 -53 -340 -54q-254 0 -354 82q-88 72 -88 236zM217 291 q0 -104 55 -152q66 -53 236 -53q156 0 248 33q39 16 39 59v295q-184 18 -283 19q-162 0 -229 -48q-66 -47 -66 -153z" />
<glyph unicode="b" horiz-adv-x="1099" d="M131 145v1334q0 37 37 37h65q37 0 37 -37v-459q190 63 324 63q403 0 403 -401v-291q0 -420 -440 -420q-211 0 -346 62q-49 23 -64 41q-16 23 -16 71zM270 190q0 -39 37 -53q100 -41 240 -41q313 0 313 297v285q0 278 -283 278h-2q-147 0 -305 -65v-701z" />
<glyph unicode="c" horiz-adv-x="1054" d="M100 375v305q0 190 111 295q114 108 332 108h4q344 0 428 -276q3 -10 3 -18q0 -25 -28 -35l-53 -19q-9 -3 -17 -3q-24 0 -34 28q-63 201 -303 201q-305 0 -305 -277v-313q0 -279 305 -279q240 0 305 211q11 27 37 27q7 0 16 -2l53 -17q29 -10 29 -34q0 -9 -4 -19 q-94 -287 -440 -287q-215 0 -330 109q-109 104 -109 295z" />
<glyph unicode="d" horiz-adv-x="1099" d="M102 381v293q0 409 402 409h2q152 0 323 -59v455q0 37 37 37h64q37 0 37 -37v-1336q0 -78 -80 -110q-145 -61 -355 -62q-430 0 -430 410zM240 383q0 -287 305 -287q137 0 246 39q39 16 38 53v707q-158 61 -299 61q-291 0 -290 -286v-287z" />
<glyph unicode="e" horiz-adv-x="1085" d="M96 385v266q0 205 115 318q116 114 334 114h4q223 0 342 -118q113 -113 113 -306v-112q0 -57 -62 -58h-709v-118q0 -281 308 -281q227 0 321 170q16 21 36 21q11 0 24 -7l43 -22q24 -12 24 -31q0 -12 -10 -28q-123 -221 -438 -222q-223 0 -338 115q-106 106 -107 299z M233 596h633v72q0 297 -317 297q-154 0 -236 -80q-80 -78 -80 -217v-72z" />
<glyph unicode="f" horiz-adv-x="722" d="M16 963v53q0 37 37 37h183v51q0 219 96 313t317 99h17q37 0 36 -37v-54q0 -39 -36 -39q-168 0 -230 -59q-63 -59 -63 -223v-51h297q37 0 37 -37v-53q0 -37 -37 -37h-297v-889q0 -37 -37 -37h-64q-37 0 -36 37v889h-183q-37 0 -37 37z" />
<glyph unicode="g" horiz-adv-x="1097" d="M100 395v269q0 419 441 419h2q199 0 346 -61q49 -23 63 -41q14 -20 15 -72v-972q0 -442 -432 -443q-287 0 -406 219q-11 15 -11 28q0 20 25 34l45 22q14 7 25 7q21 0 35 -21q88 -164 282 -164q299 0 299 311v127q-166 -61 -323 -61q-406 0 -406 399zM240 399 q0 -276 282 -276q150 0 307 59v682q0 37 -38 54q-105 38 -240 38q-311 0 -311 -294v-263z" />
<glyph unicode="h" horiz-adv-x="1128" d="M137 37v1442q0 37 37 37h64q37 0 36 -37v-453q127 57 322 57q408 0 408 -401v-645q0 -37 -37 -37h-66q-37 0 -37 37v641q0 278 -284 278h-2q-184 0 -304 -59v-860q0 -37 -36 -37h-64q-37 0 -37 37z" />
<glyph unicode="i" horiz-adv-x="409" d="M123 1339v15q0 76 76 76h12q76 0 76 -76v-15q0 -75 -74 -75h-2h-12q-76 0 -76 75zM135 37v979q0 37 37 37h66q37 0 36 -37v-979q0 -37 -36 -37h-66q-37 0 -37 37z" />
<glyph unicode="j" horiz-adv-x="411" d="M-188 -381q0 39 36 39q160 0 228 86q61 76 61 240v1032q0 37 37 37h64q37 0 36 -37v-1034q0 -453 -426 -453q-37 0 -36 37v53zM123 1339v15q0 76 78 76h10q78 0 78 -76v-15q0 -75 -76 -75h-2h-10q-78 0 -78 75z" />
<glyph unicode="k" horiz-adv-x="1038" d="M137 39v1440q0 37 39 37h60q39 0 38 -37v-875h215l330 420q20 29 72 29h57q36 0 36 -18q0 -10 -11 -25l-346 -432q111 -29 178 -166l184 -369q20 -43 -22 -43h-62q-45 0 -63 33l-156 319q-59 125 -199 125h-213v-438q0 -39 -38 -39h-60q-39 0 -39 39z" />
<glyph unicode="l" horiz-adv-x="423" d="M143 37v1442q0 37 37 37h64q37 0 37 -37v-1442q0 -37 -37 -37h-64q-37 0 -37 37z" />
<glyph unicode="m" horiz-adv-x="1673" d="M131 37v864q0 84 78 117q145 65 323 65h5q172 0 264 -88q194 88 370 88q375 0 375 -389v-657q0 -37 -37 -37h-63q-37 0 -37 37v651q0 268 -254 268q-145 0 -278 -69q38 -74 38 -187v-6v-657q0 -37 -36 -37h-64q-37 0 -37 37v651q0 268 -260 268q-121 0 -215 -41 q-33 -14 -33 -55v-823q0 -37 -37 -37h-65q-37 0 -37 37z" />
<glyph unicode="n" horiz-adv-x="1124" d="M131 37v864q0 80 78 113q170 69 381 69q408 0 407 -401v-645q0 -37 -36 -37h-64q-37 0 -37 37v641q0 278 -285 278h-2q-145 0 -272 -45q-31 -14 -31 -51v-823q0 -37 -37 -37h-65q-37 0 -37 37z" />
<glyph unicode="o" horiz-adv-x="1103" d="M102 346v361q0 176 121 276q119 100 328 100q211 0 332 -100t121 -276v-361q0 -176 -121 -274q-121 -100 -332 -101q-209 0 -328 101q-121 100 -121 274zM240 346q0 -117 86 -182q84 -68 225 -68q145 0 229 68q84 66 84 182v361q0 117 -84 184q-83 67 -225 67h-4 q-143 0 -225 -67q-86 -68 -86 -184v-361z" />
<glyph unicode="p" horiz-adv-x="1099" d="M131 -414v1323q0 82 82 115q149 59 358 59q426 0 426 -409v-295q0 -408 -419 -408q-133 0 -308 70v-455q0 -37 -37 -37h-65q-37 0 -37 37zM270 168q150 -72 297 -72q293 0 293 287v287q0 286 -303 286h-2q-137 0 -246 -38q-39 -16 -39 -56v-694z" />
<glyph unicode="q" horiz-adv-x="1099" d="M102 371v293q0 419 439 419h2q203 0 346 -61q49 -23 63 -41q14 -20 15 -72v-1323q0 -37 -37 -37h-64q-37 0 -37 37v457q-176 -72 -323 -72q-403 0 -404 400zM240 373q0 -276 284 -277q150 0 305 72v694q0 39 -41 56q-101 38 -230 38h-7q-311 0 -311 -294v-289z" />
<glyph unicode="r" horiz-adv-x="700" d="M131 37v868q0 82 78 115q156 59 371 63h63q37 0 37 -36v-54q0 -37 -37 -37h-68q-154 0 -270 -43q-35 -14 -35 -53v-823q0 -37 -37 -37h-65q-37 0 -37 37z" />
<glyph unicode="s" horiz-adv-x="1015" d="M78 225q-16 37 22 49l54 19q33 10 49 -23q68 -178 313 -178q289 0 289 187q0 100 -82 141q-59 31 -215 47q-203 20 -285 65q-129 70 -129 244q1 143 101 225q106 82 303 82q319 0 417 -223q7 -13 7 -23q0 -19 -25 -30l-51 -23q-33 -14 -51 19q-72 155 -292 155h-3 q-268 0 -269 -178q0 -111 88 -151q55 -27 222 -41q197 -18 282 -72q117 -70 117 -231q0 -147 -104 -228q-109 -86 -316 -86q-344 0 -442 254z" />
<glyph unicode="t" horiz-adv-x="735" d="M10 963v53q0 37 37 37h195v209q0 37 37 36h63q37 0 37 -36v-209h297q37 0 37 -37v-53q0 -37 -37 -37h-297v-533q0 -178 63 -237q57 -53 230 -54q37 0 37 -39v-55q0 -37 -37 -37h-21q-223 0 -313 84q-96 90 -96 334v537h-195q-37 0 -37 37z" />
<glyph unicode="u" horiz-adv-x="1124" d="M127 371v645q0 37 37 37h63q37 0 37 -37v-639q0 -281 287 -281q154 0 266 45q37 16 37 58v817q0 37 37 37h65q37 0 37 -37v-864q0 -80 -78 -113q-164 -68 -383 -68q-406 0 -405 400z" />
<glyph unicode="v" horiz-adv-x="1032" d="M33 1010q-5 12 -5 20q0 23 35 23h48q51 0 63 -37l281 -676q14 -41 34 -107q18 -63 23 -71h6l23 69q18 66 32 107l279 678q12 37 66 37h49q33 0 33 -21q0 -8 -5 -20l-409 -983q-16 -35 -51 -35h-39q-39 0 -54 35z" />
<glyph unicode="w" horiz-adv-x="1497" d="M47 1010q-3 10 -3 18q0 25 34 25h47q55 0 63 -37l187 -635q10 -41 26 -123q14 -76 19 -90h6q4 12 20 90q18 82 31 125l197 610q10 37 59 37h31q47 0 59 -37l195 -604q14 -47 33 -129q16 -78 20 -92h6q4 12 19 88q14 80 28 129l185 631q10 37 65 37h41q34 0 34 -25 q0 -8 -3 -18l-303 -983q-8 -33 -49 -33h-43q-41 0 -52 33l-211 669q-12 43 -26 105l-14 69h-7q-4 -10 -16 -69q-12 -63 -25 -105l-211 -669q-10 -33 -49 -33h-43q-39 0 -49 33z" />
<glyph unicode="x" horiz-adv-x="997" d="M41 41l373 500l-357 471q-9 13 -9 22q0 19 38 19h57q47 0 68 -31l287 -381l286 381q20 31 64 31h61q35 0 35 -18q0 -9 -10 -23l-350 -471l372 -500q10 -14 10 -23q0 -18 -36 -18h-62q-45 0 -65 31l-307 411l-306 -411q-18 -31 -65 -31h-57q-37 0 -37 18q0 9 10 23z" />
<glyph unicode="y" horiz-adv-x="1128" d="M127 397v619q0 37 37 37h63q37 0 37 -37v-613q0 -280 285 -280h2q131 0 303 55v838q0 37 37 37h65q37 0 37 -37v-1079q0 -442 -436 -443q-289 0 -407 219q-10 16 -10 29q0 20 24 33l45 22q14 7 25 7q20 0 34 -21q88 -164 287 -164q299 0 299 311v121q-180 -53 -322 -53 q-406 0 -405 399z" />
<glyph unicode="z" horiz-adv-x="931" d="M63 37v51q0 25 13 41l608 799h-578q-35 0 -34 37v51q0 37 34 37h717q37 0 37 -37v-51q0 -25 -14 -43l-608 -797h596q37 0 36 -37v-51q0 -37 -36 -37h-734q-37 0 -37 37z" />
<glyph unicode="{" horiz-adv-x="655" d="M12 690v68q0 37 31 37h20q168 0 168 196v498q0 137 60 201q61 63 203 63h96q37 0 37 -37v-53q0 -37 -37 -37h-92q-133 0 -133 -143v-510q0 -188 -140 -248q139 -51 140 -250v-506q0 -143 133 -143h92q37 0 37 -37v-53q0 -37 -37 -37h-94q-143 0 -205 63q-59 61 -60 199 v496q0 197 -168 196h-20q-31 0 -31 37z" />
<glyph unicode="|" horiz-adv-x="407" d="M137 -264v1980q0 37 37 37h57q37 0 37 -37v-1980q0 -37 -37 -37h-57q-37 0 -37 37z" />
<glyph unicode="}" horiz-adv-x="655" d="M29 -211q0 37 37 37h92q133 0 133 143v506q0 199 139 250q-139 59 -139 248v510q0 143 -133 143h-92q-37 0 -37 37v53q0 37 37 37h96q141 0 203 -63q59 -63 59 -201v-498q0 -197 168 -196h20q31 0 31 -37v-68q0 -37 -31 -37h-20q-168 0 -168 -196v-496q0 -137 -59 -199 q-61 -63 -205 -63h-94q-37 0 -37 37v53z" />
<glyph unicode="~" horiz-adv-x="1146" d="M139 608q-29 31 0 58q111 100 244 100q84 0 195 -41q109 -43 170 -43q92 0 167 70q29 25 54 -2l39 -35q31 -31 0 -58q-115 -100 -246 -100q-84 0 -193 43q-109 41 -170 41q-88 0 -168 -70q-27 -25 -53 2z" />
<glyph unicode="&#xa1;" horiz-adv-x="401" d="M115 967v12q0 47 16 65q16 16 64 17h12q82 0 82 -82v-12q0 -82 -82 -82h-12q-80 0 -80 82zM129 -430l16 1098q2 37 37 37h37q37 0 37 -37l18 -1098q0 -37 -36 -37h-72q-37 0 -37 37z" />
<glyph unicode="&#xa2;" horiz-adv-x="1093" d="M111 375v305q0 365 374 397v135q0 37 37 37h66q37 0 37 -37v-135q287 -23 362 -270q12 -39 -24 -53l-54 -19q-37 -12 -53 25q-61 201 -303 201q-303 0 -303 -277v-313q0 -279 303 -279q242 0 307 211q12 35 51 25l56 -17q39 -14 24 -53q-82 -258 -366 -281v-112 q0 -37 -37 -37h-66q-37 0 -37 37v110q-375 29 -374 400z" />
<glyph unicode="&#xa3;" horiz-adv-x="1300" d="M80 41v59q0 33 24 33h35q143 16 144 215v281h-146q-39 0 -39 39v49q0 41 39 41h146v334q0 170 108 276q117 115 334 115q354 0 469 -316q12 -37 -27 -51l-61 -22q-33 -12 -53 24q-88 227 -324 228q-145 0 -221 -76q-70 -68 -70 -185v-327h527q41 0 41 -41v-49 q0 -39 -41 -39h-527v-279q0 -147 -102 -219v-6q147 14 264 14h549q41 0 41 -41v-57q0 -41 -41 -41h-1030q-39 0 -39 41z" />
<glyph unicode="&#xa4;" horiz-adv-x="1230" d="M131 1071q-25 29 0 53l45 45q27 27 51 0l111 -110q121 94 274 94q156 0 273 -92l108 110q29 25 54 0l45 -45q27 -25 0 -51l-109 -110q94 -121 94 -277t-92 -272l111 -109q25 -25 0 -53l-45 -43q-29 -29 -54 0l-110 108q-119 -96 -275 -96q-152 0 -272 94l-109 -110 q-29 -29 -53 0l-45 45q-25 27 0 51l111 113q-96 119 -97 272q0 156 95 273zM274 690q2 -141 101 -239q98 -100 237 -101q141 0 240 101q98 98 98 239t-98 240q-96 96 -240 96q-139 0 -237 -96q-98 -98 -101 -240z" />
<glyph unicode="&#xa5;" horiz-adv-x="1306" d="M68 1413q-27 41 20 41h74q57 0 78 -37l419 -651l418 651q20 37 78 37h70q43 0 20 -41l-459 -696h252q35 0 35 -37v-37q0 -37 -35 -37h-309v-186h309q35 0 35 -37v-37q0 -37 -35 -37h-309v-268q0 -41 -39 -41h-67q-41 0 -41 41v268h-312q-35 0 -34 37v37q0 37 34 37h312 v186h-312q-35 0 -34 37v37q0 37 34 37h258z" />
<glyph unicode="&#xa6;" horiz-adv-x="425" d="M147 -262v797q0 37 37 36h58q37 0 37 -36v-797q0 -37 -37 -37h-58q-37 0 -37 37zM147 920v796q0 37 37 37h58q37 0 37 -37v-796q0 -37 -37 -37h-58q-37 0 -37 37z" />
<glyph unicode="&#xa7;" horiz-adv-x="1220" d="M102 -115q-14 39 27 54l59 20q39 16 54 -27q86 -248 370 -247q354 0 355 235q0 127 -111 180q-70 31 -252 50q-240 25 -336 73q-162 80 -162 279q0 205 213 309q-199 82 -198 305q0 170 117 270q125 106 364 107q369 0 494 -328q18 -39 -23 -57l-57 -27q-39 -16 -58 23 q-92 248 -356 248q-330 0 -330 -236q0 -125 111 -178q66 -33 246 -55q219 -27 319 -82q152 -84 152 -275q0 -184 -182 -299q197 -78 196 -305q0 -170 -125 -270q-131 -106 -377 -107q-393 0 -510 340zM258 520q0 -127 113 -180q74 -35 254 -51l151 -19q174 82 174 244 q0 119 -108 174q-76 37 -244 55q-118 15 -143 21q-197 -74 -197 -244z" />
<glyph unicode="&#xa8;" horiz-adv-x="899" d="M172 1325v16q0 66 66 66h12q68 0 67 -66v-16q0 -68 -67 -68h-12q-66 0 -66 68zM567 1325v16q0 66 68 66h12q68 0 68 -66v-16q0 -68 -68 -68h-12q-68 0 -68 68z" />
<glyph unicode="&#xa9;" horiz-adv-x="1652" d="M92 719q0 309 213 522t524 213q307 0 521 -213q211 -213 211 -522t-211 -522q-213 -213 -521 -213q-309 0 -524 215q-213 213 -213 520zM193 719q0 -268 184 -453q182 -184 452 -184q266 0 449 184q184 184 184 453q0 271 -184 455q-182 182 -449 182q-270 0 -452 -182 q-184 -184 -184 -455zM504 594v235q0 137 82 213q82 78 235 78q246 0 307 -200q10 -31 -16 -39l-37 -13q-29 -12 -37 19q-43 141 -217 141q-219 0 -219 -199v-235q0 -199 219 -199q174 0 219 150q10 29 41 18l31 -12q31 -10 21 -39q-68 -209 -312 -209q-152 0 -235 78 q-82 78 -82 213z" />
<glyph unicode="&#xaa;" horiz-adv-x="753" d="M109 907q0 188 266 189q102 0 151 -9v39q0 154 -149 154q-98 0 -160 -82q-16 -14 -39 -6l-31 16q-37 18 -16 45q82 119 248 119q256 0 256 -254v-256q0 -74 -66 -104q-68 -31 -198 -31q-262 0 -262 180zM215 911q0 -98 150 -98q88 0 129 18q33 12 32 50v125 q-66 10 -157 10q-154 0 -154 -105z" />
<glyph unicode="&#xab;" horiz-adv-x="1155" d="M78 514q-20 25 0 47l411 412q27 23 48 0l41 -41q23 -25 0 -47l-345 -344l342 -342q23 -23 0 -47l-43 -43q-25 -23 -49 0zM547 514q-20 25 0 47l411 412q25 25 48 0l38 -41q25 -23 0 -47l-342 -344l342 -342q23 -23 0 -47l-43 -43q-25 -23 -49 0z" />
<glyph unicode="&#xac;" horiz-adv-x="1187" d="M129 705v55q0 37 37 37h854q37 0 37 -37v-436q0 -37 -37 -37h-66q-37 0 -36 37v344h-752q-37 0 -37 37z" />
<glyph unicode="&#xad;" horiz-adv-x="864" d="M127 518v51q0 41 39 41h530q41 0 41 -41v-51q0 -41 -41 -41h-530q-39 0 -39 41z" />
<glyph unicode="&#xae;" horiz-adv-x="985" d="M96 1057q0 163 117 280q119 117 283 117q162 0 278 -117q117 -117 117 -280q0 -164 -117 -281q-115 -117 -278 -117q-164 0 -283 117q-117 117 -117 281zM164 1057q0 -140 96 -236q98 -98 238 -98q135 0 231 98t96 236q0 137 -96 235q-96 96 -231 97q-139 0 -238 -97 q-96 -96 -96 -235zM334 864v379q0 20 22 21h181q143 0 143 -136q0 -102 -92 -124l78 -132q14 -23 -15 -22h-28q-18 0 -27 14l-76 133h-125v-133q0 -14 -16 -14h-29q-16 0 -16 14zM395 1053h140q82 0 81 75q0 76 -81 76h-140v-151z" />
<glyph unicode="&#xaf;" horiz-adv-x="720" d="M82 1319v31q0 35 35 34h483q35 0 35 -34v-31q0 -35 -35 -35h-483q-35 0 -35 35z" />
<glyph unicode="&#xb0;" horiz-adv-x="792" d="M86 1137q0 129 92 219q90 90 219 90t219 -90q90 -88 91 -219q-1 -127 -91 -219q-92 -92 -219 -93q-129 0 -219 93q-92 90 -92 219zM199 1137q0 -83 59 -142q57 -57 139 -57t140 59q59 57 59 140q0 82 -59 139q-57 57 -140 57q-82 0 -139 -57q-59 -57 -59 -139z" />
<glyph unicode="&#xb1;" horiz-adv-x="1306" d="M170 291v39q0 41 41 41h885q41 0 41 -41v-39q0 -41 -41 -41h-885q-41 0 -41 41zM170 791v38q0 41 41 41h379v238q0 41 41 41h45q41 0 41 -41v-238h379q41 0 41 -41v-38q0 -41 -41 -41h-379v-230q0 -41 -41 -41h-45q-41 0 -41 41v230h-379q-41 0 -41 41z" />
<glyph unicode="&#xb2;" horiz-adv-x="727" d="M76 887v80q0 188 164 250l118 47q96 37 121 53q51 37 51 106q0 141 -159 142q-92 0 -142 -66q-14 -23 -26 -49l-10 -29q-16 -39 -52 -26l-35 10q-41 16 -26 51q88 219 293 219q133 0 209 -71q70 -66 69 -177q0 -106 -67 -167q-49 -45 -172 -86l-121 -39 q-102 -39 -103 -127v-52h418q37 0 37 -36v-37q0 -35 -37 -35h-491q-39 0 -39 39z" />
<glyph unicode="&#xb3;" horiz-adv-x="743" d="M66 1047q-12 41 20 51l37 12q37 10 51 -27q45 -145 205 -145q170 0 170 137q0 131 -123 131h-123q-35 0 -35 37v31q0 27 6 33t31 6h113q115 0 114 121q0 137 -151 137q-160 0 -201 -146q-18 -45 -61 -30l-25 10q-37 16 -24 53q65 217 311 217q123 0 192 -63 q70 -61 70 -166q0 -127 -98 -178q121 -55 121 -205q0 -231 -287 -232q-244 0 -313 216z" />
<glyph unicode="&#xb4;" horiz-adv-x="526" d="M51 1239q-20 27 4 41l330 205q47 25 70 -2l30 -37q25 -31 -6 -43l-360 -191q-33 -14 -49 2z" />
<glyph unicode="&#xb5;" horiz-adv-x="1122" d="M129 -414v1430q0 37 37 37h63q37 0 37 -37v-641q0 -281 287 -281q145 0 268 45q37 16 37 58v819q0 37 37 37h63q37 0 37 -37v-864q0 -82 -77 -115q-170 -68 -353 -68q-217 0 -299 142v-525q0 -37 -37 -37h-63q-37 0 -37 37z" />
<glyph unicode="&#xb6;" horiz-adv-x="880" d="M90 1174q0 125 78 202q78 78 205 78h321q37 0 37 -37v-1562q0 -37 -37 -37h-55q-37 0 -37 37v1460h-110v-1460q0 -37 -37 -37h-56q-37 0 -37 37v1040q-121 4 -196 80q-76 78 -76 199z" />
<glyph unicode="&#xb7;" horiz-adv-x="434" d="M129 551v14q0 82 82 82h12q80 0 80 -82v-14q0 -80 -80 -80h-12q-82 0 -82 80z" />
<glyph unicode="&#xb8;" horiz-adv-x="514" d="M53 -385q0 27 21 14q68 -47 151 -47q141 0 142 115q0 86 -123 86q-41 0 -68 -8q-37 -4 -22 35l73 190h86l-53 -152q23 6 51 7q82 0 131 -45q47 -45 43 -119q-12 -195 -243 -195q-98 0 -164 39q-25 14 -25 41v39z" />
<glyph unicode="&#xb9;" horiz-adv-x="575" d="M39 1430q-18 37 18 55l287 164q18 10 49 10h23q41 0 41 -39v-731q0 -41 -41 -41h-37q-41 0 -41 41v622l-225 -125q-37 -18 -58 15z" />
<glyph unicode="&#xba;" horiz-adv-x="763" d="M109 973v153q0 246 272 246q274 0 274 -246v-153q0 -244 -274 -244q-272 0 -272 244zM221 969q0 -139 160 -140q162 0 162 140v164q0 139 -162 139q-160 0 -160 -139v-164z" />
<glyph unicode="&#xbb;" horiz-adv-x="1155" d="M106 885q-23 25 0 47l41 41q25 25 48 0l411 -412q20 -23 0 -47l-405 -405q-25 -23 -49 0l-43 43q-23 25 0 47l342 342zM575 885q-23 23 0 47l41 41q25 27 48 0l411 -412q20 -23 0 -47l-405 -405q-25 -23 -49 0l-43 43q-25 25 0 47l342 342z" />
<glyph unicode="&#xbc;" horiz-adv-x="1609" d="M68 1233q-20 33 16 55l287 162q25 12 49 12h22q41 0 41 -41v-731q0 -39 -41 -39h-36q-41 0 -41 39v625l-226 -125q-37 -20 -55 12zM236 41l1013 1378q23 35 74 35h53q49 0 21 -39l-1012 -1378q-27 -37 -82 -37h-47q-53 0 -20 41zM885 246v26q0 27 12 43l387 473 q16 23 51 23h51q35 0 35 -37v-465h82q35 0 35 -33v-34q0 -33 -35 -33h-82v-174q0 -35 -32 -35h-48q-31 0 -30 35v174h-391q-35 0 -35 37zM1020 309h291v355z" />
<glyph unicode="&#xbd;" horiz-adv-x="1722" d="M63 1239q-16 35 17 55l289 162q16 12 49 12h22q41 0 41 -38v-732q0 -41 -41 -41h-37q-41 0 -41 41v623l-225 -125q-37 -20 -57 14zM227 41l1012 1378q25 35 76 35h53q49 0 21 -39l-1012 -1378q-27 -37 -82 -37h-49q-51 0 -19 41zM1055 39v80q0 188 164 250l120 47 q96 37 121 53q51 37 51 106q0 141 -159 142q-123 0 -178 -146q-18 -39 -52 -26l-37 12q-41 12 -24 51q80 219 293 219q133 0 207 -71q72 -68 71 -176q0 -109 -67 -168q-49 -45 -172 -86l-121 -41q-102 -35 -103 -127v-49h418q37 0 37 -37v-37q0 -35 -37 -35h-491 q-41 0 -41 39z" />
<glyph unicode="&#xbe;" horiz-adv-x="1685" d="M80 856q-12 41 20 51l37 13q37 10 51 -27q43 -145 205 -145q170 0 170 137q0 57 -33 94q-33 39 -90 39h-123q-37 0 -36 35v32q0 37 38 37h113q113 0 113 123q0 135 -150 135q-158 0 -202 -145q-16 -47 -60 -29l-27 8q-37 14 -22 54q67 219 309 219q125 0 195 -64 q70 -61 69 -168q0 -125 -98 -176q121 -57 121 -207q0 -229 -287 -229q-244 0 -313 213zM315 41l1014 1378q23 35 74 35h53q49 0 21 -39l-1012 -1378q-27 -37 -82 -37h-47q-53 0 -21 41zM963 246v26q0 29 12 43l385 473q18 23 53 23h49q37 0 37 -37v-465h82q35 0 35 -33v-34 q0 -33 -35 -33h-82v-174q0 -35 -33 -35h-47q-33 0 -33 35v174h-389q-35 0 -34 37zM1098 309h288v355z" />
<glyph unicode="&#xbf;" horiz-adv-x="1132" d="M63 -43q0 188 105 307q51 59 205 158q182 123 182 270q0 39 39 39h47q39 0 39 -39q0 -219 -223 -366q-125 -82 -168 -133q-78 -92 -78 -230q0 -129 88 -211q94 -86 258 -86q276 0 381 252q16 39 51 27l58 -21q39 -14 26 -51q-133 -338 -520 -338q-225 0 -360 123 q-129 119 -130 299zM530 967v12q0 82 80 82h13q82 0 82 -82v-12q0 -82 -82 -82h-13q-80 0 -80 82z" />
<glyph unicode="&#xc0;" horiz-adv-x="1312" d="M23 39l548 1386q12 35 52 35h61q41 0 53 -33l549 -1388q16 -39 -29 -39h-59q-63 0 -74 37l-153 389h-641l-154 -389q-10 -37 -72 -37h-55q-43 0 -26 39zM373 549h557l-246 629q-29 82 -29 141h-10q0 -66 -24 -141zM436 1788l31 37q25 29 70 2l335 -199q27 -14 2 -41 l-18 -22q-12 -18 -47 -2l-367 182q-31 12 -6 43z" />
<glyph unicode="&#xc1;" horiz-adv-x="1312" d="M23 39l548 1386q12 35 52 35h61q41 0 53 -33l549 -1388q16 -39 -29 -39h-59q-63 0 -74 37l-153 389h-641l-154 -389q-10 -37 -72 -37h-55q-43 0 -26 39zM373 549h557l-246 629q-29 82 -29 141h-10q0 -66 -24 -141zM438 1591q-25 27 2 41l332 207q47 23 70 -4l30 -37 q25 -31 -6 -43l-360 -190q-37 -12 -49 4z" />
<glyph unicode="&#xc2;" horiz-adv-x="1312" d="M23 39l548 1386q12 35 52 35h61q41 0 53 -33l549 -1388q16 -39 -29 -39h-59q-63 0 -74 37l-153 389h-641l-154 -389q-10 -37 -72 -37h-55q-43 0 -26 39zM324 1591l251 221q35 33 74 33h17q37 0 69 -33l250 -221q29 -29 -18 -28h-56q-43 0 -61 20l-197 168l-198 -168 q-23 -20 -60 -20h-53q-47 0 -18 28zM373 549h557l-246 629q-29 82 -29 141h-10q0 -66 -24 -141z" />
<glyph unicode="&#xc3;" horiz-adv-x="1312" d="M23 39l548 1386q12 35 52 35h61q41 0 53 -33l549 -1388q16 -39 -29 -39h-59q-63 0 -74 37l-153 389h-641l-154 -389q-10 -37 -72 -37h-55q-43 0 -26 39zM332 1602q0 205 160 204q78 0 165 -67q88 -70 138 -70q82 0 82 113q0 25 22 24h41q25 0 25 -24q0 -205 -160 -205 q-74 0 -162 70q-88 68 -139 67q-82 0 -82 -112q0 -25 -25 -25h-41q-25 0 -24 25zM373 549h557l-246 629q-29 82 -29 141h-10q0 -66 -24 -141z" />
<glyph unicode="&#xc4;" horiz-adv-x="1312" d="M23 39l548 1386q12 35 52 35h61q41 0 53 -33l549 -1388q16 -39 -29 -39h-59q-63 0 -74 37l-153 389h-641l-154 -389q-10 -37 -72 -37h-55q-43 0 -26 39zM373 549h557l-246 629q-29 82 -29 141h-10q0 -66 -24 -141zM381 1688v16q0 66 68 65h12q68 0 67 -65v-16 q0 -66 -67 -66h-12q-68 0 -68 66zM778 1688v16q0 66 68 65h12q68 0 68 -65v-16q0 -66 -68 -66h-12q-68 0 -68 66z" />
<glyph unicode="&#xc5;" horiz-adv-x="1312" d="M23 39l540 1368q-131 43 -131 188q1 99 62 158t163 59q98 0 160 -59q59 -59 60 -158q0 -152 -132 -190l541 -1366q16 -39 -29 -39h-59q-63 0 -74 37l-153 389h-641l-154 -389q-10 -37 -72 -37h-55q-43 0 -26 39zM373 549h557l-246 629q-29 82 -29 141h-10q0 -66 -24 -141 zM518 1595q0 -133 139 -133q59 0 97 37q37 37 37 96q0 60 -37 97t-97 37q-139 0 -139 -134z" />
<glyph unicode="&#xc6;" horiz-adv-x="1701" d="M-6 39l848 1380q25 35 53 35h661q41 0 41 -41v-57q0 -41 -41 -41h-548v-510h456q39 0 39 -41v-57q0 -41 -39 -41h-456v-527h575q39 0 39 -41v-57q0 -41 -39 -41h-680q-41 0 -41 41v317h-510l-194 -321q-20 -37 -74 -37h-64q-43 0 -26 39zM426 481h436v725z" />
<glyph unicode="&#xc7;" horiz-adv-x="1302" d="M117 485v484q0 242 143 377q145 137 418 137q434 0 545 -350q12 -39 -25 -54l-63 -22q-39 -10 -54 24q-82 264 -403 265q-201 0 -307 -99q-104 -98 -105 -276v-488q0 -176 105 -274q109 -100 307 -100q324 0 407 270q16 37 54 27l63 -25q37 -14 25 -51 q-109 -348 -520 -359l-45 -123q23 6 51 7q82 0 131 -45q47 -45 43 -119q-12 -195 -244 -195q-98 0 -164 39q-25 14 -24 41v39q0 27 20 14q68 -47 152 -47q141 0 141 115q0 86 -123 86q-41 0 -67 -8q-37 -4 -23 35l66 161q-242 14 -375 152q-129 135 -129 362z" />
<glyph unicode="&#xc8;" horiz-adv-x="1173" d="M160 41v1372q0 41 41 41h829q39 0 39 -41v-57q0 -41 -39 -41h-723v-508h631q39 0 39 -41v-57q0 -41 -39 -41h-631v-529h750q39 0 39 -41v-57q0 -41 -39 -41h-856q-41 0 -41 41zM399 1788l29 37q25 29 70 2l336 -199q27 -12 4 -41l-19 -22q-14 -16 -49 -2l-367 182 q-29 12 -4 43z" />
<glyph unicode="&#xc9;" horiz-adv-x="1173" d="M160 41v1372q0 41 41 41h829q39 0 39 -41v-57q0 -41 -39 -41h-723v-508h631q39 0 39 -41v-57q0 -41 -39 -41h-631v-529h750q39 0 39 -41v-57q0 -41 -39 -41h-856q-41 0 -41 41zM399 1591q-23 29 4 41l330 207q47 23 70 -4l31 -37q25 -31 -7 -43l-360 -190q-35 -12 -49 4z " />
<glyph unicode="&#xca;" horiz-adv-x="1173" d="M160 41v1372q0 41 41 41h829q39 0 39 -41v-57q0 -41 -39 -41h-723v-508h631q39 0 39 -41v-57q0 -41 -39 -41h-631v-529h750q39 0 39 -41v-57q0 -41 -39 -41h-856q-41 0 -41 41zM287 1591l250 221q35 33 73 33h17q37 0 69 -33l250 -221q33 -29 -18 -28h-56q-41 0 -61 20 l-195 168l-200 -168q-20 -20 -58 -20h-53q-51 0 -18 28z" />
<glyph unicode="&#xcb;" horiz-adv-x="1173" d="M160 41v1372q0 41 41 41h829q39 0 39 -41v-57q0 -41 -39 -41h-723v-508h631q39 0 39 -41v-57q0 -41 -39 -41h-631v-529h750q39 0 39 -41v-57q0 -41 -39 -41h-856q-41 0 -41 41zM344 1688v16q0 66 66 65h14q66 0 65 -65v-16q0 -66 -65 -66h-14q-66 0 -66 66zM739 1688v16 q0 66 70 65h12q66 0 66 -65v-16q0 -66 -66 -66h-12q-70 0 -70 66z" />
<glyph unicode="&#xcc;" horiz-adv-x="466" d="M14 1788l29 37q25 29 70 2l336 -199q27 -12 4 -41l-19 -22q-14 -16 -49 -2l-367 182q-29 12 -4 43zM156 41v1372q0 41 41 41h67q41 0 41 -41v-1372q0 -41 -41 -41h-67q-41 0 -41 41z" />
<glyph unicode="&#xcd;" horiz-adv-x="466" d="M16 1591q-25 27 2 41l332 207q47 23 70 -4l31 -37q25 -31 -7 -43l-362 -190q-35 -12 -47 4zM158 41v1372q0 41 41 41h67q39 0 39 -41v-1372q0 -41 -39 -41h-67q-41 0 -41 41z" />
<glyph unicode="&#xce;" horiz-adv-x="466" d="M-96 1591l252 221q33 33 73 33h15q39 0 71 -33l250 -221q29 -29 -18 -28h-55q-43 0 -62 20l-197 168l-198 -168q-23 -20 -60 -20h-53q-47 0 -18 28zM160 41v1372q0 41 41 41h67q39 0 39 -41v-1372q0 -41 -39 -41h-67q-41 0 -41 41z" />
<glyph unicode="&#xcf;" horiz-adv-x="466" d="M-39 1688v16q0 66 68 65h12q68 0 68 -65v-16q0 -66 -68 -66h-12q-68 0 -68 66zM160 41v1372q0 41 41 41h67q39 0 39 -41v-1372q0 -41 -39 -41h-67q-41 0 -41 41zM358 1688v16q0 66 68 65h12q68 0 68 -65v-16q0 -66 -68 -66h-12q-68 0 -68 66z" />
<glyph unicode="&#xd0;" horiz-adv-x="1359" d="M4 717v43q0 29 29 28h149v625q0 41 41 41h432q283 0 441 -145q154 -143 153 -396v-372q0 -252 -153 -396q-158 -145 -441 -145h-432q-41 0 -41 41v647h-149q-29 0 -29 29zM332 139h325q213 0 330 105q115 104 115 297v372q0 193 -115 297t-330 105h-325v-527h352 q27 0 27 -28v-43q0 -29 -27 -29h-352v-549z" />
<glyph unicode="&#xd1;" horiz-adv-x="1415" d="M160 41v1372q0 41 41 41h65q29 0 43 -20l637 -920q47 -68 109 -182q59 -106 73 -127h7q0 20 -13 153q-12 135 -12 228v829q0 39 41 39h63q41 0 41 -41v-1372q0 -41 -41 -41h-65q-31 0 -43 23l-653 938q-43 63 -99 172q-55 106 -65 120h-8q0 -16 12 -145q10 -129 10 -217 v-850q0 -41 -39 -41h-63q-41 0 -41 41zM387 1602q0 205 160 204q78 0 166 -67q88 -70 137 -70q82 0 82 113q0 25 22 24h41q23 0 23 -24q0 -205 -160 -205q-74 0 -162 70q-86 68 -137 67q-82 0 -82 -112q0 -25 -24 -25h-41q-25 0 -25 25z" />
<glyph unicode="&#xd2;" d="M117 485v484q0 242 143 377q147 137 420 137q270 0 418 -137q143 -135 143 -377v-484q0 -242 -143 -376q-147 -137 -418 -138q-272 0 -420 138q-143 135 -143 376zM264 485q0 -180 107 -276q109 -100 309 -100q201 0 307 100q106 96 107 276v484q0 180 -107 278 q-106 98 -307 99q-201 0 -309 -99q-106 -98 -107 -278v-484zM463 1808l31 37q23 27 69 2l336 -198q27 -14 2 -41l-18 -23q-12 -16 -49 -2l-365 182q-31 12 -6 43z" />
<glyph unicode="&#xd3;" d="M117 485v484q0 242 143 377q147 137 420 137q270 0 418 -137q143 -135 143 -377v-484q0 -242 -143 -376q-147 -137 -418 -138q-272 0 -420 138q-143 135 -143 376zM264 485q0 -180 107 -276q109 -100 309 -100q201 0 307 100q106 96 107 276v484q0 180 -107 278 q-106 98 -307 99q-201 0 -309 -99q-106 -98 -107 -278v-484zM465 1612q-25 27 2 41l332 207q47 23 69 -5l31 -36q25 -31 -6 -43l-363 -191q-35 -12 -47 4z" />
<glyph unicode="&#xd4;" d="M117 485v484q0 242 143 377q147 137 420 137q270 0 418 -137q143 -135 143 -377v-484q0 -242 -143 -376q-147 -137 -418 -138q-272 0 -420 138q-143 135 -143 376zM264 485q0 -180 107 -276q109 -100 309 -100q201 0 307 100q106 96 107 276v484q0 180 -107 278 q-106 98 -307 99q-201 0 -309 -99q-106 -98 -107 -278v-484zM350 1612l252 221q33 33 74 33h14q39 0 72 -33l250 -221q29 -29 -19 -29h-55q-43 0 -61 21l-197 168l-199 -168q-23 -20 -59 -21h-53q-47 0 -19 29z" />
<glyph unicode="&#xd5;" d="M117 485v484q0 242 143 377q147 137 420 137q270 0 418 -137q143 -135 143 -377v-484q0 -242 -143 -376q-147 -137 -418 -138q-272 0 -420 138q-143 135 -143 376zM264 485q0 -180 107 -276q109 -100 309 -100q201 0 307 100q106 96 107 276v484q0 180 -107 278 q-106 98 -307 99q-201 0 -309 -99q-106 -98 -107 -278v-484zM358 1622q0 205 160 205q78 0 166 -68q88 -70 137 -69q82 0 82 112q0 25 23 25h41q23 0 22 -25q0 -205 -160 -205q-74 0 -161 70q-86 68 -138 68q-82 0 -81 -113q0 -25 -25 -25h-41q-25 0 -25 25z" />
<glyph unicode="&#xd6;" d="M117 485v484q0 242 143 377q147 137 420 137q270 0 418 -137q143 -135 143 -377v-484q0 -242 -143 -376q-147 -137 -418 -138q-272 0 -420 138q-143 135 -143 376zM264 485q0 -180 107 -276q109 -100 309 -100q201 0 307 100q106 96 107 276v484q0 180 -107 278 q-106 98 -307 99q-201 0 -309 -99q-106 -98 -107 -278v-484zM408 1708v16q0 66 67 66h12q68 0 68 -66v-16q0 -66 -68 -66h-12q-68 0 -67 66zM805 1708v16q0 66 67 66h13q68 0 67 -66v-16q0 -66 -67 -66h-13q-68 0 -67 66z" />
<glyph unicode="&#xd7;" horiz-adv-x="1038" d="M133 313q-29 27 0 56l295 295l-295 297q-31 31 0 57l31 33q29 27 57 0l295 -297l297 297q31 27 57 0l33 -33q29 -27 0 -55l-299 -299l299 -295q27 -29 0 -58l-33 -32q-27 -27 -57 0l-297 296l-295 -294q-29 -29 -57 0z" />
<glyph unicode="&#xd8;" d="M117 485v484q0 242 143 377q147 137 420 137q231 0 369 -103l90 144q12 14 28 14h82q16 0 8 -14l-133 -207q117 -129 117 -348v-484q0 -242 -143 -376q-147 -135 -418 -138q-215 -2 -356 90l-86 -133q-8 -14 -31 -14h-78q-18 0 -8 14l123 197q-127 131 -127 360zM264 485 q0 -133 74 -217l631 989q-104 88 -289 89q-201 0 -309 -99q-106 -98 -107 -278v-484zM403 186q102 -78 277 -77q201 0 307 100q106 96 107 276v484q0 127 -62 200z" />
<glyph unicode="&#xd9;" horiz-adv-x="1396" d="M147 496v917q0 41 41 41h68q41 0 41 -41v-919q0 -385 401 -385t402 385v919q0 41 41 41h67q41 0 41 -41v-917q0 -246 -137 -383q-145 -143 -414 -144q-268 0 -413 144q-137 137 -138 383zM481 1788l31 37q23 27 70 2l336 -199q27 -14 2 -41l-19 -22q-12 -16 -49 -2 l-365 182q-31 12 -6 43z" />
<glyph unicode="&#xda;" horiz-adv-x="1396" d="M147 496v917q0 41 41 41h68q41 0 41 -41v-919q0 -385 401 -385t402 385v919q0 41 41 41h67q41 0 41 -41v-917q0 -246 -137 -383q-145 -143 -414 -144q-268 0 -413 144q-137 137 -138 383zM483 1591q-25 27 2 41l332 207q47 23 70 -4l31 -37q25 -31 -7 -43l-362 -190 q-35 -12 -47 4z" />
<glyph unicode="&#xdb;" horiz-adv-x="1396" d="M147 496v917q0 41 41 41h68q41 0 41 -41v-919q0 -385 401 -385t402 385v919q0 41 41 41h67q41 0 41 -41v-917q0 -246 -137 -383q-145 -143 -414 -144q-268 0 -413 144q-137 137 -138 383zM369 1591l252 221q33 33 73 33h15q39 0 71 -33l250 -221q29 -29 -18 -28h-56 q-43 0 -61 20l-197 168l-198 -168q-23 -20 -60 -20h-53q-47 0 -18 28z" />
<glyph unicode="&#xdc;" horiz-adv-x="1396" d="M147 496v917q0 41 41 41h68q41 0 41 -41v-919q0 -385 401 -385t402 385v919q0 41 41 41h67q41 0 41 -41v-917q0 -246 -137 -383q-145 -143 -414 -144q-268 0 -413 144q-137 137 -138 383zM426 1688v16q0 66 68 65h12q68 0 67 -65v-16q0 -66 -67 -66h-12q-68 0 -68 66z M823 1688v16q0 66 68 65h12q68 0 68 -65v-16q0 -66 -68 -66h-12q-68 0 -68 66z" />
<glyph unicode="&#xdd;" horiz-adv-x="1284" d="M35 1413q-27 41 20 41h84q57 0 78 -37l428 -674l432 674q20 37 78 37h78q47 0 20 -41l-534 -823v-549q0 -41 -41 -41h-68q-41 0 -41 41v551zM432 1591q-25 27 2 41l332 207q47 23 70 -4l30 -37q25 -31 -6 -43l-362 -190q-35 -12 -47 4z" />
<glyph unicode="&#xde;" horiz-adv-x="1269" d="M160 41v1372q0 41 41 41h67q39 0 39 -41v-203h420q221 0 352 -127t131 -348q0 -219 -131 -346q-129 -127 -352 -127h-420v-221q0 -41 -39 -41h-67q-41 0 -41 41zM307 401h408q158 0 250 91q92 90 92 243q0 154 -92 246q-94 92 -250 92h-408v-672z" />
<glyph unicode="&#xdf;" horiz-adv-x="1124" d="M137 41v1040q0 207 107 330q113 125 313 125q430 0 430 -412q0 -246 -186 -325v-6q240 -74 239 -373q0 -420 -422 -420h-165q-41 0 -41 41v55q0 41 41 41h151q287 0 287 297q0 131 -72 207q-74 76 -203 76h-159q-39 0 -39 41v53q0 41 39 41h149q117 0 180 84 q55 72 56 176q0 287 -285 287q-135 0 -211 -86q-72 -84 -72 -232v-1040q0 -41 -41 -41h-55q-41 0 -41 41z" />
<glyph unicode="&#xe0;" horiz-adv-x="1048" d="M76 289q0 174 104 248q102 70 346 69q84 0 269 -20v94q0 281 -277 281q-203 0 -287 -150q-23 -31 -51 -16l-49 20q-39 14 -20 53q114 215 411 215q410 0 410 -405v-537q0 -86 -74 -116q-123 -53 -340 -54q-254 0 -354 82q-88 72 -88 236zM217 291q0 -104 55 -152 q66 -53 236 -53q156 0 248 33q39 16 39 59v295q-184 18 -283 19q-162 0 -229 -48q-66 -47 -66 -153zM303 1434l29 36q23 27 69 5l332 -207q27 -12 4 -41l-20 -23q-12 -16 -47 -4l-363 191q-29 12 -4 43z" />
<glyph unicode="&#xe1;" horiz-adv-x="1048" d="M76 289q0 174 104 248q102 70 346 69q84 0 269 -20v94q0 281 -277 281q-203 0 -287 -150q-23 -31 -51 -16l-49 20q-39 14 -20 53q114 215 411 215q410 0 410 -405v-537q0 -86 -74 -116q-123 -53 -340 -54q-254 0 -354 82q-88 72 -88 236zM217 291q0 -104 55 -152 q66 -53 236 -53q156 0 248 33q39 16 39 59v295q-184 18 -283 19q-162 0 -229 -48q-66 -47 -66 -153zM301 1227q-23 27 2 41l332 207q47 23 70 -5l30 -36q25 -31 -6 -43l-360 -191q-35 -12 -50 4z" />
<glyph unicode="&#xe2;" horiz-adv-x="1048" d="M76 289q0 174 104 248q102 70 346 69q84 0 269 -20v94q0 281 -277 281q-203 0 -287 -150q-23 -31 -51 -16l-49 20q-39 14 -20 53q114 215 411 215q410 0 410 -405v-537q0 -86 -74 -116q-123 -53 -340 -54q-254 0 -354 82q-88 72 -88 236zM186 1219l252 219q35 35 74 35 h16q35 0 70 -35l250 -219q31 -31 -19 -31h-55q-41 0 -61 20l-197 170l-199 -170q-20 -20 -57 -20h-53q-47 0 -21 31zM217 291q0 -104 55 -152q66 -53 236 -53q156 0 248 33q39 16 39 59v295q-184 18 -283 19q-162 0 -229 -48q-66 -47 -66 -153z" />
<glyph unicode="&#xe3;" horiz-adv-x="1048" d="M76 289q0 174 104 248q102 70 346 69q84 0 269 -20v94q0 281 -277 281q-203 0 -287 -150q-23 -31 -51 -16l-49 20q-39 14 -20 53q114 215 411 215q410 0 410 -405v-537q0 -86 -74 -116q-123 -53 -340 -54q-254 0 -354 82q-88 72 -88 236zM197 1241q0 205 157 205 q78 0 168 -68q88 -70 137 -69q80 0 80 112q0 25 23 25h41q25 0 24 -25q0 -205 -159 -204q-74 0 -162 69q-88 68 -139 68q-82 0 -82 -113q0 -25 -23 -24h-41q-25 0 -24 24zM217 291q0 -104 55 -152q66 -53 236 -53q156 0 248 33q39 16 39 59v295q-184 18 -283 19 q-162 0 -229 -48q-66 -47 -66 -153z" />
<glyph unicode="&#xe4;" horiz-adv-x="1048" d="M76 289q0 174 104 248q102 70 346 69q84 0 269 -20v94q0 281 -277 281q-203 0 -287 -150q-23 -31 -51 -16l-49 20q-39 14 -20 53q114 215 411 215q410 0 410 -405v-537q0 -86 -74 -116q-123 -53 -340 -54q-254 0 -354 82q-88 72 -88 236zM217 291q0 -104 55 -152 q66 -53 236 -53q156 0 248 33q39 16 39 59v295q-184 18 -283 19q-162 0 -229 -48q-66 -47 -66 -153zM246 1325v16q0 66 65 66h13q68 0 67 -66v-16q0 -68 -67 -68h-13q-66 0 -65 68zM641 1325v16q0 66 70 66h10q68 0 67 -66v-16q0 -68 -67 -68h-10q-70 0 -70 68z" />
<glyph unicode="&#xe5;" horiz-adv-x="1048" d="M76 289q0 174 104 248q102 70 346 69q84 0 269 -20v94q0 281 -277 281q-203 0 -287 -150q-23 -31 -51 -16l-49 20q-39 14 -20 53q114 215 411 215q410 0 410 -405v-537q0 -86 -74 -116q-123 -53 -340 -54q-254 0 -354 82q-88 72 -88 236zM217 291q0 -104 55 -152 q66 -53 236 -53q156 0 248 33q39 16 39 59v295q-184 18 -283 19q-162 0 -229 -48q-66 -47 -66 -153zM315 1395q1 90 58 145t151 55q92 0 148 -55q55 -55 55 -145t-55 -146q-55 -55 -148 -55q-94 0 -151 55t-58 146zM389 1395q0 -129 135 -129q129 0 129 129t-129 129 q-135 0 -135 -129z" />
<glyph unicode="&#xe6;" horiz-adv-x="1613" d="M78 285q0 176 94 247q94 70 320 70q115 0 225 -18v112q0 127 -43 189q-53 76 -193 76q-164 0 -248 -148q-20 -31 -51 -18l-49 20q-39 18 -20 53q114 215 372 215q236 0 310 -178q88 178 329 178q406 0 406 -421v-115q0 -57 -62 -58h-612v-120q0 -279 262 -279 q176 0 271 168q25 33 61 14l41 -24q41 -18 14 -58q-121 -219 -387 -219q-205 0 -295 123q-106 -123 -340 -123q-231 0 -323 80q-82 70 -82 234zM217 287q0 -104 49 -150q57 -51 205 -51q217 0 260 113q-14 57 -14 135v135q-137 20 -242 20q-145 0 -203 -49q-55 -45 -55 -153 zM856 596h537v74q0 295 -269 295q-268 0 -268 -295v-74z" />
<glyph unicode="&#xe7;" horiz-adv-x="1052" d="M100 375v305q0 190 111 295q115 109 336 108q344 0 428 -276q12 -39 -25 -53l-53 -19q-37 -12 -51 25q-63 201 -303 201q-305 0 -305 -277v-313q0 -279 305 -279q240 0 305 211q14 35 53 25l53 -17q39 -14 25 -53q-84 -266 -389 -285l-47 -125q23 6 53 7q82 0 131 -45 q47 -45 43 -119q-12 -195 -244 -195q-98 0 -164 39q-25 14 -24 41v39q0 27 20 14q68 -47 152 -47q141 0 141 115q0 86 -123 86q-41 0 -67 -8q-37 -2 -23 35l66 161q-403 18 -404 404z" />
<glyph unicode="&#xe8;" horiz-adv-x="1085" d="M96 385v266q0 205 115 318q117 115 338 114q223 0 342 -118q113 -113 113 -306v-112q0 -57 -62 -58h-709v-118q0 -281 308 -281q227 0 321 170q25 33 60 14l43 -22q39 -20 14 -59q-123 -221 -438 -222q-223 0 -338 115q-106 106 -107 299zM233 596h633v72q0 297 -317 297 q-154 0 -236 -80q-80 -78 -80 -217v-72zM336 1436l29 37q25 29 69 2l332 -205q25 -14 4 -41l-20 -25q-14 -16 -48 -2l-362 189q-29 14 -4 45z" />
<glyph unicode="&#xe9;" horiz-adv-x="1085" d="M96 385v266q0 205 115 318q117 115 338 114q223 0 342 -118q113 -113 113 -306v-112q0 -57 -62 -58h-709v-118q0 -281 308 -281q227 0 321 170q25 33 60 14l43 -22q39 -20 14 -59q-123 -221 -438 -222q-223 0 -338 115q-106 106 -107 299zM233 596h633v72q0 297 -317 297 q-154 0 -236 -80q-80 -78 -80 -217v-72zM334 1229q-20 27 2 41l332 205q45 25 69 -2l31 -37q25 -31 -6 -45l-361 -189q-33 -14 -49 2z" />
<glyph unicode="&#xea;" horiz-adv-x="1085" d="M96 385v266q0 205 115 318q117 115 338 114q223 0 342 -118q113 -113 113 -306v-112q0 -57 -62 -58h-709v-118q0 -281 308 -281q227 0 321 170q25 33 60 14l43 -22q39 -20 14 -59q-123 -221 -438 -222q-223 0 -338 115q-106 106 -107 299zM227 1217l246 215q33 33 72 32 h16q33 0 68 -32l245 -215q27 -31 -18 -31h-55q-39 0 -60 20l-192 166l-195 -166q-20 -20 -57 -20h-51q-45 0 -19 31zM233 596h633v72q0 297 -317 297q-154 0 -236 -80q-80 -78 -80 -217v-72z" />
<glyph unicode="&#xeb;" horiz-adv-x="1085" d="M96 385v266q0 205 115 318q117 115 338 114q223 0 342 -118q113 -113 113 -306v-112q0 -57 -62 -58h-709v-118q0 -281 308 -281q227 0 321 170q25 33 60 14l43 -22q39 -20 14 -59q-123 -221 -438 -222q-223 0 -338 115q-106 106 -107 299zM233 596h633v72q0 297 -317 297 q-154 0 -236 -80q-80 -78 -80 -217v-72zM279 1325v16q0 68 65 68h12q68 0 68 -68v-16q0 -66 -68 -65h-12q-66 0 -65 65zM674 1325v16q0 68 69 68h11q68 0 67 -68v-16q0 -66 -67 -65h-11q-70 0 -69 65z" />
<glyph unicode="&#xec;" horiz-adv-x="407" d="M23 1427l30 37q23 31 68 4l266 -200q25 -16 4 -41l-18 -23q-10 -18 -47 -2l-297 182q-31 12 -6 43zM131 37v979q0 37 37 37h65q37 0 37 -37v-979q0 -37 -37 -37h-65q-37 0 -37 37z" />
<glyph unicode="&#xed;" horiz-adv-x="407" d="M14 1225q-20 27 4 43l267 200q45 27 67 -4l31 -37q25 -31 -8 -43l-295 -184q-37 -16 -49 2zM131 37v979q0 37 37 37h63q37 0 37 -37v-979q0 -37 -37 -37h-63q-37 0 -37 37z" />
<glyph unicode="&#xee;" horiz-adv-x="407" d="M-66 1227l191 207q29 33 72 32h14q39 0 68 -32l188 -207q25 -29 -18 -29h-50q-47 0 -61 21l-137 157l-142 -157q-12 -20 -57 -21h-47q-41 0 -21 29zM133 37v979q0 37 37 37h63q37 0 37 -37v-979q0 -37 -37 -37h-63q-37 0 -37 37z" />
<glyph unicode="&#xef;" horiz-adv-x="407" d="M-25 1348v16q0 66 68 66h12q68 0 68 -66v-16q0 -66 -68 -66h-12q-68 0 -68 66zM135 37v979q0 37 37 37h64q37 0 36 -37v-979q0 -37 -36 -37h-64q-37 0 -37 37zM283 1348v16q0 66 69 66h13q68 0 67 -66v-16q0 -66 -67 -66h-13q-70 0 -69 66z" />
<glyph unicode="&#xf0;" horiz-adv-x="1128" d="M98 367v268q0 186 113 293q113 106 315 106q262 0 346 -162q-6 276 -139 396l-135 -144q-14 -14 -31 -2l-35 27q-16 14 -2 31l127 135q-127 78 -358 78q-39 0 -39 34l-2 54q0 39 37 39q287 0 453 -101l104 111q12 16 31 0l37 -27q16 -14 2 -30l-99 -105 q180 -162 181 -551v-450q0 -188 -115 -291q-117 -104 -336 -105q-223 0 -340 105q-115 102 -115 291zM238 369q0 -272 315 -273q313 0 313 273v268q0 272 -313 272q-315 0 -315 -274v-266z" />
<glyph unicode="&#xf1;" horiz-adv-x="1124" d="M131 37v864q0 80 78 113q170 69 381 69q408 0 407 -401v-645q0 -37 -36 -37h-64q-37 0 -37 37v641q0 279 -287 278q-145 0 -272 -45q-31 -14 -31 -51v-823q0 -37 -37 -37h-65q-37 0 -37 37zM240 1243q0 203 159 203q78 0 166 -68q88 -70 137 -69q80 0 80 112q0 25 25 25 h39q25 0 24 -25q0 -203 -159 -202q-74 0 -162 69q-88 68 -139 68q-82 0 -82 -113q0 -25 -23 -24h-41q-25 0 -24 24z" />
<glyph unicode="&#xf2;" horiz-adv-x="1103" d="M102 346v361q0 176 121 276q119 100 328 100q211 0 332 -100t121 -276v-361q0 -176 -121 -274q-121 -100 -332 -101q-209 0 -328 101q-121 100 -121 274zM240 346q0 -117 86 -182q84 -68 225 -68q145 0 229 68q84 66 84 182v361q0 117 -84 184q-84 68 -229 67 q-143 0 -225 -67q-86 -68 -86 -184v-361zM336 1434l31 36q23 27 69 5l332 -207q27 -14 2 -41l-18 -23q-12 -16 -50 -4l-360 191q-31 12 -6 43z" />
<glyph unicode="&#xf3;" horiz-adv-x="1103" d="M102 346v361q0 176 121 276q119 100 328 100q211 0 332 -100t121 -276v-361q0 -176 -121 -274q-121 -100 -332 -101q-209 0 -328 101q-121 100 -121 274zM240 346q0 -117 86 -182q84 -68 225 -68q145 0 229 68q84 66 84 182v361q0 117 -84 184q-84 68 -229 67 q-143 0 -225 -67q-86 -68 -86 -184v-361zM336 1227q-25 27 2 41l332 207q47 23 69 -5l31 -36q25 -31 -6 -43l-361 -191q-37 -12 -49 4z" />
<glyph unicode="&#xf4;" horiz-adv-x="1103" d="M102 346v361q0 176 121 276q119 100 328 100q211 0 332 -100t121 -276v-361q0 -176 -121 -274q-121 -100 -332 -101q-209 0 -328 101q-121 100 -121 274zM229 1214l246 216q33 33 72 32h14q37 0 70 -32l243 -216q29 -29 -18 -28h-53q-41 0 -60 20l-192 164l-195 -164 q-23 -20 -57 -20h-53q-49 0 -17 28zM240 346q0 -117 86 -182q84 -68 225 -68q145 0 229 68q84 66 84 182v361q0 117 -84 184q-84 68 -229 67q-143 0 -225 -67q-86 -68 -86 -184v-361z" />
<glyph unicode="&#xf5;" horiz-adv-x="1103" d="M102 346v361q0 176 121 276q119 100 328 100q211 0 332 -100t121 -276v-361q0 -176 -121 -274q-121 -100 -332 -101q-209 0 -328 101q-121 100 -121 274zM229 1241q0 205 160 205q78 0 166 -68q88 -70 137 -69q82 0 82 112q0 25 23 25h41q25 0 24 -25q0 -205 -160 -204 q-74 0 -161 69q-88 68 -140 68q-82 0 -82 -113q0 -25 -24 -24h-41q-25 0 -25 24zM240 346q0 -117 86 -182q84 -68 225 -68q145 0 229 68q84 66 84 182v361q0 117 -84 184q-84 68 -229 67q-143 0 -225 -67q-86 -68 -86 -184v-361z" />
<glyph unicode="&#xf6;" horiz-adv-x="1103" d="M102 346v361q0 176 121 276q119 100 328 100q211 0 332 -100t121 -276v-361q0 -176 -121 -274q-121 -100 -332 -101q-209 0 -328 101q-121 100 -121 274zM240 346q0 -117 86 -182q84 -68 225 -68q145 0 229 68q84 66 84 182v361q0 117 -84 184q-84 68 -229 67 q-143 0 -225 -67q-86 -68 -86 -184v-361zM279 1325v16q0 66 67 66h12q68 0 68 -66v-16q0 -68 -68 -68h-12q-68 0 -67 68zM676 1325v16q0 66 67 66h13q68 0 67 -66v-16q0 -68 -67 -68h-13q-68 0 -67 68z" />
<glyph unicode="&#xf7;" horiz-adv-x="1183" d="M111 639v51q0 41 39 41h884q39 0 39 -41v-51q0 -41 -39 -41h-884q-39 0 -39 41zM506 260v14q0 80 80 80h12q82 0 82 -80v-14q0 -82 -82 -82h-12q-47 0 -64 17q-16 18 -16 65zM506 1059v14q0 82 80 82h12q82 0 82 -82v-14q0 -80 -82 -80h-12q-80 0 -80 80z" />
<glyph unicode="&#xf8;" horiz-adv-x="1103" d="M102 346v361q0 176 121 276q119 100 328 100q158 0 268 -61l62 96q10 12 26 12h60q16 0 6 -14l-86 -137q117 -100 117 -272v-361q0 -176 -121 -274q-121 -100 -332 -101q-158 0 -266 60l-56 -90q-10 -12 -28 -13h-58q-20 0 -6 15l82 131q-117 100 -117 272zM240 346 q0 -88 61 -143l449 708q-84 47 -199 47q-143 0 -225 -67q-86 -68 -86 -184v-361zM356 143q78 -47 195 -47q145 0 229 68q84 66 84 182v361q0 88 -59 143z" />
<glyph unicode="&#xf9;" horiz-adv-x="1124" d="M127 371v645q0 37 37 37h63q37 0 37 -37v-639q0 -281 287 -281q154 0 266 45q37 16 37 58v817q0 37 37 37h65q37 0 37 -37v-864q0 -80 -78 -113q-164 -68 -383 -68q-406 0 -405 400zM344 1434l31 36q23 27 69 5l332 -207q27 -14 2 -41l-18 -23q-12 -16 -49 -4l-361 191 q-31 12 -6 43z" />
<glyph unicode="&#xfa;" horiz-adv-x="1124" d="M127 371v645q0 37 37 37h63q37 0 37 -37v-639q0 -281 287 -281q154 0 266 45q37 16 37 58v817q0 37 37 37h65q37 0 37 -37v-864q0 -80 -78 -113q-164 -68 -383 -68q-406 0 -405 400zM344 1227q-25 27 2 41l332 207q47 23 70 -5l30 -36q25 -31 -6 -43l-360 -191 q-37 -12 -50 4z" />
<glyph unicode="&#xfb;" horiz-adv-x="1124" d="M127 371v645q0 37 37 37h63q37 0 37 -37v-639q0 -281 287 -281q154 0 266 45q37 16 37 58v817q0 37 37 37h65q37 0 37 -37v-864q0 -80 -78 -113q-164 -68 -383 -68q-406 0 -405 400zM229 1219l252 219q35 35 74 35h16q35 0 70 -35l250 -219q27 -31 -19 -31h-55 q-43 0 -61 20l-197 170l-199 -170q-23 -20 -59 -20h-53q-45 0 -19 31z" />
<glyph unicode="&#xfc;" horiz-adv-x="1124" d="M127 371v645q0 37 37 37h63q37 0 37 -37v-639q0 -281 287 -281q154 0 266 45q37 16 37 58v817q0 37 37 37h65q37 0 37 -37v-864q0 -80 -78 -113q-164 -68 -383 -68q-406 0 -405 400zM287 1325v16q0 66 67 66h13q68 0 67 -66v-16q0 -68 -67 -68h-13q-68 0 -67 68z M684 1325v16q0 66 68 66h12q68 0 67 -66v-16q0 -68 -67 -68h-12q-68 0 -68 68z" />
<glyph unicode="&#xfd;" horiz-adv-x="1128" d="M127 397v619q0 37 37 37h63q37 0 37 -37v-613q0 -281 287 -280q131 0 303 55v838q0 37 37 37h65q37 0 37 -37v-1079q0 -442 -436 -443q-289 0 -407 219q-25 41 14 62l45 22q37 20 59 -14q88 -164 287 -164q299 0 299 311v121q-180 -53 -322 -53q-406 0 -405 399z M344 1227q-25 27 2 41l332 207q47 23 70 -5l30 -36q25 -31 -6 -43l-360 -191q-37 -12 -50 4z" />
<glyph unicode="&#xfe;" horiz-adv-x="1103" d="M137 -414v1893q0 37 37 37h64q37 0 36 -37v-463q160 57 304 57q426 0 426 -409v-287q0 -408 -422 -408q-143 0 -308 72v-455q0 -37 -36 -37h-64q-37 0 -37 37zM274 166q172 -72 299 -72q291 0 291 287v278q0 287 -305 287q-127 0 -285 -61v-719z" />
<glyph unicode="&#xff;" horiz-adv-x="1128" d="M127 397v619q0 37 37 37h63q37 0 37 -37v-613q0 -281 287 -280q131 0 303 55v838q0 37 37 37h65q37 0 37 -37v-1079q0 -442 -436 -443q-289 0 -407 219q-25 41 14 62l45 22q37 20 59 -14q88 -164 287 -164q299 0 299 311v121q-180 -53 -322 -53q-406 0 -405 399z M287 1325v16q0 66 67 66h13q68 0 67 -66v-16q0 -68 -67 -68h-13q-68 0 -67 68zM684 1325v16q0 66 68 66h12q68 0 67 -66v-16q0 -68 -67 -68h-12q-68 0 -68 68z" />
<glyph unicode="&#x100;" horiz-adv-x="1312" d="M23 39l548 1386q12 35 52 35h61q41 0 53 -33l549 -1388q16 -39 -29 -39h-59q-63 0 -74 37l-153 389h-641l-154 -389q-10 -37 -72 -37h-55q-43 0 -26 39zM373 549h557l-246 629q-29 82 -29 141h-10q0 -66 -24 -141zM377 1673v33q0 35 35 35h483q35 0 35 -35v-33 q0 -35 -35 -35h-483q-35 0 -35 35z" />
<glyph unicode="&#x101;" horiz-adv-x="1048" d="M76 289q0 174 104 248q102 70 346 69q84 0 269 -20v94q0 281 -277 281q-203 0 -287 -150q-23 -31 -51 -16l-49 20q-39 14 -20 53q114 215 411 215q410 0 410 -405v-537q0 -86 -74 -116q-123 -53 -340 -54q-254 0 -354 82q-88 72 -88 236zM217 291q0 -104 55 -152 q66 -53 236 -53q156 0 248 33q39 16 39 59v295q-184 18 -283 19q-162 0 -229 -48q-66 -47 -66 -153zM242 1307v32q0 35 34 35h482q35 0 35 -35v-32q0 -35 -35 -35h-482q-35 0 -34 35z" />
<glyph unicode="&#x102;" horiz-adv-x="1312" d="M23 39l548 1386q12 35 52 35h61q41 0 53 -33l549 -1388q16 -39 -29 -39h-59q-63 0 -74 37l-153 389h-641l-154 -389q-10 -37 -72 -37h-55q-43 0 -26 39zM344 1784q-8 27 16 37l50 18q29 8 39 -14q43 -160 204 -160q162 0 207 160q10 23 33 14l55 -18q25 -10 17 -37 q-68 -221 -312 -221q-242 0 -309 221zM373 549h557l-246 629q-29 82 -29 141h-10q0 -66 -24 -141z" />
<glyph unicode="&#x103;" horiz-adv-x="1048" d="M76 289q0 174 104 248q102 70 346 69q84 0 269 -20v94q0 281 -277 281q-203 0 -287 -150q-23 -31 -51 -16l-49 20q-39 14 -20 53q114 215 411 215q410 0 410 -405v-537q0 -86 -74 -116q-123 -53 -340 -54q-254 0 -354 82q-88 72 -88 236zM207 1417q-8 23 18 35l49 18 q27 8 37 -14q45 -158 205 -158q162 0 207 158q10 23 33 17l55 -21q27 -12 16 -35q-65 -223 -311 -223q-242 0 -309 223zM217 291q0 -104 55 -152q66 -53 236 -53q156 0 248 33q39 16 39 59v295q-184 18 -283 19q-162 0 -229 -48q-66 -47 -66 -153z" />
<glyph unicode="&#x104;" horiz-adv-x="1310" d="M23 39l548 1386q12 35 52 35h63q41 0 51 -33l547 -1386q12 -25 -2 -39q-104 -88 -160 -190q-51 -98 -32 -154q20 -59 77 -59q61 0 107 45q18 14 24 -6l17 -41q8 -18 -4 -29q-74 -74 -185 -74q-129 0 -155 107q-57 190 205 405q-41 2 -54 37l-153 393h-633l-158 -399 q-12 -37 -74 -37h-53q-45 0 -28 39zM379 561h545l-154 406q-27 76 -65 200q-35 117 -48 150h-10q-14 -33 -47 -150q-37 -125 -65 -198z" />
<glyph unicode="&#x105;" horiz-adv-x="1054" d="M76 289q0 174 104 248q102 70 346 69q84 0 269 -20v94q0 281 -277 281q-203 0 -287 -150q-23 -31 -51 -16l-49 20q-39 14 -20 53q114 215 411 215q410 0 410 -405v-537q0 -66 -25 -90q-113 -109 -166 -227q-51 -109 -30 -166q18 -57 80 -57q59 0 104 45q16 12 25 -6 l16 -43q8 -16 -4 -29q-78 -74 -182 -74q-133 0 -158 107q-25 78 20 186q47 113 148 209q-98 -25 -242 -25q-254 0 -354 82q-88 72 -88 236zM217 291q0 -104 55 -152q66 -53 236 -53q156 0 248 33q39 16 39 59v295q-184 18 -283 19q-162 0 -229 -48q-66 -47 -66 -153z" />
<glyph unicode="&#x106;" horiz-adv-x="1302" d="M117 485v484q0 242 143 377q145 137 418 137q434 0 545 -350q12 -39 -25 -54l-63 -22q-39 -10 -54 24q-82 264 -403 265q-201 0 -307 -99q-104 -98 -105 -276v-488q0 -176 105 -274q109 -100 307 -100q324 0 407 270q16 37 54 27l63 -25q37 -14 25 -51 q-113 -358 -549 -359q-268 0 -416 138q-145 135 -145 376zM469 1591q-25 27 2 41l332 207q47 23 69 -4l31 -37q25 -31 -6 -43l-362 -190q-35 -12 -48 4z" />
<glyph unicode="&#x107;" horiz-adv-x="1054" d="M100 375v305q0 190 111 295q115 109 336 108q344 0 428 -276q12 -39 -25 -53l-53 -19q-37 -12 -51 25q-63 201 -303 201q-305 0 -305 -277v-313q0 -279 305 -279q240 0 305 211q14 35 53 25l53 -17q39 -14 25 -53q-94 -287 -440 -287q-215 0 -330 109q-109 104 -109 295z M332 1227q-23 27 2 41l332 207q47 23 69 -5l31 -36q25 -31 -6 -43l-361 -191q-35 -12 -49 4z" />
<glyph unicode="&#x108;" horiz-adv-x="1302" d="M117 485v484q0 242 143 377q145 137 418 137q434 0 545 -350q12 -39 -25 -54l-63 -22q-39 -10 -54 24q-82 264 -403 265q-201 0 -307 -99q-104 -98 -105 -276v-488q0 -176 105 -274q109 -100 307 -100q324 0 407 270q16 37 54 27l63 -25q37 -14 25 -51 q-113 -358 -549 -359q-268 0 -416 138q-145 135 -145 376zM354 1591l252 221q35 33 74 33h14q39 0 72 -33l250 -221q29 -29 -19 -28h-55q-43 0 -61 20l-197 168l-199 -168q-23 -20 -59 -20h-53q-47 0 -19 28z" />
<glyph unicode="&#x109;" horiz-adv-x="1054" d="M100 375v305q0 190 111 295q115 109 336 108q344 0 428 -276q12 -39 -25 -53l-53 -19q-37 -12 -51 25q-63 201 -303 201q-305 0 -305 -277v-313q0 -279 305 -279q240 0 305 211q14 35 53 25l53 -17q39 -14 25 -53q-94 -287 -440 -287q-215 0 -330 109q-109 104 -109 295z M225 1214l246 216q33 33 72 32h16q35 0 68 -32l245 -216q29 -29 -18 -28h-55q-41 0 -60 20l-192 164l-195 -164q-20 -20 -57 -20h-51q-47 0 -19 28z" />
<glyph unicode="&#x10a;" horiz-adv-x="1302" d="M117 485v484q0 242 143 377q145 137 418 137q434 0 545 -350q12 -39 -25 -54l-63 -22q-39 -10 -54 24q-82 264 -403 265q-201 0 -307 -99q-104 -98 -105 -276v-488q0 -176 105 -274q109 -100 307 -100q324 0 407 270q16 37 54 27l63 -25q37 -14 25 -51 q-113 -358 -549 -359q-268 0 -416 138q-145 135 -145 376zM610 1683v13q0 70 70 69h10q68 0 68 -69v-13q0 -68 -68 -67h-10q-70 0 -70 67z" />
<glyph unicode="&#x10b;" horiz-adv-x="1054" d="M100 375v305q0 190 111 295q115 109 336 108q344 0 428 -276q12 -39 -25 -53l-53 -19q-37 -12 -51 25q-63 201 -303 201q-305 0 -305 -277v-313q0 -279 305 -279q240 0 305 211q14 35 53 25l53 -17q39 -14 25 -53q-94 -287 -440 -287q-215 0 -330 109q-109 104 -109 295z M473 1319v10q0 70 70 70h10q70 0 70 -70v-10q0 -70 -70 -70h-10q-70 0 -70 70z" />
<glyph unicode="&#x10c;" horiz-adv-x="1302" d="M117 485v484q0 242 143 377q145 137 418 137q434 0 545 -350q12 -39 -25 -54l-63 -22q-39 -10 -54 24q-82 264 -403 265q-201 0 -307 -99q-104 -98 -105 -276v-488q0 -176 105 -274q109 -100 307 -100q324 0 407 270q16 37 54 27l63 -25q37 -14 25 -51 q-113 -358 -549 -359q-268 0 -416 138q-145 135 -145 376zM352 1815q-31 31 17 30h53q37 0 59 -20l199 -170l197 170q20 20 61 20h55q49 0 19 -30l-250 -220q-35 -35 -70 -34h-16q-39 0 -74 34z" />
<glyph unicode="&#x10d;" horiz-adv-x="1054" d="M100 375v305q0 190 111 295q115 109 336 108q344 0 428 -276q12 -39 -25 -53l-53 -19q-37 -12 -51 25q-63 201 -303 201q-305 0 -305 -277v-313q0 -279 305 -279q240 0 305 211q14 35 53 25l53 -17q39 -14 25 -53q-94 -287 -440 -287q-215 0 -330 109q-109 104 -109 295z M242 1411q-25 29 16 29h51q33 0 53 -21l183 -155l178 155q20 20 57 21h51q43 0 17 -31l-230 -203q-33 -31 -63 -30h-14q-37 0 -68 30z" />
<glyph unicode="&#x10e;" horiz-adv-x="1337" d="M160 41v1372q0 41 41 41h432q283 0 440 -145q154 -143 154 -396v-372q0 -252 -154 -396q-158 -145 -440 -145h-432q-41 0 -41 41zM303 1815q-31 31 19 30h53q37 0 57 -20l201 -170l194 170q20 20 62 20h55q49 0 19 -30l-250 -220q-35 -35 -70 -34h-16q-39 0 -74 34z M307 139h326q215 0 330 105q115 104 114 297v372q0 193 -114 297q-115 104 -330 105h-326v-1176z" />
<glyph unicode="&#x10f;" horiz-adv-x="1177" d="M102 381v293q0 410 404 409q152 0 323 -59v455q0 37 37 37h64q37 0 37 -37v-1336q0 -78 -80 -110q-145 -61 -355 -62q-430 0 -430 410zM240 383q0 -287 305 -287q137 0 246 39q39 16 38 53v707q-158 61 -299 61q-291 0 -290 -286v-287zM1118 1069l78 410q4 37 43 37h53 q45 0 33 -37l-106 -402q-10 -35 -39 -35h-37q-27 0 -25 27z" />
<glyph unicode="&#x110;" horiz-adv-x="1359" d="M4 717v43q0 29 29 28h149v625q0 41 41 41h432q283 0 441 -145q154 -143 153 -396v-372q0 -252 -153 -396q-158 -145 -441 -145h-432q-41 0 -41 41v647h-149q-29 0 -29 29zM332 139h325q213 0 330 105q115 104 115 297v372q0 193 -115 297t-330 105h-325v-527h352 q27 0 27 -28v-43q0 -29 -27 -29h-352v-549z" />
<glyph unicode="&#x111;" horiz-adv-x="1101" d="M104 381v293q0 408 406 407q162 0 321 -57v225h-311q-27 0 -26 29v33q0 29 26 28h311v140q0 37 37 37h66q37 0 37 -37v-140h137q27 0 27 -28v-33q0 -29 -27 -29h-137v-1106q0 -78 -82 -110q-145 -61 -354 -62q-430 0 -431 410zM242 383q0 -287 305 -287q139 0 248 39 q37 14 36 53v707q-158 61 -299 61q-291 0 -290 -286v-287z" />
<glyph unicode="&#x112;" horiz-adv-x="1173" d="M160 41v1372q0 41 41 41h829q39 0 39 -41v-57q0 -41 -39 -41h-723v-508h631q39 0 39 -41v-57q0 -41 -39 -41h-631v-529h750q39 0 39 -41v-57q0 -41 -39 -41h-856q-41 0 -41 41zM340 1673v33q0 35 35 35h481q37 0 37 -35v-33q0 -35 -37 -35h-481q-35 0 -35 35z" />
<glyph unicode="&#x113;" horiz-adv-x="1085" d="M96 385v266q0 205 115 318q117 115 338 114q223 0 342 -118q113 -113 113 -306v-112q0 -57 -62 -58h-709v-118q0 -281 308 -281q227 0 321 170q25 33 60 14l43 -22q39 -20 14 -59q-123 -221 -438 -222q-223 0 -338 115q-106 106 -107 299zM233 596h633v72q0 297 -317 297 q-154 0 -236 -80q-80 -78 -80 -217v-72zM297 1298v29q0 35 31 35h442q33 0 33 -35v-29q0 -35 -33 -34h-442q-31 0 -31 34z" />
<glyph unicode="&#x114;" horiz-adv-x="1173" d="M160 41v1372q0 41 41 41h829q39 0 39 -41v-57q0 -41 -39 -41h-723v-508h631q39 0 39 -41v-57q0 -41 -39 -41h-631v-529h750q39 0 39 -41v-57q0 -41 -39 -41h-856q-41 0 -41 41zM307 1784q-10 25 17 37l49 18q29 8 37 -14q45 -160 206 -160q160 0 205 160q10 23 33 14 l55 -18q27 -12 19 -37q-68 -221 -312 -221t-309 221z" />
<glyph unicode="&#x115;" horiz-adv-x="1085" d="M96 385v266q0 205 115 318q117 115 338 114q223 0 342 -118q113 -113 113 -306v-112q0 -57 -62 -58h-709v-118q0 -281 308 -281q227 0 321 170q25 33 60 14l43 -22q39 -20 14 -59q-123 -221 -438 -222q-223 0 -338 115q-106 106 -107 299zM233 596h633v72q0 297 -317 297 q-154 0 -236 -80q-80 -78 -80 -217v-72zM240 1417q-8 25 18 37l49 19q27 8 37 -15q45 -160 205 -160q162 0 207 160q10 23 32 15l56 -19q27 -12 16 -37q-63 -221 -311 -221q-242 0 -309 221z" />
<glyph unicode="&#x116;" horiz-adv-x="1173" d="M160 41v1372q0 41 41 41h829q39 0 39 -41v-57q0 -41 -39 -41h-723v-508h631q39 0 39 -41v-57q0 -41 -39 -41h-631v-529h750q39 0 39 -41v-57q0 -41 -39 -41h-856q-41 0 -41 41zM541 1683v13q0 70 69 69h11q70 0 69 -69v-13q0 -68 -69 -67h-11q-70 0 -69 67z" />
<glyph unicode="&#x117;" horiz-adv-x="1085" d="M96 385v266q0 205 115 318q117 115 338 114q223 0 342 -118q113 -113 113 -306v-112q0 -57 -62 -58h-709v-118q0 -281 308 -281q227 0 321 170q25 33 60 14l43 -22q39 -20 14 -59q-123 -221 -438 -222q-223 0 -338 115q-106 106 -107 299zM233 596h633v72q0 297 -317 297 q-154 0 -236 -80q-80 -78 -80 -217v-72zM475 1319v12q0 70 70 70h10q70 0 70 -70v-12q0 -70 -70 -70h-10q-70 0 -70 70z" />
<glyph unicode="&#x118;" horiz-adv-x="1173" d="M160 41v1372q0 41 41 41h829q39 0 39 -41v-57q0 -41 -39 -41h-723v-510h631q39 0 39 -41v-57q0 -41 -39 -41h-631v-527h750q39 0 39 -41v-57q0 -23 -13 -35q-256 -213 -206 -346q23 -55 79 -55q61 0 101 43q18 12 24 -6l17 -43q8 -18 -2 -27q-74 -74 -183 -74 q-127 0 -157 105q-27 82 30 188q57 111 185 209h-770q-41 0 -41 41z" />
<glyph unicode="&#x119;" horiz-adv-x="1085" d="M96 385v266q0 205 115 318q117 115 338 114q223 0 342 -118q113 -113 113 -306v-112q0 -57 -62 -58h-709v-118q0 -281 308 -281q227 0 321 170q25 33 60 14l43 -22q39 -20 14 -59q-31 -57 -80 -105q-109 -119 -168 -250q-55 -123 -35 -180q18 -59 82 -59q57 0 105 47 q16 12 22 -6l17 -43q8 -18 -2 -29q-80 -74 -185 -74q-129 0 -157 107q-47 166 165 403q-88 -33 -202 -33q-223 0 -338 115q-106 106 -107 299zM233 596h633v72q0 297 -317 297q-154 0 -236 -80q-80 -78 -80 -217v-72z" />
<glyph unicode="&#x11a;" horiz-adv-x="1173" d="M160 41v1372q0 41 41 41h829q39 0 39 -41v-57q0 -41 -39 -41h-723v-508h631q39 0 39 -41v-57q0 -41 -39 -41h-631v-529h750q39 0 39 -41v-57q0 -41 -39 -41h-856q-41 0 -41 41zM283 1815q-31 31 18 30h53q37 0 58 -20l200 -170l195 170q20 20 61 20h58q47 0 16 -30 l-250 -220q-35 -35 -69 -34h-17q-39 0 -71 34z" />
<glyph unicode="&#x11b;" horiz-adv-x="1085" d="M96 385v266q0 205 115 318q117 115 338 114q223 0 342 -118q113 -113 113 -306v-112q0 -57 -62 -58h-709v-118q0 -281 308 -281q227 0 321 170q25 33 60 14l43 -22q39 -20 14 -59q-123 -221 -438 -222q-223 0 -338 115q-106 106 -107 299zM233 596h633v72q0 297 -317 297 q-154 0 -236 -80q-80 -78 -80 -217v-72zM244 1411q-20 29 16 29h51q33 0 54 -19l182 -157l178 157q18 18 57 19h52q41 0 16 -29l-229 -203q-31 -31 -64 -30h-14q-37 0 -68 30z" />
<glyph unicode="&#x11c;" horiz-adv-x="1341" d="M117 487v482q0 242 143 377q145 137 418 137q434 0 545 -350q12 -39 -25 -54l-63 -22q-39 -10 -54 24q-82 264 -403 265q-203 0 -309 -99q-104 -98 -105 -276v-484q0 -180 107 -278q109 -100 309 -100q199 0 309 96q106 94 107 256v153h-396q-41 0 -41 41v58q0 41 41 41 h500q41 0 41 -41v-252q0 -225 -143 -355q-150 -135 -418 -135q-272 0 -420 140q-143 135 -143 376zM348 1612l252 221q35 33 74 33h16q37 0 70 -33l250 -221q33 -29 -19 -29h-55q-41 0 -62 21l-196 168l-199 -168q-20 -20 -57 -21h-53q-49 0 -21 29z" />
<glyph unicode="&#x11d;" horiz-adv-x="1097" d="M100 395v269q0 420 443 419q199 0 346 -61q49 -23 63 -41q14 -20 15 -72v-972q0 -442 -432 -443q-287 0 -406 219q-27 39 14 62l45 22q37 20 60 -14q88 -164 282 -164q299 0 299 311v127q-166 -61 -323 -61q-406 0 -406 399zM240 399q0 -276 282 -276q150 0 307 59v682 q0 37 -38 54q-105 38 -240 38q-311 0 -311 -294v-263zM240 1214l245 216q33 33 72 32h16q35 0 68 -32l246 -216q29 -29 -19 -28h-55q-41 0 -59 20l-191 164l-196 -164q-20 -20 -58 -20h-51q-47 0 -18 28z" />
<glyph unicode="&#x11e;" horiz-adv-x="1341" d="M117 487v482q0 242 143 377q145 137 418 137q434 0 545 -350q12 -39 -25 -54l-63 -22q-39 -10 -54 24q-82 264 -403 265q-203 0 -309 -99q-104 -98 -105 -276v-484q0 -180 107 -278q109 -100 309 -100q199 0 309 96q106 94 107 256v153h-396q-41 0 -41 41v58q0 41 41 41 h500q41 0 41 -41v-252q0 -225 -143 -355q-150 -135 -418 -135q-272 0 -420 140q-143 135 -143 376zM369 1804q-8 25 18 37l49 19q27 8 37 -15q45 -160 205 -159q162 0 207 159q10 23 33 15l55 -19q27 -12 16 -37q-63 -221 -311 -221q-242 0 -309 221z" />
<glyph unicode="&#x11f;" horiz-adv-x="1097" d="M100 395v269q0 420 443 419q199 0 346 -61q49 -23 63 -41q14 -20 15 -72v-972q0 -442 -432 -443q-287 0 -406 219q-27 39 14 62l45 22q37 20 60 -14q88 -164 282 -164q299 0 299 311v127q-166 -61 -323 -61q-406 0 -406 399zM240 399q0 -276 282 -276q150 0 307 59v682 q0 37 -38 54q-105 38 -240 38q-311 0 -311 -294v-263zM254 1417q-10 23 16 35l49 18q29 8 37 -14q45 -158 207 -158q160 0 205 158q10 23 33 17l55 -21q27 -12 18 -35q-67 -223 -311 -223t-309 223z" />
<glyph unicode="&#x120;" horiz-adv-x="1341" d="M117 487v482q0 242 143 377q145 137 418 137q434 0 545 -350q12 -39 -25 -54l-63 -22q-39 -10 -54 24q-82 264 -403 265q-203 0 -309 -99q-104 -98 -105 -276v-484q0 -180 107 -278q109 -100 309 -100q199 0 309 96q106 94 107 256v153h-396q-41 0 -41 41v58q0 41 41 41 h500q41 0 41 -41v-252q0 -225 -143 -355q-150 -135 -418 -135q-272 0 -420 140q-143 135 -143 376zM604 1704v12q0 70 70 70h10q70 0 70 -70v-12q0 -68 -70 -68h-10q-70 0 -70 68z" />
<glyph unicode="&#x121;" horiz-adv-x="1097" d="M100 395v269q0 420 443 419q199 0 346 -61q49 -23 63 -41q14 -20 15 -72v-972q0 -442 -432 -443q-287 0 -406 219q-27 39 14 62l45 22q37 20 60 -14q88 -164 282 -164q299 0 299 311v127q-166 -61 -323 -61q-406 0 -406 399zM240 399q0 -276 282 -276q150 0 307 59v682 q0 37 -38 54q-105 38 -240 38q-311 0 -311 -294v-263zM487 1319v10q0 70 70 70h10q70 0 70 -70v-10q0 -70 -70 -70h-10q-70 0 -70 70z" />
<glyph unicode="&#x122;" horiz-adv-x="1341" d="M117 487v482q0 242 143 377q145 137 418 137q434 0 545 -350q12 -39 -25 -54l-63 -22q-39 -10 -54 24q-82 264 -403 265q-203 0 -309 -99q-104 -98 -105 -276v-484q0 -180 107 -278q109 -100 309 -100q199 0 309 96q106 94 107 256v153h-396q-41 0 -41 41v58q0 41 41 41 h500q41 0 41 -41v-252q0 -225 -143 -355q-150 -135 -418 -135q-272 0 -420 140q-143 135 -143 376zM580 -483l67 297q6 39 45 39h62q51 0 34 -41l-96 -287q-10 -35 -43 -35h-45q-31 0 -24 27z" />
<glyph unicode="&#x123;" horiz-adv-x="1099" d="M100 395v269q0 420 443 419q199 0 346 -61q49 -23 63 -41q14 -20 15 -72v-972q0 -442 -432 -443q-287 0 -406 219q-27 39 14 62l45 22q37 20 60 -14q88 -164 282 -164q299 0 299 311v127q-166 -61 -323 -61q-406 0 -406 399zM240 399q0 -276 282 -276q150 0 307 59v682 q0 37 -38 54q-105 38 -240 38q-311 0 -311 -294v-263zM471 1221l98 249q12 35 47 35h37q33 0 27 -28l-78 -258q-4 -43 -47 -43h-51q-51 0 -33 45z" />
<glyph unicode="&#x124;" horiz-adv-x="1394" d="M160 41v1372q0 41 41 41h67q39 0 39 -41v-606h780v606q0 41 41 41h68q39 0 39 -41v-1372q0 -41 -39 -41h-68q-41 0 -41 41v627h-780v-627q0 -41 -39 -41h-67q-41 0 -41 41zM369 1591l249 221q35 33 74 33h17q37 0 69 -33l250 -221q33 -29 -18 -28h-56q-41 0 -61 20 l-195 168l-200 -168q-20 -20 -58 -20h-53q-51 0 -18 28z" />
<glyph unicode="&#x125;" horiz-adv-x="1128" d="M-113 1645l242 213q33 31 72 30h14q35 0 68 -30l239 -213q27 -31 -16 -31h-55q-37 0 -58 22l-188 162l-193 -162q-20 -23 -55 -22h-51q-45 0 -19 31zM135 37v1442q0 37 37 37h66q37 0 36 -37v-453q123 57 322 57q406 0 405 -401v-645q0 -37 -36 -37h-64q-37 0 -37 37v641 q0 279 -286 278q-184 0 -304 -59v-860q0 -37 -36 -37h-66q-37 0 -37 37z" />
<glyph unicode="&#x126;" horiz-adv-x="1413" d="M18 1151v33q0 29 27 28h123v201q0 41 41 41h67q41 0 41 -41v-201h779v201q0 41 41 41h67q41 0 41 -41v-201h123q27 0 27 -28v-33q0 -31 -27 -31h-123v-1079q0 -41 -41 -41h-67q-41 0 -41 41v627h-779v-627q0 -41 -41 -41h-67q-41 0 -41 41v1079h-123q-27 0 -27 31z M317 807h779v313h-779v-313z" />
<glyph unicode="&#x127;" horiz-adv-x="1128" d="M2 1288v29q0 29 27 29h106v133q0 37 37 37h66q37 0 36 -37v-133h322q25 0 25 -29v-29q0 -29 -25 -28h-322v-234q123 57 320 57q408 0 407 -401v-645q0 -37 -36 -37h-64q-37 0 -37 37v641q0 279 -286 278q-184 0 -304 -59v-860q0 -37 -36 -37h-66q-37 0 -37 37v1223h-106 q-27 0 -27 28z" />
<glyph unicode="&#x128;" horiz-adv-x="466" d="M-88 1602q0 205 160 204q78 0 166 -67q88 -70 137 -70q82 0 82 113q0 25 22 24h41q23 0 23 -24q0 -205 -160 -205q-74 0 -162 70q-86 68 -137 67q-82 0 -82 -112q0 -25 -25 -25h-40q-25 0 -25 25zM160 41v1372q0 41 41 41h67q39 0 39 -41v-1372q0 -41 -39 -41h-67 q-41 0 -41 41z" />
<glyph unicode="&#x129;" horiz-adv-x="407" d="M-41 1257q0 201 129 201q63 0 119 -65q55 -68 96 -68q61 0 62 109q0 25 18 24h35q20 0 20 -24q0 -203 -125 -203q-59 0 -114 65q-57 66 -99 66q-66 0 -65 -105q0 -27 -19 -26h-36q-20 0 -21 26zM135 37v979q0 37 37 37h64q37 0 36 -37v-979q0 -37 -36 -37h-64 q-37 0 -37 37z" />
<glyph unicode="&#x12a;" horiz-adv-x="466" d="M-43 1673v33q0 35 35 35h483q35 0 35 -35v-33q0 -35 -35 -35h-483q-35 0 -35 35zM160 41v1372q0 41 41 41h67q39 0 39 -41v-1372q0 -41 -39 -41h-67q-41 0 -41 41z" />
<glyph unicode="&#x12b;" horiz-adv-x="407" d="M31 1309v30q0 33 22 33h301q20 0 21 -33v-30q0 -35 -21 -35h-301q-23 0 -22 35zM135 37v979q0 37 37 37h64q37 0 36 -37v-979q0 -37 -36 -37h-64q-37 0 -37 37z" />
<glyph unicode="&#x12c;" horiz-adv-x="466" d="M-78 1784q-8 27 17 37l49 18q29 8 39 -14q43 -160 204 -160q162 0 207 160q10 23 33 14l55 -18q25 -10 17 -37q-68 -221 -312 -221t-309 221zM158 41v1372q0 41 41 41h67q39 0 39 -41v-1372q0 -41 -39 -41h-67q-41 0 -41 41z" />
<glyph unicode="&#x12d;" horiz-adv-x="407" d="M-61 1415q-8 27 16 35l47 16q31 8 39 -14q27 -147 160 -147q135 0 161 147q10 23 33 16l54 -18q27 -10 18 -35q-51 -215 -266 -215q-211 0 -262 215zM133 37v979q0 37 37 37h63q37 0 37 -37v-979q0 -37 -37 -37h-63q-37 0 -37 37z" />
<glyph unicode="&#x12e;" horiz-adv-x="466" d="M59 -399q-47 156 142 401q-41 0 -41 39v1372q0 41 41 41h67q39 0 39 -41v-1372q0 -25 -8 -35q-166 -223 -119 -348q18 -57 80 -57q61 0 102 45q18 14 25 -6l16 -43q8 -18 -2 -29q-80 -74 -184 -74q-129 0 -158 107z" />
<glyph unicode="&#x12f;" horiz-adv-x="409" d="M47 -381q-20 188 119 383q-31 2 -31 35v979q0 37 37 37h66q37 0 36 -37v-979q0 -20 -8 -29q-115 -184 -100 -340q10 -70 72 -69q49 0 75 45q16 10 27 -6l16 -37q8 -16 -2 -27q-55 -78 -153 -78q-137 0 -154 123zM123 1339v15q0 76 76 76h12q76 0 76 -76v-15 q0 -76 -76 -75h-12q-76 0 -76 75z" />
<glyph unicode="&#x130;" horiz-adv-x="466" d="M160 41v1372q0 41 41 41h67q39 0 39 -41v-1372q0 -41 -39 -41h-67q-41 0 -41 41zM160 1683v13q0 70 69 69h11q68 0 67 -69v-13q0 -68 -67 -67h-11q-70 0 -69 67z" />
<glyph unicode="&#x131;" horiz-adv-x="409" d="M135 37v979q0 37 37 37h66q37 0 36 -37v-979q0 -37 -36 -37h-66q-37 0 -37 37z" />
<glyph unicode="&#x132;" horiz-adv-x="1640" d="M160 41v1372q0 41 41 41h67q39 0 39 -41v-1372q0 -41 -39 -41h-67q-41 0 -41 41zM514 352q-14 39 25 54l63 22q39 14 53 -27q63 -293 340 -292q168 0 260 92q88 90 88 254v960q0 39 39 39h70q39 0 39 -39v-958q0 -229 -127 -357q-129 -131 -369 -131q-393 0 -481 383z " />
<glyph unicode="&#x133;" horiz-adv-x="909" d="M123 1339v15q0 76 76 76h12q76 0 76 -76v-15q0 -76 -76 -75h-12q-76 0 -76 75zM135 37v979q0 37 37 37h66q37 0 36 -37v-979q0 -37 -36 -37h-66q-37 0 -37 37zM309 -381q0 39 37 39q160 0 227 86q61 76 62 240v1032q0 37 37 37h63q37 0 37 -37v-1034q0 -453 -426 -453 q-37 0 -37 37v53zM621 1339v15q0 76 77 76h11q78 0 77 -76v-15q0 -76 -77 -75h-11q-78 0 -77 75z" />
<glyph unicode="&#x134;" horiz-adv-x="1167" d="M39 352q-14 39 24 54l66 22q37 14 51 -27q63 -293 342 -292q346 0 346 346v960q0 39 39 39h70q41 0 41 -39v-958q0 -229 -127 -357q-131 -131 -369 -131q-391 0 -483 383zM612 1591l252 221q35 33 74 33h16q37 0 70 -33l250 -221q29 -29 -19 -28h-55q-43 0 -61 20 l-197 168l-199 -168q-23 -20 -59 -20h-53q-47 0 -19 28z" />
<glyph unicode="&#x135;" horiz-adv-x="409" d="M-188 -381q0 39 36 39q160 0 228 86q61 76 61 240v1032q0 37 37 37h64q37 0 36 -37v-1034q0 -453 -426 -453q-37 0 -36 37v53zM-84 1214l211 216q31 33 72 32h16q39 0 70 -32l209 -216q27 -31 -19 -30h-53q-41 0 -62 20l-155 168l-160 -168q-23 -20 -59 -20h-52 q-41 0 -18 30z" />
<glyph unicode="&#x136;" horiz-adv-x="1247" d="M160 41v1372q0 41 41 41h67q39 0 39 -41v-608h242l459 614q27 35 82 35h73q51 0 21 -39l-486 -639q154 -43 248 -229l260 -506q23 -41 -22 -41h-66q-61 0 -82 37l-227 455q-49 98 -109 137q-66 41 -184 41h-209v-629q0 -41 -39 -41h-67q-41 0 -41 41zM537 -483l67 297 q6 39 45 39h62q51 0 34 -41l-96 -287q-10 -35 -43 -35h-45q-27 0 -24 27z" />
<glyph unicode="&#x137;" horiz-adv-x="1038" d="M137 39v1440q0 37 39 37h60q39 0 38 -37v-875h215l330 420q20 29 72 29h57q55 0 25 -43l-346 -432q111 -29 178 -166l184 -369q20 -43 -22 -43h-62q-45 0 -63 33l-156 319q-59 125 -199 125h-213v-438q0 -39 -38 -39h-60q-39 0 -39 39zM442 -438l60 286q4 43 47 43h53 q49 0 33 -43l-82 -280q-10 -35 -47 -35h-37q-33 0 -27 29z" />
<glyph unicode="&#x138;" horiz-adv-x="970" d="M135 39v977q0 37 39 37h62q39 0 38 -37v-518l482 526q25 29 75 29h58q59 0 22 -43l-376 -416l393 -549q33 -45 -23 -45h-59q-55 0 -78 31l-326 458l-168 -184v-266q0 -39 -38 -39h-62q-39 0 -39 39z" />
<glyph unicode="&#x139;" horiz-adv-x="1067" d="M16 1591q-23 29 4 41l330 207q47 23 70 -4l31 -37q25 -31 -7 -43l-360 -190q-35 -12 -49 4zM158 41v1372q0 41 41 41h67q39 0 39 -41v-1274h694q39 0 39 -41v-57q0 -41 -39 -41h-800q-41 0 -41 41z" />
<glyph unicode="&#x13a;" horiz-adv-x="423" d="M16 1616q-18 31 4 43l277 162q37 20 61 -9l35 -40q25 -33 -8 -43l-299 -142q-37 -16 -49 2zM141 37v1442q0 37 35 37h66q37 0 37 -37v-1442q0 -37 -37 -37h-66q-35 0 -35 37z" />
<glyph unicode="&#x13b;" horiz-adv-x="1067" d="M160 41v1372q0 41 41 41h67q39 0 39 -41v-1274h694q39 0 39 -41v-57q0 -41 -39 -41h-800q-41 0 -41 41zM465 -483l67 297q6 39 46 39h61q47 0 35 -41l-96 -287q-10 -35 -46 -35h-43q-31 0 -24 27z" />
<glyph unicode="&#x13c;" horiz-adv-x="423" d="M88 -420l59 297q4 43 48 43h51q49 0 33 -43l-82 -293q-14 -35 -47 -35h-35q-31 0 -27 31zM141 37v1442q0 37 37 37h64q37 0 37 -37v-1442q0 -37 -37 -37h-64q-37 0 -37 37z" />
<glyph unicode="&#x13d;" horiz-adv-x="1069" d="M160 41v1372q0 41 41 41h67q39 0 39 -41v-1274h694q39 0 39 -41v-57q0 -41 -39 -41h-800q-41 0 -41 41zM659 1022l70 395q4 37 45 37h57q47 0 33 -39l-104 -385q-10 -35 -43 -35h-33q-31 0 -25 27z" />
<glyph unicode="&#x13e;" horiz-adv-x="438" d="M143 37v1442q0 37 37 37h64q37 0 37 -37v-1442q0 -37 -37 -37h-64q-37 0 -37 37zM449 1128l59 351q4 37 45 37h57q47 0 33 -39l-94 -342q-14 -35 -43 -35h-33q-27 0 -24 28z" />
<glyph unicode="&#x13f;" horiz-adv-x="1069" d="M160 41v1372q0 41 41 41h67q39 0 39 -41v-1274h694q39 0 39 -41v-57q0 -41 -39 -41h-800q-41 0 -41 41zM627 737v13q0 82 80 81h12q82 0 82 -81v-13q0 -82 -82 -82h-12q-47 0 -64 17q-16 18 -16 65z" />
<glyph unicode="&#x140;" horiz-adv-x="669" d="M143 37v1442q0 37 37 37h64q37 0 37 -37v-1442q0 -37 -37 -37h-64q-37 0 -37 37zM463 760v14q0 82 80 82h12q82 0 82 -82v-14q0 -80 -82 -80h-12q-80 0 -80 80z" />
<glyph unicode="&#x141;" horiz-adv-x="1126" d="M-4 565q-14 27 10 37l213 100v711q0 41 39 41h70q39 0 39 -41v-643l426 205q31 12 43 -14l22 -43q12 -25 -14 -37l-477 -230v-512h692q41 0 41 -41v-57q0 -41 -41 -41h-801q-39 0 -39 41v543l-162 -76q-25 -14 -39 12z" />
<glyph unicode="&#x142;" horiz-adv-x="583" d="M20 641q-12 25 11 37l186 108v693q0 37 37 37h65q37 0 37 -37v-619l142 84q27 14 43 -10l22 -39q14 -25 -10 -37l-197 -115v-706q0 -37 -37 -37h-65q-37 0 -37 37v631l-131 -78q-27 -14 -41 10z" />
<glyph unicode="&#x143;" horiz-adv-x="1415" d="M160 41v1372q0 41 41 41h65q29 0 43 -20l637 -920q47 -68 109 -182q59 -106 73 -127h7q0 20 -13 153q-12 135 -12 228v829q0 39 41 39h63q41 0 41 -41v-1372q0 -41 -41 -41h-65q-31 0 -43 23l-653 938q-43 63 -99 172q-55 106 -65 120h-8q0 -16 12 -145q10 -129 10 -217 v-850q0 -41 -39 -41h-63q-41 0 -41 41zM494 1591q-25 27 2 41l331 207q47 23 70 -4l31 -37q25 -31 -6 -43l-363 -190q-35 -12 -47 4z" />
<glyph unicode="&#x144;" horiz-adv-x="1124" d="M131 37v864q0 80 78 113q170 69 381 69q408 0 407 -401v-645q0 -37 -36 -37h-64q-37 0 -37 37v641q0 279 -287 278q-145 0 -272 -45q-31 -14 -31 -51v-823q0 -37 -37 -37h-65q-37 0 -37 37zM344 1229q-20 27 4 41l332 205q45 27 68 -2l30 -37q25 -31 -4 -45l-362 -189 q-33 -14 -47 2z" />
<glyph unicode="&#x145;" horiz-adv-x="1415" d="M160 41v1372q0 41 41 41h65q29 0 43 -20l637 -920q47 -68 109 -182q59 -106 73 -127h7q0 20 -13 153q-12 135 -12 228v829q0 39 41 39h63q41 0 41 -41v-1372q0 -41 -41 -41h-65q-31 0 -43 23l-653 938q-43 63 -99 172q-55 106 -65 120h-8q0 -16 12 -145q10 -129 10 -217 v-850q0 -41 -39 -41h-63q-41 0 -41 41zM584 -483l67 297q6 39 45 39h62q51 0 35 -41l-97 -287q-10 -35 -43 -35h-45q-27 0 -24 27z" />
<glyph unicode="&#x146;" horiz-adv-x="1124" d="M131 37v864q0 80 78 113q170 69 381 69q408 0 407 -401v-645q0 -37 -36 -37h-64q-37 0 -37 37v641q0 279 -287 278q-145 0 -272 -45q-31 -14 -31 -51v-823q0 -37 -37 -37h-65q-37 0 -37 37zM455 -416l59 293q4 43 47 43h53q47 0 31 -43l-82 -289q-10 -35 -47 -34h-35 q-31 0 -26 30z" />
<glyph unicode="&#x147;" horiz-adv-x="1415" d="M160 41v1372q0 41 41 41h65q29 0 43 -20l637 -920q47 -68 109 -182q59 -106 73 -127h7q0 20 -13 153q-12 135 -12 228v829q0 39 41 39h63q41 0 41 -41v-1372q0 -41 -41 -41h-65q-31 0 -43 23l-653 938q-43 63 -99 172q-55 106 -65 120h-8q0 -16 12 -145q10 -129 10 -217 v-850q0 -41 -39 -41h-63q-41 0 -41 41zM377 1815q-31 31 16 30h53q37 0 60 -20l199 -170l196 170q20 20 62 20h55q49 0 18 -30l-250 -220q-35 -35 -69 -34h-17q-39 0 -73 34z" />
<glyph unicode="&#x148;" horiz-adv-x="1124" d="M131 37v864q0 80 78 113q170 69 381 69q408 0 407 -401v-645q0 -37 -36 -37h-64q-37 0 -37 37v641q0 279 -287 278q-145 0 -272 -45q-31 -14 -31 -51v-823q0 -37 -37 -37h-65q-37 0 -37 37zM256 1411q-25 29 14 29h52q33 0 53 -19l182 -157l180 157q18 18 56 19h51 q45 0 16 -29l-229 -203q-29 -31 -64 -30h-14q-35 0 -68 30z" />
<glyph unicode="&#x149;" horiz-adv-x="1124" d="M88 1133l145 350q12 33 46 33h65q47 0 25 -39l-183 -347q-16 -27 -47 -26h-33q-31 0 -18 29zM131 37v864q0 80 78 113q170 69 381 69q408 0 407 -401v-645q0 -37 -36 -37h-64q-37 0 -37 37v641q0 279 -287 278q-145 0 -272 -45q-31 -14 -31 -51v-823q0 -37 -37 -37h-65 q-37 0 -37 37z" />
<glyph unicode="&#x14a;" horiz-adv-x="1415" d="M160 41v1372q0 41 41 41h65q29 0 43 -20l637 -920q47 -68 109 -182q59 -106 73 -127h7q0 20 -13 153q-12 135 -12 228v829q0 39 41 39h63q41 0 41 -41v-1438q0 -211 -116 -327q-121 -119 -346 -119q-37 0 -37 37v53q0 39 37 39q317 0 317 324v32l-657 947q-43 63 -99 172 q-55 106 -65 120h-8q0 -12 12 -133q10 -119 10 -202v-877q0 -41 -39 -41h-63q-41 0 -41 41z" />
<glyph unicode="&#x14b;" horiz-adv-x="1124" d="M131 37v864q0 80 78 113q170 69 381 69q408 0 407 -401v-715q0 -209 -114 -321q-117 -117 -338 -117q-35 0 -35 37v51q0 35 35 35q315 0 315 319v707q0 279 -287 278q-145 0 -272 -45q-31 -14 -31 -51v-823q0 -37 -37 -37h-65q-37 0 -37 37z" />
<glyph unicode="&#x14c;" d="M117 485v484q0 242 143 377q147 137 420 137q270 0 418 -137q143 -135 143 -377v-484q0 -242 -143 -376q-147 -137 -418 -138q-272 0 -420 138q-143 135 -143 376zM264 485q0 -180 107 -276q109 -100 309 -100q201 0 307 100q106 96 107 276v484q0 180 -107 278 q-106 98 -307 99q-201 0 -309 -99q-106 -98 -107 -278v-484zM403 1694v32q0 35 35 35h484q35 0 34 -35v-32q0 -35 -34 -35h-484q-35 0 -35 35z" />
<glyph unicode="&#x14d;" horiz-adv-x="1103" d="M102 346v361q0 176 121 276q119 100 328 100q211 0 332 -100t121 -276v-361q0 -176 -121 -274q-121 -100 -332 -101q-209 0 -328 101q-121 100 -121 274zM240 346q0 -117 86 -182q84 -68 225 -68q145 0 229 68q84 66 84 182v361q0 117 -84 184q-84 68 -229 67 q-143 0 -225 -67q-86 -68 -86 -184v-361zM297 1296v31q0 33 33 33h442q33 0 33 -33v-31q0 -33 -33 -32h-442q-33 0 -33 32z" />
<glyph unicode="&#x14e;" d="M117 485v484q0 242 143 377q147 137 420 137q270 0 418 -137q143 -135 143 -377v-484q0 -242 -143 -376q-147 -137 -418 -138q-272 0 -420 138q-143 135 -143 376zM264 485q0 -180 107 -276q109 -100 309 -100q201 0 307 100q106 96 107 276v484q0 180 -107 278 q-106 98 -307 99q-201 0 -309 -99q-106 -98 -107 -278v-484zM371 1804q-8 27 16 37l49 19q29 8 39 -15q43 -160 205 -159q162 0 207 159q10 23 33 15l55 -19q25 -10 16 -37q-67 -221 -311 -221t-309 221z" />
<glyph unicode="&#x14f;" horiz-adv-x="1103" d="M102 346v361q0 176 121 276q119 100 328 100q211 0 332 -100t121 -276v-361q0 -176 -121 -274q-121 -100 -332 -101q-209 0 -328 101q-121 100 -121 274zM240 346q0 -117 86 -182q84 -68 225 -68q145 0 229 68q84 66 84 182v361q0 117 -84 184q-84 68 -229 67 q-143 0 -225 -67q-86 -68 -86 -184v-361zM242 1417q-8 25 16 35l49 18q29 8 39 -14q43 -158 205 -158t207 158q10 23 33 17l55 -21q25 -10 16 -35q-67 -223 -311 -223q-242 0 -309 223z" />
<glyph unicode="&#x150;" d="M117 485v484q0 242 143 377q147 137 420 137q270 0 418 -137q143 -135 143 -377v-484q0 -242 -143 -376q-147 -137 -418 -138q-272 0 -420 138q-143 135 -143 376zM264 485q0 -180 107 -276q109 -100 309 -100q201 0 307 100q106 96 107 276v484q0 180 -107 278 q-106 98 -307 99q-201 0 -309 -99q-106 -98 -107 -278v-484zM395 1628l187 217q25 37 61 25l45 -12q39 -14 12 -41l-223 -220q-27 -25 -45 -14l-24 6q-31 10 -13 39zM743 1624l193 221q27 37 61 25l50 -12q41 -16 12 -41l-234 -224q-27 -25 -47 -16l-22 8q-33 10 -13 39z " />
<glyph unicode="&#x151;" horiz-adv-x="1103" d="M102 346v361q0 176 121 276q119 100 328 100q211 0 332 -100t121 -276v-361q0 -176 -121 -274q-121 -100 -332 -101q-209 0 -328 101q-121 100 -121 274zM240 346q0 -117 86 -182q84 -68 225 -68q145 0 229 68q84 66 84 182v361q0 117 -84 184q-84 68 -229 67 q-143 0 -225 -67q-86 -68 -86 -184v-361zM289 1217l172 200q23 33 57 23l41 -13q37 -10 12 -38l-206 -201q-23 -20 -41 -14l-23 8q-29 8 -12 35zM608 1214l180 201q25 31 58 23l45 -13q39 -16 10 -39l-219 -198q-23 -23 -41 -17l-23 9q-31 8 -10 34z" />
<glyph unicode="&#x152;" horiz-adv-x="1730" d="M117 485v484q0 242 143 379q147 137 420 137q119 0 227 -31h678q41 0 41 -41v-57q0 -41 -41 -41h-571v-510h479q41 0 41 -41v-57q0 -41 -41 -41h-479v-527h598q41 0 41 -41v-57q0 -41 -41 -41h-705q-113 -31 -227 -31q-272 0 -420 140q-143 135 -143 376zM264 485 q0 -180 107 -276q109 -100 309 -100q111 0 186 26v1184q-84 27 -186 27q-201 0 -309 -99q-106 -98 -107 -278v-484z" />
<glyph unicode="&#x153;" horiz-adv-x="1673" d="M106 344v363q0 176 107 276q109 100 297 100q254 0 340 -180q88 180 334 180q406 0 405 -421v-115q0 -57 -61 -58h-613v-120q0 -279 263 -279q176 0 270 168q25 33 59 14l43 -24q41 -18 15 -58q-121 -219 -387 -219q-246 0 -330 174q-86 -174 -338 -174q-188 0 -297 101 q-106 98 -107 272zM244 344q0 -117 71 -182q72 -66 195 -66t197 66q72 66 71 182v365q0 117 -71 184q-74 66 -197 65q-123 0 -195 -65q-72 -68 -71 -184v-365zM915 596h537v74q0 295 -268 295t-269 -295v-74z" />
<glyph unicode="&#x154;" horiz-adv-x="1318" d="M160 41v1372q0 41 41 41h579q203 0 316 -111q115 -113 114 -313q0 -348 -329 -401q80 -37 133 -142l229 -446q27 -41 -20 -41h-68q-63 0 -80 37l-198 395q-49 98 -109 137q-66 41 -184 41h-277v-569q0 -41 -39 -41h-67q-41 0 -41 41zM307 750h459q137 0 213 73 q78 72 78 207q0 285 -291 285h-459v-565zM432 1591q-25 27 2 41l332 207q47 23 70 -4l30 -37q25 -31 -6 -43l-360 -190q-37 -12 -49 4z" />
<glyph unicode="&#x155;" horiz-adv-x="700" d="M131 37v868q0 82 78 115q156 59 371 63h63q37 0 37 -36v-54q0 -37 -37 -37h-68q-154 0 -270 -43q-35 -14 -35 -53v-823q0 -37 -37 -37h-65q-37 0 -37 37zM201 1227q-23 27 2 41l332 207q47 23 69 -5l31 -36q25 -31 -6 -43l-361 -191q-37 -12 -49 4z" />
<glyph unicode="&#x156;" horiz-adv-x="1318" d="M160 41v1372q0 41 41 41h579q203 0 316 -111q115 -113 114 -313q0 -348 -329 -401q80 -37 133 -142l229 -446q27 -41 -20 -41h-68q-63 0 -80 37l-198 395q-49 98 -109 137q-66 41 -184 41h-277v-569q0 -41 -39 -41h-67q-41 0 -41 41zM307 750h459q137 0 213 73 q78 72 78 207q0 285 -291 285h-459v-565zM565 -483l68 297q6 39 45 39h61q47 0 35 -41l-96 -287q-10 -35 -45 -35h-43q-31 0 -25 27z" />
<glyph unicode="&#x157;" horiz-adv-x="700" d="M80 -426l57 299q6 41 47 41h54q45 0 32 -41l-80 -293q-10 -37 -47 -37h-37q-33 0 -26 31zM131 37v868q0 82 78 115q156 59 371 63h63q37 0 37 -36v-54q0 -37 -37 -37h-68q-154 0 -270 -43q-35 -14 -35 -53v-823q0 -37 -37 -37h-65q-37 0 -37 37z" />
<glyph unicode="&#x158;" horiz-adv-x="1318" d="M160 41v1372q0 41 41 41h579q203 0 316 -111q115 -113 114 -313q0 -348 -329 -401q80 -37 133 -142l229 -446q27 -41 -20 -41h-68q-63 0 -80 37l-198 395q-49 98 -109 137q-66 41 -184 41h-277v-569q0 -41 -39 -41h-67q-41 0 -41 41zM307 750h459q137 0 213 73 q78 72 78 207q0 285 -291 285h-459v-565zM315 1815q-31 31 17 30h53q37 0 59 -20l199 -170l197 170q20 20 61 20h55q49 0 19 -30l-250 -220q-35 -35 -70 -34h-16q-39 0 -74 34z" />
<glyph unicode="&#x159;" horiz-adv-x="700" d="M113 1411q-29 29 14 29h51q35 0 53 -21l185 -155l178 155q20 20 57 21h51q45 0 15 -31l-228 -203q-33 -31 -63 -30h-16q-35 0 -66 30zM133 37v868q0 82 78 115q156 59 371 63h63q37 0 37 -36v-54q0 -37 -37 -37h-67q-154 0 -271 -43q-35 -14 -35 -53v-823q0 -37 -36 -37 h-66q-37 0 -37 37z" />
<glyph unicode="&#x15a;" horiz-adv-x="1282" d="M80 324q-12 39 24 55l64 22q35 12 53 -24q113 -266 414 -266q408 0 407 286q0 141 -122 201q-80 41 -277 61q-256 29 -364 89q-176 94 -177 315q1 192 138 305q141 115 391 115q385 0 538 -316q18 -35 -22 -53l-64 -29q-33 -14 -53 19q-121 238 -399 237 q-377 0 -377 -270q0 -141 131 -205q84 -39 293 -63q244 -29 350 -90q164 -94 164 -312q0 -203 -141 -315q-145 -115 -416 -115q-416 0 -555 353zM428 1612q-23 27 2 41l332 205q45 27 69 -3l31 -36q27 -31 -6 -45l-362 -189q-35 -16 -48 2z" />
<glyph unicode="&#x15b;" horiz-adv-x="1015" d="M78 225q-16 37 22 49l54 19q33 10 49 -23q68 -178 313 -178q289 0 289 187q0 100 -82 141q-59 31 -215 47q-203 20 -285 65q-129 70 -129 244q1 143 101 225q106 82 303 82q319 0 417 -223q20 -37 -18 -53l-51 -23q-33 -14 -51 19q-72 156 -295 155q-268 0 -269 -178 q0 -111 88 -151q55 -27 222 -41q197 -18 282 -72q117 -70 117 -231q0 -147 -104 -228q-109 -86 -316 -86q-344 0 -442 254zM293 1229q-20 27 4 41l332 205q45 27 69 -2l29 -37q27 -29 -4 -45l-363 -189q-33 -14 -47 2z" />
<glyph unicode="&#x15c;" horiz-adv-x="1282" d="M80 324q-12 39 24 55l64 22q35 12 53 -24q113 -266 414 -266q408 0 407 286q0 141 -122 201q-80 41 -277 61q-256 29 -364 89q-176 94 -177 315q1 192 138 305q141 115 391 115q385 0 538 -316q18 -35 -22 -53l-64 -29q-33 -14 -53 19q-121 238 -399 237 q-377 0 -377 -270q0 -141 131 -205q84 -39 293 -63q244 -29 350 -90q164 -94 164 -312q0 -203 -141 -315q-145 -115 -416 -115q-416 0 -555 353zM313 1612l252 219q33 35 74 35h14q37 0 72 -35l250 -219q27 -31 -19 -31h-55q-43 0 -61 21l-197 170l-199 -170 q-23 -20 -59 -21h-53q-45 0 -19 31z" />
<glyph unicode="&#x15d;" horiz-adv-x="1015" d="M78 225q-16 37 22 49l54 19q33 10 49 -23q68 -178 313 -178q289 0 289 187q0 100 -82 141q-59 31 -215 47q-203 20 -285 65q-129 70 -129 244q1 143 101 225q106 82 303 82q319 0 417 -223q20 -37 -18 -53l-51 -23q-33 -14 -51 19q-72 156 -295 155q-268 0 -269 -178 q0 -111 88 -151q55 -27 222 -41q197 -18 282 -72q117 -70 117 -231q0 -147 -104 -228q-109 -86 -316 -86q-344 0 -442 254zM186 1217l246 215q35 33 72 32h16q35 0 68 -32l246 -215q27 -31 -19 -31h-53q-39 0 -62 20l-190 166l-195 -166q-23 -20 -57 -20h-53q-45 0 -19 31z " />
<glyph unicode="&#x15e;" horiz-adv-x="1280" d="M82 324q-14 39 24 55l64 22q35 12 51 -24q117 -266 416 -266q406 0 405 286q0 141 -120 201q-82 39 -277 61q-256 29 -366 89q-176 94 -177 315q0 193 138 305q141 115 393 115q387 0 536 -316q20 -37 -20 -53l-64 -29q-35 -14 -53 19q-121 238 -399 237 q-377 0 -377 -270q0 -141 131 -205q84 -39 293 -63q242 -29 348 -90q164 -94 164 -312q0 -193 -125 -303q-127 -111 -369 -125l-47 -127q43 6 54 7q82 0 131 -46q47 -47 43 -120q-12 -193 -244 -193q-98 0 -164 39q-25 10 -25 39v39q0 27 21 14q68 -47 151 -47 q141 0 142 115q0 86 -123 86q-37 0 -68 -6q-39 -6 -22 32l65 166q-393 8 -530 353z" />
<glyph unicode="&#x15f;" horiz-adv-x="1015" d="M78 225q-16 37 22 49l54 19q33 10 49 -23q68 -178 313 -178q289 0 289 187q0 100 -82 141q-59 31 -215 47q-203 20 -285 65q-129 70 -129 244q1 143 101 225q106 82 303 82q319 0 417 -223q20 -37 -18 -53l-51 -23q-33 -14 -51 19q-72 156 -295 155q-268 0 -269 -178 q0 -111 88 -151q55 -27 222 -41q197 -18 282 -72q117 -70 117 -231q0 -293 -381 -314l-49 -129q12 4 51 4q80 0 127 -43q47 -45 43 -114q-8 -184 -237 -185q-98 0 -162 37q-23 10 -23 37v39q0 25 19 12q70 -45 149 -45q137 0 137 111q0 80 -118 84q-43 0 -68 -8 q-37 -6 -20 32l67 168q-309 16 -397 254z" />
<glyph unicode="&#x160;" horiz-adv-x="1282" d="M80 324q-12 39 24 55l64 22q35 12 53 -24q113 -266 414 -266q408 0 407 286q0 141 -122 201q-80 41 -277 61q-256 29 -364 89q-176 94 -177 315q1 192 138 305q141 115 391 115q385 0 538 -316q18 -35 -22 -53l-64 -29q-33 -14 -53 19q-121 238 -399 237 q-377 0 -377 -270q0 -141 131 -205q84 -39 293 -63q244 -29 350 -90q164 -94 164 -312q0 -203 -141 -315q-145 -115 -416 -115q-416 0 -555 353zM311 1833q-31 31 17 31h53q37 0 59 -21l199 -170l197 170q20 20 61 21h55q45 0 19 -31l-250 -219q-33 -33 -70 -33h-16 q-39 0 -74 33z" />
<glyph unicode="&#x161;" horiz-adv-x="1015" d="M78 225q-16 37 22 49l54 19q33 10 49 -23q68 -178 313 -178q289 0 289 187q0 100 -82 141q-59 31 -215 47q-203 20 -285 65q-129 70 -129 244q1 143 101 225q106 82 303 82q319 0 417 -223q20 -37 -18 -53l-51 -23q-33 -14 -51 19q-72 156 -295 155q-268 0 -269 -178 q0 -111 88 -151q55 -27 222 -41q197 -18 282 -72q117 -70 117 -231q0 -147 -104 -228q-109 -86 -316 -86q-344 0 -442 254zM209 1405q-29 29 14 29h51q33 0 52 -21l180 -153l178 153q20 20 55 21h49q47 0 17 -31l-225 -197q-29 -31 -64 -30h-14q-35 0 -66 30z" />
<glyph unicode="&#x164;" horiz-adv-x="1112" d="M27 1356v57q0 41 41 41h976q41 0 41 -41v-57q0 -41 -41 -41h-413v-1274q0 -41 -41 -41h-68q-41 0 -41 41v1274h-413q-41 0 -41 41zM225 1815q-31 31 19 30h53q37 0 57 -20l199 -170l197 170q20 20 61 20h55q49 0 19 -30l-250 -220q-35 -35 -70 -34h-16q-39 0 -74 34z" />
<glyph unicode="&#x165;" horiz-adv-x="735" d="M10 963v53q0 37 37 37h195v209q0 37 37 36h63q37 0 37 -36v-209h297q37 0 37 -37v-53q0 -37 -37 -37h-297v-533q0 -178 63 -237q57 -53 230 -54q37 0 37 -39v-55q0 -37 -37 -37q-240 -4 -334 84q-96 90 -96 334v537h-195q-37 0 -37 37zM561 1163l55 316q4 37 46 37h55 q47 0 35 -37l-90 -308q-14 -35 -44 -34h-32q-27 0 -25 26z" />
<glyph unicode="&#x166;" horiz-adv-x="1157" d="M49 1356v57q0 41 41 41h977q41 0 41 -41v-57q0 -41 -41 -41h-414v-586h287q27 0 27 -29v-51q0 -29 -27 -28h-287v-580q0 -41 -41 -41h-67q-41 0 -41 41v580h-287q-27 0 -27 28v51q0 29 27 29h287v586h-414q-41 0 -41 41z" />
<glyph unicode="&#x167;" horiz-adv-x="749" d="M25 963v55q0 37 36 37h195v209q0 37 37 36h63q37 0 37 -36v-209h295q37 0 37 -37v-55q0 -37 -37 -37h-295v-334h238q27 0 26 -29v-43q0 -29 -26 -28h-238v-101q0 -176 64 -235q57 -53 229 -54q37 0 37 -36v-56q0 -37 -37 -39q-242 -4 -334 84q-96 90 -96 336v101h-176 q-27 0 -27 28v43q0 29 27 29h176v334h-195q-37 0 -36 37z" />
<glyph unicode="&#x168;" horiz-adv-x="1396" d="M147 496v917q0 41 41 41h68q41 0 41 -41v-919q0 -385 401 -385t402 385v919q0 41 41 41h67q41 0 41 -41v-917q0 -246 -137 -383q-145 -143 -414 -144q-268 0 -413 144q-137 137 -138 383zM377 1602q0 205 160 204q78 0 165 -67q88 -70 138 -70q82 0 82 113q0 25 22 24h41 q23 0 23 -24q0 -205 -160 -205q-74 0 -162 70q-86 68 -137 67q-82 0 -82 -112q0 -25 -25 -25h-41q-25 0 -24 25z" />
<glyph unicode="&#x169;" horiz-adv-x="1124" d="M127 371v645q0 37 37 37h63q37 0 37 -37v-639q0 -281 287 -281q154 0 266 45q37 16 37 58v817q0 37 37 37h65q37 0 37 -37v-864q0 -80 -78 -113q-164 -68 -383 -68q-406 0 -405 400zM238 1241q0 205 159 205q78 0 166 -68q88 -70 137 -69q82 0 82 112q0 25 23 25h41 q25 0 24 -25q0 -205 -159 -204q-74 0 -162 69q-88 68 -139 68q-82 0 -82 -113q0 -25 -25 -24h-41q-25 0 -24 24z" />
<glyph unicode="&#x16a;" horiz-adv-x="1396" d="M147 496v917q0 41 41 41h68q41 0 41 -41v-919q0 -385 401 -385t402 385v919q0 41 41 41h67q41 0 41 -41v-917q0 -246 -137 -383q-145 -143 -414 -144q-268 0 -413 144q-137 137 -138 383zM422 1673v33q0 35 35 35h483q35 0 35 -35v-33q0 -35 -35 -35h-483q-35 0 -35 35z " />
<glyph unicode="&#x16b;" horiz-adv-x="1124" d="M127 371v645q0 37 37 37h63q37 0 37 -37v-639q0 -281 287 -281q154 0 266 45q37 16 37 58v817q0 37 37 37h65q37 0 37 -37v-864q0 -80 -78 -113q-164 -68 -383 -68q-406 0 -405 400zM283 1307v32q0 35 34 35h484q35 0 35 -35v-32q0 -35 -35 -35h-484q-35 0 -34 35z" />
<glyph unicode="&#x16c;" horiz-adv-x="1396" d="M147 496v917q0 41 41 41h68q41 0 41 -41v-919q0 -385 401 -385t402 385v919q0 41 41 41h67q41 0 41 -41v-917q0 -246 -137 -383q-145 -143 -414 -144q-268 0 -413 144q-137 137 -138 383zM389 1784q-8 27 17 37l49 18q29 8 39 -14q43 -160 204 -160q162 0 207 160 q10 23 33 14l55 -18q25 -10 17 -37q-68 -221 -312 -221t-309 221z" />
<glyph unicode="&#x16d;" horiz-adv-x="1124" d="M127 371v645q0 37 37 37h63q37 0 37 -37v-639q0 -281 287 -281q154 0 266 45q37 16 37 58v817q0 37 37 37h65q37 0 37 -37v-864q0 -80 -78 -113q-164 -68 -383 -68q-406 0 -405 400zM250 1417q-8 25 16 35l49 18q29 8 39 -14q43 -158 205 -158t207 158q10 23 33 17 l55 -21q25 -10 16 -35q-67 -223 -311 -223q-242 0 -309 223z" />
<glyph unicode="&#x16e;" horiz-adv-x="1396" d="M147 496v917q0 41 41 41h68q41 0 41 -41v-919q0 -385 401 -385t402 385v919q0 41 41 41h67q41 0 41 -41v-917q0 -246 -137 -383q-145 -143 -414 -144q-268 0 -413 144q-137 137 -138 383zM496 1722q0 91 57 148q57 55 152 55q92 0 147 -55q55 -57 55 -148q0 -90 -55 -145 t-147 -55q-94 0 -152 55q-57 55 -57 145zM569 1722q0 -129 136 -129q129 0 129 129t-129 129q-135 0 -136 -129z" />
<glyph unicode="&#x16f;" horiz-adv-x="1124" d="M127 371v645q0 37 37 37h63q37 0 37 -37v-639q0 -281 287 -281q154 0 266 45q37 16 37 58v817q0 37 37 37h65q37 0 37 -37v-864q0 -80 -78 -113q-164 -68 -383 -68q-406 0 -405 400zM358 1325q1 90 58 145t153 56q92 0 148 -56q55 -55 55 -145t-55 -145t-148 -56 q-96 0 -153 56q-57 55 -58 145zM432 1325q0 -129 137 -129q129 0 129 129t-129 129q-137 0 -137 -129z" />
<glyph unicode="&#x170;" horiz-adv-x="1396" d="M147 496v917q0 41 41 41h68q41 0 41 -41v-919q0 -385 401 -385t402 385v919q0 41 41 41h67q41 0 41 -41v-917q0 -246 -137 -383q-145 -143 -414 -144q-268 0 -413 144q-137 137 -138 383zM414 1608l186 217q25 37 62 24l45 -12q39 -14 12 -41l-223 -219q-27 -25 -45 -14 l-25 6q-31 10 -12 39zM762 1604l192 221q27 37 62 24l49 -12q41 -16 12 -41l-233 -223q-27 -25 -47 -17l-23 9q-33 10 -12 39z" />
<glyph unicode="&#x171;" horiz-adv-x="1124" d="M127 371v645q0 37 37 37h63q37 0 37 -37v-639q0 -281 287 -281q154 0 266 45q37 16 37 58v817q0 37 37 37h65q37 0 37 -37v-864q0 -80 -78 -113q-164 -68 -383 -68q-406 0 -405 400zM274 1231l187 217q25 35 61 25l45 -13q41 -14 13 -43l-224 -217q-27 -23 -45 -16l-24 8 q-29 10 -13 39zM621 1229l196 217q29 35 64 24l47 -14q45 -12 12 -41l-238 -217q-27 -25 -47 -16l-22 8q-31 10 -12 39z" />
<glyph unicode="&#x172;" horiz-adv-x="1396" d="M147 496v917q0 41 41 41h68q41 0 41 -41v-919q0 -385 401 -385t402 385v919q0 41 41 41h67q41 0 41 -41v-917q0 -285 -182 -420q-133 -117 -209 -242q-70 -121 -49 -176q18 -57 80 -57q59 0 104 45q16 12 25 -6l16 -43q6 -18 -4 -29q-78 -74 -184 -74q-129 0 -158 107 q-43 160 191 393q-76 -25 -181 -25q-268 0 -413 144q-137 137 -138 383z" />
<glyph unicode="&#x173;" horiz-adv-x="1124" d="M127 371v645q0 37 37 37h63q37 0 37 -37v-639q0 -281 287 -281q154 0 266 45q37 16 37 58v817q0 37 37 37h65q37 0 37 -37v-864q0 -59 -32 -86q-109 -104 -166 -232q-51 -117 -31 -176q20 -57 80 -57q59 0 104 45q18 14 25 -6l16 -43q8 -16 -2 -29q-80 -74 -184 -74 q-133 0 -158 107q-23 78 25 190q47 119 147 217q-125 -37 -285 -37q-406 0 -405 400z" />
<glyph unicode="&#x174;" horiz-adv-x="1804" d="M43 1415q-8 39 27 39h82q45 0 55 -37l250 -989q8 -37 20 -117l17 -102h8q29 170 43 219l272 967q10 37 55 37h64q45 0 55 -37l269 -969q14 -49 45 -217h8q23 147 37 215l249 993q8 37 54 37h71q39 0 27 -39l-365 -1380q-10 -35 -53 -35h-63q-45 0 -53 33l-273 991 q-23 86 -41 201h-8q-10 -84 -41 -199l-276 -991q-10 -35 -52 -35h-65q-43 0 -51 33zM575 1591l252 221q33 33 74 33h14q37 0 70 -33l252 -221q29 -29 -18 -28h-58q-41 0 -59 20l-197 168l-198 -168q-23 -20 -60 -20h-53q-47 0 -19 28z" />
<glyph unicode="&#x175;" horiz-adv-x="1497" d="M47 1010q-14 43 31 43h47q55 0 63 -37l187 -635q10 -41 26 -123q14 -76 19 -90h6q4 12 20 90q18 82 31 125l197 610q10 37 59 37h31q47 0 59 -37l195 -604q14 -47 33 -129q16 -78 20 -92h6q4 12 19 88q14 80 28 129l185 631q10 37 65 37h41q45 0 31 -43l-303 -983 q-8 -33 -49 -33h-43q-41 0 -52 33l-211 669q-12 43 -26 105l-14 69h-7q-4 -10 -16 -69q-12 -63 -25 -105l-211 -669q-10 -33 -49 -33h-43q-39 0 -49 33zM426 1214l248 216q33 33 71 32h15q37 0 69 -32l244 -216q29 -29 -18 -28h-54q-41 0 -61 20l-190 164l-195 -164 q-23 -20 -57 -20h-54q-47 0 -18 28z" />
<glyph unicode="&#x176;" horiz-adv-x="1284" d="M35 1413q-27 41 20 41h84q57 0 78 -37l428 -674l432 674q20 37 78 37h78q47 0 20 -41l-534 -823v-549q0 -41 -41 -41h-68q-41 0 -41 41v551zM317 1591l252 221q33 33 74 33h14q37 0 72 -33l250 -221q29 -29 -18 -28h-56q-43 0 -61 20l-197 168l-198 -168q-23 -20 -60 -20 h-53q-47 0 -19 28z" />
<glyph unicode="&#x177;" horiz-adv-x="1128" d="M127 397v619q0 37 37 37h63q37 0 37 -37v-613q0 -281 287 -280q131 0 303 55v838q0 37 37 37h65q37 0 37 -37v-1079q0 -442 -436 -443q-289 0 -407 219q-25 41 14 62l45 22q37 20 59 -14q88 -164 287 -164q299 0 299 311v121q-180 -53 -322 -53q-406 0 -405 399z M238 1214l245 216q33 33 72 32h14q37 0 70 -32l244 -216q29 -29 -19 -28h-53q-41 0 -59 20l-193 164l-194 -164q-23 -20 -58 -20h-53q-49 0 -16 28z" />
<glyph unicode="&#x178;" horiz-adv-x="1284" d="M35 1413q-27 41 20 41h84q57 0 78 -37l428 -674l432 674q20 37 78 37h78q47 0 20 -41l-534 -823v-549q0 -41 -41 -41h-68q-41 0 -41 41v551zM375 1688v16q0 66 67 65h13q68 0 67 -65v-16q0 -66 -67 -66h-13q-68 0 -67 66zM772 1688v16q0 66 68 65h12q68 0 68 -65v-16 q0 -66 -68 -66h-12q-68 0 -68 66z" />
<glyph unicode="&#x179;" horiz-adv-x="1159" d="M68 41v55q0 31 14 47l809 1172h-774q-41 0 -41 41v57q0 41 41 41h919q41 0 41 -41v-55q0 -25 -14 -45l-811 -1174h805q41 0 41 -39v-59q0 -41 -41 -41h-951q-39 0 -38 41zM373 1591q-23 27 2 41l332 207q47 23 69 -4l31 -37q25 -31 -6 -43l-361 -190q-35 -12 -49 4z" />
<glyph unicode="&#x17a;" horiz-adv-x="931" d="M63 37v51q0 25 13 41l608 799h-578q-35 0 -34 37v51q0 37 34 37h717q37 0 37 -37v-51q0 -25 -14 -43l-608 -797h596q37 0 36 -37v-51q0 -37 -36 -37h-734q-37 0 -37 37zM250 1227q-23 29 4 41l332 207q45 23 67 -5l31 -36q25 -31 -6 -43l-361 -191q-35 -12 -49 4z" />
<glyph unicode="&#x17b;" horiz-adv-x="1159" d="M68 41v55q0 31 14 47l809 1172h-774q-41 0 -41 41v57q0 41 41 41h919q41 0 41 -41v-55q0 -25 -14 -45l-811 -1174h805q41 0 41 -39v-59q0 -41 -41 -41h-951q-39 0 -38 41zM514 1683v13q0 70 70 69h10q70 0 70 -69v-13q0 -68 -70 -67h-10q-70 0 -70 67z" />
<glyph unicode="&#x17c;" horiz-adv-x="931" d="M63 37v51q0 25 13 41l608 799h-578q-35 0 -34 37v51q0 37 34 37h717q37 0 37 -37v-51q0 -25 -14 -43l-608 -797h596q37 0 36 -37v-51q0 -37 -36 -37h-734q-37 0 -37 37zM391 1319v10q0 70 70 70h10q70 0 70 -70v-10q0 -70 -70 -70h-10q-70 0 -70 70z" />
<glyph unicode="&#x17d;" horiz-adv-x="1159" d="M68 41v55q0 31 14 47l809 1172h-774q-41 0 -41 41v57q0 41 41 41h919q41 0 41 -41v-55q0 -25 -14 -45l-811 -1174h805q41 0 41 -39v-59q0 -41 -41 -41h-951q-39 0 -38 41zM256 1815q-31 31 18 30h54q37 0 57 -20l201 -170l194 170q20 20 62 20h55q49 0 18 -30l-249 -220 q-35 -35 -70 -34h-16q-39 0 -72 34z" />
<glyph unicode="&#x17e;" horiz-adv-x="931" d="M63 37v51q0 25 13 41l608 799h-578q-35 0 -34 37v51q0 37 34 37h717q37 0 37 -37v-51q0 -25 -14 -43l-608 -797h596q37 0 36 -37v-51q0 -37 -36 -37h-734q-37 0 -37 37zM166 1403q-25 29 14 29h51q33 0 52 -21l180 -154l176 154q20 20 55 21h51q41 0 17 -29l-225 -199 q-31 -31 -64 -30h-14q-35 0 -66 30z" />
<glyph unicode="&#x17f;" horiz-adv-x="532" d="M20 963v53q0 37 37 37h160v53q0 219 100 315q100 94 330 95q37 0 37 -37v-54q0 -39 -37 -39q-166 0 -229 -63t-64 -227v-1059q0 -37 -37 -37h-63q-37 0 -37 37v889h-160q-37 0 -37 37z" />
<glyph unicode="&#x192;" horiz-adv-x="911" d="M-51 -360q0 39 37 38q272 0 305 297l74 693h-265q-37 0 -37 37v55q0 37 37 37h279l31 301q43 418 442 418q37 0 37 -37v-54q0 -39 -37 -39q-272 0 -303 -294l-33 -295h281q37 0 37 -37v-55q0 -37 -37 -37h-293l-76 -697q-41 -422 -442 -422q-37 0 -37 37v54z" />
<glyph unicode="&#x1a0;" d="M117 485v484q0 242 143 377q147 137 420 137q270 0 418 -137q47 -43 78 -99q25 20 45 47q37 59 28 129q-4 31 31 33h51q31 0 31 -31q8 -104 -49 -190q-37 -51 -96 -86q25 -82 24 -180v-484q0 -242 -143 -376q-147 -137 -418 -138q-272 0 -420 138q-143 135 -143 376z M264 485q0 -180 107 -276q109 -100 309 -100q201 0 307 100q106 96 107 276v484q0 180 -107 278q-106 98 -307 99q-201 0 -309 -99q-106 -98 -107 -278v-484z" />
<glyph unicode="&#x1a1;" horiz-adv-x="1155" d="M102 346v361q0 176 121 276q119 100 328 100q211 0 332 -100q61 -51 90 -119q12 12 24 27q37 59 29 129q-4 31 31 33h51q31 0 31 -31q8 -104 -49 -191q-36 -48 -89 -81q2 -20 3 -43v-361q0 -176 -121 -274q-121 -100 -332 -101q-209 0 -328 101q-121 100 -121 274z M240 346q0 -117 86 -182q84 -68 225 -68q145 0 229 68q84 66 84 182v361q0 117 -84 184q-84 68 -229 67q-143 0 -225 -67q-86 -68 -86 -184v-361z" />
<glyph unicode="&#x1af;" horiz-adv-x="1433" d="M147 496v917q0 41 41 41h68q41 0 41 -41v-919q0 -385 401 -385t402 385v919q0 41 41 41h67q41 0 41 -41v-162q23 18 41 43q37 59 29 129q-4 31 31 33h51q31 0 31 -31q8 -104 -50 -190q-49 -68 -133 -107v-632q0 -246 -137 -383q-145 -143 -414 -144q-268 0 -413 144 q-137 137 -138 383z" />
<glyph unicode="&#x1b0;" horiz-adv-x="1204" d="M127 371v645q0 37 37 37h63q37 0 37 -37v-639q0 -281 287 -281q154 0 266 45q37 16 37 58v817q0 37 37 37h65q37 0 37 -37v-176q29 20 51 51q37 59 29 129q-4 31 31 33h51q31 0 31 -31q8 -104 -49 -191q-52 -71 -144 -110v-569q0 -80 -78 -113q-164 -68 -383 -68 q-406 0 -405 400z" />
<glyph unicode="&#x1fa;" horiz-adv-x="1310" d="M20 39l541 1350q-117 37 -117 153q1 89 60 144t151 55q90 0 148 -55q57 -55 57 -144q0 -121 -115 -153l539 -1350q16 -39 -27 -39h-61q-61 0 -74 37l-155 399h-633l-158 -399q-12 -37 -74 -37h-53q-45 0 -29 39zM377 561h545l-185 481q-23 59 -49 160q-27 96 -33 113h-10 l-31 -111q-25 -98 -49 -160zM459 1782q-18 23 14 37l301 141q45 18 68 -2l26 -31q23 -23 -6 -31l-342 -135q-33 -8 -45 4zM524 1546q0 -49 37 -80q37 -33 94 -32q53 0 90 32q35 31 35 80q0 53 -35 88q-37 33 -90 33q-57 0 -94 -33q-37 -35 -37 -88z" />
<glyph unicode="&#x1fb;" horiz-adv-x="1048" d="M76 289q0 174 104 248q102 70 346 69q84 0 269 -20v94q0 281 -277 281q-203 0 -287 -150q-23 -31 -51 -16l-49 20q-39 14 -20 53q114 215 411 215q410 0 410 -405v-537q0 -86 -74 -116q-123 -53 -340 -54q-254 0 -354 82q-88 72 -88 236zM217 291q0 -104 55 -152 q66 -53 236 -53q156 0 248 33q39 16 39 59v295q-184 18 -283 19q-162 0 -229 -48q-66 -47 -66 -153zM317 1374q1 91 58 148q57 55 151 55q92 0 148 -55q55 -57 55 -148q0 -90 -55 -145t-148 -55q-94 0 -151 55t-58 145zM317 1640q-20 16 2 31l312 152q43 18 65 -2l29 -27 q23 -23 -6 -33l-338 -141q-33 -8 -45 2zM391 1374q0 -129 135 -129q129 0 129 129t-129 129q-135 0 -135 -129z" />
<glyph unicode="&#x1fc;" horiz-adv-x="1701" d="M-6 39l848 1380q25 35 53 35h661q41 0 41 -41v-57q0 -41 -41 -41h-548v-510h456q39 0 39 -41v-57q0 -41 -39 -41h-456v-527h575q39 0 39 -41v-57q0 -41 -39 -41h-680q-41 0 -41 41v317h-510l-194 -321q-20 -37 -74 -37h-64q-43 0 -26 39zM426 481h436v725zM1008 1591 q-23 29 4 41l331 207q47 23 70 -4l29 -37q25 -31 -4 -43l-363 -190q-35 -12 -47 4z" />
<glyph unicode="&#x1fd;" horiz-adv-x="1613" d="M78 285q0 176 94 247q94 70 320 70q115 0 225 -18v112q0 127 -43 189q-53 76 -193 76q-164 0 -248 -148q-20 -31 -51 -18l-49 20q-39 18 -20 53q114 215 372 215q236 0 310 -178q88 178 329 178q406 0 406 -421v-115q0 -57 -62 -58h-612v-120q0 -279 262 -279 q176 0 271 168q25 33 61 14l41 -24q41 -18 14 -58q-121 -219 -387 -219q-205 0 -295 123q-106 -123 -340 -123q-231 0 -323 80q-82 70 -82 234zM217 287q0 -104 49 -150q57 -51 205 -51q217 0 260 113q-14 57 -14 135v135q-137 20 -242 20q-145 0 -203 -49q-55 -45 -55 -153 zM584 1239q-20 27 2 41l332 205q47 25 69 -2l31 -37q25 -31 -6 -43l-361 -191q-33 -14 -49 2zM856 596h537v74q0 295 -269 295q-268 0 -268 -295v-74z" />
<glyph unicode="&#x1fe;" d="M117 485v484q0 242 143 377q147 137 420 137q231 0 369 -103l90 144q12 14 28 14h82q16 0 8 -14l-133 -207q117 -129 117 -348v-484q0 -242 -143 -376q-147 -135 -418 -138q-215 -2 -356 90l-86 -133q-8 -14 -31 -14h-78q-18 0 -8 14l123 197q-127 131 -127 360zM264 485 q0 -133 74 -217l631 989q-104 88 -289 89q-201 0 -309 -99q-106 -98 -107 -278v-484zM403 186q102 -78 277 -77q201 0 307 100q106 96 107 276v484q0 127 -62 200zM473 1612q-23 29 4 41l330 207q47 23 70 -5l30 -36q25 -31 -6 -43l-360 -191q-35 -12 -49 4z" />
<glyph unicode="&#x1ff;" horiz-adv-x="1103" d="M102 346v361q0 176 121 276q119 100 328 100q158 0 268 -61l62 96q10 12 26 12h60q16 0 6 -14l-86 -137q117 -100 117 -272v-361q0 -176 -121 -274q-121 -100 -332 -101q-158 0 -266 60l-56 -90q-10 -12 -28 -13h-58q-20 0 -6 15l82 131q-117 100 -117 272zM240 346 q0 -88 61 -143l449 708q-84 47 -199 47q-143 0 -225 -67q-86 -68 -86 -184v-361zM336 1227q-25 27 2 41l332 207q47 23 69 -5l31 -36q25 -31 -6 -43l-361 -191q-37 -12 -49 4zM356 143q78 -47 195 -47q145 0 229 68q84 66 84 182v361q0 88 -59 143z" />
<glyph unicode="&#x218;" horiz-adv-x="1282" d="M80 324q-12 39 24 55l64 22q35 12 53 -24q113 -266 414 -266q408 0 407 286q0 141 -122 201q-80 41 -277 61q-256 29 -364 89q-176 94 -177 315q1 192 138 305q141 115 391 115q385 0 538 -316q18 -35 -22 -53l-64 -29q-33 -14 -53 19q-121 238 -399 237 q-377 0 -377 -270q0 -141 131 -205q84 -39 293 -63q244 -29 350 -90q164 -94 164 -312q0 -203 -141 -315q-145 -115 -416 -115q-416 0 -555 353zM537 -494l67 297q6 39 45 39h62q51 0 34 -41l-96 -286q-10 -35 -43 -35h-45q-27 0 -24 26z" />
<glyph unicode="&#x219;" horiz-adv-x="1015" d="M78 225q-16 37 22 49l54 19q33 10 49 -23q68 -178 313 -178q289 0 289 187q0 100 -82 141q-59 31 -215 47q-203 20 -285 65q-129 70 -129 244q1 143 101 225q106 82 303 82q319 0 417 -223q20 -37 -18 -53l-51 -23q-33 -14 -51 19q-72 156 -295 155q-268 0 -269 -178 q0 -111 88 -151q55 -27 222 -41q197 -18 282 -72q117 -70 117 -231q0 -147 -104 -228q-109 -86 -316 -86q-344 0 -442 254zM416 -424l59 281q6 41 47 41h53q47 0 31 -41l-82 -275q-10 -35 -47 -35h-35q-33 0 -26 29z" />
<glyph unicode="&#x21a;" horiz-adv-x="1112" d="M27 1356v57q0 41 41 41h976q41 0 41 -41v-57q0 -41 -41 -41h-413v-1274q0 -41 -41 -41h-68q-41 0 -41 41v1274h-413q-41 0 -41 41zM430 -483l68 297q6 39 47 39h59q51 0 35 -41l-96 -287q-10 -35 -43 -35h-43q-29 0 -27 27z" />
<glyph unicode="&#x21b;" horiz-adv-x="735" d="M10 963v53q0 37 37 37h195v209q0 37 37 36h63q37 0 37 -36v-209h297q37 0 37 -37v-53q0 -37 -37 -37h-297v-533q0 -178 63 -237q57 -53 230 -54q37 0 37 -39v-55q0 -37 -37 -37q-240 -4 -334 84q-96 90 -96 334v537h-195q-37 0 -37 37zM324 -483l67 297q2 39 45 39h62 q47 0 34 -41l-96 -287q-10 -35 -45 -35h-43q-31 0 -24 27z" />
<glyph unicode="&#x2c6;" horiz-adv-x="774" d="M53 1231l252 219q31 33 74 33h14q37 0 70 -33l252 -219q27 -31 -19 -31h-57q-41 0 -59 21l-197 170l-199 -170q-23 -20 -59 -21h-53q-45 0 -19 31z" />
<glyph unicode="&#x2da;" horiz-adv-x="491" d="M41 1325q0 90 57 145t152 56q92 0 147 -56q55 -55 56 -145q0 -90 -56 -145q-55 -55 -147 -56q-94 0 -152 56q-57 55 -57 145zM115 1325q0 -129 135 -129q129 0 129 129t-129 129q-135 0 -135 -129z" />
<glyph unicode="&#x2dc;" horiz-adv-x="624" d="M-4 1253q0 203 160 203q78 0 166 -67q88 -70 137 -70q82 0 82 113q0 25 22 24h41q25 0 25 -24q0 -203 -160 -203q-74 0 -162 69q-88 68 -139 68q-82 0 -82 -113q0 -25 -25 -24h-41q-25 0 -24 24z" />
<glyph unicode="&#x1e80;" horiz-adv-x="1804" d="M43 1415q-8 39 27 39h82q45 0 55 -37l250 -989q8 -37 20 -117l17 -102h8q29 170 43 219l272 967q10 37 55 37h64q45 0 55 -37l269 -969q14 -49 45 -217h8q23 147 37 215l249 993q8 37 54 37h71q39 0 27 -39l-365 -1380q-10 -35 -53 -35h-63q-45 0 -53 33l-273 991 q-23 86 -41 201h-8q-10 -84 -41 -199l-276 -991q-10 -35 -52 -35h-65q-43 0 -51 33zM688 1788l31 37q23 27 69 2l336 -199q25 -14 2 -41l-18 -22q-14 -16 -49 -2l-365 182q-31 12 -6 43z" />
<glyph unicode="&#x1e81;" horiz-adv-x="1497" d="M47 1010q-14 43 31 43h47q55 0 63 -37l187 -635q10 -41 26 -123q14 -76 19 -90h6q4 12 20 90q18 82 31 125l197 610q10 37 59 37h31q47 0 59 -37l195 -604q14 -47 33 -129q16 -78 20 -92h6q4 12 19 88q14 80 28 129l185 631q10 37 65 37h41q45 0 31 -43l-303 -983 q-8 -33 -49 -33h-43q-41 0 -52 33l-211 669q-12 43 -26 105l-14 69h-7q-4 -10 -16 -69q-12 -63 -25 -105l-211 -669q-10 -33 -49 -33h-43q-39 0 -49 33zM535 1434l30 36q23 27 70 5l332 -207q25 -14 2 -41l-19 -23q-14 -16 -49 -4l-360 191q-31 12 -6 43z" />
<glyph unicode="&#x1e82;" horiz-adv-x="1804" d="M43 1415q-8 39 27 39h82q45 0 55 -37l250 -989q8 -37 20 -117l17 -102h8q29 170 43 219l272 967q10 37 55 37h64q45 0 55 -37l269 -969q14 -49 45 -217h8q23 147 37 215l249 993q8 37 54 37h71q39 0 27 -39l-365 -1380q-10 -35 -53 -35h-63q-45 0 -53 33l-273 991 q-23 86 -41 201h-8q-10 -84 -41 -199l-276 -991q-10 -35 -52 -35h-65q-43 0 -51 33zM688 1591q-23 29 4 41l332 207q47 23 70 -4l28 -37q27 -31 -4 -43l-362 -190q-35 -12 -47 4z" />
<glyph unicode="&#x1e83;" horiz-adv-x="1497" d="M47 1010q-14 43 31 43h47q55 0 63 -37l187 -635q10 -41 26 -123q14 -76 19 -90h6q4 12 20 90q18 82 31 125l197 610q10 37 59 37h31q47 0 59 -37l195 -604q14 -47 33 -129q16 -78 20 -92h6q4 12 19 88q14 80 28 129l185 631q10 37 65 37h41q45 0 31 -43l-303 -983 q-8 -33 -49 -33h-43q-41 0 -52 33l-211 669q-12 43 -26 105l-14 69h-7q-4 -10 -16 -69q-12 -63 -25 -105l-211 -669q-10 -33 -49 -33h-43q-39 0 -49 33zM535 1227q-25 27 2 41l331 207q47 23 70 -5l31 -36q25 -31 -6 -43l-363 -191q-35 -12 -47 4z" />
<glyph unicode="&#x1e84;" horiz-adv-x="1804" d="M43 1415q-8 39 27 39h82q45 0 55 -37l250 -989q8 -37 20 -117l17 -102h8q29 170 43 219l272 967q10 37 55 37h64q45 0 55 -37l269 -969q14 -49 45 -217h8q23 147 37 215l249 993q8 37 54 37h71q39 0 27 -39l-365 -1380q-10 -35 -53 -35h-63q-45 0 -53 33l-273 991 q-23 86 -41 201h-8q-10 -84 -41 -199l-276 -991q-10 -35 -52 -35h-65q-43 0 -51 33zM633 1688v16q0 66 65 65h15q68 0 67 -65v-16q0 -66 -67 -66h-15q-66 0 -65 66zM1030 1688v16q0 66 68 65h12q68 0 68 -65v-16q0 -66 -68 -66h-12q-68 0 -68 66z" />
<glyph unicode="&#x1e85;" horiz-adv-x="1497" d="M47 1010q-14 43 31 43h47q55 0 63 -37l187 -635q10 -41 26 -123q14 -76 19 -90h6q4 12 20 90q18 82 31 125l197 610q10 37 59 37h31q47 0 59 -37l195 -604q14 -47 33 -129q16 -78 20 -92h6q4 12 19 88q14 80 28 129l185 631q10 37 65 37h41q45 0 31 -43l-303 -983 q-8 -33 -49 -33h-43q-41 0 -52 33l-211 669q-12 43 -26 105l-14 69h-7q-4 -10 -16 -69q-12 -63 -25 -105l-211 -669q-10 -33 -49 -33h-43q-39 0 -49 33zM477 1325v16q0 66 68 66h12q68 0 68 -66v-16q0 -68 -68 -68h-12q-68 0 -68 68zM874 1325v16q0 66 68 66h12q68 0 68 -66 v-16q0 -68 -68 -68h-12q-68 0 -68 68z" />
<glyph unicode="&#x1ea0;" horiz-adv-x="1312" d="M21 39l548 1386q12 35 52 35h61q41 0 53 -33l549 -1388q16 -39 -29 -39h-59q-63 0 -74 37l-153 389h-641l-154 -389q-10 -37 -72 -37h-55q-43 0 -26 39zM371 549h557l-246 629q-29 82 -29 141h-10q0 -66 -24 -141zM569 -283q0 82 82 82h12q80 0 80 -82v-14q0 -80 -80 -80 h-12q-82 0 -82 80v14z" />
<glyph unicode="&#x1ea1;" horiz-adv-x="1048" d="M76 289q0 174 104 248q102 70 346 69q84 0 269 -20v94q0 281 -277 281q-203 0 -287 -150q-23 -31 -51 -16l-49 20q-39 14 -20 53q114 215 411 215q410 0 410 -405v-537q0 -86 -74 -116q-123 -53 -340 -54q-254 0 -354 82q-88 72 -88 236zM217 291q0 -104 55 -152 q66 -53 236 -53q156 0 248 33q39 16 39 59v295q-184 18 -283 19q-162 0 -229 -48q-66 -47 -66 -153zM418 -283q0 82 82 82h12q80 0 80 -82v-14q0 -80 -80 -80h-12q-82 0 -82 80v14z" />
<glyph unicode="&#x1ea2;" horiz-adv-x="1312" d="M21 39l548 1386q12 35 52 35h61q41 0 53 -33l549 -1388q16 -39 -29 -39h-59q-63 0 -74 37l-153 389h-641l-154 -389q-10 -37 -72 -37h-55q-43 0 -26 39zM371 549h557l-246 629q-29 82 -29 141h-10q0 -66 -24 -141zM508 1876q-2 25 16 34q80 43 172 21q106 -29 107 -123 q6 -76 -41 -133q-41 -49 -72 -62q-16 -12 -41 -14h-59q-39 18 10 51q31 25 66 62t28 80q-2 39 -45 51q-49 14 -98 -15q-43 -14 -39 27z" />
<glyph unicode="&#x1ea3;" horiz-adv-x="1048" d="M76 289q0 174 104 248q102 70 346 69q84 0 269 -20v94q0 281 -277 281q-203 0 -287 -150q-23 -31 -51 -16l-49 20q-39 14 -20 53q114 215 411 215q410 0 410 -405v-537q0 -86 -74 -116q-123 -53 -340 -54q-254 0 -354 82q-88 72 -88 236zM217 291q0 -104 55 -152 q66 -53 236 -53q156 0 248 33q39 16 39 59v295q-184 18 -283 19q-162 0 -229 -48q-66 -47 -66 -153zM356 1475q-2 25 16 34q80 43 172 21q106 -29 107 -123q6 -76 -41 -133q-41 -49 -72 -62q-16 -12 -41 -14h-59q-39 18 10 51q31 25 66 62t28 80q-2 39 -45 51 q-49 14 -98 -15q-43 -14 -39 27z" />
<glyph unicode="&#x1ea4;" horiz-adv-x="1312" d="M21 39l548 1386q12 35 52 35h61q41 0 53 -33l549 -1388q16 -39 -29 -39h-59q-63 0 -74 37l-153 389h-641l-154 -389q-10 -37 -72 -37h-55q-43 0 -26 39zM325 1596l252 219q31 33 74 33h14q37 0 70 -33l252 -219q27 -31 -19 -31h-57q-41 0 -59 21l-197 170l-199 -170 q-23 -20 -59 -21h-53q-45 0 -19 31zM371 549h557l-246 629q-29 82 -29 141h-10q0 -66 -24 -141zM385 1905q-20 27 4 41l330 205q47 25 70 -2l30 -37q25 -31 -6 -43l-360 -191q-33 -14 -49 2z" />
<glyph unicode="&#x1ea5;" horiz-adv-x="1048" d="M76 289q0 174 104 248q102 70 346 69q84 0 269 -20v94q0 281 -277 281q-203 0 -287 -150q-23 -31 -51 -16l-49 20q-39 14 -20 53q114 215 411 215q410 0 410 -405v-537q0 -86 -74 -116q-123 -53 -340 -54q-254 0 -354 82q-88 72 -88 236zM174 1231l252 219q31 33 74 33 h14q37 0 70 -33l252 -219q27 -31 -19 -31h-57q-41 0 -59 21l-197 170l-199 -170q-23 -20 -59 -21h-53q-45 0 -19 31zM217 291q0 -104 55 -152q66 -53 236 -53q156 0 248 33q39 16 39 59v295q-184 18 -283 19q-162 0 -229 -48q-66 -47 -66 -153zM317 1599q-20 27 4 41 l330 205q47 25 70 -2l30 -37q25 -31 -6 -43l-360 -191q-33 -14 -49 2z" />
<glyph unicode="&#x1ea6;" horiz-adv-x="1312" d="M21 39l548 1386q12 35 52 35h61q41 0 53 -33l549 -1388q16 -39 -29 -39h-59q-63 0 -74 37l-153 389h-641l-154 -389q-10 -37 -72 -37h-55q-43 0 -26 39zM327 1593l252 219q31 33 74 33h14q37 0 70 -33l252 -219q27 -31 -19 -31h-57q-41 0 -59 21l-197 170l-199 -170 q-23 -20 -59 -21h-53q-45 0 -19 31zM371 549h557l-246 629q-29 82 -29 141h-10q0 -66 -24 -141zM483 2105l31 37q23 29 67 2l332 -205q25 -14 4 -41l-20 -25q-14 -16 -47 -2l-361 191q-31 12 -6 43z" />
<glyph unicode="&#x1ea7;" horiz-adv-x="1048" d="M76 289q0 174 104 248q102 70 346 69q84 0 269 -20v94q0 281 -277 281q-203 0 -287 -150q-23 -31 -51 -16l-49 20q-39 14 -20 53q114 215 411 215q410 0 410 -405v-537q0 -86 -74 -116q-123 -53 -340 -54q-254 0 -354 82q-88 72 -88 236zM174 1231l252 219q31 33 74 33 h14q37 0 70 -33l252 -219q27 -31 -19 -31h-57q-41 0 -59 21l-197 170l-199 -170q-23 -20 -59 -21h-53q-45 0 -19 31zM217 291q0 -104 55 -152q66 -53 236 -53q156 0 248 33q39 16 39 59v295q-184 18 -283 19q-162 0 -229 -48q-66 -47 -66 -153zM319 1727l31 37q23 29 67 2 l332 -205q25 -14 4 -41l-20 -25q-14 -16 -47 -2l-361 191q-31 12 -6 43z" />
<glyph unicode="&#x1ea8;" horiz-adv-x="1312" d="M21 39l548 1386q12 35 52 35h61q41 0 53 -33l549 -1388q16 -39 -29 -39h-59q-63 0 -74 37l-153 389h-641l-154 -389q-10 -37 -72 -37h-55q-43 0 -26 39zM325 1598l252 219q31 33 74 33h14q37 0 70 -33l252 -219q27 -31 -19 -31h-57q-41 0 -59 21l-197 170l-199 -170 q-23 -20 -59 -21h-53q-45 0 -19 31zM371 549h557l-246 629q-29 82 -29 141h-10q0 -66 -24 -141zM796 2057q-2 25 16 34q80 43 172 21q106 -29 107 -123q6 -76 -41 -133q-41 -49 -72 -62q-16 -12 -41 -14h-59q-39 18 10 51q31 25 66 62t28 80q-2 39 -45 51q-49 14 -98 -15 q-43 -14 -39 27z" />
<glyph unicode="&#x1ea9;" horiz-adv-x="1048" d="M76 289q0 174 104 248q102 70 346 69q84 0 269 -20v94q0 281 -277 281q-203 0 -287 -150q-23 -31 -51 -16l-49 20q-39 14 -20 53q114 215 411 215q410 0 410 -405v-537q0 -86 -74 -116q-123 -53 -340 -54q-254 0 -354 82q-88 72 -88 236zM174 1231l252 219q31 33 74 33 h14q37 0 70 -33l252 -219q27 -31 -19 -31h-57q-41 0 -59 21l-197 170l-199 -170q-23 -20 -59 -21h-53q-45 0 -19 31zM217 291q0 -104 55 -152q66 -53 236 -53q156 0 248 33q39 16 39 59v295q-184 18 -283 19q-162 0 -229 -48q-66 -47 -66 -153zM623 1706q-2 25 16 34 q80 43 172 21q106 -29 107 -123q6 -76 -41 -133q-41 -49 -72 -62q-16 -12 -41 -14h-59q-39 18 10 51q31 25 66 62t28 80q-2 39 -45 51q-49 14 -98 -15q-43 -14 -39 27z" />
<glyph unicode="&#x1eaa;" horiz-adv-x="1312" d="M21 39l548 1386q12 35 52 35h61q41 0 53 -33l549 -1388q16 -39 -29 -39h-59q-63 0 -74 37l-153 389h-641l-154 -389q-10 -37 -72 -37h-55q-43 0 -26 39zM325 1593l252 219q31 33 74 33h14q37 0 70 -33l252 -219q27 -31 -19 -31h-57q-41 0 -59 21l-197 170l-199 -170 q-23 -20 -59 -21h-53q-45 0 -19 31zM371 549h557l-246 629q-29 82 -29 141h-10q0 -66 -24 -141zM420 1906q0 203 160 203q78 0 166 -67q88 -70 137 -70q82 0 82 113q0 25 22 24h41q25 0 25 -24q0 -203 -160 -203q-74 0 -162 69q-88 68 -139 68q-82 0 -82 -113q0 -25 -25 -24 h-41q-25 0 -24 24z" />
<glyph unicode="&#x1eab;" horiz-adv-x="1048" d="M76 289q0 174 104 248q102 70 346 69q84 0 269 -20v94q0 281 -277 281q-203 0 -287 -150q-23 -31 -51 -16l-49 20q-39 14 -20 53q114 215 411 215q410 0 410 -405v-537q0 -86 -74 -116q-123 -53 -340 -54q-254 0 -354 82q-88 72 -88 236zM174 1231l252 219q31 33 74 33 h14q37 0 70 -33l252 -219q27 -31 -19 -31h-57q-41 0 -59 21l-197 170l-199 -170q-23 -20 -59 -21h-53q-45 0 -19 31zM189 1564q0 203 160 203q78 0 166 -67q88 -70 137 -70q82 0 82 113q0 25 22 24h41q25 0 25 -24q0 -203 -160 -203q-74 0 -162 69q-88 68 -139 68 q-82 0 -82 -113q0 -25 -25 -24h-41q-25 0 -24 24zM217 291q0 -104 55 -152q66 -53 236 -53q156 0 248 33q39 16 39 59v295q-184 18 -283 19q-162 0 -229 -48q-66 -47 -66 -153z" />
<glyph unicode="&#x1eac;" horiz-adv-x="1312" d="M21 39l548 1386q12 35 52 35h61q41 0 53 -33l549 -1388q16 -39 -29 -39h-59q-63 0 -74 37l-153 389h-641l-154 -389q-10 -37 -72 -37h-55q-43 0 -26 39zM325 1596l252 219q31 33 74 33h14q37 0 70 -33l252 -219q27 -31 -19 -31h-57q-41 0 -59 21l-197 170l-199 -170 q-23 -20 -59 -21h-53q-45 0 -19 31zM371 549h557l-246 629q-29 82 -29 141h-10q0 -66 -24 -141zM569 -283q0 82 82 82h12q80 0 80 -82v-14q0 -80 -80 -80h-12q-82 0 -82 80v14z" />
<glyph unicode="&#x1ead;" horiz-adv-x="1048" d="M76 289q0 174 104 248q102 70 346 69q84 0 269 -20v94q0 281 -277 281q-203 0 -287 -150q-23 -31 -51 -16l-49 20q-39 14 -20 53q114 215 411 215q410 0 410 -405v-537q0 -86 -74 -116q-123 -53 -340 -54q-254 0 -354 82q-88 72 -88 236zM174 1231l252 219q31 33 74 33 h14q37 0 70 -33l252 -219q27 -31 -19 -31h-57q-41 0 -59 21l-197 170l-199 -170q-23 -20 -59 -21h-53q-45 0 -19 31zM217 291q0 -104 55 -152q66 -53 236 -53q156 0 248 33q39 16 39 59v295q-184 18 -283 19q-162 0 -229 -48q-66 -47 -66 -153zM418 -283q0 82 82 82h12 q80 0 80 -82v-14q0 -80 -80 -80h-12q-82 0 -82 80v14z" />
<glyph unicode="&#x1eae;" horiz-adv-x="1312" d="M21 39l548 1386q12 35 52 35h61q41 0 53 -33l549 -1388q16 -39 -29 -39h-59q-63 0 -74 37l-153 389h-641l-154 -389q-10 -37 -72 -37h-55q-43 0 -26 39zM340 1788q-8 25 17 34l49 19q27 8 39 -15q43 -160 205 -159q162 0 206 159q8 23 33 15l55 -19q25 -10 17 -34 q-67 -224 -311 -224q-246 0 -310 224zM371 549h557l-246 629q-29 82 -29 141h-10q0 -66 -24 -141zM567 1892q-20 27 4 41l330 205q47 25 70 -2l30 -37q25 -31 -6 -43l-360 -191q-33 -14 -49 2z" />
<glyph unicode="&#x1eaf;" horiz-adv-x="1048" d="M76 289q0 174 104 248q102 70 346 69q84 0 269 -20v94q0 281 -277 281q-203 0 -287 -150q-23 -31 -51 -16l-49 20q-39 14 -20 53q114 215 411 215q410 0 410 -405v-537q0 -86 -74 -116q-123 -53 -340 -54q-254 0 -354 82q-88 72 -88 236zM190 1430q-8 25 17 34l49 19 q27 8 39 -15q43 -160 205 -159q162 0 206 159q8 23 33 15l55 -19q25 -10 17 -34q-67 -224 -311 -224q-246 0 -310 224zM217 291q0 -104 55 -152q66 -53 236 -53q156 0 248 33q39 16 39 59v295q-184 18 -283 19q-162 0 -229 -48q-66 -47 -66 -153zM354 1591q-20 27 4 41 l330 205q47 25 70 -2l30 -37q25 -31 -6 -43l-360 -191q-33 -14 -49 2z" />
<glyph unicode="&#x1eb0;" horiz-adv-x="1312" d="M21 39l548 1386q12 35 52 35h61q41 0 53 -33l549 -1388q16 -39 -29 -39h-59q-63 0 -74 37l-153 389h-641l-154 -389q-10 -37 -72 -37h-55q-43 0 -26 39zM340 1786q-8 25 17 34l49 19q27 8 39 -15q43 -160 205 -159q162 0 206 159q8 23 33 15l55 -19q25 -10 17 -34 q-67 -224 -311 -224q-246 0 -310 224zM365 2130l31 37q23 29 67 2l332 -205q25 -14 4 -41l-20 -25q-14 -16 -47 -2l-361 191q-31 12 -6 43zM371 549h557l-246 629q-29 82 -29 141h-10q0 -66 -24 -141z" />
<glyph unicode="&#x1eb1;" horiz-adv-x="1048" d="M76 289q0 174 104 248q102 70 346 69q84 0 269 -20v94q0 281 -277 281q-203 0 -287 -150q-23 -31 -51 -16l-49 20q-39 14 -20 53q114 215 411 215q410 0 410 -405v-537q0 -86 -74 -116q-123 -53 -340 -54q-254 0 -354 82q-88 72 -88 236zM190 1430q-8 25 17 34l49 19 q27 8 39 -15q43 -160 205 -159q162 0 206 159q8 23 33 15l55 -19q25 -10 17 -34q-67 -224 -311 -224q-246 0 -310 224zM203 1798l31 37q23 29 67 2l332 -205q25 -14 4 -41l-20 -25q-14 -16 -47 -2l-361 191q-31 12 -6 43zM217 291q0 -104 55 -152q66 -53 236 -53 q156 0 248 33q39 16 39 59v295q-184 18 -283 19q-162 0 -229 -48q-66 -47 -66 -153z" />
<glyph unicode="&#x1eb2;" horiz-adv-x="1312" d="M21 39l548 1386q12 35 52 35h61q41 0 53 -33l549 -1388q16 -39 -29 -39h-59q-63 0 -74 37l-153 389h-641l-154 -389q-10 -37 -72 -37h-55q-43 0 -26 39zM340 1788q-8 25 17 34l49 19q27 8 39 -15q43 -160 205 -159q162 0 206 159q8 23 33 15l55 -19q25 -10 17 -34 q-67 -224 -311 -224q-246 0 -310 224zM371 549h557l-246 629q-29 82 -29 141h-10q0 -66 -24 -141zM525 1808q-2 19 16 26q80 32 172 16q106 -22 107 -93q6 -57 -41 -99q-41 -37 -72 -47q-16 -9 -41 -11h-59q-39 14 10 39q31 19 66 46q35 28 28 60q-2 29 -45 39 q-49 10 -98 -12q-43 -10 -39 20z" />
<glyph unicode="&#x1eb3;" horiz-adv-x="1048" d="M76 289q0 174 104 248q102 70 346 69q84 0 269 -20v94q0 281 -277 281q-203 0 -287 -150q-23 -31 -51 -16l-49 20q-39 14 -20 53q114 215 411 215q410 0 410 -405v-537q0 -86 -74 -116q-123 -53 -340 -54q-254 0 -354 82q-88 72 -88 236zM190 1430q-8 25 17 34l49 19 q27 8 39 -15q43 -160 205 -159q162 0 206 159q8 23 33 15l55 -19q25 -10 17 -34q-67 -224 -311 -224q-246 0 -310 224zM217 291q0 -104 55 -152q66 -53 236 -53q156 0 248 33q39 16 39 59v295q-184 18 -283 19q-162 0 -229 -48q-66 -47 -66 -153zM371 1762q-2 25 16 34 q80 43 172 21q106 -29 107 -123q6 -76 -41 -133q-41 -49 -72 -62q-16 -12 -41 -14h-59q-39 18 10 51q31 25 66 62t28 80q-2 39 -45 51q-49 14 -98 -15q-43 -14 -39 27z" />
<glyph unicode="&#x1eb4;" horiz-adv-x="1312" d="M21 39l548 1386q12 35 52 35h61q41 0 53 -33l549 -1388q16 -39 -29 -39h-59q-63 0 -74 37l-153 389h-641l-154 -389q-10 -37 -72 -37h-55q-43 0 -26 39zM323 1788q-8 25 17 34l49 19q27 8 39 -15q43 -160 205 -159q162 0 206 159q8 23 33 15l55 -19q25 -10 17 -34 q-67 -224 -311 -224q-246 0 -310 224zM336 1935q0 203 160 203q78 0 166 -67q88 -70 137 -70q82 0 82 113q0 25 22 24h41q25 0 25 -24q0 -203 -160 -203q-74 0 -162 69q-88 68 -139 68q-82 0 -82 -113q0 -25 -25 -24h-41q-25 0 -24 24zM371 549h557l-246 629q-29 82 -29 141 h-10q0 -66 -24 -141z" />
<glyph unicode="&#x1eb5;" horiz-adv-x="1048" d="M76 289q0 174 104 248q102 70 346 69q84 0 269 -20v94q0 281 -277 281q-203 0 -287 -150q-23 -31 -51 -16l-49 20q-39 14 -20 53q114 215 411 215q410 0 410 -405v-537q0 -86 -74 -116q-123 -53 -340 -54q-254 0 -354 82q-88 72 -88 236zM189 1566q0 203 160 203 q78 0 166 -67q88 -70 137 -70q82 0 82 113q0 25 22 24h41q25 0 25 -24q0 -203 -160 -203q-74 0 -162 69q-88 68 -139 68q-82 0 -82 -113q0 -25 -25 -24h-41q-25 0 -24 24zM190 1430q-8 25 17 34l49 19q27 8 39 -15q43 -160 205 -159q162 0 206 159q8 23 33 15l55 -19 q25 -10 17 -34q-67 -224 -311 -224q-246 0 -310 224zM217 291q0 -104 55 -152q66 -53 236 -53q156 0 248 33q39 16 39 59v295q-184 18 -283 19q-162 0 -229 -48q-66 -47 -66 -153z" />
<glyph unicode="&#x1eb6;" horiz-adv-x="1312" d="M21 39l548 1386q12 35 52 35h61q41 0 53 -33l549 -1388q16 -39 -29 -39h-59q-63 0 -74 37l-153 389h-641l-154 -389q-10 -37 -72 -37h-55q-43 0 -26 39zM354 1788q-8 25 17 34l49 19q27 8 39 -15q43 -160 205 -159q162 0 206 159q8 23 33 15l55 -19q25 -10 17 -34 q-67 -224 -311 -224q-246 0 -310 224zM371 549h557l-246 629q-29 82 -29 141h-10q0 -66 -24 -141zM569 -283q0 82 82 82h12q80 0 80 -82v-14q0 -80 -80 -80h-12q-82 0 -82 80v14z" />
<glyph unicode="&#x1eb7;" horiz-adv-x="1048" d="M76 289q0 174 104 248q102 70 346 69q84 0 269 -20v94q0 281 -277 281q-203 0 -287 -150q-23 -31 -51 -16l-49 20q-39 14 -20 53q114 215 411 215q410 0 410 -405v-537q0 -86 -74 -116q-123 -53 -340 -54q-254 0 -354 82q-88 72 -88 236zM190 1430q-8 25 17 34l49 19 q27 8 39 -15q43 -160 205 -159q162 0 206 159q8 23 33 15l55 -19q25 -10 17 -34q-67 -224 -311 -224q-246 0 -310 224zM217 291q0 -104 55 -152q66 -53 236 -53q156 0 248 33q39 16 39 59v295q-184 18 -283 19q-162 0 -229 -48q-66 -47 -66 -153zM418 -283q0 82 82 82h12 q80 0 80 -82v-14q0 -80 -80 -80h-12q-82 0 -82 80v14z" />
<glyph unicode="&#x1eb8;" horiz-adv-x="1173" d="M160 41v1372q0 41 41 41h829q39 0 39 -41v-57q0 -41 -39 -41h-723v-508h631q39 0 39 -41v-57q0 -41 -39 -41h-631v-529h750q39 0 39 -41v-57q0 -41 -39 -41h-856q-41 0 -41 41zM541 -283q0 82 82 82h12q80 0 80 -82v-14q0 -80 -80 -80h-12q-82 0 -82 80v14z" />
<glyph unicode="&#x1eb9;" horiz-adv-x="1085" d="M96 385v266q0 205 115 318q117 115 338 114q223 0 342 -118q113 -113 113 -306v-112q0 -57 -62 -58h-709v-118q0 -281 308 -281q227 0 321 170q25 33 60 14l43 -22q39 -20 14 -59q-123 -221 -438 -222q-223 0 -338 115q-106 106 -107 299zM233 596h633v72q0 297 -317 297 q-154 0 -236 -80q-80 -78 -80 -217v-72zM463 -283q0 82 82 82h12q80 0 80 -82v-14q0 -80 -80 -80h-12q-82 0 -82 80v14z" />
<glyph unicode="&#x1eba;" horiz-adv-x="1173" d="M160 41v1372q0 41 41 41h829q39 0 39 -41v-57q0 -41 -39 -41h-723v-508h631q39 0 39 -41v-57q0 -41 -39 -41h-631v-529h750q39 0 39 -41v-57q0 -41 -39 -41h-856q-41 0 -41 41zM479 1876q-2 25 16 34q80 43 172 21q106 -29 107 -123q6 -76 -41 -133q-41 -49 -72 -62 q-16 -12 -41 -14h-59q-39 18 10 51q31 25 66 62t28 80q-2 39 -45 51q-49 14 -98 -15q-43 -14 -39 27z" />
<glyph unicode="&#x1ebb;" horiz-adv-x="1085" d="M96 385v266q0 205 115 318q117 115 338 114q223 0 342 -118q113 -113 113 -306v-112q0 -57 -62 -58h-709v-118q0 -281 308 -281q227 0 321 170q25 33 60 14l43 -22q39 -20 14 -59q-123 -221 -438 -222q-223 0 -338 115q-106 106 -107 299zM233 596h633v72q0 297 -317 297 q-154 0 -236 -80q-80 -78 -80 -217v-72zM401 1475q-2 25 16 34q80 43 172 21q106 -29 107 -123q6 -76 -41 -133q-41 -49 -72 -62q-16 -12 -41 -14h-59q-39 18 10 51q31 25 66 62t28 80q-2 39 -45 51q-49 14 -98 -15q-43 -14 -39 27z" />
<glyph unicode="&#x1ebc;" horiz-adv-x="1173" d="M160 41v1372q0 41 41 41h829q39 0 39 -41v-57q0 -41 -39 -41h-723v-508h631q39 0 39 -41v-57q0 -41 -39 -41h-631v-529h750q39 0 39 -41v-57q0 -41 -39 -41h-856q-41 0 -41 41zM311 1654q0 203 160 203q78 0 166 -67q88 -70 137 -70q82 0 82 113q0 25 22 24h41 q25 0 25 -24q0 -203 -160 -203q-74 0 -162 69q-88 68 -139 68q-82 0 -82 -113q0 -25 -25 -24h-41q-25 0 -24 24z" />
<glyph unicode="&#x1ebd;" horiz-adv-x="1085" d="M96 385v266q0 205 115 318q117 115 338 114q223 0 342 -118q113 -113 113 -306v-112q0 -57 -62 -58h-709v-118q0 -281 308 -281q227 0 321 170q25 33 60 14l43 -22q39 -20 14 -59q-123 -221 -438 -222q-223 0 -338 115q-106 106 -107 299zM233 596h633v72q0 297 -317 297 q-154 0 -236 -80q-80 -78 -80 -217v-72zM234 1253q0 203 160 203q78 0 166 -67q88 -70 137 -70q82 0 82 113q0 25 22 24h41q25 0 25 -24q0 -203 -160 -203q-74 0 -162 69q-88 68 -139 68q-82 0 -82 -113q0 -25 -25 -24h-41q-25 0 -24 24z" />
<glyph unicode="&#x1ebe;" horiz-adv-x="1173" d="M160 41v1372q0 41 41 41h829q39 0 39 -41v-57q0 -41 -39 -41h-723v-508h631q39 0 39 -41v-57q0 -41 -39 -41h-631v-529h750q39 0 39 -41v-57q0 -41 -39 -41h-856q-41 0 -41 41zM297 1596l252 219q31 33 74 33h14q37 0 70 -33l252 -219q27 -31 -19 -31h-57q-41 0 -59 21 l-197 170l-199 -170q-23 -20 -59 -21h-53q-45 0 -19 31zM357 1905q-20 27 4 41l330 205q47 25 70 -2l30 -37q25 -31 -6 -43l-360 -191q-33 -14 -49 2z" />
<glyph unicode="&#x1ebf;" horiz-adv-x="1085" d="M96 385v266q0 205 115 318q117 115 338 114q223 0 342 -118q113 -113 113 -306v-112q0 -57 -62 -58h-709v-118q0 -281 308 -281q227 0 321 170q25 33 60 14l43 -22q39 -20 14 -59q-123 -221 -438 -222q-223 0 -338 115q-106 106 -107 299zM219 1231l252 219q31 33 74 33 h14q37 0 70 -33l252 -219q27 -31 -19 -31h-57q-41 0 -59 21l-197 170l-199 -170q-23 -20 -59 -21h-53q-45 0 -19 31zM233 596h633v72q0 297 -317 297q-154 0 -236 -80q-80 -78 -80 -217v-72zM317 1554q-20 27 4 41l330 205q47 25 70 -2l30 -37q25 -31 -6 -43l-360 -191 q-33 -14 -49 2z" />
<glyph unicode="&#x1ec0;" horiz-adv-x="1173" d="M160 41v1372q0 41 41 41h829q39 0 39 -41v-57q0 -41 -39 -41h-723v-508h631q39 0 39 -41v-57q0 -41 -39 -41h-631v-529h750q39 0 39 -41v-57q0 -41 -39 -41h-856q-41 0 -41 41zM299 1593l252 219q31 33 74 33h14q37 0 70 -33l252 -219q27 -31 -19 -31h-57q-41 0 -59 21 l-197 170l-199 -170q-23 -20 -59 -21h-53q-45 0 -19 31zM455 2105l31 37q23 29 67 2l332 -205q25 -14 4 -41l-20 -25q-14 -16 -47 -2l-361 191q-31 12 -6 43z" />
<glyph unicode="&#x1ec1;" horiz-adv-x="1085" d="M96 385v266q0 205 115 318q117 115 338 114q223 0 342 -118q113 -113 113 -306v-112q0 -57 -62 -58h-709v-118q0 -281 308 -281q227 0 321 170q25 33 60 14l43 -22q39 -20 14 -59q-123 -221 -438 -222q-223 0 -338 115q-106 106 -107 299zM219 1231l252 219q31 33 74 33 h14q37 0 70 -33l252 -219q27 -31 -19 -31h-57q-41 0 -59 21l-197 170l-199 -170q-23 -20 -59 -21h-53q-45 0 -19 31zM233 596h633v72q0 297 -317 297q-154 0 -236 -80q-80 -78 -80 -217v-72zM319 1759l31 37q23 29 67 2l332 -205q25 -14 4 -41l-20 -25q-14 -16 -47 -2 l-361 191q-31 12 -6 43z" />
<glyph unicode="&#x1ec2;" horiz-adv-x="1173" d="M160 41v1372q0 41 41 41h829q39 0 39 -41v-57q0 -41 -39 -41h-723v-508h631q39 0 39 -41v-57q0 -41 -39 -41h-631v-529h750q39 0 39 -41v-57q0 -41 -39 -41h-856q-41 0 -41 41zM297 1598l252 219q31 33 74 33h14q37 0 70 -33l252 -219q27 -31 -19 -31h-57q-41 0 -59 21 l-197 170l-199 -170q-23 -20 -59 -21h-53q-45 0 -19 31zM768 2057q-2 25 16 34q80 43 172 21q106 -29 107 -123q6 -76 -41 -133q-41 -49 -72 -62q-16 -12 -41 -14h-59q-39 18 10 51q31 25 66 62t28 80q-2 39 -45 51q-49 14 -98 -15q-43 -14 -39 27z" />
<glyph unicode="&#x1ec3;" horiz-adv-x="1085" d="M96 385v266q0 205 115 318q117 115 338 114q223 0 342 -118q113 -113 113 -306v-112q0 -57 -62 -58h-709v-118q0 -281 308 -281q227 0 321 170q25 33 60 14l43 -22q39 -20 14 -59q-123 -221 -438 -222q-223 0 -338 115q-106 106 -107 299zM219 1231l252 219q31 33 74 33 h14q37 0 70 -33l252 -219q27 -31 -19 -31h-57q-41 0 -59 21l-197 170l-199 -170q-23 -20 -59 -21h-53q-45 0 -19 31zM233 596h633v72q0 297 -317 297q-154 0 -236 -80q-80 -78 -80 -217v-72zM660 1747q-2 25 16 34q80 43 172 21q106 -29 107 -123q6 -76 -41 -133 q-41 -49 -72 -62q-16 -12 -41 -14h-59q-39 18 10 51q31 25 66 62t28 80q-2 39 -45 51q-49 14 -98 -15q-43 -14 -39 27z" />
<glyph unicode="&#x1ec4;" horiz-adv-x="1173" d="M160 41v1372q0 41 41 41h829q39 0 39 -41v-57q0 -41 -39 -41h-723v-508h631q39 0 39 -41v-57q0 -41 -39 -41h-631v-529h750q39 0 39 -41v-57q0 -41 -39 -41h-856q-41 0 -41 41zM321 1593l252 219q31 33 74 33h14q37 0 70 -33l252 -219q27 -31 -19 -31h-57q-41 0 -59 21 l-197 170l-199 -170q-23 -20 -59 -21h-53q-45 0 -19 31zM416 1906q0 203 160 203q78 0 166 -67q88 -70 137 -70q82 0 82 113q0 25 22 24h41q25 0 25 -24q0 -203 -160 -203q-74 0 -162 69q-88 68 -139 68q-82 0 -82 -113q0 -25 -25 -24h-41q-25 0 -24 24z" />
<glyph unicode="&#x1ec5;" horiz-adv-x="1085" d="M96 385v266q0 205 115 318q117 115 338 114q223 0 342 -118q113 -113 113 -306v-112q0 -57 -62 -58h-709v-118q0 -281 308 -281q227 0 321 170q25 33 60 14l43 -22q39 -20 14 -59q-123 -221 -438 -222q-223 0 -338 115q-106 106 -107 299zM219 1231l252 219q31 33 74 33 h14q37 0 70 -33l252 -219q27 -31 -19 -31h-57q-41 0 -59 21l-197 170l-199 -170q-23 -20 -59 -21h-53q-45 0 -19 31zM233 596h633v72q0 297 -317 297q-154 0 -236 -80q-80 -78 -80 -217v-72zM234 1564q0 203 160 203q78 0 166 -67q88 -70 137 -70q82 0 82 113q0 25 22 24h41 q25 0 25 -24q0 -203 -160 -203q-74 0 -162 69q-88 68 -139 68q-82 0 -82 -113q0 -25 -25 -24h-41q-25 0 -24 24z" />
<glyph unicode="&#x1ec6;" horiz-adv-x="1173" d="M160 41v1372q0 41 41 41h829q39 0 39 -41v-57q0 -41 -39 -41h-723v-508h631q39 0 39 -41v-57q0 -41 -39 -41h-631v-529h750q39 0 39 -41v-57q0 -41 -39 -41h-856q-41 0 -41 41zM297 1632l252 219q31 33 74 33h14q37 0 70 -33l252 -219q27 -31 -19 -31h-57q-41 0 -59 21 l-197 170l-199 -170q-23 -20 -59 -21h-53q-45 0 -19 31zM541 -283q0 82 82 82h12q80 0 80 -82v-14q0 -80 -80 -80h-12q-82 0 -82 80v14z" />
<glyph unicode="&#x1ec7;" horiz-adv-x="1085" d="M96 385v266q0 205 115 318q117 115 338 114q223 0 342 -118q113 -113 113 -306v-112q0 -57 -62 -58h-709v-118q0 -281 308 -281q227 0 321 170q25 33 60 14l43 -22q39 -20 14 -59q-123 -221 -438 -222q-223 0 -338 115q-106 106 -107 299zM219 1231l252 219q31 33 74 33 h14q37 0 70 -33l252 -219q27 -31 -19 -31h-57q-41 0 -59 21l-197 170l-199 -170q-23 -20 -59 -21h-53q-45 0 -19 31zM233 596h633v72q0 297 -317 297q-154 0 -236 -80q-80 -78 -80 -217v-72zM463 -283q0 82 82 82h12q80 0 80 -82v-14q0 -80 -80 -80h-12q-82 0 -82 80v14z " />
<glyph unicode="&#x1ec8;" horiz-adv-x="466" d="M86 1876q-2 25 16 34q80 43 172 21q106 -29 107 -123q6 -76 -41 -133q-41 -49 -72 -62q-16 -12 -41 -14h-59q-39 18 10 51q31 25 66 62t28 80q-2 39 -45 51q-49 14 -98 -15q-43 -14 -39 27zM160 41v1372q0 41 41 41h67q39 0 39 -41v-1372q0 -41 -39 -41h-67q-41 0 -41 41 z" />
<glyph unicode="&#x1ec9;" horiz-adv-x="409" d="M57 1475q-2 25 16 34q80 43 172 21q106 -29 107 -123q6 -76 -41 -133q-41 -49 -72 -62q-16 -12 -41 -14h-59q-39 18 10 51q31 25 66 62t28 80q-2 39 -45 51q-49 14 -98 -15q-43 -14 -39 27zM135 37v979q0 37 37 37h66q37 0 36 -37v-979q0 -37 -36 -37h-66q-37 0 -37 37z " />
<glyph unicode="&#x1eca;" horiz-adv-x="466" d="M148 -283q0 82 82 82h12q80 0 80 -82v-14q0 -80 -80 -80h-12q-82 0 -82 80v14zM160 41v1372q0 41 41 41h67q39 0 39 -41v-1372q0 -41 -39 -41h-67q-41 0 -41 41z" />
<glyph unicode="&#x1ecb;" horiz-adv-x="409" d="M119 -283q0 82 82 82h12q80 0 80 -82v-14q0 -80 -80 -80h-12q-82 0 -82 80v14zM123 1339v15q0 76 76 76h12q76 0 76 -76v-15q0 -76 -76 -75h-12q-76 0 -76 75zM135 37v979q0 37 37 37h66q37 0 36 -37v-979q0 -37 -36 -37h-66q-37 0 -37 37z" />
<glyph unicode="&#x1ecc;" d="M117 485v484q0 242 143 377q147 137 420 137q270 0 418 -137q143 -135 143 -377v-484q0 -242 -143 -376q-147 -137 -418 -138q-272 0 -420 138q-143 135 -143 376zM264 485q0 -180 107 -276q109 -100 309 -100q201 0 307 100q106 96 107 276v484q0 180 -107 278 q-106 98 -307 99q-201 0 -309 -99q-106 -98 -107 -278v-484zM592 -283q0 82 82 82h12q80 0 80 -82v-14q0 -80 -80 -80h-12q-82 0 -82 80v14z" />
<glyph unicode="&#x1ecd;" horiz-adv-x="1103" d="M102 346v361q0 176 121 276q119 100 328 100q211 0 332 -100t121 -276v-361q0 -176 -121 -274q-121 -100 -332 -101q-209 0 -328 101q-121 100 -121 274zM240 346q0 -117 86 -182q84 -68 225 -68q145 0 229 68q84 66 84 182v361q0 117 -84 184q-84 68 -229 67 q-143 0 -225 -67q-86 -68 -86 -184v-361zM467 -283q0 82 82 82h12q80 0 80 -82v-14q0 -80 -80 -80h-12q-82 0 -82 80v14z" />
<glyph unicode="&#x1ece;" d="M117 485v484q0 242 143 377q147 137 420 137q270 0 418 -137q143 -135 143 -377v-484q0 -242 -143 -376q-147 -137 -418 -138q-272 0 -420 138q-143 135 -143 376zM264 485q0 -180 107 -276q109 -100 309 -100q201 0 307 100q106 96 107 276v484q0 180 -107 278 q-106 98 -307 99q-201 0 -309 -99q-106 -98 -107 -278v-484zM530 1876q-2 25 16 34q80 43 172 21q106 -29 107 -123q6 -76 -41 -133q-41 -49 -72 -62q-16 -12 -41 -14h-59q-39 18 10 51q31 25 66 62t28 80q-2 39 -45 51q-49 14 -98 -15q-43 -14 -39 27z" />
<glyph unicode="&#x1ecf;" horiz-adv-x="1103" d="M102 346v361q0 176 121 276q119 100 328 100q211 0 332 -100t121 -276v-361q0 -176 -121 -274q-121 -100 -332 -101q-209 0 -328 101q-121 100 -121 274zM240 346q0 -117 86 -182q84 -68 225 -68q145 0 229 68q84 66 84 182v361q0 117 -84 184q-84 68 -229 67 q-143 0 -225 -67q-86 -68 -86 -184v-361zM406 1475q-2 25 16 34q80 43 172 21q106 -29 107 -123q6 -76 -41 -133q-41 -49 -72 -62q-16 -12 -41 -14h-59q-39 18 10 51q31 25 66 62t28 80q-2 39 -45 51q-49 14 -98 -15q-43 -14 -39 27z" />
<glyph unicode="&#x1ed0;" d="M117 485v484q0 242 143 377q147 137 420 137q270 0 418 -137q143 -135 143 -377v-484q0 -242 -143 -376q-147 -137 -418 -138q-272 0 -420 138q-143 135 -143 376zM264 485q0 -180 107 -276q109 -100 309 -100q201 0 307 100q106 96 107 276v484q0 180 -107 278 q-106 98 -307 99q-201 0 -309 -99q-106 -98 -107 -278v-484zM348 1596l252 219q31 33 74 33h14q37 0 70 -33l252 -219q27 -31 -19 -31h-57q-41 0 -59 21l-197 170l-199 -170q-23 -20 -59 -21h-53q-45 0 -19 31zM408 1905q-20 27 4 41l330 205q47 25 70 -2l30 -37 q25 -31 -6 -43l-360 -191q-33 -14 -49 2z" />
<glyph unicode="&#x1ed1;" horiz-adv-x="1103" d="M102 346v361q0 176 121 276q119 100 328 100q211 0 332 -100t121 -276v-361q0 -176 -121 -274q-121 -100 -332 -101q-209 0 -328 101q-121 100 -121 274zM223 1231l252 219q31 33 74 33h14q37 0 70 -33l252 -219q27 -31 -19 -31h-57q-41 0 -59 21l-197 170l-199 -170 q-23 -20 -59 -21h-53q-45 0 -19 31zM240 346q0 -117 86 -182q84 -68 225 -68q145 0 229 68q84 66 84 182v361q0 117 -84 184q-84 68 -229 67q-143 0 -225 -67q-86 -68 -86 -184v-361zM315 1597q-20 27 4 41l330 205q47 25 70 -2l30 -37q25 -31 -6 -43l-360 -191 q-33 -14 -49 2z" />
<glyph unicode="&#x1ed2;" d="M117 485v484q0 242 143 377q147 137 420 137q270 0 418 -137q143 -135 143 -377v-484q0 -242 -143 -376q-147 -137 -418 -138q-272 0 -420 138q-143 135 -143 376zM264 485q0 -180 107 -276q109 -100 309 -100q201 0 307 100q106 96 107 276v484q0 180 -107 278 q-106 98 -307 99q-201 0 -309 -99q-106 -98 -107 -278v-484zM350 1593l252 219q31 33 74 33h14q37 0 70 -33l252 -219q27 -31 -19 -31h-57q-41 0 -59 21l-197 170l-199 -170q-23 -20 -59 -21h-53q-45 0 -19 31zM506 2105l31 37q23 29 67 2l332 -205q25 -14 4 -41l-20 -25 q-14 -16 -47 -2l-361 191q-31 12 -6 43z" />
<glyph unicode="&#x1ed3;" horiz-adv-x="1103" d="M102 346v361q0 176 121 276q119 100 328 100q211 0 332 -100t121 -276v-361q0 -176 -121 -274q-121 -100 -332 -101q-209 0 -328 101q-121 100 -121 274zM223 1231l252 219q31 33 74 33h14q37 0 70 -33l252 -219q27 -31 -19 -31h-57q-41 0 -59 21l-197 170l-199 -170 q-23 -20 -59 -21h-53q-45 0 -19 31zM240 346q0 -117 86 -182q84 -68 225 -68q145 0 229 68q84 66 84 182v361q0 117 -84 184q-84 68 -229 67q-143 0 -225 -67q-86 -68 -86 -184v-361zM317 1804l31 37q23 29 67 2l332 -205q25 -14 4 -41l-20 -25q-14 -16 -47 -2l-361 191 q-31 12 -6 43z" />
<glyph unicode="&#x1ed4;" d="M117 485v484q0 242 143 377q147 137 420 137q270 0 418 -137q143 -135 143 -377v-484q0 -242 -143 -376q-147 -137 -418 -138q-272 0 -420 138q-143 135 -143 376zM264 485q0 -180 107 -276q109 -100 309 -100q201 0 307 100q106 96 107 276v484q0 180 -107 278 q-106 98 -307 99q-201 0 -309 -99q-106 -98 -107 -278v-484zM348 1598l252 219q31 33 74 33h14q37 0 70 -33l252 -219q27 -31 -19 -31h-57q-41 0 -59 21l-197 170l-199 -170q-23 -20 -59 -21h-53q-45 0 -19 31zM819 2057q-2 25 16 34q80 43 172 21q106 -29 107 -123 q6 -76 -41 -133q-41 -49 -72 -62q-16 -12 -41 -14h-59q-39 18 10 51q31 25 66 62t28 80q-2 39 -45 51q-49 14 -98 -15q-43 -14 -39 27z" />
<glyph unicode="&#x1ed5;" horiz-adv-x="1103" d="M102 346v361q0 176 121 276q119 100 328 100q211 0 332 -100t121 -276v-361q0 -176 -121 -274q-121 -100 -332 -101q-209 0 -328 101q-121 100 -121 274zM223 1231l252 219q31 33 74 33h14q37 0 70 -33l252 -219q27 -31 -19 -31h-57q-41 0 -59 21l-197 170l-199 -170 q-23 -20 -59 -21h-53q-45 0 -19 31zM240 346q0 -117 86 -182q84 -68 225 -68q145 0 229 68q84 66 84 182v361q0 117 -84 184q-84 68 -229 67q-143 0 -225 -67q-86 -68 -86 -184v-361zM676 1723q-2 25 16 34q80 43 172 21q106 -29 107 -123q6 -76 -41 -133q-41 -49 -72 -62 q-16 -12 -41 -14h-59q-39 18 10 51q31 25 66 62t28 80q-2 39 -45 51q-49 14 -98 -15q-43 -14 -39 27z" />
<glyph unicode="&#x1ed6;" d="M117 485v484q0 242 143 377q147 137 420 137q270 0 418 -137q143 -135 143 -377v-484q0 -242 -143 -376q-147 -137 -418 -138q-272 0 -420 138q-143 135 -143 376zM264 485q0 -180 107 -276q109 -100 309 -100q201 0 307 100q106 96 107 276v484q0 180 -107 278 q-106 98 -307 99q-201 0 -309 -99q-106 -98 -107 -278v-484zM372 1593l252 219q31 33 74 33h14q37 0 70 -33l252 -219q27 -31 -19 -31h-57q-41 0 -59 21l-197 170l-199 -170q-23 -20 -59 -21h-53q-45 0 -19 31zM467 1906q0 203 160 203q78 0 166 -67q88 -70 137 -70 q82 0 82 113q0 25 22 24h41q25 0 25 -24q0 -203 -160 -203q-74 0 -162 69q-88 68 -139 68q-82 0 -82 -113q0 -25 -25 -24h-41q-25 0 -24 24z" />
<glyph unicode="&#x1ed7;" horiz-adv-x="1103" d="M102 346v361q0 176 121 276q119 100 328 100q211 0 332 -100t121 -276v-361q0 -176 -121 -274q-121 -100 -332 -101q-209 0 -328 101q-121 100 -121 274zM223 1231l252 219q31 33 74 33h14q37 0 70 -33l252 -219q27 -31 -19 -31h-57q-41 0 -59 21l-197 170l-199 -170 q-23 -20 -59 -21h-53q-45 0 -19 31zM238 1564q0 203 160 203q78 0 166 -67q88 -70 137 -70q82 0 82 113q0 25 22 24h41q25 0 25 -24q0 -203 -160 -203q-74 0 -162 69q-88 68 -139 68q-82 0 -82 -113q0 -25 -25 -24h-41q-25 0 -24 24zM240 346q0 -117 86 -182q84 -68 225 -68 q145 0 229 68q84 66 84 182v361q0 117 -84 184q-84 68 -229 67q-143 0 -225 -67q-86 -68 -86 -184v-361z" />
<glyph unicode="&#x1ed8;" d="M117 485v484q0 242 143 377q147 137 420 137q270 0 418 -137q143 -135 143 -377v-484q0 -242 -143 -376q-147 -137 -418 -138q-272 0 -420 138q-143 135 -143 376zM264 485q0 -180 107 -276q109 -100 309 -100q201 0 307 100q106 96 107 276v484q0 180 -107 278 q-106 98 -307 99q-201 0 -309 -99q-106 -98 -107 -278v-484zM348 1632l252 219q31 33 74 33h14q37 0 70 -33l252 -219q27 -31 -19 -31h-57q-41 0 -59 21l-197 170l-199 -170q-23 -20 -59 -21h-53q-45 0 -19 31zM592 -283q0 82 82 82h12q80 0 80 -82v-14q0 -80 -80 -80h-12 q-82 0 -82 80v14z" />
<glyph unicode="&#x1ed9;" horiz-adv-x="1103" d="M102 346v361q0 176 121 276q119 100 328 100q211 0 332 -100t121 -276v-361q0 -176 -121 -274q-121 -100 -332 -101q-209 0 -328 101q-121 100 -121 274zM223 1231l252 219q31 33 74 33h14q37 0 70 -33l252 -219q27 -31 -19 -31h-57q-41 0 -59 21l-197 170l-199 -170 q-23 -20 -59 -21h-53q-45 0 -19 31zM240 346q0 -117 86 -182q84 -68 225 -68q145 0 229 68q84 66 84 182v361q0 117 -84 184q-84 68 -229 67q-143 0 -225 -67q-86 -68 -86 -184v-361zM467 -283q0 82 82 82h12q80 0 80 -82v-14q0 -80 -80 -80h-12q-82 0 -82 80v14z" />
<glyph unicode="&#x1eda;" d="M117 485v484q0 242 143 377q147 137 420 137q270 0 418 -137q47 -43 78 -99q25 20 45 47q37 59 28 129q-4 31 31 33h51q31 0 31 -31q8 -104 -49 -190q-37 -51 -96 -86q25 -82 24 -180v-484q0 -242 -143 -376q-147 -137 -418 -138q-272 0 -420 138q-143 135 -143 376z M264 485q0 -180 107 -276q109 -100 309 -100q201 0 307 100q106 96 107 276v484q0 180 -107 278q-106 98 -307 99q-201 0 -309 -99q-106 -98 -107 -278v-484zM586 1640q-20 27 4 41l330 205q47 25 70 -2l30 -37q25 -31 -6 -43l-360 -191q-33 -14 -49 2z" />
<glyph unicode="&#x1edb;" horiz-adv-x="1155" d="M102 346v361q0 176 121 276q119 100 328 100q211 0 332 -100q61 -51 90 -119q12 12 24 27q37 59 29 129q-4 31 31 33h51q31 0 31 -31q8 -104 -49 -191q-36 -48 -89 -81q2 -20 3 -43v-361q0 -176 -121 -274q-121 -100 -332 -101q-209 0 -328 101q-121 100 -121 274z M240 346q0 -117 86 -182q84 -68 225 -68q145 0 229 68q84 66 84 182v361q0 117 -84 184q-84 68 -229 67q-143 0 -225 -67q-86 -68 -86 -184v-361zM397 1239q-20 27 4 41l330 205q47 25 70 -2l30 -37q25 -31 -6 -43l-360 -191q-33 -14 -49 2z" />
<glyph unicode="&#x1edc;" d="M117 485v484q0 242 143 377q147 137 420 137q270 0 418 -137q47 -43 78 -99q25 20 45 47q37 59 28 129q-4 31 31 33h51q31 0 31 -31q8 -104 -49 -190q-37 -51 -96 -86q25 -82 24 -180v-484q0 -242 -143 -376q-147 -137 -418 -138q-272 0 -420 138q-143 135 -143 376z M264 485q0 -180 107 -276q109 -100 309 -100q201 0 307 100q106 96 107 276v484q0 180 -107 278q-106 98 -307 99q-201 0 -309 -99q-106 -98 -107 -278v-484zM436 1847l31 37q23 29 67 2l332 -205q25 -14 4 -41l-20 -25q-14 -16 -47 -2l-361 191q-31 12 -6 43z" />
<glyph unicode="&#x1edd;" horiz-adv-x="1155" d="M102 346v361q0 176 121 276q119 100 328 100q211 0 332 -100q61 -51 90 -119q12 12 24 27q37 59 29 129q-4 31 31 33h51q31 0 31 -31q8 -104 -49 -191q-36 -48 -89 -81q2 -20 3 -43v-361q0 -176 -121 -274q-121 -100 -332 -101q-209 0 -328 101q-121 100 -121 274z M240 346q0 -117 86 -182q84 -68 225 -68q145 0 229 68q84 66 84 182v361q0 117 -84 184q-84 68 -229 67q-143 0 -225 -67q-86 -68 -86 -184v-361zM248 1446l31 37q23 29 67 2l332 -205q25 -14 4 -41l-20 -25q-14 -16 -47 -2l-361 191q-31 12 -6 43z" />
<glyph unicode="&#x1ede;" d="M117 485v484q0 242 143 377q147 137 420 137q270 0 418 -137q47 -43 78 -99q25 20 45 47q37 59 28 129q-4 31 31 33h51q31 0 31 -31q8 -104 -49 -190q-37 -51 -96 -86q25 -82 24 -180v-484q0 -242 -143 -376q-147 -137 -418 -138q-272 0 -420 138q-143 135 -143 376z M264 485q0 -180 107 -276q109 -100 309 -100q201 0 307 100q106 96 107 276v484q0 180 -107 278q-106 98 -307 99q-201 0 -309 -99q-106 -98 -107 -278v-484zM592 1876q-2 25 16 34q80 43 172 21q106 -29 107 -123q6 -76 -41 -133q-41 -49 -72 -62q-16 -12 -41 -14h-59 q-39 18 10 51q31 25 66 62t28 80q-2 39 -45 51q-49 14 -98 -15q-43 -14 -39 27z" />
<glyph unicode="&#x1edf;" horiz-adv-x="1155" d="M102 346v361q0 176 121 276q119 100 328 100q211 0 332 -100q61 -51 90 -119q12 12 24 27q37 59 29 129q-4 31 31 33h51q31 0 31 -31q8 -104 -49 -191q-36 -48 -89 -81q2 -20 3 -43v-361q0 -176 -121 -274q-121 -100 -332 -101q-209 0 -328 101q-121 100 -121 274z M240 346q0 -117 86 -182q84 -68 225 -68q145 0 229 68q84 66 84 182v361q0 117 -84 184q-84 68 -229 67q-143 0 -225 -67q-86 -68 -86 -184v-361zM438 1475q-2 25 16 34q80 43 172 21q106 -29 107 -123q6 -76 -41 -133q-41 -49 -72 -62q-16 -12 -41 -14h-59q-39 18 10 51 q31 25 66 62t28 80q-2 39 -45 51q-49 14 -98 -15q-43 -14 -39 27z" />
<glyph unicode="&#x1ee0;" d="M117 485v484q0 242 143 377q147 137 420 137q270 0 418 -137q47 -43 78 -99q25 20 45 47q37 59 28 129q-4 31 31 33h51q31 0 31 -31q8 -104 -49 -190q-37 -51 -96 -86q25 -82 24 -180v-484q0 -242 -143 -376q-147 -137 -418 -138q-272 0 -420 138q-143 135 -143 376z M264 485q0 -180 107 -276q109 -100 309 -100q201 0 307 100q106 96 107 276v484q0 180 -107 278q-106 98 -307 99q-201 0 -309 -99q-106 -98 -107 -278v-484zM424 1654q0 203 160 203q78 0 166 -67q88 -70 137 -70q82 0 82 113q0 25 22 24h41q25 0 25 -24q0 -203 -160 -203 q-74 0 -162 69q-88 68 -139 68q-82 0 -82 -113q0 -25 -25 -24h-41q-25 0 -24 24z" />
<glyph unicode="&#x1ee1;" horiz-adv-x="1155" d="M102 346v361q0 176 121 276q119 100 328 100q211 0 332 -100q61 -51 90 -119q12 12 24 27q37 59 29 129q-4 31 31 33h51q31 0 31 -31q8 -104 -49 -191q-36 -48 -89 -81q2 -20 3 -43v-361q0 -176 -121 -274q-121 -100 -332 -101q-209 0 -328 101q-121 100 -121 274z M229 1253q0 203 160 203q78 0 166 -67q88 -70 137 -70q82 0 82 113q0 25 22 24h41q25 0 25 -24q0 -203 -160 -203q-74 0 -162 69q-88 68 -139 68q-82 0 -82 -113q0 -25 -25 -24h-41q-25 0 -24 24zM240 346q0 -117 86 -182q84 -68 225 -68q145 0 229 68q84 66 84 182v361 q0 117 -84 184q-84 68 -229 67q-143 0 -225 -67q-86 -68 -86 -184v-361z" />
<glyph unicode="&#x1ee2;" d="M117 485v484q0 242 143 377q147 137 420 137q270 0 418 -137q47 -43 78 -99q25 20 45 47q37 59 28 129q-4 31 31 33h51q31 0 31 -31q8 -104 -49 -190q-37 -51 -96 -86q25 -82 24 -180v-484q0 -242 -143 -376q-147 -137 -418 -138q-272 0 -420 138q-143 135 -143 376z M264 485q0 -180 107 -276q109 -100 309 -100q201 0 307 100q106 96 107 276v484q0 180 -107 278q-106 98 -307 99q-201 0 -309 -99q-106 -98 -107 -278v-484zM653 -283q0 82 82 82h12q80 0 80 -82v-14q0 -80 -80 -80h-12q-82 0 -82 80v14z" />
<glyph unicode="&#x1ee3;" horiz-adv-x="1155" d="M102 346v361q0 176 121 276q119 100 328 100q211 0 332 -100q61 -51 90 -119q12 12 24 27q37 59 29 129q-4 31 31 33h51q31 0 31 -31q8 -104 -49 -191q-36 -48 -89 -81q2 -20 3 -43v-361q0 -176 -121 -274q-121 -100 -332 -101q-209 0 -328 101q-121 100 -121 274z M240 346q0 -117 86 -182q84 -68 225 -68q145 0 229 68q84 66 84 182v361q0 117 -84 184q-84 68 -229 67q-143 0 -225 -67q-86 -68 -86 -184v-361zM459 -283q0 82 82 82h12q80 0 80 -82v-14q0 -80 -80 -80h-12q-82 0 -82 80v14z" />
<glyph unicode="&#x1ee4;" horiz-adv-x="1396" d="M147 496v917q0 41 41 41h68q41 0 41 -41v-919q0 -385 401 -385t402 385v919q0 41 41 41h67q41 0 41 -41v-917q0 -246 -137 -383q-145 -143 -414 -144q-268 0 -413 144q-137 137 -138 383zM612 -283q0 82 82 82h12q80 0 80 -82v-14q0 -80 -80 -80h-12q-82 0 -82 80v14z " />
<glyph unicode="&#x1ee5;" horiz-adv-x="1124" d="M127 371v645q0 37 37 37h63q37 0 37 -37v-639q0 -281 287 -281q154 0 266 45q37 16 37 58v817q0 37 37 37h65q37 0 37 -37v-864q0 -80 -78 -113q-164 -68 -383 -68q-406 0 -405 400zM473 -283q0 82 82 82h12q80 0 80 -82v-14q0 -80 -80 -80h-12q-82 0 -82 80v14z" />
<glyph unicode="&#x1ee6;" horiz-adv-x="1396" d="M147 496v917q0 41 41 41h68q41 0 41 -41v-919q0 -385 401 -385t402 385v919q0 41 41 41h67q41 0 41 -41v-917q0 -246 -137 -383q-145 -143 -414 -144q-268 0 -413 144q-137 137 -138 383zM551 1876q-2 25 16 34q80 43 172 21q106 -29 107 -123q6 -76 -41 -133 q-41 -49 -72 -62q-16 -12 -41 -14h-59q-39 18 10 51q31 25 66 62t28 80q-2 39 -45 51q-49 14 -98 -15q-43 -14 -39 27z" />
<glyph unicode="&#x1ee7;" horiz-adv-x="1124" d="M127 371v645q0 37 37 37h63q37 0 37 -37v-639q0 -281 287 -281q154 0 266 45q37 16 37 58v817q0 37 37 37h65q37 0 37 -37v-864q0 -80 -78 -113q-164 -68 -383 -68q-406 0 -405 400zM412 1475q-2 25 16 34q80 43 172 21q106 -29 107 -123q6 -76 -41 -133q-41 -49 -72 -62 q-16 -12 -41 -14h-59q-39 18 10 51q31 25 66 62t28 80q-2 39 -45 51q-49 14 -98 -15q-43 -14 -39 27z" />
<glyph unicode="&#x1ee8;" horiz-adv-x="1433" d="M147 496v917q0 41 41 41h68q41 0 41 -41v-919q0 -385 401 -385t402 385v919q0 41 41 41h67q41 0 41 -41v-162q23 18 41 43q37 59 29 129q-4 31 31 33h51q31 0 31 -31q8 -104 -50 -190q-49 -68 -133 -107v-632q0 -246 -137 -383q-145 -143 -414 -144q-268 0 -413 144 q-137 137 -138 383zM635 1640q-20 27 4 41l330 205q47 25 70 -2l30 -37q25 -31 -6 -43l-360 -191q-33 -14 -49 2z" />
<glyph unicode="&#x1ee9;" horiz-adv-x="1204" d="M127 371v645q0 37 37 37h63q37 0 37 -37v-639q0 -281 287 -281q154 0 266 45q37 16 37 58v817q0 37 37 37h65q37 0 37 -37v-176q29 20 51 51q37 59 29 129q-4 31 31 33h51q31 0 31 -31q8 -104 -49 -191q-52 -71 -144 -110v-569q0 -80 -78 -113q-164 -68 -383 -68 q-406 0 -405 400zM471 1239q-20 27 4 41l330 205q47 25 70 -2l30 -37q25 -31 -6 -43l-360 -191q-33 -14 -49 2z" />
<glyph unicode="&#x1eea;" horiz-adv-x="1433" d="M147 496v917q0 41 41 41h68q41 0 41 -41v-919q0 -385 401 -385t402 385v919q0 41 41 41h67q41 0 41 -41v-162q23 18 41 43q37 59 29 129q-4 31 31 33h51q31 0 31 -31q8 -104 -50 -190q-49 -68 -133 -107v-632q0 -246 -137 -383q-145 -143 -414 -144q-268 0 -413 144 q-137 137 -138 383zM485 1847l31 37q23 29 67 2l332 -205q25 -14 4 -41l-20 -25q-14 -16 -47 -2l-361 191q-31 12 -6 43z" />
<glyph unicode="&#x1eeb;" horiz-adv-x="1204" d="M127 371v645q0 37 37 37h63q37 0 37 -37v-639q0 -281 287 -281q154 0 266 45q37 16 37 58v817q0 37 37 37h65q37 0 37 -37v-176q29 20 51 51q37 59 29 129q-4 31 31 33h51q31 0 31 -31q8 -104 -49 -191q-52 -71 -144 -110v-569q0 -80 -78 -113q-164 -68 -383 -68 q-406 0 -405 400zM317 1446l31 37q23 29 67 2l332 -205q25 -14 4 -41l-20 -25q-14 -16 -47 -2l-361 191q-31 12 -6 43z" />
<glyph unicode="&#x1eec;" horiz-adv-x="1433" d="M147 496v917q0 41 41 41h68q41 0 41 -41v-919q0 -385 401 -385t402 385v919q0 41 41 41h67q41 0 41 -41v-162q23 18 41 43q37 59 29 129q-4 31 31 33h51q31 0 31 -31q8 -104 -50 -190q-49 -68 -133 -107v-632q0 -246 -137 -383q-145 -143 -414 -144q-268 0 -413 144 q-137 137 -138 383zM643 1876q-2 25 16 34q80 43 172 21q106 -29 107 -123q6 -76 -41 -133q-41 -49 -72 -62q-16 -12 -41 -14h-59q-39 18 10 51q31 25 66 62t28 80q-2 39 -45 51q-49 14 -98 -15q-43 -14 -39 27z" />
<glyph unicode="&#x1eed;" horiz-adv-x="1204" d="M127 371v645q0 37 37 37h63q37 0 37 -37v-639q0 -281 287 -281q154 0 266 45q37 16 37 58v817q0 37 37 37h65q37 0 37 -37v-176q29 20 51 51q37 59 29 129q-4 31 31 33h51q31 0 31 -31q8 -104 -49 -191q-52 -71 -144 -110v-569q0 -80 -78 -113q-164 -68 -383 -68 q-406 0 -405 400zM500 1475q-2 25 16 34q80 43 172 21q106 -29 107 -123q6 -76 -41 -133q-41 -49 -72 -62q-16 -12 -41 -14h-59q-39 18 10 51q31 25 66 62t28 80q-2 39 -45 51q-49 14 -98 -15q-43 -14 -39 27z" />
<glyph unicode="&#x1eee;" horiz-adv-x="1433" d="M147 496v917q0 41 41 41h68q41 0 41 -41v-919q0 -385 401 -385t402 385v919q0 41 41 41h67q41 0 41 -41v-162q23 18 41 43q37 59 29 129q-4 31 31 33h51q31 0 31 -31q8 -104 -50 -190q-49 -68 -133 -107v-632q0 -246 -137 -383q-145 -143 -414 -144q-268 0 -413 144 q-137 137 -138 383zM473 1654q0 203 160 203q78 0 166 -67q88 -70 137 -70q82 0 82 113q0 25 22 24h41q25 0 25 -24q0 -203 -160 -203q-74 0 -162 69q-88 68 -139 68q-82 0 -82 -113q0 -25 -25 -24h-41q-25 0 -24 24z" />
<glyph unicode="&#x1eef;" horiz-adv-x="1204" d="M127 371v645q0 37 37 37h63q37 0 37 -37v-639q0 -281 287 -281q154 0 266 45q37 16 37 58v817q0 37 37 37h65q37 0 37 -37v-176q29 20 51 51q37 59 29 129q-4 31 31 33h51q31 0 31 -31q8 -104 -49 -191q-52 -71 -144 -110v-569q0 -80 -78 -113q-164 -68 -383 -68 q-406 0 -405 400zM305 1253q0 203 160 203q78 0 166 -67q88 -70 137 -70q82 0 82 113q0 25 22 24h41q25 0 25 -24q0 -203 -160 -203q-74 0 -162 69q-88 68 -139 68q-82 0 -82 -113q0 -25 -25 -24h-41q-25 0 -24 24z" />
<glyph unicode="&#x1ef0;" horiz-adv-x="1433" d="M147 496v917q0 41 41 41h68q41 0 41 -41v-919q0 -385 401 -385t402 385v919q0 41 41 41h67q41 0 41 -41v-162q23 18 41 43q37 59 29 129q-4 31 31 33h51q31 0 31 -31q8 -104 -50 -190q-49 -68 -133 -107v-632q0 -246 -137 -383q-145 -143 -414 -144q-268 0 -413 144 q-137 137 -138 383zM625 -283q0 82 82 82h12q80 0 80 -82v-14q0 -80 -80 -80h-12q-82 0 -82 80v14z" />
<glyph unicode="&#x1ef1;" horiz-adv-x="1204" d="M127 371v645q0 37 37 37h63q37 0 37 -37v-639q0 -281 287 -281q154 0 266 45q37 16 37 58v817q0 37 37 37h65q37 0 37 -37v-176q29 20 51 51q37 59 29 129q-4 31 31 33h51q31 0 31 -31q8 -104 -49 -191q-52 -71 -144 -110v-569q0 -80 -78 -113q-164 -68 -383 -68 q-406 0 -405 400zM477 -283q0 82 82 82h12q80 0 80 -82v-14q0 -80 -80 -80h-12q-82 0 -82 80v14z" />
<glyph unicode="&#x1ef2;" horiz-adv-x="1284" d="M35 1413q-27 41 20 41h84q57 0 78 -37l428 -674l432 674q20 37 78 37h78q47 0 20 -41l-534 -823v-549q0 -41 -41 -41h-68q-41 0 -41 41v551zM430 1788l31 37q23 27 69 2l336 -199q25 -14 2 -41l-18 -22q-12 -16 -49 -2l-365 182q-31 12 -6 43z" />
<glyph unicode="&#x1ef3;" horiz-adv-x="1128" d="M127 397v619q0 37 37 37h63q37 0 37 -37v-613q0 -281 287 -280q131 0 303 55v838q0 37 37 37h65q37 0 37 -37v-1079q0 -442 -436 -443q-289 0 -407 219q-25 41 14 62l45 22q37 20 59 -14q88 -164 287 -164q299 0 299 311v121q-180 -53 -322 -53q-406 0 -405 399z M344 1434l31 36q23 27 69 5l332 -207q27 -14 2 -41l-18 -23q-12 -16 -49 -4l-361 191q-31 12 -6 43z" />
<glyph unicode="&#x1ef4;" horiz-adv-x="1284" d="M37 1413q-27 41 20 41h84q57 0 78 -37l428 -674l432 674q20 37 78 37h78q47 0 20 -41l-534 -823v-549q0 -41 -41 -41h-68q-41 0 -41 41v551zM555 -283q0 82 82 82h12q80 0 80 -82v-14q0 -80 -80 -80h-12q-82 0 -82 80v14z" />
<glyph unicode="&#x1ef5;" horiz-adv-x="1128" d="M127 397v619q0 37 37 37h63q37 0 37 -37v-613q0 -281 287 -280q131 0 303 55v838q0 37 37 37h65q37 0 37 -37v-1079q0 -442 -436 -443q-289 0 -407 219q-25 41 14 62l45 22q37 20 59 -14q88 -164 287 -164q299 0 299 311v121q-180 -53 -322 -53q-406 0 -405 399z M1012 -283q0 82 82 82h12q80 0 80 -82v-14q0 -80 -80 -80h-12q-82 0 -82 80v14z" />
<glyph unicode="&#x1ef6;" horiz-adv-x="1284" d="M37 1413q-27 41 20 41h84q57 0 78 -37l428 -674l432 674q20 37 78 37h78q47 0 20 -41l-534 -823v-549q0 -41 -41 -41h-68q-41 0 -41 41v551zM494 1876q-2 25 16 34q80 43 172 21q106 -29 107 -123q6 -76 -41 -133q-41 -49 -72 -62q-16 -12 -41 -14h-59q-39 18 10 51 q31 25 66 62t28 80q-2 39 -45 51q-49 14 -98 -15q-43 -14 -39 27z" />
<glyph unicode="&#x1ef7;" horiz-adv-x="1128" d="M127 397v619q0 37 37 37h63q37 0 37 -37v-613q0 -281 287 -280q131 0 303 55v838q0 37 37 37h65q37 0 37 -37v-1079q0 -442 -436 -443q-289 0 -407 219q-25 41 14 62l45 22q37 20 59 -14q88 -164 287 -164q299 0 299 311v121q-180 -53 -322 -53q-406 0 -405 399z M412 1475q-2 25 16 34q80 43 172 21q106 -29 107 -123q6 -76 -41 -133q-41 -49 -72 -62q-16 -12 -41 -14h-59q-39 18 10 51q31 25 66 62t28 80q-2 39 -45 51q-49 14 -98 -15q-43 -14 -39 27z" />
<glyph unicode="&#x1ef8;" horiz-adv-x="1284" d="M37 1413q-27 41 20 41h84q57 0 78 -37l428 -674l432 674q20 37 78 37h78q47 0 20 -41l-534 -823v-549q0 -41 -41 -41h-68q-41 0 -41 41v551zM326 1654q0 203 160 203q78 0 166 -67q88 -70 137 -70q82 0 82 113q0 25 22 24h41q25 0 25 -24q0 -203 -160 -203q-74 0 -162 69 q-88 68 -139 68q-82 0 -82 -113q0 -25 -25 -24h-41q-25 0 -24 24z" />
<glyph unicode="&#x1ef9;" horiz-adv-x="1128" d="M127 397v619q0 37 37 37h63q37 0 37 -37v-613q0 -281 287 -280q131 0 303 55v838q0 37 37 37h65q37 0 37 -37v-1079q0 -442 -436 -443q-289 0 -407 219q-25 41 14 62l45 22q37 20 59 -14q88 -164 287 -164q299 0 299 311v121q-180 -53 -322 -53q-406 0 -405 399z M244 1253q0 203 160 203q78 0 166 -67q88 -70 137 -70q82 0 82 113q0 25 22 24h41q25 0 25 -24q0 -203 -160 -203q-74 0 -162 69q-88 68 -139 68q-82 0 -82 -113q0 -25 -25 -24h-41q-25 0 -24 24z" />
<glyph unicode="&#x2000;" horiz-adv-x="1091" />
<glyph unicode="&#x2001;" horiz-adv-x="2182" />
<glyph unicode="&#x2002;" horiz-adv-x="1091" />
<glyph unicode="&#x2003;" horiz-adv-x="2182" />
<glyph unicode="&#x2004;" horiz-adv-x="727" />
<glyph unicode="&#x2005;" horiz-adv-x="545" />
<glyph unicode="&#x2006;" horiz-adv-x="363" />
<glyph unicode="&#x2007;" horiz-adv-x="363" />
<glyph unicode="&#x2008;" horiz-adv-x="272" />
<glyph unicode="&#x2009;" horiz-adv-x="436" />
<glyph unicode="&#x200a;" horiz-adv-x="121" />
<glyph unicode="&#x2010;" horiz-adv-x="864" d="M127 518v51q0 41 39 41h530q41 0 41 -41v-51q0 -41 -41 -41h-530q-39 0 -39 41z" />
<glyph unicode="&#x2011;" horiz-adv-x="864" d="M127 518v51q0 41 39 41h530q41 0 41 -41v-51q0 -41 -41 -41h-530q-39 0 -39 41z" />
<glyph unicode="&#x2012;" horiz-adv-x="864" d="M127 518v51q0 41 39 41h530q41 0 41 -41v-51q0 -41 -41 -41h-530q-39 0 -39 41z" />
<glyph unicode="&#x2013;" horiz-adv-x="1177" d="M127 522v51q0 41 39 41h846q41 0 41 -41v-51q0 -41 -41 -41h-846q-39 0 -39 41z" />
<glyph unicode="&#x2014;" horiz-adv-x="1585" d="M125 520v53q0 41 41 41h1253q41 0 41 -41v-53q0 -41 -41 -41h-1253q-41 0 -41 41z" />
<glyph unicode="&#x2018;" horiz-adv-x="405" d="M102 1085l115 332q14 37 47 37h25q29 0 26 -29l-69 -340q-8 -45 -51 -45h-56q-55 0 -37 45z" />
<glyph unicode="&#x2019;" horiz-adv-x="395" d="M109 1069l69 340q8 45 51 45h56q55 0 37 -45l-115 -332q-14 -37 -47 -37h-25q-29 0 -26 29z" />
<glyph unicode="&#x201a;" horiz-adv-x="350" d="M111 188q0 37 36 37h60q39 0 37 -37l-25 -409q-6 -37 -41 -37h-31q-37 0 -36 37v409z" />
<glyph unicode="&#x201c;" horiz-adv-x="653" d="M102 1085l115 332q14 37 47 37h25q29 0 26 -29l-69 -340q-8 -45 -51 -45h-56q-55 0 -37 45zM348 1085l117 332q14 37 47 37h25q29 0 26 -29l-69 -340q-8 -45 -54 -45h-53q-53 0 -39 45z" />
<glyph unicode="&#x201d;" horiz-adv-x="643" d="M109 1069l69 340q8 45 51 45h56q55 0 37 -45l-115 -332q-14 -37 -47 -37h-25q-29 0 -26 29zM356 1069l70 340q8 45 51 45h53q57 0 39 -45l-114 -332q-14 -37 -47 -37h-25q-33 0 -27 29z" />
<glyph unicode="&#x201e;" horiz-adv-x="618" d="M49 -219l70 340q6 45 51 45h53q57 0 39 -45l-117 -332q-10 -37 -45 -37h-26q-31 0 -25 29zM297 -219l68 340q8 45 53 45h53q57 0 39 -45l-117 -332q-10 -37 -45 -37h-26q-31 0 -25 29z" />
<glyph unicode="&#x2020;" horiz-adv-x="1089" d="M66 881v57q0 41 38 41h373v434q0 41 39 41h59q41 0 41 -41v-434h369q41 0 41 -41v-57q0 -41 -41 -41h-369v-1004q0 -41 -41 -41h-59q-39 0 -39 41v1004h-373q-39 0 -38 41z" />
<glyph unicode="&#x2021;" horiz-adv-x="1183" d="M111 881v57q0 41 41 41h370v434q0 41 41 41h60q39 0 39 -41v-434h368q41 0 41 -41v-57q0 -41 -41 -41h-368v-434h370q41 0 41 -39v-58q0 -41 -41 -41h-370v-432q0 -41 -39 -41h-60q-41 0 -41 41v432h-370q-39 0 -39 41v58q0 39 39 39h370v434h-370q-41 0 -41 41z" />
<glyph unicode="&#x2022;" horiz-adv-x="622" d="M166 539q0 63 41 104q41 43 104 43t105 -43q41 -41 41 -104q0 -61 -41 -103q-41 -43 -105 -43q-63 0 -104 43q-41 41 -41 103z" />
<glyph unicode="&#x2026;" horiz-adv-x="1243" d="M102 70v12q0 82 82 82h13q47 0 63 -17q16 -18 16 -65v-12q0 -82 -79 -82h-13q-82 0 -82 82zM535 70v12q0 47 16 65q16 16 63 17h13q82 0 82 -82v-12q0 -82 -82 -82h-13q-47 0 -63 16q-16 18 -16 66zM965 70v12q0 82 82 82h12q47 0 63 -17q16 -18 17 -65v-12 q0 -82 -80 -82h-12q-82 0 -82 82z" />
<glyph unicode="&#x202f;" horiz-adv-x="436" />
<glyph unicode="&#x2030;" horiz-adv-x="2418" d="M74 1034v150q0 141 82 221q86 80 241 80q158 0 244 -80q82 -80 82 -221v-150q0 -299 -326 -299q-156 0 -241 80q-82 78 -82 219zM190 1040q0 -193 207 -192q209 0 209 192v140q0 193 -209 192q-207 0 -207 -192v-140zM250 41l1016 1378q25 35 73 35h56q47 0 18 -39 l-1014 -1378q-25 -37 -80 -37h-47q-49 0 -22 41zM940 266v152q0 141 82 221q86 80 242 80q158 0 243 -80q82 -80 82 -221v-152q0 -139 -82 -217q-86 -80 -243 -80q-156 0 -242 80q-82 78 -82 217zM1057 274q0 -195 207 -194q207 0 206 194v138q0 195 -206 194 q-207 0 -207 -194v-138zM1702 266v152q0 141 82 221q86 80 241 80q158 0 244 -80q82 -80 82 -221v-152q0 -139 -82 -217q-86 -80 -244 -80q-156 0 -241 80q-82 78 -82 217zM1819 274q0 -195 206 -194q207 0 207 194v138q0 195 -207 194q-207 0 -206 -194v-138z" />
<glyph unicode="&#x2039;" horiz-adv-x="688" d="M78 514q-20 25 0 47l411 412q25 27 48 0l41 -41q23 -25 0 -47l-345 -344l342 -342q23 -23 0 -47l-43 -43q-25 -23 -49 0z" />
<glyph unicode="&#x203a;" horiz-adv-x="688" d="M104 885q-23 23 0 47l41 41q25 27 48 0l411 -412q20 -23 0 -47l-405 -405q-25 -23 -49 0l-44 43q-23 25 0 47l343 342z" />
<glyph unicode="&#x2044;" horiz-adv-x="325" d="M-426 12q-6 12 8 29l1014 1378q23 35 74 35h53q49 0 20 -39l-1011 -1378q-27 -37 -82 -37h-49q-20 0 -27 12z" />
<glyph unicode="&#x205f;" horiz-adv-x="545" />
<glyph unicode="&#x20ac;" horiz-adv-x="1488" d="M61 545l13 39q10 35 49 34h178v197h-131q-37 0 -29 37l13 39q10 35 49 35h96v65q0 229 147 361q150 133 416 133q373 0 502 -242q29 -45 -16 -69l-48 -23q-41 -23 -69 18q-84 176 -369 177q-197 0 -303 -93q-109 -92 -108 -258v-69h634q37 0 27 -35l-12 -41 q-10 -35 -49 -35h-605v-197h547q39 0 29 -34l-12 -41q-10 -35 -49 -35h-510v-53q4 -166 110 -256q109 -90 301 -90q291 0 377 190q25 39 66 18l49 -24q45 -23 18 -70q-131 -254 -510 -254q-264 0 -409 127q-145 125 -152 359v53h-211q-37 0 -29 37z" />
<glyph unicode="&#x20bd;" horiz-adv-x="1329" d="M74 315v35q0 37 39 37h96v1026q0 41 41 41h557q211 0 332 -115t121 -319q0 -205 -121 -320q-121 -113 -332 -112h-449v-201h705q39 0 39 -37v-35q0 -37 -39 -36h-705v-238q0 -41 -41 -41h-67q-41 0 -41 41v238h-96q-39 0 -39 36zM358 725h435q145 0 229 78q84 80 84 217 t-84 217q-84 78 -229 78h-435v-590z" />
<glyph unicode="&#x2122;" horiz-adv-x="1282" d="M88 1370v25q0 29 25 28h417q27 0 27 -28v-25q0 -27 -27 -27h-163v-409q0 -27 -33 -27h-23q-31 0 -30 27v409h-168q-25 0 -25 27zM608 934v461q0 29 31 28h14q23 0 35 -18l184 -283l185 281q14 20 33 20h18q29 0 29 -26v-463q0 -27 -27 -27h-27q-29 0 -28 27v231 q0 29 4 107l-148 -225q-12 -18 -32 -19h-13q-18 0 -30 14l-150 222q4 -70 4 -99v-231q0 -27 -26 -27h-27q-29 0 -29 27z" />
<glyph unicode="&#x25fc;" horiz-adv-x="1054" d="M0 0v1055h1055v-1055h-1055z" />
</font>
</defs>
</svg>
