<?xml version="1.0" standalone="no"?>
<!DOCTYPE svg PUBLIC "-//W3C//DTD SVG 1.1//EN" "http://www.w3.org/Graphics/SVG/1.1/DTD/svg11.dtd" >
<svg xmlns="http://www.w3.org/2000/svg" xmlns:xlink="http://www.w3.org/1999/xlink" version="1.1">
<metadata>
Created by FontForge 20160407 at Fri Oct  7 14:17:52 2016
 By Jimmy Wärting
Copyright \(c\) 2012 by Fontfabric LLC. All rights reserved.
</metadata>
<defs>
<font id="iCielPanton-BlackItalic" horiz-adv-x="545" >
  <font-face 
    font-family="iCiel Panton"
    font-weight="900"
    font-style="italic"
    font-stretch="normal"
    units-per-em="1000"
    panose-1="0 0 10 0 0 0 0 0 0 0"
    ascent="740"
    descent="-260"
    x-height="520"
    cap-height="710"
    bbox="-370.373 -260 1248.84 1113.15"
    underline-thickness="50"
    underline-position="-100"
    stemh="161"
    unicode-range="U+0020-FB02"
  />
<missing-glyph horiz-adv-x="686" 
d="M638 668v-626c0 -28 -14 -42 -43 -42h-499c-29 0 -43 14 -43 42v626c0 28 14 42 43 42h499c29 0 43 -14 43 -42zM251 535v-360h189v360h-189z" />
    <glyph glyph-name="uniFB01" unicode="fi" horiz-adv-x="618" 
d="M401 740h213c15 0 24 -3 29 -9c5 -5 6 -15 3 -30l-13 -73c-5 -27 -20 -40 -46 -40h-200c-45 0 -71 -21 -78 -64l-1 -4h268c25 0 36 -13 31 -38l-78 -444c-5 -25 -20 -38 -45 -38h-110c-25 0 -36 13 -31 38l58 330h-120l-58 -330c-5 -25 -20 -38 -46 -38h-108
c-26 0 -37 13 -32 38l58 330h-33c-25 0 -36 13 -31 39l13 75c5 25 20 38 45 38h33v3c25 145 118 217 279 217z" />
    <glyph glyph-name="uniFB02" unicode="fl" horiz-adv-x="619" 
d="M401 740h213c15 0 24 -3 29 -9c5 -5 6 -15 3 -30l-117 -663c-5 -25 -20 -38 -45 -38h-110c-25 0 -36 13 -31 38l97 550h-53c-45 0 -71 -21 -78 -64l-1 -4h40c25 0 36 -13 31 -38l-13 -75c-5 -26 -20 -39 -45 -39h-40l-58 -330c-5 -25 -20 -38 -46 -38h-108
c-26 0 -37 13 -32 38l58 330h-33c-25 0 -36 13 -31 39l13 75c5 25 20 38 45 38h33v4c25 144 118 216 279 216z" />
    <glyph glyph-name=".notdef" horiz-adv-x="686" 
d="M638 668v-626c0 -28 -14 -42 -43 -42h-499c-29 0 -43 14 -43 42v626c0 28 14 42 43 42h499c29 0 43 -14 43 -42zM251 535v-360h189v360h-189z" />
    <glyph glyph-name="nonmarkingreturn" unicode=" " horiz-adv-x="182" 
 />
    <glyph glyph-name="A" unicode="A" horiz-adv-x="688" 
d="M518 677l119 -636c5 -27 -7 -41 -37 -41h-104c-25 0 -42 3 -51 9s-15 17 -16 33l-10 72h-217l-35 -72c-13 -28 -40 -42 -80 -42h-110c-28 0 -34 14 -19 41l342 634c12 23 31 35 58 35h113c27 0 43 -11 47 -33zM401 271l-16 117c-5 45 -4 92 3 140h-9
c-9 -48 -24 -94 -45 -139l-57 -118h124z" />
    <glyph glyph-name="Aacute" unicode="&#xc1;" horiz-adv-x="688" 
d="M305 833l156 81c30 16 52 15 66 -3l40 -58c13 -19 9 -32 -12 -40l-192 -56c-24 -7 -39 -5 -45 5l-21 33c-11 17 -9 29 8 38zM518 677l119 -636c5 -27 -7 -41 -37 -41h-104c-25 0 -42 3 -51 9s-15 17 -16 33l-10 72h-217l-35 -72c-13 -28 -40 -42 -80 -42h-110
c-28 0 -34 14 -19 41l342 634c12 23 31 35 58 35h113c27 0 43 -11 47 -33zM401 271l-16 117c-5 45 -4 92 3 140h-9c-9 -48 -24 -94 -45 -139l-57 -118h124z" />
    <glyph glyph-name="Abreve" unicode="&#x102;" horiz-adv-x="688" 
d="M619 860c-39 -71 -105 -106 -196 -106s-143 35 -158 106c-3 16 4 28 23 35l71 25c18 6 30 2 36 -12c8 -22 24 -33 49 -33c23 0 43 11 60 33c10 13 23 18 38 13l65 -26c17 -7 21 -18 12 -35zM518 677l119 -636c5 -27 -7 -41 -37 -41h-104c-25 0 -42 3 -51 9s-15 17 -16 33
l-10 72h-217l-35 -72c-13 -28 -40 -42 -80 -42h-110c-28 0 -34 14 -19 41l342 634c12 23 31 35 58 35h113c27 0 43 -11 47 -33zM401 271l-16 117c-5 45 -4 92 3 140h-9c-9 -48 -24 -94 -45 -139l-57 -118h124z" />
    <glyph glyph-name="Acircumflex" unicode="&#xc2;" horiz-adv-x="688" 
d="M440 920h32c28 0 50 -10 66 -30l85 -102c7 -9 9 -16 6 -23s-12 -11 -27 -11h-82c-34 0 -55 7 -64 21l-22 36l-37 -35c-15 -15 -38 -22 -69 -22h-80c-15 0 -23 4 -24 11s3 14 14 23l120 102c24 20 51 30 82 30zM518 677l119 -636c5 -27 -7 -41 -37 -41h-104
c-25 0 -42 3 -51 9s-15 17 -16 33l-10 72h-217l-35 -72c-13 -28 -40 -42 -80 -42h-110c-28 0 -34 14 -19 41l342 634c12 23 31 35 58 35h113c27 0 43 -11 47 -33zM401 271l-16 117c-5 45 -4 92 3 140h-9c-9 -48 -24 -94 -45 -139l-57 -118h124z" />
    <glyph glyph-name="Adieresis" unicode="&#xc4;" horiz-adv-x="688" 
d="M339 914h7c28 0 46 -5 55 -15c9 -11 12 -29 7 -56l-2 -13c-5 -27 -14 -45 -26 -55c-13 -11 -33 -16 -61 -16h-7c-28 0 -46 5 -54 16c-9 10 -11 28 -6 55l3 13c5 27 13 46 24 56c12 10 32 15 60 15zM554 914h7c28 0 46 -5 55 -15s11 -29 6 -56l-2 -13
c-5 -27 -14 -45 -26 -55c-12 -11 -32 -16 -60 -16h-7c-27 0 -45 5 -54 16c-9 10 -12 28 -7 55l3 13c5 27 13 45 25 56c13 10 33 15 60 15zM518 677l119 -636c5 -27 -7 -41 -37 -41h-104c-25 0 -42 3 -51 9s-15 17 -16 33l-10 72h-217l-35 -72c-13 -28 -40 -42 -80 -42h-110
c-28 0 -34 14 -19 41l342 634c12 23 31 35 58 35h113c27 0 43 -11 47 -33zM401 271l-16 117c-5 45 -4 92 3 140h-9c-9 -48 -24 -94 -45 -139l-57 -118h124z" />
    <glyph glyph-name="Agrave" unicode="&#xc0;" horiz-adv-x="688" 
d="M316 854l62 60c19 18 41 19 66 3l126 -83c15 -9 14 -21 -3 -38l-34 -34c-10 -10 -26 -11 -47 -4l-171 56c-19 7 -18 20 1 40zM518 677l119 -636c5 -27 -7 -41 -37 -41h-104c-25 0 -42 3 -51 9s-15 17 -16 33l-10 72h-217l-35 -72c-13 -28 -40 -42 -80 -42h-110
c-28 0 -34 14 -19 41l342 634c12 23 31 35 58 35h113c27 0 43 -11 47 -33zM401 271l-16 117c-5 45 -4 92 3 140h-9c-9 -48 -24 -94 -45 -139l-57 -118h124z" />
    <glyph glyph-name="Amacron" unicode="&#x100;" horiz-adv-x="688" 
d="M325 892h243c15 0 24 -2 28 -7c5 -5 6 -14 3 -29l-8 -42c-4 -24 -18 -36 -43 -36h-243c-15 0 -24 2 -28 7s-5 14 -2 29l8 42c4 24 18 36 42 36zM518 677l119 -636c5 -27 -7 -41 -37 -41h-104c-25 0 -42 3 -51 9s-15 17 -16 33l-10 72h-217l-35 -72
c-13 -28 -40 -42 -80 -42h-110c-28 0 -34 14 -19 41l342 634c12 23 31 35 58 35h113c27 0 43 -11 47 -33zM401 271l-16 117c-5 45 -4 92 3 140h-9c-9 -48 -24 -94 -45 -139l-57 -118h124z" />
    <glyph glyph-name="Aogonek" unicode="&#x104;" horiz-adv-x="688" 
d="M358 710h113c27 0 43 -11 47 -33l119 -636c3 -15 0 -27 -9 -35c-55 -47 -83 -87 -84 -121c0 -13 5 -19 15 -19c6 0 12 2 19 6c13 7 21 5 23 -6l13 -51c3 -13 0 -22 -11 -29c-31 -21 -71 -32 -118 -32c-61 0 -93 24 -95 73c-1 57 35 114 107 173c-26 1 -44 4 -53 10
c-9 5 -14 16 -15 32l-10 72h-217l-35 -72c-13 -28 -40 -42 -80 -42h-110c-28 0 -34 14 -19 41l342 634c12 23 31 35 58 35zM401 271l-16 117c-5 45 -4 92 3 140h-9c-9 -48 -24 -94 -45 -139l-57 -118h124z" />
    <glyph glyph-name="Aring" unicode="&#xc5;" horiz-adv-x="688" 
d="M261 745c8 44 29 79 64 105c33 25 73 37 120 37c45 0 80 -13 104 -38c24 -26 32 -61 24 -104c-7 -41 -26 -73 -55 -97l119 -607c6 -27 -6 -41 -37 -41h-104c-25 0 -42 3 -51 9s-15 17 -16 33l-10 72h-217l-35 -72c-13 -28 -40 -42 -80 -42h-110c-28 0 -34 14 -19 41
l328 603c-23 25 -32 59 -25 101zM461 745c5 29 -6 43 -34 43c-31 0 -49 -14 -54 -43s8 -43 39 -43c28 0 44 14 49 43zM401 271l-16 117c-5 45 -4 92 3 140h-9c-9 -48 -24 -94 -45 -139l-57 -118h124z" />
    <glyph glyph-name="Aringacute" unicode="&#x1fa;" horiz-adv-x="687" 
d="M344 932l136 52c29 11 50 11 62 -1l38 -45c14 -15 10 -24 -11 -29l-176 -42c-23 -5 -37 -4 -43 3l-22 30c-11 13 -6 23 16 32zM272 729c7 40 27 71 59 93c29 20 66 30 110 30c43 0 75 -12 98 -36s31 -56 24 -97c-5 -29 -21 -53 -49 -73l122 -605c6 -27 -6 -41 -36 -41
h-105c-25 0 -43 3 -52 9s-15 17 -16 33l-9 72h-217l-36 -72c-13 -28 -39 -42 -80 -42h-108c-29 0 -36 14 -20 41l337 605c-21 20 -29 48 -22 83zM458 723c5 27 -5 41 -32 41c-29 0 -46 -14 -51 -41c-3 -27 9 -41 37 -41c26 0 41 14 46 41zM399 271l-16 117
c-5 45 -3 92 4 140h-10c-8 -48 -23 -94 -44 -139l-58 -118h124z" />
    <glyph glyph-name="Atilde" unicode="&#xc3;" horiz-adv-x="688" 
d="M536 909h60c15 0 22 -8 19 -23c-14 -82 -54 -123 -119 -123c-28 0 -54 7 -78 21s-40 21 -47 21c-10 0 -16 -7 -19 -22c-2 -13 -9 -20 -22 -20h-62c-16 0 -22 8 -19 23c14 82 53 123 117 123c29 0 56 -7 81 -20c25 -14 41 -21 48 -21c9 0 15 7 18 22c3 13 10 19 23 19z
M518 677l119 -636c5 -27 -7 -41 -37 -41h-104c-25 0 -42 3 -51 9s-15 17 -16 33l-10 72h-217l-35 -72c-13 -28 -40 -42 -80 -42h-110c-28 0 -34 14 -19 41l342 634c12 23 31 35 58 35h113c27 0 43 -11 47 -33zM401 271l-16 117c-5 45 -4 92 3 140h-9
c-9 -48 -24 -94 -45 -139l-57 -118h124z" />
    <glyph glyph-name="AE" unicode="&#xc6;" horiz-adv-x="906" 
d="M615 175h204c16 0 27 -3 32 -9s6 -17 3 -33l-16 -91c-5 -28 -22 -42 -50 -42h-339c-16 0 -26 3 -31 9c-5 7 -7 18 -4 33l12 63h-202l-54 -68c-20 -25 -48 -37 -85 -37h-109c-33 0 -40 14 -20 41l516 634c19 23 38 35 58 35h375c29 0 40 -14 35 -42l-16 -90
c-5 -29 -21 -43 -50 -43h-195l-16 -89h143c28 0 39 -14 34 -42l-16 -90c-5 -29 -21 -43 -49 -43h-143zM496 462l-147 -206h103z" />
    <glyph glyph-name="AEacute" unicode="&#x1fc;" horiz-adv-x="906" 
d="M608 833l155 81c31 15 53 14 66 -3l41 -58c13 -19 9 -33 -13 -40l-191 -56c-24 -7 -39 -5 -46 5l-21 33c-11 17 -8 29 9 38zM615 175h204c16 0 27 -3 32 -9s6 -17 3 -33l-16 -91c-5 -28 -22 -42 -50 -42h-339c-16 0 -26 3 -31 9c-5 7 -7 18 -4 33l12 63h-202l-54 -68
c-20 -25 -48 -37 -85 -37h-109c-33 0 -40 14 -20 41l516 634c19 23 38 35 58 35h375c29 0 40 -14 35 -42l-16 -90c-5 -29 -21 -43 -50 -43h-195l-16 -89h143c28 0 39 -14 34 -42l-16 -90c-5 -29 -21 -43 -49 -43h-143zM496 462l-147 -206h103z" />
    <glyph glyph-name="B" unicode="B" horiz-adv-x="658" 
d="M164 711h293c69 0 120 -18 154 -54c33 -35 45 -83 34 -143c-12 -61 -45 -107 -98 -140l-1 -4c61 -29 84 -89 69 -180c-11 -63 -43 -110 -94 -143c-48 -31 -109 -47 -182 -47h-300c-29 0 -40 14 -35 42l110 626c5 29 22 43 50 43zM439 494c7 37 -11 56 -52 56h-96
l-19 -110h96c41 0 64 18 71 54zM413 221c8 39 -10 58 -54 58h-115l-21 -117h116c43 0 67 20 74 59z" />
    <glyph glyph-name="C" unicode="C" horiz-adv-x="647" 
d="M28 274l33 185c15 86 53 152 114 198c61 45 140 68 239 68c144 0 227 -59 249 -178c5 -27 -6 -45 -34 -54l-103 -35c-16 -5 -27 -5 -34 -2c-7 4 -13 14 -16 29c-9 43 -39 65 -91 65c-73 0 -116 -35 -128 -104l-33 -182c-12 -69 19 -104 92 -104c53 0 91 22 115 65
c16 27 36 36 59 27l104 -40c26 -9 32 -27 17 -54c-63 -115 -170 -173 -323 -173c-97 0 -168 27 -215 80c-45 52 -60 122 -45 209z" />
    <glyph glyph-name="Cacute" unicode="&#x106;" horiz-adv-x="647" 
d="M305 833l155 81c31 15 53 14 66 -3l41 -58c13 -19 9 -33 -13 -40l-191 -56c-24 -7 -39 -5 -46 5l-21 33c-11 17 -8 29 9 38zM28 274l33 185c15 86 53 152 114 198c61 45 140 68 239 68c144 0 227 -59 249 -178c5 -27 -6 -45 -34 -54l-103 -35c-16 -5 -27 -5 -34 -2
c-7 4 -13 14 -16 29c-9 43 -39 65 -91 65c-73 0 -116 -35 -128 -104l-33 -182c-12 -69 19 -104 92 -104c53 0 91 22 115 65c16 27 36 36 59 27l104 -40c26 -9 32 -27 17 -54c-63 -115 -170 -173 -323 -173c-97 0 -168 27 -215 80c-45 52 -60 122 -45 209z" />
    <glyph glyph-name="Ccaron" unicode="&#x10c;" horiz-adv-x="647" 
d="M551 920h76c15 0 22 -4 23 -11c0 -7 -5 -15 -16 -24l-118 -102c-23 -19 -49 -29 -80 -29h-28c-29 0 -52 10 -67 29l-83 102c-7 9 -10 17 -8 24s10 11 25 11h84c32 0 53 -7 63 -22l24 -34l35 34c15 15 39 22 70 22zM28 274l33 185c15 86 53 152 114 198
c61 45 140 68 239 68c144 0 227 -59 249 -178c5 -27 -6 -45 -34 -54l-103 -35c-16 -5 -27 -5 -34 -2c-7 4 -13 14 -16 29c-9 43 -39 65 -91 65c-73 0 -116 -35 -128 -104l-33 -182c-12 -69 19 -104 92 -104c53 0 91 22 115 65c16 27 36 36 59 27l104 -40
c26 -9 32 -27 17 -54c-63 -115 -170 -173 -323 -173c-97 0 -168 27 -215 80c-45 52 -60 122 -45 209z" />
    <glyph glyph-name="Ccedilla" unicode="&#xc7;" horiz-adv-x="647" 
d="M414 725c144 0 227 -59 249 -178c5 -27 -6 -45 -34 -54l-103 -35c-16 -5 -27 -5 -34 -2c-7 4 -13 14 -16 29c-9 43 -39 65 -91 65c-73 0 -116 -35 -128 -104l-33 -182c-12 -69 19 -104 92 -104c53 0 91 22 115 65c16 27 36 36 59 27l104 -40c26 -9 32 -27 17 -54
c-54 -98 -141 -154 -260 -169l-22 -41h7c29 -1 50 -11 62 -32c11 -20 13 -44 5 -73c-17 -63 -72 -95 -164 -95c-26 0 -51 5 -75 16c-16 5 -23 16 -21 31l7 41c4 21 16 27 35 17c17 -11 35 -16 53 -16c23 0 36 8 39 23s-10 22 -39 22h-21c-18 0 -21 9 -10 28l47 77
c-86 6 -149 35 -189 87c-39 51 -51 118 -37 200l33 185c15 86 53 152 114 198c61 45 140 68 239 68z" />
    <glyph glyph-name="Ccircumflex" unicode="&#x108;" horiz-adv-x="647" 
d="M440 920h32c28 0 50 -10 66 -30l84 -102c7 -9 10 -16 7 -23s-12 -11 -27 -11h-83c-33 0 -54 7 -63 21l-22 36l-38 -35c-15 -15 -37 -22 -68 -22h-81c-15 0 -23 4 -24 11s4 14 15 23l120 102c24 20 51 30 82 30zM28 274l33 185c15 86 53 152 114 198c61 45 140 68 239 68
c144 0 227 -59 249 -178c5 -27 -6 -45 -34 -54l-103 -35c-16 -5 -27 -5 -34 -2c-7 4 -13 14 -16 29c-9 43 -39 65 -91 65c-73 0 -116 -35 -128 -104l-33 -182c-12 -69 19 -104 92 -104c53 0 91 22 115 65c16 27 36 36 59 27l104 -40c26 -9 32 -27 17 -54
c-63 -115 -170 -173 -323 -173c-97 0 -168 27 -215 80c-45 52 -60 122 -45 209z" />
    <glyph glyph-name="Cdotaccent" unicode="&#x10a;" horiz-adv-x="647" 
d="M448 915h6c29 0 47 -5 56 -16c9 -10 10 -30 5 -59l-2 -8c-5 -29 -14 -49 -25 -59c-13 -11 -33 -16 -62 -16h-6c-29 0 -48 5 -57 16c-9 10 -11 30 -6 59l2 8c5 29 14 49 26 59c13 11 34 16 63 16zM28 274l33 185c15 86 53 152 114 198c61 45 140 68 239 68
c144 0 227 -59 249 -178c5 -27 -6 -45 -34 -54l-103 -35c-16 -5 -27 -5 -34 -2c-7 4 -13 14 -16 29c-9 43 -39 65 -91 65c-73 0 -116 -35 -128 -104l-33 -182c-12 -69 19 -104 92 -104c53 0 91 22 115 65c16 27 36 36 59 27l104 -40c26 -9 32 -27 17 -54
c-63 -115 -170 -173 -323 -173c-97 0 -168 27 -215 80c-45 52 -60 122 -45 209z" />
    <glyph glyph-name="D" unicode="D" horiz-adv-x="677" 
d="M164 710h243c97 0 169 -28 214 -83c44 -53 58 -123 42 -212l-26 -150c-31 -177 -149 -265 -352 -265h-246c-29 0 -40 14 -35 42l110 626c5 28 22 42 50 42zM442 283l25 144c13 72 -19 108 -97 108h-81l-64 -360h82c77 0 122 36 135 108z" />
    <glyph glyph-name="Eth" unicode="&#xd0;" horiz-adv-x="705" 
d="M191 710h244c97 0 168 -27 214 -82c44 -53 58 -123 42 -211l-26 -150c-15 -86 -53 -152 -113 -198c-61 -46 -142 -69 -242 -69h-244c-16 0 -26 3 -31 9c-5 7 -7 18 -4 33l45 254h-46c-17 0 -23 9 -20 26l13 76c3 17 13 26 30 26h46l43 244c5 28 21 42 49 42zM470 283
l25 144c6 37 2 64 -12 81c-15 18 -44 27 -85 27h-82l-19 -111h82c16 0 22 -9 19 -26l-13 -76c-3 -17 -13 -26 -29 -26h-82l-21 -121h81c77 0 123 36 136 108z" />
    <glyph glyph-name="Dcaron" unicode="&#x10e;" horiz-adv-x="677" 
d="M524 920h76c15 0 22 -4 22 -11s-5 -15 -15 -24l-118 -102c-23 -19 -50 -29 -81 -29h-27c-29 0 -52 10 -68 29l-83 102c-7 9 -9 17 -7 24s10 11 25 11h84c32 0 53 -7 62 -22l25 -34l35 34c15 15 39 22 70 22zM164 710h243c97 0 169 -28 214 -83c44 -53 58 -123 42 -212
l-26 -150c-31 -177 -149 -265 -352 -265h-246c-29 0 -40 14 -35 42l110 626c5 28 22 42 50 42zM442 283l25 144c13 72 -19 108 -97 108h-81l-64 -360h82c77 0 122 36 135 108z" />
    <glyph glyph-name="Dcroat" unicode="&#x110;" horiz-adv-x="705" 
d="M191 710h244c97 0 168 -27 214 -82c44 -53 58 -123 42 -211l-26 -150c-15 -86 -53 -152 -113 -198c-61 -46 -142 -69 -242 -69h-244c-16 0 -26 3 -31 9c-5 7 -7 18 -4 33l45 254h-46c-17 0 -23 9 -20 26l13 76c3 17 13 26 30 26h46l43 244c5 28 21 42 49 42zM470 283
l25 144c6 37 2 64 -12 81c-15 18 -44 27 -85 27h-82l-19 -111h82c16 0 22 -9 19 -26l-13 -76c-3 -17 -13 -26 -29 -26h-82l-21 -121h81c77 0 123 36 136 108z" />
    <glyph glyph-name="E" unicode="E" horiz-adv-x="588" 
d="M164 710h419c29 0 41 -14 36 -42l-16 -90c-5 -29 -22 -43 -50 -43h-264l-16 -89h211c16 0 26 -3 31 -9c5 -7 7 -18 4 -33l-16 -90c-5 -29 -22 -43 -50 -43h-211l-17 -96h273c15 0 26 -3 31 -9s6 -17 3 -33l-16 -91c-5 -28 -21 -42 -50 -42h-427c-29 0 -40 14 -35 42
l110 626c5 28 22 42 50 42z" />
    <glyph glyph-name="Eacute" unicode="&#xc9;" horiz-adv-x="588" 
d="M265 833l155 81c31 15 53 14 66 -3l40 -58c14 -19 10 -32 -12 -40l-191 -56c-24 -7 -39 -5 -46 5l-21 33c-11 16 -8 29 9 38zM164 710h419c29 0 41 -14 36 -42l-16 -90c-5 -29 -22 -43 -50 -43h-264l-16 -89h211c16 0 26 -3 31 -9c5 -7 7 -18 4 -33l-16 -90
c-5 -29 -22 -43 -50 -43h-211l-17 -96h273c15 0 26 -3 31 -9s6 -17 3 -33l-16 -91c-5 -28 -21 -42 -50 -42h-427c-29 0 -40 14 -35 42l110 626c5 28 22 42 50 42z" />
    <glyph glyph-name="Ebreve" unicode="&#x114;" horiz-adv-x="588" 
d="M578 860c-39 -71 -105 -106 -196 -106s-144 35 -157 106c-4 16 3 28 22 35l71 25c18 6 30 2 36 -12c8 -22 24 -33 49 -33c23 0 43 11 60 33c10 13 23 18 38 13l65 -26c17 -6 21 -18 12 -35zM164 710h419c29 0 41 -14 36 -42l-16 -90c-5 -29 -22 -43 -50 -43h-264l-16 -89
h211c16 0 26 -3 31 -9c5 -7 7 -18 4 -33l-16 -90c-5 -29 -22 -43 -50 -43h-211l-17 -96h273c15 0 26 -3 31 -9s6 -17 3 -33l-16 -91c-5 -28 -21 -42 -50 -42h-427c-29 0 -40 14 -35 42l110 626c5 28 22 42 50 42z" />
    <glyph glyph-name="Ecaron" unicode="&#x11a;" horiz-adv-x="588" 
d="M511 920h76c15 0 22 -4 22 -11s-5 -15 -16 -24l-118 -102c-23 -19 -49 -29 -80 -29h-27c-29 0 -52 10 -68 29l-83 102c-7 9 -10 17 -8 24s11 11 26 11h84c32 0 53 -7 62 -22l25 -34l35 34c15 15 39 22 70 22zM164 710h419c29 0 41 -14 36 -42l-16 -90
c-5 -29 -22 -43 -50 -43h-264l-16 -89h211c16 0 26 -3 31 -9c5 -7 7 -18 4 -33l-16 -90c-5 -29 -22 -43 -50 -43h-211l-17 -96h273c15 0 26 -3 31 -9s6 -17 3 -33l-16 -91c-5 -28 -21 -42 -50 -42h-427c-29 0 -40 14 -35 42l110 626c5 28 22 42 50 42z" />
    <glyph glyph-name="Ecircumflex" unicode="&#xca;" horiz-adv-x="588" 
d="M399 920h32c28 0 50 -10 66 -30l85 -102c7 -9 10 -16 7 -23s-13 -11 -28 -11h-82c-34 0 -55 7 -64 21l-22 36l-37 -35c-15 -15 -38 -22 -69 -22h-80c-15 0 -23 4 -24 11s4 14 14 23l120 102c24 20 51 30 82 30zM164 710h419c29 0 41 -14 36 -42l-16 -90
c-5 -29 -22 -43 -50 -43h-264l-16 -89h211c16 0 26 -3 31 -9c5 -7 7 -18 4 -33l-16 -90c-5 -29 -22 -43 -50 -43h-211l-17 -96h273c15 0 26 -3 31 -9s6 -17 3 -33l-16 -91c-5 -28 -21 -42 -50 -42h-427c-29 0 -40 14 -35 42l110 626c5 28 22 42 50 42z" />
    <glyph glyph-name="Edieresis" unicode="&#xcb;" horiz-adv-x="588" 
d="M298 914h8c28 0 46 -5 55 -15c9 -11 11 -29 6 -56l-2 -13c-5 -27 -13 -45 -26 -55c-13 -11 -33 -16 -61 -16h-7c-28 0 -46 5 -54 16c-9 10 -10 28 -5 55l2 13c5 27 13 46 24 56c12 10 32 15 60 15zM514 914h7c27 0 45 -5 54 -15c9 -11 11 -29 6 -56l-2 -13
c-5 -27 -13 -45 -25 -55c-13 -11 -33 -16 -61 -16h-7c-27 0 -45 5 -54 16c-9 10 -11 28 -6 55l2 13c5 27 13 45 25 56c13 10 33 15 61 15zM164 710h419c29 0 41 -14 36 -42l-16 -90c-5 -29 -22 -43 -50 -43h-264l-16 -89h211c16 0 26 -3 31 -9c5 -7 7 -18 4 -33l-16 -90
c-5 -29 -22 -43 -50 -43h-211l-17 -96h273c15 0 26 -3 31 -9s6 -17 3 -33l-16 -91c-5 -28 -21 -42 -50 -42h-427c-29 0 -40 14 -35 42l110 626c5 28 22 42 50 42z" />
    <glyph glyph-name="Edotaccent" unicode="&#x116;" horiz-adv-x="588" 
d="M407 915h6c29 0 48 -5 57 -16c9 -10 10 -30 5 -59l-2 -8c-5 -29 -14 -49 -26 -59c-12 -11 -33 -16 -62 -16h-6c-29 0 -47 5 -56 16c-9 10 -11 30 -6 59l2 8c5 29 13 48 26 59c12 11 33 16 62 16zM164 710h419c29 0 41 -14 36 -42l-16 -90c-5 -29 -22 -43 -50 -43h-264
l-16 -89h211c16 0 26 -3 31 -9c5 -7 7 -18 4 -33l-16 -90c-5 -29 -22 -43 -50 -43h-211l-17 -96h273c15 0 26 -3 31 -9s6 -17 3 -33l-16 -91c-5 -28 -21 -42 -50 -42h-427c-29 0 -40 14 -35 42l110 626c5 28 22 42 50 42z" />
    <glyph glyph-name="Egrave" unicode="&#xc8;" horiz-adv-x="588" 
d="M275 854l62 60c19 18 41 19 66 3l126 -83c15 -9 14 -21 -3 -38l-34 -34c-9 -10 -25 -11 -47 -4l-171 56c-19 7 -18 20 1 40zM164 710h419c29 0 41 -14 36 -42l-16 -90c-5 -29 -22 -43 -50 -43h-264l-16 -89h211c16 0 26 -3 31 -9c5 -7 7 -18 4 -33l-16 -90
c-5 -29 -22 -43 -50 -43h-211l-17 -96h273c15 0 26 -3 31 -9s6 -17 3 -33l-16 -91c-5 -28 -21 -42 -50 -42h-427c-29 0 -40 14 -35 42l110 626c5 28 22 42 50 42z" />
    <glyph glyph-name="Emacron" unicode="&#x112;" horiz-adv-x="588" 
d="M284 892h244c14 0 23 -2 27 -7c5 -5 6 -14 3 -29l-7 -42c-5 -24 -19 -36 -43 -36h-244c-14 0 -23 2 -27 7s-5 15 -2 29l7 42c4 24 18 36 42 36zM164 710h419c29 0 41 -14 36 -42l-16 -90c-5 -29 -22 -43 -50 -43h-264l-16 -89h211c16 0 26 -3 31 -9c5 -7 7 -18 4 -33
l-16 -90c-5 -29 -22 -43 -50 -43h-211l-17 -96h273c15 0 26 -3 31 -9s6 -17 3 -33l-16 -91c-5 -28 -21 -42 -50 -42h-427c-29 0 -40 14 -35 42l110 626c5 28 22 42 50 42z" />
    <glyph glyph-name="Eogonek" unicode="&#x118;" horiz-adv-x="588" 
d="M164 710h419c29 0 41 -14 36 -42l-16 -90c-5 -29 -22 -43 -50 -43h-264l-16 -89h211c16 0 26 -3 31 -9c5 -7 7 -18 4 -33l-16 -90c-5 -29 -22 -43 -50 -43h-211l-17 -96h273c15 0 26 -3 31 -9s6 -17 3 -33l-16 -91c-3 -15 -10 -27 -21 -36c-54 -45 -82 -86 -83 -121
c0 -13 5 -19 15 -19c6 0 12 2 19 6c12 7 20 5 23 -6l13 -51c3 -13 -1 -22 -11 -29c-31 -21 -71 -32 -118 -32c-63 0 -94 24 -95 73c-1 56 36 114 109 173h-328c-29 0 -40 14 -35 42l110 626c5 28 22 42 50 42z" />
    <glyph glyph-name="F" unicode="F" horiz-adv-x="579" 
d="M164 710h419c29 0 41 -14 36 -42l-16 -90c-5 -29 -22 -43 -50 -43h-264l-21 -116h211c16 0 26 -3 31 -9c5 -7 7 -18 4 -33l-16 -90c-5 -29 -21 -43 -50 -43h-210l-36 -202c-5 -28 -22 -42 -50 -42h-113c-29 0 -40 14 -35 42l110 626c5 28 22 42 50 42z" />
    <glyph glyph-name="G" unicode="G" horiz-adv-x="675" 
d="M372 408h253c28 0 39 -14 34 -43l-25 -145c-13 -73 -49 -130 -108 -171c-61 -43 -141 -64 -238 -64s-168 28 -214 83c-45 53 -59 123 -44 211l32 181c31 177 148 265 352 265c145 0 229 -59 252 -178c5 -27 -6 -45 -35 -54l-102 -31c-17 -5 -28 -5 -35 -2
c-7 4 -12 14 -15 29c-10 41 -41 61 -94 61c-73 0 -115 -35 -128 -104l-32 -182c-12 -69 18 -104 91 -104c72 0 112 23 121 68l3 20h-96c-16 0 -26 3 -31 9s-7 17 -4 33l13 75c5 29 22 43 50 43z" />
    <glyph glyph-name="Gbreve" unicode="&#x11e;" horiz-adv-x="675" 
d="M619 870c-39 -71 -105 -106 -196 -106s-144 35 -157 106c-3 16 4 28 23 35l71 25c17 7 29 3 35 -12c9 -22 26 -33 49 -33c24 0 44 11 60 33c10 13 23 18 38 13l66 -26c16 -6 20 -18 11 -35zM372 408h253c28 0 39 -14 34 -43l-25 -145c-13 -73 -49 -130 -108 -171
c-61 -43 -141 -64 -238 -64s-168 28 -214 83c-45 53 -59 123 -44 211l32 181c31 177 148 265 352 265c145 0 229 -59 252 -178c5 -27 -6 -45 -35 -54l-102 -31c-17 -5 -28 -5 -35 -2c-7 4 -12 14 -15 29c-10 41 -41 61 -94 61c-73 0 -115 -35 -128 -104l-32 -182
c-12 -69 18 -104 91 -104c72 0 112 23 121 68l3 20h-96c-16 0 -26 3 -31 9s-7 17 -4 33l13 75c5 29 22 43 50 43z" />
    <glyph glyph-name="Gcircumflex" unicode="&#x11c;" horiz-adv-x="675" 
d="M441 930h32c28 0 50 -10 65 -30l85 -102c7 -9 10 -16 7 -23s-13 -11 -28 -11h-82c-34 0 -55 7 -63 21l-23 36l-37 -35c-15 -15 -38 -22 -69 -22h-80c-15 0 -23 4 -24 11s4 14 15 23l119 102c25 20 52 30 83 30zM372 408h253c28 0 39 -14 34 -43l-25 -145
c-13 -73 -49 -130 -108 -171c-61 -43 -141 -64 -238 -64s-168 28 -214 83c-45 53 -59 123 -44 211l32 181c31 177 148 265 352 265c145 0 229 -59 252 -178c5 -27 -6 -45 -35 -54l-102 -31c-17 -5 -28 -5 -35 -2c-7 4 -12 14 -15 29c-10 41 -41 61 -94 61
c-73 0 -115 -35 -128 -104l-32 -182c-12 -69 18 -104 91 -104c72 0 112 23 121 68l3 20h-96c-16 0 -26 3 -31 9s-7 17 -4 33l13 75c5 29 22 43 50 43z" />
    <glyph glyph-name="uni0122" unicode="&#x122;" horiz-adv-x="675" 
d="M372 408h253c28 0 39 -14 34 -43l-25 -145c-13 -73 -49 -130 -108 -171c-61 -43 -141 -64 -238 -64s-168 28 -214 83c-45 53 -59 123 -44 211l32 181c31 177 148 265 352 265c145 0 229 -59 252 -178c5 -27 -6 -45 -35 -54l-102 -31c-17 -5 -28 -5 -35 -2
c-7 4 -12 14 -15 29c-10 41 -41 61 -94 61c-73 0 -115 -35 -128 -104l-32 -182c-12 -69 18 -104 91 -104c72 0 112 23 121 68l3 20h-96c-16 0 -26 3 -31 9s-7 17 -4 33l13 75c5 29 22 43 50 43zM370 -90l-73 -137c-11 -22 -29 -33 -52 -33h-63c-21 0 -28 10 -21 30l41 140
c7 28 24 42 51 42h90c32 0 41 -14 27 -42z" />
    <glyph glyph-name="Gdotaccent" unicode="&#x120;" horiz-adv-x="675" 
d="M448 925h6c29 0 48 -5 57 -16c9 -10 10 -30 5 -59l-2 -8c-5 -29 -14 -49 -25 -59c-13 -11 -33 -16 -62 -16h-6c-29 0 -48 5 -57 16c-9 10 -11 30 -6 59l2 8c5 29 13 48 26 59c12 11 33 16 62 16zM372 408h253c28 0 39 -14 34 -43l-25 -145c-13 -73 -49 -130 -108 -171
c-61 -43 -141 -64 -238 -64s-168 28 -214 83c-45 53 -59 123 -44 211l32 181c31 177 148 265 352 265c145 0 229 -59 252 -178c5 -27 -6 -45 -35 -54l-102 -31c-17 -5 -28 -5 -35 -2c-7 4 -12 14 -15 29c-10 41 -41 61 -94 61c-73 0 -115 -35 -128 -104l-32 -182
c-12 -69 18 -104 91 -104c72 0 112 23 121 68l3 20h-96c-16 0 -26 3 -31 9s-7 17 -4 33l13 75c5 29 22 43 50 43z" />
    <glyph glyph-name="H" unicode="H" horiz-adv-x="692" 
d="M556 711h114c28 0 39 -14 34 -43l-110 -626c-5 -28 -22 -42 -50 -42h-113c-29 0 -40 14 -35 42l40 230h-193l-41 -230c-5 -28 -21 -42 -50 -42h-113c-16 0 -26 3 -31 9c-5 7 -7 18 -4 33l111 626c5 29 22 43 50 43h113c29 0 40 -14 35 -43l-39 -221h193l39 221
c5 29 22 43 50 43z" />
    <glyph glyph-name="Hbar" unicode="&#x126;" horiz-adv-x="720" 
d="M711 629h37c16 0 22 -9 19 -26l-9 -54c-3 -17 -13 -26 -29 -26h-38l-84 -481c-5 -28 -22 -42 -50 -42h-113c-29 0 -40 14 -35 42l40 230h-193l-41 -230c-5 -28 -21 -42 -50 -42h-113c-16 0 -26 3 -31 9c-5 7 -7 18 -4 33l85 481h-37c-16 0 -22 9 -19 26l9 54
c3 17 13 26 30 26h36l7 39c5 29 22 43 50 43h113c29 0 40 -14 35 -43l-7 -39h194l6 39c5 29 22 43 50 43h113c29 0 40 -14 35 -43zM300 523l-13 -76h193l13 76h-193z" />
    <glyph glyph-name="Hcircumflex" unicode="&#x124;" horiz-adv-x="692" 
d="M442 920h32c28 0 50 -10 66 -30l85 -102c7 -9 10 -16 7 -23s-13 -11 -28 -11h-82c-34 0 -55 7 -64 21l-22 36l-37 -35c-15 -15 -38 -22 -69 -22h-80c-15 0 -23 4 -24 11s4 14 14 23l120 102c24 20 51 30 82 30zM556 711h114c28 0 39 -14 34 -43l-110 -626
c-5 -28 -22 -42 -50 -42h-113c-29 0 -40 14 -35 42l40 230h-193l-41 -230c-5 -28 -21 -42 -50 -42h-113c-16 0 -26 3 -31 9c-5 7 -7 18 -4 33l111 626c5 29 22 43 50 43h113c29 0 40 -14 35 -43l-39 -221h193l39 221c5 29 22 43 50 43z" />
    <glyph glyph-name="I" unicode="I" horiz-adv-x="300" 
d="M4 40l111 630c5 27 21 40 47 40h118c27 0 38 -13 33 -40l-111 -630c-5 -27 -20 -40 -47 -40h-118c-27 0 -38 13 -33 40z" />
    <glyph glyph-name="IJ" unicode="&#x132;" horiz-adv-x="886" 
d="M754 711h116c27 0 38 -14 33 -42l-77 -439c-29 -163 -132 -245 -309 -245c-135 0 -213 57 -235 170c-5 26 7 44 36 54l99 33c16 6 28 7 35 4c8 -3 14 -13 17 -28c10 -39 35 -58 74 -58c49 0 78 29 88 86l74 423c5 28 22 42 49 42zM4 40l111 630c5 27 21 40 47 40h118
c27 0 38 -13 33 -40l-111 -630c-5 -27 -20 -40 -47 -40h-118c-27 0 -38 13 -33 40z" />
    <glyph glyph-name="Iacute" unicode="&#xcd;" horiz-adv-x="300" 
d="M112 833l155 81c31 15 53 14 66 -3l41 -58c13 -19 9 -33 -13 -40l-191 -56c-24 -7 -39 -5 -46 5l-21 33c-11 17 -8 29 9 38zM4 40l111 630c5 27 21 40 47 40h118c27 0 38 -13 33 -40l-111 -630c-5 -27 -20 -40 -47 -40h-118c-27 0 -38 13 -33 40z" />
    <glyph glyph-name="Ibreve" unicode="&#x12c;" horiz-adv-x="300" 
d="M425 860c-39 -71 -105 -106 -196 -106s-144 35 -157 106c-3 16 4 28 23 35l71 25c11 4 19 5 24 3c4 -1 8 -6 11 -15c9 -22 26 -33 50 -33c23 0 43 11 59 33c10 13 23 18 39 13l65 -26c17 -7 21 -18 11 -35zM4 40l111 630c5 27 21 40 47 40h118c27 0 38 -13 33 -40
l-111 -630c-5 -27 -20 -40 -47 -40h-118c-27 0 -38 13 -33 40z" />
    <glyph glyph-name="Icircumflex" unicode="&#xce;" horiz-adv-x="300" 
d="M247 920h32c28 0 50 -10 66 -30l84 -102c7 -9 10 -16 7 -23s-12 -11 -27 -11h-83c-33 0 -54 7 -63 21l-22 36l-38 -35c-15 -15 -37 -22 -68 -22h-81c-15 0 -23 4 -24 11s4 14 15 23l120 102c24 20 51 30 82 30zM4 40l111 630c5 27 21 40 47 40h118c27 0 38 -13 33 -40
l-111 -630c-5 -27 -20 -40 -47 -40h-118c-27 0 -38 13 -33 40z" />
    <glyph glyph-name="Idieresis" unicode="&#xcf;" horiz-adv-x="300" 
d="M145 914h8c28 0 46 -5 55 -15c9 -11 12 -29 7 -56l-3 -13c-5 -27 -13 -45 -26 -55c-13 -11 -33 -16 -60 -16h-8c-27 0 -45 5 -53 16c-9 10 -11 28 -6 55l3 13c5 27 13 46 24 56c12 10 32 15 59 15zM361 914h7c28 0 46 -5 55 -15s11 -29 6 -56l-3 -13
c-5 -27 -13 -45 -25 -55c-13 -11 -33 -16 -60 -16h-7c-28 0 -46 5 -55 16c-9 10 -11 28 -6 55l3 13c5 27 13 46 25 56s32 15 60 15zM4 40l111 630c5 27 21 40 47 40h118c27 0 38 -13 33 -40l-111 -630c-5 -27 -20 -40 -47 -40h-118c-27 0 -38 13 -33 40z" />
    <glyph glyph-name="Idotaccent" unicode="&#x130;" horiz-adv-x="300" 
d="M255 915h6c29 0 47 -5 56 -16c9 -10 10 -30 5 -59l-2 -8c-5 -29 -14 -49 -25 -59c-13 -11 -33 -16 -62 -16h-6c-29 0 -48 5 -57 16c-9 10 -11 30 -6 59l2 8c5 29 14 49 26 59c13 11 34 16 63 16zM4 40l111 630c5 27 21 40 47 40h118c27 0 38 -13 33 -40l-111 -630
c-5 -27 -20 -40 -47 -40h-118c-27 0 -38 13 -33 40z" />
    <glyph glyph-name="Igrave" unicode="&#xcc;" horiz-adv-x="300" 
d="M123 854l61 60c19 18 41 19 67 3l126 -83c15 -9 13 -21 -4 -38l-33 -34c-10 -10 -26 -11 -47 -4l-172 56c-19 7 -18 20 2 40zM4 40l111 630c5 27 21 40 47 40h118c27 0 38 -13 33 -40l-111 -630c-5 -27 -20 -40 -47 -40h-118c-27 0 -38 13 -33 40z" />
    <glyph glyph-name="Imacron" unicode="&#x12a;" horiz-adv-x="300" 
d="M131 892h244c15 0 24 -2 28 -7s5 -14 2 -29l-7 -42c-5 -24 -19 -36 -43 -36h-244c-14 0 -23 2 -27 7s-5 15 -2 29l7 42c4 24 18 36 42 36zM4 40l111 630c5 27 21 40 47 40h118c27 0 38 -13 33 -40l-111 -630c-5 -27 -20 -40 -47 -40h-118c-27 0 -38 13 -33 40z" />
    <glyph glyph-name="Iogonek" unicode="&#x12e;" horiz-adv-x="300" 
d="M162 -134l13 -47c3 -13 -1 -23 -11 -30c-34 -23 -73 -35 -118 -35c-61 0 -93 24 -95 72c-1 57 33 115 101 174c-23 0 -37 4 -43 11c-5 5 -6 17 -3 34l110 625c5 27 21 40 47 40h118c27 0 38 -13 33 -40l-111 -630c-3 -17 -9 -29 -19 -36c-51 -45 -78 -85 -79 -120
c0 -12 5 -18 15 -18c6 0 12 2 19 6c13 7 21 5 23 -6z" />
    <glyph glyph-name="Itilde" unicode="&#x128;" horiz-adv-x="300" 
d="M342 909h61c15 0 22 -8 19 -23c-14 -82 -54 -123 -119 -123c-28 0 -54 7 -78 21c-25 14 -41 21 -48 21c-9 0 -15 -7 -18 -22c-3 -13 -10 -20 -23 -20h-61c-16 0 -22 8 -19 23c14 82 53 123 117 123c29 0 55 -7 80 -20c25 -14 41 -21 48 -21c10 0 16 7 19 22
c3 13 10 19 22 19zM4 40l111 630c5 27 21 40 47 40h118c27 0 38 -13 33 -40l-111 -630c-5 -27 -20 -40 -47 -40h-118c-27 0 -38 13 -33 40z" />
    <glyph glyph-name="J" unicode="J" horiz-adv-x="582" 
d="M451 711h115c27 0 39 -14 34 -42l-78 -439c-29 -163 -131 -245 -308 -245c-135 0 -214 57 -235 170c-5 26 6 44 35 54l99 33c16 6 28 7 35 4c8 -3 14 -13 17 -28c10 -39 35 -58 74 -58c49 0 78 29 88 86l75 423c5 28 22 42 49 42z" />
    <glyph glyph-name="Jcircumflex" unicode="&#x134;" horiz-adv-x="582" 
d="M534 920h32c28 0 50 -10 66 -30l85 -102c7 -9 9 -16 6 -23s-12 -11 -27 -11h-82c-34 0 -55 7 -64 21l-22 36l-37 -35c-15 -15 -38 -22 -69 -22h-80c-15 0 -23 4 -24 11s3 14 14 23l120 102c24 20 51 30 82 30zM451 711h115c28 0 39 -14 34 -42l-77 -439
c-29 -163 -132 -245 -309 -245c-135 0 -213 57 -235 170c-5 27 7 45 35 54l100 33c16 6 28 7 35 4s13 -13 16 -28c10 -39 35 -58 74 -58c49 0 78 29 88 86l75 423c5 28 22 42 49 42z" />
    <glyph glyph-name="K" unicode="K" horiz-adv-x="654" 
d="M511 299l88 -250c5 -14 4 -26 -2 -35s-17 -14 -33 -14h-108c-27 0 -45 3 -56 8s-19 17 -25 34l-56 179c-11 33 -31 50 -60 50h-17l-40 -229c-5 -28 -22 -42 -50 -42h-113c-29 0 -40 14 -35 42l110 626c5 28 22 42 50 42h113c29 0 40 -14 35 -42l-39 -222h22l183 227
c20 25 49 37 86 37h116c15 0 24 -4 27 -12c3 -9 0 -19 -10 -32l-237 -294c22 -15 39 -40 51 -73z" />
    <glyph glyph-name="uni0136" unicode="&#x136;" horiz-adv-x="654" 
d="M511 299l88 -250c5 -14 4 -26 -2 -35s-17 -14 -33 -14h-108c-27 0 -45 3 -56 8s-19 17 -25 34l-56 179c-11 33 -31 50 -60 50h-17l-40 -229c-5 -28 -22 -42 -50 -42h-113c-29 0 -40 14 -35 42l110 626c5 28 22 42 50 42h113c29 0 40 -14 35 -42l-39 -222h22l183 227
c20 25 49 37 86 37h116c15 0 24 -4 27 -12c3 -9 0 -19 -10 -32l-237 -294c22 -15 39 -40 51 -73zM353 -90l-73 -137c-11 -22 -29 -33 -52 -33h-63c-21 0 -28 10 -21 30l41 140c7 28 24 42 51 42h90c32 0 41 -14 27 -42z" />
    <glyph glyph-name="L" unicode="L" horiz-adv-x="542" 
d="M164 710h113c29 0 41 -14 36 -42l-87 -493h240c16 0 27 -3 32 -9s6 -17 3 -33l-16 -91c-5 -28 -22 -42 -50 -42h-396c-16 0 -26 3 -31 9c-5 7 -7 18 -4 33l111 626c5 28 21 42 49 42z" />
    <glyph glyph-name="Lacute" unicode="&#x139;" horiz-adv-x="542" 
d="M112 833l155 81c31 15 53 14 66 -3l41 -58c13 -19 9 -33 -13 -40l-191 -56c-24 -7 -39 -5 -46 5l-21 33c-11 17 -8 29 9 38zM164 710h113c29 0 41 -14 36 -42l-87 -493h240c16 0 27 -3 32 -9s6 -17 3 -33l-16 -91c-5 -28 -22 -42 -50 -42h-396c-16 0 -26 3 -31 9
c-5 7 -7 18 -4 33l111 626c5 28 21 42 49 42z" />
    <glyph glyph-name="Lcaron" unicode="&#x13d;" horiz-adv-x="550" 
d="M164 710h113c29 0 41 -14 36 -42l-87 -493h240c16 0 27 -3 32 -9s6 -17 3 -33l-16 -91c-5 -28 -22 -42 -50 -42h-396c-16 0 -26 3 -31 9c-5 7 -7 18 -4 33l111 626c5 28 21 42 49 42zM575 671l-86 -158c-12 -23 -29 -34 -52 -34h-58c-18 0 -24 9 -19 26l47 166
c9 26 26 39 51 39h90c32 0 41 -13 27 -39z" />
    <glyph glyph-name="uni013B" unicode="&#x13b;" horiz-adv-x="542" 
d="M164 710h113c29 0 41 -14 36 -42l-87 -493h240c16 0 27 -3 32 -9s6 -17 3 -33l-16 -91c-5 -28 -22 -42 -50 -42h-396c-16 0 -26 3 -31 9c-5 7 -7 18 -4 33l111 626c5 28 21 42 49 42zM299 -90l-73 -137c-11 -22 -28 -33 -51 -33h-64c-19 0 -26 10 -21 30l42 140
c7 28 24 42 51 42h90c33 0 41 -14 26 -42z" />
    <glyph glyph-name="Ldot" unicode="&#x13f;" 
d="M164 710h113c29 0 41 -14 36 -42l-87 -493h240c16 0 27 -3 32 -9s6 -17 3 -33l-16 -91c-5 -28 -22 -42 -50 -42h-396c-16 0 -26 3 -31 9c-5 7 -7 18 -4 33l111 626c5 28 21 42 49 42zM415 500h36c29 0 47 -5 56 -16s11 -30 6 -58l-7 -38c-5 -28 -14 -47 -26 -58
c-13 -11 -33 -16 -61 -16h-36c-29 0 -47 5 -56 16s-11 30 -6 58l7 38c5 28 14 47 26 58c13 11 33 16 61 16z" />
    <glyph glyph-name="Lslash" unicode="&#x141;" horiz-adv-x="584" 
d="M270 175h240c16 0 27 -3 32 -9s6 -17 3 -33l-16 -91c-5 -28 -21 -42 -50 -42h-396c-28 0 -39 14 -34 42l36 206l-43 -17c-20 -9 -33 -5 -39 12l-15 51c-5 17 1 29 18 36l100 42l53 296c5 28 21 42 49 42h114c28 0 40 -14 35 -42l-37 -208l121 50c21 9 34 4 40 -13l15 -50
c5 -17 -2 -29 -19 -36l-178 -74z" />
    <glyph glyph-name="M" unicode="M" horiz-adv-x="827" 
d="M704 711h101c16 0 27 -3 32 -9s6 -17 3 -33l-110 -628c-5 -27 -22 -41 -50 -41h-109c-16 0 -27 3 -32 9s-6 17 -3 32l25 143c12 71 42 159 89 262h-10c-27 -56 -59 -111 -96 -165l-76 -113c-13 -19 -31 -29 -53 -29h-65c-21 0 -36 10 -43 29l-38 113
c-15 40 -26 95 -34 165h-9c9 -109 7 -197 -6 -263l-24 -142c-5 -27 -22 -41 -50 -41h-106c-16 0 -26 3 -31 9s-7 17 -4 32l111 628c5 28 22 42 50 42h93c29 0 47 -10 54 -31l107 -328l222 327c14 21 35 32 62 32z" />
    <glyph glyph-name="N" unicode="N" horiz-adv-x="702" 
d="M573 710h105c29 0 41 -14 36 -42l-111 -626c-5 -28 -21 -42 -50 -42h-110c-18 0 -30 7 -37 20l-111 237c-24 53 -41 121 -52 206h-8c5 -96 1 -182 -12 -258l-29 -163c-5 -28 -22 -42 -50 -42h-105c-29 0 -40 14 -35 42l110 626c5 28 22 42 50 42h114c19 0 32 -7 39 -20
l118 -256c17 -35 34 -96 52 -183h8c-13 99 -13 183 0 253l29 164c5 28 21 42 49 42z" />
    <glyph glyph-name="Nacute" unicode="&#x143;" horiz-adv-x="702" 
d="M314 833l156 81c30 16 52 15 66 -3l40 -58c13 -19 9 -33 -13 -40l-191 -56c-24 -7 -39 -5 -45 5l-21 33c-11 17 -9 29 8 38zM573 710h105c29 0 41 -14 36 -42l-111 -626c-5 -28 -21 -42 -50 -42h-110c-18 0 -30 7 -37 20l-111 237c-24 53 -41 121 -52 206h-8
c5 -96 1 -182 -12 -258l-29 -163c-5 -28 -22 -42 -50 -42h-105c-29 0 -40 14 -35 42l110 626c5 28 22 42 50 42h114c19 0 32 -7 39 -20l118 -256c17 -35 34 -96 52 -183h8c-13 99 -13 183 0 253l29 164c5 28 21 42 49 42z" />
    <glyph glyph-name="Ncaron" unicode="&#x147;" horiz-adv-x="702" 
d="M560 920h76c15 0 23 -4 23 -11s-5 -15 -16 -24l-118 -102c-23 -19 -49 -29 -80 -29h-27c-29 0 -52 10 -68 29l-83 102c-7 9 -10 17 -8 24s10 11 25 11h84c32 0 53 -7 63 -22l24 -34l35 34c15 15 39 22 70 22zM573 710h105c29 0 41 -14 36 -42l-111 -626
c-5 -28 -21 -42 -50 -42h-110c-18 0 -30 7 -37 20l-111 237c-24 53 -41 121 -52 206h-8c5 -96 1 -182 -12 -258l-29 -163c-5 -28 -22 -42 -50 -42h-105c-29 0 -40 14 -35 42l110 626c5 28 22 42 50 42h114c19 0 32 -7 39 -20l118 -256c17 -35 34 -96 52 -183h8
c-13 99 -13 183 0 253l29 164c5 28 21 42 49 42z" />
    <glyph glyph-name="uni0145" unicode="&#x145;" horiz-adv-x="702" 
d="M573 710h105c29 0 41 -14 36 -42l-111 -626c-5 -28 -21 -42 -50 -42h-110c-18 0 -30 7 -37 20l-111 237c-24 53 -41 121 -52 206h-8c5 -96 1 -182 -12 -258l-29 -163c-5 -28 -22 -42 -50 -42h-105c-29 0 -40 14 -35 42l110 626c5 28 22 42 50 42h114c19 0 32 -7 39 -20
l118 -256c17 -35 34 -96 52 -183h8c-13 99 -13 183 0 253l29 164c5 28 21 42 49 42zM379 -90l-73 -137c-11 -22 -28 -33 -51 -33h-64c-19 0 -26 10 -21 30l41 140c9 28 26 42 52 42h89c33 0 42 -14 27 -42z" />
    <glyph glyph-name="Eng" unicode="&#x14a;" horiz-adv-x="702" 
d="M571 710h107c29 0 41 -14 36 -42l-120 -678c-26 -147 -124 -220 -293 -220c-27 0 -37 13 -32 39l15 85c5 27 20 40 46 40c44 0 70 23 78 68l1 9l-114 246c-24 53 -41 121 -52 206h-8c5 -96 1 -182 -12 -258l-29 -163c-5 -28 -22 -42 -50 -42h-105c-29 0 -40 14 -35 42
l110 626c5 28 22 42 50 42h113c19 0 31 -7 38 -20l119 -256c13 -28 30 -89 51 -183h8c-13 99 -13 183 0 253l29 164c5 28 21 42 49 42z" />
    <glyph glyph-name="Ntilde" unicode="&#xd1;" horiz-adv-x="702" 
d="M544 909h61c15 0 22 -8 19 -23c-14 -82 -54 -123 -119 -123c-28 0 -54 7 -78 21s-40 21 -48 21c-9 0 -15 -7 -18 -22c-2 -13 -10 -20 -23 -20h-61c-16 0 -22 8 -19 23c14 82 53 123 117 123c29 0 56 -7 81 -20c25 -14 40 -21 47 -21c10 0 16 7 19 22c3 13 10 19 22 19z
M573 710h105c29 0 41 -14 36 -42l-111 -626c-5 -28 -21 -42 -50 -42h-110c-18 0 -30 7 -37 20l-111 237c-24 53 -41 121 -52 206h-8c5 -96 1 -182 -12 -258l-29 -163c-5 -28 -22 -42 -50 -42h-105c-29 0 -40 14 -35 42l110 626c5 28 22 42 50 42h114c19 0 32 -7 39 -20
l118 -256c17 -35 34 -96 52 -183h8c-13 99 -13 183 0 253l29 164c5 28 21 42 49 42z" />
    <glyph glyph-name="O" unicode="O" horiz-adv-x="682" 
d="M28 274l32 181c15 87 53 153 113 200c61 47 140 70 239 70c97 0 168 -27 215 -81c45 -53 59 -123 44 -211l-31 -181c-15 -86 -53 -152 -113 -198c-61 -46 -140 -69 -239 -69c-97 0 -169 27 -215 80c-45 51 -60 121 -45 209zM442 256l35 198c11 64 -19 96 -92 96
s-116 -32 -127 -96l-35 -198c-11 -64 20 -96 93 -96s115 32 126 96z" />
    <glyph glyph-name="Oacute" unicode="&#xd3;" horiz-adv-x="682" 
d="M305 843l156 81c30 16 52 15 66 -3l40 -58c13 -19 9 -33 -13 -40l-191 -56c-24 -7 -39 -5 -45 5l-21 33c-11 17 -9 29 8 38zM28 274l32 181c15 87 53 153 113 200c61 47 140 70 239 70c97 0 168 -27 215 -81c45 -53 59 -123 44 -211l-31 -181c-15 -86 -53 -152 -113 -198
c-61 -46 -140 -69 -239 -69c-97 0 -169 27 -215 80c-45 51 -60 121 -45 209zM442 256l35 198c11 64 -19 96 -92 96s-116 -32 -127 -96l-35 -198c-11 -64 20 -96 93 -96s115 32 126 96z" />
    <glyph glyph-name="Obreve" unicode="&#x14e;" horiz-adv-x="682" 
d="M619 870c-41 -71 -106 -106 -196 -106c-91 0 -143 35 -158 106c-3 16 4 28 23 35l71 25c11 4 19 5 24 3c4 -1 8 -6 11 -15c9 -22 26 -33 50 -33c23 0 43 11 59 33c11 13 24 18 39 13l65 -26c17 -7 21 -18 12 -35zM28 274l32 181c15 87 53 153 113 200
c61 47 140 70 239 70c97 0 168 -27 215 -81c45 -53 59 -123 44 -211l-31 -181c-15 -86 -53 -152 -113 -198c-61 -46 -140 -69 -239 -69c-97 0 -169 27 -215 80c-45 51 -60 121 -45 209zM442 256l35 198c11 64 -19 96 -92 96s-116 -32 -127 -96l-35 -198
c-11 -64 20 -96 93 -96s115 32 126 96z" />
    <glyph glyph-name="Ocircumflex" unicode="&#xd4;" horiz-adv-x="682" 
d="M440 930h32c28 0 50 -10 66 -30l85 -102c7 -9 9 -16 6 -23s-12 -11 -27 -11h-82c-34 0 -55 7 -64 21l-22 36l-37 -35c-15 -15 -38 -22 -69 -22h-80c-15 0 -23 4 -24 11s3 14 14 23l120 102c24 20 51 30 82 30zM28 274l32 181c15 87 53 153 113 200c61 47 140 70 239 70
c97 0 168 -27 215 -81c45 -53 59 -123 44 -211l-31 -181c-15 -86 -53 -152 -113 -198c-61 -46 -140 -69 -239 -69c-97 0 -169 27 -215 80c-45 51 -60 121 -45 209zM442 256l35 198c11 64 -19 96 -92 96s-116 -32 -127 -96l-35 -198c-11 -64 20 -96 93 -96s115 32 126 96z
" />
    <glyph glyph-name="Odieresis" unicode="&#xd6;" horiz-adv-x="682" 
d="M339 924h7c28 0 46 -5 55 -15c9 -11 12 -29 7 -56l-3 -13c-5 -27 -13 -45 -25 -55c-13 -11 -33 -16 -61 -16h-8c-27 0 -45 5 -53 16c-9 10 -11 28 -6 55l3 13c5 27 13 46 24 56c12 10 32 15 60 15zM554 924h7c28 0 46 -5 55 -15s11 -29 6 -56l-3 -13
c-5 -27 -13 -45 -25 -55c-12 -11 -32 -16 -60 -16h-7c-28 0 -46 5 -55 16c-9 10 -11 28 -6 55l3 13c5 27 13 45 25 56c13 10 33 15 60 15zM28 274l32 181c15 87 53 153 113 200c61 47 140 70 239 70c97 0 168 -27 215 -81c45 -53 59 -123 44 -211l-31 -181
c-15 -86 -53 -152 -113 -198c-61 -46 -140 -69 -239 -69c-97 0 -169 27 -215 80c-45 51 -60 121 -45 209zM442 256l35 198c11 64 -19 96 -92 96s-116 -32 -127 -96l-35 -198c-11 -64 20 -96 93 -96s115 32 126 96z" />
    <glyph glyph-name="Ograve" unicode="&#xd2;" horiz-adv-x="682" 
d="M316 864l61 60c19 18 41 19 67 3l126 -83c15 -9 14 -21 -3 -38l-34 -34c-10 -10 -26 -11 -47 -4l-172 56c-19 7 -18 20 2 40zM28 274l32 181c15 87 53 153 113 200c61 47 140 70 239 70c97 0 168 -27 215 -81c45 -53 59 -123 44 -211l-31 -181
c-15 -86 -53 -152 -113 -198c-61 -46 -140 -69 -239 -69c-97 0 -169 27 -215 80c-45 51 -60 121 -45 209zM442 256l35 198c11 64 -19 96 -92 96s-116 -32 -127 -96l-35 -198c-11 -64 20 -96 93 -96s115 32 126 96z" />
    <glyph glyph-name="Ohungarumlaut" unicode="&#x150;" horiz-adv-x="682" 
d="M360 764l-43 8c-23 5 -25 17 -6 38l92 97c20 23 43 31 70 26l21 -5c13 7 27 8 43 3l64 -18c13 -4 19 -10 20 -18c0 -8 -6 -16 -17 -25l-132 -90c-18 -13 -34 -18 -47 -15l-28 7c-13 -9 -25 -11 -37 -8zM412 725c97 0 168 -27 215 -81c45 -53 59 -123 44 -211l-31 -181
c-15 -86 -53 -152 -113 -198c-61 -46 -140 -69 -239 -69c-97 0 -169 27 -215 80c-45 51 -60 121 -45 209l32 181c15 87 53 153 113 200c61 47 140 70 239 70zM442 256l35 198c11 64 -19 96 -92 96s-116 -32 -127 -96l-35 -198c-11 -64 20 -96 93 -96s115 32 126 96z" />
    <glyph glyph-name="Omacron" unicode="&#x14c;" horiz-adv-x="682" 
d="M324 902h244c15 0 24 -2 28 -7c5 -5 6 -14 3 -29l-8 -42c-4 -24 -18 -36 -43 -36h-244c-14 0 -23 2 -27 7s-5 14 -2 29l8 42c4 24 18 36 41 36zM28 274l32 181c15 87 53 153 113 200c61 47 140 70 239 70c97 0 168 -27 215 -81c45 -53 59 -123 44 -211l-31 -181
c-15 -86 -53 -152 -113 -198c-61 -46 -140 -69 -239 -69c-97 0 -169 27 -215 80c-45 51 -60 121 -45 209zM442 256l35 198c11 64 -19 96 -92 96s-116 -32 -127 -96l-35 -198c-11 -64 20 -96 93 -96s115 32 126 96z" />
    <glyph glyph-name="Oslash" unicode="&#xd8;" horiz-adv-x="683" 
d="M638 753h96c13 0 15 -6 6 -18l-96 -114c31 -50 40 -113 28 -188l-32 -181c-15 -86 -53 -152 -113 -198c-61 -46 -140 -69 -238 -69c-59 0 -109 10 -149 30l-34 -41c-9 -11 -22 -16 -39 -16h-93c-15 0 -16 6 -5 19l89 108c-33 49 -42 112 -29 189l31 181
c15 87 53 153 114 200s140 70 238 70c61 0 112 -11 152 -33l37 45c9 11 22 16 37 16zM228 276l217 261c-16 9 -36 13 -60 13c-73 0 -116 -32 -127 -96l-27 -153zM442 256l26 147c1 4 3 12 4 24l-214 -256c17 -7 36 -11 58 -11c73 0 115 32 126 96z" />
    <glyph glyph-name="Oslashacute" unicode="&#x1fe;" horiz-adv-x="683" 
d="M306 843l155 81c31 15 53 14 66 -3l40 -58c14 -19 10 -32 -12 -40l-191 -56c-24 -7 -39 -5 -46 5l-21 33c-11 16 -8 29 9 38zM638 753h96c13 0 15 -6 6 -18l-96 -114c31 -50 40 -113 28 -188l-32 -181c-15 -86 -53 -152 -113 -198c-61 -46 -140 -69 -238 -69
c-59 0 -109 10 -149 30l-34 -41c-9 -11 -22 -16 -39 -16h-93c-15 0 -16 6 -5 19l89 108c-33 49 -42 112 -29 189l31 181c15 87 53 153 114 200s140 70 238 70c61 0 112 -11 152 -33l37 45c9 11 22 16 37 16zM228 276l217 261c-16 9 -36 13 -60 13c-73 0 -116 -32 -127 -96
l-27 -153zM442 256l26 147c1 4 3 12 4 24l-214 -256c17 -7 36 -11 58 -11c73 0 115 32 126 96z" />
    <glyph glyph-name="Otilde" unicode="&#xd5;" horiz-adv-x="682" 
d="M535 919h61c15 0 22 -8 19 -23c-14 -82 -54 -123 -119 -123c-28 0 -54 7 -78 21s-40 21 -48 21c-9 0 -15 -7 -18 -22c-2 -13 -10 -20 -23 -20h-61c-16 0 -22 8 -19 23c14 82 53 123 117 123c29 0 56 -7 81 -20c25 -14 40 -21 47 -21c10 0 16 7 19 22c3 13 10 19 22 19z
M28 274l32 181c15 87 53 153 113 200c61 47 140 70 239 70c97 0 168 -27 215 -81c45 -53 59 -123 44 -211l-31 -181c-15 -86 -53 -152 -113 -198c-61 -46 -140 -69 -239 -69c-97 0 -169 27 -215 80c-45 51 -60 121 -45 209zM442 256l35 198c11 64 -19 96 -92 96
s-116 -32 -127 -96l-35 -198c-11 -64 20 -96 93 -96s115 32 126 96z" />
    <glyph glyph-name="OE" unicode="&#x152;" horiz-adv-x="884" 
d="M576 175h218c16 0 27 -3 32 -9s6 -17 3 -33l-16 -91c-5 -28 -21 -42 -50 -42h-352c-33 -10 -75 -15 -126 -15c-97 0 -168 27 -213 81c-44 53 -58 123 -43 211l32 180c15 87 53 153 114 199s141 69 240 69c43 0 81 -5 114 -15h351c29 0 40 -14 35 -42l-16 -90
c-5 -29 -21 -43 -50 -43h-210l-15 -89h157c16 0 26 -3 31 -9c5 -7 7 -18 4 -33l-16 -90c-5 -29 -22 -43 -50 -43h-157zM258 454l-35 -198c-11 -64 20 -96 93 -96c23 0 44 4 62 12l64 366c-15 8 -34 12 -57 12c-73 0 -116 -32 -127 -96z" />
    <glyph glyph-name="P" unicode="P" horiz-adv-x="648" 
d="M164 710h276c78 0 136 -24 174 -73c38 -48 50 -112 37 -192c-27 -155 -126 -232 -297 -232h-122l-30 -171c-5 -28 -22 -42 -50 -42h-113c-29 0 -40 14 -35 42l110 626c5 28 22 42 50 42zM263 388h98c50 0 79 24 88 73c4 23 1 41 -10 54s-29 20 -52 20h-98z" />
    <glyph glyph-name="Thorn" unicode="&#xde;" horiz-adv-x="637" 
d="M303 620h108c80 0 140 -25 180 -76c39 -50 52 -115 37 -196c-14 -79 -49 -141 -105 -184c-54 -43 -122 -64 -204 -64h-108l-10 -58c-5 -28 -21 -42 -50 -42h-112c-29 0 -40 14 -35 42l110 626c5 28 22 42 50 42h112c29 0 41 -14 36 -42zM242 275h82c26 0 48 8 67 24
s30 36 34 61c5 25 1 45 -12 61s-32 24 -58 24h-83z" />
    <glyph glyph-name="Q" unicode="Q" horiz-adv-x="696" 
d="M28 274l32 181c15 87 53 153 113 200c61 47 140 70 239 70c97 0 168 -27 215 -81c45 -53 59 -123 44 -211l-31 -181c-11 -63 -35 -116 -71 -157l40 -60c15 -21 10 -41 -15 -60l-84 -58c-25 -19 -44 -18 -58 5l-50 76c-33 -9 -71 -13 -114 -13c-97 0 -169 27 -215 80
c-45 51 -60 121 -45 209zM385 550c-73 0 -116 -32 -127 -96l-35 -198c-11 -64 20 -96 93 -96s115 32 126 96l35 198c11 64 -19 96 -92 96z" />
    <glyph glyph-name="R" unicode="R" horiz-adv-x="661" 
d="M164 710h285c76 0 133 -22 170 -66c38 -45 50 -106 36 -183c-16 -91 -64 -157 -143 -198c6 -12 12 -26 19 -43l60 -171c5 -14 4 -26 -2 -35s-17 -14 -33 -14h-108c-47 0 -75 16 -84 48l-40 137c-6 19 -12 32 -19 38c-9 9 -23 13 -43 13h-26l-34 -194
c-5 -28 -22 -42 -50 -42h-113c-29 0 -40 14 -35 42l110 626c5 28 22 42 50 42zM450 470c9 43 -9 65 -54 65h-107l-24 -132h108c44 0 70 22 77 67z" />
    <glyph glyph-name="Racute" unicode="&#x154;" horiz-adv-x="661" 
d="M280 833l156 81c30 16 52 15 66 -3l40 -58c13 -19 9 -33 -13 -40l-191 -56c-24 -7 -39 -5 -45 5l-21 33c-11 17 -9 29 8 38zM164 710h285c76 0 133 -22 170 -66c38 -45 50 -106 36 -183c-16 -91 -64 -157 -143 -198c6 -12 12 -26 19 -43l60 -171c5 -14 4 -26 -2 -35
s-17 -14 -33 -14h-108c-47 0 -75 16 -84 48l-40 137c-6 19 -12 32 -19 38c-9 9 -23 13 -43 13h-26l-34 -194c-5 -28 -22 -42 -50 -42h-113c-29 0 -40 14 -35 42l110 626c5 28 22 42 50 42zM450 470c9 43 -9 65 -54 65h-107l-24 -132h108c44 0 70 22 77 67z" />
    <glyph glyph-name="Rcaron" unicode="&#x158;" horiz-adv-x="661" 
d="M526 920h76c15 0 23 -4 23 -11s-5 -15 -16 -24l-118 -102c-23 -19 -49 -29 -80 -29h-27c-29 0 -52 10 -68 29l-83 102c-7 9 -10 17 -8 24s10 11 25 11h84c32 0 53 -7 63 -22l24 -34l35 34c15 15 39 22 70 22zM164 710h285c76 0 133 -22 170 -66c38 -45 50 -106 36 -183
c-16 -91 -64 -157 -143 -198c6 -12 12 -26 19 -43l60 -171c5 -14 4 -26 -2 -35s-17 -14 -33 -14h-108c-47 0 -75 16 -84 48l-40 137c-6 19 -12 32 -19 38c-9 9 -23 13 -43 13h-26l-34 -194c-5 -28 -22 -42 -50 -42h-113c-29 0 -40 14 -35 42l110 626c5 28 22 42 50 42z
M450 470c9 43 -9 65 -54 65h-107l-24 -132h108c44 0 70 22 77 67z" />
    <glyph glyph-name="uni0156" unicode="&#x156;" horiz-adv-x="661" 
d="M164 710h285c76 0 133 -22 170 -66c38 -45 50 -106 36 -183c-16 -91 -64 -157 -143 -198c6 -12 12 -26 19 -43l60 -171c5 -14 4 -26 -2 -35s-17 -14 -33 -14h-108c-47 0 -75 16 -84 48l-40 137c-6 19 -12 32 -19 38c-9 9 -23 13 -43 13h-26l-34 -194
c-5 -28 -22 -42 -50 -42h-113c-29 0 -40 14 -35 42l110 626c5 28 22 42 50 42zM450 470c9 43 -9 65 -54 65h-107l-24 -132h108c44 0 70 22 77 67zM358 -90l-73 -137c-11 -22 -28 -33 -51 -33h-64c-19 0 -26 10 -21 30l41 140c9 28 26 42 52 42h89c33 0 42 -14 27 -42z" />
    <glyph glyph-name="S" unicode="S" horiz-adv-x="642" 
d="M65 518c25 138 134 207 327 207c133 0 215 -49 247 -148c5 -14 5 -25 1 -32s-14 -13 -31 -20l-99 -39c-15 -6 -25 -8 -32 -5s-13 11 -18 26c-12 35 -43 52 -92 52c-63 0 -98 -17 -104 -52c-3 -19 7 -34 31 -43c16 -7 46 -13 90 -18c174 -25 248 -108 222 -251
c-26 -140 -138 -210 -337 -210c-76 0 -138 13 -186 39c-49 27 -79 66 -89 116c-5 27 8 45 37 55l100 34c17 5 29 7 36 4c8 -3 14 -12 19 -26c12 -35 46 -53 103 -53c71 0 111 19 118 57c3 18 -6 32 -27 41c-15 7 -42 13 -80 18c-79 11 -136 30 -173 57
c-57 41 -78 105 -63 191z" />
    <glyph glyph-name="Sacute" unicode="&#x15a;" horiz-adv-x="642" 
d="M286 843l155 81c31 15 53 14 66 -3l41 -58c13 -19 9 -33 -13 -40l-191 -56c-24 -7 -39 -5 -46 5l-21 33c-11 17 -8 29 9 38zM65 518c25 138 134 207 327 207c133 0 215 -49 247 -148c5 -14 5 -25 1 -32s-14 -13 -31 -20l-99 -39c-15 -6 -25 -8 -32 -5s-13 11 -18 26
c-12 35 -43 52 -92 52c-63 0 -98 -17 -104 -52c-3 -19 7 -34 31 -43c16 -7 46 -13 90 -18c174 -25 248 -108 222 -251c-26 -140 -138 -210 -337 -210c-76 0 -138 13 -186 39c-49 27 -79 66 -89 116c-5 27 8 45 37 55l100 34c17 5 29 7 36 4c8 -3 14 -12 19 -26
c12 -35 46 -53 103 -53c71 0 111 19 118 57c3 18 -6 32 -27 41c-15 7 -42 13 -80 18c-79 11 -136 30 -173 57c-57 41 -78 105 -63 191z" />
    <glyph glyph-name="Scaron" unicode="&#x160;" horiz-adv-x="642" 
d="M532 930h76c15 0 22 -4 22 -11s-5 -15 -15 -24l-118 -102c-23 -19 -50 -29 -81 -29h-27c-29 0 -52 10 -68 29l-83 102c-7 9 -9 17 -7 24s10 11 25 11h84c32 0 53 -7 62 -22l25 -34l35 34c15 15 39 22 70 22zM65 518c25 138 134 207 327 207c133 0 215 -49 247 -148
c5 -14 5 -25 1 -32s-14 -13 -31 -20l-99 -39c-15 -6 -25 -8 -32 -5s-13 11 -18 26c-12 35 -43 52 -92 52c-63 0 -98 -17 -104 -52c-3 -19 7 -34 31 -43c16 -7 46 -13 90 -18c174 -25 248 -108 222 -251c-26 -140 -138 -210 -337 -210c-76 0 -138 13 -186 39
c-49 27 -79 66 -89 116c-5 27 8 45 37 55l100 34c17 5 29 7 36 4c8 -3 14 -12 19 -26c12 -35 46 -53 103 -53c71 0 111 19 118 57c3 18 -6 32 -27 41c-15 7 -42 13 -80 18c-79 11 -136 30 -173 57c-57 41 -78 105 -63 191z" />
    <glyph glyph-name="Scedilla" unicode="&#x15e;" horiz-adv-x="642" 
d="M65 518c25 138 134 207 327 207c133 0 215 -49 247 -148c5 -14 5 -25 1 -32s-14 -13 -31 -20l-99 -39c-15 -6 -25 -8 -32 -5s-13 11 -18 26c-12 35 -43 52 -92 52c-63 0 -98 -17 -104 -52c-3 -19 7 -34 31 -43c16 -7 46 -13 90 -18c174 -25 248 -108 222 -251
c-21 -121 -109 -189 -262 -206l-22 -41h6c29 -1 50 -11 62 -32c12 -19 14 -43 5 -72c-17 -63 -72 -95 -163 -95c-24 0 -49 5 -75 15c-17 7 -24 17 -21 31l7 42c3 22 15 27 34 16c18 -10 36 -15 54 -15c23 0 36 8 39 23s-11 22 -40 22h-20c-19 0 -22 9 -10 27l46 75
c-149 7 -233 58 -252 155c-5 27 8 45 37 55l100 34c17 5 29 7 36 4c8 -3 14 -12 19 -26c12 -35 46 -53 103 -53c71 0 111 19 118 57c3 18 -6 32 -27 41c-15 7 -42 13 -80 18c-79 11 -136 30 -173 57c-57 41 -78 105 -63 191z" />
    <glyph glyph-name="Scircumflex" unicode="&#x15c;" horiz-adv-x="642" 
d="M421 930h32c28 0 50 -10 65 -30l85 -102c7 -9 10 -16 7 -23s-13 -11 -28 -11h-82c-34 0 -55 7 -63 21l-23 36l-37 -35c-15 -15 -38 -22 -69 -22h-80c-15 0 -23 4 -24 11s4 14 15 23l119 102c25 20 52 30 83 30zM65 518c25 138 134 207 327 207c133 0 215 -49 247 -148
c5 -14 5 -25 1 -32s-14 -13 -31 -20l-99 -39c-15 -6 -25 -8 -32 -5s-13 11 -18 26c-12 35 -43 52 -92 52c-63 0 -98 -17 -104 -52c-3 -19 7 -34 31 -43c16 -7 46 -13 90 -18c174 -25 248 -108 222 -251c-26 -140 -138 -210 -337 -210c-76 0 -138 13 -186 39
c-49 27 -79 66 -89 116c-5 27 8 45 37 55l100 34c17 5 29 7 36 4c8 -3 14 -12 19 -26c12 -35 46 -53 103 -53c71 0 111 19 118 57c3 18 -6 32 -27 41c-15 7 -42 13 -80 18c-79 11 -136 30 -173 57c-57 41 -78 105 -63 191z" />
    <glyph glyph-name="uni0218" unicode="&#x218;" horiz-adv-x="642" 
d="M65 518c25 138 134 207 327 207c133 0 215 -49 247 -148c5 -14 5 -25 1 -32s-14 -13 -31 -20l-99 -39c-15 -6 -25 -8 -32 -5s-13 11 -18 26c-12 35 -43 52 -92 52c-63 0 -98 -17 -104 -52c-3 -19 7 -34 31 -43c16 -7 46 -13 90 -18c174 -25 248 -108 222 -251
c-26 -140 -138 -210 -337 -210c-76 0 -138 13 -186 39c-49 27 -79 66 -89 116c-5 27 8 45 37 55l100 34c17 5 29 7 36 4c8 -3 14 -12 19 -26c12 -35 46 -53 103 -53c71 0 111 19 118 57c3 18 -6 32 -27 41c-15 7 -42 13 -80 18c-79 11 -136 30 -173 57
c-57 41 -78 105 -63 191zM348 -90l-73 -137c-11 -22 -28 -33 -51 -33h-64c-21 0 -28 10 -21 30l41 140c9 28 26 42 51 42h90c32 0 41 -14 27 -42z" />
    <glyph glyph-name="T" unicode="T" horiz-adv-x="602" 
d="M124 710h495c29 0 40 -14 35 -42l-16 -90c-5 -29 -21 -43 -50 -43h-148l-87 -493c-5 -28 -22 -42 -50 -42h-113c-29 0 -40 14 -35 42l87 493h-149c-16 0 -26 3 -31 10c-5 6 -7 17 -4 33l16 90c5 28 22 42 50 42z" />
    <glyph glyph-name="Tbar" unicode="&#x166;" horiz-adv-x="615" 
d="M130 710h495c29 0 40 -14 35 -42l-16 -90c-5 -29 -21 -43 -50 -43h-148l-29 -163h96c17 0 23 -9 20 -26l-12 -67c-3 -18 -13 -27 -30 -27h-95l-37 -210c-5 -28 -22 -42 -50 -42h-113c-29 0 -40 14 -35 42l37 210h-95c-17 0 -23 9 -20 27l11 67c3 17 13 26 30 26h95
l29 163h-149c-16 0 -26 3 -31 10c-5 6 -7 17 -4 33l16 90c5 28 22 42 50 42z" />
    <glyph glyph-name="Tcaron" unicode="&#x164;" horiz-adv-x="602" 
d="M508 920h76c15 0 23 -4 23 -11s-5 -15 -16 -24l-118 -102c-23 -19 -49 -29 -80 -29h-27c-29 0 -52 10 -68 29l-83 102c-7 9 -10 17 -8 24s11 11 26 11h84c31 0 52 -7 62 -22l24 -34l35 34c16 15 39 22 70 22zM124 710h495c29 0 40 -14 35 -42l-16 -90
c-5 -29 -21 -43 -50 -43h-148l-87 -493c-5 -28 -22 -42 -50 -42h-113c-29 0 -40 14 -35 42l87 493h-149c-16 0 -26 3 -31 10c-5 6 -7 17 -4 33l16 90c5 28 22 42 50 42z" />
    <glyph glyph-name="uni021A" unicode="&#x21a;" horiz-adv-x="602" 
d="M124 710h495c29 0 40 -14 35 -42l-16 -90c-5 -29 -21 -43 -50 -43h-148l-87 -493c-5 -28 -22 -42 -50 -42h-113c-29 0 -40 14 -35 42l87 493h-149c-16 0 -26 3 -31 10c-5 6 -7 17 -4 33l16 90c5 28 22 42 50 42zM318 -90l-73 -137c-11 -22 -28 -33 -51 -33h-64
c-19 0 -26 10 -21 30l42 140c7 28 24 42 51 42h90c33 0 41 -14 26 -42z" />
    <glyph glyph-name="U" unicode="U" horiz-adv-x="692" 
d="M307 668l-74 -416c-11 -61 19 -92 88 -92s108 31 119 92l74 416c5 28 21 42 49 42h114c29 0 40 -14 35 -42l-75 -423c-31 -173 -145 -260 -343 -260c-97 0 -167 28 -212 84c-43 53 -57 122 -42 209l69 390c5 28 22 42 50 42h113c29 0 40 -14 35 -42z" />
    <glyph glyph-name="Uacute" unicode="&#xda;" horiz-adv-x="692" 
d="M309 833l155 81c31 15 53 14 66 -3l40 -58c14 -19 10 -32 -12 -40l-191 -56c-24 -7 -39 -5 -46 5l-21 33c-11 16 -8 29 9 38zM307 668l-74 -416c-11 -61 19 -92 88 -92s108 31 119 92l74 416c5 28 21 42 49 42h114c29 0 40 -14 35 -42l-75 -423
c-31 -173 -145 -260 -343 -260c-97 0 -167 28 -212 84c-43 53 -57 122 -42 209l69 390c5 28 22 42 50 42h113c29 0 40 -14 35 -42z" />
    <glyph glyph-name="Ubreve" unicode="&#x16c;" horiz-adv-x="692" 
d="M622 860c-39 -71 -105 -106 -196 -106s-144 35 -157 106c-4 16 3 28 22 35l71 25c18 6 30 2 36 -12c8 -22 24 -33 49 -33c23 0 43 11 60 33c10 13 23 18 38 13l65 -26c17 -6 21 -18 12 -35zM307 668l-74 -416c-11 -61 19 -92 88 -92s108 31 119 92l74 416
c5 28 21 42 49 42h114c29 0 40 -14 35 -42l-75 -423c-31 -173 -145 -260 -343 -260c-97 0 -167 28 -212 84c-43 53 -57 122 -42 209l69 390c5 28 22 42 50 42h113c29 0 40 -14 35 -42z" />
    <glyph glyph-name="Ucircumflex" unicode="&#xdb;" horiz-adv-x="692" 
d="M443 920h32c28 0 50 -10 66 -30l85 -102c7 -9 10 -16 7 -23s-13 -11 -28 -11h-82c-34 0 -55 7 -64 21l-22 36l-37 -35c-15 -15 -38 -22 -69 -22h-80c-15 0 -23 4 -24 11s4 14 14 23l120 102c24 20 51 30 82 30zM307 668l-74 -416c-11 -61 19 -92 88 -92s108 31 119 92
l74 416c5 28 21 42 49 42h114c29 0 40 -14 35 -42l-75 -423c-31 -173 -145 -260 -343 -260c-97 0 -167 28 -212 84c-43 53 -57 122 -42 209l69 390c5 28 22 42 50 42h113c29 0 40 -14 35 -42z" />
    <glyph glyph-name="Udieresis" unicode="&#xdc;" horiz-adv-x="692" 
d="M342 914h8c28 0 46 -5 55 -15c9 -11 11 -29 6 -56l-2 -13c-5 -27 -13 -45 -26 -55c-13 -11 -33 -16 -61 -16h-7c-28 0 -46 5 -54 16c-9 10 -10 28 -5 55l2 13c5 27 13 46 24 56c12 10 32 15 60 15zM558 914h7c27 0 45 -5 54 -15c9 -11 11 -29 6 -56l-2 -13
c-5 -27 -13 -45 -25 -55c-13 -11 -33 -16 -61 -16h-7c-27 0 -45 5 -54 16c-9 10 -11 28 -6 55l2 13c5 27 13 45 25 56c13 10 33 15 61 15zM307 668l-74 -416c-11 -61 19 -92 88 -92s108 31 119 92l74 416c5 28 21 42 49 42h114c29 0 40 -14 35 -42l-75 -423
c-31 -173 -145 -260 -343 -260c-97 0 -167 28 -212 84c-43 53 -57 122 -42 209l69 390c5 28 22 42 50 42h113c29 0 40 -14 35 -42z" />
    <glyph glyph-name="Ugrave" unicode="&#xd9;" horiz-adv-x="692" 
d="M319 854l62 60c19 18 41 19 66 3l126 -83c15 -9 14 -21 -3 -38l-34 -34c-9 -10 -25 -11 -47 -4l-171 56c-19 7 -18 20 1 40zM307 668l-74 -416c-11 -61 19 -92 88 -92s108 31 119 92l74 416c5 28 21 42 49 42h114c29 0 40 -14 35 -42l-75 -423
c-31 -173 -145 -260 -343 -260c-97 0 -167 28 -212 84c-43 53 -57 122 -42 209l69 390c5 28 22 42 50 42h113c29 0 40 -14 35 -42z" />
    <glyph glyph-name="Uhungarumlaut" unicode="&#x170;" horiz-adv-x="692" 
d="M364 754l-43 8c-25 5 -27 17 -6 38l91 97c21 23 44 31 70 26l21 -5c13 7 27 8 43 3l65 -18c13 -4 19 -10 20 -18c0 -8 -6 -16 -17 -25l-133 -90c-18 -13 -33 -18 -46 -15l-29 7c-12 -9 -24 -11 -36 -8zM563 710h114c29 0 40 -14 35 -42l-75 -423
c-31 -173 -145 -260 -343 -260c-97 0 -167 28 -212 84c-43 53 -57 122 -42 209l69 390c5 28 22 42 50 42h113c29 0 40 -14 35 -42l-74 -416c-11 -61 19 -92 88 -92s108 31 119 92l74 416c5 28 21 42 49 42z" />
    <glyph glyph-name="Umacron" unicode="&#x16a;" horiz-adv-x="692" 
d="M328 892h244c14 0 23 -2 27 -7c5 -5 6 -14 3 -29l-7 -42c-5 -24 -19 -36 -43 -36h-244c-14 0 -23 2 -27 7s-5 15 -2 29l7 42c4 24 18 36 42 36zM307 668l-74 -416c-11 -61 19 -92 88 -92s108 31 119 92l74 416c5 28 21 42 49 42h114c29 0 40 -14 35 -42l-75 -423
c-31 -173 -145 -260 -343 -260c-97 0 -167 28 -212 84c-43 53 -57 122 -42 209l69 390c5 28 22 42 50 42h113c29 0 40 -14 35 -42z" />
    <glyph glyph-name="Uogonek" unicode="&#x172;" horiz-adv-x="692" 
d="M563 710h114c29 0 40 -14 35 -42l-75 -423c-14 -81 -53 -147 -116 -198c-77 -63 -117 -117 -119 -162c0 -13 5 -19 15 -19c6 0 12 2 19 6c12 7 20 5 23 -6l13 -51c3 -13 -1 -22 -11 -29c-31 -21 -71 -32 -118 -32c-63 0 -94 24 -95 73c-1 53 30 106 93 160
c-11 -1 -26 -2 -47 -2c-97 0 -167 28 -212 84c-43 53 -57 122 -42 209l69 390c5 28 22 42 50 42h113c29 0 40 -14 35 -42l-74 -416c-11 -61 19 -92 88 -92s108 31 119 92l74 416c5 28 21 42 49 42z" />
    <glyph glyph-name="Uring" unicode="&#x16e;" horiz-adv-x="692" 
d="M316 855c7 36 24 65 52 86c27 21 60 31 99 31c37 0 66 -10 86 -31c20 -22 27 -51 21 -86c-7 -35 -24 -64 -51 -85s-60 -31 -97 -31c-39 0 -68 10 -88 31c-21 21 -29 49 -22 85zM481 855c5 24 -5 36 -28 36c-25 0 -40 -12 -45 -36c-3 -23 8 -34 33 -34c23 0 37 11 40 34z
M307 668l-74 -416c-11 -61 19 -92 88 -92s108 31 119 92l74 416c5 28 21 42 49 42h114c29 0 40 -14 35 -42l-75 -423c-31 -173 -145 -260 -343 -260c-97 0 -167 28 -212 84c-43 53 -57 122 -42 209l69 390c5 28 22 42 50 42h113c29 0 40 -14 35 -42z" />
    <glyph glyph-name="Utilde" unicode="&#x168;" horiz-adv-x="692" 
d="M539 909h60c15 0 22 -8 19 -23c-14 -82 -54 -123 -119 -123c-28 0 -54 7 -78 21s-40 21 -47 21c-10 0 -16 -7 -19 -22c-2 -13 -9 -20 -22 -20h-62c-16 0 -22 8 -19 23c14 82 53 123 117 123c29 0 56 -7 81 -20c25 -14 41 -21 48 -21c9 0 15 7 18 22c3 13 10 19 23 19z
M307 668l-74 -416c-11 -61 19 -92 88 -92s108 31 119 92l74 416c5 28 21 42 49 42h114c29 0 40 -14 35 -42l-75 -423c-31 -173 -145 -260 -343 -260c-97 0 -167 28 -212 84c-43 53 -57 122 -42 209l69 390c5 28 22 42 50 42h113c29 0 40 -14 35 -42z" />
    <glyph glyph-name="V" unicode="V" horiz-adv-x="680" 
d="M604 710h116c29 0 35 -14 20 -41l-332 -634c-12 -23 -31 -35 -58 -35h-126c-27 0 -42 11 -46 33l-109 636c-5 27 7 41 36 41h112c24 0 41 -3 51 -9c9 -6 14 -17 15 -33l35 -342c4 -39 4 -82 0 -129h9c10 46 24 89 42 128l157 343c13 28 39 42 78 42z" />
    <glyph glyph-name="W" unicode="W" horiz-adv-x="935" 
d="M854 710h113c15 0 23 -3 26 -10c3 -6 1 -16 -6 -31l-264 -634c-9 -23 -29 -35 -58 -35h-124c-29 0 -44 11 -46 33l-12 233c-2 60 2 120 13 180h-9c-13 -62 -31 -122 -53 -180l-94 -231c-11 -23 -30 -35 -59 -35h-120c-29 0 -45 11 -46 33l-40 636c-1 15 0 25 5 31
c5 7 14 10 29 10h121c19 0 31 -2 38 -7c8 -5 12 -15 13 -30l-1 -262c-1 -57 -7 -116 -18 -177h7c13 67 30 126 50 177l108 262c10 25 31 37 62 37h107c32 0 49 -12 50 -37l14 -262c3 -45 -1 -104 -11 -177h8c9 49 24 108 45 177l89 262c9 25 30 37 63 37z" />
    <glyph glyph-name="Wacute" unicode="&#x1e82;" horiz-adv-x="935" 
d="M435 833l155 81c31 15 53 14 66 -3l40 -58c14 -19 10 -32 -12 -40l-191 -56c-24 -7 -39 -5 -46 5l-21 33c-11 16 -8 29 9 38zM854 710h113c15 0 23 -3 26 -10c3 -6 1 -16 -6 -31l-264 -634c-9 -23 -29 -35 -58 -35h-124c-29 0 -44 11 -46 33l-12 233c-2 60 2 120 13 180
h-9c-13 -62 -31 -122 -53 -180l-94 -231c-11 -23 -30 -35 -59 -35h-120c-29 0 -45 11 -46 33l-40 636c-1 15 0 25 5 31c5 7 14 10 29 10h121c19 0 31 -2 38 -7c8 -5 12 -15 13 -30l-1 -262c-1 -57 -7 -116 -18 -177h7c13 67 30 126 50 177l108 262c10 25 31 37 62 37h107
c32 0 49 -12 50 -37l14 -262c3 -45 -1 -104 -11 -177h8c9 49 24 108 45 177l89 262c9 25 30 37 63 37z" />
    <glyph glyph-name="Wcircumflex" unicode="&#x174;" horiz-adv-x="935" 
d="M569 920h32c28 0 50 -10 66 -30l85 -102c7 -9 10 -16 7 -23s-13 -11 -28 -11h-82c-34 0 -55 7 -64 21l-22 36l-37 -35c-15 -15 -38 -22 -69 -22h-80c-15 0 -23 4 -24 11s4 14 14 23l120 102c24 20 51 30 82 30zM854 710h113c15 0 23 -3 26 -10c3 -6 1 -16 -6 -31
l-264 -634c-9 -23 -29 -35 -58 -35h-124c-29 0 -44 11 -46 33l-12 233c-2 60 2 120 13 180h-9c-13 -62 -31 -122 -53 -180l-94 -231c-11 -23 -30 -35 -59 -35h-120c-29 0 -45 11 -46 33l-40 636c-1 15 0 25 5 31c5 7 14 10 29 10h121c19 0 31 -2 38 -7c8 -5 12 -15 13 -30
l-1 -262c-1 -57 -7 -116 -18 -177h7c13 67 30 126 50 177l108 262c10 25 31 37 62 37h107c32 0 49 -12 50 -37l14 -262c3 -45 -1 -104 -11 -177h8c9 49 24 108 45 177l89 262c9 25 30 37 63 37z" />
    <glyph glyph-name="Wdieresis" unicode="&#x1e84;" horiz-adv-x="935" 
d="M468 914h8c28 0 46 -5 55 -15c9 -11 11 -29 6 -56l-2 -13c-5 -27 -13 -45 -26 -55c-13 -11 -33 -16 -61 -16h-7c-28 0 -46 5 -54 16c-9 10 -10 28 -5 55l2 13c5 27 13 46 24 56c12 10 32 15 60 15zM684 914h7c27 0 45 -5 54 -15c9 -11 11 -29 6 -56l-2 -13
c-5 -27 -13 -45 -25 -55c-13 -11 -33 -16 -61 -16h-7c-27 0 -45 5 -54 16c-9 10 -11 28 -6 55l2 13c5 27 13 45 25 56c13 10 33 15 61 15zM854 710h113c15 0 23 -3 26 -10c3 -6 1 -16 -6 -31l-264 -634c-9 -23 -29 -35 -58 -35h-124c-29 0 -44 11 -46 33l-12 233
c-2 60 2 120 13 180h-9c-13 -62 -31 -122 -53 -180l-94 -231c-11 -23 -30 -35 -59 -35h-120c-29 0 -45 11 -46 33l-40 636c-1 15 0 25 5 31c5 7 14 10 29 10h121c19 0 31 -2 38 -7c8 -5 12 -15 13 -30l-1 -262c-1 -57 -7 -116 -18 -177h7c13 67 30 126 50 177l108 262
c10 25 31 37 62 37h107c32 0 49 -12 50 -37l14 -262c3 -45 -1 -104 -11 -177h8c9 49 24 108 45 177l89 262c9 25 30 37 63 37z" />
    <glyph glyph-name="Wgrave" unicode="&#x1e80;" horiz-adv-x="935" 
d="M445 854l62 60c19 18 41 19 66 3l126 -83c15 -9 14 -21 -3 -38l-34 -34c-9 -10 -25 -11 -47 -4l-171 56c-19 7 -18 20 1 40zM854 710h113c15 0 23 -3 26 -10c3 -6 1 -16 -6 -31l-264 -634c-9 -23 -29 -35 -58 -35h-124c-29 0 -44 11 -46 33l-12 233c-2 60 2 120 13 180
h-9c-13 -62 -31 -122 -53 -180l-94 -231c-11 -23 -30 -35 -59 -35h-120c-29 0 -45 11 -46 33l-40 636c-1 15 0 25 5 31c5 7 14 10 29 10h121c19 0 31 -2 38 -7c8 -5 12 -15 13 -30l-1 -262c-1 -57 -7 -116 -18 -177h7c13 67 30 126 50 177l108 262c10 25 31 37 62 37h107
c32 0 49 -12 50 -37l14 -262c3 -45 -1 -104 -11 -177h8c9 49 24 108 45 177l89 262c9 25 30 37 63 37z" />
    <glyph glyph-name="X" unicode="X" horiz-adv-x="662" 
d="M567 710h129c14 0 22 -4 24 -12c2 -7 -2 -17 -11 -28l-253 -308l153 -320c6 -11 6 -21 1 -29c-5 -9 -15 -13 -30 -13h-127c-27 0 -44 2 -53 6s-17 14 -24 31l-66 164l-120 -164c-19 -25 -49 -37 -90 -37h-124c-15 0 -24 4 -26 12s2 18 12 30l262 320l-142 308
c-5 11 -6 21 -1 28c5 8 15 12 28 12h119c26 0 44 -2 53 -6s17 -14 24 -29l63 -154l116 154c18 23 46 35 83 35z" />
    <glyph glyph-name="Y" unicode="Y" horiz-adv-x="673" 
d="M600 710h117c15 0 23 -4 25 -12s-2 -18 -11 -30l-300 -393l-40 -233c-5 -28 -22 -42 -50 -42h-114c-28 0 -39 14 -34 42l40 233l-160 393c-12 28 -3 42 28 42h116c27 0 44 -2 52 -5c11 -5 19 -15 25 -32l71 -204l147 204c11 17 23 27 35 32c9 3 27 5 53 5z" />
    <glyph glyph-name="Yacute" unicode="&#xdd;" horiz-adv-x="673" 
d="M303 833l156 81c30 16 52 15 66 -3l40 -58c13 -19 9 -33 -13 -40l-191 -56c-24 -7 -39 -5 -45 5l-21 33c-11 17 -9 29 8 38zM600 710h117c15 0 23 -4 25 -12s-2 -18 -11 -30l-300 -393l-40 -233c-5 -28 -22 -42 -50 -42h-114c-28 0 -39 14 -34 42l40 233l-160 393
c-12 28 -3 42 28 42h116c27 0 44 -2 52 -5c11 -5 19 -15 25 -32l71 -204l147 204c11 17 23 27 35 32c9 3 27 5 53 5z" />
    <glyph glyph-name="Ycircumflex" unicode="&#x176;" horiz-adv-x="673" 
d="M438 920h32c28 0 50 -10 66 -30l85 -102c7 -9 9 -16 6 -23s-12 -11 -27 -11h-82c-34 0 -55 7 -64 21l-22 36l-37 -35c-15 -15 -38 -22 -69 -22h-80c-15 0 -23 4 -24 11s3 14 14 23l120 102c24 20 51 30 82 30zM600 710h117c15 0 23 -4 25 -12s-2 -18 -11 -30l-300 -393
l-40 -233c-5 -28 -22 -42 -50 -42h-114c-28 0 -39 14 -34 42l40 233l-160 393c-12 28 -3 42 28 42h116c27 0 44 -2 52 -5c11 -5 19 -15 25 -32l71 -204l147 204c11 17 23 27 35 32c9 3 27 5 53 5z" />
    <glyph glyph-name="Ydieresis" unicode="&#x178;" horiz-adv-x="673" 
d="M337 914h7c28 0 46 -5 55 -15c9 -11 12 -29 7 -56l-3 -13c-5 -27 -13 -45 -25 -55c-13 -11 -33 -16 -61 -16h-8c-27 0 -45 5 -53 16c-9 10 -11 28 -6 55l3 13c5 27 13 46 24 56c12 10 32 15 60 15zM552 914h7c28 0 46 -5 55 -15s11 -29 6 -56l-3 -13
c-5 -27 -13 -45 -25 -55c-12 -11 -32 -16 -60 -16h-7c-28 0 -46 5 -55 16c-9 10 -11 28 -6 55l3 13c5 27 13 45 25 56c13 10 33 15 60 15zM600 710h117c15 0 23 -4 25 -12s-2 -18 -11 -30l-300 -393l-40 -233c-5 -28 -22 -42 -50 -42h-114c-28 0 -39 14 -34 42l40 233
l-160 393c-12 28 -3 42 28 42h116c27 0 44 -2 52 -5c11 -5 19 -15 25 -32l71 -204l147 204c11 17 23 27 35 32c9 3 27 5 53 5z" />
    <glyph glyph-name="Ygrave" unicode="&#x1ef2;" horiz-adv-x="673" 
d="M314 854l61 60c19 18 41 19 67 3l126 -83c15 -9 14 -21 -3 -38l-34 -34c-10 -10 -26 -11 -47 -4l-172 56c-19 7 -18 20 2 40zM600 710h117c15 0 23 -4 25 -12s-2 -18 -11 -30l-300 -393l-40 -233c-5 -28 -22 -42 -50 -42h-114c-28 0 -39 14 -34 42l40 233l-160 393
c-12 28 -3 42 28 42h116c27 0 44 -2 52 -5c11 -5 19 -15 25 -32l71 -204l147 204c11 17 23 27 35 32c9 3 27 5 53 5z" />
    <glyph glyph-name="Z" unicode="Z" horiz-adv-x="609" 
d="M143 710h464c29 0 40 -14 35 -42l-10 -60c-3 -16 -11 -31 -22 -44l-349 -389h257c16 0 27 -3 32 -9s6 -17 3 -33l-16 -91c-5 -28 -22 -42 -50 -42h-474c-28 0 -39 14 -34 42l10 61c3 16 10 30 21 42l349 390h-246c-29 0 -40 14 -35 43l16 90c5 28 21 42 49 42z" />
    <glyph glyph-name="Zacute" unicode="&#x179;" horiz-adv-x="609" 
d="M272 833l155 81c31 15 53 14 66 -3l41 -58c13 -19 9 -33 -13 -40l-191 -56c-24 -7 -39 -5 -46 5l-21 33c-11 17 -8 29 9 38zM143 710h464c29 0 40 -14 35 -42l-10 -60c-3 -16 -11 -31 -22 -44l-349 -389h257c16 0 27 -3 32 -9s6 -17 3 -33l-16 -91
c-5 -28 -22 -42 -50 -42h-474c-28 0 -39 14 -34 42l10 61c3 16 10 30 21 42l349 390h-246c-29 0 -40 14 -35 43l16 90c5 28 21 42 49 42z" />
    <glyph glyph-name="Zcaron" unicode="&#x17d;" horiz-adv-x="609" 
d="M518 920h76c15 0 22 -4 23 -11c0 -7 -5 -15 -16 -24l-118 -102c-23 -19 -49 -29 -80 -29h-28c-29 0 -52 10 -67 29l-83 102c-7 9 -10 17 -8 24s10 11 25 11h84c32 0 53 -7 63 -22l24 -34l35 34c15 15 39 22 70 22zM143 710h464c29 0 40 -14 35 -42l-10 -60
c-3 -16 -11 -31 -22 -44l-349 -389h257c16 0 27 -3 32 -9s6 -17 3 -33l-16 -91c-5 -28 -22 -42 -50 -42h-474c-28 0 -39 14 -34 42l10 61c3 16 10 30 21 42l349 390h-246c-29 0 -40 14 -35 43l16 90c5 28 21 42 49 42z" />
    <glyph glyph-name="Zdotaccent" unicode="&#x17b;" horiz-adv-x="609" 
d="M415 915h6c29 0 47 -5 56 -16c9 -10 10 -30 5 -59l-2 -8c-5 -29 -14 -49 -25 -59c-13 -11 -33 -16 -62 -16h-6c-29 0 -48 5 -57 16c-9 10 -11 30 -6 59l2 8c5 29 14 49 26 59c13 11 34 16 63 16zM143 710h464c29 0 40 -14 35 -42l-10 -60c-3 -16 -11 -31 -22 -44
l-349 -389h257c16 0 27 -3 32 -9s6 -17 3 -33l-16 -91c-5 -28 -22 -42 -50 -42h-474c-28 0 -39 14 -34 42l10 61c3 16 10 30 21 42l349 390h-246c-29 0 -40 14 -35 43l16 90c5 28 21 42 49 42z" />
    <glyph glyph-name="a" unicode="a" 
d="M12 216l19 108c25 141 118 211 280 211c83 0 147 -11 192 -34c15 -8 25 -16 28 -23s3 -18 0 -35l-68 -387c-4 -24 -19 -40 -46 -47c-66 -16 -138 -24 -217 -24c-75 0 -128 22 -161 65c-31 40 -40 95 -27 166zM327 369c-10 3 -23 4 -39 4c-41 0 -65 -18 -72 -55l-22 -122
c-5 -33 11 -50 48 -50c21 0 39 2 52 5l37 211c1 4 0 6 -4 7z" />
    <glyph glyph-name="aacute" unicode="&#xe1;" 
d="M210 650l154 84c31 17 53 16 66 -2l42 -56c15 -19 11 -33 -12 -40l-190 -60c-24 -8 -39 -7 -46 3l-23 33c-11 17 -8 29 9 38zM12 216l19 108c25 141 118 211 280 211c83 0 147 -11 192 -34c15 -8 25 -16 28 -23s3 -18 0 -35l-68 -387c-4 -24 -19 -40 -46 -47
c-66 -16 -138 -24 -217 -24c-75 0 -128 22 -161 65c-31 40 -40 95 -27 166zM327 369c-10 3 -23 4 -39 4c-41 0 -65 -18 -72 -55l-22 -122c-5 -33 11 -50 48 -50c21 0 39 2 52 5l37 211c1 4 0 6 -4 7z" />
    <glyph glyph-name="abreve" unicode="&#x103;" 
d="M524 680c-39 -71 -104 -106 -195 -106c-92 0 -145 35 -158 106c-4 16 4 28 23 35l68 24c12 4 20 5 25 3c4 -1 8 -6 12 -15c8 -21 25 -32 50 -32c24 0 44 11 60 33c11 13 23 17 38 12l66 -25c16 -7 20 -19 11 -35zM12 216l19 108c25 141 118 211 280 211
c83 0 147 -11 192 -34c15 -8 25 -16 28 -23s3 -18 0 -35l-68 -387c-4 -24 -19 -40 -46 -47c-66 -16 -138 -24 -217 -24c-75 0 -128 22 -161 65c-31 40 -40 95 -27 166zM327 369c-10 3 -23 4 -39 4c-41 0 -65 -18 -72 -55l-22 -122c-5 -33 11 -50 48 -50c21 0 39 2 52 5
l37 211c1 4 0 6 -4 7z" />
    <glyph glyph-name="acircumflex" unicode="&#xe2;" 
d="M350 740h27c28 0 50 -10 67 -29l84 -102c7 -9 9 -16 6 -23c-3 -8 -12 -12 -27 -12h-78c-33 0 -53 7 -62 22l-23 35l-37 -35c-15 -15 -38 -22 -69 -22h-81c-15 0 -22 4 -23 12c-1 7 4 14 14 23l120 102c24 19 51 29 82 29zM12 216l19 108c25 141 118 211 280 211
c83 0 147 -11 192 -34c15 -8 25 -16 28 -23s3 -18 0 -35l-68 -387c-4 -24 -19 -40 -46 -47c-66 -16 -138 -24 -217 -24c-75 0 -128 22 -161 65c-31 40 -40 95 -27 166zM327 369c-10 3 -23 4 -39 4c-41 0 -65 -18 -72 -55l-22 -122c-5 -33 11 -50 48 -50c21 0 39 2 52 5
l37 211c1 4 0 6 -4 7z" />
    <glyph glyph-name="adieresis" unicode="&#xe4;" 
d="M244 733h8c27 0 45 -5 54 -15c9 -11 11 -29 6 -56l-2 -13c-5 -27 -13 -45 -25 -56c-13 -11 -33 -16 -61 -16h-7c-28 0 -46 5 -55 16s-10 29 -5 56l2 13c5 27 14 46 25 56c12 10 32 15 60 15zM460 733h7c27 0 45 -5 54 -15s10 -29 5 -56l-2 -13c-5 -27 -13 -45 -25 -56
s-32 -16 -60 -16h-7c-27 0 -46 5 -55 16s-11 29 -6 56l2 13c5 27 13 45 26 56c13 10 33 15 61 15zM12 216l19 108c25 141 118 211 280 211c83 0 147 -11 192 -34c15 -8 25 -16 28 -23s3 -18 0 -35l-68 -387c-4 -24 -19 -40 -46 -47c-66 -16 -138 -24 -217 -24
c-75 0 -128 22 -161 65c-31 40 -40 95 -27 166zM327 369c-10 3 -23 4 -39 4c-41 0 -65 -18 -72 -55l-22 -122c-5 -33 11 -50 48 -50c21 0 39 2 52 5l37 211c1 4 0 6 -4 7z" />
    <glyph glyph-name="agrave" unicode="&#xe0;" 
d="M222 676l63 56c20 18 42 19 66 2l125 -84c13 -9 11 -21 -5 -38l-35 -33c-9 -10 -25 -11 -46 -3l-170 60c-19 7 -18 21 2 40zM12 216l19 108c25 141 118 211 280 211c83 0 147 -11 192 -34c15 -8 25 -16 28 -23s3 -18 0 -35l-68 -387c-4 -24 -19 -40 -46 -47
c-66 -16 -138 -24 -217 -24c-75 0 -128 22 -161 65c-31 40 -40 95 -27 166zM327 369c-10 3 -23 4 -39 4c-41 0 -65 -18 -72 -55l-22 -122c-5 -33 11 -50 48 -50c21 0 39 2 52 5l37 211c1 4 0 6 -4 7z" />
    <glyph glyph-name="amacron" unicode="&#x101;" 
d="M229 710h244c15 0 24 -2 28 -7s5 -14 2 -29l-8 -42c-3 -24 -17 -36 -42 -36h-244c-14 0 -23 2 -27 7s-5 14 -3 29l8 42c4 24 18 36 42 36zM12 216l19 108c25 141 118 211 280 211c83 0 147 -11 192 -34c15 -8 25 -16 28 -23s3 -18 0 -35l-68 -387c-4 -24 -19 -40 -46 -47
c-66 -16 -138 -24 -217 -24c-75 0 -128 22 -161 65c-31 40 -40 95 -27 166zM327 369c-10 3 -23 4 -39 4c-41 0 -65 -18 -72 -55l-22 -122c-5 -33 11 -50 48 -50c21 0 39 2 52 5l37 211c1 4 0 6 -4 7z" />
    <glyph glyph-name="aogonek" unicode="&#x105;" horiz-adv-x="546" 
d="M12 216l19 108c25 141 118 211 280 211c83 0 147 -11 192 -34c15 -8 25 -16 28 -23s3 -18 0 -35l-68 -387c-3 -14 -8 -25 -15 -32c-57 -55 -86 -101 -88 -139c0 -13 5 -19 15 -19c6 0 12 2 19 6c12 7 20 5 23 -6l13 -51c3 -13 -1 -22 -11 -29c-31 -21 -71 -32 -118 -32
c-63 0 -95 24 -95 73c0 55 32 109 95 163c-27 -3 -60 -5 -101 -5c-75 0 -128 22 -161 65c-31 40 -40 95 -27 166zM327 369c-10 3 -23 4 -39 4c-41 0 -65 -18 -72 -55l-22 -122c-5 -33 11 -50 48 -50c21 0 39 2 52 5l37 211c1 4 0 6 -4 7z" />
    <glyph glyph-name="aring" unicode="&#xe5;" 
d="M214 680c6 36 23 65 52 86c27 21 60 31 99 31c38 0 67 -10 86 -31c20 -22 27 -51 20 -86c-6 -35 -23 -64 -50 -85s-60 -31 -97 -31c-39 0 -68 10 -88 31c-21 21 -29 49 -22 85zM379 680c3 24 -6 36 -29 36c-25 0 -39 -12 -44 -36c-5 -23 6 -34 32 -34c23 0 37 11 41 34z
M12 216l19 108c25 141 118 211 280 211c83 0 147 -11 192 -34c15 -8 25 -16 28 -23s3 -18 0 -35l-68 -387c-4 -24 -19 -40 -46 -47c-66 -16 -138 -24 -217 -24c-75 0 -128 22 -161 65c-31 40 -40 95 -27 166zM327 369c-10 3 -23 4 -39 4c-41 0 -65 -18 -72 -55l-22 -122
c-5 -33 11 -50 48 -50c21 0 39 2 52 5l37 211c1 4 0 6 -4 7z" />
    <glyph glyph-name="aringacute" unicode="&#x1fb;" 
d="M225 855l144 62c29 12 49 12 62 -1l39 -42c14 -15 10 -25 -11 -30l-178 -44c-23 -6 -37 -5 -43 2l-21 24c-11 12 -8 22 8 29zM214 672c6 35 23 63 50 84c27 19 59 29 96 29s65 -10 84 -31s26 -48 20 -82c-6 -35 -22 -62 -49 -83c-26 -20 -57 -30 -94 -30
c-38 0 -67 10 -86 30c-21 21 -28 48 -21 83zM374 672c4 23 -5 34 -28 34c-25 0 -39 -11 -43 -34c-3 -23 7 -34 31 -34c23 0 37 11 40 34zM12 216l19 108c25 141 118 211 280 211c83 0 147 -11 192 -34c15 -8 25 -16 28 -23s3 -18 0 -35l-68 -387c-4 -24 -19 -40 -46 -47
c-66 -16 -138 -24 -217 -24c-75 0 -128 22 -161 65c-31 40 -40 95 -27 166zM327 369c-10 3 -23 4 -39 4c-41 0 -65 -18 -72 -55l-22 -122c-5 -33 11 -50 48 -50c21 0 39 2 52 5l37 211c1 4 0 6 -4 7z" />
    <glyph glyph-name="atilde" unicode="&#xe3;" 
d="M441 731h61c16 0 22 -8 19 -23c-14 -82 -54 -123 -120 -123c-28 0 -54 7 -78 21c-24 13 -40 20 -47 20c-10 0 -16 -7 -19 -22c-2 -13 -9 -19 -22 -19h-62c-15 0 -21 8 -19 23c15 82 54 123 118 123c29 0 55 -7 80 -21s41 -21 48 -21c10 0 16 7 19 22c2 13 9 20 22 20z
M12 216l19 108c25 141 118 211 280 211c83 0 147 -11 192 -34c15 -8 25 -16 28 -23s3 -18 0 -35l-68 -387c-4 -24 -19 -40 -46 -47c-66 -16 -138 -24 -217 -24c-75 0 -128 22 -161 65c-31 40 -40 95 -27 166zM327 369c-10 3 -23 4 -39 4c-41 0 -65 -18 -72 -55l-22 -122
c-5 -33 11 -50 48 -50c21 0 39 2 52 5l37 211c1 4 0 6 -4 7z" />
    <glyph glyph-name="ae" unicode="&#xe6;" horiz-adv-x="771" 
d="M412 487c44 32 94 48 150 48c73 0 128 -15 163 -46s48 -76 38 -134c-8 -47 -32 -84 -71 -111c-38 -26 -87 -39 -146 -39c-31 0 -65 2 -102 6l-4 -21c-7 -43 9 -65 48 -65c31 0 57 12 79 37c15 19 32 22 53 10l61 -34c23 -13 26 -32 7 -58c-43 -63 -119 -95 -227 -95
c-47 0 -87 9 -120 28c-44 -19 -94 -28 -149 -28c-150 0 -216 59 -197 176c9 57 34 97 75 122c40 23 102 35 185 35l40 -1l4 25c6 34 -7 51 -40 51c-22 0 -43 -12 -62 -36c-13 -17 -31 -21 -52 -11l-70 30c-25 12 -28 30 -11 55c49 69 124 104 224 104c53 0 94 -16 124 -48z
M581 362c6 27 -9 41 -45 41c-40 0 -63 -20 -69 -60l-2 -13c27 -3 47 -4 61 -4c33 0 52 12 55 36zM270 178l2 14c-15 1 -29 2 -44 2c-31 0 -49 -14 -54 -42c-5 -27 8 -40 37 -40c15 0 34 2 57 5c-2 20 -1 40 2 61z" />
    <glyph glyph-name="aeacute" unicode="&#x1fd;" horiz-adv-x="771" 
d="M312 650l154 84c31 17 53 16 66 -2l42 -56c15 -19 11 -33 -12 -40l-190 -60c-24 -8 -39 -7 -46 3l-23 33c-11 17 -8 29 9 38zM412 487c44 32 94 48 150 48c73 0 128 -15 163 -46s48 -76 38 -134c-8 -47 -32 -84 -71 -111c-38 -26 -87 -39 -146 -39c-31 0 -65 2 -102 6
l-4 -21c-7 -43 9 -65 48 -65c31 0 57 12 79 37c15 19 32 22 53 10l61 -34c23 -13 26 -32 7 -58c-43 -63 -119 -95 -227 -95c-47 0 -87 9 -120 28c-44 -19 -94 -28 -149 -28c-150 0 -216 59 -197 176c9 57 34 97 75 122c40 23 102 35 185 35l40 -1l4 25c6 34 -7 51 -40 51
c-22 0 -43 -12 -62 -36c-13 -17 -31 -21 -52 -11l-70 30c-25 12 -28 30 -11 55c49 69 124 104 224 104c53 0 94 -16 124 -48zM581 362c6 27 -9 41 -45 41c-40 0 -63 -20 -69 -60l-2 -13c27 -3 47 -4 61 -4c33 0 52 12 55 36zM270 178l2 14c-15 1 -29 2 -44 2
c-31 0 -49 -14 -54 -42c-5 -27 8 -40 37 -40c15 0 34 2 57 5c-2 20 -1 40 2 61z" />
    <glyph glyph-name="b" unicode="b" horiz-adv-x="548" 
d="M157 739h109c15 0 24 -3 29 -8s6 -15 3 -30l-30 -172c28 4 51 6 68 6c75 0 128 -21 160 -62c30 -39 39 -94 26 -165l-19 -108c-25 -143 -119 -215 -281 -215c-80 0 -144 11 -192 34c-15 8 -25 16 -28 23s-3 19 0 36l109 623c5 25 21 38 46 38zM317 202l22 124
c5 33 -11 49 -48 49c-19 0 -37 -2 -52 -7l-37 -211c0 -3 1 -4 2 -5c9 -3 23 -5 41 -5c41 0 65 18 72 55z" />
    <glyph glyph-name="c" unicode="c" horiz-adv-x="517" 
d="M12 214l19 110c25 141 118 211 279 211c116 0 182 -47 199 -140c5 -27 -7 -44 -35 -53l-89 -30c-16 -5 -28 -6 -35 -2s-12 14 -15 29c-6 27 -24 40 -55 40c-35 0 -57 -18 -64 -55l-22 -129c-7 -36 8 -54 43 -54c28 0 50 14 67 41c13 25 33 34 59 25l91 -29
c27 -9 33 -27 16 -56c-54 -91 -140 -137 -259 -137c-80 0 -137 21 -170 63c-32 39 -42 95 -29 166z" />
    <glyph glyph-name="cacute" unicode="&#x107;" horiz-adv-x="517" 
d="M189 650l154 84c30 17 52 16 66 -2l42 -56c14 -19 10 -32 -12 -40l-191 -60c-24 -8 -39 -7 -45 3l-23 33c-11 16 -8 29 9 38zM12 214l19 110c25 141 118 211 279 211c116 0 182 -47 199 -140c5 -27 -7 -44 -35 -53l-89 -30c-16 -5 -28 -6 -35 -2s-12 14 -15 29
c-6 27 -24 40 -55 40c-35 0 -57 -18 -64 -55l-22 -129c-7 -36 8 -54 43 -54c28 0 50 14 67 41c13 25 33 34 59 25l91 -29c27 -9 33 -27 16 -56c-54 -91 -140 -137 -259 -137c-80 0 -137 21 -170 63c-32 39 -42 95 -29 166z" />
    <glyph glyph-name="ccaron" unicode="&#x10d;" horiz-adv-x="517" 
d="M433 739h78c30 0 32 -11 7 -34l-119 -102c-22 -20 -48 -30 -79 -30h-28c-28 0 -51 10 -68 30l-82 102c-8 9 -11 16 -9 23c3 7 11 11 26 11h82c31 0 52 -7 62 -21l24 -35l36 34c15 15 39 22 70 22zM310 535c116 0 182 -47 199 -140c5 -27 -7 -44 -35 -53l-89 -30
c-16 -5 -28 -6 -35 -2s-12 14 -15 29c-6 27 -24 40 -55 40c-35 0 -57 -18 -64 -55l-22 -129c-7 -36 8 -54 43 -54c28 0 50 14 67 41c13 25 33 34 59 25l91 -29c27 -9 33 -27 16 -56c-54 -91 -140 -137 -259 -137c-80 0 -137 21 -170 63c-32 39 -42 95 -29 166l19 110
c25 141 118 211 279 211z" />
    <glyph glyph-name="ccedilla" unicode="&#xe7;" horiz-adv-x="517" 
d="M12 214l19 110c25 141 119 211 280 211c117 0 183 -47 198 -140c5 -27 -7 -44 -34 -53l-90 -30c-28 -9 -45 0 -50 27c-6 27 -24 40 -55 40c-35 0 -56 -18 -63 -55l-23 -129c-7 -36 8 -54 44 -54c29 0 51 14 66 41c14 25 34 34 59 25l92 -29c27 -9 33 -28 16 -56
c-46 -76 -113 -120 -201 -133l-22 -39h7c29 -1 50 -11 62 -32c11 -19 13 -43 5 -72c-17 -64 -72 -96 -164 -96c-23 0 -48 5 -74 16c-17 7 -24 17 -22 31l8 42c3 21 15 27 34 16c18 -10 36 -15 53 -15c23 0 36 8 39 23s-10 22 -39 22h-19c-19 0 -23 10 -10 30l44 72
c-65 6 -111 30 -138 72c-25 39 -33 90 -22 155z" />
    <glyph glyph-name="ccircumflex" unicode="&#x109;" horiz-adv-x="517" 
d="M422 711l85 -102c7 -9 9 -16 6 -23c-3 -8 -13 -12 -28 -12h-77c-33 0 -54 7 -63 22l-22 35l-37 -35c-15 -15 -38 -22 -69 -22h-81c-15 0 -23 4 -24 12c-1 7 4 14 15 23l120 102c23 19 51 29 82 29h27c27 0 49 -10 66 -29zM310 535c116 0 182 -47 199 -140
c5 -27 -7 -44 -35 -53l-89 -30c-16 -5 -28 -6 -35 -2s-12 14 -15 29c-6 27 -24 40 -55 40c-35 0 -57 -18 -64 -55l-22 -129c-7 -36 8 -54 43 -54c28 0 50 14 67 41c13 25 33 34 59 25l91 -29c27 -9 33 -27 16 -56c-54 -91 -140 -137 -259 -137c-80 0 -137 21 -170 63
c-32 39 -42 95 -29 166l19 110c25 141 118 211 279 211z" />
    <glyph glyph-name="cdotaccent" unicode="&#x10b;" horiz-adv-x="517" 
d="M332 736h6c29 0 47 -5 56 -16c9 -10 10 -30 5 -59l-2 -8c-5 -29 -13 -48 -25 -59s-33 -16 -62 -16h-6c-29 0 -47 5 -56 16c-9 10 -11 30 -6 59l2 8c5 29 13 48 26 59c12 11 33 16 62 16zM12 214l19 110c25 141 118 211 279 211c116 0 182 -47 199 -140
c5 -27 -7 -44 -35 -53l-89 -30c-16 -5 -28 -6 -35 -2s-12 14 -15 29c-6 27 -24 40 -55 40c-35 0 -57 -18 -64 -55l-22 -129c-7 -36 8 -54 43 -54c28 0 50 14 67 41c13 25 33 34 59 25l91 -29c27 -9 33 -27 16 -56c-54 -91 -140 -137 -259 -137c-80 0 -137 21 -170 63
c-32 39 -42 95 -29 166z" />
    <glyph glyph-name="d" unicode="d" horiz-adv-x="547" 
d="M13 219l19 109c25 138 112 207 262 207l67 -3l30 170c5 25 20 38 45 38h110c25 0 36 -13 31 -38l-110 -625c-5 -27 -22 -46 -51 -57c-63 -23 -134 -35 -212 -35c-77 0 -131 22 -164 66c-31 41 -40 97 -27 168zM295 156l37 213c-15 3 -29 5 -43 5c-42 0 -66 -18 -73 -55
l-21 -123c-6 -33 10 -49 48 -49c19 0 35 1 48 4c1 1 3 2 4 5z" />
    <glyph glyph-name="eth" unicode="&#xf0;" horiz-adv-x="559" 
d="M436 717l42 41c10 9 19 10 26 1l32 -29c9 -7 8 -16 -3 -27l-32 -30c48 -54 60 -152 35 -293l-32 -182c-25 -142 -120 -213 -285 -213c-81 0 -139 21 -175 62c-35 39 -47 94 -35 163l17 91c11 63 40 112 87 145c44 31 100 47 168 47c46 0 83 -9 110 -27c3 37 -5 65 -23 85
l-39 -35c-9 -7 -18 -8 -27 -2l-30 21c-9 7 -7 16 4 27l24 24c-19 4 -56 6 -113 6c-15 0 -26 3 -31 9c-5 5 -6 16 -4 31l13 71c5 27 20 41 47 41c101 0 175 -9 224 -27zM318 199l16 92c6 36 -11 54 -52 54c-42 0 -66 -18 -72 -54l-16 -92c-7 -35 10 -53 53 -53
c40 0 64 18 71 53z" />
    <glyph glyph-name="dcaron" unicode="&#x10f;" horiz-adv-x="655" 
d="M13 219l19 109c25 138 112 207 262 207l67 -3l30 170c5 25 20 38 45 38h110c25 0 36 -13 31 -38l-110 -625c-5 -27 -22 -46 -51 -57c-63 -23 -134 -35 -212 -35c-77 0 -131 22 -164 66c-31 41 -40 97 -27 168zM780 698l-65 -159c-9 -23 -26 -35 -49 -35h-48
c-23 0 -31 11 -26 34l36 160c3 17 8 28 14 33c7 6 18 9 33 9h72c34 0 45 -14 33 -42zM295 156l37 213c-15 3 -29 5 -43 5c-42 0 -66 -18 -73 -55l-21 -123c-6 -33 10 -49 48 -49c19 0 35 1 48 4c1 1 3 2 4 5z" />
    <glyph glyph-name="dslash" unicode="&#x111;" horiz-adv-x="548" 
d="M574 682h43c16 0 23 -9 20 -26l-8 -47c-3 -18 -13 -27 -29 -27h-43l-90 -505c-5 -27 -22 -46 -51 -57c-63 -23 -134 -35 -212 -35c-77 0 -132 21 -165 64c-31 39 -40 94 -27 165l19 109c25 141 113 212 263 212c7 0 29 -1 67 -3l9 50h-86c-9 0 -15 2 -18 5
c-3 4 -3 11 -2 22l9 47c3 17 12 26 28 26h87l3 20c5 25 20 38 46 38h109c26 0 37 -13 32 -38zM295 156l37 213c-13 3 -28 5 -43 5c-41 0 -65 -18 -72 -55l-22 -123c-6 -33 10 -49 48 -49c19 0 35 1 48 4c1 1 3 2 4 5z" />
    <glyph glyph-name="e" unicode="e" horiz-adv-x="542" 
d="M11 220l19 104c12 67 43 119 92 156s114 55 193 55c75 0 131 -16 170 -47c39 -33 55 -79 47 -138c-7 -46 -30 -82 -69 -107s-90 -38 -154 -38c-34 0 -72 2 -113 6l-4 -21c-7 -43 11 -64 54 -64c35 0 64 12 87 36c17 19 37 23 58 10l65 -33c24 -13 27 -32 9 -58
c-47 -64 -128 -96 -243 -96c-85 0 -146 23 -182 68c-32 41 -42 97 -29 167zM350 362c4 27 -14 41 -55 41c-42 0 -67 -21 -76 -62l-3 -11c25 -3 48 -5 69 -5c39 0 61 12 65 37z" />
    <glyph glyph-name="eacute" unicode="&#xe9;" horiz-adv-x="542" 
d="M207 650l153 84c31 17 53 16 66 -2l43 -56c13 -19 9 -33 -12 -40l-191 -60c-24 -8 -39 -7 -46 3l-22 33c-11 17 -8 29 9 38zM11 220l19 104c12 67 43 119 92 156s114 55 193 55c75 0 131 -16 170 -47c39 -33 55 -79 47 -138c-7 -46 -30 -82 -69 -107s-90 -38 -154 -38
c-34 0 -72 2 -113 6l-4 -21c-7 -43 11 -64 54 -64c35 0 64 12 87 36c17 19 37 23 58 10l65 -33c24 -13 27 -32 9 -58c-47 -64 -128 -96 -243 -96c-85 0 -146 23 -182 68c-32 41 -42 97 -29 167zM350 362c4 27 -14 41 -55 41c-42 0 -67 -21 -76 -62l-3 -11c25 -3 48 -5 69 -5
c39 0 61 12 65 37z" />
    <glyph glyph-name="ebreve" unicode="&#x115;" horiz-adv-x="542" 
d="M520 680c-39 -71 -103 -106 -194 -106c-93 0 -146 35 -159 106c-3 16 4 28 23 35l68 24c12 4 20 5 25 3c4 -1 8 -6 12 -15c8 -21 25 -32 50 -32s45 11 60 33c11 13 23 17 38 12l66 -25c16 -7 20 -19 11 -35zM11 220l19 104c12 67 43 119 92 156s114 55 193 55
c75 0 131 -16 170 -47c39 -33 55 -79 47 -138c-7 -46 -30 -82 -69 -107s-90 -38 -154 -38c-34 0 -72 2 -113 6l-4 -21c-7 -43 11 -64 54 -64c35 0 64 12 87 36c17 19 37 23 58 10l65 -33c24 -13 27 -32 9 -58c-47 -64 -128 -96 -243 -96c-85 0 -146 23 -182 68
c-32 41 -42 97 -29 167zM350 362c4 27 -14 41 -55 41c-42 0 -67 -21 -76 -62l-3 -11c25 -3 48 -5 69 -5c39 0 61 12 65 37z" />
    <glyph glyph-name="ecaron" unicode="&#x11b;" horiz-adv-x="542" 
d="M450 739h79c15 0 22 -4 22 -11s-5 -14 -16 -23l-118 -102c-23 -20 -49 -30 -80 -30h-27c-29 0 -52 10 -68 30l-83 102c-7 9 -10 17 -8 23c3 7 11 11 26 11h81c32 0 53 -7 62 -21l25 -35l35 34c15 15 39 22 70 22zM315 535c75 0 131 -16 170 -47c39 -33 55 -79 47 -138
c-7 -46 -30 -82 -69 -107s-90 -38 -154 -38c-34 0 -72 2 -113 6l-4 -21c-7 -43 11 -64 54 -64c35 0 64 12 87 36c17 19 37 23 58 10l65 -33c24 -13 27 -32 9 -58c-47 -64 -128 -96 -243 -96c-85 0 -146 23 -182 68c-32 41 -42 97 -29 167l19 104c12 67 43 119 92 156
s114 55 193 55zM350 362c4 27 -14 41 -55 41c-42 0 -67 -21 -76 -62l-3 -11c25 -3 48 -5 69 -5c39 0 61 12 65 37z" />
    <glyph glyph-name="ecircumflex" unicode="&#xea;" horiz-adv-x="542" 
d="M234 574h-81c-15 0 -22 4 -23 12c-1 7 4 14 14 23l121 102c23 19 50 29 81 29h28c27 0 49 -10 66 -29l84 -102c7 -9 9 -16 6 -23c-3 -8 -12 -12 -27 -12h-77c-33 0 -54 7 -63 22l-23 35l-37 -35c-15 -15 -38 -22 -69 -22zM315 535c75 0 131 -16 170 -47
c39 -33 55 -79 47 -138c-7 -46 -30 -82 -69 -107s-90 -38 -154 -38c-34 0 -72 2 -113 6l-4 -21c-7 -43 11 -64 54 -64c35 0 64 12 87 36c17 19 37 23 58 10l65 -33c24 -13 27 -32 9 -58c-47 -64 -128 -96 -243 -96c-85 0 -146 23 -182 68c-32 41 -42 97 -29 167l19 104
c12 67 43 119 92 156s114 55 193 55zM350 362c4 27 -14 41 -55 41c-42 0 -67 -21 -76 -62l-3 -11c25 -3 48 -5 69 -5c39 0 61 12 65 37z" />
    <glyph glyph-name="edieresis" unicode="&#xeb;" horiz-adv-x="542" 
d="M240 733h8c27 0 46 -5 55 -15c9 -11 11 -29 6 -56l-2 -13c-5 -27 -14 -45 -26 -56c-13 -11 -33 -16 -60 -16h-8c-27 0 -45 5 -54 16s-11 29 -6 56l2 13c5 27 14 46 26 56s32 15 59 15zM456 733h7c27 0 45 -5 54 -15s11 -29 6 -56l-2 -13c-5 -27 -14 -45 -26 -56
s-32 -16 -59 -16h-7c-28 0 -46 5 -55 16s-12 29 -7 56l2 13c5 27 13 45 26 56c13 10 33 15 61 15zM11 220l19 104c12 67 43 119 92 156s114 55 193 55c75 0 131 -16 170 -47c39 -33 55 -79 47 -138c-7 -46 -30 -82 -69 -107s-90 -38 -154 -38c-34 0 -72 2 -113 6l-4 -21
c-7 -43 11 -64 54 -64c35 0 64 12 87 36c17 19 37 23 58 10l65 -33c24 -13 27 -32 9 -58c-47 -64 -128 -96 -243 -96c-85 0 -146 23 -182 68c-32 41 -42 97 -29 167zM350 362c4 27 -14 41 -55 41c-42 0 -67 -21 -76 -62l-3 -11c25 -3 48 -5 69 -5c39 0 61 12 65 37z" />
    <glyph glyph-name="edotaccent" unicode="&#x117;" horiz-adv-x="542" 
d="M349 736h6c29 0 48 -5 57 -16c9 -10 10 -30 5 -59l-2 -8c-5 -29 -14 -49 -25 -59c-13 -11 -33 -16 -62 -16h-6c-29 0 -48 5 -57 16c-9 10 -11 30 -6 59l2 8c5 29 13 48 26 59c12 11 33 16 62 16zM11 220l19 104c12 67 43 119 92 156s114 55 193 55c75 0 131 -16 170 -47
c39 -33 55 -79 47 -138c-7 -46 -30 -82 -69 -107s-90 -38 -154 -38c-34 0 -72 2 -113 6l-4 -21c-7 -43 11 -64 54 -64c35 0 64 12 87 36c17 19 37 23 58 10l65 -33c24 -13 27 -32 9 -58c-47 -64 -128 -96 -243 -96c-85 0 -146 23 -182 68c-32 41 -42 97 -29 167zM350 362
c4 27 -14 41 -55 41c-42 0 -67 -21 -76 -62l-3 -11c25 -3 48 -5 69 -5c39 0 61 12 65 37z" />
    <glyph glyph-name="egrave" unicode="&#xe8;" horiz-adv-x="542" 
d="M218 676l63 56c20 18 42 19 66 2l125 -84c13 -9 12 -21 -5 -38l-34 -33c-10 -10 -26 -11 -47 -3l-170 60c-19 7 -18 21 2 40zM11 220l19 104c12 67 43 119 92 156s114 55 193 55c75 0 131 -16 170 -47c39 -33 55 -79 47 -138c-7 -46 -30 -82 -69 -107s-90 -38 -154 -38
c-34 0 -72 2 -113 6l-4 -21c-7 -43 11 -64 54 -64c35 0 64 12 87 36c17 19 37 23 58 10l65 -33c24 -13 27 -32 9 -58c-47 -64 -128 -96 -243 -96c-85 0 -146 23 -182 68c-32 41 -42 97 -29 167zM350 362c4 27 -14 41 -55 41c-42 0 -67 -21 -76 -62l-3 -11c25 -3 48 -5 69 -5
c39 0 61 12 65 37z" />
    <glyph glyph-name="emacron" unicode="&#x113;" horiz-adv-x="542" 
d="M449 596h-244c-14 0 -23 2 -27 7s-5 14 -2 29l7 42c5 24 19 36 42 36h244c15 0 24 -2 28 -7s5 -14 2 -29l-7 -42c-4 -24 -18 -36 -43 -36zM315 535c75 0 131 -16 170 -47c39 -33 55 -79 47 -138c-7 -46 -30 -82 -69 -107s-90 -38 -154 -38c-34 0 -72 2 -113 6l-4 -21
c-7 -43 11 -64 54 -64c35 0 64 12 87 36c17 19 37 23 58 10l65 -33c24 -13 27 -32 9 -58c-47 -64 -128 -96 -243 -96c-85 0 -146 23 -182 68c-32 41 -42 97 -29 167l19 104c12 67 43 119 92 156s114 55 193 55zM350 362c4 27 -14 41 -55 41c-42 0 -67 -21 -76 -62l-3 -11
c25 -3 48 -5 69 -5c39 0 61 12 65 37z" />
    <glyph glyph-name="eogonek" unicode="&#x119;" horiz-adv-x="543" 
d="M11 220l19 104c12 67 43 119 92 156s114 55 193 55c75 0 131 -16 170 -47c39 -33 55 -79 47 -138c-7 -46 -30 -82 -69 -107s-90 -38 -154 -38c-34 0 -72 2 -113 6l-4 -21c-7 -43 11 -64 54 -64c35 0 64 12 87 36c17 19 37 23 58 10l65 -33c24 -13 27 -32 9 -58
c-8 -10 -18 -21 -30 -32c-75 -73 -114 -128 -115 -164c0 -13 5 -19 16 -19c6 0 12 2 19 6c12 7 20 5 23 -6l12 -51c3 -12 0 -22 -10 -29c-31 -21 -71 -32 -118 -32c-62 0 -93 24 -94 73c-2 53 28 106 90 160c-15 -1 -27 -2 -36 -2c-85 0 -146 23 -182 68
c-32 41 -42 97 -29 167zM285 325c39 0 61 12 65 37c4 27 -14 41 -55 41c-42 0 -67 -21 -76 -62l-3 -11c25 -3 48 -5 69 -5z" />
    <glyph glyph-name="f" unicode="f" horiz-adv-x="387" 
d="M391 740h25c27 0 37 -13 32 -39l-13 -71c-5 -27 -20 -40 -46 -40c-45 0 -72 -22 -79 -66l-1 -4h69c26 0 37 -13 32 -38l-14 -75c-5 -26 -20 -39 -45 -39h-69l-58 -330c-5 -25 -20 -38 -46 -38h-108c-26 0 -37 13 -32 38l58 330h-32c-26 0 -37 13 -32 39l13 75
c5 25 20 38 45 38h33v2c26 144 115 217 268 218z" />
    <glyph glyph-name="g" unicode="g" horiz-adv-x="548" 
d="M16 244l14 82c25 139 118 209 281 209c83 0 147 -11 191 -34c15 -7 25 -15 28 -22c4 -7 4 -19 1 -36l-80 -452c-25 -149 -117 -224 -274 -224c-105 0 -174 35 -205 104c-12 25 -2 45 29 58l85 39c24 11 41 7 52 -10c14 -24 34 -36 59 -36c37 0 59 19 66 58l7 40
c-28 -4 -50 -6 -67 -6c-75 0 -128 21 -161 64c-30 41 -39 96 -26 166zM328 369c-9 3 -22 4 -40 4c-42 0 -66 -18 -73 -55l-16 -93c-6 -33 10 -50 48 -50l51 5l32 184c1 2 1 4 -2 5z" />
    <glyph glyph-name="gbreve" unicode="&#x11f;" horiz-adv-x="548" 
d="M523 680c-40 -71 -105 -106 -195 -106c-91 0 -144 35 -159 106c-3 16 4 28 23 35l69 24c18 6 30 2 36 -12c8 -21 25 -32 50 -32s45 11 61 33c10 13 22 17 37 12l66 -25c17 -7 21 -19 12 -35zM16 244l14 82c25 139 118 209 281 209c83 0 147 -11 191 -34
c15 -7 25 -15 28 -22c4 -7 4 -19 1 -36l-80 -452c-25 -149 -117 -224 -274 -224c-105 0 -174 35 -205 104c-12 25 -2 45 29 58l85 39c24 11 41 7 52 -10c14 -24 34 -36 59 -36c37 0 59 19 66 58l7 40c-28 -4 -50 -6 -67 -6c-75 0 -128 21 -161 64c-30 41 -39 96 -26 166z
M328 369c-9 3 -22 4 -40 4c-42 0 -66 -18 -73 -55l-16 -93c-6 -33 10 -50 48 -50l51 5l32 184c1 2 1 4 -2 5z" />
    <glyph glyph-name="gcircumflex" unicode="&#x11d;" horiz-adv-x="548" 
d="M237 574h-81c-15 0 -23 4 -24 12c-1 7 4 14 15 23l120 102c23 19 51 29 82 29h27c27 0 49 -10 66 -29l85 -102c7 -9 9 -16 6 -23c-3 -8 -13 -12 -28 -12h-77c-33 0 -54 7 -63 22l-22 35l-37 -35c-15 -15 -38 -22 -69 -22zM502 501c15 -7 25 -15 28 -22c4 -7 4 -19 1 -36
l-80 -452c-25 -149 -117 -224 -274 -224c-105 0 -174 35 -205 104c-12 25 -2 45 29 58l85 39c24 11 41 7 52 -10c14 -24 34 -36 59 -36c37 0 59 19 66 58l7 40c-28 -4 -50 -6 -67 -6c-75 0 -128 21 -161 64c-30 41 -39 96 -26 166l14 82c25 139 118 209 281 209
c83 0 147 -11 191 -34zM298 180l32 184c1 2 1 4 -2 5c-9 3 -22 4 -40 4c-42 0 -66 -18 -73 -55l-16 -93c-6 -33 10 -50 48 -50z" />
    <glyph glyph-name="uni0123" unicode="&#x123;" horiz-adv-x="548" 
d="M248 618l66 114c12 22 29 33 52 33h58c23 0 31 -10 26 -29l-35 -118c-5 -18 -11 -30 -16 -35c-7 -7 -18 -10 -34 -10h-84c-37 0 -48 15 -33 45zM16 244l14 82c25 139 118 209 281 209c83 0 147 -11 191 -34c15 -7 25 -15 28 -22c4 -7 4 -19 1 -36l-80 -452
c-25 -149 -117 -224 -274 -224c-105 0 -174 35 -205 104c-12 25 -2 45 29 58l85 39c24 11 41 7 52 -10c14 -24 34 -36 59 -36c37 0 59 19 66 58l7 40c-28 -4 -50 -6 -67 -6c-75 0 -128 21 -161 64c-30 41 -39 96 -26 166zM328 369c-9 3 -22 4 -40 4c-42 0 -66 -18 -73 -55
l-16 -93c-6 -33 10 -50 48 -50l51 5l32 184c1 2 1 4 -2 5z" />
    <glyph glyph-name="gdotaccent" unicode="&#x121;" horiz-adv-x="548" 
d="M352 736h6c29 0 47 -5 56 -16c9 -10 10 -30 5 -59l-2 -8c-5 -29 -13 -48 -25 -59s-33 -16 -62 -16h-6c-29 0 -47 5 -56 16c-9 10 -11 30 -6 59l2 8c5 29 13 48 26 59c12 11 33 16 62 16zM16 244l14 82c25 139 118 209 281 209c83 0 147 -11 191 -34c15 -7 25 -15 28 -22
c4 -7 4 -19 1 -36l-80 -452c-25 -149 -117 -224 -274 -224c-105 0 -174 35 -205 104c-12 25 -2 45 29 58l85 39c24 11 41 7 52 -10c14 -24 34 -36 59 -36c37 0 59 19 66 58l7 40c-28 -4 -50 -6 -67 -6c-75 0 -128 21 -161 64c-30 41 -39 96 -26 166zM328 369
c-9 3 -22 4 -40 4c-42 0 -66 -18 -73 -55l-16 -93c-6 -33 10 -50 48 -50l51 5l32 184c1 2 1 4 -2 5z" />
    <glyph glyph-name="h" unicode="h" horiz-adv-x="558" 
d="M157 740h109c26 0 37 -13 32 -38l-31 -171c24 3 47 4 69 4c151 0 213 -73 187 -219l-49 -278c-5 -25 -20 -38 -45 -38h-110c-25 0 -36 13 -31 38l48 274c7 37 -10 55 -50 55c-21 0 -37 -1 -48 -4l-57 -325c-5 -25 -20 -38 -46 -38h-109c-26 0 -37 13 -32 38l117 664
c5 25 20 38 46 38z" />
    <glyph glyph-name="hbar" unicode="&#x127;" horiz-adv-x="558" 
d="M277 581l-10 -50c24 3 47 4 69 4c151 0 213 -73 187 -219l-49 -278c-5 -25 -20 -38 -45 -38h-110c-25 0 -36 13 -31 38l48 274c7 37 -10 55 -50 55c-21 0 -37 -1 -48 -4l-57 -325c-5 -25 -20 -38 -46 -38h-109c-26 0 -37 13 -32 38l96 543h-34c-17 0 -23 9 -20 27l8 45
c3 17 12 26 29 26h34l4 23c5 25 20 38 46 38h109c26 0 37 -13 32 -38l-4 -23h91c17 0 23 -9 20 -26l-8 -45c-3 -18 -13 -27 -29 -27h-91z" />
    <glyph glyph-name="hcircumflex" unicode="&#x125;" horiz-adv-x="558" 
d="M129 783h-81c-15 0 -22 4 -23 11s4 14 14 23l120 102c24 20 51 30 82 30h27c27 0 50 -10 67 -30l84 -102c7 -9 9 -16 6 -23s-12 -11 -27 -11h-78c-33 0 -54 7 -62 21l-23 36l-37 -35c-15 -15 -38 -22 -69 -22zM336 535c151 0 213 -73 187 -219l-49 -278
c-5 -25 -20 -38 -45 -38h-110c-25 0 -36 13 -31 38l48 274c7 37 -10 55 -50 55c-21 0 -37 -1 -48 -4l-57 -325c-5 -25 -20 -38 -46 -38h-109c-26 0 -37 13 -32 38l117 664c5 25 20 38 46 38h109c26 0 37 -13 32 -38l-31 -171c24 3 47 4 69 4z" />
    <glyph glyph-name="i" unicode="i" horiz-adv-x="269" 
d="M183 722h50c29 0 47 -5 56 -16s10 -30 5 -58l-2 -11c-5 -28 -14 -47 -26 -58s-32 -16 -61 -16h-50c-29 0 -47 5 -56 16s-10 30 -5 58l1 11c5 28 14 47 27 58s33 16 61 16zM118 520h109c26 0 37 -13 32 -38l-78 -444c-5 -25 -20 -38 -46 -38h-109c-26 0 -37 13 -32 38
l78 444c5 25 20 38 46 38z" />
    <glyph glyph-name="dotlessi" unicode="&#x131;" horiz-adv-x="269" 
d="M118 520h109c26 0 37 -13 32 -38l-78 -444c-5 -25 -20 -38 -46 -38h-109c-26 0 -37 13 -32 38l78 444c5 25 20 38 46 38z" />
    <glyph glyph-name="iacute" unicode="&#xed;" horiz-adv-x="269" 
d="M63 643l142 91c29 19 52 19 67 2l47 -53c14 -19 10 -32 -11 -40l-180 -69c-24 -11 -39 -11 -46 0l-26 31c-11 15 -8 28 7 38zM118 520h109c26 0 37 -13 32 -38l-78 -444c-5 -25 -20 -38 -46 -38h-109c-26 0 -37 13 -32 38l78 444c5 25 20 38 46 38z" />
    <glyph glyph-name="ibreve" unicode="&#x12d;" horiz-adv-x="269" 
d="M297 740l66 -25c17 -7 20 -19 11 -35c-39 -71 -102 -106 -190 -106c-90 0 -142 35 -155 106c-3 16 4 28 23 35l70 25c18 6 30 2 37 -12c7 -21 22 -32 44 -32s41 11 57 32c10 13 22 17 37 12zM118 520h109c26 0 37 -13 32 -38l-78 -444c-5 -25 -20 -38 -46 -38h-109
c-26 0 -37 13 -32 38l78 444c5 25 20 38 46 38z" />
    <glyph glyph-name="icircumflex" unicode="&#xee;" horiz-adv-x="269" 
d="M288 707l77 -100c7 -9 9 -16 6 -23s-12 -11 -27 -11h-75c-31 0 -51 8 -60 23l-17 30l-31 -32c-13 -14 -36 -21 -67 -21h-80c-15 0 -22 4 -22 11c-1 7 4 14 13 23l112 100c21 19 47 28 80 28h26c28 0 50 -9 65 -28zM119 520h109c26 0 37 -13 32 -38l-78 -444
c-5 -25 -20 -38 -46 -38h-109c-26 0 -37 13 -32 38l78 444c5 25 20 38 46 38z" />
    <glyph glyph-name="idieresis" unicode="&#xef;" horiz-adv-x="269" 
d="M103 733h7c28 0 46 -5 55 -15c9 -11 11 -29 6 -56l-2 -13c-5 -27 -14 -45 -26 -56c-13 -11 -33 -16 -60 -16h-7c-28 0 -46 5 -55 16s-10 29 -5 56l2 13c5 27 14 46 25 56c12 10 32 15 60 15zM310 733h7c27 0 45 -5 54 -15s10 -29 5 -56l-2 -13c-5 -27 -13 -45 -25 -56
s-32 -16 -60 -16h-7c-27 0 -46 5 -55 16s-11 29 -6 56l2 13c5 27 13 45 26 56c13 10 33 15 61 15zM118 520h109c26 0 37 -13 32 -38l-78 -444c-5 -25 -20 -38 -46 -38h-109c-26 0 -37 13 -32 38l78 444c5 25 20 38 46 38z" />
    <glyph glyph-name="igrave" unicode="&#xec;" horiz-adv-x="269" 
d="M81 685l54 47c20 18 41 18 64 0l115 -91c12 -9 10 -21 -7 -38l-30 -29c-11 -11 -26 -11 -46 0l-155 71c-10 5 -15 11 -14 17c1 5 8 13 19 23zM118 520h109c26 0 37 -13 32 -38l-78 -444c-5 -25 -20 -38 -46 -38h-109c-26 0 -37 13 -32 38l78 444c5 25 20 38 46 38z" />
    <glyph glyph-name="ij" unicode="&#x133;" horiz-adv-x="540" 
d="M183 722h50c29 0 47 -5 56 -16s10 -30 5 -58l-2 -11c-5 -28 -14 -47 -26 -58s-32 -16 -61 -16h-50c-29 0 -47 5 -56 16s-10 30 -5 58l1 11c5 28 14 47 27 58s33 16 61 16zM453 722h50c28 0 46 -5 55 -16s10 -30 5 -58l-1 -11c-5 -28 -14 -47 -26 -58
c-13 -11 -33 -16 -62 -16h-50c-28 0 -46 5 -55 16s-11 30 -6 58l2 11c5 28 14 47 26 58c13 11 33 16 62 16zM118 520h109c26 0 37 -13 32 -38l-78 -444c-5 -25 -20 -38 -46 -38h-109c-26 0 -37 13 -32 38l78 444c5 25 20 38 46 38zM388 520h108c26 0 37 -13 32 -38l-86 -492
c-27 -147 -124 -220 -293 -220c-27 0 -38 13 -33 39l15 85c5 27 20 40 46 40c46 0 73 23 80 68l85 480c5 25 20 38 46 38z" />
    <glyph glyph-name="imacron" unicode="&#x12b;" horiz-adv-x="269" 
d="M97 707h206c11 0 17 -2 20 -7s3 -14 0 -28l-7 -42c-4 -24 -15 -36 -32 -36h-207c-11 0 -17 2 -20 7s-3 14 0 29l7 42c5 23 16 35 33 35zM118 520h109c26 0 37 -13 32 -38l-78 -444c-5 -25 -20 -38 -46 -38h-109c-26 0 -37 13 -32 38l78 444c5 25 20 38 46 38z" />
    <glyph glyph-name="iogonek" unicode="&#x12f;" horiz-adv-x="269" 
d="M206 563h-50c-29 0 -47 5 -56 16s-10 30 -5 58l1 11c5 28 14 47 27 58s33 16 61 16h50c29 0 47 -5 56 -16s10 -30 5 -58l-2 -11c-5 -28 -14 -47 -26 -58s-32 -16 -61 -16zM149 -135l11 -46c3 -13 0 -23 -10 -30c-34 -23 -73 -35 -116 -35c-61 0 -92 22 -95 67
c-3 54 30 114 97 179c-19 0 -31 3 -37 10c-5 6 -6 17 -3 33l77 439c5 25 20 38 46 38h109c26 0 37 -13 32 -38l-78 -444c-3 -15 -9 -26 -16 -31c-47 -46 -72 -87 -73 -123c0 -12 5 -18 15 -18c6 0 12 2 18 5c13 8 21 6 23 -6z" />
    <glyph glyph-name="itilde" unicode="&#x129;" horiz-adv-x="269" 
d="M277 738h55c14 0 19 -8 16 -24c-15 -83 -52 -125 -109 -125c-22 0 -42 7 -60 20s-30 19 -37 19c-10 0 -16 -7 -19 -20s-9 -20 -19 -20h-58c-13 0 -18 8 -15 24c15 84 50 126 107 126c23 0 45 -7 64 -21s32 -21 38 -21c9 0 15 7 17 22c3 13 9 20 20 20zM118 520h109
c26 0 37 -13 32 -38l-78 -444c-5 -25 -20 -38 -46 -38h-109c-26 0 -37 13 -32 38l78 444c5 25 20 38 46 38z" />
    <glyph glyph-name="j" unicode="j" horiz-adv-x="270" 
d="M183 722h50c28 0 46 -5 55 -16s10 -30 5 -58l-1 -11c-5 -28 -14 -47 -26 -58c-13 -11 -33 -16 -62 -16h-50c-28 0 -46 5 -55 16s-11 30 -6 58l2 11c5 28 14 47 26 58c13 11 33 16 62 16zM118 520h108c26 0 37 -13 32 -38l-86 -492c-27 -147 -124 -220 -293 -220
c-27 0 -38 13 -33 39l15 85c5 27 20 40 46 40c46 0 73 23 80 68l85 480c5 25 20 38 46 38z" />
    <glyph glyph-name="uni0237" unicode="&#x237;" horiz-adv-x="271" 
d="M119 520h107c27 0 38 -13 33 -38l-87 -492c-26 -147 -124 -220 -293 -220c-27 0 -38 13 -33 39l15 85c5 27 20 40 47 40c45 0 71 23 80 68l84 480c5 25 20 38 47 38z" />
    <glyph glyph-name="jcircumflex" unicode="&#x135;" horiz-adv-x="270" 
d="M199 735h26c27 0 49 -9 65 -28l83 -100c7 -9 9 -16 6 -23s-12 -11 -27 -11h-74c-33 0 -53 7 -62 21l-22 35l-37 -35c-15 -14 -37 -21 -67 -21h-79c-15 0 -22 4 -23 11s4 14 14 23l117 100c23 19 49 28 80 28zM119 520h107c27 0 38 -13 33 -38l-87 -492
c-26 -147 -124 -220 -293 -220c-27 0 -37 13 -32 39l15 85c5 27 20 40 46 40c46 0 73 23 80 68l84 480c5 25 20 38 47 38z" />
    <glyph glyph-name="k" unicode="k" horiz-adv-x="553" 
d="M432 232l57 -181c11 -34 -2 -51 -41 -51h-91c-23 0 -39 2 -48 7s-15 15 -18 31l-24 123c-5 20 -18 30 -40 30h-19l-27 -152c-5 -26 -20 -39 -45 -39h-109c-15 0 -24 3 -29 9c-5 5 -6 15 -3 30l117 662c5 26 20 39 46 39h109c25 0 36 -13 31 -39l-63 -361h21l109 144
c17 24 43 36 78 36h89c41 0 48 -16 23 -49l-147 -194c11 -11 19 -26 24 -45z" />
    <glyph glyph-name="uni0137" unicode="&#x137;" horiz-adv-x="553" 
d="M432 232l57 -181c11 -34 -2 -51 -41 -51h-91c-23 0 -39 2 -48 7s-15 15 -18 31l-24 123c-5 20 -18 30 -40 30h-19l-27 -152c-5 -26 -20 -39 -45 -39h-109c-15 0 -24 3 -29 9c-5 5 -6 15 -3 30l117 662c5 26 20 39 46 39h109c25 0 36 -13 31 -39l-63 -361h21l109 144
c17 24 43 36 78 36h89c41 0 48 -16 23 -49l-147 -194c11 -11 19 -26 24 -45zM302 -87l-61 -112c-13 -23 -32 -35 -58 -35h-57c-12 0 -20 2 -23 6s-2 12 1 23l31 118c8 29 27 44 57 44h85c33 0 41 -15 25 -44z" />
    <glyph glyph-name="kgreenlandic" unicode="&#x138;" horiz-adv-x="561" 
d="M400 312l73 -263c9 -33 -5 -49 -43 -49h-91c-24 0 -40 2 -48 7c-9 4 -15 14 -19 29l-35 127l-49 -46l-19 -77c-7 -27 -24 -40 -51 -40h-105c-15 0 -25 3 -30 9c-4 5 -4 16 0 31l108 441c6 26 23 39 50 39h106c15 0 25 -3 30 -9c4 -5 4 -15 1 -30l-31 -106l121 111
c23 23 49 34 79 34h113c19 0 30 -4 31 -13c2 -8 -4 -18 -18 -31z" />
    <glyph glyph-name="l" unicode="l" horiz-adv-x="272" 
d="M299 702l-117 -664c-5 -25 -20 -38 -46 -38h-109c-26 0 -37 13 -32 38l117 664c5 25 20 38 46 38h109c26 0 37 -13 32 -38z" />
    <glyph glyph-name="lacute" unicode="&#x13a;" horiz-adv-x="272" 
d="M89 861l166 86c31 16 52 15 63 -3l39 -63c13 -21 9 -34 -12 -40l-198 -59c-24 -8 -39 -7 -45 3l-22 38c-10 17 -7 29 9 38zM299 702l-117 -664c-5 -25 -20 -38 -46 -38h-109c-26 0 -37 13 -32 38l117 664c5 25 20 38 46 38h109c26 0 37 -13 32 -38z" />
    <glyph glyph-name="lcaron" unicode="&#x13e;" horiz-adv-x="343" 
d="M511 701l-69 -142c-11 -23 -26 -35 -47 -35h-54c-21 0 -28 10 -22 29l38 148c7 27 21 40 44 40h76c35 0 47 -13 34 -40zM299 702l-117 -664c-5 -25 -20 -38 -46 -38h-109c-26 0 -37 13 -32 38l117 664c5 25 20 38 46 38h109c26 0 37 -13 32 -38z" />
    <glyph glyph-name="uni013C" unicode="&#x13c;" horiz-adv-x="272" 
d="M298 702l-117 -664c-5 -25 -20 -38 -45 -38h-110c-25 0 -36 13 -31 38l117 664c5 25 20 38 45 38h110c25 0 36 -13 31 -38zM146 -86l-63 -120c-12 -23 -31 -34 -58 -34h-61c-12 0 -19 2 -22 6c-3 3 -3 11 0 22l33 126c9 29 28 44 57 44h88c32 0 41 -15 26 -44z" />
    <glyph glyph-name="ldot" unicode="&#x140;" horiz-adv-x="481" 
d="M299 702l-117 -664c-5 -25 -20 -38 -46 -38h-109c-26 0 -37 13 -32 38l117 664c5 25 20 38 46 38h109c26 0 37 -13 32 -38zM387 476h38c29 0 49 -6 58 -17s12 -32 7 -61l-8 -41c-5 -29 -14 -50 -27 -61s-35 -17 -65 -17h-38c-30 0 -50 6 -59 17s-11 32 -6 61l7 41
c5 29 14 50 28 61c13 11 35 17 65 17z" />
    <glyph glyph-name="lslash" unicode="&#x142;" horiz-adv-x="375" 
d="M382 483l18 -43c6 -15 0 -28 -17 -37l-94 -45l-56 -320c-5 -25 -20 -38 -46 -38h-109c-26 0 -37 13 -32 38l39 220l-28 -14c-21 -10 -34 -7 -41 10l-17 43c-6 15 -1 28 16 37l91 44l57 324c5 25 20 38 46 38h109c26 0 37 -13 32 -38l-40 -225l32 16c19 10 33 7 40 -10z
" />
    <glyph glyph-name="m" unicode="m" horiz-adv-x="814" 
d="M443 508c53 18 105 27 158 27c145 0 204 -73 178 -220l-49 -277c-5 -25 -20 -38 -45 -38h-110c-25 0 -36 13 -31 38l48 276c7 35 -7 53 -41 53c-13 0 -28 -2 -43 -5c0 -13 -2 -28 -5 -46l-49 -278c-5 -25 -20 -38 -45 -38h-110c-25 0 -36 13 -31 38l49 276
c5 35 -9 53 -42 53c-11 0 -23 -1 -35 -3c-2 -1 -4 -3 -5 -6l-56 -320c-5 -25 -20 -38 -46 -38h-109c-26 0 -37 13 -32 38l71 400c5 29 23 49 52 60c67 25 137 37 210 37c50 0 89 -9 118 -27z" />
    <glyph glyph-name="n" unicode="n" horiz-adv-x="556" 
d="M115 498c67 25 140 37 219 37c75 0 129 -20 160 -59c30 -37 39 -91 27 -161l-49 -277c-5 -25 -20 -38 -45 -38h-110c-25 0 -36 13 -31 38l48 274c7 37 -10 55 -50 55c-17 0 -32 -1 -45 -4c-1 -1 -3 -2 -4 -4l-56 -321c-5 -25 -20 -38 -46 -38h-109c-26 0 -37 13 -32 38
l71 400c5 29 23 49 52 60z" />
    <glyph glyph-name="nacute" unicode="&#x144;" horiz-adv-x="556" 
d="M203 650l154 84c31 17 53 16 66 -2l42 -56c15 -19 11 -33 -12 -40l-190 -60c-24 -8 -39 -7 -46 3l-23 33c-11 17 -8 29 9 38zM115 498c67 25 140 37 219 37c75 0 129 -20 160 -59c30 -37 39 -91 27 -161l-49 -277c-5 -25 -20 -38 -45 -38h-110c-25 0 -36 13 -31 38
l48 274c7 37 -10 55 -50 55c-17 0 -32 -1 -45 -4c-1 -1 -3 -2 -4 -4l-56 -321c-5 -25 -20 -38 -46 -38h-109c-26 0 -37 13 -32 38l71 400c5 29 23 49 52 60z" />
    <glyph glyph-name="napostrophe" unicode="&#x149;" horiz-adv-x="556" 
d="M254 697l-104 -136c-14 -17 -31 -26 -51 -26h-73c-20 0 -26 9 -18 26l66 142c11 22 27 33 48 33h107c17 0 27 -4 31 -11s2 -17 -6 -28zM115 498c67 25 140 37 219 37c75 0 129 -20 160 -59c30 -37 39 -91 27 -161l-49 -277c-5 -25 -20 -38 -45 -38h-110
c-25 0 -36 13 -31 38l48 274c7 37 -10 55 -50 55c-17 0 -32 -1 -45 -4c-1 -1 -3 -2 -4 -4l-56 -321c-5 -25 -20 -38 -46 -38h-109c-26 0 -37 13 -32 38l71 400c5 29 23 49 52 60z" />
    <glyph glyph-name="ncaron" unicode="&#x148;" horiz-adv-x="556" 
d="M447 739h79c15 0 22 -4 22 -11s-5 -14 -16 -23l-118 -102c-23 -20 -49 -30 -80 -30h-27c-29 0 -52 10 -68 30l-83 102c-19 23 -13 34 18 34h81c32 0 53 -7 62 -21l24 -35l36 34c15 15 39 22 70 22zM334 535c75 0 129 -20 160 -59c30 -37 39 -91 27 -161l-49 -277
c-5 -25 -20 -38 -45 -38h-110c-25 0 -36 13 -31 38l48 274c7 37 -10 55 -50 55c-17 0 -32 -1 -45 -4c-1 -1 -3 -2 -4 -4l-56 -321c-5 -25 -20 -38 -46 -38h-109c-26 0 -37 13 -32 38l71 400c5 29 23 49 52 60c67 25 140 37 219 37z" />
    <glyph glyph-name="uni0146" unicode="&#x146;" horiz-adv-x="556" 
d="M115 498c67 25 140 37 219 37c75 0 129 -20 160 -59c30 -37 39 -91 27 -161l-49 -277c-5 -25 -20 -38 -45 -38h-110c-25 0 -36 13 -31 38l48 274c7 37 -10 55 -50 55c-17 0 -32 -1 -45 -4c-1 -1 -3 -2 -4 -4l-56 -321c-5 -25 -20 -38 -46 -38h-109c-26 0 -37 13 -32 38
l71 400c5 29 23 49 52 60zM299 -77l-63 -116c-13 -23 -33 -35 -59 -35h-58c-11 0 -18 2 -21 6s-2 12 1 23l33 122c9 29 28 44 57 44h85c33 0 41 -15 25 -44z" />
    <glyph glyph-name="eng" unicode="&#x14b;" horiz-adv-x="556" 
d="M115 498c67 25 140 37 219 37c75 0 129 -20 160 -59c30 -37 39 -91 27 -161l-58 -329c-26 -144 -122 -216 -288 -216c-27 0 -37 13 -32 39l15 84c3 25 18 38 45 38c43 0 68 22 75 67l56 314c7 37 -10 55 -50 55c-17 0 -32 -1 -45 -4c-1 -1 -3 -2 -4 -4l-56 -321
c-5 -25 -20 -38 -46 -38h-109c-26 0 -37 13 -32 38l71 400c5 29 23 49 52 60z" />
    <glyph glyph-name="ntilde" unicode="&#xf1;" horiz-adv-x="556" 
d="M434 731h61c16 0 22 -8 19 -23c-14 -82 -54 -123 -120 -123c-28 0 -54 7 -78 21c-24 13 -40 20 -47 20c-10 0 -16 -7 -19 -22c-2 -13 -9 -19 -22 -19h-62c-15 0 -21 8 -19 23c15 82 54 123 118 123c29 0 55 -7 80 -21s41 -21 48 -21c10 0 16 7 19 22c2 13 9 20 22 20z
M115 498c67 25 140 37 219 37c75 0 129 -20 160 -59c30 -37 39 -91 27 -161l-49 -277c-5 -25 -20 -38 -45 -38h-110c-25 0 -36 13 -31 38l48 274c7 37 -10 55 -50 55c-17 0 -32 -1 -45 -4c-1 -1 -3 -2 -4 -4l-56 -321c-5 -25 -20 -38 -46 -38h-109c-26 0 -37 13 -32 38
l71 400c5 29 23 49 52 60z" />
    <glyph glyph-name="o" unicode="o" horiz-adv-x="550" 
d="M11 211l19 112c26 141 121 212 285 212c80 0 138 -21 175 -62c35 -40 47 -95 35 -164l-19 -112c-26 -141 -121 -212 -286 -212c-79 0 -137 21 -174 62c-35 40 -47 95 -35 164zM320 199l21 122c7 36 -10 54 -53 54c-41 0 -65 -18 -72 -54l-21 -122c-7 -35 10 -53 52 -53
c41 0 66 18 73 53z" />
    <glyph glyph-name="oacute" unicode="&#xf3;" horiz-adv-x="550" 
d="M206 650l153 84c31 17 53 16 66 -2l43 -56c13 -19 9 -33 -12 -40l-191 -60c-24 -8 -39 -7 -46 3l-22 33c-11 17 -8 29 9 38zM11 211l19 112c26 141 121 212 285 212c80 0 138 -21 175 -62c35 -40 47 -95 35 -164l-19 -112c-26 -141 -121 -212 -286 -212
c-79 0 -137 21 -174 62c-35 40 -47 95 -35 164zM320 199l21 122c7 36 -10 54 -53 54c-41 0 -65 -18 -72 -54l-21 -122c-7 -35 10 -53 52 -53c41 0 66 18 73 53z" />
    <glyph glyph-name="obreve" unicode="&#x14f;" horiz-adv-x="550" 
d="M519 680c-39 -71 -103 -106 -194 -106c-93 0 -146 35 -159 106c-3 16 4 28 23 35l68 24c12 4 20 5 25 3c4 -1 8 -6 12 -15c8 -21 25 -32 50 -32s45 11 60 33c11 13 23 17 38 12l66 -25c16 -7 20 -19 11 -35zM11 211l19 112c26 141 121 212 285 212c80 0 138 -21 175 -62
c35 -40 47 -95 35 -164l-19 -112c-26 -141 -121 -212 -286 -212c-79 0 -137 21 -174 62c-35 40 -47 95 -35 164zM320 199l21 122c7 36 -10 54 -53 54c-41 0 -65 -18 -72 -54l-21 -122c-7 -35 10 -53 52 -53c41 0 66 18 73 53z" />
    <glyph glyph-name="ocircumflex" unicode="&#xf4;" horiz-adv-x="550" 
d="M233 574h-81c-15 0 -22 4 -23 12c-1 7 4 14 14 23l121 102c23 19 50 29 81 29h28c27 0 49 -10 66 -29l84 -102c7 -9 9 -16 6 -23c-3 -8 -12 -12 -27 -12h-77c-33 0 -54 7 -63 22l-23 35l-37 -35c-15 -15 -38 -22 -69 -22zM315 535c80 0 138 -21 175 -62
c35 -40 47 -95 35 -164l-19 -112c-26 -141 -121 -212 -286 -212c-79 0 -137 21 -174 62c-35 40 -47 95 -35 164l19 112c26 141 121 212 285 212zM320 199l21 122c7 36 -10 54 -53 54c-41 0 -65 -18 -72 -54l-21 -122c-7 -35 10 -53 52 -53c41 0 66 18 73 53z" />
    <glyph glyph-name="odieresis" unicode="&#xf6;" horiz-adv-x="550" 
d="M239 733h8c27 0 46 -5 55 -15c9 -11 11 -29 6 -56l-2 -13c-5 -27 -14 -45 -26 -56c-13 -11 -33 -16 -60 -16h-8c-27 0 -45 5 -54 16s-11 29 -6 56l2 13c5 27 14 46 26 56s32 15 59 15zM455 733h7c27 0 45 -5 54 -15s11 -29 6 -56l-2 -13c-5 -27 -14 -45 -26 -56
s-32 -16 -59 -16h-7c-28 0 -46 5 -55 16s-12 29 -7 56l2 13c5 27 13 45 26 56c13 10 33 15 61 15zM11 211l19 112c26 141 121 212 285 212c80 0 138 -21 175 -62c35 -40 47 -95 35 -164l-19 -112c-26 -141 -121 -212 -286 -212c-79 0 -137 21 -174 62c-35 40 -47 95 -35 164
zM320 199l21 122c7 36 -10 54 -53 54c-41 0 -65 -18 -72 -54l-21 -122c-7 -35 10 -53 52 -53c41 0 66 18 73 53z" />
    <glyph glyph-name="ograve" unicode="&#xf2;" horiz-adv-x="550" 
d="M217 676l63 56c20 18 42 19 66 2l125 -84c13 -9 12 -21 -5 -38l-34 -33c-10 -10 -26 -11 -47 -3l-170 60c-19 7 -18 21 2 40zM11 211l19 112c26 141 121 212 285 212c80 0 138 -21 175 -62c35 -40 47 -95 35 -164l-19 -112c-26 -141 -121 -212 -286 -212
c-79 0 -137 21 -174 62c-35 40 -47 95 -35 164zM320 199l21 122c7 36 -10 54 -53 54c-41 0 -65 -18 -72 -54l-21 -122c-7 -35 10 -53 52 -53c41 0 66 18 73 53z" />
    <glyph glyph-name="ohungarumlaut" unicode="&#x151;" horiz-adv-x="550" 
d="M260 570l-43 8c-23 5 -25 17 -6 38l91 97c21 23 44 31 70 26l21 -5c13 7 27 8 43 3l66 -18c13 -4 19 -10 19 -18s-6 -16 -17 -25l-132 -89c-20 -13 -36 -18 -48 -15l-28 6c-13 -9 -25 -11 -36 -8zM315 535c80 0 138 -21 175 -62c35 -40 47 -95 35 -164l-19 -112
c-26 -141 -121 -212 -286 -212c-79 0 -137 21 -174 62c-35 40 -47 95 -35 164l19 112c26 141 121 212 285 212zM320 199l21 122c7 36 -10 54 -53 54c-41 0 -65 -18 -72 -54l-21 -122c-7 -35 10 -53 52 -53c41 0 66 18 73 53z" />
    <glyph glyph-name="omacron" unicode="&#x14d;" horiz-adv-x="550" 
d="M448 596h-244c-14 0 -23 2 -27 7s-5 14 -2 29l7 42c5 24 19 36 42 36h244c15 0 24 -2 28 -7s5 -14 2 -29l-7 -42c-4 -24 -18 -36 -43 -36zM315 535c80 0 138 -21 175 -62c35 -40 47 -95 35 -164l-19 -112c-26 -141 -121 -212 -286 -212c-79 0 -137 21 -174 62
c-35 40 -47 95 -35 164l19 112c26 141 121 212 285 212zM320 199l21 122c7 36 -10 54 -53 54c-41 0 -65 -18 -72 -54l-21 -122c-7 -35 10 -53 52 -53c41 0 66 18 73 53z" />
    <glyph glyph-name="oslash" unicode="&#xf8;" horiz-adv-x="551" 
d="M482 552h57c14 0 16 -6 6 -18l-52 -64c33 -40 44 -94 32 -161l-19 -112c-25 -141 -120 -212 -285 -212c-41 0 -76 6 -106 17l-19 -23c-8 -9 -20 -14 -35 -14h-57c-14 0 -16 6 -5 18l50 61c-37 41 -49 96 -37 167l19 112c25 141 120 212 285 212c45 0 82 -7 113 -20l19 23
c8 9 19 14 34 14zM200 222l133 164c-8 9 -21 13 -40 13c-42 0 -66 -18 -72 -54l-19 -103c-1 -8 -2 -15 -2 -20zM336 289l-129 -158c9 -6 21 -9 36 -9c43 0 67 18 73 53l18 100c1 5 2 10 2 14z" />
    <glyph glyph-name="oslashacute" unicode="&#x1ff;" horiz-adv-x="551" 
d="M208 650l154 84c30 17 52 16 66 -2l42 -56c13 -19 9 -33 -12 -40l-191 -60c-24 -8 -39 -7 -45 3l-23 33c-11 17 -8 29 9 38zM482 552h57c14 0 16 -6 6 -18l-52 -64c33 -40 44 -94 32 -161l-19 -112c-25 -141 -120 -212 -285 -212c-41 0 -76 6 -106 17l-19 -23
c-8 -9 -20 -14 -35 -14h-57c-14 0 -16 6 -5 18l50 61c-37 41 -49 96 -37 167l19 112c25 141 120 212 285 212c45 0 82 -7 113 -20l19 23c8 9 19 14 34 14zM200 222l133 164c-8 9 -21 13 -40 13c-42 0 -66 -18 -72 -54l-19 -103c-1 -8 -2 -15 -2 -20zM336 289l-129 -158
c9 -6 21 -9 36 -9c43 0 67 18 73 53l18 100c1 5 2 10 2 14z" />
    <glyph glyph-name="otilde" unicode="&#xf5;" horiz-adv-x="550" 
d="M436 731h61c16 0 22 -8 19 -23c-14 -82 -54 -123 -120 -123c-28 0 -54 7 -78 21c-24 13 -40 20 -47 20c-10 0 -16 -7 -19 -22c-2 -13 -9 -19 -22 -19h-62c-15 0 -21 8 -19 23c15 82 54 123 118 123c29 0 56 -7 81 -21s40 -21 47 -21c10 0 16 7 19 22c2 13 9 20 22 20z
M11 211l19 112c26 141 121 212 285 212c80 0 138 -21 175 -62c35 -40 47 -95 35 -164l-19 -112c-26 -141 -121 -212 -286 -212c-79 0 -137 21 -174 62c-35 40 -47 95 -35 164zM320 199l21 122c7 36 -10 54 -53 54c-41 0 -65 -18 -72 -54l-21 -122c-7 -35 10 -53 52 -53
c41 0 66 18 73 53z" />
    <glyph glyph-name="oe" unicode="&#x153;" horiz-adv-x="791" 
d="M440 482c44 35 95 53 154 53c71 0 123 -16 155 -47s43 -76 33 -133c-8 -47 -31 -84 -69 -111c-37 -26 -86 -39 -145 -39c-31 0 -65 2 -102 6l-4 -21c-7 -43 9 -65 48 -65c31 0 57 12 79 37c15 19 32 22 53 10l62 -34c22 -13 24 -33 6 -58c-43 -63 -119 -95 -226 -95
c-56 0 -99 15 -129 45c-40 -30 -89 -45 -147 -45c-76 0 -131 21 -165 64c-32 40 -42 95 -30 165l19 113c25 139 114 208 268 208c61 0 108 -18 140 -53zM605 362c6 27 -9 41 -44 41c-39 0 -62 -20 -69 -60l-2 -12c22 -3 42 -5 61 -5c33 0 51 12 54 36zM296 199l22 120
c6 37 -8 56 -42 56c-33 0 -52 -17 -58 -51l-23 -128c-6 -33 7 -50 40 -50c36 0 56 18 61 53z" />
    <glyph glyph-name="p" unicode="p" horiz-adv-x="547" 
d="M115 501c61 23 133 34 214 34c77 0 131 -21 163 -62c31 -39 40 -94 27 -164l-19 -109c-25 -143 -115 -215 -270 -215c-8 0 -28 2 -60 5l-30 -171c-5 -25 -20 -38 -45 -38h-110c-26 0 -36 13 -31 38l110 624c5 27 22 47 51 58zM314 201l22 123c6 33 -10 49 -48 49
c-20 0 -36 -2 -47 -5c-2 -1 -4 -3 -5 -6l-37 -211c13 -3 28 -5 43 -5c41 0 65 18 72 55z" />
    <glyph glyph-name="thorn" unicode="&#xfe;" horiz-adv-x="550" 
d="M-44 -181l155 882c5 26 20 39 45 39h110c26 0 37 -13 32 -39l-30 -169c19 2 40 3 63 3c77 0 131 -20 163 -61c31 -39 41 -94 28 -164l-19 -108c-25 -145 -116 -217 -271 -217c-8 0 -28 2 -60 5l-30 -171c-5 -25 -20 -38 -45 -38h-110c-26 0 -36 13 -31 38zM316 201
l22 123c6 33 -10 49 -48 49c-17 0 -34 -2 -51 -6l-38 -216c13 -3 28 -5 43 -5c41 0 65 18 72 55z" />
    <glyph glyph-name="q" unicode="q" horiz-adv-x="548" 
d="M312 535c83 0 147 -11 192 -34c15 -8 25 -16 28 -23s3 -18 0 -35l-109 -624c-5 -25 -21 -38 -46 -38h-109c-15 0 -24 3 -29 8s-6 15 -3 30l30 172c-28 -4 -51 -6 -68 -6c-75 0 -128 21 -160 62c-30 39 -39 94 -26 164l19 109c25 143 119 215 281 215zM217 318l-22 -122
c-5 -33 11 -50 48 -50l52 5l37 211c1 3 0 6 -4 7c-10 3 -23 4 -39 4c-41 0 -65 -18 -72 -55z" />
    <glyph glyph-name="r" unicode="r" horiz-adv-x="362" 
d="M325 535h31c26 0 37 -13 32 -38l-15 -85c-5 -26 -20 -39 -45 -39h-38c-18 0 -34 -1 -47 -4c-3 0 -5 -2 -6 -6l-57 -325c-5 -25 -20 -38 -46 -38h-109c-26 0 -37 13 -32 38l72 405c5 30 23 50 52 60c52 19 121 29 208 32z" />
    <glyph glyph-name="racute" unicode="&#x155;" horiz-adv-x="361" 
d="M130 650l153 84c31 17 53 16 66 -2l43 -56c13 -19 9 -33 -12 -40l-191 -60c-24 -8 -39 -7 -46 3l-22 33c-11 17 -8 29 9 38zM324 535h31c26 0 37 -13 32 -38l-15 -85c-5 -26 -20 -39 -45 -39h-38c-18 0 -34 -1 -47 -4c-3 0 -5 -2 -6 -6l-57 -325c-5 -25 -20 -38 -46 -38
h-109c-26 0 -37 13 -32 38l72 405c5 30 23 50 52 60c52 19 121 29 208 32z" />
    <glyph glyph-name="rcaron" unicode="&#x159;" horiz-adv-x="361" 
d="M373 739h79c15 0 22 -4 22 -11s-5 -14 -16 -23l-118 -102c-23 -20 -49 -30 -80 -30h-27c-29 0 -52 10 -68 30l-83 102c-7 9 -10 17 -8 23c3 7 11 11 26 11h81c32 0 53 -7 62 -21l25 -35l35 34c15 15 39 22 70 22zM324 535h31c26 0 37 -13 32 -38l-15 -85
c-5 -26 -20 -39 -45 -39h-38c-18 0 -34 -1 -47 -4c-3 0 -5 -2 -6 -6l-57 -325c-5 -25 -20 -38 -46 -38h-109c-26 0 -37 13 -32 38l72 405c5 30 23 50 52 60c52 19 121 29 208 32z" />
    <glyph glyph-name="uni0157" unicode="&#x157;" horiz-adv-x="361" 
d="M324 535h32c26 0 36 -13 31 -38l-14 -85c-5 -26 -20 -39 -45 -39h-38c-18 0 -34 -1 -47 -4c-3 0 -6 -2 -7 -6l-57 -325c-5 -25 -20 -38 -45 -38h-110c-25 0 -36 13 -31 38l71 405c5 29 23 49 52 60c52 19 121 29 208 32zM148 -83l-62 -114c-12 -23 -31 -34 -58 -34h-58
c-12 0 -19 2 -22 6c-3 3 -2 11 1 22l33 120c8 29 27 44 57 44h84c33 0 41 -15 25 -44z" />
    <glyph glyph-name="s" unicode="s" horiz-adv-x="516" 
d="M38 375c19 107 102 160 250 160c110 0 179 -36 208 -107c9 -25 -1 -43 -30 -55l-76 -32c-15 -7 -26 -8 -33 -5c-3 1 -9 8 -17 19c-14 18 -37 27 -69 27c-42 0 -64 -9 -67 -27c-2 -11 2 -18 13 -22c10 -5 31 -8 63 -11c77 -7 130 -23 160 -49c30 -27 40 -67 31 -120
c-19 -112 -107 -168 -264 -168c-128 0 -201 40 -218 119c-5 25 6 42 33 52l85 28c23 8 40 3 50 -15c9 -21 32 -32 69 -32c48 0 74 10 78 31c2 13 -3 21 -14 26s-36 8 -75 11c-137 9 -196 65 -177 170z" />
    <glyph glyph-name="sacute" unicode="&#x15b;" horiz-adv-x="516" 
d="M183 650l153 84c31 17 53 16 66 -2l43 -56c13 -19 9 -33 -12 -40l-191 -60c-24 -8 -39 -7 -46 3l-22 33c-11 17 -8 29 9 38zM38 375c19 107 102 160 250 160c110 0 179 -36 208 -107c9 -25 -1 -43 -30 -55l-76 -32c-15 -7 -26 -8 -33 -5c-3 1 -9 8 -17 19
c-14 18 -37 27 -69 27c-42 0 -64 -9 -67 -27c-2 -11 2 -18 13 -22c10 -5 31 -8 63 -11c77 -7 130 -23 160 -49c30 -27 40 -67 31 -120c-19 -112 -107 -168 -264 -168c-128 0 -201 40 -218 119c-5 25 6 42 33 52l85 28c23 8 40 3 50 -15c9 -21 32 -32 69 -32
c48 0 74 10 78 31c2 13 -3 21 -14 26s-36 8 -75 11c-137 9 -196 65 -177 170z" />
    <glyph glyph-name="scaron" unicode="&#x161;" horiz-adv-x="516" 
d="M426 739h79c15 0 22 -4 22 -11s-5 -14 -16 -23l-118 -102c-23 -20 -49 -30 -80 -30h-27c-29 0 -52 10 -68 30l-83 102c-7 9 -10 17 -8 23c3 7 11 11 26 11h81c32 0 53 -7 62 -21l25 -35l35 34c15 15 39 22 70 22zM288 535c110 0 179 -36 208 -107c9 -25 -1 -43 -30 -55
l-76 -32c-15 -7 -26 -8 -33 -5c-3 1 -9 8 -17 19c-14 18 -37 27 -69 27c-42 0 -64 -9 -67 -27c-2 -11 2 -18 13 -22c10 -5 31 -8 63 -11c77 -7 130 -23 160 -49c30 -27 40 -67 31 -120c-19 -112 -107 -168 -264 -168c-128 0 -201 40 -218 119c-5 25 6 42 33 52l85 28
c23 8 40 3 50 -15c9 -21 32 -32 69 -32c48 0 74 10 78 31c2 13 -3 21 -14 26s-36 8 -75 11c-137 9 -196 65 -177 170c19 107 102 160 250 160z" />
    <glyph glyph-name="scedilla" unicode="&#x15f;" horiz-adv-x="516" 
d="M38 375c19 107 102 160 250 160c110 0 179 -36 208 -107c9 -25 -1 -43 -30 -55l-76 -32c-15 -7 -26 -8 -33 -5c-3 1 -9 8 -17 19c-14 18 -37 27 -69 27c-42 0 -64 -9 -67 -27c-2 -11 2 -18 13 -22c10 -5 31 -8 63 -11c77 -7 130 -23 160 -49c30 -27 40 -67 31 -120
c-15 -92 -80 -146 -194 -163l-22 -40h6c29 -1 50 -11 62 -32c12 -19 14 -43 5 -72c-17 -64 -72 -96 -163 -96c-23 0 -48 5 -75 16c-17 7 -24 17 -21 31l7 42c3 22 15 27 34 16c18 -10 36 -15 54 -15c23 0 36 8 39 23s-10 22 -40 22h-20c-17 0 -21 9 -11 27l46 74
c-111 6 -174 45 -189 118c-5 25 6 42 33 52l85 28c23 8 40 3 50 -15c9 -21 32 -32 69 -32c48 0 74 10 78 31c2 13 -3 21 -14 26s-36 8 -75 11c-137 9 -196 65 -177 170z" />
    <glyph glyph-name="scircumflex" unicode="&#x15d;" horiz-adv-x="516" 
d="M416 711l84 -102c7 -9 9 -16 6 -23c-3 -8 -12 -12 -27 -12h-77c-33 0 -54 7 -63 22l-23 35l-37 -35c-15 -15 -38 -22 -69 -22h-81c-15 0 -22 4 -23 12c-1 7 4 14 14 23l121 102c23 19 50 29 81 29h28c27 0 49 -10 66 -29zM288 535c110 0 179 -36 208 -107
c9 -25 -1 -43 -30 -55l-76 -32c-15 -7 -26 -8 -33 -5c-3 1 -9 8 -17 19c-14 18 -37 27 -69 27c-42 0 -64 -9 -67 -27c-2 -11 2 -18 13 -22c10 -5 31 -8 63 -11c77 -7 130 -23 160 -49c30 -27 40 -67 31 -120c-19 -112 -107 -168 -264 -168c-128 0 -201 40 -218 119
c-5 25 6 42 33 52l85 28c23 8 40 3 50 -15c9 -21 32 -32 69 -32c48 0 74 10 78 31c2 13 -3 21 -14 26s-36 8 -75 11c-137 9 -196 65 -177 170c19 107 102 160 250 160z" />
    <glyph glyph-name="uni0219" unicode="&#x219;" horiz-adv-x="516" 
d="M38 375c19 107 102 160 250 160c110 0 179 -36 208 -107c9 -25 -1 -43 -30 -55l-76 -32c-15 -7 -26 -8 -33 -5c-3 1 -9 8 -17 19c-14 18 -37 27 -69 27c-42 0 -64 -9 -67 -27c-2 -11 2 -18 13 -22c10 -5 31 -8 63 -11c77 -7 130 -23 160 -49c30 -27 40 -67 31 -120
c-19 -112 -107 -168 -264 -168c-128 0 -201 40 -218 119c-5 25 6 42 33 52l85 28c23 8 40 3 50 -15c9 -21 32 -32 69 -32c48 0 74 10 78 31c2 13 -3 21 -14 26s-36 8 -75 11c-137 9 -196 65 -177 170zM292 -95l-57 -101c-14 -23 -34 -35 -59 -35h-58c-12 0 -19 2 -21 6
c-3 3 -2 11 1 23l28 107c9 30 28 45 57 45h85c33 0 41 -15 24 -45z" />
    <glyph glyph-name="germandbls" unicode="&#xdf;" horiz-adv-x="588" 
d="M-6 42l88 493c25 143 119 215 280 215c83 0 143 -20 180 -60c35 -38 47 -89 36 -153c-11 -63 -44 -110 -97 -143l-1 -4c61 -30 84 -91 68 -182c-25 -139 -114 -208 -267 -208h-41c-16 0 -26 3 -31 9c-5 7 -6 18 -3 33l16 91c5 28 22 42 49 42h15c37 1 59 20 66 59
c7 40 -8 60 -46 60h-14c-16 0 -26 3 -31 10c-5 6 -6 17 -3 33l15 86c5 28 19 42 43 42h8c31 0 49 19 56 56c7 36 -10 54 -49 54c-38 0 -60 -19 -67 -57l-84 -476c-5 -28 -21 -42 -50 -42h-101c-16 0 -26 3 -31 9c-5 7 -7 18 -4 33z" />
    <glyph glyph-name="longs" unicode="&#x17f;" horiz-adv-x="332" 
d="M122 520v3c26 145 124 217 293 217c15 0 24 -3 29 -9c5 -5 6 -15 3 -30l-13 -73c-5 -27 -20 -40 -46 -40c-45 0 -71 -23 -80 -68l-85 -482c-5 -25 -20 -38 -46 -38h-108c-26 0 -37 13 -32 38l58 330h-33c-25 0 -36 13 -31 39l13 75c5 25 20 38 45 38h33z" />
    <glyph glyph-name="t" unicode="t" horiz-adv-x="399" 
d="M184 640h110c25 0 35 -13 32 -38l-15 -82h70c25 0 36 -13 31 -38l-13 -75c-5 -26 -20 -39 -45 -39h-69l-27 -147c-5 -27 -3 -45 6 -56c8 -9 25 -14 50 -14c15 0 25 -3 30 -8c5 -6 6 -16 3 -31l-16 -86c-4 -26 -19 -39 -46 -39c-89 -1 -150 14 -183 46
c-36 35 -47 93 -32 175l28 160h-43c-26 0 -37 13 -32 39l14 75c5 25 19 38 44 38h44l14 82c5 25 20 38 45 38z" />
    <glyph glyph-name="tbar" unicode="&#x167;" horiz-adv-x="400" 
d="M185 640h109c15 0 24 -3 29 -8s6 -15 3 -30l-14 -82h69c15 0 24 -3 28 -8c5 -5 6 -15 4 -30l-14 -75c-5 -25 -19 -38 -44 -38h-70l-9 -53h68c16 0 22 -9 19 -26l-7 -46c-3 -18 -13 -27 -29 -27h-69l-1 -5c-4 -25 -1 -41 9 -50c8 -7 24 -10 48 -10c27 0 38 -13 33 -40
l-15 -86c-5 -26 -20 -39 -46 -39c-89 -1 -150 14 -183 47c-36 34 -47 92 -33 175l2 8h-44c-9 0 -15 2 -18 5c-3 4 -3 11 -1 22l8 46c3 17 13 26 29 26h43l10 53h-44c-15 0 -24 3 -28 8c-5 5 -6 15 -3 30l13 75c5 25 20 38 45 38h43l15 82c5 25 20 38 45 38z" />
    <glyph glyph-name="tcaron" unicode="&#x165;" horiz-adv-x="399" 
d="M549 698l-63 -109c-13 -23 -31 -34 -56 -34h-57c-11 0 -18 2 -20 6c-3 3 -3 11 0 22l29 115c7 28 25 42 55 42h87c34 0 42 -14 25 -42zM184 640h110c25 0 35 -13 32 -38l-15 -82h70c25 0 36 -13 31 -38l-13 -75c-5 -26 -20 -39 -45 -39h-69l-27 -147c-5 -27 -3 -45 6 -56
c8 -9 25 -14 50 -14c15 0 25 -3 30 -8c5 -6 6 -16 3 -31l-16 -86c-4 -26 -19 -39 -46 -39c-89 -1 -150 14 -183 46c-36 35 -47 93 -32 175l28 160h-43c-26 0 -37 13 -32 39l14 75c5 25 19 38 44 38h44l14 82c5 25 20 38 45 38z" />
    <glyph glyph-name="uni021B" unicode="&#x21b;" horiz-adv-x="399" 
d="M184 640h110c25 0 35 -13 32 -38l-15 -82h70c25 0 36 -13 31 -38l-13 -75c-5 -26 -20 -39 -45 -39h-69l-27 -147c-5 -27 -3 -45 6 -56c8 -9 25 -14 50 -14c15 0 25 -3 30 -8c5 -6 6 -16 3 -31l-16 -86c-4 -26 -19 -39 -46 -39c-89 -1 -150 14 -183 46
c-36 35 -47 93 -32 175l28 160h-43c-26 0 -37 13 -32 39l14 75c5 25 19 38 44 38h44l14 82c5 25 20 38 45 38zM248 -90l-73 -137c-11 -22 -28 -33 -51 -33h-64c-21 0 -28 10 -21 30l41 140c9 28 26 42 51 42h90c32 0 41 -14 27 -42z" />
    <glyph glyph-name="u" unicode="u" horiz-adv-x="556" 
d="M407 520h109c26 0 37 -13 32 -38l-71 -400c-5 -29 -23 -49 -52 -60c-67 -25 -140 -37 -219 -37c-75 0 -128 21 -159 62c-30 39 -39 93 -26 164l47 271c5 25 20 38 46 38h109c26 0 37 -13 32 -38l-48 -274c-7 -37 10 -55 49 -55c14 0 28 1 41 4c5 1 8 4 9 9l55 316
c5 25 20 38 46 38z" />
    <glyph glyph-name="uacute" unicode="&#xfa;" horiz-adv-x="556" 
d="M207 650l154 84c30 17 52 16 66 -2l42 -56c14 -19 10 -32 -12 -40l-190 -60c-24 -7 -39 -6 -46 3l-23 33c-11 17 -8 29 9 38zM407 520h109c26 0 37 -13 32 -38l-71 -400c-5 -29 -23 -49 -52 -60c-67 -25 -140 -37 -219 -37c-75 0 -128 21 -159 62c-30 39 -39 93 -26 164
l47 271c5 25 20 38 46 38h109c26 0 37 -13 32 -38l-48 -274c-7 -37 10 -55 49 -55c14 0 28 1 41 4c5 1 8 4 9 9l55 316c5 25 20 38 46 38z" />
    <glyph glyph-name="ubreve" unicode="&#x16d;" horiz-adv-x="556" 
d="M521 680c-39 -71 -104 -106 -195 -106s-144 35 -159 106c-3 16 5 28 24 35l68 24c18 6 30 2 36 -12c9 -21 25 -32 50 -32s45 11 61 33c11 13 23 17 37 12l67 -25c16 -7 20 -19 11 -35zM407 520h109c26 0 37 -13 32 -38l-71 -400c-5 -29 -23 -49 -52 -60
c-67 -25 -140 -37 -219 -37c-75 0 -128 21 -159 62c-30 39 -39 93 -26 164l47 271c5 25 20 38 46 38h109c26 0 37 -13 32 -38l-48 -274c-7 -37 10 -55 49 -55c14 0 28 1 41 4c5 1 8 4 9 9l55 316c5 25 20 38 46 38z" />
    <glyph glyph-name="ucircumflex" unicode="&#xfb;" horiz-adv-x="556" 
d="M347 740h27c28 0 50 -10 66 -29l85 -102c7 -9 9 -16 6 -23c-3 -8 -13 -12 -28 -12h-77c-33 0 -53 7 -62 22l-23 35l-37 -35c-15 -15 -38 -22 -69 -22h-81c-15 0 -22 4 -23 12c-1 7 4 14 14 23l120 102c23 19 51 29 82 29zM407 520h109c26 0 37 -13 32 -38l-71 -400
c-5 -29 -23 -49 -52 -60c-67 -25 -140 -37 -219 -37c-75 0 -128 21 -159 62c-30 39 -39 93 -26 164l47 271c5 25 20 38 46 38h109c26 0 37 -13 32 -38l-48 -274c-7 -37 10 -55 49 -55c14 0 28 1 41 4c5 1 8 4 9 9l55 316c5 25 20 38 46 38z" />
    <glyph glyph-name="udieresis" unicode="&#xfc;" horiz-adv-x="556" 
d="M241 733h7c28 0 46 -5 55 -15c9 -11 11 -29 6 -56l-2 -13c-5 -27 -14 -45 -26 -56c-13 -11 -33 -16 -60 -16h-7c-28 0 -46 5 -55 16s-10 29 -5 56l2 13c5 27 14 46 25 56c12 10 32 15 60 15zM456 733h7c28 0 46 -5 55 -15s10 -29 5 -56l-2 -13c-5 -27 -14 -45 -25 -56
c-13 -11 -33 -16 -60 -16h-7c-27 0 -46 5 -55 16s-11 29 -6 56l2 13c5 27 13 45 26 56c13 10 33 15 60 15zM407 520h109c26 0 37 -13 32 -38l-71 -400c-5 -29 -23 -49 -52 -60c-67 -25 -140 -37 -219 -37c-75 0 -128 21 -159 62c-30 39 -39 93 -26 164l47 271
c5 25 20 38 46 38h109c26 0 37 -13 32 -38l-48 -274c-7 -37 10 -55 49 -55c14 0 28 1 41 4c5 1 8 4 9 9l55 316c5 25 20 38 46 38z" />
    <glyph glyph-name="ugrave" unicode="&#xf9;" horiz-adv-x="556" 
d="M219 676l63 56c19 18 41 19 66 2l125 -84c13 -9 11 -21 -5 -38l-35 -33c-9 -10 -25 -11 -47 -3l-169 60c-19 7 -18 21 2 40zM407 520h109c26 0 37 -13 32 -38l-71 -400c-5 -29 -23 -49 -52 -60c-67 -25 -140 -37 -219 -37c-75 0 -128 21 -159 62c-30 39 -39 93 -26 164
l47 271c5 25 20 38 46 38h109c26 0 37 -13 32 -38l-48 -274c-7 -37 10 -55 49 -55c14 0 28 1 41 4c5 1 8 4 9 9l55 316c5 25 20 38 46 38z" />
    <glyph glyph-name="uhungarumlaut" unicode="&#x171;" horiz-adv-x="556" 
d="M262 570l-43 8c-25 5 -27 17 -6 38l91 97c21 23 44 31 70 26l21 -4c13 6 28 7 43 2l65 -18c13 -4 19 -10 20 -18c0 -8 -6 -16 -17 -25l-133 -89c-19 -13 -35 -18 -47 -15l-28 6c-13 -9 -25 -11 -36 -8zM407 520h109c26 0 37 -13 32 -38l-71 -400c-5 -29 -23 -49 -52 -60
c-67 -25 -140 -37 -219 -37c-75 0 -128 21 -159 62c-30 39 -39 93 -26 164l47 271c5 25 20 38 46 38h109c26 0 37 -13 32 -38l-48 -274c-7 -37 10 -55 49 -55c14 0 28 1 41 4c5 1 8 4 9 9l55 316c5 25 20 38 46 38z" />
    <glyph glyph-name="umacron" unicode="&#x16b;" horiz-adv-x="556" 
d="M226 710h244c15 0 24 -2 28 -7s5 -14 2 -29l-8 -42c-3 -24 -17 -36 -42 -36h-244c-14 0 -23 2 -27 7s-5 14 -3 29l8 42c4 24 18 36 42 36zM407 520h109c26 0 37 -13 32 -38l-71 -400c-5 -29 -23 -49 -52 -60c-67 -25 -140 -37 -219 -37c-75 0 -128 21 -159 62
c-30 39 -39 93 -26 164l47 271c5 25 20 38 46 38h109c26 0 37 -13 32 -38l-48 -274c-7 -37 10 -55 49 -55c14 0 28 1 41 4c5 1 8 4 9 9l55 316c5 25 20 38 46 38z" />
    <glyph glyph-name="uogonek" unicode="&#x173;" horiz-adv-x="556" 
d="M406 520h109c26 0 37 -13 32 -38l-71 -400c-3 -18 -8 -32 -17 -41c-65 -68 -98 -119 -98 -154c-1 -12 4 -18 15 -18c6 0 12 2 19 6c13 7 21 5 23 -6l12 -50c3 -13 -1 -23 -11 -30c-34 -23 -73 -35 -118 -35c-62 0 -94 22 -95 67c-1 54 32 111 97 171
c-33 -5 -65 -7 -98 -7c-75 0 -128 21 -160 63c-29 39 -38 94 -25 165l47 269c5 25 20 38 46 38h109c26 0 37 -13 32 -38l-48 -274c-7 -37 10 -55 49 -55c14 0 28 1 41 4c5 1 8 4 9 9l55 316c5 25 20 38 46 38z" />
    <glyph glyph-name="uring" unicode="&#x16f;" horiz-adv-x="556" 
d="M208 651c6 36 23 65 52 86c27 21 60 31 99 31c38 0 67 -10 86 -31c20 -22 27 -51 20 -86c-6 -35 -23 -64 -50 -85s-60 -31 -97 -31c-39 0 -68 10 -88 31c-21 21 -29 49 -22 85zM373 651c3 23 -6 35 -29 35c-25 0 -40 -12 -44 -35c-5 -23 6 -35 32 -35c23 0 37 12 41 35z
M407 520h109c26 0 37 -13 32 -38l-71 -400c-5 -29 -23 -49 -52 -60c-67 -25 -140 -37 -219 -37c-75 0 -128 21 -159 62c-30 39 -39 93 -26 164l47 271c5 25 20 38 46 38h109c26 0 37 -13 32 -38l-48 -274c-7 -37 10 -55 49 -55c14 0 28 1 41 4c5 1 8 4 9 9l55 316
c5 25 20 38 46 38z" />
    <glyph glyph-name="utilde" unicode="&#x169;" horiz-adv-x="556" 
d="M438 731h60c17 0 23 -8 20 -23c-15 -82 -55 -123 -120 -123c-28 0 -54 7 -78 21c-24 13 -40 20 -48 20c-9 0 -15 -7 -18 -22c-2 -13 -10 -19 -23 -19h-61c-15 0 -22 8 -19 23c15 82 54 123 117 123c29 0 56 -7 81 -21s41 -21 48 -21c10 0 16 7 18 22c3 13 10 20 23 20z
M407 520h109c26 0 37 -13 32 -38l-71 -400c-5 -29 -23 -49 -52 -60c-67 -25 -140 -37 -219 -37c-75 0 -128 21 -159 62c-30 39 -39 93 -26 164l47 271c5 25 20 38 46 38h109c26 0 37 -13 32 -38l-48 -274c-7 -37 10 -55 49 -55c14 0 28 1 41 4c5 1 8 4 9 9l55 316
c5 25 20 38 46 38z" />
    <glyph glyph-name="v" unicode="v" horiz-adv-x="547" 
d="M441 520h104c19 0 30 -3 33 -9s0 -18 -9 -35l-238 -442c-13 -23 -33 -34 -58 -34h-110c-26 0 -42 11 -47 34l-75 442c-3 17 -1 29 4 35s17 9 35 9h94c21 0 36 -2 43 -7s11 -16 12 -31l22 -174c3 -34 2 -76 -5 -127h8c11 50 25 92 40 127l80 173c8 17 16 27 23 32
c8 5 23 7 44 7z" />
    <glyph glyph-name="w" unicode="w" horiz-adv-x="772" 
d="M674 520h92c18 0 29 -3 32 -9s0 -18 -8 -35l-191 -442c-11 -23 -30 -34 -58 -34h-103c-31 0 -46 11 -47 34l-9 134c-1 40 1 87 7 142h-7c-14 -55 -29 -102 -46 -142l-57 -134c-9 -23 -29 -34 -58 -34h-92c-29 0 -45 11 -47 34l-40 442c-2 17 0 29 5 35s17 9 35 9h92
c23 0 39 -2 46 -7s11 -15 11 -31l1 -133c-1 -35 -6 -87 -16 -156h8c15 69 30 121 43 156l54 132c6 16 14 27 23 32s25 7 48 7h64c23 0 38 -2 45 -7s11 -15 11 -31l8 -133c1 -37 -3 -89 -12 -156h8c13 65 27 117 40 156l47 132c5 16 13 27 22 32s26 7 49 7z" />
    <glyph glyph-name="wacute" unicode="&#x1e83;" horiz-adv-x="772" 
d="M319 650l154 84c30 17 52 16 66 -2l42 -56c13 -19 9 -33 -12 -40l-191 -60c-24 -8 -39 -7 -45 3l-23 33c-11 17 -8 29 9 38zM674 520h92c18 0 29 -3 32 -9s0 -18 -8 -35l-191 -442c-11 -23 -30 -34 -58 -34h-103c-31 0 -46 11 -47 34l-9 134c-1 40 1 87 7 142h-7
c-14 -55 -29 -102 -46 -142l-57 -134c-9 -23 -29 -34 -58 -34h-92c-29 0 -45 11 -47 34l-40 442c-2 17 0 29 5 35s17 9 35 9h92c23 0 39 -2 46 -7s11 -15 11 -31l1 -133c-1 -35 -6 -87 -16 -156h8c15 69 30 121 43 156l54 132c6 16 14 27 23 32s25 7 48 7h64
c23 0 38 -2 45 -7s11 -15 11 -31l8 -133c1 -37 -3 -89 -12 -156h8c13 65 27 117 40 156l47 132c5 16 13 27 22 32s26 7 49 7z" />
    <glyph glyph-name="wcircumflex" unicode="&#x175;" horiz-adv-x="772" 
d="M346 574h-80c-15 0 -23 4 -24 12c-1 7 4 14 15 23l120 102c23 19 51 29 82 29h27c27 0 49 -10 66 -29l84 -102c7 -9 10 -16 7 -23c-3 -8 -13 -12 -28 -12h-77c-33 0 -54 7 -63 22l-22 35l-37 -35c-16 -15 -39 -22 -70 -22zM674 520h92c18 0 29 -3 32 -9s0 -18 -8 -35
l-191 -442c-11 -23 -30 -34 -58 -34h-103c-31 0 -46 11 -47 34l-9 134c-1 40 1 87 7 142h-7c-14 -55 -29 -102 -46 -142l-57 -134c-9 -23 -29 -34 -58 -34h-92c-29 0 -45 11 -47 34l-40 442c-2 17 0 29 5 35s17 9 35 9h92c23 0 39 -2 46 -7s11 -15 11 -31l1 -133
c-1 -35 -6 -87 -16 -156h8c15 69 30 121 43 156l54 132c6 16 14 27 23 32s25 7 48 7h64c23 0 38 -2 45 -7s11 -15 11 -31l8 -133c1 -37 -3 -89 -12 -156h8c13 65 27 117 40 156l47 132c5 16 13 27 22 32s26 7 49 7z" />
    <glyph glyph-name="wdieresis" unicode="&#x1e85;" horiz-adv-x="772" 
d="M352 733h8c28 0 46 -5 55 -15c9 -11 11 -29 6 -56l-2 -13c-5 -27 -14 -45 -26 -56c-13 -11 -33 -16 -60 -16h-8c-27 0 -45 5 -54 16s-10 29 -5 56l2 13c5 27 13 46 25 56s32 15 59 15zM568 733h7c28 0 46 -5 55 -15s10 -29 5 -56l-2 -13c-5 -27 -14 -45 -26 -56
s-32 -16 -59 -16h-7c-28 0 -46 5 -55 16s-11 29 -6 56l2 13c5 27 13 45 25 56c13 10 33 15 61 15zM674 520h92c18 0 29 -3 32 -9s0 -18 -8 -35l-191 -442c-11 -23 -30 -34 -58 -34h-103c-31 0 -46 11 -47 34l-9 134c-1 40 1 87 7 142h-7c-14 -55 -29 -102 -46 -142l-57 -134
c-9 -23 -29 -34 -58 -34h-92c-29 0 -45 11 -47 34l-40 442c-2 17 0 29 5 35s17 9 35 9h92c23 0 39 -2 46 -7s11 -15 11 -31l1 -133c-1 -35 -6 -87 -16 -156h8c15 69 30 121 43 156l54 132c6 16 14 27 23 32s25 7 48 7h64c23 0 38 -2 45 -7s11 -15 11 -31l8 -133
c1 -37 -3 -89 -12 -156h8c13 65 27 117 40 156l47 132c5 16 13 27 22 32s26 7 49 7z" />
    <glyph glyph-name="wgrave" unicode="&#x1e81;" horiz-adv-x="772" 
d="M330 676l64 56c19 18 41 19 66 2l124 -84c13 -9 12 -21 -5 -38l-34 -33c-10 -10 -26 -11 -47 -3l-170 60c-18 7 -17 21 2 40zM674 520h92c18 0 29 -3 32 -9s0 -18 -8 -35l-191 -442c-11 -23 -30 -34 -58 -34h-103c-31 0 -46 11 -47 34l-9 134c-1 40 1 87 7 142h-7
c-14 -55 -29 -102 -46 -142l-57 -134c-9 -23 -29 -34 -58 -34h-92c-29 0 -45 11 -47 34l-40 442c-2 17 0 29 5 35s17 9 35 9h92c23 0 39 -2 46 -7s11 -15 11 -31l1 -133c-1 -35 -6 -87 -16 -156h8c15 69 30 121 43 156l54 132c6 16 14 27 23 32s25 7 48 7h64
c23 0 38 -2 45 -7s11 -15 11 -31l8 -133c1 -37 -3 -89 -12 -156h8c13 65 27 117 40 156l47 132c5 16 13 27 22 32s26 7 49 7z" />
    <glyph glyph-name="x" unicode="x" horiz-adv-x="552" 
d="M433 520h108c38 0 44 -15 18 -45l-172 -207l105 -223c15 -30 3 -45 -36 -45h-96c-22 0 -36 2 -43 5c-8 4 -15 13 -21 28l-44 114l-81 -114c-15 -22 -40 -33 -76 -33h-104c-22 0 -34 4 -37 11s3 18 16 34l185 222l-102 208c-15 30 -2 45 38 45h93c21 0 36 -2 44 -6
c9 -4 16 -13 21 -27l39 -97l73 97c15 22 39 33 72 33z" />
    <glyph glyph-name="y" unicode="y" horiz-adv-x="558" 
d="M404 520h110c25 0 36 -13 31 -38l-85 -487c-27 -150 -121 -225 -280 -225c-102 0 -168 34 -199 101c-11 25 -2 45 28 58l85 39c24 11 42 6 53 -13c13 -22 32 -33 58 -33c37 0 59 19 66 58l6 39c-18 -3 -41 -4 -68 -4c-75 0 -128 21 -159 64c-30 40 -39 95 -26 166l42 237
c5 25 20 38 45 38h110c25 0 36 -13 31 -38l-43 -244c-7 -37 10 -55 51 -55c18 0 34 1 47 4l52 295c5 25 20 38 45 38z" />
    <glyph glyph-name="yacute" unicode="&#xfd;" horiz-adv-x="558" 
d="M205 650l154 84c30 17 52 16 66 -2l42 -56c13 -19 9 -33 -12 -40l-191 -60c-24 -8 -39 -7 -45 3l-23 33c-11 17 -8 29 9 38zM404 520h110c25 0 36 -13 31 -38l-85 -487c-27 -150 -121 -225 -280 -225c-102 0 -168 34 -199 101c-11 25 -2 45 28 58l85 39
c24 11 42 6 53 -13c13 -22 32 -33 58 -33c37 0 59 19 66 58l6 39c-18 -3 -41 -4 -68 -4c-75 0 -128 21 -159 64c-30 40 -39 95 -26 166l42 237c5 25 20 38 45 38h110c25 0 36 -13 31 -38l-43 -244c-7 -37 10 -55 51 -55c18 0 34 1 47 4l52 295c5 25 20 38 45 38z" />
    <glyph glyph-name="ycircumflex" unicode="&#x177;" horiz-adv-x="558" 
d="M232 574h-80c-15 0 -23 4 -24 12c-1 7 4 14 15 23l120 102c23 19 51 29 82 29h27c27 0 49 -10 66 -29l84 -102c7 -9 10 -16 7 -23c-3 -8 -13 -12 -28 -12h-77c-33 0 -54 7 -63 22l-22 35l-37 -35c-16 -15 -39 -22 -70 -22zM404 520h110c25 0 36 -13 31 -38l-85 -487
c-27 -150 -121 -225 -280 -225c-102 0 -168 34 -199 101c-11 25 -2 45 28 58l85 39c24 11 42 6 53 -13c13 -22 32 -33 58 -33c37 0 59 19 66 58l6 39c-18 -3 -41 -4 -68 -4c-75 0 -128 21 -159 64c-30 40 -39 95 -26 166l42 237c5 25 20 38 45 38h110c25 0 36 -13 31 -38
l-43 -244c-7 -37 10 -55 51 -55c18 0 34 1 47 4l52 295c5 25 20 38 45 38z" />
    <glyph glyph-name="ydieresis" unicode="&#xff;" horiz-adv-x="558" 
d="M238 733h8c28 0 46 -5 55 -15c9 -11 11 -29 6 -56l-2 -13c-5 -27 -14 -45 -26 -56c-13 -11 -33 -16 -60 -16h-8c-27 0 -45 5 -54 16s-10 29 -5 56l2 13c5 27 13 46 25 56s32 15 59 15zM454 733h7c28 0 46 -5 55 -15s10 -29 5 -56l-2 -13c-5 -27 -14 -45 -26 -56
s-32 -16 -59 -16h-7c-28 0 -46 5 -55 16s-11 29 -6 56l2 13c5 27 13 45 25 56c13 10 33 15 61 15zM404 520h110c25 0 36 -13 31 -38l-85 -487c-27 -150 -121 -225 -280 -225c-102 0 -168 34 -199 101c-11 25 -2 45 28 58l85 39c24 11 42 6 53 -13c13 -22 32 -33 58 -33
c37 0 59 19 66 58l6 39c-18 -3 -41 -4 -68 -4c-75 0 -128 21 -159 64c-30 40 -39 95 -26 166l42 237c5 25 20 38 45 38h110c25 0 36 -13 31 -38l-43 -244c-7 -37 10 -55 51 -55c18 0 34 1 47 4l52 295c5 25 20 38 45 38z" />
    <glyph glyph-name="ygrave" unicode="&#x1ef3;" horiz-adv-x="558" 
d="M216 676l64 56c19 18 41 19 66 2l124 -84c13 -9 12 -21 -5 -38l-34 -33c-10 -10 -26 -11 -47 -3l-170 60c-18 7 -17 21 2 40zM404 520h110c25 0 36 -13 31 -38l-85 -487c-27 -150 -121 -225 -280 -225c-102 0 -168 34 -199 101c-11 25 -2 45 28 58l85 39
c24 11 42 6 53 -13c13 -22 32 -33 58 -33c37 0 59 19 66 58l6 39c-18 -3 -41 -4 -68 -4c-75 0 -128 21 -159 64c-30 40 -39 95 -26 166l42 237c5 25 20 38 45 38h110c25 0 36 -13 31 -38l-43 -244c-7 -37 10 -55 51 -55c18 0 34 1 47 4l52 295c5 25 20 38 45 38z" />
    <glyph glyph-name="z" unicode="z" horiz-adv-x="492" 
d="M226 158h177c15 0 24 -3 28 -8c5 -5 6 -15 3 -29l-14 -83c-5 -25 -20 -38 -45 -38h-366c-26 0 -37 13 -32 38l14 78c3 16 10 29 22 40l221 206h-156c-15 0 -24 3 -28 8c-5 5 -6 15 -3 29l14 83c5 25 20 38 45 38h356c25 0 36 -13 31 -38l-14 -78c-3 -16 -12 -31 -28 -46z
" />
    <glyph glyph-name="zacute" unicode="&#x17a;" horiz-adv-x="492" 
d="M176 650l154 84c30 17 52 16 66 -2l42 -56c14 -19 10 -32 -12 -40l-191 -60c-24 -8 -39 -7 -45 3l-23 33c-11 16 -8 29 9 38zM226 158h177c15 0 24 -3 28 -8c5 -5 6 -15 3 -29l-14 -83c-5 -25 -20 -38 -45 -38h-366c-26 0 -37 13 -32 38l14 78c3 16 10 29 22 40l221 206
h-156c-15 0 -24 3 -28 8c-5 5 -6 15 -3 29l14 83c5 25 20 38 45 38h356c25 0 36 -13 31 -38l-14 -78c-3 -16 -12 -31 -28 -46z" />
    <glyph glyph-name="zcaron" unicode="&#x17e;" horiz-adv-x="492" 
d="M420 739h78c30 0 32 -11 7 -34l-119 -102c-22 -20 -48 -30 -79 -30h-28c-28 0 -51 10 -68 30l-82 102c-8 9 -11 16 -9 23c3 7 11 11 26 11h82c31 0 52 -7 62 -21l24 -35l36 34c15 15 39 22 70 22zM106 520h356c25 0 36 -13 31 -38l-14 -78c-3 -16 -12 -31 -28 -46
l-225 -200h177c15 0 24 -3 28 -8c5 -5 6 -15 3 -29l-14 -83c-5 -25 -20 -38 -45 -38h-366c-26 0 -37 13 -32 38l14 78c3 16 10 29 22 40l221 206h-156c-15 0 -24 3 -28 8c-5 5 -6 15 -3 29l14 83c5 25 20 38 45 38z" />
    <glyph glyph-name="zdotaccent" unicode="&#x17c;" horiz-adv-x="492" 
d="M319 736h6c29 0 47 -5 56 -16c9 -10 10 -30 5 -59l-2 -8c-5 -29 -13 -48 -25 -59s-33 -16 -62 -16h-6c-29 0 -47 5 -56 16c-9 10 -11 30 -6 59l2 8c5 29 13 48 26 59c12 11 33 16 62 16zM226 158h177c15 0 24 -3 28 -8c5 -5 6 -15 3 -29l-14 -83c-5 -25 -20 -38 -45 -38
h-366c-26 0 -37 13 -32 38l14 78c3 16 10 29 22 40l221 206h-156c-15 0 -24 3 -28 8c-5 5 -6 15 -3 29l14 83c5 25 20 38 45 38h356c25 0 36 -13 31 -38l-14 -78c-3 -16 -12 -31 -28 -46z" />
    <glyph glyph-name="ordfeminine" unicode="&#xaa;" horiz-adv-x="352" 
d="M96 619c34 36 81 54 142 54c94 0 134 -42 119 -127l-22 -129c-4 -23 -19 -40 -46 -50c-31 -10 -68 -15 -109 -15c-95 0 -137 34 -125 101c6 31 20 54 42 68c25 15 64 23 119 23c6 0 11 0 14 -1l2 16c3 13 -3 20 -16 20c-7 0 -17 -5 -29 -14c-16 -14 -32 -17 -49 -9
l-34 19c-21 11 -24 25 -8 44zM216 469h-17c-12 0 -19 -5 -21 -16c-3 -11 2 -17 15 -17l16 1c1 0 2 1 2 2z" />
    <glyph glyph-name="ordmasculine" unicode="&#xba;" horiz-adv-x="352" 
d="M63 488l11 61c15 83 70 125 167 125c47 0 81 -13 103 -39c21 -25 28 -58 20 -99l-11 -61c-15 -82 -71 -123 -168 -123c-47 0 -81 13 -102 38s-28 57 -20 98zM230 481l12 64c1 13 -5 19 -20 19s-24 -6 -26 -19l-11 -64c-2 -13 4 -19 19 -19s24 6 26 19z" />
    <glyph glyph-name="uni0410" unicode="&#x410;" horiz-adv-x="688" 
d="M518 677l119 -636c5 -27 -7 -41 -37 -41h-104c-25 0 -42 3 -51 9s-15 17 -16 33l-10 72h-217l-35 -72c-13 -28 -40 -42 -80 -42h-110c-28 0 -34 14 -19 41l342 634c12 23 31 35 58 35h113c27 0 43 -11 47 -33zM401 271l-16 117c-5 45 -4 92 3 140h-9
c-9 -48 -24 -94 -45 -139l-57 -118h124z" />
    <glyph glyph-name="uni0411" unicode="&#x411;" horiz-adv-x="641" 
d="M165 711h441c28 0 39 -14 34 -43l-13 -78c-5 -28 -22 -42 -50 -42h-285l-16 -89h130c71 0 126 -22 164 -67s51 -102 38 -173c-12 -70 -42 -124 -90 -163c-47 -37 -107 -56 -179 -56h-301c-27 0 -39 13 -34 40l111 628c5 29 22 43 50 43zM409 230c7 44 -13 66 -61 66h-101
l-23 -133h100c49 0 78 22 85 67z" />
    <glyph glyph-name="uni0412" unicode="&#x412;" horiz-adv-x="658" 
d="M164 711h293c69 0 120 -18 154 -54c33 -35 45 -83 34 -143c-12 -61 -45 -107 -98 -140l-1 -4c61 -29 84 -89 69 -180c-11 -63 -43 -110 -94 -143c-48 -31 -109 -47 -182 -47h-300c-29 0 -40 14 -35 42l110 626c5 29 22 43 50 43zM439 494c7 37 -11 56 -52 56h-96
l-19 -110h96c41 0 64 18 71 54zM413 221c8 39 -10 58 -54 58h-115l-21 -117h116c43 0 67 20 74 59z" />
    <glyph glyph-name="uni0413" unicode="&#x413;" horiz-adv-x="533" 
d="M164 710h384c29 0 41 -14 36 -42l-16 -90c-5 -29 -22 -43 -50 -43h-229l-87 -493c-5 -28 -22 -42 -50 -42h-113c-29 0 -40 14 -35 42l110 626c5 28 22 42 50 42z" />
    <glyph glyph-name="uni0414" unicode="&#x414;" horiz-adv-x="791" 
d="M275 710h437c29 0 40 -14 35 -42l-86 -493h48c28 0 39 -14 34 -41l-43 -245c-5 -28 -21 -42 -50 -42h-110c-16 0 -26 3 -31 9c-5 7 -7 18 -4 33l20 111h-366l-20 -111c-5 -28 -21 -42 -50 -42h-110c-16 0 -26 3 -31 9c-5 7 -7 18 -4 33l43 245c5 27 22 41 50 41h22
c61 46 104 134 127 265l40 228c5 28 21 42 49 42zM394 535l-17 -94c-21 -114 -52 -203 -93 -266h179l63 360h-132z" />
    <glyph glyph-name="uni0415" unicode="&#x415;" horiz-adv-x="588" 
d="M164 710h419c29 0 41 -14 36 -42l-16 -90c-5 -29 -22 -43 -50 -43h-264l-16 -89h211c16 0 26 -3 31 -9c5 -7 7 -18 4 -33l-16 -90c-5 -29 -22 -43 -50 -43h-211l-17 -96h273c15 0 26 -3 31 -9s6 -17 3 -33l-16 -91c-5 -28 -21 -42 -50 -42h-427c-29 0 -40 14 -35 42
l110 626c5 28 22 42 50 42z" />
    <glyph glyph-name="uni0401" unicode="&#x401;" horiz-adv-x="588" 
d="M306 906h7c28 0 46 -5 55 -15c9 -11 11 -29 6 -56l-2 -13c-5 -27 -14 -45 -26 -56c-13 -11 -33 -16 -60 -16h-8c-27 0 -45 5 -54 16s-10 29 -5 56l2 13c5 27 14 46 25 56c12 10 32 15 60 15zM521 906h7c28 0 46 -5 55 -15s10 -29 5 -56l-2 -13c-5 -27 -14 -45 -25 -56
c-13 -11 -33 -16 -60 -16h-7c-28 0 -46 5 -55 16s-11 29 -6 56l2 13c5 27 13 45 26 56c13 10 33 15 60 15zM164 710h419c29 0 41 -14 36 -42l-16 -90c-5 -29 -22 -43 -50 -43h-264l-16 -89h211c16 0 26 -3 31 -9c5 -7 7 -18 4 -33l-16 -90c-5 -29 -22 -43 -50 -43h-211
l-17 -96h273c15 0 26 -3 31 -9s6 -17 3 -33l-16 -91c-5 -28 -21 -42 -50 -42h-427c-29 0 -40 14 -35 42l110 626c5 28 22 42 50 42z" />
    <glyph glyph-name="uni0416" unicode="&#x416;" horiz-adv-x="979" 
d="M888 710h116c31 0 37 -15 17 -44l-213 -300c14 -19 25 -42 33 -67l81 -250c11 -33 -1 -49 -34 -49h-107c-27 0 -46 3 -56 8c-11 5 -19 17 -24 34l-50 184c-9 31 -28 46 -59 46h-8l-41 -230c-5 -28 -21 -42 -50 -42h-113c-16 0 -26 3 -31 9c-5 7 -7 18 -4 33l41 230h-8
c-29 0 -54 -15 -73 -46l-116 -184c-17 -28 -49 -42 -95 -42h-108c-17 0 -26 5 -29 14s1 21 11 35l170 250c19 27 38 50 58 67l-108 300c-10 29 0 44 31 44h114c26 0 43 -2 52 -6c9 -5 16 -15 21 -31l79 -228c5 1 13 1 24 1h7l40 222c5 28 21 42 49 42h113
c29 0 41 -14 36 -42l-40 -222h8c9 0 17 0 22 -1l158 228c11 16 21 26 32 31c10 4 28 6 54 6z" />
    <glyph glyph-name="uni0417" unicode="&#x417;" horiz-adv-x="649" 
d="M634 505c-11 -61 -45 -105 -101 -133c63 -35 87 -93 71 -176c-26 -141 -132 -211 -319 -211c-172 0 -269 58 -291 175c-5 27 7 45 36 54l104 35c15 5 27 6 34 2s12 -14 15 -29c9 -43 47 -65 114 -65c62 0 96 20 103 59c8 39 -10 59 -53 59h-95c-29 0 -41 14 -36 42l15 83
c5 29 22 43 50 43h79c40 0 64 18 71 55s-16 55 -68 55c-63 0 -107 -22 -132 -65c-15 -27 -34 -36 -59 -27l-90 35c-26 9 -32 27 -17 54c65 117 178 175 339 175c85 0 148 -20 189 -59s54 -93 41 -161z" />
    <glyph glyph-name="uni0418" unicode="&#x418;" horiz-adv-x="706" 
d="M564 711h120c29 0 40 -14 35 -43l-110 -626c-5 -28 -22 -42 -50 -42h-113c-16 0 -26 3 -31 10c-5 6 -7 17 -4 33l31 170c11 65 38 148 80 248h-7c-43 -80 -87 -149 -130 -206l-179 -235c-11 -13 -26 -20 -46 -20h-121c-16 0 -26 3 -31 9c-5 7 -7 18 -4 33l111 626
c5 28 21 42 49 42h113c29 0 41 -14 36 -42l-30 -171c-15 -82 -42 -164 -81 -247h7c51 91 95 160 132 208l178 233c11 13 26 20 45 20z" />
    <glyph glyph-name="uni0419" unicode="&#x419;" horiz-adv-x="706" 
d="M434 754c-91 0 -144 35 -157 106c-3 16 4 28 23 35l71 25c11 4 19 5 24 3c4 -1 8 -6 11 -15c9 -22 26 -33 50 -33c23 0 43 11 59 33c10 13 23 18 39 13l65 -26c17 -7 21 -18 11 -35c-39 -71 -105 -106 -196 -106zM564 711h120c29 0 40 -14 35 -43l-110 -626
c-5 -28 -22 -42 -50 -42h-113c-16 0 -26 3 -31 10c-5 6 -7 17 -4 33l31 170c11 65 38 148 80 248h-7c-43 -80 -87 -149 -130 -206l-179 -235c-11 -13 -26 -20 -46 -20h-121c-16 0 -26 3 -31 9c-5 7 -7 18 -4 33l111 626c5 28 21 42 49 42h113c29 0 41 -14 36 -42l-30 -171
c-15 -82 -42 -164 -81 -247h7c51 91 95 160 132 208l178 233c11 13 26 20 45 20z" />
    <glyph glyph-name="uni041A" unicode="&#x41a;" horiz-adv-x="654" 
d="M511 299l88 -250c5 -14 4 -26 -2 -35s-17 -14 -33 -14h-108c-27 0 -45 3 -56 8s-19 17 -25 34l-56 179c-11 33 -31 50 -60 50h-17l-40 -229c-5 -28 -22 -42 -50 -42h-113c-29 0 -40 14 -35 42l110 626c5 28 22 42 50 42h113c29 0 40 -14 35 -42l-39 -222h22l183 227
c20 25 49 37 86 37h116c15 0 24 -4 27 -12c3 -9 0 -19 -10 -32l-237 -294c22 -15 39 -40 51 -73z" />
    <glyph glyph-name="uni041B" unicode="&#x41b;" horiz-adv-x="699" 
d="M249 710h427c29 0 41 -14 36 -42l-111 -626c-5 -28 -21 -42 -50 -42h-113c-16 0 -26 3 -31 9c-5 7 -7 18 -4 33l87 493h-120l-16 -94c-24 -135 -62 -238 -115 -311c-42 -58 -100 -104 -173 -137c-15 -7 -27 -9 -34 -6s-14 11 -19 26l-41 96c-9 23 2 43 31 58
c39 21 69 47 90 79c29 43 51 108 66 194l40 228c5 28 22 42 50 42z" />
    <glyph glyph-name="uni041C" unicode="&#x41c;" horiz-adv-x="827" 
d="M704 711h101c16 0 27 -3 32 -9s6 -17 3 -33l-110 -628c-5 -27 -22 -41 -50 -41h-109c-16 0 -27 3 -32 9s-6 17 -3 32l25 143c12 71 42 159 89 262h-10c-27 -56 -59 -111 -96 -165l-76 -113c-13 -19 -31 -29 -53 -29h-65c-21 0 -36 10 -43 29l-38 113
c-15 40 -26 95 -34 165h-9c9 -109 7 -197 -6 -263l-24 -142c-5 -27 -22 -41 -50 -41h-106c-16 0 -26 3 -31 9s-7 17 -4 32l111 628c5 28 22 42 50 42h93c29 0 47 -10 54 -31l107 -328l222 327c14 21 35 32 62 32z" />
    <glyph glyph-name="uni041D" unicode="&#x41d;" horiz-adv-x="692" 
d="M556 711h114c28 0 39 -14 34 -43l-110 -626c-5 -28 -22 -42 -50 -42h-113c-29 0 -40 14 -35 42l40 230h-193l-41 -230c-5 -28 -21 -42 -50 -42h-113c-16 0 -26 3 -31 9c-5 7 -7 18 -4 33l111 626c5 29 22 43 50 43h113c29 0 40 -14 35 -43l-39 -221h193l39 221
c5 29 22 43 50 43z" />
    <glyph glyph-name="uni041E" unicode="&#x41e;" horiz-adv-x="682" 
d="M28 274l32 181c15 87 53 153 113 200c61 47 140 70 239 70c97 0 168 -27 215 -81c45 -53 59 -123 44 -211l-31 -181c-15 -86 -53 -152 -113 -198c-61 -46 -140 -69 -239 -69c-97 0 -169 27 -215 80c-45 51 -60 121 -45 209zM442 256l35 198c11 64 -19 96 -92 96
s-116 -32 -127 -96l-35 -198c-11 -64 20 -96 93 -96s115 32 126 96z" />
    <glyph glyph-name="uni041F" unicode="&#x41f;" horiz-adv-x="687" 
d="M164 710h499c29 0 41 -14 36 -42l-111 -626c-5 -28 -21 -42 -50 -42h-113c-16 0 -26 3 -31 9c-5 7 -7 18 -4 33l87 493h-188l-87 -493c-5 -28 -22 -42 -50 -42h-113c-29 0 -40 14 -35 42l110 626c5 28 22 42 50 42z" />
    <glyph glyph-name="uni0420" unicode="&#x420;" horiz-adv-x="648" 
d="M164 710h276c78 0 136 -24 174 -73c38 -48 50 -112 37 -192c-27 -155 -126 -232 -297 -232h-122l-30 -171c-5 -28 -22 -42 -50 -42h-113c-29 0 -40 14 -35 42l110 626c5 28 22 42 50 42zM263 388h98c50 0 79 24 88 73c4 23 1 41 -10 54s-29 20 -52 20h-98z" />
    <glyph glyph-name="uni0421" unicode="&#x421;" horiz-adv-x="647" 
d="M28 274l33 185c15 86 53 152 114 198c61 45 140 68 239 68c144 0 227 -59 249 -178c5 -27 -6 -45 -34 -54l-103 -35c-16 -5 -27 -5 -34 -2c-7 4 -13 14 -16 29c-9 43 -39 65 -91 65c-73 0 -116 -35 -128 -104l-33 -182c-12 -69 19 -104 92 -104c53 0 91 22 115 65
c16 27 36 36 59 27l104 -40c26 -9 32 -27 17 -54c-63 -115 -170 -173 -323 -173c-97 0 -168 27 -215 80c-45 52 -60 122 -45 209z" />
    <glyph glyph-name="uni0422" unicode="&#x422;" horiz-adv-x="602" 
d="M124 710h495c29 0 40 -14 35 -42l-16 -90c-5 -29 -21 -43 -50 -43h-148l-87 -493c-5 -28 -22 -42 -50 -42h-113c-29 0 -40 14 -35 42l87 493h-149c-16 0 -26 3 -31 10c-5 6 -7 17 -4 33l16 90c5 28 22 42 50 42z" />
    <glyph glyph-name="uni0423" unicode="&#x423;" horiz-adv-x="629" 
d="M545 710h125c25 0 30 -14 14 -42l-376 -631c-15 -25 -41 -37 -76 -37h-129c-27 0 -31 14 -14 42l107 172l-133 454c-8 28 2 42 30 42h118c25 0 42 -2 49 -5c10 -5 17 -15 21 -32l59 -223l131 223c9 17 19 27 28 31c8 4 23 6 46 6z" />
    <glyph glyph-name="uni0424" unicode="&#x424;" horiz-adv-x="862" 
d="M454 735h112c29 0 40 -14 35 -42l-7 -43h27c92 0 159 -25 201 -74c40 -49 53 -116 39 -201l-9 -53c-31 -171 -141 -257 -331 -257h-30l-8 -43c-5 -29 -22 -43 -50 -43h-113c-29 0 -40 14 -35 43l8 43h-30c-91 0 -158 25 -199 75c-40 49 -53 116 -38 202l9 53
c31 170 141 255 331 255h30l8 43c5 28 21 42 50 42zM366 480h-21c-62 0 -98 -29 -109 -88l-12 -69c-10 -59 16 -88 78 -88h21zM650 323l12 69c11 59 -15 88 -78 88h-21l-43 -245h21c63 0 99 29 109 88z" />
    <glyph glyph-name="uni0425" unicode="&#x425;" horiz-adv-x="662" 
d="M567 710h129c14 0 22 -4 24 -12c2 -7 -2 -17 -11 -28l-253 -308l153 -320c6 -11 6 -21 1 -29c-5 -9 -15 -13 -30 -13h-127c-27 0 -44 2 -53 6s-17 14 -24 31l-66 164l-120 -164c-19 -25 -49 -37 -90 -37h-124c-15 0 -24 4 -26 12s2 18 12 30l262 320l-142 308
c-5 11 -6 21 -1 28c5 8 15 12 28 12h119c26 0 44 -2 53 -6s17 -14 24 -29l63 -154l116 154c18 23 46 35 83 35z" />
    <glyph glyph-name="uni0427" unicode="&#x427;" horiz-adv-x="657" 
d="M521 710h113c29 0 40 -14 35 -42l-110 -626c-5 -28 -22 -42 -50 -42h-113c-29 0 -40 14 -35 42l34 195c-33 -5 -67 -7 -103 -7c-186 0 -262 97 -228 292l26 146c5 28 21 42 49 42h113c29 0 41 -14 36 -42l-29 -160c-6 -34 -2 -58 12 -71c14 -14 42 -21 83 -21
c27 0 52 2 74 7l43 245c5 28 22 42 50 42z" />
    <glyph glyph-name="uni0426" unicode="&#x426;" horiz-adv-x="733" 
d="M609 175h41c16 0 27 -3 32 -9s6 -17 3 -32l-43 -245c-5 -29 -22 -43 -50 -43h-103c-16 0 -26 3 -31 10c-5 6 -7 17 -4 33l20 111h-435c-29 0 -40 14 -35 42l110 626c5 28 22 42 50 42h113c29 0 40 -14 35 -42l-87 -493h186l87 493c5 28 22 42 50 42h113
c29 0 40 -14 35 -42z" />
    <glyph glyph-name="uni0428" unicode="&#x428;" horiz-adv-x="952" 
d="M815 710h113c29 0 41 -14 36 -42l-111 -626c-5 -28 -21 -42 -50 -42h-764c-29 0 -40 14 -35 42l110 626c5 28 22 42 50 42h113c29 0 40 -14 35 -42l-87 -493h128l87 493c5 28 21 42 49 42h114c28 0 40 -14 35 -42l-87 -493h128l87 493c5 28 21 42 49 42z" />
    <glyph glyph-name="uni0429" unicode="&#x429;" horiz-adv-x="1001" 
d="M877 175h41c16 0 27 -3 32 -9s6 -17 3 -32l-43 -246c-5 -28 -22 -42 -50 -42h-103c-16 0 -27 3 -32 9s-6 17 -3 33l19 112h-702c-29 0 -40 14 -35 42l110 626c5 28 22 42 50 42h113c29 0 40 -14 35 -42l-87 -493h128l87 493c5 28 21 42 49 42h114c28 0 40 -14 35 -42
l-87 -493h128l87 493c5 28 21 42 49 42h113c29 0 41 -14 36 -42z" />
    <glyph glyph-name="uni042F" unicode="&#x42f;" horiz-adv-x="661" 
d="M65 483c27 151 124 227 289 227h285c29 0 40 -14 35 -42l-110 -626c-5 -28 -22 -42 -50 -42h-113c-29 0 -40 14 -35 42l34 194h-26c-37 0 -66 -17 -87 -51l-84 -143c-16 -28 -48 -42 -96 -42h-108c-33 0 -39 16 -17 49l112 171c20 31 34 50 41 58c-64 41 -87 110 -70 205
zM453 535h-108c-43 0 -68 -22 -77 -65c-7 -43 11 -64 55 -64h107z" />
    <glyph glyph-name="uni042C" unicode="&#x42c;" horiz-adv-x="645" 
d="M613 238c-14 -78 -47 -138 -98 -179c-50 -39 -115 -59 -194 -59h-282c-29 0 -40 14 -35 42l110 626c5 28 22 42 50 42h113c29 0 40 -14 35 -42l-30 -171h115c79 0 138 -23 177 -70c40 -47 53 -110 39 -189zM411 249c4 22 1 40 -10 53s-28 20 -51 20h-99l-26 -147h98
c51 0 80 25 88 74z" />
    <glyph glyph-name="uni042A" unicode="&#x42a;" horiz-adv-x="780" 
d="M416 497h113c79 0 138 -24 179 -71c41 -48 55 -111 41 -190c-28 -157 -126 -236 -294 -236h-283c-28 0 -39 14 -34 42l86 493h-130c-16 0 -26 3 -31 9s-7 17 -4 33l16 91c5 28 22 42 50 42h286c28 0 40 -14 35 -42zM359 175h98c51 0 80 25 88 74c4 22 1 40 -10 53
s-28 20 -51 20h-99z" />
    <glyph glyph-name="uni042B" unicode="&#x42b;" horiz-adv-x="939" 
d="M614 238c-14 -78 -47 -138 -98 -179c-51 -39 -116 -59 -195 -59h-282c-16 0 -26 3 -31 9c-5 7 -7 18 -4 33l111 626c5 28 21 42 49 42h113c29 0 41 -14 36 -42l-30 -171h114c79 0 138 -23 178 -70s53 -110 39 -189zM644 40l111 630c5 27 21 40 47 40h118
c27 0 38 -13 33 -40l-111 -630c-5 -27 -20 -40 -47 -40h-118c-27 0 -38 13 -33 40zM412 249c4 22 1 40 -10 53s-28 20 -51 20h-99l-27 -147h99c51 0 80 25 88 74z" />
    <glyph glyph-name="uni042D" unicode="&#x42d;" horiz-adv-x="653" 
d="M64 550c63 117 171 175 322 175c97 0 168 -27 213 -81c44 -53 58 -123 43 -211l-31 -181c-32 -178 -148 -267 -348 -267c-156 0 -245 58 -268 175c-5 27 7 45 36 54l105 35c15 5 27 6 34 2s12 -14 15 -29c8 -43 42 -65 101 -65c74 0 116 32 126 96l4 21h-166
c-29 0 -40 14 -35 43l15 84c5 29 21 43 50 43h166l3 17c11 61 -20 92 -93 92c-59 0 -101 -22 -126 -65c-14 -26 -34 -35 -59 -27l-90 35c-26 9 -32 27 -17 54z" />
    <glyph glyph-name="uni042E" unicode="&#x42e;" horiz-adv-x="969" 
d="M363 447l4 23c13 80 51 143 112 188s137 67 230 67c95 0 164 -27 208 -80c43 -52 56 -122 41 -210l-31 -181c-15 -87 -53 -153 -112 -199c-59 -47 -137 -70 -233 -70c-93 0 -162 24 -208 73c-45 48 -60 113 -46 194l4 20h-89l-41 -230c-5 -28 -21 -42 -50 -42h-113
c-16 0 -26 3 -31 9c-5 7 -7 18 -4 33l111 626c5 28 21 42 49 42h113c29 0 41 -14 36 -42l-39 -221h89zM728 255l36 200c10 63 -18 95 -85 95c-68 0 -107 -32 -117 -95l-36 -200c-11 -63 17 -95 84 -95s107 32 118 95z" />
    <glyph glyph-name="uni0430" unicode="&#x430;" 
d="M12 216l19 108c25 141 118 211 280 211c83 0 147 -11 192 -34c15 -8 25 -16 28 -23s3 -18 0 -35l-68 -387c-4 -24 -19 -40 -46 -47c-66 -16 -138 -24 -217 -24c-75 0 -128 22 -161 65c-31 40 -40 95 -27 166zM327 369c-10 3 -23 4 -39 4c-41 0 -65 -18 -72 -55l-22 -122
c-5 -33 11 -50 48 -50c21 0 39 2 52 5l37 211c1 4 0 6 -4 7z" />
    <glyph glyph-name="uni0431" unicode="&#x431;" horiz-adv-x="559" 
d="M403 729h32c29 0 54 4 74 12c28 12 44 3 49 -26l13 -73c3 -25 -8 -43 -33 -55c-24 -11 -64 -16 -120 -16h-41c-76 0 -119 -28 -128 -85l-2 -9c30 19 63 28 98 28c68 0 118 -19 151 -58s43 -95 31 -168l-14 -83c-26 -141 -120 -211 -282 -211c-80 0 -139 21 -176 63
c-36 40 -48 95 -36 164l33 193c21 117 58 201 110 250c53 49 134 74 241 74zM327 199l16 92c6 36 -11 54 -52 54c-42 0 -66 -18 -72 -54l-16 -92c-7 -35 10 -53 51 -53s66 18 73 53z" />
    <glyph glyph-name="uni0432" unicode="&#x432;" horiz-adv-x="541" 
d="M126 507c53 19 117 28 192 28c69 0 120 -16 155 -48c33 -30 45 -69 36 -116c-8 -44 -36 -77 -84 -100c57 -20 81 -59 71 -117c-17 -112 -108 -168 -272 -169c-85 0 -149 9 -191 27c-29 12 -41 35 -35 69l62 351c7 37 29 62 66 75zM327 361c5 25 -9 38 -43 38
c-19 0 -34 -2 -44 -5c-3 -1 -5 -3 -5 -6l-12 -65h48c33 0 51 13 56 38zM310 164c4 28 -14 42 -55 42h-52l-15 -78c0 -2 1 -3 3 -4c11 -3 26 -4 47 -4c43 0 67 15 72 44z" />
    <glyph glyph-name="uni0433" unicode="&#x433;" horiz-adv-x="516" 
d="M61 428c51 71 134 107 247 107c70 0 123 -16 158 -47c34 -31 46 -71 37 -122c-10 -57 -35 -97 -76 -120c-33 -19 -86 -31 -159 -36c-65 -4 -100 -19 -105 -44c-3 -21 19 -31 66 -31c40 0 69 11 88 33c17 18 36 23 58 14l68 -26c25 -10 30 -28 15 -53
c-45 -79 -130 -118 -256 -118c-75 0 -131 16 -168 49c-36 32 -49 74 -39 125s33 89 70 113c38 25 98 41 179 48c57 5 87 17 91 36c3 19 -18 29 -63 29c-33 -1 -59 -10 -79 -29c-17 -17 -36 -21 -57 -12l-64 29c-26 11 -30 30 -11 55z" />
    <glyph glyph-name="uni0434" unicode="&#x434;" horiz-adv-x="559" 
d="M149 633l13 70c3 27 19 41 47 41c115 0 194 -10 236 -31c52 -27 85 -67 98 -121c12 -49 10 -120 -6 -213l-32 -182c-25 -141 -119 -212 -284 -212c-81 0 -139 20 -176 59c-36 39 -48 92 -35 161l16 95c11 63 40 111 87 145c44 32 100 48 168 48c47 0 83 -11 110 -33
c7 55 -11 92 -54 113c-27 13 -78 19 -153 19c-16 0 -26 3 -31 9s-7 17 -4 32zM318 199l17 92c5 36 -12 54 -52 54c-43 0 -67 -18 -72 -54l-17 -92c-6 -35 12 -53 53 -53s65 18 71 53z" />
    <glyph glyph-name="uni0435" unicode="&#x435;" horiz-adv-x="542" 
d="M11 220l19 104c12 67 43 119 92 156s114 55 193 55c75 0 131 -16 170 -47c39 -33 55 -79 47 -138c-7 -46 -30 -82 -69 -107s-90 -38 -154 -38c-34 0 -72 2 -113 6l-4 -21c-7 -43 11 -64 54 -64c35 0 64 12 87 36c17 19 37 23 58 10l65 -33c24 -13 27 -32 9 -58
c-47 -64 -128 -96 -243 -96c-85 0 -146 23 -182 68c-32 41 -42 97 -29 167zM350 362c4 27 -14 41 -55 41c-42 0 -67 -21 -76 -62l-3 -11c25 -3 48 -5 69 -5c39 0 61 12 65 37z" />
    <glyph glyph-name="uni0451" unicode="&#x451;" horiz-adv-x="542" 
d="M240 733h8c27 0 46 -5 55 -15c9 -11 11 -29 6 -56l-2 -13c-5 -27 -14 -45 -26 -56c-13 -11 -33 -16 -60 -16h-8c-27 0 -45 5 -54 16s-11 29 -6 56l2 13c5 27 14 46 26 56s32 15 59 15zM456 733h7c27 0 45 -5 54 -15s11 -29 6 -56l-2 -13c-5 -27 -14 -45 -26 -56
s-32 -16 -59 -16h-7c-28 0 -46 5 -55 16s-12 29 -7 56l2 13c5 27 13 45 26 56c13 10 33 15 61 15zM11 220l19 104c12 67 43 119 92 156s114 55 193 55c75 0 131 -16 170 -47c39 -33 55 -79 47 -138c-7 -46 -30 -82 -69 -107s-90 -38 -154 -38c-34 0 -72 2 -113 6l-4 -21
c-7 -43 11 -64 54 -64c35 0 64 12 87 36c17 19 37 23 58 10l65 -33c24 -13 27 -32 9 -58c-47 -64 -128 -96 -243 -96c-85 0 -146 23 -182 68c-32 41 -42 97 -29 167zM350 362c4 27 -14 41 -55 41c-42 0 -67 -21 -76 -62l-3 -11c25 -3 48 -5 69 -5c39 0 61 12 65 37z" />
    <glyph glyph-name="uni0436" unicode="&#x436;" horiz-adv-x="790" 
d="M379 520h109c25 0 36 -13 31 -39l-24 -141h15l90 144c15 24 41 36 77 36h92c37 0 44 -16 22 -49l-135 -203c7 -7 14 -19 19 -36l50 -181c10 -34 -3 -51 -40 -51h-92c-23 0 -39 2 -48 7s-15 16 -18 31l-18 120c-4 17 -15 27 -32 29c-1 1 -4 1 -9 1l-27 -149
c-5 -26 -20 -39 -45 -39h-109c-25 0 -36 13 -31 39l26 149c-3 0 -6 0 -8 -1c-19 -1 -33 -10 -43 -29l-61 -120c-13 -25 -39 -38 -79 -38h-92c-21 0 -32 4 -35 12s2 21 13 39l114 185c12 18 22 30 31 37l-64 198c-10 33 4 49 41 49h88c37 0 58 -12 65 -36l42 -144h15l25 141
c5 26 20 39 45 39z" />
    <glyph glyph-name="uni0437" unicode="&#x437;" horiz-adv-x="520" 
d="M42 403c46 88 131 132 256 132c71 0 124 -14 159 -43s49 -68 40 -119c-7 -49 -33 -84 -77 -104v-3c43 -23 59 -64 49 -122c-17 -106 -101 -159 -250 -159c-135 0 -214 46 -236 138c-7 29 6 47 37 55l77 22c26 9 42 2 47 -21c8 -33 35 -50 82 -50c41 0 64 12 68 37
c5 21 -7 31 -34 31h-65c-23 0 -33 11 -28 34l11 61c3 23 17 34 40 34h62c25 0 40 10 45 30c3 23 -12 35 -47 35c-48 0 -80 -15 -97 -44c-13 -22 -30 -29 -53 -22l-69 23c-26 9 -32 27 -17 55z" />
    <glyph glyph-name="uni0438" unicode="&#x438;" horiz-adv-x="556" 
d="M407 520h109c26 0 37 -13 32 -38l-71 -400c-5 -29 -23 -49 -52 -60c-67 -25 -140 -37 -219 -37c-75 0 -128 21 -159 62c-30 39 -39 93 -26 164l47 271c5 25 20 38 46 38h109c26 0 37 -13 32 -38l-48 -274c-7 -37 10 -55 49 -55c14 0 28 1 41 4c5 1 8 4 9 9l55 316
c5 25 20 38 46 38z" />
    <glyph glyph-name="uni0439" unicode="&#x439;" horiz-adv-x="556" 
d="M520 669c-41 -74 -109 -111 -204 -111c-97 0 -152 37 -167 111c-4 17 4 30 24 37l72 26c19 6 31 2 38 -13c9 -23 26 -34 53 -34c25 0 46 12 63 35c11 14 25 18 40 13l69 -27c17 -7 21 -20 12 -37zM407 520h109c26 0 37 -13 32 -38l-71 -400c-5 -29 -23 -49 -52 -60
c-67 -25 -140 -37 -219 -37c-75 0 -128 21 -159 62c-30 39 -39 93 -26 164l47 271c5 25 20 38 46 38h109c26 0 37 -13 32 -38l-48 -274c-7 -37 10 -55 49 -55c14 0 28 1 41 4c5 1 8 4 9 9l55 316c5 25 20 38 46 38z" />
    <glyph glyph-name="uni043A" unicode="&#x43a;" horiz-adv-x="551" 
d="M431 231l57 -180c10 -34 -4 -51 -41 -51h-89c-23 0 -38 2 -46 7s-14 15 -18 31l-28 120c-5 21 -18 31 -37 31h-21l-27 -150c-5 -26 -20 -39 -45 -39h-109c-15 0 -24 3 -29 9c-5 5 -6 15 -3 30l78 442c5 26 20 39 46 39h109c25 0 36 -13 31 -39l-24 -141h20l110 144
c17 24 43 36 78 36h89c40 0 47 -17 20 -52l-147 -195c11 -8 20 -22 26 -42z" />
    <glyph glyph-name="uni043B" unicode="&#x43b;" horiz-adv-x="566" 
d="M176 520h345c25 0 36 -13 31 -38l-76 -444c-5 -25 -20 -38 -45 -38h-110c-25 0 -36 13 -31 38l56 318h-69l-13 -56c-22 -108 -53 -186 -93 -234c-25 -29 -65 -56 -120 -79c-21 -8 -35 -1 -44 20l-39 94c-7 17 1 32 22 43c25 13 43 28 54 44c22 29 40 78 55 146l32 148
c5 25 20 38 45 38z" />
    <glyph glyph-name="uni043C" unicode="&#x43c;" horiz-adv-x="663" 
d="M527 520h92c17 0 27 -3 32 -9c4 -6 5 -17 2 -32l-78 -441c-5 -25 -20 -38 -45 -38h-90c-27 0 -37 13 -32 39l14 78c8 48 29 109 63 182h-7c-21 -42 -39 -75 -56 -98l-52 -73c-13 -19 -31 -29 -52 -29h-47c-21 0 -35 10 -42 30l-26 72c-8 24 -15 57 -20 98h-7
c7 -83 6 -144 -1 -183l-14 -77c-5 -26 -20 -39 -47 -39h-88c-15 0 -24 3 -29 8c-4 5 -5 15 -2 30l77 441c5 27 22 41 50 41h85c25 0 42 -10 50 -31l69 -203l142 202c15 21 34 32 59 32z" />
    <glyph glyph-name="uni043D" unicode="&#x43d;" horiz-adv-x="558" 
d="M407 520h110c25 0 36 -13 31 -38l-78 -444c-5 -25 -20 -38 -45 -38h-110c-25 0 -36 13 -31 38l25 144h-103l-26 -144c-5 -25 -20 -38 -45 -38h-110c-25 0 -36 13 -31 38l78 444c5 25 20 38 45 38h110c25 0 36 -13 31 -38l-24 -136h104l24 136c5 25 20 38 45 38z" />
    <glyph glyph-name="uni043E" unicode="&#x43e;" horiz-adv-x="550" 
d="M11 211l19 112c26 141 121 212 285 212c80 0 138 -21 175 -62c35 -40 47 -95 35 -164l-19 -112c-26 -141 -121 -212 -286 -212c-79 0 -137 21 -174 62c-35 40 -47 95 -35 164zM320 199l21 122c7 36 -10 54 -53 54c-41 0 -65 -18 -72 -54l-21 -122c-7 -35 10 -53 52 -53
c41 0 66 18 73 53z" />
    <glyph glyph-name="uni043F" unicode="&#x43f;" horiz-adv-x="556" 
d="M115 498c67 25 140 37 219 37c75 0 129 -20 160 -59c30 -37 39 -91 27 -161l-49 -277c-5 -25 -20 -38 -45 -38h-110c-25 0 -36 13 -31 38l48 274c7 37 -10 55 -50 55c-17 0 -32 -1 -45 -4c-1 -1 -3 -2 -4 -4l-56 -321c-5 -25 -20 -38 -46 -38h-109c-26 0 -37 13 -32 38
l71 400c5 29 23 49 52 60z" />
    <glyph glyph-name="uni0440" unicode="&#x440;" horiz-adv-x="547" 
d="M115 501c61 23 133 34 214 34c77 0 131 -21 163 -62c31 -39 40 -94 27 -164l-19 -109c-25 -143 -115 -215 -270 -215c-8 0 -28 2 -60 5l-30 -171c-5 -25 -20 -38 -45 -38h-110c-26 0 -36 13 -31 38l110 624c5 27 22 47 51 58zM314 201l22 123c6 33 -10 49 -48 49
c-20 0 -36 -2 -47 -5c-2 -1 -4 -3 -5 -6l-37 -211c13 -3 28 -5 43 -5c41 0 65 18 72 55z" />
    <glyph glyph-name="uni0441" unicode="&#x441;" horiz-adv-x="517" 
d="M12 214l19 110c25 141 118 211 279 211c116 0 182 -47 199 -140c5 -27 -7 -44 -35 -53l-89 -30c-16 -5 -28 -6 -35 -2s-12 14 -15 29c-6 27 -24 40 -55 40c-35 0 -57 -18 -64 -55l-22 -129c-7 -36 8 -54 43 -54c28 0 50 14 67 41c13 25 33 34 59 25l91 -29
c27 -9 33 -27 16 -56c-54 -91 -140 -137 -259 -137c-80 0 -137 21 -170 63c-32 39 -42 95 -29 166z" />
    <glyph glyph-name="uni0442" unicode="&#x442;" horiz-adv-x="814" 
d="M443 508c53 18 105 27 158 27c145 0 204 -73 178 -220l-49 -277c-5 -25 -20 -38 -45 -38h-110c-25 0 -36 13 -31 38l48 276c7 35 -7 53 -41 53c-13 0 -28 -2 -43 -5c0 -13 -2 -28 -5 -46l-49 -278c-5 -25 -20 -38 -45 -38h-110c-25 0 -36 13 -31 38l49 276
c5 35 -9 53 -42 53c-11 0 -23 -1 -35 -3c-2 -1 -4 -3 -5 -6l-56 -320c-5 -25 -20 -38 -46 -38h-109c-26 0 -37 13 -32 38l71 400c5 29 23 49 52 60c67 25 137 37 210 37c50 0 89 -9 118 -27z" />
    <glyph glyph-name="uni0443" unicode="&#x443;" horiz-adv-x="558" 
d="M404 520h110c25 0 36 -13 31 -38l-85 -487c-27 -150 -121 -225 -280 -225c-102 0 -168 34 -199 101c-11 25 -2 45 28 58l85 39c24 11 42 6 53 -13c13 -22 32 -33 58 -33c37 0 59 19 66 58l6 39c-18 -3 -41 -4 -68 -4c-75 0 -128 21 -159 64c-30 40 -39 95 -26 166l42 237
c5 25 20 38 45 38h110c25 0 36 -13 31 -38l-43 -244c-7 -37 10 -55 51 -55c18 0 34 1 47 4l52 295c5 25 20 38 45 38z" />
    <glyph glyph-name="uni0444" unicode="&#x444;" horiz-adv-x="760" 
d="M544 701l-30 -167c5 1 14 1 25 1c78 0 134 -23 167 -68c31 -44 40 -105 25 -183l-13 -73c-27 -151 -118 -226 -275 -226c-11 0 -20 0 -25 1l-30 -168c-5 -25 -20 -38 -46 -38h-109c-26 0 -37 13 -32 38l30 168c-5 -1 -14 -1 -25 -1c-78 0 -133 23 -166 68
c-32 43 -41 103 -26 182l13 73c27 151 118 227 275 227c11 0 20 0 25 -1l30 167c5 26 20 39 45 39h110c26 0 37 -13 32 -39zM212 307l-16 -94c-8 -45 7 -67 46 -67l22 1l39 225c-4 1 -11 1 -20 1c-40 0 -64 -22 -71 -66zM533 213l16 94c9 44 -7 66 -46 66
c-10 0 -17 0 -22 -1l-40 -225l22 -1c39 0 63 22 70 67z" />
    <glyph glyph-name="uni0445" unicode="&#x445;" horiz-adv-x="552" 
d="M433 520h108c38 0 44 -15 18 -45l-172 -207l105 -223c15 -30 3 -45 -36 -45h-96c-22 0 -36 2 -43 5c-8 4 -15 13 -21 28l-44 114l-81 -114c-15 -22 -40 -33 -76 -33h-104c-22 0 -34 4 -37 11s3 18 16 34l185 222l-102 208c-15 30 -2 45 38 45h93c21 0 36 -2 44 -6
c9 -4 16 -13 21 -27l39 -97l73 97c15 22 39 33 72 33z" />
    <glyph glyph-name="uni0447" unicode="&#x447;" horiz-adv-x="528" 
d="M29 355l22 127c5 25 20 38 45 38h110c25 0 36 -13 31 -38l-22 -125c-5 -32 10 -48 43 -48c19 0 33 2 44 7l29 166c5 25 20 38 45 38h110c25 0 36 -13 31 -38l-78 -444c-5 -25 -20 -38 -45 -38h-110c-25 0 -36 13 -31 38l20 112c-21 -3 -48 -5 -80 -5
c-66 0 -113 19 -141 58c-26 37 -34 87 -23 152z" />
    <glyph glyph-name="uni0446" unicode="&#x446;" horiz-adv-x="606" 
d="M114 520h109c26 0 37 -13 32 -38l-48 -274c-7 -37 10 -55 49 -55c17 0 33 2 48 5l57 324c5 25 20 38 46 38h109c26 0 37 -13 32 -38l-57 -318c55 4 77 -26 65 -90l-29 -175c-5 -25 -20 -38 -45 -38h-104c-26 0 -37 13 -32 38l14 81c3 17 -4 23 -23 20
c-42 -10 -87 -15 -135 -15c-75 0 -128 22 -158 65c-28 39 -36 95 -23 166l47 266c5 25 20 38 46 38z" />
    <glyph glyph-name="uni0448" unicode="&#x448;" horiz-adv-x="814" 
d="M665 520h109c26 0 37 -13 32 -38l-71 -400c-5 -29 -23 -49 -52 -60c-67 -25 -137 -37 -210 -37c-49 0 -89 9 -118 26c-51 -17 -103 -26 -157 -26c-74 0 -126 22 -155 66c-27 39 -35 95 -22 167l47 264c5 25 20 38 46 38h109c26 0 37 -13 32 -38l-49 -276
c-6 -35 8 -53 42 -53c13 0 27 2 42 5c0 13 2 28 5 46l49 278c5 25 20 38 45 38h110c25 0 36 -13 31 -38l-48 -276c-7 -35 7 -53 41 -53c11 0 22 1 34 3c4 0 6 3 6 8l56 318c5 25 20 38 46 38z" />
    <glyph glyph-name="uni0449" unicode="&#x449;" horiz-adv-x="864" 
d="M21 218l47 264c5 25 20 38 46 38h109c26 0 37 -13 32 -38l-49 -276c-6 -35 8 -53 42 -53c13 0 27 2 42 5c0 13 2 28 5 46l49 278c5 25 20 38 45 38h110c25 0 36 -13 31 -38l-48 -276c-7 -35 7 -53 41 -53c15 0 28 2 39 5l57 324c5 25 20 38 46 38h109c26 0 37 -13 32 -38
l-57 -318c55 4 77 -26 65 -90l-29 -175c-5 -25 -20 -38 -45 -38h-104c-26 0 -37 13 -32 38l14 81c3 17 -4 23 -23 19c-49 -9 -89 -14 -122 -14c-49 0 -89 9 -118 26c-51 -17 -103 -26 -157 -26c-74 0 -126 22 -155 66c-27 39 -35 95 -22 167z" />
    <glyph glyph-name="uni044F" unicode="&#x44f;" horiz-adv-x="547" 
d="M260 520h246c26 0 37 -13 32 -38l-78 -444c-5 -25 -20 -38 -45 -38h-110c-25 0 -36 13 -31 38l20 117h-41l-74 -118c-15 -25 -42 -37 -80 -37h-95c-22 0 -34 4 -37 13c-3 7 2 20 15 38l102 141c-41 33 -56 85 -44 154c21 116 94 174 220 174zM333 376h-62
c-25 0 -40 -13 -45 -39c-5 -25 5 -38 31 -38h63z" />
    <glyph glyph-name="uni044C" unicode="&#x44c;" horiz-adv-x="517" 
d="M252 482l-18 -100c27 4 50 6 69 6c60 0 106 -15 138 -45c39 -36 52 -89 39 -160c-23 -132 -109 -198 -256 -198c-76 0 -141 11 -196 34c-15 7 -25 15 -29 22s-5 19 -2 36l72 405c5 25 20 38 46 38h105c26 0 37 -13 32 -38zM194 146c10 -3 24 -5 43 -5c37 0 59 17 65 52
c5 35 -12 52 -52 52c-13 0 -28 -2 -43 -5l-16 -88c0 -3 1 -5 3 -6z" />
    <glyph glyph-name="uni044A" unicode="&#x44a;" horiz-adv-x="614" 
d="M350 482l-17 -97c27 4 50 6 69 6c60 -1 106 -16 138 -46c38 -35 51 -89 38 -160c-23 -133 -108 -200 -256 -200c-77 0 -142 11 -195 34c-15 7 -25 15 -29 22s-5 19 -2 36l50 286h-89c-26 0 -37 13 -32 38l15 81c5 25 20 38 45 38h234c25 0 36 -13 31 -38zM293 146
c10 -3 24 -5 42 -5c37 0 59 17 65 51c7 35 -10 53 -51 53c-13 0 -27 -2 -44 -5l-15 -88c-1 -3 0 -5 3 -6z" />
    <glyph glyph-name="uni044B" unicode="&#x44b;" horiz-adv-x="760" 
d="M252 482l-18 -100c27 4 50 6 69 6c60 0 106 -15 138 -45c39 -36 52 -89 39 -160c-23 -132 -109 -198 -256 -198c-76 0 -141 11 -196 34c-15 7 -25 15 -29 22s-5 19 -2 36l72 405c5 25 20 38 46 38h105c26 0 37 -13 32 -38zM607 520h110c25 0 36 -13 31 -38l-78 -444
c-5 -25 -20 -38 -45 -38h-110c-25 0 -36 13 -31 38l78 444c5 25 20 38 45 38zM194 146c10 -3 24 -5 43 -5c37 0 59 17 65 52c5 35 -12 52 -52 52c-13 0 -28 -2 -43 -5l-16 -88c0 -3 1 -5 3 -6z" />
    <glyph glyph-name="uni044D" unicode="&#x44d;" horiz-adv-x="520" 
d="M36 402c47 89 129 133 246 133c83 0 142 -21 178 -63c34 -40 45 -95 33 -165l-19 -109c-25 -142 -114 -213 -268 -213c-125 0 -198 46 -219 138c-7 27 5 46 36 56l77 22c27 7 43 1 48 -19c13 -35 35 -52 67 -52c44 0 69 19 75 57l2 8l-97 1c-23 0 -33 11 -28 34l11 64
c3 23 17 34 40 34h97l1 7c7 37 -11 56 -56 56c-33 0 -60 -16 -82 -47c-15 -22 -33 -29 -56 -20l-69 23c-26 9 -32 28 -17 55z" />
    <glyph glyph-name="uni044E" unicode="&#x44e;" horiz-adv-x="788" 
d="M280 346l2 9c29 120 120 180 272 180c79 0 137 -21 173 -63c35 -40 46 -95 34 -165l-19 -113c-25 -139 -118 -209 -280 -209c-151 0 -221 64 -211 191v6h-45l-26 -144c-5 -25 -20 -38 -45 -38h-110c-25 0 -36 13 -31 38l78 444c5 25 20 38 45 38h110c25 0 36 -13 31 -38
l-24 -136h46zM556 199l22 122c6 36 -11 54 -51 54c-39 0 -62 -18 -69 -54l-21 -122c-7 -35 9 -53 49 -53c41 0 64 18 70 53z" />
    <glyph glyph-name="increment" unicode="&#x2206;" horiz-adv-x="680" 
d="M375 710h73c25 0 41 -11 46 -33l119 -506c7 -36 9 -62 6 -79l-8 -50c-5 -28 -22 -42 -50 -42h-549c-28 0 -39 14 -34 42l8 50c3 18 15 44 36 79l296 506c13 22 32 33 57 33zM427 157l-38 209c-11 61 -14 112 -8 152h-10c-9 -43 -30 -93 -63 -152l-111 -209h230z" />
    <glyph glyph-name="Omega" unicode="&#x2126;" horiz-adv-x="814" 
d="M61 394c17 97 64 176 143 238c79 61 171 92 276 92c106 0 187 -31 244 -93s76 -142 59 -241c-17 -97 -65 -167 -146 -212h76c29 0 40 -14 35 -43l-17 -93c-5 -28 -21 -42 -50 -42h-269c-25 0 -36 13 -31 38l14 81c2 13 12 25 29 35c93 48 147 118 164 210
c9 56 2 101 -21 136c-25 37 -64 55 -118 55c-52 0 -97 -18 -134 -55c-35 -35 -58 -81 -68 -136c-17 -97 13 -167 89 -211c14 -9 19 -20 16 -35l-14 -80c-5 -25 -20 -38 -45 -38h-269c-16 0 -26 3 -31 9c-5 7 -7 18 -4 33l17 93c5 29 22 43 50 43h74c-61 56 -84 128 -69 216z
" />
    <glyph glyph-name="mu" unicode="&#xb5;" horiz-adv-x="570" 
d="M416 520h110c25 0 36 -13 31 -38l-70 -400c-5 -22 -19 -40 -43 -55c-48 -28 -102 -42 -163 -42c-39 0 -73 8 -101 23l-33 -190c-5 -25 -20 -38 -46 -38h-109c-26 0 -37 13 -32 38l117 664c5 25 20 38 46 38h109c26 0 37 -13 32 -38l-48 -274c-7 -37 10 -55 50 -55
c13 0 27 1 40 4c5 1 8 4 9 9l56 316c5 25 20 38 45 38z" />
    <glyph glyph-name="pi" unicode="&#x3c0;" horiz-adv-x="677" 
d="M209 520h447c15 0 24 -3 28 -8c5 -5 6 -15 3 -30l-15 -85c-5 -26 -19 -39 -44 -39h-22l-32 -181c-5 -33 -5 -60 2 -81c8 -27 -3 -45 -32 -56l-105 -40c-15 -6 -27 -8 -34 -5c-7 2 -13 10 -16 24c-11 45 -12 94 -3 147l34 192h-99l-57 -320c-5 -25 -20 -38 -45 -38h-110
c-25 0 -36 13 -31 38l56 320c-11 -1 -25 -5 -44 -12c-27 -10 -42 -4 -47 17l-21 78c-6 23 3 39 27 50c50 19 103 29 160 29z" />
    <glyph glyph-name="zero" unicode="0" horiz-adv-x="648" 
d="M31 257l39 219c13 79 49 141 106 184s130 65 221 65c89 0 154 -25 197 -76c41 -49 55 -114 41 -195l-39 -219c-14 -80 -49 -142 -105 -185s-129 -65 -219 -65c-89 0 -156 25 -199 76c-42 49 -56 114 -42 196zM399 238l42 235c9 51 -16 77 -73 77c-58 0 -92 -26 -101 -77
l-41 -235c-9 -52 15 -78 73 -78c57 0 91 26 100 78z" />
    <glyph glyph-name="one" unicode="1" horiz-adv-x="446" 
d="M353 710h60c29 0 40 -14 35 -42l-110 -626c-5 -28 -22 -42 -50 -42h-113c-29 0 -40 14 -35 42l74 417l-75 -38c-31 -15 -52 -10 -61 17l-33 85c-7 23 3 43 30 58l216 112c20 11 41 17 62 17z" />
    <glyph glyph-name="two" unicode="2" horiz-adv-x="613" 
d="M82 550c67 117 169 175 306 175c82 0 144 -23 185 -69c39 -43 53 -99 41 -168c-12 -71 -40 -127 -84 -166c-39 -35 -101 -66 -187 -95l-84 -23c-27 -9 -42 -19 -44 -30l-1 -5h288c29 0 40 -14 35 -43l-15 -84c-5 -28 -22 -42 -50 -42h-451c-16 0 -26 3 -31 9
c-5 7 -7 18 -4 33l16 89c11 60 40 109 88 146c28 21 76 46 144 73c62 25 101 42 117 51c35 22 56 50 62 83c7 44 -12 66 -57 66c-38 0 -71 -22 -99 -66c-10 -16 -19 -26 -26 -29c-8 -3 -19 -3 -33 2l-99 39c-25 11 -31 29 -17 54z" />
    <glyph glyph-name="three" unicode="3" horiz-adv-x="626" 
d="M609 512c-11 -60 -45 -107 -102 -140c60 -37 83 -94 69 -172c-25 -143 -126 -215 -305 -215c-155 0 -244 58 -267 175c-5 27 7 45 36 54l105 35c15 5 27 6 34 2s12 -14 15 -29c8 -43 38 -65 89 -65c53 0 82 20 89 59s-11 59 -55 59h-61c-29 0 -40 14 -35 42l14 83
c5 29 22 43 50 43h44c45 0 71 18 78 55s-13 55 -58 55c-47 0 -83 -20 -106 -60c-15 -27 -34 -36 -59 -27l-92 35c-25 10 -30 28 -17 54c62 113 169 170 321 170c78 0 136 -20 175 -61c37 -39 49 -89 38 -152z" />
    <glyph glyph-name="four" unicode="4" horiz-adv-x="657" 
d="M546 295h51c28 0 39 -14 34 -42l-12 -70c-5 -28 -21 -42 -50 -42h-50l-18 -99c-5 -28 -21 -42 -50 -42h-102c-29 0 -40 14 -35 42l17 99h-302c-16 0 -26 3 -31 9c-5 7 -7 18 -4 33l11 66c5 29 17 51 34 68l369 363c21 20 44 30 69 30h99c29 0 41 -14 36 -42zM388 464
l-170 -169h141z" />
    <glyph glyph-name="five" unicode="5" horiz-adv-x="614" 
d="M218 711h366c29 0 40 -14 35 -43l-16 -90c-5 -28 -22 -42 -50 -42h-253l-19 -70h69c88 0 151 -24 189 -71c35 -43 46 -100 33 -171s-45 -128 -96 -170c-55 -46 -126 -69 -213 -69c-156 0 -245 55 -266 165c-5 25 6 43 35 54l114 40c15 5 25 6 32 3s13 -13 16 -28
c9 -37 39 -56 88 -56s77 25 86 74c8 45 -14 68 -67 68h-209c-32 0 -44 16 -35 49l83 297c11 40 37 60 78 60z" />
    <glyph glyph-name="six" unicode="6" horiz-adv-x="651" 
d="M263 457l-3 -14c27 5 62 8 106 8c185 0 264 -78 237 -235c-27 -154 -137 -231 -330 -231c-93 0 -161 25 -203 76c-41 49 -53 117 -38 205l35 201c30 172 142 258 335 258c145 0 229 -53 252 -159c5 -26 -7 -44 -36 -54l-99 -36c-15 -5 -25 -5 -32 0c-5 3 -11 13 -18 28
c-13 31 -43 46 -90 46c-66 0 -105 -31 -116 -93zM230 270l-7 -38c-9 -52 18 -78 79 -78s96 22 105 65c7 42 -20 63 -82 63c-39 0 -71 -4 -95 -12z" />
    <glyph glyph-name="seven" unicode="7" horiz-adv-x="568" 
d="M129 710h453c29 0 41 -14 36 -42l-12 -68c-5 -22 -12 -42 -23 -59l-326 -504c-10 -15 -20 -25 -30 -30c-11 -5 -29 -7 -55 -7h-111c-26 0 -30 14 -13 42l317 493h-266c-29 0 -40 14 -35 43l16 90c5 28 21 42 49 42z" />
    <glyph glyph-name="eight" unicode="8" horiz-adv-x="647" 
d="M93 520c12 67 45 118 99 153c53 35 121 52 206 52c87 0 151 -19 191 -56c39 -37 53 -88 41 -153c-10 -56 -42 -104 -95 -143c56 -37 77 -95 63 -173c-24 -143 -134 -215 -330 -215c-101 0 -172 20 -215 59c-39 35 -52 86 -41 151c13 70 55 125 128 166
c-44 35 -60 88 -47 159zM435 507c7 35 -15 53 -65 53c-46 0 -73 -18 -80 -53c-5 -28 16 -49 61 -63l28 -8c32 19 51 42 56 71zM395 206c3 21 -5 36 -26 47c-8 5 -39 15 -94 32c-37 -22 -58 -48 -63 -77c-7 -40 20 -60 83 -60c60 0 93 19 100 58z" />
    <glyph glyph-name="nine" unicode="9" horiz-adv-x="651" 
d="M404 253l3 14c-27 -5 -62 -8 -105 -8c-186 0 -265 78 -238 235c28 154 138 231 330 231c93 0 161 -25 203 -76c41 -49 53 -117 38 -205l-35 -201c-30 -172 -141 -258 -334 -258c-147 0 -231 53 -252 159c-5 26 7 44 36 54l99 36c14 5 25 5 32 0c5 -3 11 -13 18 -28
c12 -31 42 -46 89 -46c67 0 105 31 116 93zM437 440l7 38c9 52 -17 78 -79 78s-97 -22 -104 -65c-8 -42 19 -63 81 -63c39 0 71 4 95 12z" />
    <glyph glyph-name="zero.denom" horiz-adv-x="385" 
d="M-1 149l20 113c17 94 80 141 190 141c52 0 91 -15 116 -44c25 -28 33 -65 25 -111l-20 -113c-17 -95 -80 -143 -189 -143c-53 0 -92 15 -117 44s-33 66 -25 113zM193 139l21 117c3 17 -5 26 -24 26s-30 -9 -33 -26l-21 -117c-4 -18 4 -27 24 -27c18 0 29 9 33 27z" />
    <glyph glyph-name="one.denom" horiz-adv-x="294" 
d="M194 395h28c19 0 32 -4 38 -11s7 -20 4 -37l-54 -307c-5 -27 -21 -40 -50 -40h-53c-16 0 -27 3 -32 9s-6 16 -3 31l34 191l-29 -15c-27 -14 -46 -9 -56 14l-17 40c-9 23 0 40 25 53l116 60c13 8 30 12 49 12z" />
    <glyph glyph-name="two.denom" horiz-adv-x="373" 
d="M30 308c37 63 97 95 179 95c47 0 83 -13 108 -38c23 -23 32 -53 26 -90c-9 -71 -48 -116 -117 -135l-46 -13c-15 -2 -22 -5 -23 -10l-1 -1h117c25 0 35 -12 30 -35l-9 -47c-3 -23 -17 -34 -40 -34h-247c-23 0 -33 11 -30 34l7 33c7 38 18 66 34 85c17 20 45 36 83 49
l57 18c25 8 39 22 42 41c4 15 -2 22 -18 22c-15 0 -28 -7 -39 -22c-10 -14 -18 -23 -24 -26c-7 -4 -17 -3 -30 2l-47 18c-23 9 -27 27 -12 54z" />
    <glyph glyph-name="three.denom" horiz-adv-x="380" 
d="M24 310c34 62 95 93 182 93c48 0 84 -11 109 -33c24 -22 33 -51 27 -88c-5 -33 -23 -58 -53 -77c31 -21 42 -53 34 -96c-14 -78 -75 -117 -182 -117c-96 0 -149 32 -158 95c-4 24 4 39 24 46l47 15c15 5 27 6 34 3c6 -3 11 -11 15 -24c5 -17 22 -26 49 -26
c23 0 35 7 36 20c4 15 -5 23 -26 23h-28c-11 0 -19 2 -22 6c-3 3 -3 11 -1 23l10 50c2 13 5 21 9 25c5 4 13 6 26 6h20c20 0 31 7 34 21c3 15 -6 22 -26 22c-28 0 -48 -9 -61 -28c-15 -23 -33 -29 -55 -19l-34 16c-18 9 -21 24 -10 44z" />
    <glyph glyph-name="four.denom" horiz-adv-x="397" 
d="M310 176h11c14 0 23 -2 26 -7c3 -4 4 -12 2 -23l-8 -46c-3 -13 -6 -21 -10 -24c-5 -5 -15 -7 -29 -7h-11l-6 -35c-3 -23 -16 -34 -38 -34h-65c-20 0 -28 11 -25 34l6 35h-159c-24 0 -34 12 -29 35l4 30c4 18 11 33 22 44l194 192c17 17 38 25 63 25h50c16 0 26 -3 31 -8
s6 -16 3 -32zM194 242l-67 -66h55z" />
    <glyph glyph-name="five.denom" horiz-adv-x="375" 
d="M109 395h215c20 0 28 -10 25 -29l-8 -45c-3 -19 -15 -29 -35 -29h-139l-7 -26h31c51 0 88 -12 111 -37c21 -23 28 -55 21 -96c-7 -43 -26 -76 -57 -101c-33 -27 -75 -40 -126 -40c-87 0 -138 31 -154 92c-7 25 2 41 26 49l51 17c15 5 25 7 31 6c7 -2 12 -10 16 -23
c7 -20 21 -30 43 -30c24 0 38 11 42 34c5 23 -6 35 -31 35h-120c-15 0 -24 3 -28 8c-3 5 -3 14 0 28l45 156c6 21 22 31 48 31z" />
    <glyph glyph-name="six.denom" horiz-adv-x="385" 
d="M156 259l-2 -13c16 4 33 6 51 6c101 0 143 -43 128 -129c-16 -87 -80 -131 -192 -131c-55 0 -94 14 -119 41c-24 27 -31 66 -22 115l20 116c17 93 83 139 198 139c72 0 118 -23 137 -70c8 -17 2 -30 -19 -39l-60 -28c-16 -7 -28 -5 -36 6c-11 14 -24 21 -39 21
c-26 0 -41 -11 -45 -34zM136 141l-2 -9c-4 -21 5 -31 26 -31s33 8 35 23c3 15 -6 23 -27 23c-8 0 -19 -2 -32 -6z" />
    <glyph glyph-name="seven.denom" horiz-adv-x="342" 
d="M61 395h249c23 0 32 -11 29 -32l-5 -32c-3 -14 -8 -27 -17 -40l-171 -267c-9 -16 -28 -24 -56 -24h-58c-31 0 -37 15 -17 45l151 233h-128c-13 0 -22 3 -25 8c-3 4 -3 13 -1 27l9 47c3 23 17 35 40 35z" />
    <glyph glyph-name="eight.denom" horiz-adv-x="393" 
d="M30 288c13 77 74 116 183 116c51 0 90 -11 116 -32c25 -20 34 -47 29 -81c-7 -35 -26 -63 -58 -83c33 -23 45 -55 38 -96c-14 -81 -80 -121 -197 -121c-59 0 -102 11 -128 33c-24 19 -33 46 -27 80c6 37 31 68 74 92c-26 25 -36 56 -30 92zM224 283c3 15 -7 22 -28 22
c-20 0 -31 -7 -34 -21c-1 -11 10 -21 35 -30c15 8 24 18 27 29zM199 112c2 12 -10 23 -37 34c-22 -12 -34 -23 -35 -33c-3 -16 9 -24 34 -24c21 0 34 8 38 23z" />
    <glyph glyph-name="nine.denom" horiz-adv-x="386" 
d="M191 136l3 13c-16 -4 -33 -6 -51 -6c-101 0 -143 45 -127 135c15 83 79 125 190 125c113 0 160 -51 143 -152l-21 -116c-17 -95 -81 -143 -193 -143c-79 0 -128 23 -147 68c-7 17 0 31 22 41l59 29c16 7 28 5 36 -6c10 -15 24 -22 42 -22c26 0 41 11 44 34zM212 254l2 9
c4 21 -5 31 -27 31c-21 0 -32 -8 -35 -23s6 -23 27 -23c7 0 18 2 33 6z" />
    <glyph glyph-name="zero.num" horiz-adv-x="386" 
d="M56 469l20 113c17 94 80 141 190 141c52 0 91 -15 116 -44c25 -28 33 -65 25 -111l-20 -113c-17 -95 -80 -143 -189 -143c-53 0 -92 15 -117 44s-33 66 -25 113zM250 459l21 117c3 17 -5 26 -24 26s-30 -9 -33 -26l-21 -117c-4 -18 4 -27 24 -27c18 0 29 9 33 27z" />
    <glyph glyph-name="one.num" horiz-adv-x="294" 
d="M249 715h28c19 0 32 -4 38 -11s7 -20 4 -37l-54 -307c-5 -27 -21 -40 -50 -40h-54c-16 0 -26 3 -31 9s-6 16 -3 31l33 191l-29 -15c-27 -14 -45 -9 -55 14l-17 40c-9 22 -1 40 25 53l116 60c13 8 30 12 49 12z" />
    <glyph glyph-name="two.num" horiz-adv-x="374" 
d="M87 628c37 63 96 95 178 95c47 0 83 -13 108 -38c23 -23 32 -53 27 -90c-11 -71 -50 -116 -118 -135l-46 -13c-15 -2 -22 -5 -23 -10v-1h116c25 0 35 -12 30 -35l-8 -47c-3 -23 -17 -34 -40 -34h-247c-23 0 -33 11 -30 34l6 33c7 38 18 66 34 85c17 20 45 36 84 49l56 18
c25 9 40 22 43 41c3 15 -4 22 -19 22s-27 -7 -38 -22c-11 -14 -19 -23 -24 -26c-7 -4 -18 -3 -31 2l-46 18c-23 9 -27 27 -12 54z" />
    <glyph glyph-name="three.num" horiz-adv-x="380" 
d="M81 630c34 62 95 93 183 93c48 0 84 -11 109 -33c24 -22 33 -51 26 -88c-5 -33 -23 -58 -52 -77c31 -21 42 -53 34 -96c-14 -78 -75 -117 -183 -117c-96 0 -149 32 -158 95c-3 24 5 39 25 46l47 15c15 5 26 6 33 3s12 -11 15 -24c5 -17 22 -26 49 -26c23 0 35 7 37 20
c3 15 -6 23 -26 23h-28c-11 0 -19 2 -22 6c-3 3 -3 11 -1 23l9 50c2 13 5 21 9 25c5 4 14 6 27 6h19c21 0 32 7 35 21c2 15 -7 22 -27 22c-28 0 -48 -9 -60 -28c-15 -23 -33 -29 -55 -19l-35 16c-17 9 -21 24 -10 44z" />
    <glyph glyph-name="four.num" horiz-adv-x="398" 
d="M367 496h11c14 0 23 -2 26 -6s4 -12 2 -23l-8 -47c-5 -21 -18 -31 -39 -31h-11l-6 -34c-4 -23 -17 -35 -38 -35h-65c-21 0 -29 12 -25 35l6 34h-159c-24 0 -34 12 -29 35l4 31c4 18 11 32 22 43l194 193c17 16 38 24 63 24h50c16 0 26 -3 31 -8s6 -16 3 -31zM251 562
l-67 -66h55z" />
    <glyph glyph-name="five.num" horiz-adv-x="375" 
d="M165 715h215c20 0 28 -10 25 -29l-8 -45c-3 -19 -15 -29 -35 -29h-139l-7 -26h31c51 0 88 -12 111 -37c21 -23 28 -55 21 -96c-7 -43 -26 -76 -57 -101c-33 -27 -75 -40 -126 -40c-87 0 -138 31 -154 92c-7 25 2 41 26 49l51 17c15 5 25 7 31 6c7 -2 12 -10 16 -23
c7 -20 21 -30 43 -30c24 0 38 11 42 34c5 23 -6 35 -31 35h-120c-15 0 -24 3 -28 8c-3 5 -3 14 0 28l45 156c6 21 22 31 48 31z" />
    <glyph glyph-name="six.num" horiz-adv-x="386" 
d="M213 579l-3 -13c16 4 33 6 51 6c101 0 143 -43 128 -129c-15 -87 -79 -131 -191 -131c-55 0 -94 14 -119 41c-24 27 -32 66 -23 115l21 116c16 93 82 139 198 139c72 0 118 -23 137 -70c7 -17 1 -30 -19 -39l-61 -28c-16 -8 -28 -6 -35 6c-11 14 -25 21 -40 21
c-26 0 -41 -11 -44 -34zM192 461l-2 -9c-4 -21 5 -31 26 -31s33 8 36 23s-6 23 -27 23c-7 0 -18 -2 -33 -6z" />
    <glyph glyph-name="seven.num" horiz-adv-x="341" 
d="M118 715h249c23 0 32 -11 29 -32l-6 -32c-3 -15 -8 -29 -17 -41l-170 -266c-11 -16 -30 -24 -57 -24h-57c-31 0 -37 15 -18 45l151 233h-128c-13 0 -21 3 -24 8c-3 4 -3 13 -1 27l8 47c4 23 18 35 41 35z" />
    <glyph glyph-name="eight.num" horiz-adv-x="393" 
d="M87 608c13 77 74 116 183 116c51 0 90 -11 116 -32c25 -20 34 -47 29 -81c-7 -35 -26 -63 -58 -83c33 -23 45 -55 38 -96c-14 -81 -80 -121 -197 -121c-59 0 -102 11 -128 33c-24 19 -33 46 -27 80c6 37 31 68 74 92c-26 25 -36 56 -30 92zM281 603c3 15 -7 22 -28 22
c-20 0 -31 -7 -34 -21c-1 -11 10 -21 35 -30c15 8 24 18 27 29zM256 432c2 12 -10 23 -37 34c-22 -12 -34 -23 -35 -33c-3 -16 9 -24 34 -24c21 0 34 8 38 23z" />
    <glyph glyph-name="nine.num" horiz-adv-x="386" 
d="M248 456l3 13c-16 -4 -33 -6 -51 -6c-101 0 -143 45 -127 135c15 83 79 125 190 125c113 0 160 -51 143 -152l-21 -116c-17 -95 -81 -143 -193 -143c-79 0 -128 23 -147 68c-7 17 0 31 22 41l59 29c16 7 28 5 36 -6c10 -15 24 -22 42 -22c26 0 41 11 44 34zM269 574l2 9
c4 21 -5 31 -27 31c-21 0 -32 -8 -35 -23s6 -23 27 -23c7 0 18 2 33 6z" />
    <glyph glyph-name="fraction" unicode="&#x2044;" horiz-adv-x="264" 
d="M-188 42l466 633c17 23 43 35 78 35h96c15 0 24 -4 27 -11s1 -17 -7 -29l-465 -633c-12 -16 -23 -26 -32 -30c-9 -5 -26 -7 -51 -7h-91c-15 0 -24 4 -28 12c-4 9 -2 19 7 30z" />
    <glyph glyph-name="onehalf" unicode="&#xbd;" horiz-adv-x="926" 
d="M267 715h28c19 0 32 -4 38 -11s7 -20 4 -37l-54 -307c-5 -27 -21 -40 -49 -40h-54c-16 0 -27 3 -32 9s-6 16 -3 31l34 191l-29 -15c-27 -14 -45 -9 -55 14l-18 40c-8 22 0 40 25 53l116 60c13 8 30 12 49 12zM690 710h72c15 0 24 -4 27 -11s1 -17 -7 -29l-465 -633
c-12 -16 -23 -26 -32 -30c-9 -5 -26 -7 -51 -7h-67c-15 0 -24 4 -28 12c-4 9 -2 19 7 30l466 633c17 23 43 35 78 35zM575 308c37 63 96 95 178 95c48 0 84 -13 108 -38c23 -23 32 -53 27 -90c-11 -71 -50 -116 -118 -135l-46 -13c-15 -2 -22 -5 -23 -10v-1h117
c24 0 34 -12 29 -35l-8 -47c-3 -23 -17 -34 -40 -34h-247c-23 0 -33 11 -30 34l6 33c7 38 18 66 34 85c17 20 45 36 84 49l56 18c25 9 40 22 43 41c3 15 -4 22 -19 22s-27 -7 -38 -22c-11 -14 -19 -23 -24 -26c-7 -4 -17 -3 -30 2l-47 18c-23 9 -27 27 -12 54z" />
    <glyph glyph-name="onethird" unicode="&#x2153;" horiz-adv-x="934" 
d="M267 715h28c19 0 32 -4 38 -11s7 -20 4 -37l-54 -307c-5 -27 -21 -40 -49 -40h-54c-16 0 -27 3 -32 9s-6 16 -3 31l34 191l-29 -15c-27 -14 -45 -9 -55 14l-18 40c-8 22 0 40 25 53l116 60c13 8 30 12 49 12zM689 710h72c31 0 38 -13 21 -40l-465 -633
c-13 -17 -23 -27 -32 -30c-9 -5 -26 -7 -51 -7h-67c-15 0 -24 4 -28 12c-5 9 -2 19 7 30l466 633c17 23 42 35 77 35zM570 310c35 62 96 93 183 93c48 0 84 -11 109 -33c24 -22 33 -51 27 -88c-5 -32 -23 -58 -53 -77c31 -21 42 -53 34 -96c-14 -78 -75 -117 -182 -117
c-97 0 -149 32 -158 95c-4 24 4 39 24 46l47 15c15 5 26 6 33 3s12 -11 15 -24c5 -17 22 -26 49 -26c23 0 35 7 37 20c4 15 -5 23 -26 23h-28c-11 0 -19 2 -22 6c-3 3 -3 11 -1 23l9 50c3 13 6 21 10 25c5 4 13 6 26 6h20c20 0 31 7 34 21c3 15 -6 22 -27 22
c-27 0 -47 -9 -60 -28c-15 -23 -33 -29 -55 -19l-34 16c-18 9 -22 24 -11 44z" />
    <glyph glyph-name="twothirds" unicode="&#x2154;" horiz-adv-x="989" 
d="M92 630c37 63 96 94 178 94c47 0 83 -12 108 -37c23 -24 32 -54 27 -91c-11 -71 -50 -116 -118 -135l-46 -12c-15 -3 -22 -7 -23 -10v-2h116c25 0 35 -12 30 -35l-8 -47c-4 -23 -17 -34 -40 -34h-247c-23 0 -33 11 -30 34l6 33c7 38 18 66 34 85c17 20 45 36 84 49l56 18
c25 9 39 22 42 41c3 15 -3 23 -18 23s-27 -8 -38 -23c-11 -14 -19 -23 -24 -26c-7 -4 -18 -3 -31 2l-47 18c-23 9 -27 28 -11 55zM753 710h72c31 0 38 -13 21 -40l-465 -633c-13 -17 -23 -27 -32 -30c-9 -5 -26 -7 -51 -7h-67c-15 0 -24 4 -28 12c-5 9 -2 19 7 30l466 633
c17 23 42 35 77 35zM632 310c34 62 95 93 182 93c48 0 84 -11 109 -33c24 -22 33 -51 27 -88c-5 -33 -23 -58 -53 -77c31 -21 42 -53 34 -96c-14 -78 -75 -117 -182 -117c-96 0 -149 32 -158 95c-4 24 4 39 24 46l47 15c15 5 27 6 34 3c6 -3 11 -11 15 -24
c5 -17 22 -26 49 -26c23 0 35 7 36 20c4 15 -5 23 -26 23h-28c-11 0 -19 2 -22 6c-3 3 -3 11 -1 23l10 50c2 13 5 21 9 25c5 4 13 6 26 6h20c20 0 31 7 34 21c3 15 -6 22 -26 22c-28 0 -48 -9 -61 -28c-15 -23 -33 -29 -55 -19l-34 16c-18 9 -21 24 -10 44z" />
    <glyph glyph-name="onequarter" unicode="&#xbc;" horiz-adv-x="915" 
d="M267 715h28c19 0 32 -4 38 -11s7 -20 4 -37l-54 -307c-5 -27 -21 -40 -49 -40h-54c-16 0 -27 3 -32 9s-6 16 -3 31l34 191l-29 -15c-27 -14 -45 -9 -55 14l-18 40c-8 22 0 40 25 53l116 60c13 8 30 12 49 12zM703 710h72c15 0 24 -4 27 -11s1 -17 -7 -29l-465 -633
c-12 -16 -22 -26 -31 -30c-9 -5 -26 -7 -51 -7h-67c-15 0 -25 4 -29 12s-2 18 7 30l466 633c17 23 43 35 78 35zM820 177h11c14 0 23 -2 26 -7c3 -4 4 -12 2 -23l-8 -46c-3 -21 -16 -31 -39 -31h-10l-7 -35c-3 -23 -16 -34 -38 -34h-65c-20 0 -28 11 -25 34l7 35h-160
c-23 0 -33 12 -29 35l5 30c3 18 10 32 21 43l194 193c17 17 38 25 63 25h51c16 0 26 -3 31 -9c5 -5 5 -16 2 -31zM704 243l-66 -66h54z" />
    <glyph glyph-name="threequarters" unicode="&#xbe;" horiz-adv-x="934" 
d="M88 632c35 62 95 93 182 93c48 0 84 -11 109 -33c24 -22 33 -52 27 -89c-5 -32 -23 -57 -53 -76c31 -21 42 -53 34 -97c-13 -77 -74 -116 -182 -116c-96 0 -149 31 -158 94c-4 24 4 39 24 46l47 16c15 5 27 6 34 3c6 -3 11 -11 15 -24c5 -17 22 -26 49 -26
c23 0 35 6 36 19c4 15 -5 23 -26 23h-28c-11 0 -19 2 -22 6c-3 3 -3 11 -1 23l10 50c2 13 5 21 9 25s13 6 26 6h20c20 0 31 7 34 22c3 14 -5 21 -26 21c-29 0 -49 -9 -61 -27c-14 -23 -32 -29 -55 -19l-34 16c-18 9 -21 24 -10 44zM738 710h72c15 0 24 -4 27 -11
s1 -17 -7 -29l-465 -633c-12 -16 -23 -26 -32 -30c-9 -5 -26 -7 -51 -7h-67c-15 0 -24 4 -28 12c-4 9 -2 19 7 30l466 633c17 23 43 35 78 35zM843 176h11c14 0 23 -2 26 -7c3 -4 4 -12 2 -23l-8 -46c-3 -21 -16 -31 -39 -31h-10l-7 -35c-3 -23 -16 -34 -38 -34h-65
c-20 0 -28 11 -25 34l7 35h-160c-23 0 -33 12 -29 35l5 30c3 18 10 32 21 43l194 193c17 17 38 25 63 25h51c16 0 26 -3 31 -9c5 -5 5 -16 2 -31zM727 242l-66 -66h54z" />
    <glyph glyph-name="oneeighth" unicode="&#x215b;" horiz-adv-x="950" 
d="M267 715h28c19 0 32 -4 38 -11s7 -20 4 -37l-54 -307c-5 -27 -21 -40 -49 -40h-54c-16 0 -27 3 -32 9s-6 16 -3 31l34 191l-29 -15c-27 -14 -45 -9 -55 14l-18 40c-8 22 0 40 25 53l116 60c13 8 30 12 49 12zM696 710h72c15 0 24 -4 27 -11s1 -17 -7 -29l-465 -633
c-12 -16 -23 -26 -32 -30c-9 -5 -26 -7 -51 -7h-67c-15 0 -24 4 -28 12c-5 9 -2 19 7 30l466 633c17 23 43 35 78 35zM578 288c15 77 76 116 183 116c51 0 90 -11 116 -32c25 -20 35 -47 29 -81s-25 -62 -57 -83c32 -23 44 -55 37 -96c-14 -81 -79 -121 -196 -121
c-59 0 -102 11 -129 33c-24 19 -33 46 -27 80c6 37 31 67 75 92c-27 25 -37 55 -31 92zM772 283c3 15 -7 22 -28 22c-19 0 -30 -7 -33 -21c-2 -11 9 -21 34 -30c17 9 26 18 27 29zM747 112c2 12 -10 23 -37 34c-21 -11 -32 -22 -35 -33c-3 -16 9 -24 34 -24c23 0 35 8 38 23
z" />
    <glyph glyph-name="threeeighths" unicode="&#x215c;" horiz-adv-x="982" 
d="M86 632c35 62 96 93 183 93c48 0 84 -11 109 -33c24 -22 33 -52 26 -89c-5 -32 -23 -57 -52 -76c31 -21 42 -53 34 -97c-13 -77 -74 -116 -183 -116c-96 0 -149 31 -158 94c-3 24 6 39 25 46l47 16c15 5 26 6 33 3s12 -11 15 -24c5 -17 22 -26 49 -26c23 0 35 6 37 19
c3 15 -6 23 -26 23h-28c-11 0 -19 2 -22 6c-3 3 -3 11 -1 23l9 50c2 13 5 21 9 25c5 4 14 6 27 6h19c21 0 32 7 35 22c2 14 -7 21 -27 21c-29 0 -49 -9 -60 -27c-14 -23 -32 -29 -55 -19l-35 16c-17 9 -21 24 -10 44zM740 710h72c15 0 24 -4 27 -12c3 -7 1 -17 -7 -28
l-465 -633c-12 -17 -23 -27 -32 -31s-26 -6 -51 -6h-67c-15 0 -24 4 -28 12c-4 9 -2 19 7 30l466 633c17 23 43 35 78 35zM616 288c13 77 74 116 183 116c51 0 90 -11 116 -32c25 -20 34 -47 29 -81c-7 -35 -26 -63 -58 -83c33 -23 45 -55 38 -96
c-14 -81 -80 -121 -197 -121c-59 0 -102 11 -128 33c-25 19 -34 46 -27 80c6 37 31 68 74 92c-26 25 -36 56 -30 92zM810 283c1 15 -8 22 -28 22s-31 -7 -34 -21c-1 -11 10 -21 35 -30c15 8 24 18 27 29zM785 112c1 12 -11 23 -37 34c-22 -11 -34 -22 -35 -33
c-4 -16 7 -24 33 -24c22 0 35 8 39 23z" />
    <glyph glyph-name="fiveeighths" unicode="&#x215d;" horiz-adv-x="981" 
d="M169 715h215c20 0 28 -10 25 -29l-7 -45c-3 -19 -15 -29 -36 -29h-139l-7 -25h31c51 0 88 -13 111 -38c21 -23 29 -55 22 -96c-8 -43 -27 -76 -58 -101c-33 -27 -74 -40 -125 -40c-87 0 -139 31 -155 93c-6 24 3 40 26 48l51 18c16 5 26 7 31 6c7 -2 13 -10 17 -24
c5 -20 19 -30 42 -30c25 0 39 12 43 35c3 23 -7 34 -32 34h-119c-26 0 -36 12 -29 36l45 157c6 20 22 30 48 30zM732 710h72c15 0 24 -4 27 -11s1 -17 -7 -29l-465 -633c-12 -16 -23 -26 -32 -30c-9 -5 -26 -7 -51 -7h-67c-15 0 -24 4 -28 12c-4 9 -2 19 7 30l466 633
c17 23 43 35 78 35zM614 288c13 77 74 116 183 116c51 0 90 -11 116 -32c25 -20 34 -47 29 -81c-7 -35 -26 -63 -58 -83c33 -23 45 -55 38 -96c-14 -81 -80 -121 -197 -121c-59 0 -102 11 -128 33c-25 19 -34 46 -27 80c6 37 31 68 74 92c-26 25 -36 56 -30 92zM808 283
c1 15 -8 22 -28 22s-31 -7 -34 -21c-1 -11 10 -21 35 -30c15 8 24 18 27 29zM783 112c1 12 -11 23 -37 34c-22 -11 -34 -22 -35 -33c-4 -16 7 -24 33 -24c22 0 35 8 39 23z" />
    <glyph glyph-name="seveneighths" unicode="&#x215e;" horiz-adv-x="920" 
d="M128 714h249c23 0 32 -11 29 -32l-6 -32c-3 -15 -8 -28 -16 -41l-171 -266c-9 -16 -28 -24 -57 -24h-57c-31 0 -37 15 -18 45l151 233h-127c-13 0 -22 3 -25 8c-3 4 -3 13 -1 27l8 47c4 23 18 35 41 35zM658 710h72c15 0 24 -4 27 -11s1 -17 -7 -29l-465 -633
c-12 -16 -23 -26 -32 -30c-9 -5 -26 -7 -51 -7h-67c-15 0 -24 4 -28 12c-5 9 -2 19 7 30l466 633c17 23 43 35 78 35zM552 288c13 77 74 116 183 116c51 0 90 -11 116 -32c25 -21 34 -48 28 -81c-6 -34 -25 -62 -57 -83c33 -23 45 -55 37 -96c-14 -81 -79 -121 -196 -121
c-59 0 -102 11 -128 33c-25 19 -34 46 -27 80c6 37 31 68 74 92c-27 25 -37 55 -30 92zM745 283c3 15 -6 22 -27 22c-20 0 -31 -7 -34 -21c-1 -11 10 -21 35 -30c15 9 24 18 26 29zM720 112c2 12 -10 23 -37 34c-21 -12 -33 -23 -34 -33c-4 -16 7 -24 33 -24
c23 0 35 8 38 23z" />
    <glyph glyph-name="uni2080" unicode="&#x2080;" horiz-adv-x="385" 
d="M-22 29l20 113c17 94 80 141 190 141c52 0 91 -14 116 -43s33 -66 25 -112l-20 -113c-17 -95 -80 -143 -189 -143c-53 0 -92 15 -117 44s-33 66 -25 113zM172 20l21 116c3 17 -5 26 -24 26s-30 -9 -33 -26l-21 -116c-4 -19 4 -28 24 -28c18 0 29 9 33 28z" />
    <glyph glyph-name="uni2081" unicode="&#x2081;" horiz-adv-x="295" 
d="M173 275h28c19 0 32 -4 38 -11s7 -20 4 -37l-54 -307c-5 -27 -21 -40 -50 -40h-53c-28 0 -40 13 -35 40l34 191l-29 -14c-27 -14 -46 -9 -56 14l-17 39c-9 23 0 40 25 53l116 61c14 7 30 11 49 11z" />
    <glyph glyph-name="uni2082" unicode="&#x2082;" horiz-adv-x="373" 
d="M10 189c36 63 95 94 178 94c47 0 83 -12 108 -37c23 -23 32 -53 27 -90c-11 -71 -50 -117 -118 -136l-46 -12c-15 -3 -22 -7 -23 -10v-2h116c25 0 35 -12 30 -35l-8 -47c-4 -23 -17 -34 -40 -34h-247c-24 0 -34 11 -30 34l6 33c7 38 18 66 34 85c17 20 45 36 84 49l56 19
c25 9 40 22 43 40c3 15 -4 23 -19 23s-28 -8 -38 -23c-11 -14 -19 -23 -24 -26c-7 -4 -18 -3 -31 2l-46 18c-23 9 -27 27 -12 55z" />
    <glyph glyph-name="uni2083" unicode="&#x2083;" horiz-adv-x="380" 
d="M3 191c34 61 95 92 182 92c48 0 84 -11 109 -33c24 -21 33 -51 27 -88c-5 -33 -23 -58 -53 -77c31 -20 42 -52 34 -96c-14 -78 -75 -117 -182 -117c-96 0 -149 32 -158 95c-4 24 4 39 24 46l47 16c15 5 27 6 34 3c6 -3 11 -11 15 -24c5 -17 22 -26 49 -26
c23 0 35 6 36 19c4 15 -5 23 -26 23h-28c-11 0 -19 2 -22 6c-3 3 -3 11 -1 23l10 50c2 13 5 21 9 25s13 6 26 6h20c20 0 31 7 34 22c3 14 -5 21 -26 21c-29 0 -49 -9 -61 -27c-15 -23 -33 -30 -55 -20l-34 17c-19 8 -22 23 -10 44z" />
    <glyph glyph-name="uni2084" unicode="&#x2084;" horiz-adv-x="397" 
d="M289 56h11c14 0 23 -2 26 -6s4 -12 2 -23l-8 -47c-5 -21 -18 -31 -39 -31h-11l-6 -34c-4 -23 -17 -35 -38 -35h-65c-21 0 -29 12 -25 35l6 34h-159c-24 0 -34 12 -29 35l4 31c4 18 11 32 22 43l194 193c17 16 38 24 63 24h50c16 0 26 -3 31 -8s6 -16 3 -31zM173 122
l-67 -66h55z" />
    <glyph glyph-name="uni2085" unicode="&#x2085;" horiz-adv-x="375" 
d="M87 275h215c20 0 28 -10 25 -29l-7 -45c-3 -19 -15 -29 -36 -29h-139l-7 -25h31c51 0 88 -13 111 -38c21 -23 29 -55 22 -96c-8 -43 -27 -76 -58 -101c-33 -27 -74 -40 -125 -40c-87 0 -139 31 -155 93c-6 24 3 40 26 48l51 18c16 5 26 7 31 6c7 -2 13 -10 17 -24
c5 -20 19 -30 42 -30c25 0 39 12 43 35c3 23 -7 34 -32 34h-119c-26 0 -36 12 -29 36l45 157c6 20 22 30 48 30z" />
    <glyph glyph-name="uni2086" unicode="&#x2086;" horiz-adv-x="385" 
d="M135 139l-2 -13c16 4 33 6 51 6c100 0 143 -43 128 -128c-16 -88 -80 -132 -192 -132c-55 0 -95 14 -119 41s-31 66 -22 116l20 116c17 92 83 138 198 138c72 0 118 -23 137 -70c8 -17 2 -30 -19 -39l-60 -28c-15 -7 -27 -5 -36 6c-11 14 -24 21 -39 21
c-26 0 -41 -11 -45 -34zM115 21l-2 -8c-4 -21 5 -32 26 -32s33 8 35 23c3 15 -6 23 -27 23c-11 0 -22 -2 -32 -6z" />
    <glyph glyph-name="uni2087" unicode="&#x2087;" horiz-adv-x="342" 
d="M41 275h249c13 0 22 -2 26 -6c4 -5 5 -13 3 -25l-5 -33c-3 -14 -8 -27 -17 -40l-171 -267c-10 -16 -29 -24 -56 -24h-58c-31 0 -37 15 -17 46l151 232h-128c-13 0 -22 3 -25 8s-3 14 -1 27l9 48c3 23 17 34 40 34z" />
    <glyph glyph-name="uni2088" unicode="&#x2088;" horiz-adv-x="393" 
d="M9 169c13 77 74 116 183 116c51 0 90 -11 116 -32c25 -20 34 -47 29 -81c-7 -35 -26 -63 -58 -83c33 -23 45 -55 38 -96c-14 -81 -80 -121 -197 -121c-59 0 -102 11 -128 33c-24 19 -33 46 -27 80c6 37 31 68 74 92c-26 25 -36 56 -30 92zM203 164c3 15 -7 22 -28 22
c-20 0 -31 -7 -34 -21c-1 -11 10 -21 35 -30c15 8 24 18 27 29zM178 -7c2 12 -10 23 -37 34c-22 -12 -34 -23 -35 -33c-3 -16 9 -24 34 -24c21 0 34 8 38 23z" />
    <glyph glyph-name="uni2089" unicode="&#x2089;" horiz-adv-x="386" 
d="M169 17l3 13c-16 -4 -33 -6 -51 -6c-100 0 -142 45 -127 135c15 83 79 125 190 125c113 0 160 -51 143 -152l-21 -116c-17 -95 -81 -143 -193 -143c-79 0 -128 23 -147 68c-7 17 1 30 22 41l59 29c15 7 27 5 36 -6c10 -15 24 -22 42 -22c26 0 41 11 44 34zM190 135l2 9
c4 21 -5 31 -27 31c-20 0 -32 -8 -35 -23s6 -23 27 -23c7 0 18 2 33 6z" />
    <glyph glyph-name="uni2070" unicode="&#x2070;" horiz-adv-x="385" 
d="M72 560l20 113c17 94 80 141 190 141c52 0 91 -14 116 -43c24 -28 32 -65 25 -112l-20 -113c-17 -95 -80 -143 -190 -143c-52 0 -91 15 -116 44s-33 66 -25 113zM266 550l20 117c4 17 -4 26 -23 26s-30 -9 -34 -26l-20 -117c-4 -18 4 -27 24 -27c18 0 29 9 33 27z" />
    <glyph glyph-name="uni00B9" unicode="&#xb9;" horiz-adv-x="294" 
d="M265 806h29c19 0 32 -4 38 -11c5 -7 6 -20 3 -37l-54 -307c-5 -27 -21 -40 -49 -40h-54c-16 0 -27 3 -32 9s-6 16 -3 31l34 191l-29 -15c-27 -13 -45 -9 -55 14l-18 40c-8 22 0 40 25 53l116 61c15 7 31 11 49 11z" />
    <glyph glyph-name="uni00B2" unicode="&#xb2;" horiz-adv-x="373" 
d="M103 715c36 63 95 94 178 94c48 0 84 -12 108 -37c23 -23 32 -53 27 -90c-11 -71 -50 -117 -118 -136l-46 -12c-15 -3 -22 -7 -23 -10v-2h117c24 0 34 -12 29 -35l-8 -47c-4 -23 -17 -34 -40 -34h-247c-24 0 -34 11 -30 34l6 33c7 38 18 66 34 85c17 20 45 36 84 49
l56 19c25 9 40 22 43 40c3 15 -4 23 -19 23s-28 -8 -38 -23c-11 -14 -19 -23 -24 -26c-7 -4 -17 -3 -30 2l-47 18c-23 9 -27 27 -12 55z" />
    <glyph glyph-name="uni00B3" unicode="&#xb3;" horiz-adv-x="380" 
d="M96 721c35 62 96 93 183 93c48 0 84 -11 108 -33s33 -52 27 -89c-5 -32 -23 -57 -53 -76c31 -20 42 -52 34 -97c-13 -77 -74 -116 -182 -116c-96 0 -149 31 -158 94c-4 24 4 39 25 46l47 16c15 5 26 6 33 3c6 -3 11 -11 15 -24c5 -17 22 -26 49 -26c23 0 35 6 37 19
c3 15 -6 23 -26 23h-29c-11 0 -18 2 -21 6c-3 3 -3 11 -2 23l10 50c2 13 5 21 9 25c5 4 14 6 27 6h19c20 0 32 7 35 22c2 14 -7 21 -27 21c-29 0 -49 -9 -61 -27c-13 -23 -31 -30 -54 -19l-35 16c-18 9 -21 23 -10 44z" />
    <glyph glyph-name="uni2074" unicode="&#x2074;" horiz-adv-x="397" 
d="M383 587h11c13 0 22 -2 26 -7c3 -4 3 -12 2 -23l-8 -46c-5 -21 -18 -31 -39 -31h-11l-6 -35c-5 -23 -17 -34 -38 -34h-65c-21 0 -30 11 -25 34l6 35h-159c-24 0 -34 12 -29 35l4 31c4 19 11 34 22 43l194 192c17 17 37 25 62 25h51c16 0 26 -3 31 -8s6 -16 3 -32z
M266 653l-66 -66h55z" />
    <glyph glyph-name="uni2075" unicode="&#x2075;" horiz-adv-x="375" 
d="M181 806h215c20 0 28 -10 25 -29l-7 -45c-3 -19 -15 -29 -36 -29h-139l-7 -25h31c51 0 88 -13 111 -38c21 -23 29 -55 22 -96c-8 -43 -27 -76 -58 -101c-33 -27 -74 -40 -125 -40c-87 0 -139 31 -155 93c-6 24 3 40 26 48l51 18c16 5 26 7 31 6c7 -2 13 -10 17 -24
c5 -20 19 -30 42 -30c25 0 39 12 43 35c3 23 -7 34 -32 34h-119c-26 0 -36 12 -29 36l45 157c6 20 22 30 48 30z" />
    <glyph glyph-name="uni2076" unicode="&#x2076;" horiz-adv-x="385" 
d="M229 670l-3 -13c16 4 33 6 51 6c100 0 143 -43 128 -129c-15 -87 -79 -131 -191 -131c-55 0 -94 14 -119 41c-24 27 -32 66 -23 116l21 115c16 93 82 139 198 139c72 0 118 -23 137 -70c7 -17 1 -30 -20 -39l-60 -28c-16 -8 -28 -6 -35 6c-13 14 -26 21 -40 21
c-26 0 -41 -11 -44 -34zM208 552l-2 -9c-4 -21 5 -31 26 -31s33 8 36 23c2 15 -7 23 -28 23c-7 0 -17 -2 -32 -6z" />
    <glyph glyph-name="uni2077" unicode="&#x2077;" horiz-adv-x="342" 
d="M134 806h249c23 0 32 -11 29 -32l-6 -32c-3 -15 -8 -29 -17 -40l-170 -267c-11 -16 -30 -24 -57 -24h-57c-31 0 -37 15 -18 45l151 233h-128c-13 0 -21 3 -24 8c-3 4 -3 13 -1 27l8 47c4 23 18 35 41 35z" />
    <glyph glyph-name="uni2078" unicode="&#x2078;" horiz-adv-x="392" 
d="M103 700c13 77 74 115 182 115c51 0 90 -11 116 -32c25 -20 35 -47 29 -81c-6 -35 -25 -62 -57 -82c33 -25 45 -58 37 -97c-14 -80 -79 -120 -196 -120s-169 38 -155 113c5 37 30 67 74 92c-27 23 -37 54 -30 92zM296 694c3 15 -6 22 -27 22c-20 0 -31 -7 -34 -21
c-2 -11 9 -21 34 -30c17 9 26 18 27 29zM271 523c2 12 -10 23 -37 34c-21 -10 -32 -21 -35 -33c-3 -16 9 -24 34 -24c23 0 35 8 38 23z" />
    <glyph glyph-name="uni2079" unicode="&#x2079;" horiz-adv-x="386" 
d="M264 547l2 13c-21 -4 -38 -6 -51 -6c-100 0 -142 45 -126 135c15 83 78 125 190 125c113 0 161 -51 142 -152l-20 -116c-17 -95 -82 -143 -194 -143c-78 0 -127 23 -146 68c-8 17 -1 31 21 42l59 28c17 8 29 6 36 -6c10 -15 24 -22 42 -22c26 0 41 11 45 34zM284 665l2 9
c4 21 -5 31 -27 31c-21 0 -32 -8 -34 -23c-3 -15 6 -22 27 -22c10 0 21 2 32 5z" />
    <glyph glyph-name="asterisk" unicode="*" horiz-adv-x="349" 
d="M219 680h39c21 0 28 -10 20 -29l-23 -69l68 32c18 9 29 4 33 -15l6 -37c3 -19 -6 -29 -27 -32l-70 -11l40 -49c13 -14 10 -27 -9 -38l-36 -22c-19 -12 -31 -9 -36 8l-20 60l-42 -60c-12 -19 -25 -23 -38 -11l-29 25c-14 11 -13 24 4 38l58 49l-67 11c-19 3 -24 14 -14 33
l18 36c10 20 23 25 40 15l56 -32v69c0 19 10 29 29 29z" />
    <glyph glyph-name="backslash" unicode="\" horiz-adv-x="487" 
d="M226 -25l-138 700c-4 23 6 35 31 35h105c25 0 40 -12 45 -35l138 -700c5 -23 -6 -35 -31 -35h-104c-25 0 -41 12 -46 35z" />
    <glyph glyph-name="middot" unicode="&#xb7;" horiz-adv-x="282" 
d="M140 408h38c29 0 49 -6 58 -17c10 -12 12 -33 7 -62l-7 -41c-5 -29 -15 -50 -28 -61s-35 -17 -65 -17h-38c-29 0 -49 6 -59 17c-9 11 -11 32 -6 61l7 41c5 30 15 51 28 62s35 17 65 17z" />
    <glyph glyph-name="bullet" unicode="&#x2022;" horiz-adv-x="396" 
d="M164 114c-43 0 -75 15 -98 44c-23 28 -30 63 -23 106s27 78 60 106c33 29 71 43 114 43s75 -14 98 -43c23 -28 30 -63 23 -106c-7 -42 -28 -77 -61 -106s-71 -44 -113 -44z" />
    <glyph glyph-name="colon" unicode=":" horiz-adv-x="286" 
d="M159 521h38c30 0 50 -6 59 -17s12 -32 7 -62l-8 -40c-5 -29 -15 -50 -28 -62c-13 -11 -35 -17 -64 -17h-38c-30 0 -50 6 -59 17c-9 12 -11 33 -6 62l7 40c5 30 14 51 28 62c13 11 35 17 64 17zM107 190h38c29 0 49 -6 58 -17c10 -12 12 -33 7 -62l-7 -41
c-5 -29 -15 -50 -28 -61s-35 -17 -65 -17h-38c-29 0 -49 6 -59 17c-9 11 -11 32 -6 61l7 41c5 30 15 51 28 62s35 17 65 17z" />
    <glyph glyph-name="comma" unicode="," horiz-adv-x="258" 
d="M197 129l-96 -219c-11 -25 -30 -38 -57 -38h-60c-12 0 -20 2 -23 6c-4 4 -5 12 -2 23l54 228c8 34 27 51 58 51h92c37 0 49 -17 34 -51z" />
    <glyph glyph-name="ellipsis" unicode="&#x2026;" horiz-adv-x="798" 
d="M93 190h38c30 0 50 -6 59 -17c9 -12 11 -33 6 -62l-7 -41c-5 -29 -15 -50 -28 -61s-35 -17 -64 -17h-38c-30 0 -50 6 -59 17c-10 11 -12 32 -7 61l8 41c5 29 15 50 28 62c13 11 35 17 64 17zM361 190h38c30 0 50 -6 59 -17c9 -12 11 -33 6 -62l-7 -41
c-5 -29 -15 -50 -28 -61s-35 -17 -64 -17h-38c-30 0 -50 6 -59 17c-10 11 -12 32 -7 61l8 41c5 29 15 50 28 62c13 11 35 17 64 17zM629 190h38c30 0 50 -6 59 -17c9 -12 11 -33 6 -62l-7 -41c-5 -29 -15 -50 -28 -61s-35 -17 -64 -17h-38c-30 0 -50 6 -59 17
c-10 11 -12 32 -7 61l8 41c5 29 15 50 28 62c13 11 35 17 64 17z" />
    <glyph glyph-name="exclam" unicode="!" horiz-adv-x="284" 
d="M162 739h114c27 0 37 -12 32 -37l-94 -431c-5 -25 -20 -38 -44 -38h-81c-25 0 -35 13 -32 38l60 431c3 25 18 37 45 37zM95 183h50c29 0 49 -6 58 -17s12 -32 7 -61l-6 -35c-5 -29 -15 -50 -28 -61s-35 -17 -65 -17h-50c-29 0 -49 6 -58 17s-12 32 -7 61l6 35
c5 29 15 50 28 61s35 17 65 17z" />
    <glyph glyph-name="exclamdown" unicode="&#xa1;" horiz-adv-x="276" 
d="M168 336h-50c-29 0 -49 6 -58 17s-12 32 -7 62l6 34c5 30 15 51 28 62s35 16 65 16h50c30 0 50 -5 59 -16s11 -32 6 -62l-6 -34c-5 -30 -14 -51 -28 -62c-13 -11 -35 -17 -65 -17zM101 -220h-113c-27 0 -37 13 -32 38l93 430c5 25 20 38 44 38h82c14 0 23 -3 28 -8
c4 -5 5 -15 3 -30l-60 -430c-3 -25 -18 -38 -45 -38z" />
    <glyph glyph-name="numbersign" unicode="#" horiz-adv-x="770" 
d="M698 539h59c15 0 23 -3 26 -8s2 -15 -5 -29l-39 -83c-11 -23 -30 -35 -57 -35h-57l-47 -97h60c27 0 35 -12 22 -37l-41 -83c-11 -24 -30 -36 -57 -36h-58l-43 -93c-12 -25 -31 -38 -56 -38h-91c-26 0 -33 13 -21 38l43 93h-88l-43 -93c-13 -25 -32 -38 -56 -38h-92
c-27 0 -33 13 -20 38l44 93h-59c-26 0 -33 13 -21 38l40 83c11 23 30 35 57 35h57l46 97h-59c-27 0 -35 12 -22 37l40 83c11 23 30 35 57 35h58l45 96c12 25 30 38 55 38h92c26 0 33 -13 21 -38l-46 -96h88l46 96c12 25 31 38 56 38h91c27 0 33 -13 20 -38zM369 384l-47 -97
h88l47 97h-88z" />
    <glyph glyph-name="period" unicode="." horiz-adv-x="262" 
d="M93 190h38c30 0 50 -6 59 -17c9 -12 11 -33 6 -62l-7 -41c-5 -29 -15 -50 -28 -61s-35 -17 -64 -17h-38c-30 0 -50 6 -59 17c-10 11 -12 32 -7 61l8 41c5 29 15 50 28 62c13 11 35 17 64 17z" />
    <glyph glyph-name="question" unicode="?" horiz-adv-x="593" 
d="M74 577c62 108 160 162 295 162c83 0 146 -20 189 -60c43 -39 59 -90 48 -153c-11 -61 -41 -110 -91 -146c-16 -12 -37 -25 -64 -38c-32 -16 -51 -26 -58 -30c-28 -17 -44 -35 -47 -55c-5 -27 -21 -40 -48 -40h-90c-15 0 -25 3 -30 8c-5 6 -6 17 -3 32
c13 73 50 127 112 161c59 33 86 47 79 42c25 18 41 41 46 69c7 38 -13 57 -60 57c-48 0 -88 -24 -119 -73c-10 -16 -19 -26 -26 -30c-9 -4 -20 -3 -33 3l-84 36c-26 11 -31 30 -16 55zM224 183h50c29 0 49 -6 58 -17s12 -32 7 -61l-6 -35c-5 -29 -15 -50 -28 -61
s-35 -17 -65 -17h-50c-29 0 -49 6 -59 17c-9 11 -11 32 -6 61l6 35c5 29 14 50 28 61c13 11 35 17 65 17z" />
    <glyph glyph-name="questiondown" unicode="&#xbf;" horiz-adv-x="589" 
d="M351 335h-50c-29 0 -49 6 -58 17s-12 31 -7 61l6 35c5 29 15 50 28 61s35 17 65 17h50c29 0 49 -6 58 -17s12 -32 7 -61l-6 -35c-5 -30 -15 -50 -28 -61s-35 -17 -65 -17zM501 -59c-62 -108 -160 -162 -295 -162c-83 0 -146 20 -189 60c-43 39 -59 89 -48 152
c11 62 41 111 90 147c16 11 38 24 65 37c31 16 51 26 58 31c28 17 44 35 47 55c5 27 21 40 47 40h91c27 0 38 -13 33 -40c-13 -73 -50 -127 -112 -161l-41 -22c-17 -8 -29 -15 -38 -21c-25 -17 -41 -40 -46 -68c-7 -38 13 -57 60 -57c48 0 88 24 119 73c16 28 35 37 58 27
l85 -36c25 -11 31 -30 16 -55z" />
    <glyph glyph-name="quotedbl" unicode="&#x22;" horiz-adv-x="410" 
d="M262 676l-56 -198c-5 -14 -10 -23 -15 -27c-5 -3 -16 -5 -31 -5h-61c-15 0 -24 2 -28 5c-3 4 -4 13 -1 27l35 198c2 15 6 24 11 28s14 6 29 6h88c15 0 24 -2 28 -6c5 -5 5 -14 1 -28zM443 676l-56 -198c-5 -14 -10 -23 -15 -27c-5 -3 -16 -5 -31 -5h-61
c-15 0 -24 2 -27 5c-4 4 -5 13 -2 27l35 198c3 15 6 24 11 28s15 6 29 6h88c15 0 24 -2 28 -6c5 -5 5 -14 1 -28z" />
    <glyph glyph-name="quotesingle" unicode="'" horiz-adv-x="228" 
d="M262 676l-56 -198c-5 -14 -10 -23 -15 -27c-5 -3 -16 -5 -31 -5h-61c-15 0 -24 2 -28 5c-3 4 -4 13 -1 27l35 198c2 15 6 24 11 28s14 6 29 6h88c15 0 24 -2 28 -6c5 -5 5 -14 1 -28z" />
    <glyph glyph-name="semicolon" unicode=";" horiz-adv-x="286" 
d="M208 290l-12 -26c-1 -6 -3 -13 -8 -22l-17 -37c-5 -12 -11 -21 -16 -28l-15 -33c12 -15 7 -32 -15 -53l-50 -4c-17 -20 -34 -24 -49 -11l41 151c-10 16 -11 30 -3 43c-3 9 1 22 10 40l28 36c18 32 41 43 69 33l-3 -74l2 -1c15 7 28 3 38 -14z" />
    <glyph glyph-name="slash" unicode="/" horiz-adv-x="497" 
d="M538 675l-384 -700c-13 -23 -32 -35 -57 -35h-112c-26 0 -33 12 -20 35l385 700c13 23 32 35 57 35h112c25 0 31 -12 19 -35z" />
    <glyph glyph-name="underscore" unicode="_" horiz-adv-x="506" 
d="M1 0h395c16 0 26 -3 31 -9c5 -7 7 -18 4 -33l-15 -85c-5 -28 -21 -42 -50 -42h-394c-16 0 -27 3 -32 9s-6 17 -3 33l14 85c5 28 22 42 50 42z" />
    <glyph glyph-name="braceleft" unicode="{" horiz-adv-x="411" 
d="M353 856h99c25 0 36 -13 31 -38l-15 -84c-5 -25 -20 -38 -45 -38h-48c-15 0 -24 -8 -27 -23l-33 -185c-11 -60 -44 -105 -100 -136c47 -21 65 -67 52 -137l-32 -179c-3 -15 4 -23 19 -23h50c14 0 23 -3 28 -8c4 -5 5 -15 3 -30l-15 -84c-5 -25 -20 -38 -45 -38h-96
c-57 0 -95 11 -114 34c-19 21 -24 58 -15 109l33 183c9 56 -7 84 -48 84h-6c-21 0 -30 13 -25 38l18 101c4 25 17 38 38 38h6c42 0 68 28 77 84l34 188c9 51 26 87 52 110c27 23 69 34 124 34z" />
    <glyph glyph-name="braceright" unicode="}" horiz-adv-x="410" 
d="M152 856h99c55 0 93 -11 112 -34s23 -59 14 -110l-34 -188c-9 -56 7 -84 48 -84h7c21 0 29 -13 25 -38l-18 -101c-5 -25 -18 -38 -39 -38h-6c-41 0 -66 -28 -77 -84l-33 -183c-9 -51 -26 -87 -52 -109c-28 -23 -70 -34 -127 -34h-96c-25 0 -36 13 -31 38l15 84
c5 25 20 38 45 38h49c15 0 24 8 27 23l31 179c13 70 46 116 101 137c-45 31 -63 77 -52 136l32 185c3 15 -3 23 -20 23h-48c-15 0 -24 3 -28 8c-5 5 -6 15 -3 30l15 84c5 25 19 38 44 38z" />
    <glyph glyph-name="bracketleft" unicode="[" horiz-adv-x="354" 
d="M184 856h212c16 0 26 -2 29 -6c4 -5 5 -15 2 -31l-12 -69c-3 -16 -7 -26 -13 -30c-5 -5 -16 -7 -31 -7h-72l-126 -715h71c16 0 26 -2 30 -6c4 -5 5 -15 2 -31l-13 -71c-3 -16 -7 -26 -12 -30c-5 -5 -16 -7 -32 -7h-212c-16 0 -26 2 -30 7c-3 5 -4 15 -1 31l163 927
c3 16 8 26 13 31s16 7 32 7z" />
    <glyph glyph-name="bracketright" unicode="]" horiz-adv-x="354" 
d="M150 856h211c16 0 26 -2 30 -7s5 -16 2 -31l-163 -927c-3 -16 -7 -26 -13 -31s-17 -7 -33 -7h-211c-16 0 -26 2 -30 7c-3 4 -4 14 -1 30l13 71c3 16 7 26 12 31c5 4 15 6 31 6h72l126 715h-71c-16 0 -26 2 -30 7c-3 4 -4 14 -1 30l12 69c3 16 7 26 12 31c5 4 16 6 32 6z
" />
    </font>
</defs>
</svg>
