<?xml version="1.0" standalone="no"?>
<!DOCTYPE svg PUBLIC "-//W3C//DTD SVG 1.1//EN" "http://www.w3.org/Graphics/SVG/1.1/DTD/svg11.dtd" >
<svg xmlns="http://www.w3.org/2000/svg" xmlns:xlink="http://www.w3.org/1999/xlink" version="1.1">
<metadata></metadata>
<defs>
<font id="iciel_pantonregular_italic" horiz-adv-x="1308" >
<font-face units-per-em="2048" ascent="1516" descent="-532" />
<missing-glyph horiz-adv-x="489" />
<glyph unicode="&#xfb01;" horiz-adv-x="1136" d="M74 963l8 53q8 37 45 37h182l8 53q39 221 158 315q117 94 346 95h303q35 0 29 -37l-8 -54q-8 -37 -45 -36h-303q-164 0 -238 -62q-76 -61 -102 -221l-11 -53h596q37 0 29 -37l-172 -979q-6 -37 -43 -37h-63q-39 0 -31 37l158 889h-496l-156 -889q-8 -37 -45 -37h-63 q-37 0 -29 37l156 889h-183q-37 0 -30 37z" />
<glyph unicode="&#xfb02;" horiz-adv-x="1126" d="M74 963l8 53q8 37 45 37h182l8 55q39 217 158 313q117 94 346 95h287q35 0 29 -37l-254 -1442q-8 -37 -43 -37h-66q-37 0 -29 37l238 1352h-186q-164 0 -238 -60q-76 -61 -102 -223l-11 -53h238q37 0 29 -37l-11 -53q-6 -37 -40 -37h-238l-156 -889q-8 -37 -45 -37h-63 q-37 0 -29 37l156 889h-183q-37 0 -30 37z" />
<glyph horiz-adv-x="0" />
<glyph unicode="&#xd;" horiz-adv-x="659" />
<glyph unicode=" "  horiz-adv-x="489" />
<glyph unicode="&#x09;" horiz-adv-x="489" />
<glyph unicode="&#xa0;" horiz-adv-x="489" />
<glyph unicode="!" horiz-adv-x="421" d="M29 70l2 12q12 82 96 82h12q45 0 60 -17q14 -18 6 -65l-2 -12q-14 -82 -97 -82h-12q-45 0 -59 16q-14 18 -6 66zM117 381l176 1098q2 37 43 37h72q37 0 28 -37l-211 -1098q-8 -37 -43 -37h-37q-37 0 -28 37z" />
<glyph unicode="&#x22;" horiz-adv-x="602" d="M193 1004l73 417q4 33 39 33h60q37 0 28 -33l-94 -417q-6 -33 -41 -33h-37q-33 0 -28 33zM418 1004l76 417q4 33 38 33h58q39 0 31 -33l-95 -417q-6 -33 -41 -33h-39q-33 0 -28 33z" />
<glyph unicode="#" horiz-adv-x="1400" d="M41 428l27 55q18 35 55 35h211l162 338h-213q-39 0 -21 37l27 55q16 35 55 35h211l152 320q16 37 53 36h61q37 0 21 -36l-152 -320h322l151 320q20 37 54 36h61q37 0 20 -36l-151 -320h213q39 0 22 -37l-26 -57q-14 -33 -56 -33h-215l-159 -338h215q39 0 22 -37l-28 -57 q-14 -33 -54 -33h-215l-168 -354q-20 -37 -55 -37h-61q-39 0 -19 37l168 354h-323l-166 -354q-20 -37 -56 -37h-61q-39 0 -19 37l168 354h-213q-37 0 -20 37zM469 518h322l161 338h-323z" />
<glyph unicode="$" horiz-adv-x="1208" d="M43 360q-8 39 37 58l61 20q41 12 52 -24q31 -133 100 -193q78 -68 229 -67q367 0 412 264q25 137 -78 190q-63 33 -248 54q-219 23 -315 86q-141 94 -107 303q66 360 492 387l22 129q6 37 43 37h66q37 0 29 -37l-23 -129q270 -25 365 -303q12 -39 -33 -58l-55 -22 q-41 -16 -54 20q-43 115 -104 166q-78 59 -223 59q-332 0 -375 -262q-23 -131 80 -184q63 -33 243 -51q223 -23 320 -86q141 -94 102 -309q-61 -356 -516 -388l-22 -133q-8 -37 -45 -37h-64q-37 0 -31 37l25 131q-315 27 -385 342z" />
<glyph unicode="%" horiz-adv-x="1658" d="M145 41l1260 1378q31 35 80 35h53q47 0 14 -39l-1257 -1378q-35 -37 -86 -37h-49q-47 0 -15 41zM145 1038l27 150q51 297 375 297q156 0 227 -82q70 -82 45 -223l-26 -150q-53 -295 -375 -295q-156 0 -228 82q-70 80 -45 221zM264 1040q-37 -193 172 -192q205 0 242 192 l24 140q33 193 -174 192q-205 0 -241 -192zM877 272l26 152q53 295 375 295q156 0 227 -82q70 -82 45 -223l-26 -150q-51 -295 -377 -295q-156 0 -227 82q-68 80 -43 221zM995 274q-35 -195 172 -194q207 0 242 194l23 138q35 195 -172 194q-207 0 -242 -194z" />
<glyph unicode="&#x26;" horiz-adv-x="1343" d="M45 373q47 262 385 411q-150 180 -119 355q27 143 140 239q121 104 292 105q154 0 242 -105q86 -100 62 -241q-25 -137 -123 -228q-84 -78 -273 -155l-20 -9l301 -356l168 137q29 25 49 0l41 -49q14 -20 -10 -43l-174 -141l215 -256q31 -37 -23 -37h-86q-35 0 -53 23 l-156 184q-299 -236 -524 -236q-172 0 -268 115t-66 287zM186 369q-20 -115 43 -191t179 -76q164 0 419 201l-321 383q-285 -115 -320 -317zM442 1130q-25 -123 113 -288l57 26q143 57 201 103q82 63 102 170q17 87 -38 153q-55 68 -156 68q-106 0 -186 -70 q-76 -68 -93 -162z" />
<glyph unicode="'" horiz-adv-x="374" d="M193 1004l73 417q4 33 39 33h60q37 0 28 -33l-94 -417q-6 -33 -41 -33h-37q-33 0 -28 33z" />
<glyph unicode="(" horiz-adv-x="524" d="M45 203l184 1048q63 342 371 471q35 14 47 -20l15 -60q8 -29 -29 -51q-225 -100 -266 -340l-189 -1065q-41 -240 148 -340q33 -20 10 -49l-33 -45q-31 -33 -53 -20q-264 131 -205 471z" />
<glyph unicode=")" horiz-adv-x="522" d="M-104 -186q-8 31 30 49q223 98 267 340l188 1067q41 244 -148 340q-35 20 -12 49l35 43q27 33 53 20q262 -131 203 -471l-184 -1048q-59 -340 -369 -473q-35 -14 -47 22z" />
<glyph unicode="*" horiz-adv-x="772" d="M205 1165l20 43q14 25 35 13l184 -82l23 215q0 25 27 24h43q29 0 16 -24l-51 -215l215 80q27 14 28 -13l7 -41q4 -25 -23 -30l-219 -50l111 -167q16 -18 -11 -33l-39 -25q-27 -18 -32 6l-82 183l-146 -181q-16 -25 -35 -10l-32 27q-20 16 4 35l168 165l-197 52 q-27 2 -14 28z" />
<glyph unicode="+" horiz-adv-x="1157" d="M100 645l9 49q6 41 47 41h376l68 377q8 41 47 41h49q41 0 33 -41l-65 -377h378q39 0 33 -41l-8 -49q-8 -39 -49 -39h-379l-66 -379q-8 -41 -47 -41h-49q-41 0 -33 41l66 379h-377q-41 0 -33 39z" />
<glyph unicode="," horiz-adv-x="362" d="M-63 -219l98 340q10 45 53 45h53q57 0 39 -45l-145 -332q-12 -37 -45 -37h-29q-31 0 -24 29z" />
<glyph unicode="-" horiz-adv-x="864" d="M109 518l10 51q8 41 47 41h528q43 0 35 -41l-10 -51q-6 -41 -47 -41h-529q-41 0 -34 41z" />
<glyph unicode="." horiz-adv-x="374" d="M12 70l2 12q12 82 97 82h12q45 0 59 -17q14 -18 6 -65l-2 -12q-16 -82 -96 -82h-12q-47 0 -60 16q-14 18 -6 66z" />
<glyph unicode="/" horiz-adv-x="845" d="M-57 -88l827 1509q18 33 55 33h68q35 0 20 -33l-829 -1509q-16 -35 -55 -35h-68q-35 0 -18 35z" />
<glyph unicode="0" horiz-adv-x="1280" d="M92 457l98 561q39 221 195 342q156 123 406 123q244 0 362 -135q115 -131 78 -353l-101 -561q-39 -219 -194 -342q-156 -121 -404 -121t-364 133q-115 129 -76 353zM238 446q-29 -160 53 -247q84 -90 262 -90t291 90q113 88 141 247l98 562q29 160 -53 247 q-82 90 -260 91q-178 0 -293 -91q-113 -88 -139 -247z" />
<glyph unicode="1" horiz-adv-x="860" d="M137 1124q-12 33 27 54l508 260q33 16 59 16h57q41 0 35 -41l-243 -1372q-6 -41 -48 -41h-67q-41 0 -33 41l217 1233l-434 -219q-45 -23 -57 14z" />
<glyph unicode="2" horiz-adv-x="1202" d="M6 41l25 149q33 184 184 295q96 72 322 154q236 84 315 137q150 98 178 262q25 143 -47 226q-74 82 -221 82q-268 0 -422 -246q-25 -37 -55 -25l-62 25q-35 14 -16 51q200 332 579 332q217 0 326 -127q104 -123 70 -324q-37 -213 -201 -332q-111 -82 -426 -198 q-166 -59 -231 -101q-113 -72 -134 -182l-12 -80h795q41 0 33 -41l-11 -57q-8 -41 -47 -41h-909q-41 0 -33 41z" />
<glyph unicode="3" horiz-adv-x="1224" d="M47 328q-8 39 35 53l65 20q39 14 48 -24q20 -141 88 -201q78 -68 256 -67q344 0 397 294q23 129 -35 199q-59 74 -192 74h-297q-41 0 -33 39l8 55q8 41 49 41h279q123 0 205 74q76 68 94 178q23 135 -45 209t-215 74q-168 0 -265 -62q-88 -57 -155 -197q-20 -37 -58 -24 l-57 22q-37 14 -18 52q170 346 581 346q213 0 314 -113q100 -111 65 -303q-40 -235 -239 -313q213 -92 165 -361q-74 -422 -565 -422q-426 0 -475 357z" />
<glyph unicode="4" horiz-adv-x="1249" d="M23 436l8 43q4 29 22 49l893 914q31 29 64 28h65q43 0 33 -40l-158 -902h191q39 0 33 -41l-11 -51q-6 -41 -47 -41h-188l-64 -354q-8 -41 -47 -41h-59q-41 0 -33 41l61 354h-729q-41 0 -34 41zM215 528h596l131 738z" />
<glyph unicode="5" horiz-adv-x="1204" d="M27 293q-6 37 32 51l72 25q39 14 45 -27q45 -233 350 -233q160 0 269 90q102 86 129 231q27 150 -52 232q-74 80 -229 79h-434q-51 0 -37 50l166 600q18 63 82 63h743q43 0 35 -41l-12 -57q-6 -41 -45 -41h-678l-121 -436h326q233 0 344 -129q104 -123 67 -330 q-35 -199 -178 -320q-156 -131 -395 -131q-418 0 -479 324z" />
<glyph unicode="6" horiz-adv-x="1271" d="M96 498l84 479q88 506 619 506q389 0 452 -314q8 -37 -34 -51l-66 -22q-39 -12 -47 26q-47 223 -330 224q-381 0 -446 -379l-31 -170q199 63 412 63q508 0 428 -459q-78 -430 -602 -430q-256 0 -369 144q-113 139 -70 383zM244 487q-33 -182 47 -278q80 -100 266 -100 q377 0 434 307q51 305 -317 305q-225 0 -404 -70z" />
<glyph unicode="7" horiz-adv-x="1060" d="M170 1356l12 57q8 41 47 41h901q41 0 35 -41l-8 -41q-4 -27 -22 -57l-793 -1278q-20 -37 -80 -37h-65q-39 0 -15 41l795 1274h-772q-41 0 -35 41z" />
<glyph unicode="8" horiz-adv-x="1257" d="M49 346q49 272 404 393q-268 117 -224 371q34 183 179 279q143 94 374 94q238 0 346 -101q106 -98 76 -280q-45 -246 -348 -354q145 -53 207 -130q80 -98 51 -260q-63 -387 -598 -387t-467 375zM203 360q-47 -260 336 -260q381 0 424 267q26 147 -91 219q-57 35 -288 100 q-340 -88 -381 -326zM377 1100q-23 -129 67 -199q59 -45 228 -92l45 -14q305 86 344 305q43 254 -301 254q-340 0 -383 -254z" />
<glyph unicode="9" horiz-adv-x="1273" d="M61 285q-8 37 35 51l66 22q37 12 47 -26q47 -223 330 -223q383 0 444 378l31 170q-199 -63 -410 -63q-508 0 -428 459q74 430 600 430q256 0 371 -144q111 -139 67 -383l-81 -479q-90 -506 -619 -506q-389 0 -453 314zM322 1038q-55 -305 315 -305q225 0 403 70l29 164 q33 182 -47 278q-80 100 -266 101q-379 0 -434 -308z" />
<glyph unicode=":" horiz-adv-x="446" d="M94 383l2 12q14 82 97 82h12q45 0 59 -18q14 -16 6 -64l-2 -12q-16 -82 -96 -82h-12q-47 0 -60 16q-14 18 -6 66zM125 590l4 12q14 82 96 82h13q45 0 59 -18q14 -16 6 -64l-4 -12q-12 -82 -96 -82h-10q-47 0 -62 16q-14 18 -6 66z" />
<glyph unicode=";" horiz-adv-x="446" d="M-49 -219l129 340q16 45 61 45h54q55 0 30 -45l-176 -332q-16 -37 -51 -37h-25q-31 0 -22 29zM164 901l2 14q14 80 96 80h12q45 0 60 -16q14 -16 6 -64l-2 -14q-16 -80 -96 -80h-13q-47 0 -59 17q-14 18 -6 63z" />
<glyph unicode="&#x3c;" horiz-adv-x="1015" d="M76 649l6 37q8 35 43 53l811 402q49 23 41 -31l-12 -55q-8 -47 -52 -68l-657 -315l-2 -8l547 -316q37 -20 28 -67l-10 -56q-8 -53 -49 -30l-670 401q-33 18 -24 53z" />
<glyph unicode="=" horiz-adv-x="1230" d="M96 440l8 54q6 41 48 41h884q41 0 35 -41l-8 -54q-10 -41 -49 -41h-885q-43 0 -33 41zM168 846l8 53q6 39 47 39h885q41 0 35 -39l-8 -53q-10 -41 -50 -41h-886q-41 0 -31 41z" />
<glyph unicode="&#x3e;" horiz-adv-x="1015" d="M53 225l13 62q8 47 51 67l657 318l2 6l-547 315q-37 20 -28 68l10 49q12 53 49 31l670 -402q31 -18 24 -51l-6 -39q-8 -35 -43 -53l-811 -399q-47 -23 -41 28z" />
<glyph unicode="?" horiz-adv-x="1146" d="M162 1182q190 334 567 334q225 0 344 -127q113 -119 80 -299q-33 -188 -158 -308q-59 -55 -233 -155q-203 -123 -230 -271q-10 -39 -45 -39h-49q-39 0 -30 39q37 219 288 367q139 84 191 133q94 92 117 231q25 129 -50 209q-78 86 -239 86q-287 0 -430 -249 q-25 -41 -58 -27l-49 24q-33 16 -16 52zM334 70l2 12q12 82 96 82h10q47 0 62 -17q14 -18 6 -65l-2 -12q-16 -82 -96 -82h-13q-47 0 -59 16q-14 18 -6 66z" />
<glyph unicode="@" horiz-adv-x="1843" d="M84 524l25 148q68 375 319 592q256 219 643 219q395 0 574 -223q170 -215 104 -588l-25 -148q-37 -207 -165 -323q-117 -109 -267 -109q-104 0 -129 84q-199 -74 -389 -74q-354 0 -295 338l56 314q59 338 413 338q219 0 355 -62q63 -27 51 -96l-115 -655q-16 -82 72 -82 q102 0 180 73q92 88 121 252l26 150q61 340 -88 524q-152 188 -497 188q-336 0 -557 -190q-217 -188 -277 -522l-24 -150q-59 -334 94 -514q152 -178 489 -178q188 0 451 55q27 6 20 -14l-10 -55q-4 -25 -29 -31q-193 -55 -448 -55q-391 0 -569 209q-176 207 -109 585z M598 442q-41 -229 209 -229q178 0 313 63l109 619q8 33 -27 49q-104 39 -258 39q-250 0 -291 -233z" />
<glyph unicode="A" d="M-78 39l793 1386q18 35 57 35h62q43 0 47 -33l305 -1388q1 -5 1 -9q0 -30 -38 -30h-53q-61 0 -68 37l-84 389h-641l-221 -389q-20 -37 -80 -37h-59q-47 0 -21 39zM369 549h557l-138 629q-4 29 -4 141h-6l-14 -47q-16 -51 -39 -94z" />
<glyph unicode="B" horiz-adv-x="1316" d="M59 41l242 1372q8 41 47 41h576q186 0 276 -102q64 -73 64 -186q0 -43 -9 -91q-45 -242 -249 -321v-4q111 -33 157 -129q32 -64 32 -147q0 -44 -9 -93q-35 -184 -168 -285q-129 -96 -326 -96h-600q-41 0 -33 41zM225 139h488q272 0 319 267q6 35 6 66q0 80 -41 132 q-59 70 -190 70h-488zM342 807h453q260 0 307 256q7 38 7 70q0 182 -224 182h-453z" />
<glyph unicode="C" horiz-adv-x="1298" d="M94 494l86 483q41 242 207 373q168 133 440 133q430 0 478 -355q1 -6 1 -11q0 -28 -34 -40l-58 -20q-41 -10 -49 24q-18 137 -100 199q-84 66 -256 66q-416 0 -481 -375l-84 -484q-9 -48 -9 -91q0 -116 66 -187q90 -98 291 -98q324 0 452 268q18 30 42 30q8 0 16 -3 l61 -27q26 -7 26 -27q0 -10 -7 -24q-178 -356 -611 -357q-268 0 -395 142q-92 104 -92 266q0 55 10 115z" />
<glyph unicode="D" horiz-adv-x="1337" d="M59 41l242 1372q8 41 47 41h432q283 0 414 -151q96 -109 95 -277q0 -59 -11 -125l-66 -373q-45 -252 -221 -389q-176 -139 -461 -139h-438q-41 0 -33 41zM225 139h326q442 0 516 402l66 372q9 50 9 95q0 125 -73 202q-96 104 -311 105h-326z" />
<glyph unicode="E" horiz-adv-x="1171" d="M59 41l242 1372q8 41 47 41h830q41 0 34 -41l-12 -57q-6 -41 -45 -41h-723l-88 -508h629q41 0 33 -41l-11 -57q-8 -41 -49 -41h-629l-92 -529h748q41 0 33 -41l-11 -57q-6 -41 -47 -41h-856q-41 0 -33 41z" />
<glyph unicode="F" horiz-adv-x="1148" d="M59 41l242 1372q8 41 47 41h830q41 0 34 -41l-12 -57q-6 -41 -45 -41h-723l-92 -531h621q41 0 32 -39l-10 -57q-6 -41 -47 -41h-621l-108 -606q-6 -41 -47 -41h-68q-41 0 -33 41z" />
<glyph unicode="G" horiz-adv-x="1339" d="M94 498l86 481q41 242 209 373q166 131 440 131q428 0 478 -353q1 -6 1 -11q0 -32 -32 -42l-64 -20q-43 -10 -47 24q-18 137 -100 199q-84 66 -258 66q-414 0 -479 -375l-84 -484q-9 -49 -9 -92q0 -115 64 -186q90 -100 293 -100q197 0 323 96q123 94 154 256l25 153 h-394q-41 0 -34 41l10 58q10 41 49 41h500q36 0 36 -31q0 -5 -1 -10l-48 -262q-39 -225 -204 -351q-168 -129 -439 -129q-270 0 -395 144q-91 103 -91 264q0 56 11 119z" />
<glyph unicode="H" horiz-adv-x="1398" d="M59 41l242 1372q8 41 47 41h68q36 0 36 -31q0 -5 -1 -10l-107 -606h778l107 606q8 41 47 41h67q36 0 36 -31q0 -5 -1 -10l-243 -1372q-6 -41 -48 -41h-67q-41 0 -33 41l109 627h-779l-110 -627q-6 -41 -47 -41h-68q-41 0 -33 41z" />
<glyph unicode="I" horiz-adv-x="471" d="M59 41l242 1372q8 41 47 41h68q36 0 36 -31q0 -5 -1 -10l-244 -1372q-6 -41 -47 -41h-68q-41 0 -33 41z" />
<glyph unicode="J" horiz-adv-x="1165" d="M-10 352q-1 7 -1 13q0 30 31 41l64 20q41 14 47 -25q12 -292 293 -292h2q346 0 408 346l170 960q6 39 45 39h69q41 0 33 -39l-172 -977q-84 -469 -567 -469q-401 0 -422 383z" />
<glyph unicode="K" horiz-adv-x="1247" d="M59 41l242 1372q8 41 47 41h68q36 0 36 -31q0 -5 -1 -10l-109 -608h242l567 614q31 35 86 35h74q23 0 26 -12q4 -10 -12 -27l-600 -643q150 -45 209 -225l170 -506q14 -41 -29 -41h-65q-61 0 -72 37l-150 455q-33 98 -81 137q-57 41 -175 41h-213l-112 -629 q-6 -41 -47 -41h-68q-41 0 -33 41z" />
<glyph unicode="L" horiz-adv-x="1052" d="M59 41l242 1372q8 41 47 41h68q36 0 36 -31q0 -5 -1 -10l-226 -1274h693q41 0 32 -41l-10 -57q-6 -41 -47 -41h-801q-41 0 -33 41z" />
<glyph unicode="M" horiz-adv-x="1642" d="M59 41l242 1372q8 41 47 41h51q41 0 52 -33l350 -899l663 897q23 35 62 35h61q36 0 36 -29q0 -5 -1 -12l-242 -1372q-8 -41 -49 -41h-61q-41 0 -33 41l147 836q31 166 93 362h-11q-94 -160 -213 -319l-407 -549q-20 -31 -53 -31h-35q-33 0 -43 31l-219 555 q-49 123 -95 315h-8q-8 -180 -41 -367l-147 -833q-8 -41 -47 -41h-66q-41 0 -33 41z" />
<glyph unicode="N" horiz-adv-x="1417" d="M59 41l242 1372q8 41 47 41h60q31 0 41 -20l475 -920q37 -70 77 -182q41 -111 50 -127h8q4 23 16 153q10 135 27 228l145 829q8 39 47 39h66q36 0 36 -29q0 -5 -1 -12l-242 -1372q-8 -41 -49 -41h-66q-29 0 -39 23l-481 938q-33 63 -69 172q-37 104 -46 120h-8 q-4 -20 -14 -145q-10 -131 -25 -217l-149 -850q-8 -41 -49 -41h-66q-41 0 -33 41z" />
<glyph unicode="O" horiz-adv-x="1361" d="M96 496l86 483q41 242 209 373t440 131q268 0 394 -144q91 -104 91 -266q0 -56 -11 -119l-84 -481q-90 -502 -646 -502q-270 0 -397 144q-93 103 -93 264q0 55 11 117zM246 485q-9 -48 -9 -90q0 -115 66 -186q90 -100 291 -100q412 0 479 376l86 484q8 47 8 88 q0 117 -65 190q-90 98 -291 99q-416 0 -479 -377z" />
<glyph unicode="P" horiz-adv-x="1275" d="M59 41l242 1372q8 41 47 41h549q213 0 315 -129q74 -94 75 -234q0 -52 -11 -110q-39 -209 -182 -324q-138 -110 -353 -110h-4h-440l-90 -506q-6 -41 -47 -41h-68q-41 0 -33 41zM322 684h426q150 0 249 84q100 84 127 231q8 41 8 77q0 94 -51 155q-72 84 -221 84h-428z " />
<glyph unicode="Q" horiz-adv-x="1388" d="M96 496l86 483q41 242 209 373t440 131q268 0 394 -144q91 -104 91 -266q0 -56 -11 -119l-84 -481q-37 -219 -177 -342l109 -162q7 -11 7 -22q0 -19 -21 -35l-52 -37q-17 -14 -31 -14q-15 0 -26 18l-112 170q-139 -78 -343 -78q-270 0 -397 144q-93 103 -93 264 q0 55 11 117zM246 485q-9 -48 -9 -90q0 -114 66 -186q90 -100 291 -100q412 0 479 376l86 484q8 47 8 88q0 118 -65 190q-90 98 -291 99q-416 0 -479 -377z" />
<glyph unicode="R" horiz-adv-x="1314" d="M59 41l242 1372q8 41 47 41h582q201 0 295 -117q67 -84 67 -211q0 -50 -10 -106q-57 -338 -397 -391q74 -37 108 -142l150 -446q14 -41 -29 -41h-65q-63 0 -74 37l-129 395q-33 100 -82 137q-55 41 -172 41h-283l-102 -569q-6 -41 -47 -41h-68q-41 0 -33 41zM332 750h459 q289 0 339 280q7 39 7 73q0 85 -45 138q-61 74 -201 74h-459z" />
<glyph unicode="S" horiz-adv-x="1267" d="M29 324q-1 6 -1 12q0 29 33 43l68 22q37 12 47 -24q70 -266 369 -266q408 0 454 282q5 26 5 49q0 103 -91 154q-74 43 -264 63q-236 27 -346 105q-125 85 -125 245q0 40 8 85q70 389 594 389q365 0 467 -314q2 -7 2 -14q0 -25 -30 -37l-64 -28q-39 -12 -49 20 q-76 231 -348 231q-379 0 -422 -260q-4 -25 -5 -47q0 -107 99 -162q82 -47 279 -69q227 -27 331 -103q115 -84 115 -239q0 -41 -8 -86q-72 -403 -617 -404q-424 0 -501 353z" />
<glyph unicode="T" horiz-adv-x="1105" d="M152 1356l12 57q6 41 47 41h977q41 0 33 -41l-11 -57q-6 -41 -47 -41h-413l-226 -1274q-8 -41 -47 -41h-67q-36 0 -36 31q0 5 1 10l225 1274h-414q-41 0 -34 41z" />
<glyph unicode="U" horiz-adv-x="1398" d="M129 510l162 903q8 41 47 41h68q41 0 32 -41l-162 -919q-8 -49 -9 -93q0 -116 61 -188q84 -104 282 -104q403 0 469 385l164 919q6 41 47 41h68q41 0 33 -41l-164 -934q-92 -510 -637 -510q-268 0 -389 152q-84 104 -84 263q0 59 12 126z" />
<glyph unicode="V" horiz-adv-x="1269" d="M164 1415q-10 39 33 39h61q55 0 64 -37l210 -1075q6 -35 13 -98q6 -57 8 -66h6q6 8 29 64q29 63 47 100l594 1075q18 37 74 37h65q41 0 18 -39l-772 -1380q-18 -35 -57 -35h-63q-39 0 -45 33z" />
<glyph unicode="W" horiz-adv-x="1798" d="M184 1415q-2 39 33 39h80q47 0 49 -37l76 -989v-219h8q59 172 80 219l444 967q16 37 62 37h61q45 0 47 -37l99 -969q6 -70 6 -217h6q8 20 35 98l41 117l428 993q12 37 59 37h76q35 0 20 -39l-606 -1380q-14 -35 -57 -35h-70q-45 0 -45 33l-100 991q-4 80 -4 153v48h-8 q-35 -111 -76 -199l-453 -991q-14 -35 -57 -35h-66q-45 0 -47 33z" />
<glyph unicode="X" horiz-adv-x="1261" d="M-61 43l622 696l-364 676q-23 39 24 39h78q51 0 74 -35l303 -561l502 561q29 35 77 35h86q29 0 29 -14q0 -9 -14 -25l-606 -676l378 -696q12 -16 7 -31q-8 -12 -31 -12h-80q-57 0 -72 37l-319 586l-514 -586q-31 -37 -84 -37h-86q-27 0 -27 13q0 11 17 30z" />
<glyph unicode="Y" horiz-adv-x="1277" d="M170 1413q-14 41 29 41h80q57 0 71 -37l312 -674l550 674q25 37 82 37h80q29 0 29 -15q0 -10 -12 -26l-682 -823l-97 -549q-8 -41 -49 -41h-67q-41 0 -33 41l96 551z" />
<glyph unicode="Z" horiz-adv-x="1146" d="M-41 41l10 55q2 25 23 47l1018 1172h-777q-41 0 -34 41l12 57q6 41 47 41h920q41 0 34 -41l-10 -55q-4 -25 -22 -45l-1020 -1174h807q43 0 32 -39l-10 -59q-6 -41 -47 -41h-950q-41 0 -33 41z" />
<glyph unicode="[" horiz-adv-x="552" d="M-18 -262l348 1978q8 37 43 37h315q37 0 29 -37l-10 -51q-4 -37 -41 -37h-217l-320 -1802h219q37 0 29 -35l-8 -53q-10 -37 -43 -37h-316q-37 0 -28 37z" />
<glyph unicode="\" horiz-adv-x="829" d="M207 1419q-6 35 31 35h63q37 0 45 -35l293 -1507q6 -35 -31 -35h-63q-35 0 -43 35z" />
<glyph unicode="]" horiz-adv-x="552" d="M-127 -262l8 53q8 35 43 35h217l320 1802h-219q-35 0 -31 37l10 51q8 37 43 37h314q35 0 30 -37l-350 -1978q-8 -37 -43 -37h-313q-39 0 -29 37z" />
<glyph unicode="^" horiz-adv-x="1206" d="M203 1110l512 516q33 33 57 33h39q27 0 45 -33l336 -516q29 -45 -27 -45h-61q-47 0 -70 33l-264 420h-8l-410 -420q-31 -33 -78 -33h-59q-57 0 -12 45z" />
<glyph unicode="_" horiz-adv-x="1036" d="M-70 -92l9 51q8 41 47 41h845q41 0 33 -41l-8 -51q-8 -41 -47 -41h-846q-41 0 -33 41z" />
<glyph unicode="`" horiz-adv-x="526" d="M209 1405q-29 12 2 43l33 35q31 31 69 2l295 -207q20 -14 -6 -41l-18 -18q-16 -18 -47 -5z" />
<glyph unicode="a" horiz-adv-x="1089" d="M61 401l52 293q68 389 508 389q205 0 335 -61q47 -23 58 -41q6 -11 5 -32q0 -17 -3 -40l-146 -829q-8 -35 -51 -49q-213 -59 -422 -60q-203 0 -291 121q-56 79 -56 197q0 52 11 112zM197 391q-8 -46 -9 -85q0 -210 240 -210q168 0 315 49l127 717v8q0 33 -32 48 q-101 38 -230 38q-162 0 -246 -63q-88 -68 -114 -217z" />
<glyph unicode="b" horiz-adv-x="1097" d="M45 145l236 1334q6 37 45 37h63q37 0 29 -37l-82 -459q211 63 336 63q344 0 344 -300q0 -51 -10 -111l-54 -293q-70 -408 -512 -408q-209 0 -336 62q-47 23 -57 41q-6 11 -6 32q0 16 4 39zM190 190q0 -4 -1 -7q0 -31 32 -46q92 -41 232 -41q311 0 364 297l51 289 q7 40 7 74q0 205 -242 205q-141 0 -318 -68z" />
<glyph unicode="c" horiz-adv-x="1046" d="M57 385l54 303q72 395 510 395q336 0 378 -278q1 -6 1 -12q0 -33 -31 -41l-49 -15q-11 -4 -20 -4q-22 0 -28 29q-33 199 -270 199q-305 0 -354 -279l-55 -311q-6 -35 -6 -66q0 -84 46 -137q68 -76 216 -76q242 0 344 211q14 27 39 27q7 0 16 -2l53 -19q35 -14 14 -51 q-147 -287 -487 -287q-215 0 -311 113q-69 80 -69 205q0 45 9 96z" />
<glyph unicode="d" horiz-adv-x="1095" d="M59 391l54 293q70 399 473 399q147 0 313 -59l80 455q6 37 45 37h63q37 0 29 -37l-235 -1336q-14 -78 -101 -110q-154 -61 -362 -62q-369 0 -369 309q0 51 10 111zM195 383q-7 -40 -7 -74q0 -213 263 -213q137 0 254 39q39 16 47 53l125 709q-145 59 -289 59 q-289 0 -342 -286z" />
<glyph unicode="e" horiz-adv-x="1071" d="M57 399l49 267q35 201 173 309q136 108 350 108h4q209 0 313 -98q76 -72 77 -181q0 -40 -11 -85q-59 -279 -482 -279q-164 0 -323 33l-19 -102q-7 -39 -6 -72q0 -209 264 -209q223 0 349 162q19 22 38 22q11 0 23 -8l39 -24q17 -10 17 -26q0 -15 -15 -34 q-160 -211 -471 -211q-221 0 -315 121q-63 82 -63 205q0 48 9 102zM225 584q158 -35 326 -35q283 0 328 186q8 31 8 58q0 70 -51 112q-72 59 -224 60q-150 0 -245 -80q-98 -80 -125 -221z" />
<glyph unicode="f" horiz-adv-x="714" d="M74 963l8 53q8 37 45 37h182l8 51q39 221 148 313q111 96 334 99h22q39 0 31 -37l-10 -49q-6 -37 -45 -37q-168 0 -242 -62q-72 -61 -100 -227l-9 -51h297q37 0 29 -37l-8 -53q-6 -37 -43 -37h-297l-156 -889q-8 -37 -45 -37h-63q-37 0 -29 37l156 889h-183q-37 0 -30 37 z" />
<glyph unicode="g" horiz-adv-x="1097" d="M-27 -285q-7 13 -7 24q0 23 32 36l45 22q14 7 25 7q19 0 32 -21q57 -164 256 -164q295 0 351 311l22 127q-172 -61 -328 -61q-205 0 -290 115q-58 77 -58 197q0 49 10 106l50 268q70 401 510 401q205 0 335 -61q47 -23 58 -41q6 -11 6 -32q0 -17 -4 -40l-172 -977 q-78 -438 -506 -438q-289 0 -367 221zM201 403q-8 -43 -8 -79q0 -201 239 -201h2q145 0 318 59l120 682v8q0 31 -30 46q-97 38 -232 38q-309 0 -364 -292z" />
<glyph unicode="h" horiz-adv-x="1126" d="M33 37l254 1442q6 37 45 37h63q37 0 29 -37l-78 -453q131 57 330 57q346 0 347 -298q0 -51 -11 -111l-113 -637q-8 -37 -43 -37h-65q-37 0 -29 37l112 641q7 40 7 74q0 204 -242 204h-2q-186 0 -315 -59l-150 -860q-8 -37 -45 -37h-64q-37 0 -30 37z" />
<glyph unicode="i" horiz-adv-x="407" d="M33 37l172 979q8 37 45 37h63q37 0 29 -37l-170 -979q-8 -37 -45 -37h-64q-37 0 -30 37zM250 1339l2 15q14 76 90 76h10q45 0 58 -17q14 -16 6 -59l-2 -15q-14 -75 -88 -75h-2h-11q-45 0 -57 16q-14 16 -6 59z" />
<glyph unicode="j" horiz-adv-x="407" d="M-375 -434l8 53q8 39 45 39q287 0 347 326l180 1032q8 37 45 37h63q37 0 29 -37l-180 -1034q-80 -453 -506 -453q-39 0 -31 37zM250 1339l2 15q14 76 90 76h10q45 0 58 -17q14 -16 6 -59l-2 -15q-14 -75 -88 -75h-2h-11q-45 0 -57 16q-14 16 -6 59z" />
<glyph unicode="k" horiz-adv-x="1034" d="M33 39l254 1440q6 37 47 37h59q39 0 31 -37l-154 -875h215l404 420q25 29 78 29h57q33 0 33 -15q0 -10 -17 -28l-419 -432q104 -31 147 -166l119 -369q3 -9 3 -17q0 -26 -34 -26h-59q-47 0 -58 33l-98 325q-37 123 -176 123h-215l-78 -442q-8 -39 -47 -39h-59 q-39 0 -33 39z" />
<glyph unicode="l" horiz-adv-x="421" d="M39 37l252 1442q8 37 45 37h63q37 0 31 -37l-254 -1442q-8 -37 -45 -37h-63q-37 0 -29 37z" />
<glyph unicode="m" horiz-adv-x="1671" d="M29 37l151 864q16 84 99 117q154 65 330 65h5q178 0 252 -90q207 90 385 90q317 0 317 -281q0 -54 -12 -118l-112 -647q-8 -37 -45 -37h-64q-37 0 -30 37l116 651q7 40 7 75q0 193 -216 193q-137 0 -290 -69q15 -43 15 -98q0 -43 -9 -95l-115 -657q-8 -37 -45 -37h-63 q-37 0 -29 37l115 651q7 41 7 75q0 193 -223 193q-121 0 -221 -41q-35 -14 -45 -55l-143 -823q-8 -37 -43 -37h-66q-37 0 -28 37z" />
<glyph unicode="n" horiz-adv-x="1120" d="M29 37l151 864q16 80 99 113q178 69 391 69q205 0 291 -110q56 -74 55 -191q0 -51 -10 -110l-111 -635q-8 -37 -45 -37h-64q-37 0 -30 37l112 641q7 41 7 76q0 202 -242 202h-2q-147 0 -279 -45q-33 -12 -43 -51l-143 -823q-8 -37 -43 -37h-66q-37 0 -28 37z" />
<glyph unicode="o" horiz-adv-x="1103" d="M53 350l64 361q31 174 168 274q135 98 344 98q211 0 315 -104q79 -79 78 -202q0 -36 -6 -77l-64 -360q-31 -174 -166 -272q-133 -96 -346 -97q-209 0 -313 103q-81 79 -81 202q0 35 7 74zM190 346q-4 -25 -5 -48q0 -83 57 -134q72 -68 215 -68q145 0 241 68 q96 66 117 182l64 361q4 25 4 49q0 83 -56 135q-71 67 -213 67h-4q-143 0 -239 -67q-96 -68 -117 -184z" />
<glyph unicode="p" horiz-adv-x="1097" d="M-51 -414l233 1323q14 82 101 115q161 59 370 59q363 0 363 -306q0 -51 -10 -111l-54 -295q-70 -399 -489 -400q-135 0 -295 70l-80 -455q-8 -37 -45 -37h-63q-37 0 -31 37zM190 168q143 -72 285 -72q291 0 342 287l51 287q7 40 7 74q0 212 -259 212h-2q-137 0 -254 -38 q-41 -16 -49 -56z" />
<glyph unicode="q" horiz-adv-x="1099" d="M61 379l54 293q72 411 510 411h2q201 0 336 -61q45 -23 57 -41q6 -13 6 -34q0 -16 -4 -38l-234 -1323q-8 -37 -45 -37h-63q-37 0 -31 37l82 457q-188 -72 -336 -72q-345 0 -345 292q0 53 11 116zM199 373q-8 -42 -8 -77q0 -199 243 -200q143 0 320 72l120 694q1 7 1 13 q0 29 -31 43q-98 38 -224 38h-6q-311 0 -364 -294z" />
<glyph unicode="r" horiz-adv-x="700" d="M29 37l153 868q16 82 97 115q168 59 380 63h64q39 0 33 -36l-11 -54q-6 -37 -43 -37h-67q-154 0 -279 -43q-39 -16 -45 -53l-143 -823q-8 -37 -45 -37h-64q-37 0 -30 37z" />
<glyph unicode="s" horiz-adv-x="1011" d="M4 225q-1 5 -1 10q0 30 34 39l57 19q31 10 43 -23q41 -178 283 -178q287 0 321 187q3 18 3 34q0 73 -60 107q-53 31 -207 47q-195 20 -270 68q-92 58 -92 180q0 32 6 69q51 299 454 299q315 0 377 -223q3 -9 3 -17q0 -25 -29 -36l-49 -21q-33 -12 -50 19 q-45 153 -267 153h-3q-266 0 -301 -180q-3 -20 -3 -38q0 -78 64 -111q49 -27 215 -41q186 -18 267 -78q81 -59 81 -171q0 -31 -6 -67q-53 -301 -471 -301q-346 0 -399 254z" />
<glyph unicode="t" horiz-adv-x="722" d="M66 963l10 53q6 37 43 37h194l37 209q6 37 43 36h64q37 0 30 -36l-36 -209h294q37 0 31 -37l-10 -53q-6 -37 -41 -37h-297l-94 -533q-11 -66 -12 -115q0 -85 34 -122q47 -53 219 -54q39 0 31 -39l-10 -55q-6 -37 -43 -37h-21q-225 0 -299 84q-52 58 -52 180q0 67 16 154 l94 537h-195q-37 0 -30 37z" />
<glyph unicode="u" horiz-adv-x="1122" d="M88 381l111 635q8 37 45 37h63q37 0 29 -37l-113 -639q-7 -40 -6 -74q0 -207 244 -207q154 0 276 45q41 18 47 58l144 817q6 37 43 37h63q39 0 31 -37l-152 -864q-16 -80 -98 -113q-174 -68 -393 -68q-345 0 -345 294q0 53 11 116z" />
<glyph unicode="v" horiz-adv-x="1026" d="M98 1010q-2 7 -2 13q0 30 41 30h45q49 0 58 -37l161 -676q6 -37 15 -107l10 -71h6q6 10 35 69q29 66 51 107l397 678q23 37 74 37h51q32 0 32 -18q0 -9 -9 -23l-584 -983q-20 -35 -59 -35h-37q-39 0 -47 35z" />
<glyph unicode="w" horiz-adv-x="1490" d="M115 1010q-1 5 -1 10q0 33 40 33h45q55 0 55 -37l76 -635l4 -123q0 -74 4 -90h4q6 12 37 90q31 82 51 125l307 610q16 37 68 37h26q49 0 54 -37l88 -604q8 -51 10 -129l4 -92h6q8 16 35 88q31 84 49 129l297 631q16 37 72 37h47q28 0 28 -18q0 -10 -8 -25l-469 -983 q-16 -33 -57 -33h-47q-43 0 -45 33l-92 669q-4 41 -6 107q-2 57 -4 67h-5q-6 -12 -28 -67l-45 -107l-330 -669q-18 -33 -55 -33h-43q-41 0 -43 33z" />
<glyph unicode="x" horiz-adv-x="991" d="M-63 41l458 500l-272 471q-4 10 -4 17q0 24 41 24h49q45 0 59 -31l224 -381l352 381q29 31 69 31h70q31 0 31 -14q0 -10 -15 -27l-436 -471l287 -500q7 -12 7 -20q0 -21 -42 -21h-51q-43 0 -59 31l-236 411l-375 -411q-27 -31 -71 -31h-68q-33 0 -33 15q0 10 15 26z" />
<glyph unicode="y" horiz-adv-x="1126" d="M-6 -285q-5 12 -5 23q0 24 29 37l45 22q15 7 27 7q20 0 31 -21q61 -164 258 -164q299 0 354 311l21 121q-193 -53 -330 -53q-345 0 -345 294q0 53 11 116l107 608q6 37 43 37h65q37 0 29 -37l-109 -613q-7 -41 -7 -76q0 -204 245 -204h2q129 0 311 55l148 838q8 37 45 37 h63q37 0 29 -37l-189 -1079q-78 -442 -514 -443q-287 0 -364 221z" />
<glyph unicode="z" horiz-adv-x="921" d="M-45 37l10 51q2 20 21 41l747 799h-575q-37 0 -29 37l8 51q6 37 43 37h717q37 0 29 -37l-8 -51q-2 -14 -23 -43l-750 -797h598q35 0 29 -37l-8 -51q-8 -37 -43 -37h-735q-37 0 -31 37z" />
<glyph unicode="{" horiz-adv-x="653" d="M23 690l12 68q6 37 37 37h20q170 0 203 196l88 498q25 137 94 201q74 63 215 63h96q37 0 29 -37l-8 -53q-6 -37 -43 -37h-92q-135 0 -160 -143l-90 -510q-33 -190 -182 -250q131 -51 94 -248l-88 -506q-25 -143 108 -143h93q33 0 30 -37l-10 -53q-8 -37 -43 -37h-94 q-145 0 -195 63q-47 61 -22 199l86 496q35 197 -133 196h-21q-31 0 -24 37z" />
<glyph unicode="|" horiz-adv-x="407" d="M-16 -264l348 1980q8 37 43 37h57q39 0 31 -37l-348 -1980q-8 -37 -45 -37h-58q-37 0 -28 37z" />
<glyph unicode="}" horiz-adv-x="651" d="M-129 -264l10 53q2 37 43 37h90q135 0 160 143l88 506q37 199 182 250q-125 63 -92 248l88 510q29 143 -108 143h-90q-37 0 -31 37l8 53q8 37 45 37h94q141 0 193 -63q47 -63 22 -201l-88 -498q-33 -197 136 -196h20q31 0 25 -37l-13 -68q-6 -37 -39 -37h-18 q-168 0 -205 -196l-86 -496q-25 -137 -94 -199q-72 -63 -217 -63h-92q-39 0 -31 37z" />
<glyph unicode="~" horiz-adv-x="1142" d="M131 608q-23 31 10 58q127 100 260 100q84 0 187 -41q102 -43 164 -43q88 0 182 70q29 25 53 -2l31 -35q23 -29 -10 -58q-133 -100 -263 -100q-84 0 -186 43q-102 41 -164 41q-88 0 -178 -70q-31 -25 -55 2z" />
<glyph unicode="&#xa1;" horiz-adv-x="401" d="M-57 -430l211 1098q8 37 43 37h36q37 0 31 -37l-176 -1098q-6 -37 -45 -37h-72q-37 0 -28 37zM174 967l2 12q14 82 96 82h13q45 0 59 -17q14 -18 6 -65l-2 -12q-14 -82 -96 -82h-12q-45 0 -60 18q-14 16 -6 64z" />
<glyph unicode="&#xa2;" horiz-adv-x="1087" d="M68 387l53 303q66 354 442 387l25 135q6 37 45 37h63q37 0 31 -37l-25 -135q279 -23 310 -274q6 -37 -33 -51l-51 -17q-39 -12 -49 25q-27 201 -267 201q-305 0 -354 -277l-55 -313q-23 -131 41 -203q68 -76 215 -76q242 0 344 211q18 37 55 25l53 -17q35 -14 15 -53 q-129 -258 -416 -281l-21 -112q-8 -37 -45 -37h-63q-39 0 -31 37l21 110q-180 14 -258 127q-76 106 -45 285z" />
<glyph unicode="&#xa3;" horiz-adv-x="1296" d="M-14 41l10 59q4 33 31 33h32q147 16 185 215l47 281h-146q-41 0 -32 39l8 49q8 41 47 41h147l62 346q29 168 151 268q135 111 353 111q348 0 407 -318q6 -39 -33 -51l-59 -20q-35 -12 -49 24q-27 125 -94 178q-66 49 -189 50q-293 0 -336 -261l-59 -327h526q41 0 35 -41 l-8 -49q-8 -39 -49 -39h-527l-49 -279q-27 -145 -139 -219l-2 -6q154 14 266 14h549q41 0 33 -41l-10 -57q-6 -41 -47 -41h-1031q-39 0 -30 41z" />
<glyph unicode="&#xa4;" horiz-adv-x="1228" d="M72 252q-23 27 8 51l133 113q-76 117 -51 272q27 156 139 275l-92 108q-20 27 8 53l53 45q29 25 52 0l92 -108q135 92 288 92q152 0 256 -92l129 110q31 25 54 0l37 -45q25 -27 -9 -51l-129 -110q78 -125 52 -277q-25 -150 -138 -272l88 -109q23 -25 -8 -53l-51 -43 q-31 -29 -53 0l-90 108q-139 -96 -289 -96q-154 0 -260 94l-129 -110q-29 -27 -53 0zM289 690q-25 -141 57 -239q80 -100 221 -101q141 0 258 101q115 98 140 239q24 142 -56 240q-82 96 -223 96t-256 -96q-117 -98 -141 -240z" />
<glyph unicode="&#xa5;" horiz-adv-x="1318" d="M184 346l6 37q6 37 43 37h312l30 186h-309q-37 0 -28 37l6 37q6 37 41 37h256l-336 696q-18 41 26 41h70q59 0 74 -37l303 -651l532 651q27 37 84 37h74q45 0 14 -41l-583 -696h254q37 0 28 -37l-6 -37q-6 -37 -41 -37h-309l-33 -186h309q35 0 29 -37l-8 -37 q-2 -37 -41 -37h-309l-47 -268q-6 -41 -47 -41h-68q-41 0 -33 41l47 268h-311q-35 0 -29 37z" />
<glyph unicode="&#xa6;" horiz-adv-x="428" d="M-6 -262l141 797q6 37 41 36h60q37 0 30 -36l-141 -797q-8 -37 -43 -37h-59q-37 0 -29 37zM203 920l139 796q8 37 43 37h59q37 0 29 -37l-139 -796q-8 -37 -43 -37h-60q-37 0 -28 37z" />
<glyph unicode="&#xa7;" horiz-adv-x="1218" d="M-25 -115q-8 39 37 54l64 20q41 16 49 -27q41 -248 328 -247q352 0 393 235q23 127 -80 180q-63 31 -242 50q-231 25 -321 75q-147 82 -113 281q37 203 266 311q-180 78 -141 309q66 367 545 367q348 0 424 -326q12 -35 -31 -53l-55 -22q-41 -16 -54 22q-49 238 -309 238 q-330 0 -370 -236q-23 -127 77 -178q61 -33 236 -55q215 -27 305 -82q137 -86 104 -277q-33 -186 -235 -301q184 -78 143 -313q-66 -367 -557 -367q-403 0 -463 342zM244 520q-23 -127 80 -180q70 -35 245 -51l148 -19q190 84 219 244q20 119 -78 174q-68 37 -233 55 q-115 15 -142 21q-207 -72 -239 -244z" />
<glyph unicode="&#xa8;" horiz-adv-x="899" d="M309 1325l4 16q10 66 78 66h12q39 0 52 -14q10 -14 4 -52l-2 -16q-14 -68 -80 -68h-12q-66 0 -56 68zM707 1325l2 16q10 66 79 66h13q66 0 55 -66l-2 -16q-14 -68 -80 -68h-10q-72 0 -57 68z" />
<glyph unicode="&#xa9;" horiz-adv-x="1650" d="M111 719q53 311 303 522q250 213 559 213t485 -213q174 -213 121 -522q-53 -311 -301 -522q-248 -213 -557 -213t-485 215q-178 213 -125 520zM199 719q-47 -274 106 -461q154 -188 428 -188q272 0 492 188q219 186 266 461q49 277 -105 463q-152 184 -425 184 q-274 0 -494 -184q-221 -188 -268 -463zM502 598l41 236q53 287 368 286q244 0 273 -200q2 -31 -25 -39l-39 -13q-31 -10 -33 19q-12 78 -53 108q-43 33 -141 33q-217 0 -252 -199l-41 -235q-35 -199 182 -199q174 0 244 150q18 29 45 18l31 -12q27 -10 14 -39 q-106 -209 -348 -209q-152 0 -221 80q-68 78 -45 215z" />
<glyph unicode="&#xaa;" horiz-adv-x="747" d="M156 911q35 184 297 185q102 0 151 -9l6 39q27 154 -123 154q-96 0 -172 -82q-23 -12 -41 -6l-28 16q-33 20 -8 45q104 119 268 119q254 0 209 -258l-43 -252q-12 -74 -84 -104q-70 -31 -203 -31q-262 0 -229 184zM260 907q-14 -94 135 -94q86 0 131 18q37 14 41 50 l21 127q-98 8 -156 8q-152 0 -172 -109z" />
<glyph unicode="&#xab;" horiz-adv-x="1153" d="M63 514q-18 23 9 47l479 410q29 25 47 0l33 -45q18 -25 -10 -47l-402 -347l281 -339q20 -25 -8 -48l-46 -36q-29 -23 -47 0zM532 514q-18 23 9 47l479 410q29 23 47 0l33 -45q16 -25 -10 -47l-404 -347l281 -339q20 -25 -9 -48l-43 -36q-31 -20 -49 0z" />
<glyph unicode="&#xac;" horiz-adv-x="1183" d="M141 705l11 55q6 37 43 37h852q39 0 32 -37l-80 -436q-6 -37 -41 -37h-65q-37 0 -31 37l62 344h-752q-37 0 -31 37z" />
<glyph unicode="&#xad;" horiz-adv-x="864" d="M109 518l10 51q8 41 47 41h528q43 0 35 -41l-10 -51q-6 -41 -47 -41h-529q-41 0 -34 41z" />
<glyph unicode="&#xae;" horiz-adv-x="983" d="M168 1057q29 165 160 280q135 117 307 117q162 0 260 -117q96 -117 68 -280q-29 -166 -158 -281q-133 -117 -305 -117q-164 0 -262 117q-96 117 -70 281zM229 1057q-24 -140 58 -240t223 -100q147 0 260 100q111 96 135 240q25 139 -55 239q-82 98 -221 99 q-150 0 -264 -99q-111 -96 -136 -239zM377 864l65 379q2 20 27 21h164q66 0 98 -35q35 -37 25 -101q-18 -102 -115 -124l55 -132q12 -23 -16 -22h-25q-16 0 -24 14l-51 133h-119l-23 -133q-2 -14 -20 -14h-29q-14 0 -12 14zM471 1053h127q82 0 94 77q12 74 -67 74h-129z" />
<glyph unicode="&#xaf;" horiz-adv-x="720" d="M219 1319l6 31q4 35 41 34h482q35 0 30 -34l-6 -31q-4 -35 -41 -35h-483q-33 0 -29 35z" />
<glyph unicode="&#xb0;" horiz-adv-x="788" d="M174 1141q20 131 125 219q102 86 233 86q129 0 205 -90q76 -92 56 -223q-21 -126 -125 -218q-104 -90 -232 -90q-131 0 -207 95q-78 92 -55 221zM285 1137q-15 -85 32 -142q49 -57 132 -57q82 0 149 59q68 57 82 140q14 82 -33 139t-129 57t-149 -57q-68 -57 -84 -139z " />
<glyph unicode="&#xb1;" horiz-adv-x="1300" d="M113 291l6 39q8 41 47 41h887q41 0 32 -41l-6 -39q-8 -41 -47 -41h-887q-41 0 -32 41zM201 791l6 38q8 41 47 41h381l43 238q6 41 47 41h45q41 0 33 -41l-41 -238h379q41 0 33 -41l-7 -38q-8 -41 -47 -41h-379l-43 -230q-6 -41 -47 -41h-45q-41 0 -33 41l41 230h-381 q-41 0 -32 41z" />
<glyph unicode="&#xb2;" horiz-adv-x="716" d="M123 887l14 80q33 188 207 250l129 47q102 37 131 53q57 37 70 106q25 141 -135 142q-92 0 -154 -66q-18 -23 -35 -49q-23 -37 -16 -29q-23 -39 -55 -26l-33 10q-41 16 -19 51q123 219 332 219q131 0 195 -73q57 -68 39 -177q-27 -172 -283 -251l-129 -39 q-109 -39 -123 -127l-10 -52h418q37 0 30 -36l-6 -37q-8 -35 -43 -35h-491q-41 0 -33 39z" />
<glyph unicode="&#xb3;" horiz-adv-x="739" d="M147 1047q-8 39 27 51l39 12q39 12 47 -27q10 -78 47 -110q41 -35 133 -35q170 0 195 137q10 57 -17 94t-83 37h-123q-35 0 -31 37l6 31q6 39 45 39h113q113 0 135 121q23 137 -127 137q-160 0 -231 -146q-23 -41 -62 -24l-24 8q-33 14 -15 51q102 215 346 215 q123 0 185 -65q57 -63 41 -168q-20 -123 -129 -174q111 -66 84 -209q-37 -227 -326 -228q-246 0 -275 216z" />
<glyph unicode="&#xb4;" horiz-adv-x="526" d="M180 1239q-18 27 10 41l367 205q51 27 70 -2l22 -37q23 -31 -12 -43l-395 -191q-37 -14 -47 2z" />
<glyph unicode="&#xb5;" horiz-adv-x="1120" d="M-53 -414l252 1430q8 37 45 37h63q37 0 29 -37l-113 -641q-47 -281 238 -281q147 0 274 45q39 16 49 58l142 819q8 37 45 37h63q37 0 31 -37l-152 -864q-14 -78 -98 -115q-176 -68 -354 -68q-217 0 -281 156l-94 -539q-8 -37 -45 -37h-66q-35 0 -28 37z" />
<glyph unicode="&#xb6;" horiz-adv-x="884" d="M193 1182q20 127 110 200q88 72 215 72h324q39 0 30 -37l-274 -1562q-8 -37 -45 -37h-55q-37 0 -31 37l256 1460h-111l-256 -1460q-6 -37 -43 -37h-55q-37 0 -31 37l185 1040q-119 2 -181 84q-61 80 -38 203z" />
<glyph unicode="&#xb7;" horiz-adv-x="436" d="M117 551l2 14q14 82 96 82h12q45 0 60 -18q14 -16 6 -64l-2 -14q-16 -80 -96 -80h-13q-47 0 -59 16q-14 18 -6 64z" />
<glyph unicode="&#xb8;" horiz-adv-x="514" d="M-117 -424l6 39q4 27 23 14q66 -49 145 -49q143 0 164 115q14 88 -110 88q-43 0 -70 -8q-37 -2 -16 35l108 190h86l-86 -158q33 4 51 4q88 0 129 -45q39 -45 23 -118q-45 -188 -277 -189q-98 0 -157 41q-23 12 -19 41z" />
<glyph unicode="&#xb9;" horiz-adv-x="548" d="M178 1440q-12 33 27 55l297 154q23 10 51 10h20q43 0 37 -39l-129 -731q-8 -41 -47 -41h-37q-41 0 -32 41l110 622l-231 -114q-39 -20 -54 12z" />
<glyph unicode="&#xba;" horiz-adv-x="759" d="M166 983l31 154q39 236 311 235q133 0 194 -69q57 -68 37 -185l-28 -153q-41 -236 -316 -236q-131 0 -192 70q-59 68 -37 184zM276 969q-23 -139 138 -140q160 0 186 140l29 164q23 139 -137 139q-162 0 -185 -139z" />
<glyph unicode="&#xbb;" horiz-adv-x="1157" d="M27 156q-16 23 8 47l403 340l-284 344q-16 25 10 47l47 39q29 25 47 0l338 -412q18 -23 -8 -47l-475 -403q-31 -25 -50 0zM496 156q-18 23 8 47l401 340l-282 344q-20 25 10 47l49 37q29 20 47 0l336 -410q16 -23 -8 -47l-473 -401q-29 -23 -49 0z" />
<glyph unicode="&#xbc;" horiz-adv-x="1705" d="M174 1249q-12 33 29 56l297 151q20 12 51 12h18q45 0 37 -38l-129 -732q-6 -41 -47 -41h-37q-41 0 -33 41l111 623l-229 -115q-41 -20 -56 13zM307 12q-6 12 8 29l1014 1378q23 35 74 35h53q49 0 21 -39l-1012 -1378q-27 -37 -82 -37h-49q-20 0 -27 12zM915 246l5 26 q8 31 20 43l469 473q23 23 55 23h52q35 0 30 -37l-84 -465h82q35 0 31 -33l-6 -34q-8 -33 -41 -33h-82l-31 -174q-8 -35 -39 -35h-47q-33 0 -26 35l30 174h-389q-35 0 -29 37zM1061 309h291l63 355z" />
<glyph unicode="&#xbd;" horiz-adv-x="1816" d="M174 1249q-12 33 29 56l297 151q20 12 51 12h18q45 0 37 -38l-129 -732q-6 -41 -47 -41h-37q-41 0 -33 41l111 623l-229 -115q-41 -20 -56 13zM309 41l1014 1378q25 35 74 35h55q45 0 21 -39l-1014 -1378q-27 -37 -82 -37h-47q-51 0 -21 41zM1053 39l14 80 q33 188 207 250l129 47q102 37 131 53q57 37 70 106q10 63 -23 101q-35 41 -113 41q-115 0 -204 -146q-25 -37 -56 -26l-32 12q-41 12 -19 51q123 219 332 219q131 0 194 -73q57 -70 39 -176q-27 -172 -282 -252l-129 -41q-109 -35 -123 -127l-10 -49h417q37 0 31 -37 l-6 -37q-8 -35 -43 -35h-492q-41 0 -32 39z" />
<glyph unicode="&#xbe;" horiz-adv-x="1800" d="M127 856q-6 39 29 51l39 13q39 12 47 -27q18 -145 180 -145q168 0 192 137q10 57 -14 94q-27 39 -84 39h-123q-23 0 -28 6q-4 6 -3 29l7 32q6 37 45 37h112q113 0 136 123q25 135 -127 135q-162 0 -232 -143q-23 -41 -61 -27l-25 11q-35 12 -14 49q102 217 346 217 q123 0 182 -66q57 -66 41 -170q-20 -123 -127 -174q111 -63 84 -209q-39 -225 -326 -225q-246 0 -276 213zM420 41l1014 1378q25 35 73 35h54q49 0 20 -39l-1012 -1378q-27 -37 -82 -37h-47q-51 0 -20 41zM1018 244l4 28q8 27 20 41l469 475q25 23 56 23h51q25 0 29 -6 q6 -6 2 -31l-84 -467h82q37 0 30 -31l-6 -34q-6 -33 -41 -33h-82l-30 -176q-8 -33 -39 -33h-47q-31 0 -27 33l31 176h-389q-33 0 -29 35zM1163 307h291l64 357z" />
<glyph unicode="&#xbf;" horiz-adv-x="1134" d="M-49 -39q33 188 160 305q57 55 231 156q203 123 229 270q8 39 45 39h48q41 0 32 -39q-37 -215 -288 -366q-139 -82 -191 -133q-94 -92 -119 -230q-23 -129 52 -211q78 -86 239 -86q285 0 430 252q25 39 58 25l49 -23q33 -18 16 -53q-190 -332 -567 -332q-227 0 -344 125 q-113 121 -80 301zM594 967l2 12q16 82 96 82h13q47 0 61 -17q12 -18 4 -65l-2 -12q-14 -82 -96 -82h-10q-47 0 -62 18q-14 16 -6 64z" />
<glyph unicode="&#xc0;" d="M-78 39l793 1386q18 35 57 35h62q43 0 47 -33l305 -1388q6 -39 -37 -39h-53q-61 0 -68 37l-84 389h-641l-221 -389q-20 -37 -80 -37h-59q-47 0 -21 39zM369 549h557l-138 629q-4 29 -4 141h-6l-14 -47q-16 -51 -39 -94zM643 1745q-31 12 2 43l35 35q29 31 70 4l299 -201 q25 -12 -5 -41l-18 -20q-18 -18 -49 -2z" />
<glyph unicode="&#xc1;" d="M-78 39l793 1386q18 35 57 35h62q43 0 47 -33l305 -1388q6 -39 -37 -39h-53q-61 0 -68 37l-84 389h-641l-221 -389q-20 -37 -80 -37h-59q-47 0 -21 39zM369 549h557l-138 629q-4 29 -4 141h-6l-14 -47q-16 -51 -39 -94zM610 1591q-16 27 11 41l368 207q49 23 70 -4 l22 -37q20 -31 -14 -43l-393 -190q-39 -12 -49 4z" />
<glyph unicode="&#xc2;" d="M-78 39l793 1386q18 35 57 35h62q43 0 47 -33l305 -1388q6 -39 -37 -39h-53q-61 0 -68 37l-84 389h-641l-221 -389q-20 -37 -80 -37h-59q-47 0 -21 39zM369 549h557l-138 629q-4 29 -4 141h-6l-14 -47q-16 -51 -39 -94zM498 1591l290 221q39 33 78 33h17q37 0 63 -33 l213 -221q20 -29 -24 -28h-50q-43 0 -59 20l-164 168l-231 -168q-23 -20 -62 -20h-59q-49 0 -12 28z" />
<glyph unicode="&#xc3;" d="M-78 39l793 1386q18 35 57 35h62q43 0 47 -33l305 -1388q6 -39 -37 -39h-53q-61 0 -68 37l-84 389h-641l-221 -389q-20 -37 -80 -37h-59q-47 0 -21 39zM369 549h557l-138 629q-4 29 -4 141h-6l-14 -47q-16 -51 -39 -94zM508 1602q37 205 194 204q80 0 156 -67 q76 -70 123 -70q84 0 100 113q6 25 29 24h41q25 0 18 -24q-33 -205 -194 -205q-74 0 -150 70q-76 68 -127 67q-84 0 -100 -112q-6 -25 -29 -25h-41q-27 0 -20 25z" />
<glyph unicode="&#xc4;" d="M-78 39l793 1386q18 35 57 35h62q43 0 47 -33l305 -1388q6 -39 -37 -39h-53q-61 0 -68 37l-84 389h-641l-221 -389q-20 -37 -80 -37h-59q-47 0 -21 39zM369 549h557l-138 629q-4 29 -4 141h-6l-14 -47q-16 -51 -39 -94zM571 1688l4 16q10 66 76 65h15q39 0 51 -14 q10 -14 4 -51l-2 -16q-12 -66 -80 -66h-12q-39 0 -49 14q-12 12 -7 52zM969 1688l2 16q10 66 80 65h12q66 0 55 -65l-2 -16q-12 -66 -80 -66h-12q-41 0 -51 14q-12 12 -4 52z" />
<glyph unicode="&#xc5;" d="M-78 39l780 1364q-133 43 -104 199q16 98 92 159q72 59 176 60q100 0 152 -62q51 -61 35 -164q-29 -152 -168 -190l301 -1366q6 -39 -37 -39h-53q-61 0 -68 37l-84 389h-641l-221 -389q-20 -37 -80 -37h-59q-47 0 -21 39zM369 549h557l-138 629q-4 29 -4 141h-6l-14 -47 q-16 -51 -39 -94zM684 1599q-23 -137 119 -137q141 0 164 137q10 64 -21 101t-94 37q-145 0 -168 -138z" />
<glyph unicode="&#xc6;" horiz-adv-x="1699" d="M-102 39l1083 1380q29 35 57 35h672q41 0 35 -41l-12 -57q-6 -41 -47 -41h-549l-88 -510h456q39 0 33 -41l-10 -57q-8 -41 -49 -41h-457l-92 -527h575q41 0 33 -41l-10 -57q-8 -41 -47 -41h-676q-41 0 -33 41l55 317h-510l-249 -321q-29 -37 -82 -37h-68q-43 0 -20 39z M412 481h438l131 736z" />
<glyph unicode="&#xc7;" horiz-adv-x="1298" d="M94 494l86 483q41 242 207 373q168 133 440 133q431 -1 478 -355q8 -37 -33 -51l-58 -20q-41 -10 -49 24q-18 137 -100 199q-84 66 -256 66q-416 0 -481 -375l-84 -484q-33 -180 57 -278t291 -98q324 0 452 268q23 39 58 27l61 -27q39 -10 19 -51q-166 -332 -547 -355 l-72 -135q23 6 51 6q90 0 129 -45t23 -121q-45 -186 -277 -186q-98 0 -157 41q-23 12 -19 41l6 39q4 27 23 14q66 -49 145 -49q143 0 166 115q12 88 -112 88q-43 0 -68 -8q-41 -6 -18 34l94 164q-256 6 -377 148q-119 139 -78 375z" />
<glyph unicode="&#xc8;" horiz-adv-x="1171" d="M59 41l242 1372q8 41 47 41h830q41 0 34 -41l-12 -57q-6 -41 -45 -41h-723l-88 -508h629q41 0 33 -41l-11 -57q-8 -41 -49 -41h-629l-92 -529h748q41 0 33 -41l-11 -57q-6 -41 -47 -41h-856q-41 0 -33 41zM604 1745q-29 12 2 43l35 35q29 29 72 4l299 -201q20 -12 -4 -41 l-21 -20q-16 -16 -49 -2z" />
<glyph unicode="&#xc9;" horiz-adv-x="1171" d="M59 41l242 1372q8 41 47 41h830q41 0 34 -41l-12 -57q-6 -41 -45 -41h-723l-88 -508h629q41 0 33 -41l-11 -57q-8 -41 -49 -41h-629l-92 -529h748q41 0 33 -41l-11 -57q-6 -41 -47 -41h-856q-41 0 -33 41zM573 1591q-16 27 11 41l366 207q51 25 70 -4l22 -37 q23 -31 -12 -43l-395 -190q-37 -12 -47 4z" />
<glyph unicode="&#xca;" horiz-adv-x="1171" d="M59 41l242 1372q8 41 47 41h830q41 0 34 -41l-12 -57q-6 -41 -45 -41h-723l-88 -508h629q41 0 33 -41l-11 -57q-8 -41 -49 -41h-629l-92 -529h748q41 0 33 -41l-11 -57q-6 -41 -47 -41h-856q-41 0 -33 41zM459 1591l291 221q39 33 77 33h17q37 0 65 -33l211 -221 q25 -29 -24 -28h-49q-41 0 -58 20l-166 168l-229 -168q-23 -20 -62 -20h-59q-51 0 -14 28z" />
<glyph unicode="&#xcb;" horiz-adv-x="1171" d="M59 41l242 1372q8 41 47 41h830q41 0 34 -41l-12 -57q-6 -41 -45 -41h-723l-88 -508h629q41 0 33 -41l-11 -57q-8 -41 -49 -41h-629l-92 -529h748q41 0 33 -41l-11 -57q-6 -41 -47 -41h-856q-41 0 -33 41zM535 1688l2 16q10 66 77 65h13q68 0 57 -65l-4 -16 q-10 -66 -78 -66h-14q-39 0 -49 14q-12 12 -4 52zM930 1688l4 16q10 66 78 65h12q68 0 57 -65l-4 -16q-10 -66 -80 -66h-10q-39 0 -51 14q-12 12 -6 52z" />
<glyph unicode="&#xcc;" horiz-adv-x="471" d="M59 41l242 1372q8 41 47 41h68q41 0 35 -41l-244 -1372q-6 -41 -47 -41h-68q-41 0 -33 41zM223 1745q-31 12 2 43l35 35q29 31 70 4l299 -201q23 -12 -4 -41l-21 -20q-14 -18 -47 -2z" />
<glyph unicode="&#xcd;" horiz-adv-x="471" d="M59 41l242 1372q8 41 47 41h68q41 0 35 -41l-244 -1372q-6 -41 -47 -41h-68q-41 0 -33 41zM190 1591q-16 27 11 41l368 207q49 23 70 -4l23 -37q20 -31 -15 -43l-393 -190q-39 -12 -49 4z" />
<glyph unicode="&#xce;" horiz-adv-x="471" d="M59 41l242 1372q8 41 47 41h68q41 0 35 -41l-244 -1372q-6 -41 -47 -41h-68q-41 0 -33 41zM78 1591l289 221q41 33 79 33h17q37 0 63 -33l213 -221q20 -29 -24 -28h-51q-41 0 -58 20l-166 168l-229 -168q-23 -20 -61 -20h-60q-49 0 -12 28z" />
<glyph unicode="&#xcf;" horiz-adv-x="471" d="M59 41l242 1372q8 41 47 41h68q41 0 35 -41l-244 -1372q-6 -41 -47 -41h-68q-41 0 -33 41zM152 1688l4 16q10 66 75 65h15q39 0 51 -14q10 -14 4 -51l-2 -16q-12 -66 -80 -66h-12q-68 0 -55 66zM549 1688l2 16q10 66 80 65h12q66 0 55 -65l-2 -16q-12 -66 -80 -66h-12 q-41 0 -51 14q-12 12 -4 52z" />
<glyph unicode="&#xd0;" horiz-adv-x="1359" d="M23 717l8 43q6 29 32 28h150l111 625q6 41 45 41h434q281 0 414 -151q127 -150 81 -404l-65 -373q-45 -252 -219 -389q-178 -137 -467 -137h-434q-39 0 -33 41l115 647h-150q-29 0 -22 29zM248 139h323q215 0 349 105q133 104 167 297l66 372q70 401 -373 402h-325 l-93 -527h353q27 0 20 -28l-8 -43q-6 -29 -31 -29h-352z" />
<glyph unicode="&#xd1;" horiz-adv-x="1417" d="M59 41l242 1372q8 41 47 41h60q31 0 41 -20l475 -920q37 -70 77 -182q41 -111 50 -127h8q4 23 16 153q10 135 27 228l145 829q8 39 47 39h66q43 0 35 -41l-242 -1372q-8 -41 -49 -41h-66q-29 0 -39 23l-481 938q-33 63 -69 172q-37 104 -46 120h-8q-4 -20 -14 -145 q-10 -131 -25 -217l-149 -850q-8 -41 -49 -41h-66q-41 0 -33 41zM561 1602q37 205 195 204q78 0 153 -67q76 -70 125 -70q84 0 101 113q6 25 28 24h41q25 0 19 -24q-37 -205 -195 -205q-74 0 -149 70q-76 68 -127 67q-82 0 -103 -112q-6 -25 -26 -25h-41q-27 0 -21 25z" />
<glyph unicode="&#xd2;" horiz-adv-x="1361" d="M96 496l86 483q41 242 209 373t440 131q268 0 394 -144q123 -141 80 -385l-84 -481q-90 -502 -646 -502q-270 0 -397 144q-125 139 -82 381zM246 485q-33 -178 57 -276q90 -100 291 -100q412 0 479 376l86 484q31 180 -57 278q-90 98 -291 99q-416 0 -479 -377zM676 1765 q-31 12 2 43l35 35q29 31 69 4l299 -200q25 -12 -4 -41l-18 -21q-18 -18 -49 -2z" />
<glyph unicode="&#xd3;" horiz-adv-x="1361" d="M96 496l86 483q41 242 209 373t440 131q268 0 394 -144q123 -141 80 -385l-84 -481q-90 -502 -646 -502q-270 0 -397 144q-125 139 -82 381zM246 485q-33 -178 57 -276q90 -100 291 -100q412 0 479 376l86 484q31 180 -57 278q-90 98 -291 99q-416 0 -479 -377zM643 1612 q-16 27 10 41l369 207q49 23 70 -5l22 -36q20 -31 -14 -43l-393 -191q-39 -12 -50 4z" />
<glyph unicode="&#xd4;" horiz-adv-x="1361" d="M96 496l86 483q41 242 209 373t440 131q268 0 394 -144q123 -141 80 -385l-84 -481q-90 -502 -646 -502q-270 0 -397 144q-125 139 -82 381zM246 485q-33 -178 57 -276q90 -100 291 -100q412 0 479 376l86 484q31 180 -57 278q-90 98 -291 99q-416 0 -479 -377zM530 1593 l291 222q39 33 78 32h16q37 0 64 -32l213 -222q20 -29 -25 -28h-49q-43 0 -59 20l-164 168l-229 -168q-25 -20 -64 -20h-59q-49 0 -13 28z" />
<glyph unicode="&#xd5;" horiz-adv-x="1361" d="M96 496l86 483q41 242 209 373t440 131q268 0 394 -144q123 -141 80 -385l-84 -481q-90 -502 -646 -502q-270 0 -397 144q-125 139 -82 381zM246 485q-33 -178 57 -276q90 -100 291 -100q412 0 479 376l86 484q31 180 -57 278q-90 98 -291 99q-416 0 -479 -377zM541 1622 q37 205 194 205q80 0 156 -68q76 -70 123 -69q82 0 102 112q4 25 27 25h41q25 0 18 -25q-33 -205 -194 -205q-74 0 -150 70q-76 68 -127 68q-84 0 -100 -113q-6 -25 -29 -25h-41q-27 0 -20 25z" />
<glyph unicode="&#xd6;" horiz-adv-x="1361" d="M96 496l86 483q41 242 209 373t440 131q268 0 394 -144q123 -141 80 -385l-84 -481q-90 -502 -646 -502q-270 0 -397 144q-125 139 -82 381zM246 485q-33 -178 57 -276q90 -100 291 -100q412 0 479 376l86 484q31 180 -57 278q-90 98 -291 99q-416 0 -479 -377zM604 1708 l4 16q10 66 76 66h14q39 0 52 -14q10 -14 4 -52l-2 -16q-12 -66 -80 -66h-13q-39 0 -49 15q-12 12 -6 51zM1001 1708l3 16q10 66 79 66h13q66 0 55 -66l-2 -16q-12 -66 -80 -66h-12q-41 0 -51 15q-12 12 -5 51z" />
<glyph unicode="&#xd7;" horiz-adv-x="1034" d="M78 313q-25 27 8 56l350 297l-246 295q-20 29 11 57l35 29q35 31 57 0l246 -295l348 297q35 27 55 0l29 -33q23 -29 -13 -55l-348 -297l244 -299q25 -29 -10 -56l-35 -30q-35 -25 -55 0l-246 299l-348 -297q-33 -31 -58 0z" />
<glyph unicode="&#xd8;" horiz-adv-x="1363" d="M6 -72l162 201q-113 137 -72 367l86 483q41 242 209 373t440 131q231 0 353 -109l121 150q14 14 30 14h80q18 0 4 -14l-172 -213q98 -137 58 -357l-84 -481q-90 -502 -646 -502q-219 0 -342 95l-112 -138q-10 -14 -35 -14h-76q-18 0 -4 14zM246 485q-25 -135 35 -219 l806 989q-90 90 -276 91q-416 0 -479 -377zM330 186q94 -78 264 -77q412 0 479 376l86 484q20 123 -24 200z" />
<glyph unicode="&#xd9;" horiz-adv-x="1398" d="M129 510l162 903q8 41 47 41h68q41 0 32 -41l-162 -919q-31 -182 52 -281q84 -104 282 -104q403 0 469 385l164 919q6 41 47 41h68q41 0 33 -41l-164 -934q-92 -510 -637 -510q-268 0 -389 152q-115 143 -72 389zM688 1745q-31 12 2 43l35 35q29 31 70 4l299 -201 q25 -12 -4 -41l-19 -20q-18 -18 -49 -2z" />
<glyph unicode="&#xda;" horiz-adv-x="1398" d="M129 510l162 903q8 41 47 41h68q41 0 32 -41l-162 -919q-31 -182 52 -281q84 -104 282 -104q403 0 469 385l164 919q6 41 47 41h68q41 0 33 -41l-164 -934q-92 -510 -637 -510q-268 0 -389 152q-115 143 -72 389zM655 1591q-16 27 11 41l368 207q49 23 70 -4l22 -37 q20 -31 -14 -43l-393 -190q-39 -12 -49 4z" />
<glyph unicode="&#xdb;" horiz-adv-x="1398" d="M129 510l162 903q8 41 47 41h68q41 0 32 -41l-162 -919q-31 -182 52 -281q84 -104 282 -104q403 0 469 385l164 919q6 41 47 41h68q41 0 33 -41l-164 -934q-92 -510 -637 -510q-268 0 -389 152q-115 143 -72 389zM543 1591l291 221q39 33 77 33h17q37 0 63 -33l213 -221 q20 -29 -24 -28h-50q-43 0 -59 20l-164 168l-229 -168q-25 -20 -64 -20h-59q-49 0 -12 28z" />
<glyph unicode="&#xdc;" horiz-adv-x="1398" d="M129 510l162 903q8 41 47 41h68q41 0 32 -41l-162 -919q-31 -182 52 -281q84 -104 282 -104q403 0 469 385l164 919q6 41 47 41h68q41 0 33 -41l-164 -934q-92 -510 -637 -510q-268 0 -389 152q-115 143 -72 389zM616 1688l5 16q10 66 75 65h15q39 0 51 -14q10 -14 4 -51 l-2 -16q-12 -66 -80 -66h-12q-39 0 -49 14q-12 12 -7 52zM1014 1688l2 16q10 66 80 65h12q66 0 55 -65l-2 -16q-12 -66 -80 -66h-12q-41 0 -51 14q-12 12 -4 52z" />
<glyph unicode="&#xdd;" horiz-adv-x="1277" d="M170 1413q-14 41 29 41h80q57 0 71 -37l312 -674l550 674q25 37 82 37h80q47 0 17 -41l-682 -823l-97 -549q-8 -41 -49 -41h-67q-41 0 -33 41l96 551zM598 1591q-16 27 10 41l369 207q49 23 67 -4l25 -37q20 -31 -14 -43l-393 -190q-39 -12 -50 4z" />
<glyph unicode="&#xde;" horiz-adv-x="1267" d="M59 41l242 1372q8 41 47 41h68q41 0 35 -41l-37 -203h420q221 0 327 -133q109 -135 70 -356q-39 -217 -191 -340q-150 -119 -372 -119h-420l-41 -221q-6 -41 -47 -41h-68q-41 0 -33 41zM270 401h408q158 0 264 91q109 90 135 243q29 154 -47 246q-78 92 -233 92h-408z " />
<glyph unicode="&#xdf;" horiz-adv-x="1120" d="M33 41l186 1046q37 207 164 326q131 123 334 123q211 0 303 -115q86 -111 51 -311q-43 -233 -240 -313v-4q225 -76 173 -375q-74 -418 -496 -418h-166q-41 0 -33 41l8 55q8 41 48 41h153q285 0 338 297q23 131 -35 207q-59 76 -188 76h-160q-41 0 -33 41l9 53q8 41 49 41 h147q117 0 197 84q68 72 86 176q51 287 -236 287q-135 0 -223 -86q-88 -84 -115 -232l-182 -1040q-8 -41 -49 -41h-55q-41 0 -35 41z" />
<glyph unicode="&#xe0;" horiz-adv-x="1089" d="M61 401l52 293q68 389 508 389q205 0 335 -61q47 -23 58 -41q10 -20 2 -72l-146 -829q-8 -35 -51 -49q-213 -59 -422 -60q-203 0 -291 121q-80 113 -45 309zM197 391q-53 -295 231 -295q168 0 315 49l127 717q4 39 -32 56q-101 38 -230 38q-162 0 -246 -63 q-88 -68 -114 -217zM496 1395q-29 12 2 43l32 35q31 29 70 2l293 -207q25 -12 -4 -41l-19 -21q-16 -16 -49 -2z" />
<glyph unicode="&#xe1;" horiz-adv-x="1089" d="M61 401l52 293q68 389 508 389q205 0 335 -61q47 -23 58 -41q10 -20 2 -72l-146 -829q-8 -35 -51 -49q-213 -59 -422 -60q-203 0 -291 121q-80 113 -45 309zM197 391q-53 -295 231 -295q168 0 315 49l127 717q4 39 -32 56q-101 38 -230 38q-162 0 -246 -63 q-88 -68 -114 -217zM457 1229q-18 27 10 41l367 205q49 25 69 -2l23 -37q20 -29 -13 -45l-395 -189q-35 -14 -47 2z" />
<glyph unicode="&#xe2;" horiz-adv-x="1089" d="M61 401l52 293q68 389 508 389q205 0 335 -61q47 -23 58 -41q10 -20 2 -72l-146 -829q-8 -35 -51 -49q-213 -59 -422 -60q-203 0 -291 121q-80 113 -45 309zM197 391q-53 -295 231 -295q168 0 315 49l127 717q4 39 -32 56q-101 38 -230 38q-162 0 -246 -63 q-88 -68 -114 -217zM340 1221l291 219q39 33 80 33h16q37 0 64 -33l210 -219q23 -31 -22 -31h-49q-41 0 -58 20l-165 172l-228 -172q-27 -20 -63 -20h-62q-45 0 -14 31z" />
<glyph unicode="&#xe3;" horiz-adv-x="1089" d="M61 401l52 293q68 389 508 389q205 0 335 -61q47 -23 58 -41q10 -20 2 -72l-146 -829q-8 -35 -51 -49q-213 -59 -422 -60q-203 0 -291 121q-80 113 -45 309zM197 391q-53 -295 231 -295q168 0 315 49l127 717q4 39 -32 56q-101 38 -230 38q-162 0 -246 -63 q-88 -68 -114 -217zM354 1243q33 203 193 203q76 0 153 -68q78 -70 127 -69q84 0 101 112q6 25 28 25h41q25 0 19 -25q-33 -203 -193 -202q-74 0 -151 69q-78 68 -129 68q-80 0 -101 -113q-6 -25 -26 -24h-41q-27 0 -21 24z" />
<glyph unicode="&#xe4;" horiz-adv-x="1089" d="M61 401l52 293q68 389 508 389q205 0 335 -61q47 -23 58 -41q10 -20 2 -72l-146 -829q-8 -35 -51 -49q-213 -59 -422 -60q-203 0 -291 121q-80 113 -45 309zM197 391q-53 -295 231 -295q168 0 315 49l127 717q4 39 -32 56q-101 38 -230 38q-162 0 -246 -63 q-88 -68 -114 -217zM418 1325l2 16q12 68 78 68h14q68 0 55 -68l-4 -16q-10 -66 -78 -65h-12q-70 0 -55 65zM813 1325l4 16q12 68 80 68h12q68 0 56 -68l-4 -16q-10 -66 -78 -65h-13q-68 0 -57 65z" />
<glyph unicode="&#xe5;" horiz-adv-x="1089" d="M61 401l52 293q68 389 508 389q205 0 335 -61q47 -23 58 -41q10 -20 2 -72l-146 -829q-8 -35 -51 -49q-213 -59 -422 -60q-203 0 -291 121q-80 113 -45 309zM197 391q-53 -295 231 -295q168 0 315 49l127 717q4 39 -32 56q-101 38 -230 38q-162 0 -246 -63 q-88 -68 -114 -217zM489 1378q16 93 84 148q68 53 162 53q92 0 137 -55q47 -57 31 -150q-14 -90 -82 -145q-66 -53 -157 -53q-94 0 -142 55q-49 57 -33 147zM563 1376q-20 -127 113 -127t153 127q23 129 -106 129q-133 0 -160 -129z" />
<glyph unicode="&#xe6;" horiz-adv-x="1597" d="M18 299q53 303 465 303q119 0 224 -18l16 88q27 137 2 196q-37 92 -188 93q-166 0 -273 -140q-25 -29 -53 -18l-45 20q-39 16 -12 54q147 207 407 206q238 0 273 -200q120 200 368 200q193 0 283 -92q90 -94 53 -262q-57 -289 -442 -289q-133 0 -283 35l-18 -104 q-49 -281 221 -281q197 0 307 162q29 37 55 14l41 -24q31 -20 0 -60q-145 -211 -424 -211q-205 0 -274 125q-133 -125 -356 -125q-403 0 -347 328zM154 289q-35 -203 219 -203q170 0 291 115q-10 78 4 164l20 108q-123 18 -239 19q-256 0 -295 -203zM831 582 q133 -33 285 -33q246 0 289 186q53 230 -223 230q-133 0 -221 -78q-90 -78 -115 -219z" />
<glyph unicode="&#xe7;" horiz-adv-x="1046" d="M55 385l56 303q68 395 510 395q338 0 376 -278q8 -43 -30 -53l-47 -15q-41 -16 -48 25q-35 199 -272 199q-303 0 -352 -279l-58 -311q-23 -131 43 -203q66 -76 213 -76q242 0 345 211q20 35 55 25l53 -19q37 -16 14 -51q-135 -270 -438 -285l-72 -131q29 4 52 4 q90 0 129 -45t22 -120q-41 -186 -276 -187q-98 0 -158 41q-20 14 -16 41l6 39q4 25 22 14q61 -49 144 -49q143 0 166 115q12 88 -111 88q-43 0 -70 -8q-39 -2 -16 35l92 161q-197 10 -283 123q-84 109 -51 291z" />
<glyph unicode="&#xe8;" horiz-adv-x="1071" d="M57 399l49 267q35 201 173 309q137 109 354 108q209 0 313 -98t66 -266q-59 -279 -482 -279q-164 0 -323 33l-19 -102q-49 -281 258 -281q223 0 349 162q31 35 61 14l39 -24q33 -20 2 -60q-160 -211 -471 -211q-221 0 -315 121q-88 113 -54 307zM225 584q158 -35 326 -35 q283 0 328 186q27 111 -43 170q-72 59 -224 60q-150 0 -245 -80q-98 -80 -125 -221zM479 1395q-27 12 2 43l35 35q31 27 70 2l293 -207q20 -12 -5 -41l-18 -21q-18 -16 -49 -2z" />
<glyph unicode="&#xe9;" horiz-adv-x="1071" d="M57 399l49 267q35 201 173 309q137 109 354 108q209 0 313 -98t66 -266q-59 -279 -482 -279q-164 0 -323 33l-19 -102q-49 -281 258 -281q223 0 349 162q31 35 61 14l39 -24q33 -20 2 -60q-160 -211 -471 -211q-221 0 -315 121q-88 113 -54 307zM225 584q158 -35 326 -35 q283 0 328 186q27 111 -43 170q-72 59 -224 60q-150 0 -245 -80q-98 -80 -125 -221zM440 1229q-16 27 13 41l366 205q47 25 70 -2l22 -37q23 -29 -14 -45l-393 -189q-37 -14 -49 2z" />
<glyph unicode="&#xea;" horiz-adv-x="1071" d="M57 399l49 267q35 201 173 309q137 109 354 108q209 0 313 -98t66 -266q-59 -279 -482 -279q-164 0 -323 33l-19 -102q-49 -281 258 -281q223 0 349 162q31 35 61 14l39 -24q33 -20 2 -60q-160 -211 -471 -211q-221 0 -315 121q-88 113 -54 307zM225 584q158 -35 326 -35 q283 0 328 186q27 111 -43 170q-72 59 -224 60q-150 0 -245 -80q-98 -80 -125 -221zM326 1221l290 219q37 33 78 33h17q37 0 65 -33l211 -219q23 -31 -24 -31h-48q-41 0 -57 20l-168 172l-227 -172q-25 -20 -62 -20h-61q-45 0 -14 31z" />
<glyph unicode="&#xeb;" horiz-adv-x="1071" d="M57 399l49 267q35 201 173 309q137 109 354 108q209 0 313 -98t66 -266q-59 -279 -482 -279q-164 0 -323 33l-19 -102q-49 -281 258 -281q223 0 349 162q31 35 61 14l39 -24q33 -20 2 -60q-160 -211 -471 -211q-221 0 -315 121q-88 113 -54 307zM225 584q158 -35 326 -35 q283 0 328 186q27 111 -43 170q-72 59 -224 60q-150 0 -245 -80q-98 -80 -125 -221zM401 1325l5 16q12 68 77 68h13q68 0 55 -68l-2 -16q-14 -66 -78 -65h-14q-66 0 -56 65zM799 1325l2 16q12 68 82 68h10q70 0 55 -68l-2 -16q-14 -66 -78 -65h-12q-72 0 -57 65z" />
<glyph unicode="&#xec;" horiz-adv-x="407" d="M33 37l172 979q8 37 45 37h63q37 0 29 -37l-170 -979q-8 -37 -45 -37h-64q-37 0 -30 37zM129 1389q-31 14 0 43l31 30q35 31 65 6l232 -206q23 -16 -4 -41l-17 -17q-20 -18 -47 -2z" />
<glyph unicode="&#xed;" horiz-adv-x="407" d="M33 37l172 979q8 37 45 37h63q37 0 29 -37l-170 -979q-8 -37 -45 -37h-64q-37 0 -30 37zM125 1227q-14 25 12 41l307 207q47 29 70 -5l23 -36q18 -29 -15 -43l-336 -191q-37 -14 -47 4z" />
<glyph unicode="&#xee;" horiz-adv-x="407" d="M33 37l172 979q8 37 45 37h63q37 0 29 -37l-170 -979q-8 -37 -45 -37h-64q-37 0 -30 37zM35 1227l225 207q35 33 78 32h14q37 0 60 -32l151 -207q23 -29 -22 -29h-47q-41 0 -54 25l-106 147l-168 -151q-20 -20 -62 -21h-55q-39 0 -14 29z" />
<glyph unicode="&#xef;" horiz-adv-x="407" d="M33 37l172 979q8 37 45 37h63q37 0 29 -37l-170 -979q-8 -37 -45 -37h-64q-37 0 -30 37zM98 1348l4 16q10 66 78 66h13q68 0 57 -66l-4 -16q-10 -66 -78 -66h-12q-68 0 -58 66zM406 1348l4 16q10 66 79 66h13q70 0 55 -66l-4 -16q-10 -66 -76 -66h-12q-70 0 -59 66z" />
<glyph unicode="&#xf0;" horiz-adv-x="1126" d="M55 379l47 268q33 184 162 287q131 100 334 100q256 0 317 -168q43 285 -67 402l-158 -140q-18 -14 -33 -2l-30 25q-12 16 4 33l149 131q-115 78 -346 78q-37 0 -35 34l11 54q6 39 43 39q287 0 434 -101l125 111q14 14 30 0l31 -27q16 -12 -2 -30l-119 -105 q152 -160 86 -551l-80 -450q-33 -188 -165 -291q-135 -104 -355 -105q-221 0 -319 111q-96 106 -64 297zM193 369q-49 -272 266 -273q311 0 360 273l49 268q45 272 -266 272q-317 0 -362 -274z" />
<glyph unicode="&#xf1;" horiz-adv-x="1120" d="M29 37l151 864q16 80 99 113q178 69 391 69q205 0 291 -110q80 -106 45 -301l-111 -635q-8 -37 -45 -37h-64q-37 0 -30 37l112 641q49 279 -237 278q-147 0 -279 -45q-33 -12 -43 -51l-143 -823q-8 -37 -43 -37h-66q-37 0 -28 37zM338 1243q37 203 194 203q76 0 154 -68 q78 -70 127 -69q84 0 100 112q6 25 29 25h39q27 0 20 -25q-37 -203 -192 -202q-74 0 -152 69q-78 68 -129 68q-80 0 -100 -113q-6 -25 -27 -24h-41q-25 0 -22 24z" />
<glyph unicode="&#xf2;" horiz-adv-x="1103" d="M53 350l64 361q31 174 168 274q135 98 344 98q211 0 315 -104q102 -102 72 -279l-64 -360q-31 -174 -166 -272q-133 -96 -346 -97q-209 0 -313 103q-104 102 -74 276zM190 346q-20 -117 52 -182q72 -68 215 -68q145 0 241 68q96 66 117 182l64 361q20 117 -52 184 q-72 68 -217 67q-143 0 -239 -67q-96 -68 -117 -184zM479 1393q-27 14 2 43l35 34q27 27 70 5l293 -207q20 -14 -5 -41l-18 -21q-18 -18 -49 -4z" />
<glyph unicode="&#xf3;" horiz-adv-x="1103" d="M53 350l64 361q31 174 168 274q135 98 344 98q211 0 315 -104q102 -102 72 -279l-64 -360q-31 -174 -166 -272q-133 -96 -346 -97q-209 0 -313 103q-104 102 -74 276zM190 346q-20 -117 52 -182q72 -68 215 -68q145 0 241 68q96 66 117 182l64 361q20 117 -52 184 q-72 68 -217 67q-143 0 -239 -67q-96 -68 -117 -184zM440 1227q-16 29 13 41l366 207q49 23 70 -5l22 -36q23 -31 -14 -43l-393 -191q-39 -12 -49 4z" />
<glyph unicode="&#xf4;" horiz-adv-x="1103" d="M53 350l64 361q31 174 168 274q135 98 344 98q211 0 315 -104q102 -102 72 -279l-64 -360q-31 -174 -166 -272q-133 -96 -346 -97q-209 0 -313 103q-104 102 -74 276zM190 346q-20 -117 52 -182q72 -68 215 -68q145 0 241 68q96 66 117 182l64 361q20 117 -52 184 q-72 68 -217 67q-143 0 -239 -67q-96 -68 -117 -184zM326 1219l290 219q39 35 78 35h17q35 0 65 -35l211 -219q23 -31 -24 -31h-48q-41 0 -57 20l-168 172l-227 -172q-25 -20 -62 -20h-61q-45 0 -14 31z" />
<glyph unicode="&#xf5;" horiz-adv-x="1103" d="M53 350l64 361q31 174 168 274q135 98 344 98q211 0 315 -104q102 -102 72 -279l-64 -360q-31 -174 -166 -272q-133 -96 -346 -97q-209 0 -313 103q-104 102 -74 276zM190 346q-20 -117 52 -182q72 -68 215 -68q145 0 241 68q96 66 117 182l64 361q20 117 -52 184 q-72 68 -217 67q-143 0 -239 -67q-96 -68 -117 -184zM338 1241q37 205 192 205q78 0 156 -68q78 -70 127 -69q80 0 100 112q6 25 29 25h39q27 0 20 -25q-37 -205 -192 -204q-74 0 -152 69q-78 68 -129 68q-80 0 -102 -113q-2 -25 -27 -24h-41q-23 0 -20 24z" />
<glyph unicode="&#xf6;" horiz-adv-x="1103" d="M53 350l64 361q31 174 168 274q135 98 344 98q211 0 315 -104q102 -102 72 -279l-64 -360q-31 -174 -166 -272q-133 -96 -346 -97q-209 0 -313 103q-104 102 -74 276zM190 346q-20 -117 52 -182q72 -68 215 -68q145 0 241 68q96 66 117 182l64 361q20 117 -52 184 q-72 68 -217 67q-143 0 -239 -67q-96 -68 -117 -184zM401 1325l5 16q10 66 77 66h13q39 0 51 -14q10 -14 4 -52l-2 -16q-14 -68 -78 -68h-14q-66 0 -56 68zM799 1325l2 16q10 66 82 66h10q70 0 55 -66l-2 -16q-14 -68 -78 -68h-12q-72 0 -57 68z" />
<glyph unicode="&#xf7;" horiz-adv-x="1185" d="M113 639l10 51q6 41 47 41h883q41 0 34 -41l-10 -51q-6 -41 -47 -41h-883q-41 0 -34 41zM442 260l2 14q14 80 97 80h10q47 0 61 -16t6 -64l-2 -14q-16 -82 -96 -82h-12q-47 0 -59 17q-14 18 -7 65zM582 1059l2 14q16 82 96 82h12q82 0 66 -82l-2 -14q-12 -80 -97 -80h-10 q-47 0 -61 16q-14 18 -6 64z" />
<glyph unicode="&#xf8;" horiz-adv-x="1103" d="M23 -57l104 129q-102 104 -72 278l64 361q31 174 168 274q135 98 344 98q164 0 262 -63l82 98q10 12 26 12h60q18 0 4 -14l-115 -141q98 -104 68 -275l-62 -360q-33 -176 -168 -272t-346 -97q-158 0 -254 60l-71 -90q-14 -12 -33 -13h-57q-18 0 -4 15zM195 346 q-20 -94 32 -149l578 712q-72 49 -193 49q-143 0 -237 -67q-98 -68 -119 -184zM274 139q72 -43 187 -43q145 0 241 68q96 66 117 182l62 356q16 88 -35 142z" />
<glyph unicode="&#xf9;" horiz-adv-x="1122" d="M88 381l111 635q8 37 45 37h63q37 0 29 -37l-113 -639q-47 -281 238 -281q154 0 276 45q41 18 47 58l144 817q6 37 43 37h63q39 0 31 -37l-152 -864q-16 -80 -98 -113q-174 -68 -393 -68q-408 0 -334 410zM492 1393q-27 14 2 43l34 34q27 27 70 5l293 -207q20 -14 -4 -41 l-19 -21q-18 -18 -49 -4z" />
<glyph unicode="&#xfa;" horiz-adv-x="1122" d="M88 381l111 635q8 37 45 37h63q37 0 29 -37l-113 -639q-47 -281 238 -281q154 0 276 45q41 18 47 58l144 817q6 37 43 37h63q39 0 31 -37l-152 -864q-16 -80 -98 -113q-174 -68 -393 -68q-408 0 -334 410zM453 1227q-16 29 12 41l366 207q49 23 70 -5l23 -36 q23 -31 -15 -43l-393 -191q-39 -12 -49 4z" />
<glyph unicode="&#xfb;" horiz-adv-x="1122" d="M88 381l111 635q8 37 45 37h63q37 0 29 -37l-113 -639q-47 -281 238 -281q154 0 276 45q41 18 47 58l144 817q6 37 43 37h63q39 0 31 -37l-152 -864q-16 -80 -98 -113q-174 -68 -393 -68q-408 0 -334 410zM338 1219l291 219q39 35 78 35h16q35 0 65 -35l211 -219 q23 -31 -24 -31h-47q-41 0 -58 20l-168 172l-227 -172q-25 -20 -61 -20h-62q-45 0 -14 31z" />
<glyph unicode="&#xfc;" horiz-adv-x="1122" d="M88 381l111 635q8 37 45 37h63q37 0 29 -37l-113 -639q-47 -281 238 -281q154 0 276 45q41 18 47 58l144 817q6 37 43 37h63q39 0 31 -37l-152 -864q-16 -80 -98 -113q-174 -68 -393 -68q-408 0 -334 410zM414 1325l4 16q10 66 78 66h12q39 0 51 -14q10 -14 4 -52l-2 -16 q-14 -68 -78 -68h-14q-66 0 -55 68zM811 1325l2 16q10 66 82 66h10q70 0 56 -66l-3 -16q-14 -68 -77 -68h-13q-72 0 -57 68z" />
<glyph unicode="&#xfd;" horiz-adv-x="1126" d="M-6 -285q-18 41 24 60l45 22q41 20 58 -14q61 -164 258 -164q299 0 354 311l21 121q-193 -53 -330 -53q-408 0 -334 410l107 608q6 37 43 37h65q37 0 29 -37l-109 -613q-49 -281 240 -280q129 0 311 55l148 838q8 37 45 37h63q37 0 29 -37l-189 -1079q-78 -442 -514 -443 q-287 0 -364 221zM451 1227q-18 27 10 41l366 207q51 23 70 -5l23 -36q23 -31 -13 -43l-393 -191q-39 -12 -49 4z" />
<glyph unicode="&#xfe;" horiz-adv-x="1103" d="M-45 -414l334 1893q6 37 43 37h63q37 0 31 -37l-82 -463q166 57 313 57q426 0 353 -416l-52 -284q-70 -403 -491 -404q-139 0 -295 72l-80 -455q-8 -37 -43 -37h-65q-37 0 -29 37zM195 166q158 -72 286 -72q289 0 342 287l49 278q49 287 -254 287q-133 0 -296 -61z" />
<glyph unicode="&#xff;" horiz-adv-x="1126" d="M-6 -285q-18 41 24 60l45 22q41 20 58 -14q61 -164 258 -164q299 0 354 311l21 121q-193 -53 -330 -53q-408 0 -334 410l107 608q6 37 43 37h65q37 0 29 -37l-109 -613q-49 -281 240 -280q129 0 311 55l148 838q8 37 45 37h63q37 0 29 -37l-189 -1079q-78 -442 -514 -443 q-287 0 -364 221zM412 1325l2 16q10 66 80 66h12q39 0 51 -14q10 -14 4 -52l-2 -16q-14 -68 -80 -68h-12q-70 0 -55 68zM807 1325l4 16q10 66 80 66h12q66 0 55 -66l-2 -16q-14 -68 -79 -68h-13q-68 0 -57 68z" />
<glyph unicode="&#x100;" d="M-78 39l793 1386q18 35 57 35h62q43 0 47 -33l305 -1388q6 -39 -37 -39h-53q-61 0 -68 37l-84 389h-641l-221 -389q-20 -37 -80 -37h-59q-47 0 -21 39zM369 549h557l-138 629q-4 29 -4 141h-6l-14 -47q-16 -51 -39 -94zM565 1673l4 33q8 35 43 35h482q37 0 28 -35l-4 -33 q-8 -35 -41 -35h-483q-35 0 -29 35z" />
<glyph unicode="&#x101;" horiz-adv-x="1089" d="M61 401l52 293q68 389 508 389q205 0 335 -61q47 -23 58 -41q10 -20 2 -72l-146 -829q-8 -35 -51 -49q-213 -59 -422 -60q-203 0 -291 121q-80 113 -45 309zM197 391q-53 -295 231 -295q168 0 315 49l127 717q4 39 -32 56q-101 38 -230 38q-162 0 -246 -63 q-88 -68 -114 -217zM410 1309l6 30q4 35 41 35h481q35 0 31 -35l-6 -30q-4 -35 -41 -35h-484q-33 0 -28 35z" />
<glyph unicode="&#x102;" d="M-78 39l793 1386q18 35 57 35h62q43 0 47 -33l305 -1388q6 -39 -37 -39h-53q-61 0 -68 37l-84 389h-641l-221 -389q-20 -37 -80 -37h-59q-47 0 -21 39zM369 549h557l-138 629q-4 29 -4 141h-6l-14 -47q-16 -51 -39 -94zM551 1784q-2 29 22 37l54 16q31 8 35 -14 q14 -158 178 -158q162 0 233 160q16 23 37 14l51 -18q23 -12 10 -37q-104 -221 -348 -221t-272 221z" />
<glyph unicode="&#x103;" horiz-adv-x="1089" d="M61 401l52 293q68 389 508 389q205 0 335 -61q47 -23 58 -41q10 -20 2 -72l-146 -829q-8 -35 -51 -49q-213 -59 -422 -60q-203 0 -291 121q-80 113 -45 309zM197 391q-53 -295 231 -295q168 0 315 49l127 717q4 39 -32 56q-101 38 -230 38q-162 0 -246 -63 q-88 -68 -114 -217zM397 1417q-6 29 23 37l47 14q29 10 37 -14q14 -156 180 -156q164 0 236 160q14 23 34 15l54 -19q20 -10 10 -37q-106 -221 -344 -221q-252 0 -277 221z" />
<glyph unicode="&#x104;" d="M-78 39l793 1386q18 35 57 35h62q43 0 47 -33l305 -1388q4 -23 -8 -33q-272 -213 -250 -350q8 -57 67 -57t113 47q18 12 25 -6l12 -50q2 -16 -10 -28q-78 -68 -197 -68q-127 0 -139 117q-20 184 274 395q-43 2 -45 35l-84 385h-641l-221 -389q-20 -37 -80 -37h-59 q-47 0 -21 39zM369 549h557l-138 629q-4 29 -4 141h-6l-14 -47q-16 -51 -39 -94z" />
<glyph unicode="&#x105;" horiz-adv-x="1093" d="M61 401l52 293q68 389 508 389q205 0 335 -61q47 -23 58 -41q10 -20 2 -72l-146 -829q-6 -23 -16 -33q-291 -242 -266 -391q12 -57 67 -57q59 0 113 47q18 12 25 -6l12 -50q4 -16 -10 -28q-78 -68 -197 -68q-127 0 -137 117q-25 178 256 395q-156 -35 -320 -35 q-203 0 -291 121q-80 113 -45 309zM197 391q-53 -295 231 -295q168 0 315 49l127 717q4 39 -32 56q-101 38 -230 38q-162 0 -246 -63q-88 -68 -114 -217z" />
<glyph unicode="&#x106;" horiz-adv-x="1298" d="M94 494l86 483q41 242 207 373q168 133 440 133q430 0 478 -355q8 -37 -33 -51l-58 -20q-41 -10 -49 24q-18 137 -100 199q-84 66 -256 66q-416 0 -481 -375l-84 -484q-33 -180 57 -278t291 -98q324 0 452 268q23 39 58 27l61 -27q39 -10 19 -51q-178 -356 -611 -357 q-268 0 -395 142q-123 139 -82 381zM641 1591q-16 27 10 41l369 207q49 23 70 -4l22 -37q20 -31 -14 -43l-393 -190q-39 -12 -50 4z" />
<glyph unicode="&#x107;" horiz-adv-x="1046" d="M57 385l54 303q72 395 510 395q336 0 378 -278q6 -43 -30 -53l-49 -15q-39 -16 -48 25q-33 199 -270 199q-305 0 -354 -279l-55 -311q-23 -131 40 -203q68 -76 216 -76q242 0 344 211q18 35 55 25l53 -19q35 -14 14 -51q-147 -287 -487 -287q-215 0 -311 113 q-94 109 -60 301zM418 1227q-18 27 10 41l367 207q51 23 69 -5l23 -36q23 -31 -13 -43l-395 -191q-39 -12 -47 4z" />
<glyph unicode="&#x108;" horiz-adv-x="1298" d="M94 494l86 483q41 242 207 373q168 133 440 133q430 0 478 -355q8 -37 -33 -51l-58 -20q-41 -10 -49 24q-18 137 -100 199q-84 66 -256 66q-416 0 -481 -375l-84 -484q-33 -180 57 -278t291 -98q324 0 452 268q23 39 58 27l61 -27q39 -10 19 -51q-178 -356 -611 -357 q-268 0 -395 142q-123 139 -82 381zM528 1591l289 221q41 33 80 33h16q37 0 64 -33l213 -221q20 -29 -25 -28h-51q-41 0 -57 20l-166 168l-229 -168q-23 -20 -62 -20h-59q-49 0 -13 28z" />
<glyph unicode="&#x109;" horiz-adv-x="1046" d="M57 385l54 303q72 395 510 395q336 0 378 -278q7 -43 -30 -53l-49 -15q-39 -16 -48 25q-33 199 -270 199q-305 0 -354 -279l-55 -311q-23 -131 40 -203q68 -76 216 -76q242 0 344 211q18 35 55 25l53 -19q35 -14 14 -51q-147 -287 -487 -287q-215 0 -311 113 q-94 109 -60 301zM301 1219l291 219q39 35 80 35h14q35 0 66 -35l211 -219q23 -31 -23 -31h-49q-41 0 -57 20l-166 172l-230 -172q-25 -20 -61 -20h-62q-45 0 -14 31z" />
<glyph unicode="&#x10a;" horiz-adv-x="1298" d="M94 494l86 483q41 242 207 373q168 133 440 133q430 0 478 -355q8 -37 -33 -51l-58 -20q-41 -10 -49 24q-18 137 -100 199q-84 66 -256 66q-416 0 -481 -375l-84 -484q-33 -180 57 -278t291 -98q324 0 452 268q23 39 58 27l61 -27q39 -10 19 -51q-178 -356 -611 -357 q-268 0 -395 142q-123 139 -82 381zM799 1683l4 13q10 70 80 69h10q72 0 57 -69l-2 -13q-10 -68 -82 -67h-10q-41 0 -51 14q-12 14 -6 53z" />
<glyph unicode="&#x10b;" horiz-adv-x="1046" d="M57 385l54 303q72 395 510 395q336 0 378 -278q6 -43 -30 -53l-49 -15q-39 -16 -48 25q-33 199 -270 199q-305 0 -354 -279l-55 -311q-23 -131 40 -203q68 -76 216 -76q242 0 344 211q18 35 55 25l53 -19q35 -14 14 -51q-147 -287 -487 -287q-215 0 -311 113 q-94 109 -60 301zM573 1319l5 10q10 70 79 70h11q39 0 51 -15q12 -14 6 -55l-2 -10q-10 -70 -82 -70h-10q-41 0 -51 15q-12 14 -7 55z" />
<glyph unicode="&#x10c;" horiz-adv-x="1298" d="M94 494l86 483q41 242 207 373q168 133 440 133q430 0 478 -355q8 -37 -33 -51l-58 -20q-41 -10 -49 24q-18 137 -100 199q-84 66 -256 66q-416 0 -481 -375l-84 -484q-33 -180 57 -278t291 -98q324 0 452 268q23 39 58 27l61 -27q39 -10 19 -51q-178 -356 -611 -357 q-268 0 -395 142q-123 139 -82 381zM563 1815q-23 31 25 30h53q35 0 53 -20l168 -170l228 170q23 20 67 20h55q49 0 11 -30l-287 -220q-41 -35 -78 -34h-16q-37 0 -66 34z" />
<glyph unicode="&#x10d;" horiz-adv-x="1046" d="M57 385l54 303q72 395 510 395q335 1 378 -278q6 -43 -30 -53l-49 -15q-39 -16 -48 25q-33 199 -270 199q-305 0 -354 -279l-55 -311q-23 -131 40 -203q68 -76 216 -76q242 0 344 211q18 35 55 25l53 -19q35 -14 14 -51q-147 -287 -487 -287q-215 0 -311 113 q-94 109 -60 301zM340 1440q-23 31 20 30h52q37 0 55 -20l168 -170l227 170q25 20 66 20h57q45 0 12 -32l-288 -217q-39 -35 -76 -35h-12q-39 0 -70 35z" />
<glyph unicode="&#x10e;" horiz-adv-x="1337" d="M59 41l242 1372q8 41 47 41h432q283 0 414 -151q129 -147 84 -402l-66 -373q-45 -252 -221 -389q-176 -139 -461 -139h-438q-41 0 -33 41zM225 139h326q442 0 516 402l66 372q35 193 -64 297q-96 104 -311 105h-326zM516 1815q-27 31 23 30h53q35 0 55 -20l166 -170 l229 170q23 20 66 20h55q49 0 11 -30l-287 -220q-41 -35 -76 -34h-16q-39 0 -68 34z" />
<glyph unicode="&#x10f;" horiz-adv-x="1187" d="M59 391l54 293q70 399 473 399q147 0 313 -59l80 455q6 37 45 37h63q37 0 29 -37l-235 -1336q-14 -78 -101 -110q-154 -61 -362 -62q-430 0 -359 420zM195 383q-49 -287 256 -287q137 0 254 39q39 16 47 53l125 709q-145 59 -289 59q-289 0 -342 -286zM1190 1069l129 410 q10 37 45 37h51q49 0 33 -37l-160 -402q-12 -35 -39 -35h-35q-31 0 -24 27z" />
<glyph unicode="&#x110;" horiz-adv-x="1359" d="M23 717l8 43q6 29 32 28h150l111 625q6 41 45 41h434q281 0 414 -151q127 -150 81 -404l-65 -373q-45 -252 -219 -389q-178 -137 -467 -137h-434q-39 0 -33 41l115 647h-150q-29 0 -22 29zM248 139h323q215 0 349 105q133 104 167 297l66 372q70 401 -373 402h-325 l-93 -527h353q27 0 20 -28l-8 -43q-6 -29 -31 -29h-352z" />
<glyph unicode="&#x111;" horiz-adv-x="1099" d="M61 391l52 293q72 397 475 397q160 0 313 -57l41 225h-313q-25 0 -23 29l6 33q8 29 33 28h311l25 140q6 37 45 37h64q37 0 28 -37l-22 -140h137q27 0 20 -28l-6 -33q-6 -29 -30 -29h-138l-196 -1106q-14 -78 -101 -110q-154 -61 -362 -62q-434 0 -359 420zM197 383 q-49 -287 256 -287q137 0 254 39q39 16 47 53l125 709q-145 59 -289 59q-291 0 -342 -286z" />
<glyph unicode="&#x112;" horiz-adv-x="1171" d="M59 41l242 1372q8 41 47 41h830q41 0 34 -41l-12 -57q-6 -41 -45 -41h-723l-88 -508h629q41 0 33 -41l-11 -57q-8 -41 -49 -41h-629l-92 -529h748q41 0 33 -41l-11 -57q-6 -41 -47 -41h-856q-41 0 -33 41zM526 1673l6 33q8 35 41 35h484q35 0 28 -35l-6 -33 q-6 -35 -41 -35h-481q-37 0 -31 35z" />
<glyph unicode="&#x113;" horiz-adv-x="1071" d="M57 399l49 267q35 201 173 309q137 109 354 108q209 0 313 -98t66 -266q-59 -279 -482 -279q-164 0 -323 33l-19 -102q-49 -281 258 -281q223 0 349 162q31 35 61 14l39 -24q33 -20 2 -60q-160 -211 -471 -211q-221 0 -315 121q-88 113 -54 307zM225 584q158 -35 326 -35 q283 0 328 186q27 111 -43 170q-72 59 -224 60q-150 0 -245 -80q-98 -80 -125 -221zM395 1309l4 30q8 35 41 35h484q33 0 28 -35l-4 -30q-8 -35 -43 -35h-481q-37 0 -29 35z" />
<glyph unicode="&#x114;" horiz-adv-x="1171" d="M59 41l242 1372q8 41 47 41h830q41 0 34 -41l-12 -57q-6 -41 -45 -41h-723l-88 -508h629q41 0 33 -41l-11 -57q-8 -41 -49 -41h-629l-92 -529h748q41 0 33 -41l-11 -57q-6 -41 -47 -41h-856q-41 0 -33 41zM514 1784q-6 29 23 37l51 16q31 8 35 -14q18 -158 180 -158 t233 160q14 23 37 14l49 -18q25 -10 13 -37q-107 -221 -349 -221q-248 0 -272 221z" />
<glyph unicode="&#x115;" horiz-adv-x="1071" d="M57 399l49 267q35 201 173 309q137 109 354 108q209 0 313 -98t66 -266q-59 -279 -482 -279q-164 0 -323 33l-19 -102q-49 -281 258 -281q223 0 349 162q31 35 61 14l39 -24q33 -20 2 -60q-160 -211 -471 -211q-221 0 -315 121q-88 113 -54 307zM225 584q158 -35 326 -35 q283 0 328 186q27 111 -43 170q-72 59 -224 60q-150 0 -245 -80q-98 -80 -125 -221zM381 1417q-6 29 25 37l47 14q27 10 34 -14q14 -156 183 -156q160 0 235 160q10 23 35 15l51 -19q23 -12 10 -37q-104 -221 -342 -221q-250 0 -278 221z" />
<glyph unicode="&#x116;" horiz-adv-x="1171" d="M59 41l242 1372q8 41 47 41h830q41 0 34 -41l-12 -57q-6 -41 -45 -41h-723l-88 -508h629q41 0 33 -41l-11 -57q-8 -41 -49 -41h-629l-92 -529h748q41 0 33 -41l-11 -57q-6 -41 -47 -41h-856q-41 0 -33 41zM731 1683l2 13q14 70 80 69h10q70 0 60 -69l-4 -13 q-10 -68 -82 -67h-9q-41 0 -51 14q-12 14 -6 53z" />
<glyph unicode="&#x117;" horiz-adv-x="1071" d="M57 399l49 267q35 201 173 309q137 109 354 108q209 0 313 -98t66 -266q-59 -279 -482 -279q-164 0 -323 33l-19 -102q-49 -281 258 -281q223 0 349 162q31 35 61 14l39 -24q33 -20 2 -60q-160 -211 -471 -211q-221 0 -315 121q-88 113 -54 307zM225 584q158 -35 326 -35 q283 0 328 186q27 111 -43 170q-72 59 -224 60q-150 0 -245 -80q-98 -80 -125 -221zM598 1319l4 12q10 70 80 70h10q39 0 51 -15q12 -14 7 -55l-2 -12q-10 -70 -82 -70h-11q-39 0 -51 15q-12 14 -6 55z" />
<glyph unicode="&#x118;" horiz-adv-x="1171" d="M59 41l242 1372q8 41 47 41h830q41 0 34 -41l-12 -57q-6 -41 -45 -41h-723l-88 -508h629q41 0 33 -41l-11 -57q-8 -41 -49 -41h-629l-92 -529h748q41 0 33 -41l-11 -57q-6 -20 -16 -35q-276 -217 -254 -350q8 -57 66 -57q61 0 114 47q18 14 23 -6l12 -50q4 -16 -8 -28 q-82 -68 -197 -68q-127 0 -139 117q-25 180 276 389h-780q-41 0 -33 41z" />
<glyph unicode="&#x119;" horiz-adv-x="1071" d="M57 399l49 267q35 201 173 309q137 109 354 108q209 0 313 -98t66 -266q-59 -279 -482 -279q-164 0 -323 33l-19 -102q-49 -281 258 -281q223 0 349 162q31 35 61 14l39 -24q33 -20 2 -60q-47 -63 -102 -102q-141 -125 -220 -252q-72 -113 -61 -170q8 -57 70 -57 q55 0 110 45q18 14 23 -6l12 -50q4 -16 -8 -28q-82 -68 -199 -68q-129 0 -137 119q-23 166 227 383q-80 -25 -186 -25q-221 0 -315 121q-88 113 -54 307zM225 584q158 -35 326 -35q283 0 328 186q27 111 -43 170q-72 59 -224 60q-150 0 -245 -80q-98 -80 -125 -221z" />
<glyph unicode="&#x11a;" horiz-adv-x="1171" d="M59 41l242 1372q8 41 47 41h830q41 0 34 -41l-12 -57q-6 -41 -45 -41h-723l-88 -508h629q41 0 33 -41l-11 -57q-8 -41 -49 -41h-629l-92 -529h748q41 0 33 -41l-11 -57q-6 -41 -47 -41h-856q-41 0 -33 41zM496 1815q-27 31 24 30h53q35 0 54 -20l166 -170l229 170 q23 20 65 20h56q47 0 12 -30l-289 -220q-41 -35 -75 -34h-17q-39 0 -67 34z" />
<glyph unicode="&#x11b;" horiz-adv-x="1071" d="M57 399l49 267q35 201 173 309q137 109 354 108q209 0 313 -98t66 -266q-59 -279 -482 -279q-164 0 -323 33l-19 -102q-49 -281 258 -281q223 0 349 162q31 35 61 14l39 -24q33 -20 2 -60q-160 -211 -471 -211q-221 0 -315 121q-88 113 -54 307zM225 584q158 -35 326 -35 q283 0 328 186q27 111 -43 170q-72 59 -224 60q-150 0 -245 -80q-98 -80 -125 -221zM362 1442q-23 31 23 31h51q37 0 53 -23l170 -168l226 168q25 23 67 23h58q45 0 12 -33l-289 -219q-39 -33 -76 -33h-12q-41 0 -70 33z" />
<glyph unicode="&#x11c;" horiz-adv-x="1339" d="M94 498l86 481q41 242 209 373q166 131 440 131q428 0 478 -353q6 -41 -31 -53l-64 -20q-43 -10 -47 24q-18 137 -100 199q-84 66 -258 66q-414 0 -479 -375l-84 -484q-33 -180 55 -278q90 -100 293 -100q197 0 323 96q123 94 154 256l25 153h-394q-41 0 -34 41l10 58 q10 41 49 41h500q41 0 35 -41l-48 -262q-39 -225 -204 -351q-168 -129 -439 -129q-270 0 -395 144q-123 139 -80 383zM526 1612l289 221q41 33 80 33h16q37 0 64 -33l213 -221q20 -29 -25 -29h-51q-41 0 -57 21l-166 168l-230 -168q-23 -20 -61 -21h-59q-49 0 -13 29z" />
<glyph unicode="&#x11d;" horiz-adv-x="1097" d="M-27 -285q-23 41 25 60l45 22q37 20 57 -14q57 -164 256 -164q295 0 351 311l22 127q-172 -61 -328 -61q-205 0 -290 115q-82 109 -48 303l50 268q70 401 510 401q205 0 335 -61q48 -23 58 -41q10 -20 2 -72l-172 -977q-78 -438 -506 -438q-289 0 -367 221zM201 403 q-51 -281 233 -280q145 0 318 59l120 682q4 37 -30 54q-96 39 -232 38q-309 0 -364 -292zM338 1219l291 219q39 35 78 35h16q35 0 65 -35l211 -219q23 -31 -24 -31h-47q-41 0 -58 20l-168 172l-227 -172q-25 -20 -61 -20h-62q-45 0 -14 31z" />
<glyph unicode="&#x11e;" horiz-adv-x="1339" d="M94 498l86 481q41 242 209 373q166 131 440 131q428 0 478 -353q6 -41 -31 -53l-64 -20q-43 -10 -47 24q-18 137 -100 199q-84 66 -258 66q-414 0 -479 -375l-84 -484q-33 -180 55 -278q90 -100 293 -100q197 0 323 96q123 94 154 256l25 153h-394q-41 0 -34 41l10 58 q10 41 49 41h500q41 0 35 -41l-48 -262q-39 -225 -204 -351q-168 -129 -439 -129q-270 0 -395 144q-123 139 -80 383zM580 1804q-2 29 22 37l53 17q31 8 33 -15q18 -158 180 -157q162 0 234 159q16 23 37 15l51 -19q23 -12 10 -37q-104 -221 -348 -221t-272 221z" />
<glyph unicode="&#x11f;" horiz-adv-x="1097" d="M-27 -285q-23 41 25 60l45 22q37 20 57 -14q57 -164 256 -164q295 0 351 311l22 127q-172 -61 -328 -61q-205 0 -290 115q-82 109 -48 303l50 268q70 401 510 401q205 0 335 -61q47 -23 58 -41q10 -20 2 -72l-172 -977q-78 -438 -506 -438q-289 0 -367 221zM201 403 q-51 -281 233 -280q145 0 318 59l120 682q4 37 -30 54q-97 38 -232 38q-309 0 -364 -292zM393 1417q-6 27 25 35l47 16q27 8 35 -14q14 -156 182 -156q160 0 236 158q10 23 34 17l52 -21q23 -12 10 -35q-104 -223 -342 -223q-250 0 -279 223z" />
<glyph unicode="&#x120;" horiz-adv-x="1339" d="M94 498l86 481q41 242 209 373q166 131 440 131q428 0 478 -353q6 -41 -31 -53l-64 -20q-43 -10 -47 24q-18 137 -100 199q-84 66 -258 66q-414 0 -479 -375l-84 -484q-33 -180 55 -278q90 -100 293 -100q197 0 323 96q123 94 154 256l25 153h-394q-41 0 -34 41l10 58 q10 41 49 41h500q41 0 35 -41l-48 -262q-39 -225 -204 -351q-168 -129 -439 -129q-270 0 -395 144q-123 139 -80 383zM797 1704l4 12q10 70 80 70h10q72 0 57 -70l-2 -12q-10 -68 -82 -68h-10q-41 0 -51 15q-12 14 -6 53z" />
<glyph unicode="&#x121;" horiz-adv-x="1097" d="M-27 -285q-23 41 25 60l45 22q37 20 57 -14q57 -164 256 -164q295 0 351 311l22 127q-172 -61 -328 -61q-205 0 -290 115q-82 109 -48 303l50 268q70 401 510 401q205 0 335 -61q47 -23 58 -41q10 -20 2 -72l-172 -977q-78 -438 -506 -438q-289 0 -367 221zM201 403 q-51 -281 233 -280q145 0 318 59l120 682q4 37 -30 54q-97 38 -232 38q-309 0 -364 -292zM610 1319l4 10q10 70 80 70h11q39 0 51 -15q12 -14 6 -55l-2 -10q-10 -70 -82 -70h-10q-41 0 -52 15q-12 14 -6 55z" />
<glyph unicode="&#x122;" horiz-adv-x="1339" d="M94 498l86 481q41 242 209 373q166 131 440 131q428 0 478 -353q6 -41 -31 -53l-64 -20q-43 -10 -47 24q-18 137 -100 199q-84 66 -258 66q-414 0 -479 -375l-84 -484q-33 -180 55 -278q90 -100 293 -100q197 0 323 96q123 94 154 256l25 153h-394q-41 0 -34 41l10 58 q10 41 49 41h500q41 0 35 -41l-48 -262q-39 -225 -204 -351q-168 -129 -439 -129q-270 0 -395 144q-123 139 -80 383zM385 -483l121 297q12 39 51 39h61q51 0 29 -41l-147 -287q-18 -35 -49 -35h-45q-29 0 -21 27z" />
<glyph unicode="&#x123;" horiz-adv-x="1097" d="M-27 -285q-23 41 25 60l45 22q37 20 57 -14q57 -164 256 -164q295 0 351 311l22 127q-172 -61 -328 -61q-205 0 -290 115q-82 109 -48 303l50 268q70 401 510 401q205 0 335 -61q47 -23 58 -41q10 -20 2 -72l-172 -977q-78 -438 -506 -438q-289 0 -367 221zM201 403 q-51 -281 233 -280q145 0 318 59l120 682q4 37 -30 54q-97 38 -232 38q-309 0 -364 -292zM565 1241l152 254q16 31 47 31h35q37 0 28 -29l-129 -258q-16 -43 -49 -43h-51q-51 0 -33 45z" />
<glyph unicode="&#x124;" horiz-adv-x="1398" d="M59 41l242 1372q8 41 47 41h68q41 0 35 -41l-107 -606h778l107 606q8 41 47 41h67q41 0 35 -41l-243 -1372q-6 -41 -48 -41h-67q-41 0 -33 41l109 627h-779l-110 -627q-6 -41 -47 -41h-68q-41 0 -33 41zM541 1591l290 221q39 33 78 33h17q37 0 65 -33l211 -221 q25 -29 -24 -28h-50q-41 0 -57 20l-166 168l-229 -168q-23 -20 -62 -20h-59q-51 0 -14 28z" />
<glyph unicode="&#x125;" horiz-adv-x="1126" d="M31 37l254 1442q6 37 45 37h63q37 0 29 -37l-78 -453q131 57 330 57q406 1 336 -409l-113 -637q-8 -37 -43 -37h-66q-37 0 -28 37l112 641q47 279 -237 278q-186 0 -316 -59l-149 -860q-8 -37 -45 -37h-64q-37 0 -30 37zM53 1649l291 221q41 33 80 33h16q37 0 64 -33 l211 -221q25 -29 -23 -29h-49q-41 0 -57 20l-166 172l-227 -172q-27 -20 -64 -20h-61q-47 0 -15 29z" />
<glyph unicode="&#x126;" horiz-adv-x="1413" d="M68 41l190 1079h-123q-25 0 -20 31l4 33q8 29 33 28h122l35 201q8 41 47 41h68q41 0 35 -41l-37 -201h780l35 201q8 41 47 41h68q41 0 34 -41l-36 -201h125q27 0 20 -28l-6 -33q-2 -31 -31 -31h-123l-192 -1079q-6 -41 -47 -41h-68q-41 0 -33 41l109 627h-778l-111 -627 q-6 -41 -47 -41h-68q-41 0 -32 41zM352 807h778l56 313h-778z" />
<glyph unicode="&#x127;" horiz-adv-x="1126" d="M33 37l215 1223h-119q-27 0 -20 28l4 29q6 29 30 29h121l23 133q6 37 45 37h63q37 0 29 -37l-23 -133h322q27 0 20 -29l-4 -29q-4 -29 -30 -28h-322l-41 -234q131 57 330 57q406 0 336 -409l-113 -637q-8 -37 -43 -37h-65q-37 0 -29 37l112 641q47 279 -237 278 q-186 0 -315 -59l-150 -860q-8 -37 -45 -37h-64q-37 0 -30 37z" />
<glyph unicode="&#x128;" horiz-adv-x="471" d="M59 41l242 1372q8 41 47 41h68q41 0 35 -41l-244 -1372q-6 -41 -47 -41h-68q-41 0 -33 41zM88 1602q37 205 195 204q78 0 153 -67q76 -70 125 -70q84 0 101 113q6 25 28 24h41q25 0 19 -24q-33 -205 -195 -205q-74 0 -149 70q-76 68 -127 67q-82 0 -103 -112 q-2 -25 -26 -25h-41q-27 0 -21 25z" />
<glyph unicode="&#x129;" horiz-adv-x="407" d="M33 37l172 979q8 37 45 37h63q37 0 29 -37l-170 -979q-8 -37 -45 -37h-64q-37 0 -30 37zM61 1257q35 201 172 201q63 0 111 -65q45 -68 84 -68q59 0 80 109q6 25 24 24h41q23 0 17 -24q-35 -199 -166 -199q-55 0 -100 63q-43 63 -82 64q-76 0 -92 -105q-6 -27 -25 -26 h-47q-18 0 -17 26z" />
<glyph unicode="&#x12a;" horiz-adv-x="471" d="M59 41l242 1372q8 41 47 41h68q41 0 35 -41l-244 -1372q-6 -41 -47 -41h-68q-41 0 -33 41zM145 1673l5 33q8 35 43 35h481q37 0 28 -35l-6 -33q-6 -35 -39 -35h-483q-37 0 -29 35z" />
<glyph unicode="&#x12b;" horiz-adv-x="407" d="M33 37l172 979q8 37 45 37h63q37 0 29 -37l-170 -979q-8 -37 -45 -37h-64q-37 0 -30 37zM125 1309l4 30q8 33 29 33h338q20 0 16 -33l-6 -30q-6 -35 -27 -35h-338q-25 0 -16 35z" />
<glyph unicode="&#x12c;" horiz-adv-x="471" d="M59 41l242 1372q8 41 47 41h68q41 0 35 -41l-244 -1372q-6 -41 -47 -41h-68q-41 0 -33 41zM131 1784q-2 29 23 37l53 16q31 8 33 -14q18 -158 180 -158t233 160q16 23 37 14l51 -18q23 -12 11 -37q-105 -221 -349 -221t-272 221z" />
<glyph unicode="&#x12d;" horiz-adv-x="407" d="M33 37l172 979q8 37 45 37h63q37 0 29 -37l-170 -979q-8 -37 -45 -37h-64q-37 0 -30 37zM80 1415q-6 27 22 35l50 16q29 10 34 -14q2 -150 136 -149q133 0 190 149q10 23 35 16l49 -18q23 -10 12 -35q-90 -215 -299 -215q-219 0 -229 215z" />
<glyph unicode="&#x12e;" horiz-adv-x="473" d="M-119 -399q-18 170 205 403q-35 0 -29 39l244 1370q8 41 47 41h68q41 0 33 -41l-242 -1372q-2 -20 -17 -35q-203 -221 -180 -348q8 -57 66 -57q66 0 117 45q18 14 22 -6l10 -43q2 -18 -8 -29q-92 -74 -197 -74q-131 0 -139 107z" />
<glyph unicode="&#x12f;" horiz-adv-x="407" d="M-141 -369q4 147 198 371q-31 2 -24 35l172 979q8 37 45 37h63q37 0 29 -37l-170 -979q-6 -23 -14 -29q-164 -209 -172 -330q-4 -80 69 -79q51 0 86 45q18 12 25 -6l10 -37q6 -18 -6 -27q-70 -78 -168 -78q-143 0 -143 135zM250 1339l2 15q14 76 90 76h10q45 0 58 -17 q14 -16 6 -59l-2 -15q-14 -76 -90 -75h-11q-45 0 -57 16q-14 16 -6 59z" />
<glyph unicode="&#x130;" horiz-adv-x="471" d="M59 41l242 1372q8 41 47 41h68q41 0 35 -41l-244 -1372q-6 -41 -47 -41h-68q-41 0 -33 41zM348 1683l4 13q10 70 80 69h10q72 0 58 -69l-2 -13q-10 -68 -82 -67h-10q-41 0 -52 14q-12 14 -6 53z" />
<glyph unicode="&#x131;" horiz-adv-x="407" d="M33 37l172 979q8 37 45 37h63q37 0 29 -37l-170 -979q-8 -37 -45 -37h-64q-37 0 -30 37z" />
<glyph unicode="&#x132;" horiz-adv-x="1644" d="M59 41l242 1372q8 41 47 41h68q41 0 35 -41l-244 -1372q-6 -41 -47 -41h-68q-41 0 -33 41zM471 352q-6 41 33 54l63 20q39 14 47 -25q12 -293 293 -292q346 0 408 346l170 960q8 39 47 39h70q41 0 32 -39l-172 -977q-84 -469 -569 -469q-399 0 -422 383z" />
<glyph unicode="&#x133;" horiz-adv-x="907" d="M33 37l172 979q8 37 45 37h63q37 0 29 -37l-170 -979q-8 -37 -45 -37h-64q-37 0 -30 37zM123 -434l8 53q8 39 45 39q160 0 244 86q74 76 102 240l180 1032q8 37 46 37h63q37 0 31 -37l-183 -1034q-80 -453 -505 -453q-37 0 -31 37zM250 1339l2 15q14 76 90 76h10 q45 0 58 -17q14 -16 6 -59l-2 -15q-14 -76 -90 -75h-11q-45 0 -57 16q-14 16 -6 59zM748 1339l2 15q14 76 90 76h12q78 0 61 -76v-15q-16 -76 -90 -75h-12q-78 0 -63 75z" />
<glyph unicode="&#x134;" horiz-adv-x="1165" d="M-8 352q-6 41 31 54l65 20q39 14 47 -25q12 -293 293 -292q346 0 408 346l170 960q8 39 45 39h69q41 0 35 -39l-172 -977q-84 -469 -569 -469q-399 0 -422 383zM782 1591l289 221q41 33 80 33h14q39 0 66 -33l211 -221q25 -29 -23 -28h-51q-41 0 -57 20l-166 168 l-230 -168q-23 -20 -61 -20h-59q-53 0 -13 28z" />
<glyph unicode="&#x135;" horiz-adv-x="407" d="M-375 -434l8 53q8 39 45 39q287 0 347 326l180 1032q8 37 45 37h63q37 0 29 -37l-180 -1034q-80 -453 -506 -453q-39 0 -31 37zM16 1214l250 216q37 33 76 32h16q37 0 62 -32l170 -216q23 -31 -25 -30h-43q-43 0 -57 20l-127 170l-191 -170q-25 -20 -61 -20h-57 q-43 0 -13 30z" />
<glyph unicode="&#x136;" horiz-adv-x="1247" d="M59 41l242 1372q8 41 47 41h68q41 0 35 -41l-109 -608h242l567 614q31 35 86 35h74q23 0 26 -12q4 -10 -12 -27l-600 -643q150 -45 209 -225l170 -506q14 -41 -29 -41h-65q-61 0 -72 37l-150 455q-33 98 -81 137q-57 41 -175 41h-213l-112 -629q-6 -41 -47 -41h-68 q-41 0 -33 41zM344 -483l121 297q10 39 51 39h62q51 0 28 -41l-149 -287q-16 -35 -47 -35h-45q-31 0 -21 27z" />
<glyph unicode="&#x137;" horiz-adv-x="1034" d="M33 39l254 1440q6 37 47 37h59q39 0 31 -37l-154 -875h215l404 420q25 29 78 29h57q57 0 16 -43l-419 -432q104 -31 147 -166l119 -369q12 -43 -31 -43h-59q-47 0 -58 33l-98 325q-37 123 -176 123h-215l-78 -442q-8 -39 -47 -39h-59q-39 0 -33 39zM254 -438l108 286 q14 43 58 43h53q47 0 25 -43l-131 -280q-16 -35 -54 -35h-37q-31 0 -22 29z" />
<glyph unicode="&#x138;" horiz-adv-x="993" d="M4 39l242 977q12 37 51 37h61q37 0 25 -37l-117 -510l600 518q33 29 86 29h60q59 0 6 -43l-481 -416l262 -549q16 -45 -39 -45h-58q-51 0 -61 31l-221 465l-217 -191l-62 -266q-10 -39 -51 -39h-61q-37 0 -25 39z" />
<glyph unicode="&#x139;" horiz-adv-x="1052" d="M59 41l242 1372q8 41 47 41h68q41 0 35 -41l-226 -1274h693q41 0 32 -41l-10 -57q-6 -41 -47 -41h-801q-41 0 -33 41zM193 1591q-16 27 10 41l366 207q51 25 70 -4l23 -37q23 -31 -13 -43l-395 -190q-37 -12 -47 4z" />
<glyph unicode="&#x13a;" horiz-adv-x="421" d="M39 37l252 1442q8 37 45 37h63q37 0 31 -37l-254 -1442q-8 -37 -45 -37h-63q-37 0 -29 37zM193 1626q-16 27 12 41l309 166q41 25 61 -6l27 -43q16 -31 -14 -43l-332 -146q-37 -16 -49 2z" />
<glyph unicode="&#x13b;" horiz-adv-x="1052" d="M59 41l242 1372q8 41 47 41h68q41 0 35 -41l-226 -1274h693q41 0 32 -41l-10 -57q-6 -41 -47 -41h-801q-41 0 -33 41zM272 -483l119 297q12 39 51 39h62q51 0 28 -41l-147 -287q-16 -35 -49 -35h-43q-31 0 -21 27z" />
<glyph unicode="&#x13c;" horiz-adv-x="421" d="M-98 -446l116 309q12 43 56 43h51q47 0 25 -43l-138 -303q-16 -35 -55 -35h-35q-31 0 -20 29zM37 37l254 1442q6 37 43 37h65q35 0 29 -37l-254 -1442q-6 -37 -43 -37h-65q-37 0 -29 37z" />
<glyph unicode="&#x13d;" horiz-adv-x="1054" d="M59 41l242 1372q8 41 47 41h68q41 0 35 -41l-226 -1274h693q41 0 32 -41l-10 -57q-6 -41 -47 -41h-801q-41 0 -33 41zM731 1022l141 395q10 37 52 37h55q47 0 27 -39l-172 -385q-16 -35 -48 -35h-34q-29 0 -21 27z" />
<glyph unicode="&#x13e;" horiz-adv-x="434" d="M39 37l252 1442q8 37 45 37h63q37 0 31 -37l-254 -1442q-8 -37 -45 -37h-63q-37 0 -29 37zM496 1135l114 344q12 37 47 37h48q51 0 32 -39l-143 -342q-16 -35 -43 -35h-35q-31 0 -20 35z" />
<glyph unicode="&#x13f;" horiz-adv-x="1054" d="M59 41l242 1372q8 41 47 41h68q41 0 35 -41l-226 -1274h693q41 0 32 -41l-10 -57q-6 -41 -47 -41h-801q-41 0 -33 41zM600 737l4 13q14 82 96 81h13q45 0 59 -18q14 -16 6 -63l-4 -13q-14 -82 -96 -82h-10q-47 0 -62 17q-14 18 -6 65z" />
<glyph unicode="&#x140;" horiz-adv-x="634" d="M39 37l252 1442q8 37 45 37h63q37 0 31 -37l-254 -1442q-8 -37 -45 -37h-63q-37 0 -29 37zM465 760l2 14q14 82 96 82h12q45 0 60 -18q14 -16 6 -64l-2 -14q-16 -80 -96 -80h-13q-47 0 -59 16q-14 18 -6 64z" />
<glyph unicode="&#x141;" horiz-adv-x="1097" d="M-25 565q-12 27 17 37l227 100l127 711q8 41 47 41h68q41 0 35 -41l-115 -643l430 191q29 12 41 -15l12 -45q10 -27 -20 -35l-484 -215l-90 -512h693q41 0 32 -41l-10 -57q-6 -41 -47 -41h-801q-41 0 -33 41l95 543l-172 -76q-29 -16 -37 12z" />
<glyph unicode="&#x142;" horiz-adv-x="579" d="M18 641q-6 25 19 37l205 108l123 693q6 37 43 37h65q35 0 29 -37l-109 -619l156 84q31 14 41 -10l16 -39q12 -25 -18 -37l-215 -115l-125 -706q-8 -37 -43 -37h-66q-37 0 -28 37l110 631l-145 -78q-31 -14 -39 10z" />
<glyph unicode="&#x143;" horiz-adv-x="1417" d="M59 41l242 1372q8 41 47 41h60q31 0 41 -20l475 -920q37 -70 77 -182q41 -111 50 -127h8q4 23 16 153q10 135 27 228l145 829q8 39 47 39h66q43 0 35 -41l-242 -1372q-8 -41 -49 -41h-66q-29 0 -39 23l-481 938q-33 63 -69 172q-37 104 -46 120h-8q-4 -20 -14 -145 q-10 -131 -25 -217l-149 -850q-8 -41 -49 -41h-66q-41 0 -33 41zM664 1591q-16 27 10 41l366 207q51 23 70 -4l25 -37q20 -31 -15 -43l-393 -190q-39 -12 -49 4z" />
<glyph unicode="&#x144;" horiz-adv-x="1120" d="M29 37l151 864q16 80 99 113q178 69 391 69q205 0 291 -110q80 -106 45 -301l-111 -635q-8 -37 -45 -37h-64q-37 0 -30 37l112 641q49 279 -237 278q-147 0 -279 -45q-33 -12 -43 -51l-143 -823q-8 -37 -43 -37h-66q-37 0 -28 37zM442 1229q-18 27 11 41l366 205 q49 25 70 -2l22 -37q20 -29 -12 -45l-395 -189q-37 -14 -47 2z" />
<glyph unicode="&#x145;" horiz-adv-x="1417" d="M59 41l242 1372q8 41 47 41h60q31 0 41 -20l475 -920q37 -70 77 -182q41 -111 50 -127h8q4 23 16 153q10 135 27 228l145 829q8 39 47 39h66q43 0 35 -41l-242 -1372q-8 -41 -49 -41h-66q-29 0 -39 23l-481 938q-33 63 -69 172q-37 104 -46 120h-8q-4 -20 -14 -145 q-10 -131 -25 -217l-149 -850q-8 -41 -49 -41h-66q-41 0 -33 41zM401 -483l119 297q12 39 51 39h62q51 0 29 -41l-148 -287q-16 -35 -49 -35h-43q-31 0 -21 27z" />
<glyph unicode="&#x146;" horiz-adv-x="1120" d="M29 37l151 864q16 80 99 113q178 69 391 69q205 0 291 -110q80 -106 45 -301l-111 -635q-8 -37 -45 -37h-64q-37 0 -30 37l112 641q49 279 -237 278q-147 0 -279 -45q-33 -12 -43 -51l-143 -823q-8 -37 -43 -37h-66q-37 0 -28 37zM301 -416l115 293q14 43 55 43h51 q49 0 27 -43l-137 -289q-18 -35 -54 -34h-34q-33 0 -23 30z" />
<glyph unicode="&#x147;" horiz-adv-x="1417" d="M59 41l242 1372q8 41 47 41h60q31 0 41 -20l475 -920q37 -70 77 -182q41 -111 50 -127h8q4 23 16 153q10 135 27 228l145 829q8 39 47 39h66q43 0 35 -41l-242 -1372q-8 -41 -49 -41h-66q-29 0 -39 23l-481 938q-33 63 -69 172q-37 104 -46 120h-8q-4 -20 -14 -145 q-10 -131 -25 -217l-149 -850q-8 -41 -49 -41h-66q-41 0 -33 41zM586 1815q-27 31 24 30h54q35 0 53 -20l168 -170l227 170q23 20 66 20h57q49 0 10 -30l-289 -220q-39 -35 -75 -34h-17q-37 0 -65 34z" />
<glyph unicode="&#x148;" horiz-adv-x="1120" d="M29 37l151 864q16 80 99 113q178 70 391 69q205 1 291 -110q80 -106 45 -301l-111 -635q-8 -37 -45 -37h-64q-37 0 -30 37l112 641q49 279 -237 278q-147 0 -279 -45q-33 -12 -43 -51l-143 -823q-8 -37 -43 -37h-66q-37 0 -28 37zM365 1442q-27 31 20 31h53q35 0 54 -23 l167 -168l228 168q25 23 65 23h58q45 0 12 -33l-289 -219q-37 -33 -76 -33h-12q-39 0 -70 33z" />
<glyph unicode="&#x149;" horiz-adv-x="1120" d="M29 37l151 864q16 80 99 113q178 69 391 69q205 0 291 -110q80 -106 45 -301l-111 -635q-8 -37 -45 -37h-64q-37 0 -30 37l112 641q49 279 -237 278q-147 0 -279 -45q-33 -12 -43 -51l-143 -823q-8 -37 -43 -37h-66q-37 0 -28 37zM70 1133l188 350q14 33 43 33h66 q53 0 24 -39l-217 -347q-20 -27 -47 -26h-39q-33 0 -18 29z" />
<glyph unicode="&#x14a;" horiz-adv-x="1417" d="M59 41l242 1372q8 41 47 41h64q29 0 39 -20l475 -922q37 -70 78 -182q39 -109 49 -127h8l14 155q12 133 29 228l145 829q8 39 47 39h68q41 0 33 -41l-254 -1438q-37 -211 -176 -327q-141 -119 -365 -119q-37 0 -31 37l9 53q8 39 45 39q317 0 376 324l5 32l-488 947 q-31 63 -67 172q-37 106 -45 120h-9q-2 -12 -10 -133q-10 -119 -25 -202l-155 -877q-8 -41 -49 -41h-66q-41 0 -33 41z" />
<glyph unicode="&#x14b;" horiz-adv-x="1120" d="M29 37l151 864q16 80 99 113q178 69 391 69q205 0 291 -110q80 -106 45 -301l-125 -705q-35 -207 -172 -321q-137 -117 -357 -117q-37 0 -30 37l10 51q4 35 41 35q313 0 372 319l123 707q49 279 -237 278q-147 0 -279 -45q-33 -12 -43 -51l-143 -823q-8 -37 -43 -37h-66 q-37 0 -28 37z" />
<glyph unicode="&#x14c;" horiz-adv-x="1361" d="M96 496l86 483q41 242 209 373t440 131q268 0 394 -144q123 -141 80 -385l-84 -481q-90 -502 -646 -502q-270 0 -397 144q-125 139 -82 381zM246 485q-33 -178 57 -276q90 -100 291 -100q412 0 479 376l86 484q31 180 -57 278q-90 98 -291 99q-416 0 -479 -377zM598 1694 l4 32q8 35 43 35h481q37 0 29 -35l-4 -32q-8 -35 -41 -35h-483q-35 0 -29 35z" />
<glyph unicode="&#x14d;" horiz-adv-x="1103" d="M53 350l64 361q31 174 168 274q135 98 344 98q211 0 315 -104q102 -102 72 -279l-64 -360q-31 -174 -166 -272q-133 -96 -346 -97q-209 0 -313 103q-104 102 -74 276zM190 346q-20 -117 52 -182q72 -68 215 -68q145 0 241 68q96 66 117 182l64 361q20 117 -52 184 q-72 68 -217 67q-143 0 -239 -67q-96 -68 -117 -184zM395 1307l4 32q8 35 41 35h484q35 0 28 -35l-4 -32q-8 -35 -43 -35h-481q-37 0 -29 35z" />
<glyph unicode="&#x14e;" horiz-adv-x="1361" d="M96 496l86 483q41 242 209 373t440 131q268 0 394 -144q123 -141 80 -385l-84 -481q-90 -502 -646 -502q-270 0 -397 144q-125 139 -82 381zM246 485q-33 -178 57 -276q90 -100 291 -100q412 0 479 376l86 484q31 180 -57 278q-90 98 -291 99q-416 0 -479 -377zM584 1804 q-2 29 22 37l53 17q31 8 35 -15q14 -158 178 -157q162 0 234 159q16 23 37 15l51 -19q23 -12 10 -37q-104 -221 -348 -221t-272 221z" />
<glyph unicode="&#x14f;" horiz-adv-x="1103" d="M53 350l64 361q31 174 168 274q135 98 344 98q211 0 315 -104q102 -102 72 -279l-64 -360q-31 -174 -166 -272q-133 -96 -346 -97q-209 0 -313 103q-104 102 -74 276zM190 346q-20 -117 52 -182q72 -68 215 -68q145 0 241 68q96 66 117 182l64 361q20 117 -52 184 q-72 68 -217 67q-143 0 -239 -67q-96 -68 -117 -184zM381 1417q-6 27 25 35l47 16q27 8 34 -14q14 -156 183 -156q160 0 235 158q10 23 35 17l51 -21q23 -12 10 -35q-104 -223 -342 -223q-250 0 -278 223z" />
<glyph unicode="&#x150;" horiz-adv-x="1361" d="M96 496l86 483q41 242 209 373t440 131q268 0 394 -144q123 -141 80 -385l-84 -481q-90 -502 -646 -502q-270 0 -397 144q-125 139 -82 381zM246 485q-33 -178 57 -276q90 -100 291 -100q412 0 479 376l86 484q31 180 -57 278q-90 98 -291 99q-416 0 -479 -377zM580 1628 l223 217q29 39 65 25l43 -12q35 -14 4 -41l-260 -220q-33 -25 -49 -14l-22 6q-31 10 -4 39zM926 1624l231 221q31 37 66 25l45 -12q41 -16 4 -41l-271 -224q-31 -23 -47 -16l-24 8q-35 12 -4 39z" />
<glyph unicode="&#x151;" horiz-adv-x="1103" d="M53 350l64 361q31 174 168 274q135 98 344 98q211 0 315 -104q102 -102 72 -279l-64 -360q-31 -174 -166 -272q-133 -96 -346 -97q-209 0 -313 103q-104 102 -74 276zM190 346q-20 -117 52 -182q72 -68 215 -68q145 0 241 68q96 66 117 182l64 361q20 117 -52 184 q-72 68 -217 67q-143 0 -239 -67q-96 -68 -117 -184zM375 1231l223 217q29 35 66 25l43 -13q37 -14 4 -43l-260 -217q-33 -25 -50 -16l-22 8q-31 10 -4 39zM719 1229l235 217q31 35 66 24l45 -14q43 -12 6 -41l-276 -217q-29 -25 -50 -16l-22 8q-31 10 -4 39z" />
<glyph unicode="&#x152;" horiz-adv-x="1728" d="M96 502l84 483q43 240 211 369q170 131 443 131q115 0 221 -31h680q41 0 32 -41l-10 -57q-6 -41 -47 -41h-571l-90 -510h479q41 0 33 -41l-11 -57q-8 -41 -47 -41h-481l-92 -527h600q39 0 33 -41l-11 -57q-8 -41 -49 -41h-704q-113 -31 -232 -31q-270 0 -395 148 q-119 141 -76 385zM242 485q-31 -180 59 -276q90 -100 291 -100q113 0 188 26l209 1184q-76 27 -180 27q-416 0 -481 -377z" />
<glyph unicode="&#x153;" horiz-adv-x="1648" d="M59 352l64 363q31 174 156 272q123 96 311 96q268 0 303 -211q127 211 367 211q193 0 278 -90q88 -92 53 -260q-63 -293 -436 -293q-127 0 -276 35l-19 -104q-51 -281 213 -281q195 0 303 158q31 33 58 14l39 -24q31 -25 0 -60q-137 -207 -420 -207q-238 0 -289 189 q-127 -188 -367 -189q-188 0 -278 103q-90 102 -60 278zM195 344q-20 -117 41 -182q59 -66 182 -66t209 78q86 76 108 205l56 301q23 133 -37 207q-57 72 -183 71q-123 0 -206 -65q-84 -68 -105 -184zM897 584q143 -35 279 -35q238 0 278 188q55 228 -215 228 q-276 0 -328 -297z" />
<glyph unicode="&#x154;" horiz-adv-x="1314" d="M59 41l242 1372q8 41 47 41h582q201 0 295 -117t57 -317q-57 -338 -397 -391q74 -37 108 -142l150 -446q14 -41 -29 -41h-65q-63 0 -74 37l-129 395q-33 100 -82 137q-55 41 -172 41h-283l-102 -569q-6 -41 -47 -41h-68q-41 0 -33 41zM332 750h459q289 0 339 280 q25 137 -38 211q-61 74 -201 74h-459zM604 1591q-16 27 10 41l369 207q49 23 70 -4l22 -37q20 -31 -14 -43l-393 -190q-39 -12 -50 4z" />
<glyph unicode="&#x155;" horiz-adv-x="698" d="M29 37l151 868q16 82 99 115q164 59 380 63h64q39 0 31 -36l-9 -54q-8 -37 -43 -37h-67q-152 0 -281 -43q-35 -14 -45 -53l-143 -823q-8 -37 -43 -37h-66q-37 0 -28 37zM307 1227q-18 27 10 41l367 207q49 23 70 -5l22 -36q23 -31 -14 -43l-393 -191q-39 -12 -50 4z" />
<glyph unicode="&#x156;" horiz-adv-x="1314" d="M59 41l242 1372q8 41 47 41h582q201 0 295 -117t57 -317q-57 -338 -397 -391q74 -37 108 -142l150 -446q14 -41 -29 -41h-65q-63 0 -74 37l-129 395q-33 100 -82 137q-55 41 -172 41h-283l-102 -569q-6 -41 -47 -41h-68q-41 0 -33 41zM332 750h459q289 0 339 280 q25 137 -38 211q-61 74 -201 74h-459zM371 -483l121 297q12 39 51 39h61q51 0 29 -41l-148 -287q-16 -35 -49 -35h-43q-31 0 -22 27z" />
<glyph unicode="&#x157;" horiz-adv-x="698" d="M-88 -426l111 299q10 41 53 41h53q47 0 27 -41l-133 -293q-16 -37 -54 -37h-37q-31 0 -20 31zM25 37l153 868q16 82 98 115q164 59 379 63h66q37 0 31 -36l-11 -54q-6 -37 -43 -37h-67q-154 0 -279 -43q-39 -16 -45 -53l-143 -823q-8 -37 -45 -37h-64q-37 0 -30 37z" />
<glyph unicode="&#x158;" horiz-adv-x="1314" d="M59 41l242 1372q8 41 47 41h582q201 0 295 -117t57 -317q-57 -338 -397 -391q74 -37 108 -142l150 -446q14 -41 -29 -41h-65q-63 0 -74 37l-129 395q-33 100 -82 137q-55 41 -172 41h-283l-102 -569q-6 -41 -47 -41h-68q-41 0 -33 41zM332 750h459q289 0 339 280 q25 137 -38 211q-61 74 -201 74h-459zM526 1815q-23 31 25 30h53q35 0 53 -20l168 -170l228 170q23 20 67 20h56q49 0 10 -30l-287 -220q-41 -35 -78 -34h-14q-39 0 -68 34z" />
<glyph unicode="&#x159;" horiz-adv-x="700" d="M29 37l151 868q16 82 99 115q164 59 380 63h64q39 0 31 -36l-9 -54q-8 -37 -43 -37h-67q-152 0 -281 -43q-35 -14 -45 -53l-143 -823q-8 -37 -43 -37h-66q-37 0 -28 37zM227 1440q-18 31 23 30h51q37 0 55 -20l168 -170l226 170q25 20 67 20h57q45 0 13 -32l-289 -217 q-41 -35 -76 -35h-12q-41 0 -70 35z" />
<glyph unicode="&#x15a;" horiz-adv-x="1267" d="M29 324q-8 39 32 55l68 22q37 12 47 -24q70 -266 369 -266q408 0 454 282q25 141 -86 203q-74 43 -264 63q-236 27 -346 105q-156 106 -117 330q70 389 594 389q365 0 467 -314q10 -35 -28 -51l-64 -28q-39 -12 -49 20q-76 231 -348 231q-379 0 -422 -260 q-25 -143 94 -209q82 -47 279 -69q227 -27 331 -103q145 -106 107 -325q-72 -403 -617 -404q-424 0 -501 353zM602 1612q-14 27 10 41l367 205q49 27 70 -3l22 -36q23 -33 -12 -45l-395 -189q-37 -16 -48 2z" />
<glyph unicode="&#x15b;" horiz-adv-x="1011" d="M4 225q-6 39 33 49l57 19q31 10 43 -23q41 -178 283 -178q287 0 321 187q16 100 -57 141q-53 31 -207 47q-195 20 -270 68q-117 74 -86 249q51 299 454 299q315 0 377 -223q12 -39 -26 -53l-49 -21q-33 -12 -50 19q-45 154 -270 153q-266 0 -301 -180q-18 -109 61 -149 q49 -27 215 -41q186 -18 267 -78q104 -76 75 -238q-53 -301 -471 -301q-346 0 -399 254zM397 1229q-16 25 11 41l366 205q49 25 70 -2l24 -37q18 -31 -14 -45l-393 -189q-37 -14 -49 2z" />
<glyph unicode="&#x15c;" horiz-adv-x="1267" d="M29 324q-8 39 32 55l68 22q37 12 47 -24q70 -266 369 -266q408 0 454 282q25 141 -86 203q-74 43 -264 63q-236 27 -346 105q-156 106 -117 330q70 389 594 389q365 0 467 -314q10 -35 -28 -51l-64 -28q-39 -12 -49 20q-76 231 -348 231q-379 0 -422 -260 q-25 -143 94 -209q82 -47 279 -69q227 -27 331 -103q145 -106 107 -325q-72 -403 -617 -404q-424 0 -501 353zM487 1612l291 219q39 35 78 35h16q35 0 66 -35l211 -219q23 -31 -25 -31h-49q-41 0 -57 21l-166 170l-229 -170q-23 -20 -62 -21h-59q-49 0 -15 31z" />
<glyph unicode="&#x15d;" horiz-adv-x="1011" d="M4 225q-6 39 33 49l57 19q31 10 43 -23q41 -178 283 -178q287 0 321 187q16 100 -57 141q-53 31 -207 47q-195 20 -270 68q-117 74 -86 249q51 299 454 299q315 0 377 -223q13 -39 -26 -53l-49 -21q-33 -12 -50 19q-45 154 -270 153q-266 0 -301 -180q-18 -109 61 -149 q49 -27 215 -41q186 -18 267 -78q104 -76 75 -238q-53 -301 -471 -301q-346 0 -399 254zM281 1221l292 219q37 33 78 33h17q37 0 63 -33l211 -219q27 -31 -22 -31h-48q-43 0 -59 20l-166 172l-227 -172q-25 -20 -62 -20h-63q-45 0 -14 31z" />
<glyph unicode="&#x15e;" horiz-adv-x="1267" d="M29 324q-8 39 32 55l68 22q37 12 47 -24q70 -266 369 -266q408 0 454 282q25 141 -86 203q-74 43 -264 63q-236 27 -346 105q-156 106 -117 330q70 389 594 389q365 0 467 -314q10 -35 -28 -51l-64 -28q-39 -12 -49 20q-76 231 -348 231q-379 0 -422 -260 q-25 -143 94 -209q82 -47 279 -69q227 -27 331 -103q145 -106 107 -325q-63 -377 -545 -402l-72 -137q43 6 52 6q90 0 129 -45t22 -121q-45 -188 -276 -188q-102 0 -158 43q-25 10 -18 39l6 39q4 27 22 14q63 -47 146 -47q143 0 166 113q12 88 -113 88q-43 0 -68 -8 q-39 -2 -18 34l92 168q-410 6 -485 353z" />
<glyph unicode="&#x15f;" horiz-adv-x="1011" d="M4 225q-6 39 33 49l57 19q31 10 43 -23q41 -178 283 -178q287 0 321 187q16 100 -57 141q-53 31 -207 47q-195 20 -270 68q-117 74 -86 249q51 299 454 299q315 0 377 -223q12 -39 -26 -53l-49 -21q-33 -12 -50 19q-45 154 -270 153q-266 0 -301 -180q-18 -109 61 -149 q49 -27 215 -41q186 -18 267 -78q104 -76 75 -238q-49 -272 -405 -299l-72 -135q23 6 52 6q88 0 126 -45q39 -45 23 -121q-41 -188 -276 -188q-90 0 -158 43q-23 10 -17 39l7 39q4 27 22 14q59 -47 146 -47q143 0 163 113q14 88 -110 88q-39 0 -70 -6q-39 -6 -16 32l92 166 q-328 6 -377 254z" />
<glyph unicode="&#x160;" horiz-adv-x="1267" d="M29 324q-8 39 32 55l68 22q37 12 47 -24q70 -266 369 -266q408 0 454 282q25 141 -86 203q-74 43 -264 63q-236 27 -346 105q-156 106 -117 330q70 389 594 389q365 0 467 -314q10 -35 -28 -51l-64 -28q-39 -12 -49 20q-76 231 -348 231q-379 0 -422 -260 q-25 -143 94 -209q82 -47 279 -69q227 -27 331 -103q145 -106 107 -325q-72 -403 -617 -404q-424 0 -501 353zM524 1833q-27 31 25 31h53q35 0 53 -21l166 -170l230 170q23 20 65 21h55q43 0 13 -31l-289 -219q-39 -33 -76 -33h-16q-39 0 -68 33z" />
<glyph unicode="&#x161;" horiz-adv-x="1011" d="M4 225q-6 39 33 49l57 19q31 10 43 -23q41 -178 283 -178q287 0 321 187q16 100 -57 141q-53 31 -207 47q-195 20 -270 68q-117 74 -86 249q51 299 454 299q316 0 377 -223q12 -39 -26 -53l-49 -21q-33 -12 -50 19q-45 154 -270 153q-266 0 -301 -180q-18 -109 61 -149 q49 -27 215 -41q186 -18 267 -78q104 -76 75 -238q-53 -301 -471 -301q-346 0 -399 254zM319 1442q-27 31 23 31h51q37 0 53 -23l170 -168l226 168q25 23 65 23h58q45 0 12 -33l-289 -219q-37 -33 -74 -33h-14q-39 0 -68 33z" />
<glyph unicode="&#x164;" horiz-adv-x="1105" d="M152 1356l12 57q6 41 47 41h977q41 0 33 -41l-11 -57q-6 -41 -47 -41h-413l-226 -1274q-8 -41 -47 -41h-67q-41 0 -35 41l225 1274h-414q-41 0 -34 41zM432 1815q-27 31 23 30h53q35 0 53 -20l168 -170l227 170q23 20 68 20h55q49 0 11 -30l-287 -220q-41 -35 -78 -34 h-14q-39 0 -68 34z" />
<glyph unicode="&#x165;" horiz-adv-x="722" d="M66 963l10 53q6 37 43 37h194l37 209q6 37 43 36h64q37 0 30 -36l-36 -209h294q37 0 31 -37l-10 -53q-6 -37 -41 -37h-297l-94 -533q-31 -178 22 -237q47 -53 219 -54q39 0 31 -39l-10 -55q-6 -37 -43 -37q-242 -4 -320 84q-80 90 -36 334l94 537h-195q-37 0 -30 37z M657 1178l107 301q10 37 49 37h57q49 0 27 -37l-139 -293q-16 -35 -49 -35h-33q-27 0 -19 27z" />
<glyph unicode="&#x166;" horiz-adv-x="1155" d="M176 1356l10 57q8 41 47 41h977q41 0 35 -41l-12 -57q-6 -41 -45 -41h-416l-102 -586h286q29 0 21 -29l-8 -51q-4 -29 -33 -28h-287l-102 -580q-6 -41 -47 -41h-68q-41 0 -33 41l101 580h-287q-25 0 -20 28l8 51q8 29 32 29h287l105 586h-416q-39 0 -33 41z" />
<glyph unicode="&#x167;" horiz-adv-x="731" d="M35 520l6 43q8 29 33 29h164l59 334h-193q-39 0 -32 37l10 55q8 37 43 37h194l37 209q8 37 43 36h64q39 0 31 -36l-37 -209h297q37 0 28 -37l-10 -55q-6 -37 -41 -37h-295l-61 -334h239q27 0 21 -29l-6 -43q-8 -29 -33 -28h-238l-16 -101q-31 -176 20 -235 q49 -53 220 -54q39 0 30 -36l-10 -56q-6 -37 -43 -39q-240 -4 -317 84q-82 90 -39 336l18 101h-166q-27 0 -20 28z" />
<glyph unicode="&#x168;" horiz-adv-x="1398" d="M129 510l162 903q8 41 47 41h68q41 0 32 -41l-162 -919q-31 -182 52 -281q84 -104 282 -104q403 0 469 385l164 919q6 41 47 41h68q41 0 33 -41l-164 -934q-92 -510 -637 -510q-268 0 -389 152q-115 143 -72 389zM553 1602q37 205 195 204q80 0 155 -67q76 -70 123 -70 q82 0 102 113q4 25 27 24h41q25 0 18 -24q-33 -205 -194 -205q-74 0 -150 70q-76 68 -127 67q-84 0 -100 -112q-6 -25 -29 -25h-41q-27 0 -20 25z" />
<glyph unicode="&#x169;" horiz-adv-x="1122" d="M88 381l111 635q8 37 45 37h63q37 0 29 -37l-113 -639q-47 -281 238 -281q154 0 276 45q41 18 47 58l144 817q6 37 43 37h63q39 0 31 -37l-152 -864q-16 -80 -98 -113q-174 -68 -393 -68q-408 0 -334 410zM350 1241q37 205 193 205q78 0 155 -68q78 -70 127 -69 q80 0 101 112q6 25 28 25h39q27 0 21 -25q-37 -205 -193 -204q-74 0 -151 69q-78 68 -129 68q-80 0 -103 -113q-2 -25 -26 -24h-41q-23 0 -21 24z" />
<glyph unicode="&#x16a;" horiz-adv-x="1398" d="M129 510l162 903q8 41 47 41h68q41 0 32 -41l-162 -919q-31 -182 52 -281q84 -104 282 -104q403 0 469 385l164 919q6 41 47 41h68q41 0 33 -41l-164 -934q-92 -510 -637 -510q-268 0 -389 152q-115 143 -72 389zM610 1673l4 33q8 35 43 35h482q37 0 28 -35l-4 -33 q-8 -35 -41 -35h-483q-35 0 -29 35z" />
<glyph unicode="&#x16b;" horiz-adv-x="1122" d="M88 381l111 635q8 37 45 37h63q37 0 29 -37l-113 -639q-47 -281 238 -281q154 0 276 45q41 18 47 58l144 817q6 37 43 37h63q39 0 31 -37l-152 -864q-16 -80 -98 -113q-174 -68 -393 -68q-408 0 -334 410zM408 1307l4 32q8 35 41 35h483q35 0 29 -35l-4 -32 q-8 -35 -43 -35h-482q-37 0 -28 35z" />
<glyph unicode="&#x16c;" horiz-adv-x="1398" d="M129 510l162 903q8 41 47 41h68q41 0 32 -41l-162 -919q-31 -182 52 -281q84 -104 282 -104q403 0 469 385l164 919q6 41 47 41h68q41 0 33 -41l-164 -934q-92 -510 -637 -510q-268 0 -389 152q-115 143 -72 389zM596 1784q-2 29 22 37l54 16q31 8 35 -14 q14 -158 178 -158q162 0 233 160q16 23 37 14l51 -18q23 -12 11 -37q-105 -221 -349 -221t-272 221z" />
<glyph unicode="&#x16d;" horiz-adv-x="1122" d="M88 381l111 635q8 37 45 37h63q37 0 29 -37l-113 -639q-47 -281 238 -281q154 0 276 45q41 18 47 58l144 817q6 37 43 37h63q39 0 31 -37l-152 -864q-16 -80 -98 -113q-174 -68 -393 -68q-408 0 -334 410zM393 1417q-6 27 25 35l47 16q27 8 35 -14q14 -156 182 -156 q160 0 236 158q10 23 34 17l52 -21q23 -12 10 -35q-104 -223 -342 -223q-250 0 -279 223z" />
<glyph unicode="&#x16e;" horiz-adv-x="1398" d="M129 510l162 903q8 41 47 41h68q41 0 32 -41l-162 -919q-31 -182 52 -281q84 -104 282 -104q403 0 469 385l164 919q6 41 47 41h68q41 0 33 -41l-164 -934q-92 -510 -637 -510q-268 0 -389 152q-115 143 -72 389zM694 1722q16 93 84 148t162 55q92 0 137 -55 q47 -57 31 -148q-16 -90 -82 -145t-158 -55q-94 0 -141 55t-33 145zM768 1722q-20 -129 115 -129q131 0 151 129q11 58 -18 95q-29 35 -88 34q-135 0 -160 -129z" />
<glyph unicode="&#x16f;" horiz-adv-x="1122" d="M88 381l111 635q8 37 45 37h63q37 0 29 -37l-113 -639q-47 -281 238 -281q154 0 276 45q41 18 47 58l144 817q6 37 43 37h63q39 0 31 -37l-152 -864q-16 -80 -98 -113q-174 -68 -393 -68q-408 0 -334 410zM485 1327q16 91 84 146q68 53 162 53q92 0 137 -56 q47 -57 31 -147q-14 -90 -82 -145q-66 -53 -158 -54q-94 0 -141 56q-49 57 -33 147zM559 1325q-10 -59 21 -94t92 -35q133 0 153 129q11 59 -18 94t-88 35q-133 0 -160 -129z" />
<glyph unicode="&#x170;" horiz-adv-x="1398" d="M129 510l162 903q8 41 47 41h68q41 0 32 -41l-162 -919q-31 -182 52 -281q84 -104 282 -104q403 0 469 385l164 919q6 41 47 41h68q41 0 33 -41l-164 -934q-92 -510 -637 -510q-268 0 -389 152q-115 143 -72 389zM592 1608l223 217q29 39 66 24l43 -12q35 -14 4 -41 l-260 -219q-33 -25 -50 -14l-22 6q-31 10 -4 39zM938 1604l231 221q31 37 66 24l45 -12q41 -16 4 -41l-270 -223q-31 -23 -47 -17l-25 9q-35 12 -4 39z" />
<glyph unicode="&#x171;" horiz-adv-x="1122" d="M88 381l111 635q8 37 45 37h63q37 0 29 -37l-113 -639q-47 -281 238 -281q154 0 276 45q41 18 47 58l144 817q6 37 43 37h63q39 0 31 -37l-152 -864q-16 -80 -98 -113q-174 -68 -393 -68q-408 0 -334 410zM387 1231l223 217q29 35 66 25l43 -13q37 -14 4 -43l-260 -217 q-33 -25 -49 -16l-23 8q-31 10 -4 39zM731 1229l236 217q31 35 65 24l45 -14q43 -12 6 -41l-276 -217q-29 -25 -49 -16l-23 8q-31 10 -4 39z" />
<glyph unicode="&#x172;" horiz-adv-x="1398" d="M129 510l162 903q8 41 47 41h68q41 0 32 -41l-162 -919q-31 -182 52 -281q84 -104 282 -104q403 0 469 385l164 919q6 41 47 41h68q41 0 33 -41l-164 -934q-49 -270 -250 -409q-147 -104 -234 -234q-78 -117 -67 -180q12 -57 67 -57q59 0 113 47q18 12 25 -6l12 -50 q4 -16 -10 -28q-78 -68 -197 -68q-127 0 -139 117q-18 178 233 383q-86 -25 -190 -25q-268 0 -389 152q-115 143 -72 389z" />
<glyph unicode="&#x173;" horiz-adv-x="1122" d="M86 381l111 635q8 37 45 37h63q37 0 29 -37l-113 -639q-47 -281 238 -281q154 0 276 45q41 18 47 58l144 817q6 37 43 37h63q39 0 31 -37l-152 -864q-10 -57 -47 -86q-127 -104 -207 -234q-72 -117 -61 -178q8 -53 70 -53q59 0 110 45q18 12 25 -6l10 -43q2 -18 -8 -29 q-92 -74 -199 -74q-131 0 -137 107q-10 78 55 190q68 119 189 217q-133 -37 -291 -37q-408 0 -334 410z" />
<glyph unicode="&#x174;" horiz-adv-x="1798" d="M184 1415q-2 39 33 39h80q47 0 49 -37l76 -989v-219h8q59 172 80 219l444 967q16 37 62 37h61q45 0 47 -37l99 -969q6 -70 6 -217h6q8 20 35 98l41 117l428 993q12 37 59 37h76q35 0 20 -39l-606 -1380q-14 -35 -57 -35h-70q-45 0 -45 33l-100 991q-6 106 -4 201h-8 q-35 -111 -76 -199l-453 -991q-14 -35 -57 -35h-66q-45 0 -47 33zM748 1591l290 221q39 33 78 33h17q37 0 65 -33l211 -221q25 -29 -25 -28h-49q-41 0 -57 20l-166 168l-229 -168q-23 -20 -62 -20h-59q-51 0 -14 28z" />
<glyph unicode="&#x175;" horiz-adv-x="1490" d="M115 1010q-6 43 39 43h45q55 0 55 -37l76 -635l4 -123q0 -74 4 -90h4q6 12 37 90q31 82 51 125l307 610q16 37 68 37h26q49 0 54 -37l88 -604q8 -51 10 -129l4 -92h6q8 16 35 88q31 84 49 129l297 631q16 37 72 37h47q43 0 20 -43l-469 -983q-16 -33 -57 -33h-47 q-43 0 -45 33l-92 669q-4 41 -6 107q-2 57 -4 67h-5q-6 -12 -28 -67l-45 -107l-330 -669q-18 -33 -55 -33h-43q-41 0 -43 33zM524 1219l291 219q41 35 80 35h16q35 0 64 -35l211 -219q23 -31 -23 -31h-49q-41 0 -57 20l-166 172l-227 -172q-27 -20 -64 -20h-61q-45 0 -15 31 z" />
<glyph unicode="&#x176;" horiz-adv-x="1277" d="M170 1413q-14 41 29 41h80q57 0 71 -37l312 -674l550 674q25 37 82 37h80q47 0 17 -41l-682 -823l-97 -549q-8 -41 -49 -41h-67q-41 0 -33 41l96 551zM485 1591l289 221q41 33 80 33h16q37 0 64 -33l213 -221q20 -29 -25 -28h-51q-41 0 -57 20l-166 168l-230 -168 q-23 -20 -61 -20h-59q-49 0 -13 28z" />
<glyph unicode="&#x177;" horiz-adv-x="1126" d="M-6 -285q-18 41 24 60l45 22q41 20 58 -14q61 -164 258 -164q299 0 354 311l21 121q-193 -53 -330 -53q-408 0 -334 410l107 608q6 37 43 37h65q37 0 29 -37l-109 -613q-49 -281 240 -280q129 0 311 55l148 838q8 37 45 37h63q37 0 29 -37l-189 -1079q-78 -442 -514 -443 q-287 0 -364 221zM334 1219l291 219q41 35 80 35h16q35 0 63 -35l211 -219q27 -31 -22 -31h-49q-41 0 -58 20l-166 172l-227 -172q-27 -20 -63 -20h-62q-45 0 -14 31z" />
<glyph unicode="&#x178;" horiz-adv-x="1277" d="M170 1413q-14 41 29 41h80q57 0 71 -37l312 -674l550 674q25 37 82 37h80q47 0 17 -41l-682 -823l-97 -549q-8 -41 -49 -41h-67q-41 0 -33 41l96 551zM559 1688l2 16q14 66 78 65h14q66 0 56 -65l-2 -16q-12 -66 -80 -66h-15q-66 0 -53 66zM956 1688l2 16q10 66 80 65h13 q66 0 55 -65l-2 -16q-12 -66 -80 -66h-12q-41 0 -51 14q-12 12 -5 52z" />
<glyph unicode="&#x179;" horiz-adv-x="1146" d="M-41 41l10 55q2 25 23 47l1018 1172h-777q-41 0 -34 41l12 57q6 41 47 41h920q41 0 34 -41l-10 -55q-4 -25 -22 -45l-1020 -1174h807q43 0 32 -39l-10 -59q-6 -41 -47 -41h-950q-41 0 -33 41zM539 1591q-16 27 10 41l366 207q51 23 70 -4l23 -37q23 -31 -13 -43 l-393 -190q-39 -12 -49 4z" />
<glyph unicode="&#x17a;" horiz-adv-x="921" d="M-45 37l10 51q2 20 21 41l747 799h-575q-37 0 -29 37l8 51q6 37 43 37h717q37 0 29 -37l-8 -51q-2 -14 -23 -43l-750 -797h598q35 0 29 -37l-8 -51q-8 -37 -43 -37h-735q-37 0 -31 37zM352 1227q-18 27 10 41l369 207q49 23 68 -5l24 -36q18 -31 -14 -43l-393 -191 q-39 -12 -49 4z" />
<glyph unicode="&#x17b;" horiz-adv-x="1146" d="M-41 41l10 55q2 25 23 47l1018 1172h-777q-41 0 -34 41l12 57q6 41 47 41h920q41 0 34 -41l-10 -55q-4 -25 -22 -45l-1020 -1174h807q43 0 32 -39l-10 -59q-6 -41 -47 -41h-950q-41 0 -33 41zM696 1683l2 13q14 70 82 69h11q39 0 51 -14t6 -55l-4 -13q-10 -68 -80 -67 h-10q-41 0 -52 14q-12 14 -6 53z" />
<glyph unicode="&#x17c;" horiz-adv-x="921" d="M-45 37l10 51q2 20 21 41l747 799h-575q-37 0 -29 37l8 51q6 37 43 37h717q37 0 29 -37l-8 -51q-2 -14 -23 -43l-750 -797h598q35 0 29 -37l-8 -51q-8 -37 -43 -37h-735q-37 0 -31 37zM510 1319l4 10q10 70 80 70h10q39 0 51 -15q12 -14 7 -55l-3 -10q-10 -70 -81 -70 h-11q-41 0 -53 15q-12 14 -4 55z" />
<glyph unicode="&#x17d;" horiz-adv-x="1146" d="M-41 41l10 55q2 25 23 47l1018 1172h-777q-41 0 -34 41l12 57q6 41 47 41h920q41 0 34 -41l-10 -55q-4 -25 -22 -45l-1020 -1174h807q43 0 32 -39l-10 -59q-6 -41 -47 -41h-950q-41 0 -33 41zM461 1815q-27 31 24 30h54q35 0 53 -20l168 -170l227 170q23 20 66 20h57 q45 0 10 -30l-289 -220q-39 -35 -75 -34h-17q-37 0 -65 34z" />
<glyph unicode="&#x17e;" horiz-adv-x="921" d="M-45 37l10 51q2 20 21 41l747 799h-575q-37 0 -29 37l8 51q6 37 43 37h717q37 0 29 -37l-8 -51q-2 -14 -23 -43l-750 -797h598q35 0 29 -37l-8 -51q-8 -37 -43 -37h-735q-37 0 -31 37zM274 1440q-23 31 23 30h51q37 0 53 -20l170 -170l226 170q25 20 67 20h58 q47 0 10 -32l-289 -217q-39 -35 -74 -35h-14q-39 0 -68 35z" />
<glyph unicode="&#x17f;" horiz-adv-x="528" d="M76 963l10 53q8 37 43 37h162l8 53q39 219 158 315q117 94 346 95q37 0 31 -37l-11 -54q-6 -39 -45 -39q-166 0 -239 -63q-74 -63 -103 -227l-186 -1059q-8 -37 -45 -37h-64q-37 0 -28 37l155 889h-159q-39 0 -33 37z" />
<glyph unicode="&#x192;" horiz-adv-x="872" d="M-145 -414l4 54q2 39 41 38q272 0 329 297l136 693h-267q-35 0 -32 37l6 55q2 37 39 37h278l57 301q80 418 480 418q37 0 35 -37l-5 -54q-6 -39 -43 -39q-270 0 -327 -294l-58 -295h281q35 0 33 -37l-4 -55q-6 -37 -41 -37h-293l-135 -697q-84 -422 -482 -422 q-35 0 -32 37z" />
<glyph unicode="&#x1a0;" horiz-adv-x="1361" d="M96 496l86 483q41 242 209 373t440 131q268 0 394 -144q35 -39 55 -88q35 23 63 54q51 59 58 129q2 31 37 32h51q31 0 24 -30q-14 -104 -90 -191q-48 -51 -114 -88q16 -90 -4 -203l-84 -481q-90 -502 -646 -502q-270 0 -397 144q-125 139 -82 381zM246 485 q-33 -178 57 -276q90 -100 291 -100q412 0 479 376l86 484q31 180 -57 278q-90 98 -291 99q-416 0 -479 -377z" />
<glyph unicode="&#x1a1;" horiz-adv-x="1169" d="M53 350l64 361q31 174 168 274q135 98 344 98q211 0 315 -104q53 -53 70 -127q23 16 41 37q51 59 57 129q2 31 37 33h51q31 0 25 -31q-14 -104 -90 -191q-50 -51 -113 -86q-2 -20 -6 -43l-64 -360q-31 -174 -166 -272q-133 -96 -346 -97q-209 0 -313 103 q-104 102 -74 276zM190 346q-20 -117 52 -182q72 -68 215 -68q145 0 241 68q96 66 117 182l64 361q20 117 -52 184q-72 68 -217 67q-143 0 -239 -67q-96 -68 -117 -184z" />
<glyph unicode="&#x1af;" horiz-adv-x="1441" d="M129 510l162 903q8 41 47 41h68q41 0 32 -41l-162 -919q-31 -182 52 -281q84 -104 282 -104q403 0 469 385l164 919q6 41 47 41h68q41 0 33 -41l-27 -153q27 20 51 45q51 59 58 129q2 31 36 32h52q31 0 24 -30q-14 -104 -90 -191q-62 -65 -152 -106l-116 -660 q-92 -510 -637 -510q-268 0 -389 152q-115 143 -72 389z" />
<glyph unicode="&#x1b0;" horiz-adv-x="1198" d="M88 381l111 635q8 37 45 37h63q37 0 29 -37l-113 -639q-47 -281 238 -281q154 0 276 45q41 18 47 58l144 817q6 37 43 37h63q39 0 31 -37l-29 -158q18 14 35 31q51 59 57 129q2 31 37 33h52q31 0 24 -31q-14 -104 -90 -191q-57 -59 -135 -98l-103 -579q-16 -80 -98 -113 q-174 -68 -393 -68q-408 0 -334 410z" />
<glyph unicode="&#x1fa;" d="M-78 39l778 1350q-113 37 -92 159q16 87 86 140q68 53 160 53t141 -53q49 -55 35 -146q-18 -117 -145 -153l301 -1350q6 -39 -37 -39h-53q-61 0 -68 37l-86 399h-631l-229 -399q-20 -37 -80 -37h-59q-47 0 -21 39zM375 561h545l-101 481q-10 57 -18 160q-10 92 -15 113 h-10q-10 -16 -51 -111q-43 -100 -76 -160zM666 1784q-12 18 20 37l328 139q47 23 65 -2l23 -31q20 -23 -12 -31l-365 -135q-35 -8 -45 4zM690 1546q-10 -49 21 -80q29 -33 86 -32q129 0 149 112q9 53 -20 88q-29 33 -84 33q-131 0 -152 -121z" />
<glyph unicode="&#x1fb;" horiz-adv-x="1089" d="M61 401l52 293q68 389 508 389q205 0 335 -61q47 -23 58 -41q10 -20 2 -72l-146 -829q-8 -35 -51 -49q-213 -59 -422 -60q-203 0 -291 121q-80 113 -45 309zM197 391q-53 -295 231 -295q168 0 315 49l127 717q4 39 -32 56q-101 38 -230 38q-162 0 -246 -63 q-88 -68 -114 -217zM463 1640q-16 20 10 31l342 154q47 18 66 -4l22 -27q18 -23 -12 -33l-369 -139q-33 -10 -47 2zM483 1374q14 93 82 148q68 53 162 53q92 0 139 -55q45 -57 29 -150q-14 -90 -80 -145q-66 -53 -158 -54q-94 0 -143 56q-47 57 -31 147zM557 1372 q-23 -127 113 -127q131 0 151 127q13 59 -16 94q-31 35 -90 35q-135 0 -158 -129z" />
<glyph unicode="&#x1fc;" horiz-adv-x="1699" d="M-102 39l1083 1380q29 35 57 35h672q41 0 35 -41l-12 -57q-6 -41 -47 -41h-549l-88 -510h456q39 0 33 -41l-10 -57q-8 -41 -49 -41h-457l-92 -527h575q41 0 33 -41l-10 -57q-8 -41 -47 -41h-676q-41 0 -33 41l55 317h-510l-249 -321q-29 -37 -82 -37h-68q-43 0 -20 39z M412 481h438l131 736zM1188 1591q-18 27 8 41l369 207q51 25 69 -4l23 -37q23 -31 -12 -43l-396 -190q-37 -12 -47 4z" />
<glyph unicode="&#x1fd;" horiz-adv-x="1597" d="M18 299q53 303 465 303q119 0 224 -18l16 88q27 137 2 196q-37 92 -188 93q-166 0 -273 -140q-25 -29 -53 -18l-45 20q-39 16 -12 54q147 207 407 206q238 0 273 -200q120 200 368 200q193 0 283 -92q90 -94 53 -262q-57 -289 -442 -289q-133 0 -283 35l-18 -104 q-49 -281 221 -281q197 0 307 162q29 37 55 14l41 -24q31 -20 0 -60q-145 -211 -424 -211q-205 0 -274 125q-133 -125 -356 -125q-403 0 -347 328zM154 289q-35 -203 219 -203q170 0 291 115q-10 78 4 164l20 108q-123 18 -239 19q-256 0 -295 -203zM688 1227q-18 27 10 41 l367 207q51 23 70 -5l22 -36q23 -31 -12 -43l-395 -191q-37 -12 -48 4zM831 582q133 -33 285 -33q246 0 289 186q53 230 -223 230q-133 0 -221 -78q-90 -78 -115 -219z" />
<glyph unicode="&#x1fe;" horiz-adv-x="1363" d="M6 -72l162 201q-113 137 -72 367l86 483q41 242 209 373t440 131q231 0 353 -109l121 150q14 14 30 14h80q18 0 4 -14l-172 -213q98 -137 58 -357l-84 -481q-90 -502 -646 -502q-219 0 -342 95l-112 -138q-10 -14 -35 -14h-76q-18 0 -4 14zM246 485q-25 -135 35 -219 l806 989q-90 90 -276 91q-416 0 -479 -377zM330 186q94 -78 264 -77q412 0 479 376l86 484q20 123 -24 200zM643 1612q-16 27 10 41l369 207q49 23 70 -5l22 -36q20 -31 -14 -43l-393 -191q-39 -12 -50 4z" />
<glyph unicode="&#x1ff;" horiz-adv-x="1103" d="M23 -57l104 129q-102 104 -72 278l64 361q31 174 168 274q135 98 344 98q164 0 262 -63l82 98q10 12 26 12h60q18 0 4 -14l-115 -141q98 -104 68 -275l-62 -360q-33 -176 -168 -272t-346 -97q-158 0 -254 60l-71 -90q-14 -12 -33 -13h-57q-18 0 -4 15zM195 346 q-20 -94 32 -149l578 712q-72 49 -193 49q-143 0 -237 -67q-98 -68 -119 -184zM274 139q72 -43 187 -43q145 0 241 68q96 66 117 182l62 356q16 88 -35 142zM449 1227q-18 27 10 41l366 207q51 23 70 -5l23 -36q23 -31 -13 -43l-395 -191q-39 -12 -47 4z" />
<glyph unicode="&#x218;" horiz-adv-x="1267" d="M29 324q-8 39 32 55l68 22q37 12 47 -24q70 -266 369 -266q408 0 454 282q25 141 -86 203q-74 43 -264 63q-236 27 -346 105q-156 106 -117 330q70 389 594 389q365 0 467 -314q10 -35 -28 -51l-64 -28q-39 -12 -49 20q-76 231 -348 231q-379 0 -422 -260 q-25 -143 94 -209q82 -47 279 -69q227 -27 331 -103q145 -106 107 -325q-72 -403 -617 -404q-424 0 -501 353zM338 -494l121 297q12 39 51 39h61q51 0 29 -41l-147 -286q-16 -35 -50 -35h-43q-31 0 -22 26z" />
<glyph unicode="&#x219;" horiz-adv-x="1011" d="M4 225q-6 39 33 49l57 19q31 10 43 -23q41 -178 283 -178q287 0 321 187q16 100 -57 141q-53 31 -207 47q-195 20 -270 68q-117 74 -86 249q51 299 454 299q315 0 377 -223q12 -39 -26 -53l-49 -21q-33 -12 -50 19q-45 154 -270 153q-266 0 -301 -180q-18 -109 61 -149 q49 -27 215 -41q186 -18 267 -78q104 -76 75 -238q-53 -301 -471 -301q-346 0 -399 254zM248 -444l106 280q16 41 58 41h51q49 0 24 -41l-129 -274q-16 -35 -53 -35h-37q-31 0 -20 29z" />
<glyph unicode="&#x21a;" horiz-adv-x="1105" d="M152 1356l12 57q6 41 47 41h977q41 0 33 -41l-11 -57q-6 -41 -47 -41h-413l-226 -1274q-8 -41 -47 -41h-67q-41 0 -35 41l225 1274h-414q-41 0 -34 41zM246 -483l121 297q10 39 51 39h61q51 0 29 -41l-150 -287q-16 -35 -47 -35h-45q-31 0 -20 27z" />
<glyph unicode="&#x21b;" horiz-adv-x="722" d="M66 963l10 53q6 37 43 37h194l37 209q6 37 43 36h64q37 0 30 -36l-36 -209h294q37 0 31 -37l-10 -53q-6 -37 -41 -37h-297l-94 -533q-31 -178 22 -237q47 -53 219 -54q39 0 31 -39l-10 -55q-6 -37 -43 -37q-242 -4 -320 84q-80 90 -36 334l94 537h-195q-37 0 -30 37z M143 -483l121 297q10 39 51 39h62q51 0 29 -41l-148 -287q-18 -35 -49 -35h-45q-29 0 -21 27z" />
<glyph unicode="&#x2c6;" horiz-adv-x="774" d="M176 1231l291 219q39 33 80 33h16q37 0 64 -33l211 -219q23 -31 -23 -31h-49q-41 0 -57 21l-166 172l-228 -172q-27 -20 -63 -21h-62q-45 0 -14 31z" />
<glyph unicode="&#x2da;" horiz-adv-x="491" d="M180 1327q16 91 84 146q68 53 162 53q92 0 137 -56q47 -57 31 -149q-16 -90 -82 -143t-158 -54q-94 0 -141 56q-49 57 -33 147zM254 1325q-10 -59 20 -94q31 -35 93 -35q133 0 153 129q11 59 -18 94t-88 35q-133 0 -160 -129z" />
<glyph unicode="&#x2dc;" horiz-adv-x="624" d="M123 1253q33 203 192 203q76 0 154 -67q80 -70 129 -70q80 0 100 113q6 25 27 24h41q25 0 18 -24q-33 -203 -192 -203q-74 0 -150 69q-78 68 -129 68q-82 0 -102 -113q-2 -25 -27 -24h-41q-23 0 -20 24z" />
<glyph unicode="&#x1e80;" horiz-adv-x="1798" d="M184 1415q-2 39 33 39h80q47 0 49 -37l76 -989v-219h8q59 172 80 219l444 967q16 37 62 37h61q45 0 47 -37l99 -969q6 -70 6 -217h6q8 20 35 98l41 117l428 993q12 37 59 37h76q35 0 20 -39l-606 -1380q-14 -35 -57 -35h-70q-45 0 -45 33l-100 991q-6 106 -4 201h-8 q-35 -111 -76 -199l-453 -991q-14 -35 -57 -35h-66q-45 0 -47 33zM893 1745q-29 12 2 43l37 35q29 31 69 4l299 -201q20 -12 -4 -41l-20 -20q-16 -16 -49 -2z" />
<glyph unicode="&#x1e81;" horiz-adv-x="1490" d="M115 1010q-6 43 39 43h45q55 0 55 -37l76 -635l4 -123q0 -74 4 -90h4q6 12 37 90q31 82 51 125l307 610q16 37 68 37h26q49 0 54 -37l88 -604q8 -51 10 -129l4 -92h6q8 16 35 88q31 84 49 129l297 631q16 37 72 37h47q43 0 20 -43l-469 -983q-16 -33 -57 -33h-47 q-43 0 -45 33l-92 669q-4 41 -6 107q-2 57 -4 67h-5q-6 -12 -28 -67l-45 -107l-330 -669q-18 -33 -55 -33h-43q-41 0 -43 33zM680 1393q-29 14 2 43l33 34q29 29 69 5l295 -207q20 -14 -6 -41l-18 -21q-16 -18 -49 -4z" />
<glyph unicode="&#x1e82;" horiz-adv-x="1798" d="M184 1415q-2 39 33 39h80q47 0 49 -37l76 -989v-219h8q59 172 80 219l444 967q16 37 62 37h61q45 0 47 -37l99 -969q6 -70 6 -217h6q8 20 35 98l41 117l428 993q12 37 59 37h76q35 0 20 -39l-606 -1380q-14 -35 -57 -35h-70q-45 0 -45 33l-100 991q-6 106 -4 201h-8 q-35 -111 -76 -199l-453 -991q-14 -35 -57 -35h-66q-45 0 -47 33zM862 1591q-16 27 10 41l367 207q51 25 70 -4l22 -37q23 -31 -12 -43l-395 -190q-37 -12 -47 4z" />
<glyph unicode="&#x1e83;" horiz-adv-x="1490" d="M115 1010q-6 43 39 43h45q55 0 55 -37l76 -635l4 -123q0 -74 4 -90h4q6 12 37 90q31 82 51 125l307 610q16 37 68 37h26q49 0 54 -37l88 -604q8 -51 10 -129l4 -92h6q8 16 35 88q31 84 49 129l297 631q16 37 72 37h47q43 0 20 -43l-469 -983q-16 -33 -57 -33h-47 q-43 0 -45 33l-92 669q-4 41 -6 107q-2 57 -4 67h-5q-6 -12 -28 -67l-45 -107l-330 -669q-18 -33 -55 -33h-43q-41 0 -43 33zM641 1227q-18 27 10 41l367 207q51 23 69 -5l23 -36q23 -31 -12 -43l-396 -191q-37 -12 -47 4z" />
<glyph unicode="&#x1e84;" horiz-adv-x="1798" d="M184 1415q-2 39 33 39h80q47 0 49 -37l76 -989v-219h8q59 172 80 219l444 967q16 37 62 37h61q45 0 47 -37l99 -969q6 -70 6 -217h6q8 20 35 98l41 117l428 993q12 37 59 37h76q35 0 20 -39l-606 -1380q-14 -35 -57 -35h-70q-45 0 -45 33l-100 991q-6 106 -4 201h-8 q-35 -111 -76 -199l-453 -991q-14 -35 -57 -35h-66q-45 0 -47 33zM823 1688l2 16q10 66 78 65h12q68 0 58 -65l-4 -16q-10 -66 -78 -66h-14q-66 0 -54 66zM1219 1688l4 16q10 66 80 65h10q68 0 57 -65l-4 -16q-10 -66 -78 -66h-12q-39 0 -51 14q-12 12 -6 52z" />
<glyph unicode="&#x1e85;" horiz-adv-x="1490" d="M115 1010q-6 43 39 43h45q55 0 55 -37l76 -635l4 -123q0 -74 4 -90h4q6 12 37 90q31 82 51 125l307 610q16 37 68 37h26q49 0 54 -37l88 -604q8 -51 10 -129l4 -92h6q8 16 35 88q31 84 49 129l297 631q16 37 72 37h47q43 0 20 -43l-469 -983q-16 -33 -57 -33h-47 q-43 0 -45 33l-92 669q-4 41 -6 107q-2 57 -4 67h-5q-6 -12 -28 -67l-45 -107l-330 -669q-18 -33 -55 -33h-43q-41 0 -43 33zM602 1325l2 16q10 66 78 66h14q39 0 52 -14q10 -14 4 -52l-4 -16q-10 -68 -78 -68h-13q-70 0 -55 68zM997 1325l4 16q10 66 80 66h13q66 0 55 -66 l-4 -16q-10 -68 -78 -68h-12q-68 0 -58 68z" />
<glyph unicode="&#x1ea0;" d="M-78 39l793 1386q18 35 57 35h62q43 0 47 -33l305 -1388q6 -39 -37 -39h-53q-61 0 -68 37l-84 389h-641l-221 -389q-20 -37 -80 -37h-59q-47 0 -21 39zM369 549h557l-138 629q-4 29 -4 141h-6l-14 -47q-16 -51 -39 -94zM457 -332l2 14q14 82 96 82h12q45 0 60 -18 q14 -16 6 -64l-2 -14q-16 -80 -96 -80h-13q-47 0 -59 16q-14 18 -6 64z" />
<glyph unicode="&#x1ea1;" horiz-adv-x="1089" d="M61 401l52 293q68 389 508 389q205 0 335 -61q47 -23 58 -41q10 -20 2 -72l-146 -829q-8 -35 -51 -49q-213 -59 -422 -60q-203 0 -291 121q-80 113 -45 309zM197 391q-53 -295 231 -295q168 0 315 49l127 717q4 39 -32 56q-101 38 -230 38q-162 0 -246 -63 q-88 -68 -114 -217zM305 -332l2 14q14 82 96 82h12q45 0 60 -18q14 -16 6 -64l-2 -14q-16 -80 -96 -80h-13q-47 0 -59 16q-14 18 -6 64z" />
<glyph unicode="&#x1ea2;" d="M-78 39l793 1386q18 35 57 35h62q43 0 47 -33l305 -1388q6 -39 -37 -39h-53q-61 0 -68 37l-84 389h-641l-221 -389q-20 -37 -80 -37h-59q-47 0 -21 39zM369 549h557l-138 629q-4 29 -4 141h-6l-14 -47q-16 -51 -39 -94zM760 1855v21q4 25 25 34q88 43 176 21 q100 -29 80 -123q-10 -76 -70 -133q-51 -49 -84 -62q-18 -12 -45 -14h-59q-35 18 22 51q35 25 78 62t45 80q6 39 -33 51q-47 14 -102 -15q-45 -14 -33 27z" />
<glyph unicode="&#x1ea3;" horiz-adv-x="1089" d="M61 401l52 293q68 389 508 389q205 0 335 -61q47 -23 58 -41q10 -20 2 -72l-146 -829q-8 -35 -51 -49q-213 -59 -422 -60q-203 0 -291 121q-80 113 -45 309zM197 391q-53 -295 231 -295q168 0 315 49l127 717q4 39 -32 56q-101 38 -230 38q-162 0 -246 -63 q-88 -68 -114 -217zM561 1456v21q4 25 25 34q88 43 176 21q100 -29 80 -123q-10 -76 -70 -133q-51 -49 -84 -62q-18 -12 -45 -14h-59q-35 18 22 51q35 25 78 62t45 80q6 39 -33 51q-47 14 -102 -15q-45 -14 -33 27z" />
<glyph unicode="&#x1ea4;" d="M-78 39l793 1386q18 35 57 35h62q43 0 47 -33l305 -1388q6 -39 -37 -39h-53q-61 0 -68 37l-84 389h-641l-221 -389q-20 -37 -80 -37h-59q-47 0 -21 39zM369 549h557l-138 629q-4 29 -4 141h-6l-14 -47q-16 -51 -39 -94zM498 1593l291 219q39 33 80 33h16q37 0 64 -33 l211 -219q23 -31 -23 -31h-49q-41 0 -57 21l-166 172l-228 -172q-27 -20 -63 -21h-62q-45 0 -14 31zM639 1931q-18 27 10 41l367 205q51 27 70 -2l22 -37q23 -31 -12 -43l-395 -191q-37 -14 -47 2z" />
<glyph unicode="&#x1ea5;" horiz-adv-x="1089" d="M61 401l52 293q68 389 508 389q205 0 335 -61q47 -23 58 -41q10 -20 2 -72l-146 -829q-8 -35 -51 -49q-213 -59 -422 -60q-203 0 -291 121q-80 113 -45 309zM197 391q-53 -295 231 -295q168 0 315 49l127 717q4 39 -32 56q-101 38 -230 38q-162 0 -246 -63 q-88 -68 -114 -217zM342 1221l291 219q39 33 80 33h16q37 0 64 -33l211 -219q23 -31 -23 -31h-49q-41 0 -57 21l-166 172l-228 -172q-27 -20 -63 -21h-62q-45 0 -14 31zM534 1587q-18 27 10 41l367 205q51 27 70 -2l22 -37q23 -31 -12 -43l-395 -191q-37 -14 -47 2z" />
<glyph unicode="&#x1ea6;" d="M-78 39l793 1386q18 35 57 35h62q43 0 47 -33l305 -1388q6 -39 -37 -39h-53q-61 0 -68 37l-84 389h-641l-221 -389q-20 -37 -80 -37h-59q-47 0 -21 39zM369 549h557l-138 629q-4 29 -4 141h-6l-14 -47q-16 -51 -39 -94zM500 1593l291 219q39 33 80 33h16q37 0 64 -33 l211 -219q23 -31 -23 -31h-49q-41 0 -57 21l-166 172l-228 -172q-27 -20 -63 -21h-62q-45 0 -14 31zM734 2073q-29 12 2 43l33 35q31 31 69 2l295 -207q20 -14 -6 -41l-18 -18q-16 -18 -47 -5z" />
<glyph unicode="&#x1ea7;" horiz-adv-x="1089" d="M61 401l52 293q68 389 508 389q205 0 335 -61q47 -23 58 -41q10 -20 2 -72l-146 -829q-8 -35 -51 -49q-213 -59 -422 -60q-203 0 -291 121q-80 113 -45 309zM197 391q-53 -295 231 -295q168 0 315 49l127 717q4 39 -32 56q-101 38 -230 38q-162 0 -246 -63 q-88 -68 -114 -217zM342 1221l291 219q39 33 80 33h16q37 0 64 -33l211 -219q23 -31 -23 -31h-49q-41 0 -57 21l-166 172l-228 -172q-27 -20 -63 -21h-62q-45 0 -14 31zM526 1690q-29 12 2 43l33 35q31 31 69 2l295 -207q20 -14 -6 -41l-18 -18q-16 -18 -47 -5z" />
<glyph unicode="&#x1ea8;" d="M-78 39l793 1386q18 35 57 35h62q43 0 47 -33l305 -1388q6 -39 -37 -39h-53q-61 0 -68 37l-84 389h-641l-221 -389q-20 -37 -80 -37h-59q-47 0 -21 39zM369 549h557l-138 629q-4 29 -4 141h-6l-14 -47q-16 -51 -39 -94zM498 1594l291 219q39 33 80 33h16q37 0 64 -33 l211 -219q23 -31 -23 -31h-49q-41 0 -57 21l-166 172l-228 -172q-27 -20 -63 -21h-62q-45 0 -14 31zM1034 2036v21q4 25 25 34q88 43 176 21q100 -29 80 -123q-10 -76 -70 -133q-51 -49 -84 -62q-18 -12 -45 -14h-59q-35 18 22 51q35 25 78 62t45 80q6 39 -33 51 q-47 14 -102 -15q-45 -14 -33 27z" />
<glyph unicode="&#x1ea9;" horiz-adv-x="1089" d="M61 401l52 293q68 389 508 389q205 0 335 -61q47 -23 58 -41q10 -20 2 -72l-146 -829q-8 -35 -51 -49q-213 -59 -422 -60q-203 0 -291 121q-80 113 -45 309zM197 391q-53 -295 231 -295q168 0 315 49l127 717q4 39 -32 56q-101 38 -230 38q-162 0 -246 -63 q-88 -68 -114 -217zM342 1221l291 219q39 33 80 33h16q37 0 64 -33l211 -219q23 -31 -23 -31h-49q-41 0 -57 21l-166 172l-228 -172q-27 -20 -63 -21h-62q-45 0 -14 31zM876 1687v21q4 25 25 34q88 43 176 21q100 -29 80 -123q-10 -76 -70 -133q-51 -49 -84 -62 q-18 -12 -45 -14h-59q-35 18 22 51q35 25 78 62t45 80q6 39 -33 51q-47 14 -102 -15q-45 -14 -33 27z" />
<glyph unicode="&#x1eaa;" d="M-78 39l793 1386q18 35 57 35h62q43 0 47 -33l305 -1388q6 -39 -37 -39h-53q-61 0 -68 37l-84 389h-641l-221 -389q-20 -37 -80 -37h-59q-47 0 -21 39zM369 549h557l-138 629q-4 29 -4 141h-6l-14 -47q-16 -51 -39 -94zM498 1594l291 219q39 33 80 33h16q37 0 64 -33 l211 -219q23 -31 -23 -31h-49q-41 0 -57 21l-166 172l-228 -172q-27 -20 -63 -21h-62q-45 0 -14 31zM576 1898q33 203 192 203q76 0 154 -67q80 -70 129 -70q80 0 100 113q6 25 27 24h41q25 0 18 -24q-33 -203 -192 -203q-74 0 -150 69q-78 68 -129 68q-82 0 -102 -113 q-2 -25 -27 -24h-41q-23 0 -20 24z" />
<glyph unicode="&#x1eab;" horiz-adv-x="1089" d="M61 401l52 293q68 389 508 389q205 0 335 -61q47 -23 58 -41q10 -20 2 -72l-146 -829q-8 -35 -51 -49q-213 -59 -422 -60q-203 0 -291 121q-80 113 -45 309zM197 391q-53 -295 231 -295q168 0 315 49l127 717q4 39 -32 56q-101 38 -230 38q-162 0 -246 -63 q-88 -68 -114 -217zM342 1221l291 219q39 33 80 33h16q37 0 64 -33l211 -219q23 -31 -23 -31h-49q-41 0 -57 21l-166 172l-228 -172q-27 -20 -63 -21h-62q-45 0 -14 31zM430 1532q33 203 192 203q76 0 154 -67q80 -70 129 -70q80 0 100 113q6 25 27 24h41q25 0 18 -24 q-33 -203 -192 -203q-74 0 -150 69q-78 68 -129 68q-82 0 -102 -113q-2 -25 -27 -24h-41q-23 0 -20 24z" />
<glyph unicode="&#x1eac;" d="M-78 39l793 1386q18 35 57 35h62q43 0 47 -33l305 -1388q6 -39 -37 -39h-53q-61 0 -68 37l-84 389h-641l-221 -389q-20 -37 -80 -37h-59q-47 0 -21 39zM369 549h557l-138 629q-4 29 -4 141h-6l-14 -47q-16 -51 -39 -94zM457 -332l2 14q14 82 96 82h12q45 0 60 -18 q14 -16 6 -64l-2 -14q-16 -80 -96 -80h-13q-47 0 -59 16q-14 18 -6 64zM498 1593l291 219q39 33 80 33h16q37 0 64 -33l211 -219q23 -31 -23 -31h-49q-41 0 -57 21l-166 172l-228 -172q-27 -20 -63 -21h-62q-45 0 -14 31z" />
<glyph unicode="&#x1ead;" horiz-adv-x="1089" d="M61 401l52 293q68 389 508 389q205 0 335 -61q47 -23 58 -41q10 -20 2 -72l-146 -829q-8 -35 -51 -49q-213 -59 -422 -60q-203 0 -291 121q-80 113 -45 309zM197 391q-53 -295 231 -295q168 0 315 49l127 717q4 39 -32 56q-101 38 -230 38q-162 0 -246 -63 q-88 -68 -114 -217zM295 -332l2 14q14 82 96 82h12q45 0 60 -18q14 -16 6 -64l-2 -14q-16 -80 -96 -80h-13q-47 0 -59 16q-14 18 -6 64zM342 1221l291 219q39 33 80 33h16q37 0 64 -33l211 -219q23 -31 -23 -31h-49q-41 0 -57 21l-166 172l-228 -172q-27 -20 -63 -21h-62 q-45 0 -14 31z" />
<glyph unicode="&#x1eae;" d="M-78 39l793 1386q18 35 57 35h62q43 0 47 -33l305 -1388q6 -39 -37 -39h-53q-61 0 -68 37l-84 389h-641l-221 -389q-20 -37 -80 -37h-59q-47 0 -21 39zM369 549h557l-138 629q-4 29 -4 141h-6l-14 -47q-16 -51 -39 -94zM555 1786q-6 27 23 34l47 15q29 10 37 -15 q14 -156 180 -155q164 0 235 159q14 23 35 15l53 -19q20 -10 11 -34q-106 -224 -342 -224q-252 0 -279 224zM727 1905q-18 27 10 41l367 205q51 27 70 -2l22 -37q23 -31 -12 -43l-395 -191q-37 -14 -47 2z" />
<glyph unicode="&#x1eaf;" horiz-adv-x="1089" d="M61 401l52 293q68 389 508 389q205 0 335 -61q47 -23 58 -41q10 -20 2 -72l-146 -829q-8 -35 -51 -49q-213 -59 -422 -60q-203 0 -291 121q-80 113 -45 309zM197 391q-53 -295 231 -295q168 0 315 49l127 717q4 39 -32 56q-101 38 -230 38q-162 0 -246 -63 q-88 -68 -114 -217zM397 1414q-6 27 23 34l47 15q29 10 37 -15q14 -156 180 -155q164 0 235 159q14 23 35 15l53 -19q20 -10 11 -34q-106 -224 -342 -224q-252 0 -279 224zM581 1565q-18 27 10 41l367 205q51 27 70 -2l22 -37q23 -31 -12 -43l-395 -191q-37 -14 -47 2z" />
<glyph unicode="&#x1eb0;" d="M-78 39l793 1386q18 35 57 35h62q43 0 47 -33l305 -1388q6 -39 -37 -39h-53q-61 0 -68 37l-84 389h-641l-221 -389q-20 -37 -80 -37h-59q-47 0 -21 39zM369 549h557l-138 629q-4 29 -4 141h-6l-14 -47q-16 -51 -39 -94zM555 1786q-6 27 23 34l47 15q29 10 37 -15 q14 -156 180 -155q164 0 235 159q14 23 35 15l53 -19q20 -10 11 -34q-106 -224 -342 -224q-252 0 -279 224zM555 2060q-29 12 2 43l33 35q31 31 69 2l295 -207q20 -14 -6 -41l-18 -18q-16 -18 -47 -5z" />
<glyph unicode="&#x1eb1;" horiz-adv-x="1089" d="M61 401l52 293q68 389 508 389q205 0 335 -61q47 -23 58 -41q10 -20 2 -72l-146 -829q-8 -35 -51 -49q-213 -59 -422 -60q-203 0 -291 121q-80 113 -45 309zM197 391q-53 -295 231 -295q168 0 315 49l127 717q4 39 -32 56q-101 38 -230 38q-162 0 -246 -63 q-88 -68 -114 -217zM399 1414q-6 27 23 34l47 15q29 10 37 -15q14 -156 180 -155q164 0 235 159q14 23 35 15l53 -19q20 -10 11 -34q-106 -224 -342 -224q-252 0 -279 224zM481 1724q-29 12 2 43l33 35q31 31 69 2l295 -207q20 -14 -6 -41l-18 -18q-16 -18 -47 -5z" />
<glyph unicode="&#x1eb2;" d="M-78 39l793 1386q18 35 57 35h62q43 0 47 -33l305 -1388q6 -39 -37 -39h-53q-61 0 -68 37l-84 389h-641l-221 -389q-20 -37 -80 -37h-59q-47 0 -21 39zM369 549h557l-138 629q-4 29 -4 141h-6l-14 -47q-16 -51 -39 -94zM555 1786q-6 27 23 34l47 15q29 10 37 -15 q14 -156 180 -155q164 0 235 159q14 23 35 15l53 -19q20 -10 11 -34q-106 -224 -342 -224q-252 0 -279 224zM780 1806v16q4 19 25 26q88 32 176 16q100 -22 80 -93q-10 -57 -70 -99q-51 -37 -84 -47q-18 -9 -45 -11h-59q-35 14 22 39q35 19 78 46q43 28 45 60q6 29 -33 39 q-47 10 -102 -12q-45 -10 -33 20z" />
<glyph unicode="&#x1eb3;" horiz-adv-x="1089" d="M61 401l52 293q68 389 508 389q205 0 335 -61q47 -23 58 -41q10 -20 2 -72l-146 -829q-8 -35 -51 -49q-213 -59 -422 -60q-203 0 -291 121q-80 113 -45 309zM197 391q-53 -295 231 -295q168 0 315 49l127 717q4 39 -32 56q-101 38 -230 38q-162 0 -246 -63 q-88 -68 -114 -217zM397 1414q-6 27 23 34l47 15q29 10 37 -15q14 -156 180 -155q164 0 235 159q14 23 35 15l53 -19q20 -10 11 -34q-106 -224 -342 -224q-252 0 -279 224zM663 1757v21q4 25 25 34q88 43 176 21q100 -29 80 -123q-10 -76 -70 -133q-51 -49 -84 -62 q-18 -12 -45 -14h-59q-35 18 22 51q35 25 78 62t45 80q6 39 -33 51q-47 14 -102 -15q-45 -14 -33 27z" />
<glyph unicode="&#x1eb4;" d="M-78 39l793 1386q18 35 57 35h62q43 0 47 -33l305 -1388q6 -39 -37 -39h-53q-61 0 -68 37l-84 389h-641l-221 -389q-20 -37 -80 -37h-59q-47 0 -21 39zM369 549h557l-138 629q-4 29 -4 141h-6l-14 -47q-16 -51 -39 -94zM555 1786q-6 27 23 34l47 15q29 10 37 -15 q14 -156 180 -155q164 0 235 159q14 23 35 15l53 -19q20 -10 11 -34q-106 -224 -342 -224q-252 0 -279 224zM555 1935q33 203 192 203q76 0 154 -67q80 -70 129 -70q80 0 100 113q6 25 27 24h41q25 0 18 -24q-33 -203 -192 -203q-74 0 -150 69q-78 68 -129 68 q-82 0 -102 -113q-2 -25 -27 -24h-41q-23 0 -20 24z" />
<glyph unicode="&#x1eb5;" horiz-adv-x="1089" d="M61 401l52 293q68 389 508 389q205 0 335 -61q47 -23 58 -41q10 -20 2 -72l-146 -829q-8 -35 -51 -49q-213 -59 -422 -60q-203 0 -291 121q-80 113 -45 309zM197 391q-53 -295 231 -295q168 0 315 49l127 717q4 39 -32 56q-101 38 -230 38q-162 0 -246 -63 q-88 -68 -114 -217zM393 1560q33 203 192 203q76 0 154 -67q80 -70 129 -70q80 0 100 113q6 25 27 24h41q25 0 18 -24q-33 -203 -192 -203q-74 0 -150 69q-78 68 -129 68q-82 0 -102 -113q-2 -25 -27 -24h-41q-23 0 -20 24zM397 1414q-6 27 23 34l47 15q29 10 37 -15 q14 -156 180 -155q164 0 235 159q14 23 35 15l53 -19q20 -10 11 -34q-106 -224 -342 -224q-252 0 -279 224z" />
<glyph unicode="&#x1eb6;" d="M-78 39l793 1386q18 35 57 35h62q43 0 47 -33l305 -1388q6 -39 -37 -39h-53q-61 0 -68 37l-84 389h-641l-221 -389q-20 -37 -80 -37h-59q-47 0 -21 39zM369 549h557l-138 629q-4 29 -4 141h-6l-14 -47q-16 -51 -39 -94zM457 -332l2 14q14 82 96 82h12q45 0 60 -18 q14 -16 6 -64l-2 -14q-16 -80 -96 -80h-13q-47 0 -59 16q-14 18 -6 64zM553 1786q-6 27 23 34l47 15q29 10 37 -15q14 -156 180 -155q164 0 235 159q14 23 35 15l53 -19q20 -10 11 -34q-106 -224 -342 -224q-252 0 -279 224z" />
<glyph unicode="&#x1eb7;" horiz-adv-x="1089" d="M61 401l52 293q68 389 508 389q205 0 335 -61q47 -23 58 -41q10 -20 2 -72l-146 -829q-8 -35 -51 -49q-213 -59 -422 -60q-203 0 -291 121q-80 113 -45 309zM197 391q-53 -295 231 -295q168 0 315 49l127 717q4 39 -32 56q-101 38 -230 38q-162 0 -246 -63 q-88 -68 -114 -217zM352 -332l2 14q14 82 96 82h12q45 0 60 -18q14 -16 6 -64l-2 -14q-16 -80 -96 -80h-13q-47 0 -59 16q-14 18 -6 64zM397 1414q-6 27 23 34l47 15q29 10 37 -15q14 -156 180 -155q164 0 235 159q14 23 35 15l53 -19q20 -10 11 -34q-106 -224 -342 -224 q-252 0 -279 224z" />
<glyph unicode="&#x1eb8;" horiz-adv-x="1171" d="M59 41l242 1372q8 41 47 41h830q41 0 34 -41l-12 -57q-6 -41 -45 -41h-723l-88 -508h629q41 0 33 -41l-11 -57q-8 -41 -49 -41h-629l-92 -529h748q41 0 33 -41l-11 -57q-6 -41 -47 -41h-856q-41 0 -33 41zM397 -332l2 14q14 82 96 82h12q45 0 60 -18q14 -16 6 -64l-2 -14 q-16 -80 -96 -80h-13q-47 0 -59 16q-14 18 -6 64z" />
<glyph unicode="&#x1eb9;" horiz-adv-x="1071" d="M57 399l49 267q35 201 173 309q137 109 354 108q209 0 313 -98t66 -266q-59 -279 -482 -279q-164 0 -323 33l-19 -102q-49 -281 258 -281q223 0 349 162q31 35 61 14l39 -24q33 -20 2 -60q-160 -211 -471 -211q-221 0 -315 121q-88 113 -54 307zM225 584q158 -35 326 -35 q283 0 328 186q27 111 -43 170q-72 59 -224 60q-150 0 -245 -80q-98 -80 -125 -221zM336 -332l2 14q14 82 96 82h12q45 0 60 -18q14 -16 6 -64l-2 -14q-16 -80 -96 -80h-13q-47 0 -59 16q-14 18 -6 64z" />
<glyph unicode="&#x1eba;" horiz-adv-x="1171" d="M59 41l242 1372q8 41 47 41h830q41 0 34 -41l-12 -57q-6 -41 -45 -41h-723l-88 -508h629q41 0 33 -41l-11 -57q-8 -41 -49 -41h-629l-92 -529h748q41 0 33 -41l-11 -57q-6 -41 -47 -41h-856q-41 0 -33 41zM731 1855v21q4 25 25 34q88 43 176 21q100 -29 80 -123 q-10 -76 -70 -133q-51 -49 -84 -62q-18 -12 -45 -14h-59q-35 18 22 51q35 25 78 62t45 80q6 39 -33 51q-47 14 -102 -15q-45 -14 -33 27z" />
<glyph unicode="&#x1ebb;" horiz-adv-x="1071" d="M57 399l49 267q35 201 173 309q137 109 354 108q209 0 313 -98t66 -266q-59 -279 -482 -279q-164 0 -323 33l-19 -102q-49 -281 258 -281q223 0 349 162q31 35 61 14l39 -24q33 -20 2 -60q-160 -211 -471 -211q-221 0 -315 121q-88 113 -54 307zM225 584q158 -35 326 -35 q283 0 328 186q27 111 -43 170q-72 59 -224 60q-150 0 -245 -80q-98 -80 -125 -221zM587 1454v21q4 25 25 34q88 43 176 21q100 -29 80 -123q-10 -76 -70 -133q-51 -49 -84 -62q-18 -12 -45 -14h-59q-35 18 22 51q35 25 78 62t45 80q6 39 -33 51q-47 14 -102 -15 q-45 -14 -33 27z" />
<glyph unicode="&#x1ebc;" horiz-adv-x="1171" d="M59 41l242 1372q8 41 47 41h830q41 0 34 -41l-12 -57q-6 -41 -45 -41h-723l-88 -508h629q41 0 33 -41l-11 -57q-8 -41 -49 -41h-629l-92 -529h748q41 0 33 -41l-11 -57q-6 -41 -47 -41h-856q-41 0 -33 41zM422 1654q33 203 192 203q76 0 154 -67q80 -70 129 -70 q80 0 100 113q6 25 27 24h41q25 0 18 -24q-33 -203 -192 -203q-74 0 -150 69q-78 68 -129 68q-82 0 -102 -113q-2 -25 -27 -24h-41q-23 0 -20 24z" />
<glyph unicode="&#x1ebd;" horiz-adv-x="1071" d="M57 399l49 267q35 201 173 309q137 109 354 108q209 0 313 -98t66 -266q-59 -279 -482 -279q-164 0 -323 33l-19 -102q-49 -281 258 -281q223 0 349 162q31 35 61 14l39 -24q33 -20 2 -60q-160 -211 -471 -211q-221 0 -315 121q-88 113 -54 307zM225 584q158 -35 326 -35 q283 0 328 186q27 111 -43 170q-72 59 -224 60q-150 0 -245 -80q-98 -80 -125 -221zM318 1253q33 203 192 203q76 0 154 -67q80 -70 129 -70q80 0 100 113q6 25 27 24h41q25 0 18 -24q-33 -203 -192 -203q-74 0 -150 69q-78 68 -129 68q-82 0 -102 -113q-2 -25 -27 -24h-41 q-23 0 -20 24z" />
<glyph unicode="&#x1ebe;" horiz-adv-x="1171" d="M59 41l242 1372q8 41 47 41h830q41 0 34 -41l-12 -57q-6 -41 -45 -41h-723l-88 -508h629q41 0 33 -41l-11 -57q-8 -41 -49 -41h-629l-92 -529h748q41 0 33 -41l-11 -57q-6 -41 -47 -41h-856q-41 0 -33 41zM432 1593l291 219q39 33 80 33h16q37 0 64 -33l211 -219 q23 -31 -23 -31h-49q-41 0 -57 21l-166 172l-228 -172q-27 -20 -63 -21h-62q-45 0 -14 31zM573 1931q-18 27 10 41l367 205q51 27 70 -2l22 -37q23 -31 -12 -43l-395 -191q-37 -14 -47 2z" />
<glyph unicode="&#x1ebf;" horiz-adv-x="1071" d="M57 399l49 267q35 201 173 309q137 109 354 108q209 0 313 -98t66 -266q-59 -279 -482 -279q-164 0 -323 33l-19 -102q-49 -281 258 -281q223 0 349 162q31 35 61 14l39 -24q33 -20 2 -60q-160 -211 -471 -211q-221 0 -315 121q-88 113 -54 307zM225 584q158 -35 326 -35 q283 0 328 186q27 111 -43 170q-72 59 -224 60q-150 0 -245 -80q-98 -80 -125 -221zM338 1231l291 219q39 33 80 33h16q37 0 64 -33l211 -219q23 -31 -23 -31h-49q-41 0 -57 21l-166 172l-228 -172q-27 -20 -63 -21h-62q-45 0 -14 31zM479 1548q-18 27 10 41l367 205 q51 27 70 -2l22 -37q23 -31 -12 -43l-395 -191q-37 -14 -47 2z" />
<glyph unicode="&#x1ec0;" horiz-adv-x="1171" d="M59 41l242 1372q8 41 47 41h830q41 0 34 -41l-12 -57q-6 -41 -45 -41h-723l-88 -508h629q41 0 33 -41l-11 -57q-8 -41 -49 -41h-629l-92 -529h748q41 0 33 -41l-11 -57q-6 -41 -47 -41h-856q-41 0 -33 41zM436 1593l291 219q39 33 80 33h16q37 0 64 -33l211 -219 q23 -31 -23 -31h-49q-41 0 -57 21l-166 172l-228 -172q-27 -20 -63 -21h-62q-45 0 -14 31zM670 2073q-29 12 2 43l33 35q31 31 69 2l295 -207q20 -14 -6 -41l-18 -18q-16 -18 -47 -5z" />
<glyph unicode="&#x1ec1;" horiz-adv-x="1071" d="M57 399l49 267q35 201 173 309q137 109 354 108q209 0 313 -98t66 -266q-59 -279 -482 -279q-164 0 -323 33l-19 -102q-49 -281 258 -281q223 0 349 162q31 35 61 14l39 -24q33 -20 2 -60q-160 -211 -471 -211q-221 0 -315 121q-88 113 -54 307zM225 584q158 -35 326 -35 q283 0 328 186q27 111 -43 170q-72 59 -224 60q-150 0 -245 -80q-98 -80 -125 -221zM323 1221l291 219q39 33 80 33h16q37 0 64 -33l211 -219q23 -31 -23 -31h-49q-41 0 -57 21l-166 172l-228 -172q-27 -20 -63 -21h-62q-45 0 -14 31zM537 1696q-29 12 2 43l33 35 q31 31 69 2l295 -207q20 -14 -6 -41l-18 -18q-16 -18 -47 -5z" />
<glyph unicode="&#x1ec2;" horiz-adv-x="1171" d="M59 41l242 1372q8 41 47 41h830q41 0 34 -41l-12 -57q-6 -41 -45 -41h-723l-88 -508h629q41 0 33 -41l-11 -57q-8 -41 -49 -41h-629l-92 -529h748q41 0 33 -41l-11 -57q-6 -41 -47 -41h-856q-41 0 -33 41zM434 1594l291 219q39 33 80 33h16q37 0 64 -33l211 -219 q23 -31 -23 -31h-49q-41 0 -57 21l-166 172l-228 -172q-27 -20 -63 -21h-62q-45 0 -14 31zM970 2036v21q4 25 25 34q88 43 176 21q100 -29 80 -123q-10 -76 -70 -133q-51 -49 -84 -62q-18 -12 -45 -14h-59q-35 18 22 51q35 25 78 62t45 80q6 39 -33 51q-47 14 -102 -15 q-45 -14 -33 27z" />
<glyph unicode="&#x1ec3;" horiz-adv-x="1071" d="M57 399l49 267q35 201 173 309q137 109 354 108q209 0 313 -98t66 -266q-59 -279 -482 -279q-164 0 -323 33l-19 -102q-49 -281 258 -281q223 0 349 162q31 35 61 14l39 -24q33 -20 2 -60q-160 -211 -471 -211q-221 0 -315 121q-88 113 -54 307zM225 584q158 -35 326 -35 q283 0 328 186q27 111 -43 170q-72 59 -224 60q-150 0 -245 -80q-98 -80 -125 -221zM323 1221l291 219q39 33 80 33h16q37 0 64 -33l211 -219q23 -31 -23 -31h-49q-41 0 -57 21l-166 172l-228 -172q-27 -20 -63 -21h-62q-45 0 -14 31zM862 1675v21q4 25 25 34q88 43 176 21 q100 -29 80 -123q-10 -76 -70 -133q-51 -49 -84 -62q-18 -12 -45 -14h-59q-35 18 22 51q35 25 78 62t45 80q6 39 -33 51q-47 14 -102 -15q-45 -14 -33 27z" />
<glyph unicode="&#x1ec4;" horiz-adv-x="1171" d="M59 41l242 1372q8 41 47 41h830q41 0 34 -41l-12 -57q-6 -41 -45 -41h-723l-88 -508h629q41 0 33 -41l-11 -57q-8 -41 -49 -41h-629l-92 -529h748q41 0 33 -41l-11 -57q-6 -41 -47 -41h-856q-41 0 -33 41zM434 1594l291 219q39 33 80 33h16q37 0 64 -33l211 -219 q23 -31 -23 -31h-49q-41 0 -57 21l-166 172l-228 -172q-27 -20 -63 -21h-62q-45 0 -14 31zM512 1898q33 203 192 203q76 0 154 -67q80 -70 129 -70q80 0 100 113q6 25 27 24h41q25 0 18 -24q-33 -203 -192 -203q-74 0 -150 69q-78 68 -129 68q-82 0 -102 -113 q-2 -25 -27 -24h-41q-23 0 -20 24z" />
<glyph unicode="&#x1ec5;" horiz-adv-x="1071" d="M57 399l49 267q35 201 173 309q137 109 354 108q209 0 313 -98t66 -266q-59 -279 -482 -279q-164 0 -323 33l-19 -102q-49 -281 258 -281q223 0 349 162q31 35 61 14l39 -24q33 -20 2 -60q-160 -211 -471 -211q-221 0 -315 121q-88 113 -54 307zM225 584q158 -35 326 -35 q283 0 328 186q27 111 -43 170q-72 59 -224 60q-150 0 -245 -80q-98 -80 -125 -221zM323 1221l291 219q39 33 80 33h16q37 0 64 -33l211 -219q23 -31 -23 -31h-49q-41 0 -57 21l-166 172l-228 -172q-27 -20 -63 -21h-62q-45 0 -14 31zM422 1525q33 203 192 203q76 0 154 -67 q80 -70 129 -70q80 0 100 113q6 25 27 24h41q25 0 18 -24q-33 -203 -192 -203q-74 0 -150 69q-78 68 -129 68q-82 0 -102 -113q-2 -25 -27 -24h-41q-23 0 -20 24z" />
<glyph unicode="&#x1ec6;" horiz-adv-x="1171" d="M59 41l242 1372q8 41 47 41h830q41 0 34 -41l-12 -57q-6 -41 -45 -41h-723l-88 -508h629q41 0 33 -41l-11 -57q-8 -41 -49 -41h-629l-92 -529h748q41 0 33 -41l-11 -57q-6 -41 -47 -41h-856q-41 0 -33 41zM422 -332l2 14q14 82 96 82h12q45 0 60 -18q14 -16 6 -64l-2 -14 q-16 -80 -96 -80h-13q-47 0 -59 16q-14 18 -6 64zM434 1593l291 219q39 33 80 33h16q37 0 64 -33l211 -219q23 -31 -23 -31h-49q-41 0 -57 21l-166 172l-228 -172q-27 -20 -63 -21h-62q-45 0 -14 31z" />
<glyph unicode="&#x1ec7;" horiz-adv-x="1071" d="M57 399l49 267q35 201 173 309q137 109 354 108q209 0 313 -98t66 -266q-59 -279 -482 -279q-164 0 -323 33l-19 -102q-49 -281 258 -281q223 0 349 162q31 35 61 14l39 -24q33 -20 2 -60q-160 -211 -471 -211q-221 0 -315 121q-88 113 -54 307zM225 584q158 -35 326 -35 q283 0 328 186q27 111 -43 170q-72 59 -224 60q-150 0 -245 -80q-98 -80 -125 -221zM309 -332l2 14q14 82 96 82h12q45 0 60 -18q14 -16 6 -64l-2 -14q-16 -80 -96 -80h-13q-47 0 -59 16q-14 18 -6 64zM326 1221l291 219q39 33 80 33h16q37 0 64 -33l211 -219 q23 -31 -23 -31h-49q-41 0 -57 21l-166 172l-228 -172q-27 -20 -63 -21h-62q-45 0 -14 31z" />
<glyph unicode="&#x1ec8;" horiz-adv-x="471" d="M59 41l242 1372q8 41 47 41h68q41 0 35 -41l-244 -1372q-6 -41 -47 -41h-68q-41 0 -33 41zM313 1855v21q4 25 25 34q88 43 176 21q100 -29 80 -123q-10 -76 -70 -133q-51 -49 -84 -62q-18 -12 -45 -14h-59q-35 18 22 51q35 25 78 62t45 80q6 39 -33 51q-47 14 -102 -15 q-45 -14 -33 27z" />
<glyph unicode="&#x1ec9;" horiz-adv-x="407" d="M33 37l172 979q8 37 45 37h63q37 0 29 -37l-170 -979q-8 -37 -45 -37h-64q-37 0 -30 37zM231 1454v21q4 25 25 34q88 43 176 21q100 -29 80 -123q-10 -76 -70 -133q-51 -49 -84 -62q-18 -12 -45 -14h-59q-35 18 22 51q35 25 78 62t45 80q6 39 -33 51q-47 14 -102 -15 q-45 -14 -33 27z" />
<glyph unicode="&#x1eca;" horiz-adv-x="471" d="M-4 -332l2 14q14 82 96 82h12q45 0 60 -18q14 -16 6 -64l-2 -14q-16 -80 -96 -80h-13q-47 0 -59 16q-14 18 -6 64zM59 41l242 1372q8 41 47 41h68q41 0 35 -41l-244 -1372q-6 -41 -47 -41h-68q-41 0 -33 41z" />
<glyph unicode="&#x1ecb;" horiz-adv-x="407" d="M-29 -332l2 14q14 82 96 82h12q45 0 60 -18q14 -16 6 -64l-2 -14q-16 -80 -96 -80h-13q-47 0 -59 16q-14 18 -6 64zM33 37l172 979q8 37 45 37h63q37 0 29 -37l-170 -979q-8 -37 -45 -37h-64q-37 0 -30 37zM250 1339l2 15q14 76 90 76h10q45 0 58 -17q14 -16 6 -59 l-2 -15q-14 -76 -90 -75h-11q-45 0 -57 16q-14 16 -6 59z" />
<glyph unicode="&#x1ecc;" horiz-adv-x="1361" d="M96 496l86 483q41 242 209 373t440 131q268 0 394 -144q123 -141 80 -385l-84 -481q-90 -502 -646 -502q-270 0 -397 144q-125 139 -82 381zM246 485q-33 -178 57 -276q90 -100 291 -100q412 0 479 376l86 484q31 180 -57 278q-90 98 -291 99q-416 0 -479 -377zM451 -332 l2 14q14 82 96 82h12q45 0 60 -18q14 -16 6 -64l-2 -14q-16 -80 -96 -80h-13q-47 0 -59 16q-14 18 -6 64z" />
<glyph unicode="&#x1ecd;" horiz-adv-x="1103" d="M51 350l64 361q31 174 168 274q135 98 344 98q211 0 315 -104q102 -102 72 -279l-64 -360q-31 -174 -166 -272q-133 -96 -346 -97q-209 0 -313 103q-104 102 -74 276zM188 346q-20 -117 52 -182q72 -68 215 -68q145 0 241 68q96 66 117 182l64 361q20 117 -52 184 q-72 68 -217 67q-143 0 -239 -67q-96 -68 -117 -184zM311 -332l2 14q14 82 96 82h12q45 0 60 -18q14 -16 6 -64l-2 -14q-16 -80 -96 -80h-13q-47 0 -59 16q-14 18 -6 64z" />
<glyph unicode="&#x1ece;" horiz-adv-x="1361" d="M96 496l86 483q41 242 209 373t440 131q268 0 394 -144q123 -141 80 -385l-84 -481q-90 -502 -646 -502q-270 0 -397 144q-125 139 -82 381zM246 485q-33 -178 57 -276q90 -100 291 -100q412 0 479 376l86 484q31 180 -57 278q-90 98 -291 99q-416 0 -479 -377zM831 1855 v21q4 25 25 34q88 43 176 21q100 -29 80 -123q-10 -76 -70 -133q-51 -49 -84 -62q-18 -12 -45 -14h-59q-35 18 22 51q35 25 78 62t45 80q6 39 -33 51q-47 14 -102 -15q-45 -14 -33 27z" />
<glyph unicode="&#x1ecf;" horiz-adv-x="1103" d="M51 350l64 361q31 174 168 274q135 98 344 98q211 0 315 -104q102 -102 72 -279l-64 -360q-31 -174 -166 -272q-133 -96 -346 -97q-209 0 -313 103q-104 102 -74 276zM188 346q-20 -117 52 -182q72 -68 215 -68q145 0 241 68q96 66 117 182l64 361q20 117 -52 184 q-72 68 -217 67q-143 0 -239 -67q-96 -68 -117 -184zM573 1454v21q4 25 25 34q88 43 176 21q100 -29 80 -123q-10 -76 -70 -133q-51 -49 -84 -62q-18 -12 -45 -14h-59q-35 18 22 51q35 25 78 62t45 80q6 39 -33 51q-47 14 -102 -15q-45 -14 -33 27z" />
<glyph unicode="&#x1ed0;" horiz-adv-x="1361" d="M96 496l86 483q41 242 209 373t440 131q268 0 394 -144q123 -141 80 -385l-84 -481q-90 -502 -646 -502q-270 0 -397 144q-125 139 -82 381zM246 485q-33 -178 57 -276q90 -100 291 -100q412 0 479 376l86 484q31 180 -57 278q-90 98 -291 99q-416 0 -479 -377zM526 1593 l291 219q39 33 80 33h16q37 0 64 -33l211 -219q23 -31 -23 -31h-49q-41 0 -57 21l-166 172l-228 -172q-27 -20 -63 -21h-62q-45 0 -14 31zM667 1931q-18 27 10 41l367 205q51 27 70 -2l22 -37q23 -31 -12 -43l-395 -191q-37 -14 -47 2z" />
<glyph unicode="&#x1ed1;" horiz-adv-x="1103" d="M51 350l64 361q31 174 168 274q135 98 344 98q211 0 315 -104q102 -102 72 -279l-64 -360q-31 -174 -166 -272q-133 -96 -346 -97q-209 0 -313 103q-104 102 -74 276zM188 346q-20 -117 52 -182q72 -68 215 -68q145 0 241 68q96 66 117 182l64 361q20 117 -52 184 q-72 68 -217 67q-143 0 -239 -67q-96 -68 -117 -184zM323 1231l291 219q39 33 80 33h16q37 0 64 -33l211 -219q23 -31 -23 -31h-49q-41 0 -57 21l-166 172l-228 -172q-27 -20 -63 -21h-62q-45 0 -14 31zM499 1581q-18 27 10 41l367 205q51 27 70 -2l22 -37q23 -31 -12 -43 l-395 -191q-37 -14 -47 2z" />
<glyph unicode="&#x1ed2;" horiz-adv-x="1361" d="M96 496l86 483q41 242 209 373t440 131q268 0 394 -144q123 -141 80 -385l-84 -481q-90 -502 -646 -502q-270 0 -397 144q-125 139 -82 381zM246 485q-33 -178 57 -276q90 -100 291 -100q412 0 479 376l86 484q31 180 -57 278q-90 98 -291 99q-416 0 -479 -377zM526 1593 l291 219q39 33 80 33h16q37 0 64 -33l211 -219q23 -31 -23 -31h-49q-41 0 -57 21l-166 172l-228 -172q-27 -20 -63 -21h-62q-45 0 -14 31zM760 2073q-29 12 2 43l33 35q31 31 69 2l295 -207q20 -14 -6 -41l-18 -18q-16 -18 -47 -5z" />
<glyph unicode="&#x1ed3;" horiz-adv-x="1103" d="M51 350l64 361q31 174 168 274q135 98 344 98q211 0 315 -104q102 -102 72 -279l-64 -360q-31 -174 -166 -272q-133 -96 -346 -97q-209 0 -313 103q-104 102 -74 276zM188 346q-20 -117 52 -182q72 -68 215 -68q145 0 241 68q96 66 117 182l64 361q20 117 -52 184 q-72 68 -217 67q-143 0 -239 -67q-96 -68 -117 -184zM326 1231l291 219q39 33 80 33h16q37 0 64 -33l211 -219q23 -31 -23 -31h-49q-41 0 -57 21l-166 172l-228 -172q-27 -20 -63 -21h-62q-45 0 -14 31zM518 1694q-29 12 2 43l33 35q31 31 69 2l295 -207q20 -14 -6 -41 l-18 -18q-16 -18 -47 -5z" />
<glyph unicode="&#x1ed4;" horiz-adv-x="1361" d="M96 496l86 483q41 242 209 373t440 131q268 0 394 -144q123 -141 80 -385l-84 -481q-90 -502 -646 -502q-270 0 -397 144q-125 139 -82 381zM246 485q-33 -178 57 -276q90 -100 291 -100q412 0 479 376l86 484q31 180 -57 278q-90 98 -291 99q-416 0 -479 -377zM526 1594 l291 219q39 33 80 33h16q37 0 64 -33l211 -219q23 -31 -23 -31h-49q-41 0 -57 21l-166 172l-228 -172q-27 -20 -63 -21h-62q-45 0 -14 31zM1062 2036v21q4 25 25 34q88 43 176 21q100 -29 80 -123q-10 -76 -70 -133q-51 -49 -84 -62q-18 -12 -45 -14h-59q-35 18 22 51 q35 25 78 62t45 80q6 39 -33 51q-47 14 -102 -15q-45 -14 -33 27z" />
<glyph unicode="&#x1ed5;" horiz-adv-x="1103" d="M51 350l64 361q31 174 168 274q135 98 344 98q211 0 315 -104q102 -102 72 -279l-64 -360q-31 -174 -166 -272q-133 -96 -346 -97q-209 0 -313 103q-104 102 -74 276zM188 346q-20 -117 52 -182q72 -68 215 -68q145 0 241 68q96 66 117 182l64 361q20 117 -52 184 q-72 68 -217 67q-143 0 -239 -67q-96 -68 -117 -184zM326 1231l291 219q39 33 80 33h16q37 0 64 -33l211 -219q23 -31 -23 -31h-49q-41 0 -57 21l-166 172l-228 -172q-27 -20 -63 -21h-62q-45 0 -14 31zM893 1657v21q4 25 25 34q88 43 176 21q100 -29 80 -123 q-10 -76 -70 -133q-51 -49 -84 -62q-18 -12 -45 -14h-59q-35 18 22 51q35 25 78 62t45 80q6 39 -33 51q-47 14 -102 -15q-45 -14 -33 27z" />
<glyph unicode="&#x1ed6;" horiz-adv-x="1361" d="M96 496l86 483q41 242 209 373t440 131q268 0 394 -144q123 -141 80 -385l-84 -481q-90 -502 -646 -502q-270 0 -397 144q-125 139 -82 381zM246 485q-33 -178 57 -276q90 -100 291 -100q412 0 479 376l86 484q31 180 -57 278q-90 98 -291 99q-416 0 -479 -377zM528 1594 l291 219q39 33 80 33h16q37 0 64 -33l211 -219q23 -31 -23 -31h-49q-41 0 -57 21l-166 172l-228 -172q-27 -20 -63 -21h-62q-45 0 -14 31zM606 1898q33 203 192 203q76 0 154 -67q80 -70 129 -70q80 0 100 113q6 25 27 24h41q25 0 18 -24q-33 -203 -192 -203q-74 0 -150 69 q-78 68 -129 68q-82 0 -102 -113q-2 -25 -27 -24h-41q-23 0 -20 24z" />
<glyph unicode="&#x1ed7;" horiz-adv-x="1103" d="M51 350l64 361q31 174 168 274q135 98 344 98q211 0 315 -104q102 -102 72 -279l-64 -360q-31 -174 -166 -272q-133 -96 -346 -97q-209 0 -313 103q-104 102 -74 276zM188 346q-20 -117 52 -182q72 -68 215 -68q145 0 241 68q96 66 117 182l64 361q20 117 -52 184 q-72 68 -217 67q-143 0 -239 -67q-96 -68 -117 -184zM323 1221l291 219q39 33 80 33h16q37 0 64 -33l211 -219q23 -31 -23 -31h-49q-41 0 -57 21l-166 172l-228 -172q-27 -20 -63 -21h-62q-45 0 -14 31zM436 1525q33 203 192 203q76 0 154 -67q80 -70 129 -70q80 0 100 113 q6 25 27 24h41q25 0 18 -24q-33 -203 -192 -203q-74 0 -150 69q-78 68 -129 68q-82 0 -102 -113q-2 -25 -27 -24h-41q-23 0 -20 24z" />
<glyph unicode="&#x1ed8;" horiz-adv-x="1361" d="M96 496l86 483q41 242 209 373t440 131q268 0 394 -144q123 -141 80 -385l-84 -481q-90 -502 -646 -502q-270 0 -397 144q-125 139 -82 381zM246 485q-33 -178 57 -276q90 -100 291 -100q412 0 479 376l86 484q31 180 -57 278q-90 98 -291 99q-416 0 -479 -377zM467 -332 l2 14q14 82 96 82h12q45 0 60 -18q14 -16 6 -64l-2 -14q-16 -80 -96 -80h-13q-47 0 -59 16q-14 18 -6 64zM526 1593l291 219q39 33 80 33h16q37 0 64 -33l211 -219q23 -31 -23 -31h-49q-41 0 -57 21l-166 172l-228 -172q-27 -20 -63 -21h-62q-45 0 -14 31z" />
<glyph unicode="&#x1ed9;" horiz-adv-x="1103" d="M51 350l64 361q31 174 168 274q135 98 344 98q211 0 315 -104q102 -102 72 -279l-64 -360q-31 -174 -166 -272q-133 -96 -346 -97q-209 0 -313 103q-104 102 -74 276zM188 346q-20 -117 52 -182q72 -68 215 -68q145 0 241 68q96 66 117 182l64 361q20 117 -52 184 q-72 68 -217 67q-143 0 -239 -67q-96 -68 -117 -184zM313 -332l2 14q14 82 96 82h12q45 0 60 -18q14 -16 6 -64l-2 -14q-16 -80 -96 -80h-13q-47 0 -59 16q-14 18 -6 64zM323 1221l291 219q39 33 80 33h16q37 0 64 -33l211 -219q23 -31 -23 -31h-49q-41 0 -57 21l-166 172 l-228 -172q-27 -20 -63 -21h-62q-45 0 -14 31z" />
<glyph unicode="&#x1eda;" horiz-adv-x="1361" d="M96 496l86 483q41 242 209 373t440 131q268 0 394 -144q35 -39 55 -88q35 23 63 54q51 59 58 129q2 31 37 32h51q31 0 24 -30q-14 -104 -90 -191q-48 -51 -114 -88q16 -90 -4 -203l-84 -481q-90 -502 -646 -502q-270 0 -397 144q-125 139 -82 381zM246 485 q-33 -178 57 -276q90 -100 291 -100q412 0 479 376l86 484q31 180 -57 278q-90 98 -291 99q-416 0 -479 -377zM739 1640q-18 27 10 41l367 205q51 27 70 -2l22 -37q23 -31 -12 -43l-395 -191q-37 -14 -47 2z" />
<glyph unicode="&#x1edb;" horiz-adv-x="1169" d="M51 350l64 361q31 174 168 274q135 98 344 98q211 0 315 -104q53 -53 70 -127q23 16 41 37q51 59 57 129q2 31 37 33h51q31 0 25 -31q-14 -104 -90 -191q-50 -51 -113 -86q-2 -20 -6 -43l-64 -360q-31 -174 -166 -272q-133 -96 -346 -97q-209 0 -313 103 q-104 102 -74 276zM188 346q-20 -117 52 -182q72 -68 215 -68q145 0 241 68q96 66 117 182l64 361q20 117 -52 184q-72 68 -217 67q-143 0 -239 -67q-96 -68 -117 -184zM504 1223q-18 27 10 41l367 205q51 27 70 -2l22 -37q23 -31 -12 -43l-395 -191q-37 -14 -47 2z" />
<glyph unicode="&#x1edc;" horiz-adv-x="1361" d="M96 496l86 483q41 242 209 373t440 131q268 0 394 -144q35 -39 55 -88q35 23 63 54q51 59 58 129q2 31 37 32h51q31 0 24 -30q-14 -104 -90 -191q-48 -51 -114 -88q16 -90 -4 -203l-84 -481q-90 -502 -646 -502q-270 0 -397 144q-125 139 -82 381zM246 485 q-33 -178 57 -276q90 -100 291 -100q412 0 479 376l86 484q31 180 -57 278q-90 98 -291 99q-416 0 -479 -377zM520 1806q-29 12 2 43l33 35q31 31 69 2l295 -207q20 -14 -6 -41l-18 -18q-16 -18 -47 -5z" />
<glyph unicode="&#x1edd;" horiz-adv-x="1169" d="M51 350l64 361q31 174 168 274q135 98 344 98q211 0 315 -104q53 -53 70 -127q23 16 41 37q51 59 57 129q2 31 37 33h51q31 0 25 -31q-14 -104 -90 -191q-50 -51 -113 -86q-2 -20 -6 -43l-64 -360q-31 -174 -166 -272q-133 -96 -346 -97q-209 0 -313 103 q-104 102 -74 276zM188 346q-20 -117 52 -182q72 -68 215 -68q145 0 241 68q96 66 117 182l64 361q20 117 -52 184q-72 68 -217 67q-143 0 -239 -67q-96 -68 -117 -184zM465 1405q-29 12 2 43l33 35q31 31 69 2l295 -207q20 -14 -6 -41l-18 -18q-16 -18 -47 -5z" />
<glyph unicode="&#x1ede;" horiz-adv-x="1361" d="M96 496l86 483q41 242 209 373t440 131q268 0 394 -144q35 -39 55 -88q35 23 63 54q51 59 58 129q2 31 37 32h51q31 0 24 -30q-14 -104 -90 -191q-48 -51 -114 -88q16 -90 -4 -203l-84 -481q-90 -502 -646 -502q-270 0 -397 144q-125 139 -82 381zM246 485 q-33 -178 57 -276q90 -100 291 -100q412 0 479 376l86 484q31 180 -57 278q-90 98 -291 99q-416 0 -479 -377zM813 1855v21q4 25 25 34q88 43 176 21q100 -29 80 -123q-10 -76 -70 -133q-51 -49 -84 -62q-18 -12 -45 -14h-59q-35 18 22 51q35 25 78 62t45 80q6 39 -33 51 q-47 14 -102 -15q-45 -14 -33 27z" />
<glyph unicode="&#x1edf;" horiz-adv-x="1169" d="M51 350l64 361q31 174 168 274q135 98 344 98q211 0 315 -104q53 -53 70 -127q23 16 41 37q51 59 57 129q2 31 37 33h51q31 0 25 -31q-14 -104 -90 -191q-50 -51 -113 -86q-2 -20 -6 -43l-64 -360q-31 -174 -166 -272q-133 -96 -346 -97q-209 0 -313 103 q-104 102 -74 276zM188 346q-20 -117 52 -182q72 -68 215 -68q145 0 241 68q96 66 117 182l64 361q20 117 -52 184q-72 68 -217 67q-143 0 -239 -67q-96 -68 -117 -184zM620 1454v21q4 25 25 34q88 43 176 21q100 -29 80 -123q-10 -76 -70 -133q-51 -49 -84 -62 q-18 -12 -45 -14h-59q-35 18 22 51q35 25 78 62t45 80q6 39 -33 51q-47 14 -102 -15q-45 -14 -33 27z" />
<glyph unicode="&#x1ee0;" horiz-adv-x="1361" d="M96 496l86 483q41 242 209 373t440 131q268 0 394 -144q35 -39 55 -88q35 23 63 54q51 59 58 129q2 31 37 32h51q31 0 24 -30q-14 -104 -90 -191q-48 -51 -114 -88q16 -90 -4 -203l-84 -481q-90 -502 -646 -502q-270 0 -397 144q-125 139 -82 381zM246 485 q-33 -178 57 -276q90 -100 291 -100q412 0 479 376l86 484q31 180 -57 278q-90 98 -291 99q-416 0 -479 -377zM602 1654q33 203 192 203q76 0 154 -67q80 -70 129 -70q80 0 100 113q6 25 27 24h41q25 0 18 -24q-33 -203 -192 -203q-74 0 -150 69q-78 68 -129 68 q-82 0 -102 -113q-2 -25 -27 -24h-41q-23 0 -20 24z" />
<glyph unicode="&#x1ee1;" horiz-adv-x="1169" d="M51 350l64 361q31 174 168 274q135 98 344 98q211 0 315 -104q53 -53 70 -127q23 16 41 37q51 59 57 129q2 31 37 33h51q31 0 25 -31q-14 -104 -90 -191q-50 -51 -113 -86q-2 -20 -6 -43l-64 -360q-31 -174 -166 -272q-133 -96 -346 -97q-209 0 -313 103 q-104 102 -74 276zM188 346q-20 -117 52 -182q72 -68 215 -68q145 0 241 68q96 66 117 182l64 361q20 117 -52 184q-72 68 -217 67q-143 0 -239 -67q-96 -68 -117 -184zM389 1253q33 203 192 203q76 0 154 -67q80 -70 129 -70q80 0 100 113q6 25 27 24h41q25 0 18 -24 q-33 -203 -192 -203q-74 0 -150 69q-78 68 -129 68q-82 0 -102 -113q-2 -25 -27 -24h-41q-23 0 -20 24z" />
<glyph unicode="&#x1ee2;" horiz-adv-x="1361" d="M96 496l86 483q41 242 209 373t440 131q268 0 394 -144q35 -39 55 -88q35 23 63 54q51 59 58 129q2 31 37 32h51q31 0 24 -30q-14 -104 -90 -191q-48 -51 -114 -88q16 -90 -4 -203l-84 -481q-90 -502 -646 -502q-270 0 -397 144q-125 139 -82 381zM246 485 q-33 -178 57 -276q90 -100 291 -100q412 0 479 376l86 484q31 180 -57 278q-90 98 -291 99q-416 0 -479 -377zM442 -332l2 14q14 82 96 82h12q45 0 60 -18q14 -16 6 -64l-2 -14q-16 -80 -96 -80h-13q-47 0 -59 16q-14 18 -6 64z" />
<glyph unicode="&#x1ee3;" horiz-adv-x="1169" d="M51 350l64 361q31 174 168 274q135 98 344 98q211 0 315 -104q53 -53 70 -127q23 16 41 37q51 59 57 129q2 31 37 33h51q31 0 25 -31q-14 -104 -90 -191q-50 -51 -113 -86q-2 -20 -6 -43l-64 -360q-31 -174 -166 -272q-133 -96 -346 -97q-209 0 -313 103 q-104 102 -74 276zM188 346q-20 -117 52 -182q72 -68 215 -68q145 0 241 68q96 66 117 182l64 361q20 117 -52 184q-72 68 -217 67q-143 0 -239 -67q-96 -68 -117 -184zM311 -332l2 14q14 82 96 82h12q45 0 60 -18q14 -16 6 -64l-2 -14q-16 -80 -96 -80h-13q-47 0 -59 16 q-14 18 -6 64z" />
<glyph unicode="&#x1ee4;" horiz-adv-x="1398" d="M129 510l162 903q8 41 47 41h68q41 0 32 -41l-162 -919q-31 -182 52 -281q84 -104 282 -104q403 0 469 385l164 919q6 41 47 41h68q41 0 33 -41l-164 -934q-92 -510 -637 -510q-268 0 -389 152q-115 143 -72 389zM481 -332l2 14q14 82 96 82h12q45 0 60 -18q14 -16 6 -64 l-2 -14q-16 -80 -96 -80h-13q-47 0 -59 16q-14 18 -6 64z" />
<glyph unicode="&#x1ee5;" horiz-adv-x="1122" d="M90 381l111 635q8 37 45 37h63q37 0 29 -37l-113 -639q-47 -281 238 -281q154 0 276 45q41 18 47 58l144 817q6 37 43 37h63q39 0 31 -37l-152 -864q-16 -80 -98 -113q-174 -68 -393 -68q-408 0 -334 410zM371 -332l2 14q14 82 96 82h12q45 0 60 -18q14 -16 6 -64l-2 -14 q-16 -80 -96 -80h-13q-47 0 -59 16q-14 18 -6 64z" />
<glyph unicode="&#x1ee6;" horiz-adv-x="1398" d="M129 510l162 903q8 41 47 41h68q41 0 32 -41l-162 -919q-31 -182 52 -281q84 -104 282 -104q403 0 469 385l164 919q6 41 47 41h68q41 0 33 -41l-164 -934q-92 -510 -637 -510q-268 0 -389 152q-115 143 -72 389zM784 1855v21q4 25 25 34q88 43 176 21q100 -29 80 -123 q-10 -76 -70 -133q-51 -49 -84 -62q-18 -12 -45 -14h-59q-35 18 22 51q35 25 78 62t45 80q6 39 -33 51q-47 14 -102 -15q-45 -14 -33 27z" />
<glyph unicode="&#x1ee7;" horiz-adv-x="1122" d="M90 381l111 635q8 37 45 37h63q37 0 29 -37l-113 -639q-47 -281 238 -281q154 0 276 45q41 18 47 58l144 817q6 37 43 37h63q39 0 31 -37l-152 -864q-16 -80 -98 -113q-174 -68 -393 -68q-408 0 -334 410zM583 1454v21q4 25 25 34q88 43 176 21q100 -29 80 -123 q-10 -76 -70 -133q-51 -49 -84 -62q-18 -12 -45 -14h-59q-35 18 22 51q35 25 78 62t45 80q6 39 -33 51q-47 14 -102 -15q-45 -14 -33 27z" />
<glyph unicode="&#x1ee8;" horiz-adv-x="1441" d="M129 510l162 903q8 41 47 41h68q41 0 32 -41l-162 -919q-31 -182 52 -281q84 -104 282 -104q403 0 469 385l164 919q6 41 47 41h68q41 0 33 -41l-27 -153q27 20 51 45q51 59 58 129q2 31 36 32h52q31 0 24 -30q-14 -104 -90 -191q-62 -65 -152 -106l-116 -660 q-92 -510 -637 -510q-268 0 -389 152q-115 143 -72 389zM690 1640q-18 27 10 41l367 205q51 27 70 -2l22 -37q23 -31 -12 -43l-395 -191q-37 -14 -47 2z" />
<glyph unicode="&#x1ee9;" horiz-adv-x="1198" d="M90 381l111 635q8 37 45 37h63q37 0 29 -37l-113 -639q-47 -281 238 -281q154 0 276 45q41 18 47 58l144 817q6 37 43 37h63q39 0 31 -37l-29 -158q18 14 35 31q51 59 57 129q2 31 37 33h52q31 0 24 -31q-14 -104 -90 -191q-57 -59 -135 -98l-103 -579q-16 -80 -98 -113 q-174 -68 -393 -68q-408 0 -334 410zM459 1239q-18 27 10 41l367 205q51 27 70 -2l22 -37q23 -31 -12 -43l-395 -191q-37 -14 -47 2z" />
<glyph unicode="&#x1eea;" horiz-adv-x="1441" d="M129 510l162 903q8 41 47 41h68q41 0 32 -41l-162 -919q-31 -182 52 -281q84 -104 282 -104q403 0 469 385l164 919q6 41 47 41h68q41 0 33 -41l-27 -153q27 20 51 45q51 59 58 129q2 31 36 32h52q31 0 24 -30q-14 -104 -90 -191q-62 -65 -152 -106l-116 -660 q-92 -510 -637 -510q-268 0 -389 152q-115 143 -72 389zM572 1806q-29 12 2 43l33 35q31 31 69 2l295 -207q20 -14 -6 -41l-18 -18q-16 -18 -47 -5z" />
<glyph unicode="&#x1eeb;" horiz-adv-x="1198" d="M90 381l111 635q8 37 45 37h63q37 0 29 -37l-113 -639q-47 -281 238 -281q154 0 276 45q41 18 47 58l144 817q6 37 43 37h63q39 0 31 -37l-29 -158q18 14 35 31q51 59 57 129q2 31 37 33h52q31 0 24 -31q-14 -104 -90 -191q-57 -59 -135 -98l-103 -579q-16 -80 -98 -113 q-174 -68 -393 -68q-408 0 -334 410zM338 1405q-29 12 2 43l33 35q31 31 69 2l295 -207q20 -14 -6 -41l-18 -18q-16 -18 -47 -5z" />
<glyph unicode="&#x1eec;" horiz-adv-x="1441" d="M129 510l162 903q8 41 47 41h68q41 0 32 -41l-162 -919q-31 -182 52 -281q84 -104 282 -104q403 0 469 385l164 919q6 41 47 41h68q41 0 33 -41l-27 -153q27 20 51 45q51 59 58 129q2 31 36 32h52q31 0 24 -30q-14 -104 -90 -191q-62 -65 -152 -106l-116 -660 q-92 -510 -637 -510q-268 0 -389 152q-115 143 -72 389zM823 1855v21q4 25 25 34q88 43 176 21q100 -29 80 -123q-10 -76 -70 -133q-51 -49 -84 -62q-18 -12 -45 -14h-59q-35 18 22 51q35 25 78 62t45 80q6 39 -33 51q-47 14 -102 -15q-45 -14 -33 27z" />
<glyph unicode="&#x1eed;" horiz-adv-x="1198" d="M90 381l111 635q8 37 45 37h63q37 0 29 -37l-113 -639q-47 -281 238 -281q154 0 276 45q41 18 47 58l144 817q6 37 43 37h63q39 0 31 -37l-29 -158q18 14 35 31q51 59 57 129q2 31 37 33h52q31 0 24 -31q-14 -104 -90 -191q-57 -59 -135 -98l-103 -579q-16 -80 -98 -113 q-174 -68 -393 -68q-408 0 -334 410zM600 1454v21q4 25 25 34q88 43 176 21q100 -29 80 -123q-10 -76 -70 -133q-51 -49 -84 -62q-18 -12 -45 -14h-59q-35 18 22 51q35 25 78 62t45 80q6 39 -33 51q-47 14 -102 -15q-45 -14 -33 27z" />
<glyph unicode="&#x1eee;" horiz-adv-x="1441" d="M129 510l162 903q8 41 47 41h68q41 0 32 -41l-162 -919q-31 -182 52 -281q84 -104 282 -104q403 0 469 385l164 919q6 41 47 41h68q41 0 33 -41l-27 -153q27 20 51 45q51 59 58 129q2 31 36 32h52q31 0 24 -30q-14 -104 -90 -191q-62 -65 -152 -106l-116 -660 q-92 -510 -637 -510q-268 0 -389 152q-115 143 -72 389zM514 1654q33 203 192 203q76 0 154 -67q80 -70 129 -70q80 0 100 113q6 25 27 24h41q25 0 18 -24q-33 -203 -192 -203q-74 0 -150 69q-78 68 -129 68q-82 0 -102 -113q-2 -25 -27 -24h-41q-23 0 -20 24z" />
<glyph unicode="&#x1eef;" horiz-adv-x="1198" d="M90 381l111 635q8 37 45 37h63q37 0 29 -37l-113 -639q-47 -281 238 -281q154 0 276 45q41 18 47 58l144 817q6 37 43 37h63q39 0 31 -37l-29 -158q18 14 35 31q51 59 57 129q2 31 37 33h52q31 0 24 -31q-14 -104 -90 -191q-57 -59 -135 -98l-103 -579q-16 -80 -98 -113 q-174 -68 -393 -68q-408 0 -334 410zM287 1253q33 203 192 203q76 0 154 -67q80 -70 129 -70q80 0 100 113q6 25 27 24h41q25 0 18 -24q-33 -203 -192 -203q-74 0 -150 69q-78 68 -129 68q-82 0 -102 -113q-2 -25 -27 -24h-41q-23 0 -20 24z" />
<glyph unicode="&#x1ef0;" horiz-adv-x="1441" d="M129 510l162 903q8 41 47 41h68q41 0 32 -41l-162 -919q-31 -182 52 -281q84 -104 282 -104q403 0 469 385l164 919q6 41 47 41h68q41 0 33 -41l-27 -153q27 20 51 45q51 59 58 129q2 31 36 32h52q31 0 24 -30q-14 -104 -90 -191q-62 -65 -152 -106l-116 -660 q-92 -510 -637 -510q-268 0 -389 152q-115 143 -72 389zM459 -332l2 14q14 82 96 82h12q45 0 60 -18q14 -16 6 -64l-2 -14q-16 -80 -96 -80h-13q-47 0 -59 16q-14 18 -6 64z" />
<glyph unicode="&#x1ef1;" horiz-adv-x="1198" d="M90 381l111 635q8 37 45 37h63q37 0 29 -37l-113 -639q-47 -281 238 -281q154 0 276 45q41 18 47 58l144 817q6 37 43 37h63q39 0 31 -37l-29 -158q18 14 35 31q51 59 57 129q2 31 37 33h52q31 0 24 -31q-14 -104 -90 -191q-57 -59 -135 -98l-103 -579q-16 -80 -98 -113 q-174 -68 -393 -68q-408 0 -334 410zM344 -332l2 14q14 82 96 82h12q45 0 60 -18q14 -16 6 -64l-2 -14q-16 -80 -96 -80h-13q-47 0 -59 16q-14 18 -6 64z" />
<glyph unicode="&#x1ef2;" horiz-adv-x="1277" d="M170 1413q-14 41 29 41h80q57 0 71 -37l312 -674l550 674q25 37 82 37h80q47 0 17 -41l-682 -823l-97 -549q-8 -41 -49 -41h-67q-41 0 -33 41l96 551zM631 1745q-31 12 2 43l35 35q29 31 69 4l299 -201q23 -12 -4 -41l-20 -20q-14 -18 -47 -2z" />
<glyph unicode="&#x1ef3;" horiz-adv-x="1126" d="M-6 -285q-18 41 24 60l45 22q41 20 58 -14q61 -164 258 -164q299 0 354 311l21 121q-193 -53 -330 -53q-408 0 -334 410l107 608q6 37 43 37h65q37 0 29 -37l-109 -613q-49 -281 240 -280q129 0 311 55l148 838q8 37 45 37h63q37 0 29 -37l-189 -1079q-78 -442 -514 -443 q-287 0 -364 221zM489 1393q-29 14 3 43l32 34q29 29 70 5l295 -207q20 -14 -6 -41l-19 -21q-16 -18 -47 -4z" />
<glyph unicode="&#x1ef4;" horiz-adv-x="1277" d="M170 1413q-14 41 29 41h80q57 0 71 -37l312 -674l550 674q25 37 82 37h80q47 0 17 -41l-682 -823l-97 -549q-8 -41 -49 -41h-67q-41 0 -33 41l96 551zM401 -332l2 14q14 82 96 82h12q45 0 60 -18q14 -16 6 -64l-2 -14q-16 -80 -96 -80h-13q-47 0 -59 16q-14 18 -6 64z " />
<glyph unicode="&#x1ef5;" horiz-adv-x="1126" d="M-6 -285q-18 41 24 60l45 22q41 20 58 -14q61 -164 258 -164q299 0 354 311l21 121q-193 -53 -330 -53q-408 0 -334 410l107 608q6 37 43 37h65q37 0 29 -37l-109 -613q-49 -281 240 -280q129 0 311 55l148 838q8 37 45 37h63q37 0 29 -37l-189 -1079q-78 -442 -514 -443 q-287 0 -364 221zM856 -332l2 14q14 82 96 82h12q45 0 60 -18q14 -16 6 -64l-2 -14q-16 -80 -96 -80h-13q-47 0 -59 16q-14 18 -6 64z" />
<glyph unicode="&#x1ef6;" horiz-adv-x="1277" d="M170 1413q-14 41 29 41h80q57 0 71 -37l312 -674l550 674q25 37 82 37h80q47 0 17 -41l-682 -823l-97 -549q-8 -41 -49 -41h-67q-41 0 -33 41l96 551zM721 1855v21q4 25 25 34q88 43 176 21q100 -29 80 -123q-10 -76 -70 -133q-51 -49 -84 -62q-18 -12 -45 -14h-59 q-35 18 22 51q35 25 78 62t45 80q6 39 -33 51q-47 14 -102 -15q-45 -14 -33 27z" />
<glyph unicode="&#x1ef7;" horiz-adv-x="1126" d="M-6 -285q-18 41 24 60l45 22q41 20 58 -14q61 -164 258 -164q299 0 354 311l21 121q-193 -53 -330 -53q-408 0 -334 410l107 608q6 37 43 37h65q37 0 29 -37l-109 -613q-49 -281 240 -280q129 0 311 55l148 838q8 37 45 37h63q37 0 29 -37l-189 -1079q-78 -442 -514 -443 q-287 0 -364 221zM598 1454v21q4 25 25 34q88 43 176 21q100 -29 80 -123q-10 -76 -70 -133q-51 -49 -84 -62q-18 -12 -45 -14h-59q-35 18 22 51q35 25 78 62t45 80q6 39 -33 51q-47 14 -102 -15q-45 -14 -33 27z" />
<glyph unicode="&#x1ef8;" horiz-adv-x="1277" d="M170 1413q-14 41 29 41h80q57 0 71 -37l312 -674l550 674q25 37 82 37h80q47 0 17 -41l-682 -823l-97 -549q-8 -41 -49 -41h-67q-41 0 -33 41l96 551zM447 1654q33 203 192 203q76 0 154 -67q80 -70 129 -70q80 0 100 113q6 25 27 24h41q25 0 18 -24q-33 -203 -192 -203 q-74 0 -150 69q-78 68 -129 68q-82 0 -102 -113q-2 -25 -27 -24h-41q-23 0 -20 24z" />
<glyph unicode="&#x1ef9;" horiz-adv-x="1126" d="M-6 -285q-18 41 24 60l45 22q41 20 58 -14q61 -164 258 -164q299 0 354 311l21 121q-193 -53 -330 -53q-408 0 -334 410l107 608q6 37 43 37h65q37 0 29 -37l-109 -613q-49 -281 240 -280q129 0 311 55l148 838q8 37 45 37h63q37 0 29 -37l-189 -1079q-78 -442 -514 -443 q-287 0 -364 221zM346 1253q33 203 192 203q76 0 154 -67q80 -70 129 -70q80 0 100 113q6 25 27 24h41q25 0 18 -24q-33 -203 -192 -203q-74 0 -150 69q-78 68 -129 68q-82 0 -102 -113q-2 -25 -27 -24h-41q-23 0 -20 24z" />
<glyph unicode="&#x2000;" horiz-adv-x="1095" />
<glyph unicode="&#x2001;" horiz-adv-x="2190" />
<glyph unicode="&#x2002;" horiz-adv-x="1095" />
<glyph unicode="&#x2003;" horiz-adv-x="2190" />
<glyph unicode="&#x2004;" horiz-adv-x="730" />
<glyph unicode="&#x2005;" horiz-adv-x="547" />
<glyph unicode="&#x2006;" horiz-adv-x="365" />
<glyph unicode="&#x2007;" horiz-adv-x="365" />
<glyph unicode="&#x2008;" horiz-adv-x="273" />
<glyph unicode="&#x2009;" horiz-adv-x="438" />
<glyph unicode="&#x200a;" horiz-adv-x="121" />
<glyph unicode="&#x2010;" horiz-adv-x="864" d="M109 518l10 51q8 41 47 41h528q43 0 35 -41l-10 -51q-6 -41 -47 -41h-529q-41 0 -34 41z" />
<glyph unicode="&#x2011;" horiz-adv-x="864" d="M109 518l10 51q8 41 47 41h528q43 0 35 -41l-10 -51q-6 -41 -47 -41h-529q-41 0 -34 41z" />
<glyph unicode="&#x2012;" horiz-adv-x="864" d="M109 518l10 51q8 41 47 41h528q43 0 35 -41l-10 -51q-6 -41 -47 -41h-529q-41 0 -34 41z" />
<glyph unicode="&#x2013;" horiz-adv-x="1177" d="M106 522l11 51q6 41 47 41h846q39 0 32 -41l-10 -51q-8 -41 -47 -41h-844q-43 0 -35 41z" />
<glyph unicode="&#x2014;" horiz-adv-x="1585" d="M106 520l11 53q8 41 49 41h1253q41 0 33 -41l-10 -53q-6 -41 -47 -41h-1254q-41 0 -35 41z" />
<glyph unicode="&#x2018;" horiz-adv-x="401" d="M186 1085l146 332q12 37 45 37h29q31 0 24 -29l-98 -340q-10 -45 -53 -45h-56q-55 0 -37 45z" />
<glyph unicode="&#x2019;" horiz-adv-x="393" d="M201 1069l98 340q10 45 53 45h54q57 0 38 -45l-145 -332q-14 -37 -47 -37h-27q-31 0 -24 29z" />
<glyph unicode="&#x201a;" horiz-adv-x="346" d="M-31 -221l76 409q8 37 43 37h59q39 0 31 -37l-98 -409q-8 -37 -45 -37h-33q-39 0 -33 37z" />
<glyph unicode="&#x201c;" horiz-adv-x="649" d="M186 1085l146 332q12 37 45 37h29q31 0 24 -29l-98 -340q-10 -45 -53 -45h-56q-55 0 -37 45zM434 1085l146 332q12 37 45 37h26q29 0 27 -29l-98 -340q-10 -45 -56 -45h-53q-55 0 -37 45z" />
<glyph unicode="&#x201d;" horiz-adv-x="641" d="M201 1069l98 340q10 45 53 45h54q57 0 38 -45l-145 -332q-14 -37 -47 -37h-27q-31 0 -24 29zM446 1069l101 340q8 45 53 45h53q57 0 39 -45l-145 -332q-14 -37 -47 -37h-27q-29 0 -27 29z" />
<glyph unicode="&#x201e;" horiz-adv-x="612" d="M-66 -219l101 340q8 45 53 45h53q55 0 37 -45l-143 -332q-12 -37 -47 -37h-27q-29 0 -27 29zM182 -219l101 340q8 45 53 45h53q55 0 37 -45l-145 -332q-10 -37 -45 -37h-27q-29 0 -27 29z" />
<glyph unicode="&#x2020;" horiz-adv-x="1093" d="M111 881l10 57q6 41 47 41h371l77 434q6 41 46 41h59q41 0 35 -41l-76 -434h369q39 0 32 -41l-10 -57q-8 -41 -49 -41h-369l-176 -1004q-8 -41 -47 -41h-59q-41 0 -33 41l176 1004h-371q-41 0 -32 41z" />
<glyph unicode="&#x2021;" horiz-adv-x="1179" d="M55 309l11 58q8 39 47 39h370l76 434h-371q-41 0 -32 41l10 57q6 41 49 41h371l76 434q8 41 47 41h59q41 0 33 -41l-76 -434h369q39 0 32 -41l-10 -57q-8 -41 -47 -41h-371l-75 -434h370q41 0 33 -39l-10 -58q-6 -41 -47 -41h-371l-76 -432q-6 -41 -47 -41h-59 q-41 0 -33 41l76 432h-371q-39 0 -33 41z" />
<glyph unicode="&#x2022;" horiz-adv-x="622" d="M150 539q12 63 61 104q47 43 111 43q63 0 96 -43q35 -41 22 -104q-10 -61 -59 -103q-49 -43 -111 -43q-63 0 -96 43q-35 41 -24 103z" />
<glyph unicode="&#x2026;" horiz-adv-x="1236" d="M12 70l2 12q12 82 97 82h12q45 0 59 -17q14 -18 6 -65l-2 -12q-16 -82 -96 -82h-12q-47 0 -60 16q-14 18 -6 66zM442 70l4 12q12 82 97 82h12q45 0 59 -17q14 -18 7 -65l-5 -12q-14 -82 -96 -82h-10q-47 0 -61 16q-14 18 -7 66zM874 70l3 12q16 82 96 82h12q47 0 62 -17 q12 -18 4 -65l-2 -12q-14 -82 -97 -82h-12q-47 0 -59 16q-14 18 -7 66z" />
<glyph unicode="&#x202f;" horiz-adv-x="438" />
<glyph unicode="&#x2030;" horiz-adv-x="2416" d="M147 41l1260 1378q31 35 80 35h53q47 0 14 -39l-1257 -1378q-35 -37 -86 -37h-49q-47 0 -15 41zM147 1034l27 150q53 301 377 301q156 0 227 -80q68 -80 43 -221l-26 -150q-53 -299 -377 -299q-156 0 -228 80q-68 78 -43 219zM266 1040q-37 -193 172 -192q205 0 242 192 l25 140q33 193 -175 192q-205 0 -241 -192zM879 266l26 152q53 301 377 301q156 0 227 -80q68 -80 43 -221l-26 -152q-53 -297 -377 -297q-156 0 -227 80q-68 78 -43 217zM997 274q-35 -195 172 -194q207 0 242 194l23 138q35 195 -172 194q-207 0 -242 -194zM1640 266 l27 152q53 301 377 301q156 0 227 -80q68 -80 43 -221l-26 -152q-53 -297 -377 -297q-156 0 -228 80q-68 78 -43 217zM1759 274q-35 -195 172 -194q207 0 242 194l22 138q35 195 -172 194q-207 0 -241 -194z" />
<glyph unicode="&#x2039;" horiz-adv-x="686" d="M63 514q-18 25 9 47l475 408q27 20 47 0l37 -39q20 -20 -10 -47l-404 -344l281 -342q18 -23 -9 -47l-43 -41q-27 -25 -49 0z" />
<glyph unicode="&#x203a;" horiz-adv-x="694" d="M27 162q-18 25 10 47l405 340l-282 346q-20 25 10 47l45 35q31 23 47 0l340 -416q16 -23 -8 -47l-477 -405q-31 -23 -47 0z" />
<glyph unicode="&#x2044;" horiz-adv-x="325" d="M-406 12q-6 12 9 29l1013 1378q23 35 74 35h53q49 0 21 -39l-1012 -1378q-27 -37 -82 -37h-49q-20 0 -27 12z" />
<glyph unicode="&#x205f;" horiz-adv-x="547" />
<glyph unicode="&#x20ac;" horiz-adv-x="1486" d="M53 545l19 39q16 35 55 34h178l35 197h-131q-39 0 -25 37l21 39q16 35 53 35h98l15 78q45 231 211 356q168 125 436 125q358 0 446 -250q23 -47 -24 -66l-45 -18q-45 -20 -64 18q-55 176 -338 177q-197 0 -321 -93q-123 -92 -152 -258l-12 -69h633q39 0 22 -35l-18 -41 q-18 -35 -55 -35h-607l-34 -197h548q39 0 21 -34l-19 -41q-18 -35 -57 -35h-508l-10 -53q-27 -166 65 -256t287 -90q295 0 408 190q33 39 71 18l43 -24q41 -23 7 -70q-172 -254 -555 -254q-264 0 -390 127q-127 127 -86 359l9 53h-209q-41 0 -21 37z" />
<glyph unicode="&#x20bd;" horiz-adv-x="1329" d="M23 315l6 35q6 37 45 37h96l182 1026q6 41 45 41h557q209 0 310 -123q100 -123 63 -330q-37 -203 -176 -309q-135 -104 -348 -104h-449l-35 -201h705q35 0 33 -37l-6 -35q-8 -37 -47 -36h-705l-41 -238q-8 -41 -47 -41h-70q-41 0 -32 41l41 238h-97q-39 0 -30 36z M379 725h434q145 0 244 78q96 80 121 217t-45 217q-70 78 -215 78h-435z" />
<glyph unicode="&#x2122;" horiz-adv-x="1269" d="M203 1370l4 25q4 29 31 28h417q27 0 23 -28l-6 -25q-4 -27 -31 -27h-166l-72 -409q-4 -27 -36 -27h-23q-29 0 -25 27l72 409h-168q-29 0 -20 27zM645 934l82 461q4 29 37 28h14q20 0 31 -18l135 -283l234 281q14 20 36 20h19q29 0 24 -26l-81 -463q-4 -27 -33 -27h-27 q-27 0 -22 27l41 231l22 107l-51 -66l-135 -159q-16 -18 -37 -19h-12q-18 0 -29 14l-109 224q-6 -53 -16 -101l-41 -231q-4 -27 -31 -27h-26q-27 0 -25 27z" />
<glyph unicode="&#x25fc;" horiz-adv-x="1054" d="M0 0v1055h1055v-1055h-1055z" />
</font>
</defs>
</svg>
