<?xml version="1.0" standalone="no"?>
<!DOCTYPE svg PUBLIC "-//W3C//DTD SVG 1.1//EN" "http://www.w3.org/Graphics/SVG/1.1/DTD/svg11.dtd" >
<svg xmlns="http://www.w3.org/2000/svg" xmlns:xlink="http://www.w3.org/1999/xlink" version="1.1">
<metadata>
Created by FontForge 20160407 at Fri Oct  7 14:17:45 2016
 By Jimmy Warting
Copyright \(c\) 2012 by Fontfabric LLC. All rights reserved.
</metadata>
<defs>
<font id="iCielPanton-Light" horiz-adv-x="660" >
  <font-face 
    font-family="iCiel Panton"
    font-weight="300"
    font-stretch="normal"
    units-per-em="1000"
    panose-1="0 0 4 0 0 0 0 0 0 0"
    ascent="740"
    descent="-260"
    x-height="512"
    cap-height="710"
    bbox="-371 -253 1142 1048.29"
    underline-thickness="50"
    underline-position="-100"
    stemh="36"
    stemv="37"
    unicode-range="U+0020-FB02"
  />
<missing-glyph horiz-adv-x="686" 
d="M600 697v-684c0 -9 -5 -13 -14 -13h-481c-9 0 -14 4 -14 13v684c0 9 5 13 14 13h481c9 0 14 -4 14 -13zM138 667v-624h415v624h-415z" />
    <glyph glyph-name="uniFB01" unicode="fi" horiz-adv-x="556" 
d="M322 740h152c7 0 11 -4 11 -12v-16c0 -8 -4 -12 -11 -12h-152c-61 0 -102 -10 -124 -31c-23 -22 -34 -63 -34 -123v-34h310c7 0 11 -4 11 -11v-489c0 -8 -4 -12 -11 -12h-20c-8 0 -12 4 -12 12v461h-278v-461c0 -8 -4 -12 -12 -12h-19c-8 0 -12 4 -12 12v461h-103
c-8 0 -12 4 -12 11v17c0 7 4 11 12 11h103v33c0 73 15 124 46 153c29 28 81 42 155 42z" />
    <glyph glyph-name="uniFB02" unicode="fl" horiz-adv-x="521" 
d="M322 740h113c8 0 12 -4 12 -12v-716c0 -8 -4 -12 -12 -12h-19c-8 0 -12 4 -12 12v688h-82c-61 0 -102 -10 -124 -31c-23 -22 -34 -63 -34 -123v-34h134c8 0 12 -4 12 -11v-17c0 -7 -4 -11 -12 -11h-134v-461c0 -8 -4 -12 -12 -12h-19c-8 0 -12 4 -12 12v461h-103
c-8 0 -12 4 -12 11v17c0 7 4 11 12 11h103v34c0 72 15 122 46 151c30 29 82 43 155 43z" />
    <glyph glyph-name=".notdef" horiz-adv-x="686" 
d="M600 697v-684c0 -9 -5 -13 -14 -13h-481c-9 0 -14 4 -14 13v684c0 9 5 13 14 13h481c9 0 14 -4 14 -13zM138 667v-624h415v624h-415z" />
    <glyph glyph-name="nonmarkingreturn" unicode=" " horiz-adv-x="244" 
 />
    <glyph glyph-name="A" unicode="A" horiz-adv-x="632" 
d="M342 703l277 -691c3 -8 0 -12 -10 -12h-18c-13 0 -21 4 -22 11l-89 221h-332l-88 -221c-3 -7 -10 -11 -23 -11h-17c-9 0 -12 4 -9 12l277 691c3 8 9 12 17 12h20c9 0 14 -4 17 -12zM467 271l-142 355c-2 6 -5 20 -10 43h-3c0 -13 -3 -28 -8 -43l-142 -355h305z" />
    <glyph glyph-name="Aacute" unicode="&#xc1;" horiz-adv-x="632" 
d="M216 788l169 107c9 5 17 4 22 -2l10 -11c5 -7 5 -12 -2 -15l-178 -102c-7 -3 -13 -2 -16 1l-7 8c-5 6 -4 11 2 14zM342 703l277 -691c3 -8 0 -12 -10 -12h-18c-13 0 -21 4 -22 11l-89 221h-332l-88 -221c-3 -7 -10 -11 -23 -11h-17c-9 0 -12 4 -9 12l277 691
c3 8 9 12 17 12h20c9 0 14 -4 17 -12zM467 271l-142 355c-2 6 -5 20 -10 43h-3c0 -13 -3 -28 -8 -43l-142 -355h305z" />
    <glyph glyph-name="Abreve" unicode="&#x102;" horiz-adv-x="632" 
d="M465 876c-21 -75 -71 -112 -150 -112s-129 37 -150 112c-2 5 0 9 6 11l16 6c6 2 10 0 12 -5c17 -60 55 -90 116 -90s99 30 116 90c2 5 6 7 11 5l18 -6c5 -2 7 -6 5 -11zM342 703l277 -691c3 -8 0 -12 -10 -12h-18c-13 0 -21 4 -22 11l-89 221h-332l-88 -221
c-3 -7 -10 -11 -23 -11h-17c-9 0 -12 4 -9 12l277 691c3 8 9 12 17 12h20c9 0 14 -4 17 -12zM467 271l-142 355c-2 6 -5 20 -10 43h-3c0 -13 -3 -28 -8 -43l-142 -355h305z" />
    <glyph glyph-name="Acircumflex" unicode="&#xc2;" horiz-adv-x="632" 
d="M313 897h5c8 0 16 -4 24 -11l133 -112c5 -7 3 -10 -7 -10h-18c-9 0 -15 2 -20 7l-115 95l-116 -95c-5 -5 -12 -7 -19 -7h-18c-11 0 -14 3 -7 10l134 112c7 7 15 11 24 11zM342 703l277 -691c3 -8 0 -12 -10 -12h-18c-13 0 -21 4 -22 11l-89 221h-332l-88 -221
c-3 -7 -10 -11 -23 -11h-17c-9 0 -12 4 -9 12l277 691c3 8 9 12 17 12h20c9 0 14 -4 17 -12zM467 271l-142 355c-2 6 -5 20 -10 43h-3c0 -13 -3 -28 -8 -43l-142 -355h305z" />
    <glyph glyph-name="Adieresis" unicode="&#xc4;" horiz-adv-x="632" 
d="M216 853h6c15 0 23 -8 23 -23v-7c0 -15 -8 -22 -23 -22h-6c-15 0 -23 7 -23 22v7c0 15 8 23 23 23zM408 853h5c15 0 23 -8 23 -23v-7c0 -15 -8 -22 -23 -22h-5c-16 0 -24 7 -24 22v7c0 15 8 23 24 23zM342 703l277 -691c3 -8 0 -12 -10 -12h-18c-13 0 -21 4 -22 11
l-89 221h-332l-88 -221c-3 -7 -10 -11 -23 -11h-17c-9 0 -12 4 -9 12l277 691c3 8 9 12 17 12h20c9 0 14 -4 17 -12zM467 271l-142 355c-2 6 -5 20 -10 43h-3c0 -13 -3 -28 -8 -43l-142 -355h305z" />
    <glyph glyph-name="Agrave" unicode="&#xc0;" horiz-adv-x="632" 
d="M212 875l10 11c5 6 12 7 22 2l172 -102c6 -3 7 -8 2 -14l-7 -8c-3 -4 -9 -4 -16 -1l-181 98c-7 3 -8 7 -2 14zM342 703l277 -691c3 -8 0 -12 -10 -12h-18c-13 0 -21 4 -22 11l-89 221h-332l-88 -221c-3 -7 -10 -11 -23 -11h-17c-9 0 -12 4 -9 12l277 691c3 8 9 12 17 12
h20c9 0 14 -4 17 -12zM467 271l-142 355c-2 6 -5 20 -10 43h-3c0 -13 -3 -28 -8 -43l-142 -355h305z" />
    <glyph glyph-name="Amacron" unicode="&#x100;" horiz-adv-x="632" 
d="M196 839h238c7 0 11 -4 11 -11v-10c0 -8 -4 -12 -11 -12h-238c-7 0 -11 4 -11 12v10c0 7 4 11 11 11zM342 703l277 -691c3 -8 0 -12 -10 -12h-18c-13 0 -21 4 -22 11l-89 221h-332l-88 -221c-3 -7 -10 -11 -23 -11h-17c-9 0 -12 4 -9 12l277 691c3 8 9 12 17 12h20
c9 0 14 -4 17 -12zM467 271l-142 355c-2 6 -5 20 -10 43h-3c0 -13 -3 -28 -8 -43l-142 -355h305z" />
    <glyph glyph-name="Aogonek" unicode="&#x104;" horiz-adv-x="631" 
d="M307 715h19c9 0 14 -4 17 -12l276 -688c2 -7 1 -12 -2 -15c-38 -31 -67 -63 -87 -98c-19 -35 -25 -62 -17 -83c7 -21 22 -32 44 -32c25 0 47 9 65 28c3 3 6 3 8 -2l5 -15c1 -4 1 -7 -2 -10c-23 -23 -52 -35 -87 -35c-37 0 -61 16 -71 47c-9 27 -5 59 14 96
c19 38 51 74 95 109c-9 0 -14 4 -16 12l-90 223h-325l-92 -229c-3 -7 -10 -11 -23 -11h-16c-11 0 -14 4 -9 12l277 691c3 8 8 12 17 12zM464 279l-81 208c-9 21 -20 54 -35 97c-14 39 -24 66 -31 83h-3c-7 -16 -17 -44 -30 -83c-15 -43 -26 -75 -35 -97l-82 -208h297z" />
    <glyph glyph-name="Aring" unicode="&#xc5;" horiz-adv-x="632" 
d="M214 786c0 30 9 54 28 72s43 27 74 27s55 -9 73 -27s27 -42 27 -72c0 -52 -24 -83 -71 -92l274 -682c3 -8 0 -12 -10 -12h-18c-13 0 -21 4 -22 11l-89 221h-332l-88 -221c-3 -7 -10 -11 -23 -11h-17c-9 0 -12 4 -9 12l274 683c-47 9 -71 40 -71 91zM388 786
c0 47 -24 71 -72 71c-49 0 -74 -24 -74 -71s25 -71 74 -71c48 0 72 24 72 71zM467 271l-142 355c-2 6 -5 20 -10 43h-3c0 -13 -3 -28 -8 -43l-142 -355h305z" />
    <glyph glyph-name="Aringacute" unicode="&#x1fa;" horiz-adv-x="632" 
d="M229 881l156 73c10 4 17 4 21 -1l8 -10c5 -5 4 -8 -2 -11l-168 -71c-7 -3 -12 -2 -15 1l-6 7c-5 5 -3 9 6 12zM218 761c0 27 9 48 27 65s41 26 70 26c28 0 51 -9 69 -26c17 -17 26 -38 26 -65c0 -43 -21 -68 -64 -75l272 -674c5 -8 2 -12 -9 -12h-18c-13 0 -20 4 -23 11
l-91 229h-326l-92 -229c-3 -7 -10 -11 -22 -11h-17c-9 0 -12 4 -9 12l273 674c-44 9 -66 34 -66 75zM383 762c0 19 -6 35 -19 47s-29 18 -49 18c-21 0 -37 -6 -50 -18s-19 -28 -19 -47c0 -17 6 -31 19 -42s29 -17 50 -17c20 0 36 6 49 17s19 25 19 42zM463 279l-102 257
l-25 71c-9 30 -16 49 -20 58h-3c-4 -9 -11 -28 -20 -57c-11 -33 -19 -57 -24 -71l-104 -258h298z" />
    <glyph glyph-name="Atilde" unicode="&#xc3;" horiz-adv-x="632" 
d="M446 875h13c6 0 9 -3 9 -8c0 -63 -25 -94 -75 -94c-25 0 -52 12 -82 36s-55 36 -74 36c-32 0 -48 -21 -48 -64c0 -5 -3 -8 -8 -8h-14c-5 0 -8 3 -8 8c0 63 25 94 75 94c25 0 53 -12 84 -36c30 -24 54 -36 72 -36c32 0 48 21 48 64c0 5 3 8 8 8zM342 703l277 -691
c3 -8 0 -12 -10 -12h-18c-13 0 -21 4 -22 11l-89 221h-332l-88 -221c-3 -7 -10 -11 -23 -11h-17c-9 0 -12 4 -9 12l277 691c3 8 9 12 17 12h20c9 0 14 -4 17 -12zM467 271l-142 355c-2 6 -5 20 -10 43h-3c0 -13 -3 -28 -8 -43l-142 -355h305z" />
    <glyph glyph-name="AE" unicode="&#xc6;" horiz-adv-x="817" 
d="M468 43h296c8 0 12 -4 12 -12v-18c0 -9 -4 -13 -12 -13h-329c-8 0 -12 4 -12 13v174h-270l-106 -176c-5 -7 -12 -11 -22 -11h-20c-9 0 -12 4 -9 12l418 686c5 8 10 12 17 12h319c8 0 12 -4 12 -13v-18c0 -8 -4 -12 -12 -12h-282v-286h238c9 0 13 -4 13 -13v-18
c0 -8 -4 -12 -13 -12h-238v-295zM423 635l-246 -409h246v409z" />
    <glyph glyph-name="AEacute" unicode="&#x1fc;" horiz-adv-x="817" 
d="M490 788l170 107c9 5 17 4 22 -2l9 -11c7 -7 6 -12 -2 -15l-177 -102c-7 -3 -13 -2 -16 1l-7 8c-5 5 -4 10 1 14zM468 43h296c8 0 12 -4 12 -12v-18c0 -9 -4 -13 -12 -13h-329c-8 0 -12 4 -12 13v174h-270l-106 -176c-5 -7 -12 -11 -22 -11h-20c-9 0 -12 4 -9 12l418 686
c5 8 10 12 17 12h319c8 0 12 -4 12 -13v-18c0 -8 -4 -12 -12 -12h-282v-286h238c9 0 13 -4 13 -13v-18c0 -8 -4 -12 -13 -12h-238v-295zM423 635l-246 -409h246v409z" />
    <glyph glyph-name="B" unicode="B" horiz-adv-x="640" 
d="M95 710h284c60 0 106 -15 139 -46s49 -75 49 -133c0 -85 -35 -139 -104 -164v-2c85 -19 128 -77 128 -176c0 -60 -18 -107 -54 -140c-35 -33 -83 -49 -145 -49h-297c-9 0 -13 4 -13 13v684c0 9 4 13 13 13zM520 526c0 94 -49 141 -146 141h-246v-284h246
c97 0 146 48 146 143zM543 193c0 99 -51 148 -153 148h-262v-298h262c102 0 153 50 153 150z" />
    <glyph glyph-name="C" unicode="C" horiz-adv-x="634" 
d="M61 233v245c0 77 23 137 68 180c47 44 114 66 201 66c141 0 228 -58 263 -174c2 -7 -1 -13 -9 -17l-18 -6c-9 -2 -14 1 -17 8c-15 51 -39 87 -72 110c-35 24 -84 36 -147 36c-73 0 -128 -18 -167 -54c-37 -35 -56 -84 -56 -148v-247c0 -63 19 -113 57 -148
c39 -37 95 -55 166 -55c65 0 115 13 150 38c31 23 55 61 71 113c3 8 9 11 17 8l19 -7c8 -3 11 -8 8 -16c-35 -119 -124 -179 -265 -179c-86 0 -153 22 -200 66c-46 43 -69 104 -69 181z" />
    <glyph glyph-name="Cacute" unicode="&#x106;" horiz-adv-x="634" 
d="M232 788l169 107c10 5 18 4 23 -2l9 -11c6 -7 5 -12 -2 -15l-178 -102c-7 -3 -13 -2 -16 1l-6 8c-5 6 -5 11 1 14zM61 233v245c0 77 23 137 68 180c47 44 114 66 201 66c141 0 228 -58 263 -174c2 -7 -1 -13 -9 -17l-18 -6c-9 -2 -14 1 -17 8c-15 51 -39 87 -72 110
c-35 24 -84 36 -147 36c-73 0 -128 -18 -167 -54c-37 -35 -56 -84 -56 -148v-247c0 -63 19 -113 57 -148c39 -37 95 -55 166 -55c65 0 115 13 150 38c31 23 55 61 71 113c3 8 9 11 17 8l19 -7c8 -3 11 -8 8 -16c-35 -119 -124 -179 -265 -179c-86 0 -153 22 -200 66
c-46 43 -69 104 -69 181z" />
    <glyph glyph-name="Ccaron" unicode="&#x10c;" horiz-adv-x="634" 
d="M465 898h19c11 0 12 -4 5 -11l-132 -111c-8 -8 -16 -12 -23 -12h-6c-8 0 -16 4 -24 12l-133 111c-7 7 -5 11 6 11h18c8 0 14 -2 19 -7l116 -95l115 95c5 5 11 7 20 7zM61 233v245c0 77 23 137 68 180c47 44 114 66 201 66c141 0 228 -58 263 -174c2 -7 -1 -13 -9 -17
l-18 -6c-9 -2 -14 1 -17 8c-15 51 -39 87 -72 110c-35 24 -84 36 -147 36c-73 0 -128 -18 -167 -54c-37 -35 -56 -84 -56 -148v-247c0 -63 19 -113 57 -148c39 -37 95 -55 166 -55c65 0 115 13 150 38c31 23 55 61 71 113c3 8 9 11 17 8l19 -7c8 -3 11 -8 8 -16
c-35 -119 -124 -179 -265 -179c-86 0 -153 22 -200 66c-46 43 -69 104 -69 181z" />
    <glyph glyph-name="Ccedilla" unicode="&#xc7;" horiz-adv-x="634" 
d="M568 188l19 -7c8 -3 11 -8 8 -16c-17 -59 -45 -102 -83 -131c-42 -31 -101 -47 -177 -48l-25 -68c8 3 19 4 32 4c27 0 49 -7 64 -20c15 -14 23 -32 22 -55c-2 -62 -39 -93 -112 -93c-32 0 -60 7 -83 22c-6 3 -9 9 -9 16l-1 13c0 7 3 8 8 4c23 -17 50 -26 81 -26
c53 0 79 22 79 66c0 33 -23 49 -69 49c-13 0 -26 -2 -37 -6c-10 -2 -13 3 -9 14l31 80c-79 4 -140 28 -183 72c-42 43 -63 101 -63 175v245c0 77 23 137 68 180c47 44 114 66 201 66c141 0 228 -58 263 -174c2 -7 -1 -13 -9 -17l-18 -6c-9 -2 -14 1 -17 8
c-15 51 -39 87 -72 110c-35 24 -84 36 -147 36c-73 0 -128 -18 -167 -54c-37 -35 -56 -84 -56 -148v-247c0 -63 19 -113 57 -148c39 -37 95 -55 166 -55c65 0 115 13 150 38c31 23 55 61 71 113c3 8 9 11 17 8z" />
    <glyph glyph-name="Ccircumflex" unicode="&#x108;" horiz-adv-x="634" 
d="M329 897h6c8 0 16 -4 23 -11l133 -112c7 -7 5 -10 -6 -10h-19c-9 0 -15 2 -20 7l-115 95l-116 -95c-5 -5 -11 -7 -19 -7h-18c-11 0 -13 3 -6 10l133 112c7 7 15 11 24 11zM61 233v245c0 77 23 137 68 180c47 44 114 66 201 66c141 0 228 -58 263 -174c2 -7 -1 -13 -9 -17
l-18 -6c-9 -2 -14 1 -17 8c-15 51 -39 87 -72 110c-35 24 -84 36 -147 36c-73 0 -128 -18 -167 -54c-37 -35 -56 -84 -56 -148v-247c0 -63 19 -113 57 -148c39 -37 95 -55 166 -55c65 0 115 13 150 38c31 23 55 61 71 113c3 8 9 11 17 8l19 -7c8 -3 11 -8 8 -16
c-35 -119 -124 -179 -265 -179c-86 0 -153 22 -200 66c-46 43 -69 104 -69 181z" />
    <glyph glyph-name="Cdotaccent" unicode="&#x10a;" horiz-adv-x="634" 
d="M329 849h5c15 0 23 -8 23 -24v-5c0 -15 -8 -23 -23 -23h-5c-16 0 -24 8 -24 23v5c0 16 8 24 24 24zM61 233v245c0 77 23 137 68 180c47 44 114 66 201 66c141 0 228 -58 263 -174c2 -7 -1 -13 -9 -17l-18 -6c-9 -2 -14 1 -17 8c-15 51 -39 87 -72 110
c-35 24 -84 36 -147 36c-73 0 -128 -18 -167 -54c-37 -35 -56 -84 -56 -148v-247c0 -63 19 -113 57 -148c39 -37 95 -55 166 -55c65 0 115 13 150 38c31 23 55 61 71 113c3 8 9 11 17 8l19 -7c8 -3 11 -8 8 -16c-35 -119 -124 -179 -265 -179c-86 0 -153 22 -200 66
c-46 43 -69 104 -69 181z" />
    <glyph glyph-name="D" unicode="D" horiz-adv-x="646" 
d="M95 710h204c92 0 164 -24 215 -71c50 -47 75 -111 75 -193v-182c0 -82 -25 -146 -75 -193c-51 -47 -123 -71 -215 -71h-204c-9 0 -13 4 -13 13v684c0 9 4 13 13 13zM543 264v182c0 70 -21 124 -63 163s-102 58 -180 58h-172v-624h172c77 0 137 19 180 58
c42 39 63 93 63 163z" />
    <glyph glyph-name="Eth" unicode="&#xd0;" horiz-adv-x="655" 
d="M104 710h205c92 0 164 -24 215 -71c50 -47 75 -111 75 -193v-182c0 -82 -25 -146 -75 -193c-51 -47 -123 -71 -215 -71h-205c-9 0 -13 4 -13 13v328h-80c-7 0 -10 3 -10 10v13c0 7 3 10 10 10h80v323c0 9 4 13 13 13zM553 264v182c0 70 -21 124 -63 163
c-43 39 -103 58 -181 58h-171v-293h191c7 0 10 -3 10 -10v-13c0 -7 -3 -10 -10 -10h-191v-298h171c78 0 138 19 181 58c42 39 63 93 63 163z" />
    <glyph glyph-name="Dcaron" unicode="&#x10e;" horiz-adv-x="646" 
d="M442 898h19c11 0 12 -4 5 -11l-132 -111c-8 -8 -16 -12 -23 -12h-6c-8 0 -16 4 -24 12l-132 111c-3 2 -4 4 -3 7c0 3 3 4 8 4h18c8 0 14 -2 19 -7l116 -95l115 95c5 5 11 7 20 7zM95 710h204c92 0 164 -24 215 -71c50 -47 75 -111 75 -193v-182c0 -82 -25 -146 -75 -193
c-51 -47 -123 -71 -215 -71h-204c-9 0 -13 4 -13 13v684c0 9 4 13 13 13zM543 264v182c0 70 -21 124 -63 163s-102 58 -180 58h-172v-624h172c77 0 137 19 180 58c42 39 63 93 63 163z" />
    <glyph glyph-name="Dcroat" unicode="&#x110;" horiz-adv-x="655" 
d="M104 710h205c92 0 164 -24 215 -71c50 -47 75 -111 75 -193v-182c0 -82 -25 -146 -75 -193c-51 -47 -123 -71 -215 -71h-205c-9 0 -13 4 -13 13v328h-80c-7 0 -10 3 -10 10v13c0 7 3 10 10 10h80v323c0 9 4 13 13 13zM553 264v182c0 70 -21 124 -63 163
c-43 39 -103 58 -181 58h-171v-293h191c7 0 10 -3 10 -10v-13c0 -7 -3 -10 -10 -10h-191v-298h171c78 0 138 19 181 58c42 39 63 93 63 163z" />
    <glyph glyph-name="E" unicode="E" horiz-adv-x="570" 
d="M95 710h408c9 0 13 -4 13 -13v-18c0 -8 -4 -12 -13 -12h-375v-286h332c8 0 12 -4 12 -12v-18c0 -9 -4 -13 -12 -13h-332v-295h389c9 0 13 -4 13 -12v-18c0 -9 -4 -13 -13 -13h-422c-9 0 -13 4 -13 13v684c0 9 4 13 13 13z" />
    <glyph glyph-name="Eacute" unicode="&#xc9;" horiz-adv-x="570" 
d="M200 788l169 107c10 5 18 4 23 -2l9 -11c6 -7 5 -12 -2 -15l-177 -102c-8 -3 -13 -2 -16 1l-7 8c-5 6 -5 11 1 14zM95 710h408c9 0 13 -4 13 -13v-18c0 -8 -4 -12 -13 -12h-375v-286h332c8 0 12 -4 12 -12v-18c0 -9 -4 -13 -12 -13h-332v-295h389c9 0 13 -4 13 -12v-18
c0 -9 -4 -13 -13 -13h-422c-9 0 -13 4 -13 13v684c0 9 4 13 13 13z" />
    <glyph glyph-name="Ebreve" unicode="&#x114;" horiz-adv-x="570" 
d="M450 876c-21 -75 -72 -112 -151 -112s-128 37 -149 112c-2 5 0 9 5 11l16 6c6 2 10 0 13 -5c15 -60 54 -90 115 -90c62 0 101 30 116 90c3 5 6 6 11 5l18 -6c6 -2 8 -6 6 -11zM95 710h408c9 0 13 -4 13 -13v-18c0 -8 -4 -12 -13 -12h-375v-286h332c8 0 12 -4 12 -12v-18
c0 -9 -4 -13 -12 -13h-332v-295h389c9 0 13 -4 13 -12v-18c0 -9 -4 -13 -13 -13h-422c-9 0 -13 4 -13 13v684c0 9 4 13 13 13z" />
    <glyph glyph-name="Ecaron" unicode="&#x11a;" horiz-adv-x="570" 
d="M433 898h19c11 0 12 -4 5 -11l-132 -111c-8 -8 -16 -12 -23 -12h-6c-8 0 -16 4 -24 12l-132 111c-3 2 -4 4 -3 7c0 3 3 4 8 4h18c8 0 14 -2 19 -7l116 -95l115 95c5 5 11 7 20 7zM95 710h408c9 0 13 -4 13 -13v-18c0 -8 -4 -12 -13 -12h-375v-286h332c8 0 12 -4 12 -12
v-18c0 -9 -4 -13 -12 -13h-332v-295h389c9 0 13 -4 13 -12v-18c0 -9 -4 -13 -13 -13h-422c-9 0 -13 4 -13 13v684c0 9 4 13 13 13z" />
    <glyph glyph-name="Ecircumflex" unicode="&#xca;" horiz-adv-x="570" 
d="M297 897h6c8 0 16 -4 23 -11l133 -112c7 -7 5 -10 -6 -10h-19c-9 0 -15 2 -20 7l-115 95l-116 -95c-5 -5 -11 -7 -19 -7h-18c-11 0 -13 3 -6 10l133 112c7 7 15 11 24 11zM95 710h408c9 0 13 -4 13 -13v-18c0 -8 -4 -12 -13 -12h-375v-286h332c8 0 12 -4 12 -12v-18
c0 -9 -4 -13 -12 -13h-332v-295h389c9 0 13 -4 13 -12v-18c0 -9 -4 -13 -13 -13h-422c-9 0 -13 4 -13 13v684c0 9 4 13 13 13z" />
    <glyph glyph-name="Edieresis" unicode="&#xcb;" horiz-adv-x="570" 
d="M201 853h6c15 0 23 -8 23 -23v-7c0 -15 -8 -22 -23 -22h-6c-15 0 -23 7 -23 22v7c0 15 8 23 23 23zM392 853h6c15 0 23 -8 23 -23v-7c0 -15 -8 -22 -23 -22h-6c-16 0 -24 7 -24 22v7c0 15 8 23 24 23zM95 710h408c9 0 13 -4 13 -13v-18c0 -8 -4 -12 -13 -12h-375v-286
h332c8 0 12 -4 12 -12v-18c0 -9 -4 -13 -12 -13h-332v-295h389c9 0 13 -4 13 -12v-18c0 -9 -4 -13 -13 -13h-422c-9 0 -13 4 -13 13v684c0 9 4 13 13 13z" />
    <glyph glyph-name="Edotaccent" unicode="&#x116;" horiz-adv-x="570" 
d="M297 849h5c15 0 23 -8 23 -24v-5c0 -15 -8 -23 -23 -23h-5c-16 0 -24 8 -24 23v5c0 16 8 24 24 24zM95 710h408c9 0 13 -4 13 -13v-18c0 -8 -4 -12 -13 -12h-375v-286h332c8 0 12 -4 12 -12v-18c0 -9 -4 -13 -12 -13h-332v-295h389c9 0 13 -4 13 -12v-18
c0 -9 -4 -13 -13 -13h-422c-9 0 -13 4 -13 13v684c0 9 4 13 13 13z" />
    <glyph glyph-name="Egrave" unicode="&#xc8;" horiz-adv-x="570" 
d="M197 875l9 11c5 6 13 7 22 2l173 -102c5 -4 6 -9 1 -14l-7 -8c-3 -4 -9 -4 -16 -1l-180 98c-8 3 -9 7 -2 14zM95 710h408c9 0 13 -4 13 -13v-18c0 -8 -4 -12 -13 -12h-375v-286h332c8 0 12 -4 12 -12v-18c0 -9 -4 -13 -12 -13h-332v-295h389c9 0 13 -4 13 -12v-18
c0 -9 -4 -13 -13 -13h-422c-9 0 -13 4 -13 13v684c0 9 4 13 13 13z" />
    <glyph glyph-name="Emacron" unicode="&#x112;" horiz-adv-x="570" 
d="M181 839h237c7 0 11 -4 11 -11v-10c0 -8 -4 -12 -11 -12h-237c-7 0 -11 4 -11 12v10c0 7 4 11 11 11zM95 710h408c9 0 13 -4 13 -13v-18c0 -8 -4 -12 -13 -12h-375v-286h332c8 0 12 -4 12 -12v-18c0 -9 -4 -13 -12 -13h-332v-295h389c9 0 13 -4 13 -12v-18
c0 -9 -4 -13 -13 -13h-422c-9 0 -13 4 -13 13v684c0 9 4 13 13 13z" />
    <glyph glyph-name="Eogonek" unicode="&#x118;" horiz-adv-x="570" 
d="M95 710h408c9 0 13 -4 13 -13v-18c0 -8 -4 -12 -13 -12h-375v-286h332c8 0 12 -4 12 -13v-18c0 -8 -4 -12 -12 -12h-332v-295h389c9 0 13 -4 13 -12v-18c0 -3 -1 -7 -4 -11c-94 -74 -132 -135 -114 -183c7 -20 23 -30 46 -30c24 0 44 9 61 27c4 3 7 3 9 -2l5 -14
c2 -4 1 -8 -2 -11c-25 -24 -54 -36 -87 -36c-37 0 -60 16 -70 48c-9 27 -4 58 15 94c20 36 52 71 97 105h-391c-9 0 -13 4 -13 13v684c0 9 4 13 13 13z" />
    <glyph glyph-name="F" unicode="F" horiz-adv-x="551" 
d="M95 710h408c9 0 13 -4 13 -13v-18c0 -8 -4 -12 -13 -12h-375v-296h326c9 0 13 -4 13 -13v-18c0 -8 -4 -12 -13 -12h-326v-315c0 -9 -4 -13 -12 -13h-21c-9 0 -13 4 -13 13v684c0 9 4 13 13 13z" />
    <glyph glyph-name="G" unicode="G" horiz-adv-x="651" 
d="M340 358h246c9 0 13 -5 13 -14v-117c0 -74 -23 -132 -69 -175c-47 -44 -114 -66 -199 -66c-87 0 -154 22 -201 67c-46 43 -69 104 -69 181v244c0 77 23 137 68 180c47 44 114 66 201 66c141 0 228 -58 263 -174c2 -7 -1 -13 -9 -17l-18 -6c-9 -3 -14 0 -17 8
c-15 51 -39 87 -72 110c-35 24 -84 36 -147 36c-73 0 -129 -18 -167 -54c-37 -35 -56 -84 -56 -148v-245c0 -65 19 -115 57 -150c39 -37 95 -55 167 -55c71 0 127 18 166 54c38 35 57 83 57 144v87h-214c-9 0 -13 4 -13 13v18c0 9 4 13 13 13z" />
    <glyph glyph-name="Gbreve" unicode="&#x11e;" horiz-adv-x="651" 
d="M480 886c-21 -75 -71 -112 -150 -112s-129 37 -150 112c-2 5 0 9 6 11l16 6c6 2 10 0 12 -5c17 -60 55 -90 116 -90s99 30 116 90c2 5 6 7 11 5l18 -6c5 -2 7 -6 5 -11zM340 358h246c9 0 13 -5 13 -14v-117c0 -74 -23 -132 -69 -175c-47 -44 -114 -66 -199 -66
c-87 0 -154 22 -201 67c-46 43 -69 104 -69 181v244c0 77 23 137 68 180c47 44 114 66 201 66c141 0 228 -58 263 -174c2 -7 -1 -13 -9 -17l-18 -6c-9 -3 -14 0 -17 8c-15 51 -39 87 -72 110c-35 24 -84 36 -147 36c-73 0 -129 -18 -167 -54c-37 -35 -56 -84 -56 -148v-245
c0 -65 19 -115 57 -150c39 -37 95 -55 167 -55c71 0 127 18 166 54c38 35 57 83 57 144v87h-214c-9 0 -13 4 -13 13v18c0 9 4 13 13 13z" />
    <glyph glyph-name="Gcircumflex" unicode="&#x11c;" horiz-adv-x="651" 
d="M328 907h5c8 0 16 -4 24 -11l132 -112c7 -7 5 -10 -6 -10h-18c-9 0 -16 2 -21 7l-114 95l-116 -95c-5 -5 -12 -7 -19 -7h-18c-11 0 -14 3 -7 10l134 112c7 7 15 11 24 11zM340 358h246c9 0 13 -5 13 -14v-117c0 -74 -23 -132 -69 -175c-47 -44 -114 -66 -199 -66
c-87 0 -154 22 -201 67c-46 43 -69 104 -69 181v244c0 77 23 137 68 180c47 44 114 66 201 66c141 0 228 -58 263 -174c2 -7 -1 -13 -9 -17l-18 -6c-9 -3 -14 0 -17 8c-15 51 -39 87 -72 110c-35 24 -84 36 -147 36c-73 0 -129 -18 -167 -54c-37 -35 -56 -84 -56 -148v-245
c0 -65 19 -115 57 -150c39 -37 95 -55 167 -55c71 0 127 18 166 54c38 35 57 83 57 144v87h-214c-9 0 -13 4 -13 13v18c0 9 4 13 13 13z" />
    <glyph glyph-name="uni0122" unicode="&#x122;" horiz-adv-x="651" 
d="M340 358h246c9 0 13 -5 13 -14v-117c0 -74 -23 -132 -69 -175c-47 -44 -114 -66 -199 -66c-87 0 -154 22 -201 67c-46 43 -69 104 -69 181v244c0 77 23 137 68 180c47 44 114 66 201 66c141 0 228 -58 263 -174c2 -7 -1 -13 -9 -17l-18 -6c-9 -3 -14 0 -17 8
c-15 51 -39 87 -72 110c-35 24 -84 36 -147 36c-73 0 -129 -18 -167 -54c-37 -35 -56 -84 -56 -148v-245c0 -65 19 -115 57 -150c39 -37 95 -55 167 -55c71 0 127 18 166 54c38 35 57 83 57 144v87h-214c-9 0 -13 4 -13 13v18c0 9 4 13 13 13zM373 -91l-48 -143
c-3 -7 -7 -11 -14 -11h-14c-6 0 -9 3 -8 9l39 146c1 8 6 12 15 12h19c10 0 14 -4 11 -13z" />
    <glyph glyph-name="Gdotaccent" unicode="&#x120;" horiz-adv-x="651" 
d="M328 859h4c16 0 24 -8 24 -24v-5c0 -15 -8 -23 -24 -23h-4c-16 0 -24 8 -24 23v5c0 16 8 24 24 24zM340 358h246c9 0 13 -5 13 -14v-117c0 -74 -23 -132 -69 -175c-47 -44 -114 -66 -199 -66c-87 0 -154 22 -201 67c-46 43 -69 104 -69 181v244c0 77 23 137 68 180
c47 44 114 66 201 66c141 0 228 -58 263 -174c2 -7 -1 -13 -9 -17l-18 -6c-9 -3 -14 0 -17 8c-15 51 -39 87 -72 110c-35 24 -84 36 -147 36c-73 0 -129 -18 -167 -54c-37 -35 -56 -84 -56 -148v-245c0 -65 19 -115 57 -150c39 -37 95 -55 167 -55c71 0 127 18 166 54
c38 35 57 83 57 144v87h-214c-9 0 -13 4 -13 13v18c0 9 4 13 13 13z" />
    <glyph glyph-name="H" unicode="H" horiz-adv-x="679" 
d="M563 710h21c9 0 13 -4 13 -13v-684c0 -9 -4 -13 -13 -13h-21c-8 0 -12 4 -12 13v325h-423v-325c0 -9 -4 -13 -12 -13h-21c-9 0 -13 4 -13 13v684c0 9 4 13 13 13h21c8 0 12 -4 12 -13v-316h423v316c0 9 4 13 12 13z" />
    <glyph glyph-name="Hbar" unicode="&#x126;" horiz-adv-x="685" 
d="M600 584h68c6 0 9 -3 9 -10v-10c0 -7 -3 -11 -9 -11h-68v-540c0 -9 -4 -13 -13 -13h-21c-8 0 -12 4 -12 13v325h-423v-325c0 -9 -4 -13 -12 -13h-21c-9 0 -13 4 -13 13v540h-67c-6 0 -9 4 -9 11v10c0 7 3 10 9 10h67v113c0 9 4 13 13 13h21c8 0 12 -4 12 -13v-113h423
v113c0 9 4 13 12 13h21c9 0 13 -4 13 -13v-113zM131 553v-172h423v172h-423z" />
    <glyph glyph-name="Hcircumflex" unicode="&#x124;" horiz-adv-x="679" 
d="M337 897h6c8 0 16 -4 23 -11l133 -112c7 -7 5 -10 -6 -10h-19c-9 0 -15 2 -20 7l-115 95l-116 -95c-5 -5 -11 -7 -19 -7h-18c-11 0 -13 3 -6 10l133 112c7 7 15 11 24 11zM563 710h21c9 0 13 -4 13 -13v-684c0 -9 -4 -13 -13 -13h-21c-8 0 -12 4 -12 13v325h-423v-325
c0 -9 -4 -13 -12 -13h-21c-9 0 -13 4 -13 13v684c0 9 4 13 13 13h21c8 0 12 -4 12 -13v-316h423v316c0 9 4 13 12 13z" />
    <glyph glyph-name="I" unicode="I" horiz-adv-x="210" 
d="M82 13v684c0 9 4 13 13 13h21c8 0 12 -4 12 -13v-684c0 -9 -4 -13 -12 -13h-21c-9 0 -13 4 -13 13z" />
    <glyph glyph-name="IJ" unicode="&#x132;" horiz-adv-x="780" 
d="M82 13v684c0 9 4 13 13 13h21c8 0 12 -4 12 -13v-684c0 -9 -4 -13 -12 -13h-21c-9 0 -13 4 -13 13zM669 710h22c8 0 12 -4 12 -12v-481c0 -72 -20 -128 -61 -169c-41 -42 -100 -63 -175 -63c-129 0 -207 66 -232 197c-3 9 0 14 8 17l20 7c8 3 13 0 16 -8
c21 -113 83 -169 188 -169c61 0 109 17 142 50c32 33 48 79 48 138v481c0 8 4 12 12 12z" />
    <glyph glyph-name="Iacute" unicode="&#xcd;" horiz-adv-x="210" 
d="M4 788l170 107c9 5 17 4 22 -2l10 -11c5 -7 5 -12 -2 -15l-178 -102c-7 -3 -13 -2 -16 1l-7 8c-5 5 -4 10 1 14zM81 13v684c0 9 4 13 13 13h21c8 0 12 -4 12 -13v-684c0 -9 -4 -13 -12 -13h-21c-9 0 -13 4 -13 13z" />
    <glyph glyph-name="Ibreve" unicode="&#x12c;" horiz-adv-x="210" 
d="M255 876c-21 -75 -71 -112 -150 -112s-129 37 -150 112c-2 5 0 9 6 11l16 6c6 2 10 0 12 -5c17 -60 55 -90 116 -90s99 30 116 90c2 5 6 7 11 5l18 -6c5 -2 7 -6 5 -11zM82 13v684c0 9 4 13 13 13h21c8 0 12 -4 12 -13v-684c0 -9 -4 -13 -12 -13h-21c-9 0 -13 4 -13 13z
" />
    <glyph glyph-name="Icircumflex" unicode="&#xce;" horiz-adv-x="210" 
d="M104 897h5c8 0 16 -4 24 -11l132 -112c7 -7 5 -10 -6 -10h-18c-9 0 -16 2 -21 7l-114 95l-116 -95c-5 -5 -12 -7 -19 -7h-18c-11 0 -14 3 -7 10l134 112c7 7 15 11 24 11zM83 13v684c0 9 4 13 13 13h21c8 0 12 -4 12 -13v-684c0 -9 -4 -13 -12 -13h-21c-9 0 -13 4 -13 13
z" />
    <glyph glyph-name="Idieresis" unicode="&#xcf;" horiz-adv-x="210" 
d="M6 853h6c15 0 23 -8 23 -23v-7c0 -15 -8 -22 -23 -22h-6c-15 0 -23 7 -23 22v7c0 15 8 23 23 23zM198 853h5c15 0 23 -8 23 -23v-7c0 -15 -8 -22 -23 -22h-5c-16 0 -24 7 -24 22v7c0 15 8 23 24 23zM82 13v684c0 9 4 13 13 13h21c8 0 12 -4 12 -13v-684
c0 -9 -4 -13 -12 -13h-21c-9 0 -13 4 -13 13z" />
    <glyph glyph-name="Idotaccent" unicode="&#x130;" horiz-adv-x="210" 
d="M103 849h4c16 0 24 -8 24 -24v-5c0 -15 -8 -23 -24 -23h-4c-16 0 -24 8 -24 23v5c0 16 8 24 24 24zM82 13v684c0 9 4 13 13 13h21c8 0 12 -4 12 -13v-684c0 -9 -4 -13 -12 -13h-21c-9 0 -13 4 -13 13z" />
    <glyph glyph-name="Igrave" unicode="&#xcc;" horiz-adv-x="210" 
d="M2 875l9 11c5 6 13 7 23 2l172 -102c6 -3 6 -8 1 -14l-7 -8c-3 -4 -8 -4 -16 -1l-180 98c-7 3 -8 7 -2 14zM82 13v684c0 9 4 13 12 13h21c9 0 13 -4 13 -13v-684c0 -9 -4 -13 -13 -13h-21c-8 0 -12 4 -12 13z" />
    <glyph glyph-name="Imacron" unicode="&#x12a;" horiz-adv-x="210" 
d="M-14 839h238c7 0 11 -4 11 -11v-10c0 -8 -4 -12 -11 -12h-238c-7 0 -11 4 -11 12v10c0 7 4 11 11 11zM82 13v684c0 9 4 13 13 13h21c8 0 12 -4 12 -13v-684c0 -9 -4 -13 -12 -13h-21c-9 0 -13 4 -13 13z" />
    <glyph glyph-name="Iogonek" unicode="&#x12e;" horiz-adv-x="210" 
d="M181 -187l6 -14c1 -4 1 -7 -2 -10c-24 -24 -53 -36 -87 -36c-39 0 -62 16 -71 47c-18 49 4 116 65 201c-7 0 -11 4 -11 12v684c0 9 4 13 13 13h21c8 0 12 -4 12 -13v-684c0 -5 -1 -9 -3 -11c-56 -79 -76 -140 -59 -183c7 -21 22 -31 45 -31c24 0 45 9 63 27c5 3 7 3 8 -2
z" />
    <glyph glyph-name="Itilde" unicode="&#x128;" horiz-adv-x="210" 
d="M236 875h13c5 0 8 -3 8 -8c0 -63 -25 -94 -74 -94c-25 0 -52 12 -82 36c-31 24 -55 36 -74 36c-32 0 -48 -21 -48 -64c0 -5 -3 -8 -8 -8h-14c-5 0 -8 3 -8 8c0 63 25 94 75 94c25 0 53 -12 84 -36c30 -24 54 -36 72 -36c32 0 48 21 48 64c0 5 3 8 8 8zM82 13v684
c0 9 4 13 13 13h21c8 0 12 -4 12 -13v-684c0 -9 -4 -13 -12 -13h-21c-9 0 -13 4 -13 13z" />
    <glyph glyph-name="J" unicode="J" horiz-adv-x="567" 
d="M455 710h22c8 0 12 -4 12 -12v-481c0 -72 -20 -128 -61 -169c-41 -42 -100 -63 -175 -63c-129 0 -207 66 -232 197c-3 9 0 14 8 17l20 7c8 3 13 0 16 -8c21 -113 83 -169 188 -169c61 0 109 17 142 50c32 33 48 79 48 138v481c0 8 4 12 12 12z" />
    <glyph glyph-name="Jcircumflex" unicode="&#x134;" horiz-adv-x="567" 
d="M463 897h6c8 0 16 -4 24 -11l132 -112c7 -7 5 -10 -6 -10h-18c-9 0 -16 2 -21 7l-114 95l-116 -95c-5 -5 -12 -7 -20 -7h-18c-11 0 -13 3 -6 10l133 112c8 7 16 11 24 11zM455 710h22c8 0 12 -4 12 -12v-481c0 -72 -20 -128 -61 -169c-41 -42 -100 -63 -175 -63
c-129 0 -207 66 -232 197c-3 9 0 14 8 17l20 7c8 3 13 0 16 -8c21 -113 83 -169 188 -169c61 0 109 17 142 50c32 33 48 79 48 138v481c0 8 4 12 12 12z" />
    <glyph glyph-name="K" unicode="K" horiz-adv-x="600" 
d="M453 262l126 -249c5 -9 2 -13 -7 -13h-20c-13 0 -21 4 -25 11l-117 233c-31 63 -83 95 -155 95h-127v-326c0 -9 -4 -13 -12 -13h-21c-9 0 -13 4 -13 13v684c0 9 4 13 13 13h21c8 0 12 -4 12 -13v-316h124c12 0 20 0 25 -1l236 319c6 7 15 11 26 11h23c10 0 12 -4 6 -13
l-243 -325c54 -13 97 -49 128 -110z" />
    <glyph glyph-name="uni0136" unicode="&#x136;" horiz-adv-x="600" 
d="M453 262l126 -249c5 -9 2 -13 -7 -13h-20c-13 0 -21 4 -25 11l-117 233c-31 63 -83 95 -155 95h-127v-326c0 -9 -4 -13 -12 -13h-21c-9 0 -13 4 -13 13v684c0 9 4 13 13 13h21c8 0 12 -4 12 -13v-316h124c12 0 20 0 25 -1l236 319c6 7 15 11 26 11h23c10 0 12 -4 6 -13
l-243 -325c54 -13 97 -49 128 -110zM353 -91l-48 -143c-1 -7 -6 -11 -14 -11h-14c-6 0 -9 3 -8 9l39 146c1 8 6 12 15 12h19c10 0 14 -4 11 -13z" />
    <glyph glyph-name="L" unicode="L" horiz-adv-x="518" 
d="M95 710h21c8 0 12 -4 12 -13v-654h364c8 0 12 -4 12 -12v-18c0 -9 -4 -13 -12 -13h-397c-9 0 -13 4 -13 13v684c0 9 4 13 13 13z" />
    <glyph glyph-name="Lacute" unicode="&#x139;" horiz-adv-x="518" 
d="M5 788l169 107c10 5 18 4 23 -2l9 -11c7 -7 6 -12 -2 -15l-177 -102c-7 -3 -13 -2 -16 1l-7 8c-5 5 -4 10 1 14zM94 710h21c8 0 12 -4 12 -13v-654h364c8 0 12 -4 12 -12v-18c0 -9 -4 -13 -12 -13h-397c-9 0 -13 4 -13 13v684c0 9 4 13 13 13z" />
    <glyph glyph-name="Lcaron" unicode="&#x13d;" horiz-adv-x="518" 
d="M95 710h21c8 0 12 -4 12 -13v-654h364c8 0 12 -4 12 -12v-18c0 -9 -4 -13 -12 -13h-397c-9 0 -13 4 -13 13v684c0 9 4 13 13 13zM409 697l-50 -197c-2 -8 -7 -12 -14 -12h-11c-7 0 -9 3 -8 10l40 200c1 8 5 12 14 12h18c10 0 14 -4 11 -13z" />
    <glyph glyph-name="uni013B" unicode="&#x13b;" horiz-adv-x="518" 
d="M95 710h21c8 0 12 -4 12 -13v-654h364c8 0 12 -4 12 -12v-18c0 -9 -4 -13 -12 -13h-397c-9 0 -13 4 -13 13v684c0 9 4 13 13 13zM319 -91l-48 -143c-1 -7 -6 -11 -14 -11h-13c-7 0 -10 3 -9 9l40 146c1 8 5 12 14 12h19c10 0 14 -4 11 -13z" />
    <glyph glyph-name="Ldot" unicode="&#x13f;" horiz-adv-x="518" 
d="M95 710h21c8 0 12 -4 12 -13v-654h364c8 0 12 -4 12 -12v-18c0 -9 -4 -13 -12 -13h-397c-9 0 -13 4 -13 13v684c0 9 4 13 13 13zM336 383h5c18 0 27 -9 27 -27v-5c0 -19 -9 -28 -27 -28h-5c-19 0 -28 9 -28 28v5c0 18 9 27 28 27z" />
    <glyph glyph-name="Lslash" unicode="&#x141;" horiz-adv-x="544" 
d="M154 43h364c8 0 12 -4 12 -12v-18c0 -9 -4 -13 -12 -13h-398c-8 0 -12 4 -12 13v285l-90 -44c-7 -3 -11 -1 -13 5l-7 14c-4 6 -3 10 3 13l107 52v359c0 9 4 13 12 13h21c9 0 13 -4 13 -13v-338l235 114c7 3 12 2 15 -4l7 -14c3 -6 1 -10 -5 -13l-252 -122v-277z" />
    <glyph glyph-name="M" unicode="M" horiz-adv-x="795" 
d="M682 710h19c8 0 12 -4 12 -13v-684c0 -9 -4 -13 -12 -13h-20c-8 0 -12 4 -12 13v459c0 56 2 112 7 167h-2c-25 -51 -50 -98 -75 -143l-178 -316c-3 -7 -9 -10 -16 -10h-13c-9 0 -14 3 -17 10l-181 320c-24 41 -48 87 -72 139h-2c4 -59 6 -114 6 -167v-459
c0 -9 -4 -13 -13 -13h-18c-9 0 -13 4 -13 13v684c0 9 4 13 13 13h16c8 0 14 -4 19 -11l268 -473l266 472c5 8 11 12 18 12z" />
    <glyph glyph-name="N" unicode="N" horiz-adv-x="688" 
d="M574 710h20c8 0 12 -4 12 -13v-684c0 -9 -4 -13 -12 -13h-21c-6 0 -11 3 -14 8l-355 506c-12 17 -27 41 -45 72c-17 30 -29 49 -36 58h-2c0 -11 1 -35 3 -73s3 -69 3 -92v-466c0 -9 -4 -13 -12 -13h-20c-9 0 -13 4 -13 13v684c0 9 4 13 13 13h20c6 0 11 -2 14 -7
l345 -493c13 -19 30 -45 51 -79c20 -33 34 -54 41 -64h2c0 13 -1 40 -3 81c-3 41 -4 74 -4 99v451c0 8 4 12 13 12z" />
    <glyph glyph-name="Nacute" unicode="&#x143;" horiz-adv-x="688" 
d="M245 788l169 107c10 5 18 4 23 -2l9 -11c7 -7 6 -12 -2 -15l-177 -102c-7 -3 -13 -2 -16 1l-7 8c-5 5 -4 10 1 14zM574 710h20c8 0 12 -4 12 -13v-684c0 -9 -4 -13 -12 -13h-21c-6 0 -11 3 -14 8l-355 506c-12 17 -27 41 -45 72c-17 30 -29 49 -36 58h-2
c0 -11 1 -35 3 -73s3 -69 3 -92v-466c0 -9 -4 -13 -12 -13h-20c-9 0 -13 4 -13 13v684c0 9 4 13 13 13h20c6 0 11 -2 14 -7l345 -493c13 -19 30 -45 51 -79c20 -33 34 -54 41 -64h2c0 13 -1 40 -3 81c-3 41 -4 74 -4 99v451c0 8 4 12 13 12z" />
    <glyph glyph-name="Ncaron" unicode="&#x147;" horiz-adv-x="688" 
d="M479 898h18c10 0 12 -4 6 -11l-132 -111c-9 -8 -17 -12 -24 -12h-6c-7 0 -15 4 -23 12l-133 111c-3 2 -4 4 -3 7c0 3 3 4 8 4h19c7 0 14 -2 19 -7l116 -95l114 95c5 5 12 7 21 7zM574 710h20c8 0 12 -4 12 -13v-684c0 -9 -4 -13 -12 -13h-21c-6 0 -11 3 -14 8l-355 506
c-12 17 -27 41 -45 72c-17 30 -29 49 -36 58h-2c0 -11 1 -35 3 -73s3 -69 3 -92v-466c0 -9 -4 -13 -12 -13h-20c-9 0 -13 4 -13 13v684c0 9 4 13 13 13h20c6 0 11 -2 14 -7l345 -493c13 -19 30 -45 51 -79c20 -33 34 -54 41 -64h2c0 13 -1 40 -3 81c-3 41 -4 74 -4 99v451
c0 8 4 12 13 12z" />
    <glyph glyph-name="uni0145" unicode="&#x145;" horiz-adv-x="688" 
d="M574 710h20c8 0 12 -4 12 -13v-684c0 -9 -4 -13 -12 -13h-21c-6 0 -11 3 -14 8l-355 506c-12 17 -27 41 -45 72c-17 30 -29 49 -36 58h-2c0 -11 1 -35 3 -73s3 -69 3 -92v-466c0 -9 -4 -13 -12 -13h-20c-9 0 -13 4 -13 13v684c0 9 4 13 13 13h20c6 0 11 -2 14 -7
l345 -493c13 -19 30 -45 51 -79c20 -33 34 -54 41 -64h2c0 13 -1 40 -3 81c-3 41 -4 74 -4 99v451c0 8 4 12 13 12zM372 -91l-47 -143c-3 -7 -7 -11 -14 -11h-14c-6 0 -9 3 -8 9l39 146c1 8 6 12 15 12h18c10 0 14 -4 11 -13z" />
    <glyph glyph-name="Eng" unicode="&#x14a;" horiz-adv-x="688" 
d="M574 710h20c8 0 12 -4 12 -13v-710c0 -69 -19 -122 -57 -159c-39 -39 -94 -58 -165 -58c-7 0 -11 4 -11 12v17c0 7 4 11 11 11c57 0 101 16 132 48c30 31 45 75 45 131v16l-357 509c-12 17 -27 41 -45 72c-17 30 -29 49 -36 58h-2c0 -9 1 -30 3 -64s3 -62 3 -83v-484
c0 -9 -4 -13 -12 -13h-20c-9 0 -13 4 -13 13v684c0 9 4 13 13 13h20c6 0 11 -2 14 -7l345 -493c13 -19 30 -45 51 -79c20 -33 34 -54 41 -64h2c0 13 -1 40 -3 81c-3 41 -4 74 -4 99v451c0 8 4 12 13 12z" />
    <glyph glyph-name="Ntilde" unicode="&#xd1;" horiz-adv-x="688" 
d="M476 875h13c5 0 8 -3 8 -8c0 -63 -25 -94 -75 -94c-24 0 -51 12 -82 36c-30 24 -54 36 -73 36c-32 0 -48 -21 -48 -64c0 -5 -3 -8 -8 -8h-14c-5 0 -8 3 -8 8c0 63 25 94 75 94c25 0 53 -12 83 -36c31 -24 55 -36 73 -36c32 0 48 21 48 64c0 5 3 8 8 8zM574 710h20
c8 0 12 -4 12 -13v-684c0 -9 -4 -13 -12 -13h-21c-6 0 -11 3 -14 8l-355 506c-12 17 -27 41 -45 72c-17 30 -29 49 -36 58h-2c0 -11 1 -35 3 -73s3 -69 3 -92v-466c0 -9 -4 -13 -12 -13h-20c-9 0 -13 4 -13 13v684c0 9 4 13 13 13h20c6 0 11 -2 14 -7l345 -493
c13 -19 30 -45 51 -79c20 -33 34 -54 41 -64h2c0 13 -1 40 -3 81c-3 41 -4 74 -4 99v451c0 8 4 12 13 12z" />
    <glyph glyph-name="O" unicode="O" 
d="M61 233v244c0 77 23 138 69 181c47 44 114 66 201 66c86 0 152 -22 199 -66c46 -43 69 -104 69 -181v-244c0 -77 -23 -138 -69 -181c-47 -44 -113 -66 -199 -66c-87 0 -154 22 -201 66c-46 43 -69 104 -69 181zM553 233v244c0 65 -19 115 -57 150c-39 36 -94 54 -165 54
c-73 0 -128 -18 -167 -54c-38 -35 -57 -85 -57 -150v-244c0 -65 19 -115 57 -150c39 -36 94 -54 167 -54c71 0 126 18 165 54c38 35 57 85 57 150z" />
    <glyph glyph-name="Oacute" unicode="&#xd3;" 
d="M231 798l169 107c10 5 18 4 23 -2l9 -11c7 -7 6 -12 -2 -15l-177 -102c-7 -3 -13 -2 -16 1l-7 8c-5 5 -4 10 1 14zM61 233v244c0 77 23 138 69 181c47 44 114 66 201 66c86 0 152 -22 199 -66c46 -43 69 -104 69 -181v-244c0 -77 -23 -138 -69 -181
c-47 -44 -113 -66 -199 -66c-87 0 -154 22 -201 66c-46 43 -69 104 -69 181zM553 233v244c0 65 -19 115 -57 150c-39 36 -94 54 -165 54c-73 0 -128 -18 -167 -54c-38 -35 -57 -85 -57 -150v-244c0 -65 19 -115 57 -150c39 -36 94 -54 167 -54c71 0 126 18 165 54
c38 35 57 85 57 150z" />
    <glyph glyph-name="Obreve" unicode="&#x14e;" 
d="M481 886c-21 -75 -71 -112 -150 -112s-129 37 -150 112c-2 5 0 9 5 11l17 6c5 1 9 0 12 -5c15 -60 54 -90 116 -90c61 0 99 30 116 90c2 5 6 7 11 5l17 -6c6 -2 8 -6 6 -11zM61 233v244c0 77 23 138 69 181c47 44 114 66 201 66c86 0 152 -22 199 -66
c46 -43 69 -104 69 -181v-244c0 -77 -23 -138 -69 -181c-47 -44 -113 -66 -199 -66c-87 0 -154 22 -201 66c-46 43 -69 104 -69 181zM553 233v244c0 65 -19 115 -57 150c-39 36 -94 54 -165 54c-73 0 -128 -18 -167 -54c-38 -35 -57 -85 -57 -150v-244
c0 -65 19 -115 57 -150c39 -36 94 -54 167 -54c71 0 126 18 165 54c38 35 57 85 57 150z" />
    <glyph glyph-name="Ocircumflex" unicode="&#xd4;" 
d="M328 907h6c8 0 16 -4 24 -11l132 -112c7 -7 5 -10 -6 -10h-18c-9 0 -16 2 -21 7l-114 95l-116 -95c-5 -5 -12 -7 -19 -7h-19c-11 0 -13 3 -6 10l133 112c8 7 16 11 24 11zM61 233v244c0 77 23 138 69 181c47 44 114 66 201 66c86 0 152 -22 199 -66
c46 -43 69 -104 69 -181v-244c0 -77 -23 -138 -69 -181c-47 -44 -113 -66 -199 -66c-87 0 -154 22 -201 66c-46 43 -69 104 -69 181zM553 233v244c0 65 -19 115 -57 150c-39 36 -94 54 -165 54c-73 0 -128 -18 -167 -54c-38 -35 -57 -85 -57 -150v-244
c0 -65 19 -115 57 -150c39 -36 94 -54 167 -54c71 0 126 18 165 54c38 35 57 85 57 150z" />
    <glyph glyph-name="Odieresis" unicode="&#xd6;" 
d="M232 863h6c15 0 23 -8 23 -23v-7c0 -15 -8 -22 -23 -22h-6c-15 0 -23 7 -23 22v7c0 15 8 23 23 23zM423 863h6c15 0 23 -8 23 -23v-7c0 -15 -8 -22 -23 -22h-6c-15 0 -23 7 -23 22v7c0 15 8 23 23 23zM61 233v244c0 77 23 138 69 181c47 44 114 66 201 66
c86 0 152 -22 199 -66c46 -43 69 -104 69 -181v-244c0 -77 -23 -138 -69 -181c-47 -44 -113 -66 -199 -66c-87 0 -154 22 -201 66c-46 43 -69 104 -69 181zM553 233v244c0 65 -19 115 -57 150c-39 36 -94 54 -165 54c-73 0 -128 -18 -167 -54c-38 -35 -57 -85 -57 -150v-244
c0 -65 19 -115 57 -150c39 -36 94 -54 167 -54c71 0 126 18 165 54c38 35 57 85 57 150z" />
    <glyph glyph-name="Ograve" unicode="&#xd2;" 
d="M228 885l9 11c5 6 13 7 23 2l172 -102c6 -3 6 -8 1 -14l-7 -8c-3 -4 -8 -4 -16 -1l-180 98c-7 3 -8 7 -2 14zM61 233v244c0 77 23 138 69 181c47 44 114 66 201 66c86 0 152 -22 199 -66c46 -43 69 -104 69 -181v-244c0 -77 -23 -138 -69 -181c-47 -44 -113 -66 -199 -66
c-87 0 -154 22 -201 66c-46 43 -69 104 -69 181zM553 233v244c0 65 -19 115 -57 150c-39 36 -94 54 -165 54c-73 0 -128 -18 -167 -54c-38 -35 -57 -85 -57 -150v-244c0 -65 19 -115 57 -150c39 -36 94 -54 167 -54c71 0 126 18 165 54c38 35 57 85 57 150z" />
    <glyph glyph-name="Ohungarumlaut" unicode="&#x150;" 
d="M196 788l101 113c6 7 13 9 20 8l15 -4c9 -3 10 -7 5 -14l-113 -113c-5 -5 -10 -7 -15 -5l-9 3c-7 2 -8 6 -4 12zM369 787l103 114c6 7 13 9 20 8l16 -4c9 -3 11 -7 4 -14l-115 -114c-6 -6 -11 -8 -15 -5l-9 3c-7 2 -9 6 -4 12zM61 233v244c0 77 23 138 69 181
c47 44 114 66 201 66c86 0 152 -22 199 -66c46 -43 69 -104 69 -181v-244c0 -77 -23 -138 -69 -181c-47 -44 -113 -66 -199 -66c-87 0 -154 22 -201 66c-46 43 -69 104 -69 181zM553 233v244c0 65 -19 115 -57 150c-39 36 -94 54 -165 54c-73 0 -128 -18 -167 -54
c-38 -35 -57 -85 -57 -150v-244c0 -65 19 -115 57 -150c39 -36 94 -54 167 -54c71 0 126 18 165 54c38 35 57 85 57 150z" />
    <glyph glyph-name="Omacron" unicode="&#x14c;" 
d="M212 849h237c8 0 12 -4 12 -11v-10c0 -8 -4 -12 -12 -12h-237c-7 0 -11 4 -11 12v10c0 7 4 11 11 11zM61 233v244c0 77 23 138 69 181c47 44 114 66 201 66c86 0 152 -22 199 -66c46 -43 69 -104 69 -181v-244c0 -77 -23 -138 -69 -181c-47 -44 -113 -66 -199 -66
c-87 0 -154 22 -201 66c-46 43 -69 104 -69 181zM553 233v244c0 65 -19 115 -57 150c-39 36 -94 54 -165 54c-73 0 -128 -18 -167 -54c-38 -35 -57 -85 -57 -150v-244c0 -65 19 -115 57 -150c39 -36 94 -54 167 -54c71 0 126 18 165 54c38 35 57 85 57 150z" />
    <glyph glyph-name="Oslash" unicode="&#xd8;" 
d="M575 749h27c3 0 4 -2 3 -5l-63 -98c38 -41 57 -97 57 -169v-244c0 -77 -23 -138 -69 -181c-47 -44 -113 -66 -199 -66c-75 0 -135 16 -179 49l-47 -73c-2 -3 -6 -5 -12 -5h-25c-4 0 -5 2 -3 5l60 94c-43 43 -64 102 -64 177v244c0 77 23 138 69 181c47 44 114 66 201 66
c79 0 140 -19 185 -56l49 77c3 3 6 4 10 4zM154 100l338 530c-38 34 -92 51 -161 51c-73 0 -128 -18 -167 -54c-38 -35 -57 -85 -57 -150v-244c0 -56 16 -100 47 -133zM514 601l-338 -527c38 -30 90 -45 155 -45c71 0 126 18 165 54c38 35 57 85 57 150v244
c0 52 -13 93 -39 124z" />
    <glyph glyph-name="Oslashacute" unicode="&#x1fe;" 
d="M237 798l170 107c9 5 17 4 22 -2l9 -11c7 -7 6 -12 -2 -15l-177 -102c-7 -3 -13 -2 -16 1l-7 8c-5 5 -4 10 1 14zM575 749h27c3 0 4 -2 3 -5l-63 -98c38 -41 57 -97 57 -169v-244c0 -77 -23 -138 -69 -181c-47 -44 -113 -66 -199 -66c-75 0 -135 16 -179 49l-47 -73
c-2 -3 -6 -5 -12 -5h-25c-4 0 -5 2 -3 5l60 94c-43 43 -64 102 -64 177v244c0 77 23 138 69 181c47 44 114 66 201 66c79 0 140 -19 185 -56l49 77c3 3 6 4 10 4zM154 100l338 530c-38 34 -92 51 -161 51c-73 0 -128 -18 -167 -54c-38 -35 -57 -85 -57 -150v-244
c0 -56 16 -100 47 -133zM514 601l-338 -527c38 -30 90 -45 155 -45c71 0 126 18 165 54c38 35 57 85 57 150v244c0 52 -13 93 -39 124z" />
    <glyph glyph-name="Otilde" unicode="&#xd5;" 
d="M462 885h13c5 0 8 -3 8 -8c0 -63 -25 -94 -75 -94c-24 0 -51 12 -82 36c-30 24 -54 36 -73 36c-32 0 -48 -21 -48 -64c0 -5 -3 -8 -8 -8h-14c-5 0 -8 3 -8 8c0 63 25 94 75 94c25 0 53 -12 83 -36c31 -24 55 -36 73 -36c32 0 48 21 48 64c0 5 3 8 8 8zM61 233v244
c0 77 23 138 69 181c47 44 114 66 201 66c86 0 152 -22 199 -66c46 -43 69 -104 69 -181v-244c0 -77 -23 -138 -69 -181c-47 -44 -113 -66 -199 -66c-87 0 -154 22 -201 66c-46 43 -69 104 -69 181zM553 233v244c0 65 -19 115 -57 150c-39 36 -94 54 -165 54
c-73 0 -128 -18 -167 -54c-38 -35 -57 -85 -57 -150v-244c0 -65 19 -115 57 -150c39 -36 94 -54 167 -54c71 0 126 18 165 54c38 35 57 85 57 150z" />
    <glyph glyph-name="OE" unicode="&#x152;" horiz-adv-x="838" 
d="M474 43h311c8 0 12 -4 12 -12v-18c0 -9 -4 -13 -12 -13h-344c-35 -10 -72 -15 -110 -15c-87 0 -154 22 -201 67c-46 43 -69 104 -69 181v244c0 77 23 138 69 181c47 45 114 67 201 67c38 0 75 -5 110 -15h330c9 0 13 -4 13 -13v-18c0 -8 -4 -12 -13 -12h-297v-286h253
c9 0 13 -4 13 -13v-18c0 -8 -4 -12 -13 -12h-253v-295zM107 477v-244c0 -65 19 -115 57 -150c39 -37 95 -55 167 -55c38 0 70 5 96 14v626c-32 9 -64 14 -96 14c-72 0 -128 -18 -167 -54c-38 -36 -57 -86 -57 -151z" />
    <glyph glyph-name="P" unicode="P" horiz-adv-x="618" 
d="M95 710h269c68 0 122 -19 161 -58c40 -39 60 -92 60 -160c0 -67 -20 -120 -59 -159c-40 -38 -94 -57 -162 -57h-236v-263c0 -9 -4 -13 -12 -13h-21c-9 0 -13 4 -13 13v684c0 9 4 13 13 13zM128 319h232c55 0 98 15 129 46c32 31 48 73 48 127c0 55 -16 98 -48 129
c-31 31 -74 46 -129 46h-232v-348z" />
    <glyph glyph-name="Thorn" unicode="&#xde;" horiz-adv-x="616" 
d="M128 587h226c71 0 127 -20 168 -61c42 -41 63 -97 63 -167s-21 -125 -63 -166c-41 -40 -97 -60 -168 -60h-226v-120c0 -9 -4 -13 -12 -13h-21c-9 0 -13 4 -13 13v684c0 9 4 13 13 13h21c8 0 12 -4 12 -13v-110zM128 176h222c57 0 103 16 136 49c34 33 51 78 51 134
c0 57 -17 102 -51 135c-33 33 -79 50 -136 50h-222v-368z" />
    <glyph glyph-name="Q" unicode="Q" horiz-adv-x="670" 
d="M537 59l74 -87c5 -6 5 -12 -2 -18l-14 -11c-6 -6 -12 -6 -18 1l-75 89c-43 -31 -100 -47 -171 -47c-87 0 -154 22 -201 66c-46 43 -69 104 -69 181v244c0 77 23 138 69 181c47 44 114 66 201 66c86 0 152 -22 199 -66c46 -43 69 -104 69 -181v-244
c0 -73 -21 -131 -62 -174zM107 477v-244c0 -65 19 -115 57 -150c39 -36 94 -54 167 -54c71 0 126 18 165 54c38 35 57 85 57 150v244c0 65 -19 115 -57 150c-39 36 -94 54 -165 54c-73 0 -128 -18 -167 -54c-38 -35 -57 -85 -57 -150z" />
    <glyph glyph-name="R" unicode="R" horiz-adv-x="640" 
d="M95 710h287c63 0 113 -17 149 -52s54 -85 54 -148c0 -57 -16 -102 -47 -136c-31 -33 -74 -52 -129 -57c33 -14 60 -41 82 -82l112 -222c6 -9 4 -13 -7 -13h-19c-13 0 -22 4 -25 11l-104 206c-31 63 -83 95 -155 95h-165v-299c0 -9 -4 -13 -12 -13h-21c-9 0 -13 4 -13 13
v684c0 9 4 13 13 13zM537 510c0 50 -14 89 -42 116s-67 41 -118 41h-249v-312h249c51 0 90 13 118 40s42 66 42 115z" />
    <glyph glyph-name="Racute" unicode="&#x154;" horiz-adv-x="640" 
d="M213 788l169 107c9 5 17 4 22 -2l10 -11c5 -7 5 -12 -2 -15l-178 -102c-7 -3 -13 -2 -16 1l-7 8c-5 6 -4 11 2 14zM95 710h287c63 0 113 -17 149 -52s54 -85 54 -148c0 -57 -16 -102 -47 -136c-31 -33 -74 -52 -129 -57c33 -14 60 -41 82 -82l112 -222c6 -9 4 -13 -7 -13
h-19c-13 0 -22 4 -25 11l-104 206c-31 63 -83 95 -155 95h-165v-299c0 -9 -4 -13 -12 -13h-21c-9 0 -13 4 -13 13v684c0 9 4 13 13 13zM537 510c0 50 -14 89 -42 116s-67 41 -118 41h-249v-312h249c51 0 90 13 118 40s42 66 42 115z" />
    <glyph glyph-name="Rcaron" unicode="&#x158;" horiz-adv-x="640" 
d="M446 898h18c11 0 13 -4 6 -11l-132 -111c-9 -8 -17 -12 -24 -12h-5c-8 0 -16 4 -24 12l-133 111c-3 2 -4 4 -3 7s4 4 9 4h18c7 0 14 -2 19 -7l116 -95l115 95c5 5 11 7 20 7zM95 710h287c63 0 113 -17 149 -52s54 -85 54 -148c0 -57 -16 -102 -47 -136
c-31 -33 -74 -52 -129 -57c33 -14 60 -41 82 -82l112 -222c6 -9 4 -13 -7 -13h-19c-13 0 -22 4 -25 11l-104 206c-31 63 -83 95 -155 95h-165v-299c0 -9 -4 -13 -12 -13h-21c-9 0 -13 4 -13 13v684c0 9 4 13 13 13zM537 510c0 50 -14 89 -42 116s-67 41 -118 41h-249v-312
h249c51 0 90 13 118 40s42 66 42 115z" />
    <glyph glyph-name="uni0156" unicode="&#x156;" horiz-adv-x="640" 
d="M95 710h287c63 0 113 -17 149 -52s54 -85 54 -148c0 -57 -16 -102 -47 -136c-31 -33 -74 -52 -129 -57c33 -14 60 -41 82 -82l112 -222c6 -9 4 -13 -7 -13h-19c-13 0 -22 4 -25 11l-104 206c-31 63 -83 95 -155 95h-165v-299c0 -9 -4 -13 -12 -13h-21c-9 0 -13 4 -13 13
v684c0 9 4 13 13 13zM537 510c0 50 -14 89 -42 116s-67 41 -118 41h-249v-312h249c51 0 90 13 118 40s42 66 42 115zM366 -91l-48 -143c-1 -7 -6 -11 -14 -11h-13c-7 0 -10 3 -9 9l40 146c1 8 5 12 14 12h19c10 0 14 -4 11 -13z" />
    <glyph glyph-name="S" unicode="S" horiz-adv-x="622" 
d="M55 525c0 61 22 110 66 145c45 36 106 54 185 54c124 0 211 -52 262 -155c5 -8 3 -14 -6 -17l-20 -9c-7 -3 -12 -1 -16 6c-44 87 -117 131 -220 131c-65 0 -115 -13 -150 -40c-36 -27 -54 -64 -54 -112c0 -53 23 -91 70 -114c31 -16 82 -28 154 -35
c80 -9 137 -23 170 -42c53 -29 79 -78 79 -147c0 -136 -88 -204 -264 -204c-132 0 -222 58 -269 175c-3 9 -1 15 7 18l19 7c7 3 13 0 17 -8c42 -99 117 -148 226 -148c145 0 218 53 218 158c0 53 -22 90 -66 112c-27 14 -76 25 -147 34c-83 10 -142 24 -177 43
c-56 30 -84 79 -84 148z" />
    <glyph glyph-name="Sacute" unicode="&#x15a;" horiz-adv-x="622" 
d="M214 797l169 107c10 5 18 4 23 -1l9 -11c7 -7 6 -12 -2 -15l-177 -103c-7 -3 -13 -2 -16 2l-7 8c-5 5 -4 9 1 13zM55 525c0 61 22 110 66 145c45 36 106 54 185 54c124 0 211 -52 262 -155c5 -8 3 -14 -6 -17l-20 -9c-7 -3 -12 -1 -16 6c-44 87 -117 131 -220 131
c-65 0 -115 -13 -150 -40c-36 -27 -54 -64 -54 -112c0 -53 23 -91 70 -114c31 -16 82 -28 154 -35c80 -9 137 -23 170 -42c53 -29 79 -78 79 -147c0 -136 -88 -204 -264 -204c-132 0 -222 58 -269 175c-3 9 -1 15 7 18l19 7c7 3 13 0 17 -8c42 -99 117 -148 226 -148
c145 0 218 53 218 158c0 53 -22 90 -66 112c-27 14 -76 25 -147 34c-83 10 -142 24 -177 43c-56 30 -84 79 -84 148z" />
    <glyph glyph-name="Scaron" unicode="&#x160;" horiz-adv-x="622" 
d="M448 907h18c10 0 12 -4 6 -11l-132 -111c-8 -7 -16 -11 -24 -11h-6c-8 0 -16 4 -23 11l-133 111c-7 7 -6 11 5 11h19c7 0 14 -2 19 -7l116 -95l114 95c5 5 12 7 21 7zM55 525c0 61 22 110 66 145c45 36 106 54 185 54c124 0 211 -52 262 -155c5 -8 3 -14 -6 -17l-20 -9
c-7 -3 -12 -1 -16 6c-44 87 -117 131 -220 131c-65 0 -115 -13 -150 -40c-36 -27 -54 -64 -54 -112c0 -53 23 -91 70 -114c31 -16 82 -28 154 -35c80 -9 137 -23 170 -42c53 -29 79 -78 79 -147c0 -136 -88 -204 -264 -204c-132 0 -222 58 -269 175c-3 9 -1 15 7 18l19 7
c7 3 13 0 17 -8c42 -99 117 -148 226 -148c145 0 218 53 218 158c0 53 -22 90 -66 112c-27 14 -76 25 -147 34c-83 10 -142 24 -177 43c-56 30 -84 79 -84 148z" />
    <glyph glyph-name="Scedilla" unicode="&#x15e;" horiz-adv-x="622" 
d="M326 379c79 -9 136 -23 170 -42c53 -29 79 -78 79 -147c0 -130 -81 -198 -244 -204l-25 -70c11 3 21 4 32 4c27 0 48 -7 63 -20c16 -14 24 -32 23 -55c-3 -62 -40 -93 -112 -93c-33 0 -61 7 -84 22c-6 3 -9 8 -9 15v13c0 6 2 8 7 5c23 -18 51 -27 82 -27
c52 0 78 22 78 66c0 33 -23 49 -68 49c-16 0 -29 -2 -38 -5c-10 -2 -13 2 -9 13l31 83c-127 2 -214 60 -261 175c-3 9 -1 15 8 18l19 7c7 3 13 0 16 -8c43 -99 118 -148 226 -148c145 0 218 53 218 158c0 53 -22 90 -65 112c-28 14 -77 25 -147 34c-83 10 -142 24 -177 43
c-56 30 -84 79 -84 148c0 61 22 110 66 145c45 36 106 54 185 54c124 0 211 -52 262 -155c5 -8 2 -14 -7 -17l-19 -9c-7 -3 -13 -1 -17 6c-43 87 -116 131 -219 131c-65 0 -115 -13 -150 -40c-36 -27 -54 -64 -54 -112c0 -53 23 -91 70 -114c31 -16 82 -28 154 -35z" />
    <glyph glyph-name="Scircumflex" unicode="&#x15c;" horiz-adv-x="622" 
d="M311 907h6c7 0 15 -4 24 -11l132 -113c7 -7 5 -10 -6 -10h-18c-9 0 -16 2 -21 7l-114 95l-116 -95c-5 -5 -12 -7 -19 -7h-19c-11 0 -13 3 -6 10l133 113c9 7 17 11 24 11zM55 525c0 61 22 110 66 145c45 36 106 54 185 54c124 0 211 -52 262 -155c5 -8 3 -14 -6 -17
l-20 -9c-7 -3 -12 -1 -16 6c-44 87 -117 131 -220 131c-65 0 -115 -13 -150 -40c-36 -27 -54 -64 -54 -112c0 -53 23 -91 70 -114c31 -16 82 -28 154 -35c80 -9 137 -23 170 -42c53 -29 79 -78 79 -147c0 -136 -88 -204 -264 -204c-132 0 -222 58 -269 175c-3 9 -1 15 7 18
l19 7c7 3 13 0 17 -8c42 -99 117 -148 226 -148c145 0 218 53 218 158c0 53 -22 90 -66 112c-27 14 -76 25 -147 34c-83 10 -142 24 -177 43c-56 30 -84 79 -84 148z" />
    <glyph glyph-name="uni0218" unicode="&#x218;" horiz-adv-x="622" 
d="M55 525c0 61 22 110 66 145c45 36 106 54 185 54c124 0 211 -52 262 -155c5 -8 3 -14 -6 -17l-20 -9c-7 -3 -12 -1 -16 6c-44 87 -117 131 -220 131c-65 0 -115 -13 -150 -40c-36 -27 -54 -64 -54 -112c0 -53 23 -91 70 -114c31 -16 82 -28 154 -35
c80 -9 137 -23 170 -42c53 -29 79 -78 79 -147c0 -136 -88 -204 -264 -204c-132 0 -222 58 -269 175c-3 9 -1 15 7 18l19 7c7 3 13 0 17 -8c42 -99 117 -148 226 -148c145 0 218 53 218 158c0 53 -22 90 -66 112c-27 14 -76 25 -147 34c-83 10 -142 24 -177 43
c-56 30 -84 79 -84 148zM355 -98l-47 -143c-3 -7 -8 -11 -15 -11h-13c-7 0 -10 3 -9 9l40 146c1 8 5 12 14 12h19c10 0 14 -4 11 -13z" />
    <glyph glyph-name="T" unicode="T" horiz-adv-x="532" 
d="M26 710h480c9 0 13 -4 13 -13v-18c0 -8 -4 -12 -13 -12h-217v-654c0 -9 -4 -13 -12 -13h-21c-9 0 -13 4 -13 13v654h-217c-9 0 -13 4 -13 12v18c0 9 4 13 13 13z" />
    <glyph glyph-name="Tbar" unicode="&#x166;" horiz-adv-x="555" 
d="M38 710h480c9 0 13 -4 13 -13v-18c0 -8 -4 -12 -13 -12h-217v-319h151c7 0 10 -3 10 -10v-15c0 -7 -3 -10 -10 -10h-151v-300c0 -9 -4 -13 -12 -13h-22c-8 0 -12 4 -12 13v300h-151c-7 0 -10 3 -10 10v15c0 7 3 10 10 10h151v319h-217c-9 0 -13 4 -13 12v18
c0 9 4 13 13 13z" />
    <glyph glyph-name="Tcaron" unicode="&#x164;" horiz-adv-x="532" 
d="M401 898h18c10 0 12 -4 6 -11l-132 -111c-9 -8 -17 -12 -24 -12h-6c-7 0 -15 4 -24 12l-132 111c-3 2 -4 4 -3 7c0 3 3 4 8 4h19c7 0 14 -2 19 -7l116 -95l114 95c5 5 12 7 21 7zM26 710h480c9 0 13 -4 13 -13v-18c0 -8 -4 -12 -13 -12h-217v-654c0 -9 -4 -13 -12 -13
h-21c-9 0 -13 4 -13 13v654h-217c-9 0 -13 4 -13 12v18c0 9 4 13 13 13z" />
    <glyph glyph-name="uni021A" unicode="&#x21a;" horiz-adv-x="532" 
d="M26 710h480c9 0 13 -4 13 -13v-18c0 -8 -4 -12 -13 -12h-217v-654c0 -9 -4 -13 -12 -13h-21c-9 0 -13 4 -13 13v654h-217c-9 0 -13 4 -13 12v18c0 9 4 13 13 13zM297 -91l-48 -143c-3 -7 -7 -11 -14 -11h-14c-6 0 -9 3 -8 9l39 146c1 8 6 12 15 12h19c10 0 14 -4 11 -13z
" />
    <glyph glyph-name="U" unicode="U" horiz-adv-x="679" 
d="M122 697v-457c0 -66 18 -117 54 -154c37 -39 92 -58 164 -58c71 0 126 19 163 58c36 37 54 88 54 154v457c0 9 4 13 12 13h22c8 0 12 -4 12 -13v-457c0 -79 -22 -141 -65 -186c-46 -46 -112 -69 -198 -69c-87 0 -153 23 -198 69c-44 45 -66 107 -66 186v457
c0 9 4 13 13 13h21c8 0 12 -4 12 -13z" />
    <glyph glyph-name="Uacute" unicode="&#xda;" horiz-adv-x="679" 
d="M240 788l169 107c10 5 18 4 23 -2l9 -11c7 -7 6 -12 -2 -15l-177 -102c-7 -3 -13 -2 -16 1l-7 8c-5 5 -4 10 1 14zM122 697v-457c0 -66 18 -117 54 -154c37 -39 92 -58 164 -58c71 0 126 19 163 58c36 37 54 88 54 154v457c0 9 4 13 12 13h22c8 0 12 -4 12 -13v-457
c0 -79 -22 -141 -65 -186c-46 -46 -112 -69 -198 -69c-87 0 -153 23 -198 69c-44 45 -66 107 -66 186v457c0 9 4 13 13 13h21c8 0 12 -4 12 -13z" />
    <glyph glyph-name="Ubreve" unicode="&#x16c;" horiz-adv-x="679" 
d="M490 876c-21 -75 -71 -112 -150 -112s-129 37 -150 112c-2 5 0 9 5 11l17 6c5 1 9 0 12 -5c15 -60 54 -90 116 -90c61 0 99 30 116 90c2 5 6 7 11 5l17 -6c6 -2 8 -6 6 -11zM122 697v-457c0 -66 18 -117 54 -154c37 -39 92 -58 164 -58c71 0 126 19 163 58
c36 37 54 88 54 154v457c0 9 4 13 12 13h22c8 0 12 -4 12 -13v-457c0 -79 -22 -141 -65 -186c-46 -46 -112 -69 -198 -69c-87 0 -153 23 -198 69c-44 45 -66 107 -66 186v457c0 9 4 13 13 13h21c8 0 12 -4 12 -13z" />
    <glyph glyph-name="Ucircumflex" unicode="&#xdb;" horiz-adv-x="679" 
d="M337 897h6c8 0 16 -4 24 -11l132 -112c7 -7 5 -10 -6 -10h-18c-9 0 -16 2 -21 7l-114 95l-116 -95c-5 -5 -12 -7 -19 -7h-19c-11 0 -13 3 -6 10l133 112c8 7 16 11 24 11zM122 697v-457c0 -66 18 -117 54 -154c37 -39 92 -58 164 -58c71 0 126 19 163 58
c36 37 54 88 54 154v457c0 9 4 13 12 13h22c8 0 12 -4 12 -13v-457c0 -79 -22 -141 -65 -186c-46 -46 -112 -69 -198 -69c-87 0 -153 23 -198 69c-44 45 -66 107 -66 186v457c0 9 4 13 13 13h21c8 0 12 -4 12 -13z" />
    <glyph glyph-name="Udieresis" unicode="&#xdc;" horiz-adv-x="679" 
d="M241 853h6c15 0 23 -8 23 -23v-7c0 -15 -8 -22 -23 -22h-6c-15 0 -23 7 -23 22v7c0 15 8 23 23 23zM432 853h6c15 0 23 -8 23 -23v-7c0 -15 -8 -22 -23 -22h-6c-15 0 -23 7 -23 22v7c0 15 8 23 23 23zM122 697v-457c0 -66 18 -117 54 -154c37 -39 92 -58 164 -58
c71 0 126 19 163 58c36 37 54 88 54 154v457c0 9 4 13 12 13h22c8 0 12 -4 12 -13v-457c0 -79 -22 -141 -65 -186c-46 -46 -112 -69 -198 -69c-87 0 -153 23 -198 69c-44 45 -66 107 -66 186v457c0 9 4 13 13 13h21c8 0 12 -4 12 -13z" />
    <glyph glyph-name="Ugrave" unicode="&#xd9;" horiz-adv-x="679" 
d="M237 875l9 11c5 6 13 7 23 2l172 -102c6 -3 6 -8 1 -14l-7 -8c-3 -4 -8 -4 -16 -1l-180 98c-7 3 -8 7 -2 14zM122 697v-457c0 -66 18 -117 54 -154c37 -39 92 -58 164 -58c71 0 126 19 163 58c36 37 54 88 54 154v457c0 9 4 13 12 13h22c8 0 12 -4 12 -13v-457
c0 -79 -22 -141 -65 -186c-46 -46 -112 -69 -198 -69c-87 0 -153 23 -198 69c-44 45 -66 107 -66 186v457c0 9 4 13 13 13h21c8 0 12 -4 12 -13z" />
    <glyph glyph-name="Uhungarumlaut" unicode="&#x170;" horiz-adv-x="679" 
d="M205 778l101 113c6 7 13 9 20 8l15 -4c9 -3 10 -7 5 -14l-113 -113c-5 -5 -10 -7 -15 -5l-9 3c-7 2 -8 6 -4 12zM378 777l103 114c6 7 13 9 20 8l16 -4c9 -3 11 -7 4 -14l-115 -114c-6 -6 -11 -8 -15 -5l-9 3c-7 2 -9 6 -4 12zM122 697v-457c0 -66 18 -117 54 -154
c37 -39 92 -58 164 -58c71 0 126 19 163 58c36 37 54 88 54 154v457c0 9 4 13 12 13h22c8 0 12 -4 12 -13v-457c0 -79 -22 -141 -65 -186c-46 -46 -112 -69 -198 -69c-87 0 -153 23 -198 69c-44 45 -66 107 -66 186v457c0 9 4 13 13 13h21c8 0 12 -4 12 -13z" />
    <glyph glyph-name="Umacron" unicode="&#x16a;" horiz-adv-x="679" 
d="M221 839h237c8 0 12 -4 12 -11v-10c0 -8 -4 -12 -12 -12h-237c-7 0 -11 4 -11 12v10c0 7 4 11 11 11zM122 697v-457c0 -66 18 -117 54 -154c37 -39 92 -58 164 -58c71 0 126 19 163 58c36 37 54 88 54 154v457c0 9 4 13 12 13h22c8 0 12 -4 12 -13v-457
c0 -79 -22 -141 -65 -186c-46 -46 -112 -69 -198 -69c-87 0 -153 23 -198 69c-44 45 -66 107 -66 186v457c0 9 4 13 13 13h21c8 0 12 -4 12 -13z" />
    <glyph glyph-name="Uogonek" unicode="&#x172;" horiz-adv-x="679" 
d="M569 710h22c8 0 12 -4 12 -13v-457c0 -95 -31 -164 -92 -207c-43 -36 -78 -76 -105 -119c-26 -43 -35 -74 -27 -95c7 -21 22 -31 45 -31c24 0 45 9 63 27c5 3 7 3 8 -2l6 -14c1 -4 1 -7 -2 -10c-24 -24 -53 -36 -87 -36c-39 0 -62 16 -71 47c-17 53 16 119 99 200
c-28 -10 -61 -15 -100 -15c-87 0 -153 23 -198 69c-44 45 -66 107 -66 186v457c0 9 4 13 13 13h21c8 0 12 -4 12 -13v-457c0 -66 18 -117 54 -154c37 -39 92 -58 164 -58c71 0 126 19 163 58c36 37 54 88 54 154v457c0 9 4 13 12 13z" />
    <glyph glyph-name="Uring" unicode="&#x16e;" horiz-adv-x="679" 
d="M243 837c0 29 9 52 27 69c17 17 41 26 71 26c29 0 53 -9 70 -26s26 -40 26 -69s-9 -51 -26 -68s-41 -26 -70 -26c-30 0 -54 9 -71 26c-18 17 -27 39 -27 68zM412 837c0 47 -24 70 -71 70c-49 0 -73 -23 -73 -70c0 -46 24 -69 73 -69c47 0 71 23 71 69zM122 697v-457
c0 -66 18 -117 54 -154c37 -39 92 -58 164 -58c71 0 126 19 163 58c36 37 54 88 54 154v457c0 9 4 13 12 13h22c8 0 12 -4 12 -13v-457c0 -79 -22 -141 -65 -186c-46 -46 -112 -69 -198 -69c-87 0 -153 23 -198 69c-44 45 -66 107 -66 186v457c0 9 4 13 13 13h21
c8 0 12 -4 12 -13z" />
    <glyph glyph-name="Utilde" unicode="&#x168;" horiz-adv-x="679" 
d="M471 875h13c5 0 8 -3 8 -8c0 -63 -25 -94 -75 -94c-24 0 -51 12 -82 36c-30 24 -54 36 -73 36c-32 0 -48 -21 -48 -64c0 -5 -3 -8 -8 -8h-14c-5 0 -8 3 -8 8c0 63 25 94 75 94c25 0 53 -12 83 -36c31 -24 55 -36 73 -36c32 0 48 21 48 64c0 5 3 8 8 8zM122 697v-457
c0 -66 18 -117 54 -154c37 -39 92 -58 164 -58c71 0 126 19 163 58c36 37 54 88 54 154v457c0 9 4 13 12 13h22c8 0 12 -4 12 -13v-457c0 -79 -22 -141 -65 -186c-46 -46 -112 -69 -198 -69c-87 0 -153 23 -198 69c-44 45 -66 107 -66 186v457c0 9 4 13 13 13h21
c8 0 12 -4 12 -13z" />
    <glyph glyph-name="V" unicode="V" horiz-adv-x="613" 
d="M572 710h19c9 0 11 -4 8 -12l-267 -686c-3 -8 -8 -12 -17 -12h-19c-9 0 -14 4 -17 11l-267 687c-3 8 -1 12 8 12h19c12 0 19 -4 22 -11l222 -575c3 -9 8 -21 13 -38l9 -29h3l9 29c5 17 9 29 12 38l221 575c3 7 10 11 22 11z" />
    <glyph glyph-name="W" unicode="W" horiz-adv-x="870" 
d="M816 710h22c9 0 11 -4 8 -12l-185 -686c-3 -8 -8 -12 -17 -12h-20c-10 0 -16 4 -17 11l-149 527c-7 25 -14 55 -21 91h-3c-7 -38 -15 -68 -22 -91l-149 -526c-1 -8 -7 -12 -17 -12h-19c-10 0 -16 4 -17 11l-186 687c-2 8 1 12 8 12h25c10 0 16 -4 17 -11l143 -538
c3 -10 6 -26 10 -49l10 -46h2l10 45c5 21 9 37 12 49l149 523c1 8 7 12 17 12h20c10 0 16 -4 17 -12l149 -525c3 -13 10 -44 21 -92h3l18 92l144 541c1 7 7 11 17 11z" />
    <glyph glyph-name="Wacute" unicode="&#x1e82;" horiz-adv-x="870" 
d="M338 788l169 107c10 5 18 4 23 -2l9 -11c7 -7 6 -12 -2 -15l-177 -102c-7 -3 -13 -2 -16 1l-7 8c-5 5 -4 10 1 14zM816 710h22c9 0 11 -4 8 -12l-185 -686c-3 -8 -8 -12 -17 -12h-20c-10 0 -16 4 -17 11l-149 527c-7 25 -14 55 -21 91h-3c-7 -38 -15 -68 -22 -91
l-149 -526c-1 -8 -7 -12 -17 -12h-19c-10 0 -16 4 -17 11l-186 687c-2 8 1 12 8 12h25c10 0 16 -4 17 -11l143 -538c3 -10 6 -26 10 -49l10 -46h2l10 45c5 21 9 37 12 49l149 523c1 8 7 12 17 12h20c10 0 16 -4 17 -12l149 -525c3 -13 10 -44 21 -92h3l18 92l144 541
c1 7 7 11 17 11z" />
    <glyph glyph-name="Wcircumflex" unicode="&#x174;" horiz-adv-x="870" 
d="M435 897h6c8 0 16 -4 23 -11l133 -112c7 -7 5 -10 -6 -10h-19c-9 0 -15 2 -20 7l-114 95l-116 -95c-5 -5 -12 -7 -20 -7h-18c-11 0 -13 3 -6 10l133 112c8 7 16 11 24 11zM816 710h22c9 0 11 -4 8 -12l-185 -686c-3 -8 -8 -12 -17 -12h-20c-10 0 -16 4 -17 11l-149 527
c-7 25 -14 55 -21 91h-3c-7 -38 -15 -68 -22 -91l-149 -526c-1 -8 -7 -12 -17 -12h-19c-10 0 -16 4 -17 11l-186 687c-2 8 1 12 8 12h25c10 0 16 -4 17 -11l143 -538c3 -10 6 -26 10 -49l10 -46h2l10 45c5 21 9 37 12 49l149 523c1 8 7 12 17 12h20c10 0 16 -4 17 -12
l149 -525c3 -13 10 -44 21 -92h3l18 92l144 541c1 7 7 11 17 11z" />
    <glyph glyph-name="Wdieresis" unicode="&#x1e84;" horiz-adv-x="870" 
d="M339 853h6c15 0 23 -8 23 -23v-7c0 -15 -8 -22 -23 -22h-6c-15 0 -23 7 -23 22v7c0 15 8 23 23 23zM530 853h6c15 0 23 -8 23 -23v-7c0 -15 -8 -22 -23 -22h-6c-15 0 -23 7 -23 22v7c0 15 8 23 23 23zM816 710h22c9 0 11 -4 8 -12l-185 -686c-3 -8 -8 -12 -17 -12h-20
c-10 0 -16 4 -17 11l-149 527c-7 25 -14 55 -21 91h-3c-7 -38 -15 -68 -22 -91l-149 -526c-1 -8 -7 -12 -17 -12h-19c-10 0 -16 4 -17 11l-186 687c-2 8 1 12 8 12h25c10 0 16 -4 17 -11l143 -538c3 -10 6 -26 10 -49l10 -46h2l10 45c5 21 9 37 12 49l149 523
c1 8 7 12 17 12h20c10 0 16 -4 17 -12l149 -525c3 -13 10 -44 21 -92h3l18 92l144 541c1 7 7 11 17 11z" />
    <glyph glyph-name="Wgrave" unicode="&#x1e80;" horiz-adv-x="870" 
d="M335 875l9 11c5 6 13 7 23 2l172 -102c5 -4 6 -9 1 -14l-7 -8c-3 -4 -9 -4 -16 -1l-180 98c-8 3 -9 7 -2 14zM816 710h22c9 0 11 -4 8 -12l-185 -686c-3 -8 -8 -12 -17 -12h-20c-10 0 -16 4 -17 11l-149 527c-7 25 -14 55 -21 91h-3c-7 -38 -15 -68 -22 -91l-149 -526
c-1 -8 -7 -12 -17 -12h-19c-10 0 -16 4 -17 11l-186 687c-2 8 1 12 8 12h25c10 0 16 -4 17 -11l143 -538c3 -10 6 -26 10 -49l10 -46h2l10 45c5 21 9 37 12 49l149 523c1 8 7 12 17 12h20c10 0 16 -4 17 -12l149 -525c3 -13 10 -44 21 -92h3l18 92l144 541c1 7 7 11 17 11z
" />
    <glyph glyph-name="X" unicode="X" horiz-adv-x="607" 
d="M333 361l256 -346c7 -10 6 -15 -5 -15h-26c-11 0 -19 4 -24 11l-232 314l-230 -314c-5 -7 -13 -11 -24 -11h-25c-10 0 -12 5 -6 15l257 345l-250 338c-5 8 -3 12 7 12h26c11 0 18 -4 23 -11l224 -302l223 302c5 7 12 11 23 11h26c11 0 13 -4 6 -12z" />
    <glyph glyph-name="Y" unicode="Y" horiz-adv-x="619" 
d="M571 710h25c9 0 12 -4 7 -13l-271 -405v-279c0 -9 -4 -13 -12 -13h-21c-9 0 -13 4 -13 13v280l-270 404c-5 9 -2 13 7 13h27c12 0 20 -4 23 -11l237 -359l237 359c5 7 13 11 24 11z" />
    <glyph glyph-name="Yacute" unicode="&#xdd;" horiz-adv-x="619" 
d="M211 788l169 107c10 5 18 4 23 -2l9 -11c6 -7 5 -12 -2 -15l-177 -102c-8 -3 -13 -2 -16 1l-7 8c-5 6 -5 11 1 14zM571 710h25c9 0 12 -4 7 -13l-271 -405v-279c0 -9 -4 -13 -12 -13h-21c-9 0 -13 4 -13 13v280l-270 404c-5 9 -2 13 7 13h27c12 0 20 -4 23 -11l237 -359
l237 359c5 7 13 11 24 11z" />
    <glyph glyph-name="Ycircumflex" unicode="&#x176;" horiz-adv-x="619" 
d="M308 897h6c8 0 16 -4 23 -11l133 -112c7 -7 5 -10 -6 -10h-19c-9 0 -15 2 -20 7l-115 95l-116 -95c-5 -5 -11 -7 -19 -7h-18c-11 0 -13 3 -6 10l133 112c7 7 15 11 24 11zM571 710h25c9 0 12 -4 7 -13l-271 -405v-279c0 -9 -4 -13 -12 -13h-21c-9 0 -13 4 -13 13v280
l-270 404c-5 9 -2 13 7 13h27c12 0 20 -4 23 -11l237 -359l237 359c5 7 13 11 24 11z" />
    <glyph glyph-name="Ydieresis" unicode="&#x178;" horiz-adv-x="619" 
d="M212 853h6c15 0 23 -8 23 -23v-7c0 -15 -8 -22 -23 -22h-6c-15 0 -23 7 -23 22v7c0 15 8 23 23 23zM403 853h6c15 0 23 -8 23 -23v-7c0 -15 -8 -22 -23 -22h-6c-15 0 -23 7 -23 22v7c0 15 8 23 23 23zM571 710h25c9 0 12 -4 7 -13l-271 -405v-279c0 -9 -4 -13 -12 -13
h-21c-9 0 -13 4 -13 13v280l-270 404c-5 9 -2 13 7 13h27c12 0 20 -4 23 -11l237 -359l237 359c5 7 13 11 24 11z" />
    <glyph glyph-name="Ygrave" unicode="&#x1ef2;" horiz-adv-x="619" 
d="M208 875l9 11c5 6 13 7 23 2l172 -102c5 -4 6 -9 1 -14l-7 -8c-3 -4 -9 -4 -16 -1l-180 98c-8 3 -9 7 -2 14zM571 710h25c9 0 12 -4 7 -13l-271 -405v-279c0 -9 -4 -13 -12 -13h-21c-9 0 -13 4 -13 13v280l-270 404c-5 9 -2 13 7 13h27c12 0 20 -4 23 -11l237 -359
l237 359c5 7 13 11 24 11z" />
    <glyph glyph-name="Z" unicode="Z" horiz-adv-x="555" 
d="M49 710h453c9 0 13 -4 13 -13v-16c0 -7 -2 -12 -5 -16l-421 -621h425c9 0 13 -4 13 -13v-18c0 -9 -4 -13 -13 -13h-470c-8 0 -12 4 -12 13v17c0 7 2 12 5 17l420 620h-408c-9 0 -13 4 -13 12v18c0 9 4 13 13 13z" />
    <glyph glyph-name="Zacute" unicode="&#x179;" horiz-adv-x="555" 
d="M182 788l169 107c10 5 18 4 23 -2l9 -11c6 -7 5 -12 -2 -15l-178 -102c-7 -3 -13 -2 -16 1l-6 8c-5 6 -5 11 1 14zM49 710h453c9 0 13 -4 13 -13v-16c0 -7 -2 -12 -5 -16l-421 -621h425c9 0 13 -4 13 -13v-18c0 -9 -4 -13 -13 -13h-470c-8 0 -12 4 -12 13v17
c0 7 2 12 5 17l420 620h-408c-9 0 -13 4 -13 12v18c0 9 4 13 13 13z" />
    <glyph glyph-name="Zcaron" unicode="&#x17d;" horiz-adv-x="555" 
d="M415 898h19c11 0 12 -4 5 -11l-132 -111c-8 -8 -16 -12 -23 -12h-6c-8 0 -16 4 -24 12l-133 111c-7 7 -5 11 6 11h18c8 0 14 -2 19 -7l116 -95l115 95c5 5 11 7 20 7zM49 710h453c9 0 13 -4 13 -13v-16c0 -7 -2 -12 -5 -16l-421 -621h425c9 0 13 -4 13 -13v-18
c0 -9 -4 -13 -13 -13h-470c-8 0 -12 4 -12 13v17c0 7 2 12 5 17l420 620h-408c-9 0 -13 4 -13 12v18c0 9 4 13 13 13z" />
    <glyph glyph-name="Zdotaccent" unicode="&#x17b;" horiz-adv-x="555" 
d="M279 849h5c15 0 23 -8 23 -24v-5c0 -15 -8 -23 -23 -23h-5c-16 0 -24 8 -24 23v5c0 16 8 24 24 24zM49 710h453c9 0 13 -4 13 -13v-16c0 -7 -2 -12 -5 -16l-421 -621h425c9 0 13 -4 13 -13v-18c0 -9 -4 -13 -13 -13h-470c-8 0 -12 4 -12 13v17c0 7 2 12 5 17l420 620
h-408c-9 0 -13 4 -13 12v18c0 9 4 13 13 13z" />
    <glyph glyph-name="a" unicode="a" horiz-adv-x="509" 
d="M57 421c37 71 102 106 197 106c129 0 194 -65 194 -195v-263c0 -28 -12 -47 -36 -57c-40 -17 -93 -26 -159 -26c-82 0 -139 13 -171 39c-28 23 -42 60 -42 113c0 55 17 95 50 118c33 22 89 33 167 33c29 0 79 -4 148 -11v55c0 49 -10 85 -29 109c-24 31 -65 46 -124 46
c-75 0 -127 -28 -157 -85c-4 -6 -9 -8 -16 -5l-16 6c-8 4 -10 10 -6 17zM405 79v163c-73 7 -124 11 -152 11c-62 0 -106 -9 -131 -26s-38 -47 -38 -88c0 -40 11 -69 32 -86c25 -21 69 -31 134 -31c54 0 98 7 132 20c15 7 23 19 23 37z" />
    <glyph glyph-name="aacute" unicode="&#xe1;" horiz-adv-x="509" 
d="M151 609l170 106c9 6 17 6 22 -1l10 -11c5 -7 5 -12 -2 -15l-178 -102c-7 -3 -13 -3 -16 1l-7 8c-5 5 -4 10 1 14zM57 421c37 71 102 106 197 106c129 0 194 -65 194 -195v-263c0 -28 -12 -47 -36 -57c-40 -17 -93 -26 -159 -26c-82 0 -139 13 -171 39
c-28 23 -42 60 -42 113c0 55 17 95 50 118c33 22 89 33 167 33c29 0 79 -4 148 -11v55c0 49 -10 85 -29 109c-24 31 -65 46 -124 46c-75 0 -127 -28 -157 -85c-4 -6 -9 -8 -16 -5l-16 6c-8 4 -10 10 -6 17zM405 79v163c-73 7 -124 11 -152 11c-62 0 -106 -9 -131 -26
s-38 -47 -38 -88c0 -40 11 -69 32 -86c25 -21 69 -31 134 -31c54 0 98 7 132 20c15 7 23 19 23 37z" />
    <glyph glyph-name="abreve" unicode="&#x103;" horiz-adv-x="509" 
d="M401 695c-21 -75 -71 -112 -150 -112s-129 37 -150 112c-2 5 0 9 6 11l16 6c6 2 10 0 12 -5c17 -60 55 -90 116 -90s99 30 116 90c2 5 6 7 11 5l18 -6c5 -2 7 -6 5 -11zM57 421c37 71 102 106 197 106c129 0 194 -65 194 -195v-263c0 -28 -12 -47 -36 -57
c-40 -17 -93 -26 -159 -26c-82 0 -139 13 -171 39c-28 23 -42 60 -42 113c0 55 17 95 50 118c33 22 89 33 167 33c29 0 79 -4 148 -11v55c0 49 -10 85 -29 109c-24 31 -65 46 -124 46c-75 0 -127 -28 -157 -85c-4 -6 -9 -8 -16 -5l-16 6c-8 4 -10 10 -6 17zM405 79v163
c-73 7 -124 11 -152 11c-62 0 -106 -9 -131 -26s-38 -47 -38 -88c0 -40 11 -69 32 -86c25 -21 69 -31 134 -31c54 0 98 7 132 20c15 7 23 19 23 37z" />
    <glyph glyph-name="acircumflex" unicode="&#xe2;" horiz-adv-x="509" 
d="M249 712h5c8 0 16 -4 24 -11l132 -112c5 -7 3 -10 -6 -10h-18c-9 0 -16 2 -21 7l-114 95l-116 -95c-5 -5 -12 -7 -19 -7h-18c-10 0 -12 3 -7 10l134 112c7 7 15 11 24 11zM57 421c37 71 102 106 197 106c129 0 194 -65 194 -195v-263c0 -28 -12 -47 -36 -57
c-40 -17 -93 -26 -159 -26c-82 0 -139 13 -171 39c-28 23 -42 60 -42 113c0 55 17 95 50 118c33 22 89 33 167 33c29 0 79 -4 148 -11v55c0 49 -10 85 -29 109c-24 31 -65 46 -124 46c-75 0 -127 -28 -157 -85c-4 -6 -9 -8 -16 -5l-16 6c-8 4 -10 10 -6 17zM405 79v163
c-73 7 -124 11 -152 11c-62 0 -106 -9 -131 -26s-38 -47 -38 -88c0 -40 11 -69 32 -86c25 -21 69 -31 134 -31c54 0 98 7 132 20c15 7 23 19 23 37z" />
    <glyph glyph-name="adieresis" unicode="&#xe4;" horiz-adv-x="509" 
d="M152 676h6c15 0 23 -8 23 -23v-7c0 -15 -8 -22 -23 -22h-6c-15 0 -23 7 -23 22v7c0 15 8 23 23 23zM344 676h5c15 0 23 -8 23 -23v-7c0 -15 -8 -22 -23 -22h-5c-16 0 -24 7 -24 22v7c0 15 8 23 24 23zM57 421c37 71 102 106 197 106c129 0 194 -65 194 -195v-263
c0 -28 -12 -47 -36 -57c-40 -17 -93 -26 -159 -26c-82 0 -139 13 -171 39c-28 23 -42 60 -42 113c0 55 17 95 50 118c33 22 89 33 167 33c29 0 79 -4 148 -11v55c0 49 -10 85 -29 109c-24 31 -65 46 -124 46c-75 0 -127 -28 -157 -85c-4 -6 -9 -8 -16 -5l-16 6
c-8 4 -10 10 -6 17zM405 79v163c-73 7 -124 11 -152 11c-62 0 -106 -9 -131 -26s-38 -47 -38 -88c0 -40 11 -69 32 -86c25 -21 69 -31 134 -31c54 0 98 7 132 20c15 7 23 19 23 37z" />
    <glyph glyph-name="agrave" unicode="&#xe0;" horiz-adv-x="509" 
d="M150 703l9 11c5 7 13 7 22 1l170 -106c5 -4 6 -9 1 -14l-7 -8c-3 -4 -9 -4 -16 -1l-177 102c-8 3 -9 8 -2 15zM57 421c37 71 102 106 197 106c129 0 194 -65 194 -195v-263c0 -28 -12 -47 -36 -57c-40 -17 -93 -26 -159 -26c-82 0 -139 13 -171 39c-28 23 -42 60 -42 113
c0 55 17 95 50 118c33 22 89 33 167 33c29 0 79 -4 148 -11v55c0 49 -10 85 -29 109c-24 31 -65 46 -124 46c-75 0 -127 -28 -157 -85c-4 -6 -9 -8 -16 -5l-16 6c-8 4 -10 10 -6 17zM405 79v163c-73 7 -124 11 -152 11c-62 0 -106 -9 -131 -26s-38 -47 -38 -88
c0 -40 11 -69 32 -86c25 -21 69 -31 134 -31c54 0 98 7 132 20c15 7 23 19 23 37z" />
    <glyph glyph-name="amacron" unicode="&#x101;" horiz-adv-x="509" 
d="M132 658h238c7 0 11 -4 11 -11v-10c0 -7 -4 -11 -11 -11h-238c-7 0 -11 4 -11 11v10c0 7 4 11 11 11zM57 421c37 71 102 106 197 106c129 0 194 -65 194 -195v-263c0 -28 -12 -47 -36 -57c-40 -17 -93 -26 -159 -26c-82 0 -139 13 -171 39c-28 23 -42 60 -42 113
c0 55 17 95 50 118c33 22 89 33 167 33c29 0 79 -4 148 -11v55c0 49 -10 85 -29 109c-24 31 -65 46 -124 46c-75 0 -127 -28 -157 -85c-4 -6 -9 -8 -16 -5l-16 6c-8 4 -10 10 -6 17zM405 79v163c-73 7 -124 11 -152 11c-62 0 -106 -9 -131 -26s-38 -47 -38 -88
c0 -40 11 -69 32 -86c25 -21 69 -31 134 -31c54 0 98 7 132 20c15 7 23 19 23 37z" />
    <glyph glyph-name="aogonek" unicode="&#x105;" horiz-adv-x="511" 
d="M57 421c37 71 102 106 197 106c129 0 194 -65 194 -195v-263c0 -21 -4 -35 -13 -44c-39 -34 -69 -72 -90 -114c-19 -39 -25 -70 -17 -92c7 -21 23 -31 46 -31c25 0 45 9 62 27c4 3 7 3 9 -2l5 -14c1 -4 1 -7 -2 -10c-24 -24 -53 -36 -87 -36c-39 0 -62 16 -71 47
c-8 25 -4 57 11 95c16 39 41 75 75 106c-35 -10 -76 -15 -123 -15c-82 0 -139 13 -171 39c-28 23 -42 60 -42 113c0 55 17 95 50 118c33 22 89 33 167 33c29 0 79 -4 148 -11v55c0 49 -10 85 -29 109c-24 31 -65 46 -124 46c-75 0 -127 -28 -157 -85c-4 -6 -9 -8 -16 -5
l-16 6c-8 4 -10 10 -6 17zM405 79v163c-73 7 -124 11 -152 11c-62 0 -106 -9 -131 -26s-38 -47 -38 -88c0 -40 11 -69 32 -86c25 -21 69 -31 134 -31c54 0 98 7 132 20c15 7 23 19 23 37z" />
    <glyph glyph-name="aring" unicode="&#xe5;" horiz-adv-x="509" 
d="M155 681c0 29 9 52 27 69s42 26 72 26c29 0 52 -9 69 -26s26 -40 26 -69s-9 -51 -26 -68s-40 -26 -69 -26c-30 0 -54 9 -72 26s-27 39 -27 68zM324 681c0 47 -23 70 -70 70c-49 0 -74 -23 -74 -70c0 -46 25 -69 74 -69c47 0 70 23 70 69zM57 421c37 71 102 106 197 106
c129 0 194 -65 194 -195v-263c0 -28 -12 -47 -36 -57c-40 -17 -93 -26 -159 -26c-82 0 -139 13 -171 39c-28 23 -42 60 -42 113c0 55 17 95 50 118c33 22 89 33 167 33c29 0 79 -4 148 -11v55c0 49 -10 85 -29 109c-24 31 -65 46 -124 46c-75 0 -127 -28 -157 -85
c-4 -6 -9 -8 -16 -5l-16 6c-8 4 -10 10 -6 17zM405 79v163c-73 7 -124 11 -152 11c-62 0 -106 -9 -131 -26s-38 -47 -38 -88c0 -40 11 -69 32 -86c25 -21 69 -31 134 -31c54 0 98 7 132 20c15 7 23 19 23 37z" />
    <glyph glyph-name="aringacute" unicode="&#x1fb;" horiz-adv-x="509" 
d="M159 806l158 79c9 5 16 4 21 -1l9 -8c5 -5 5 -8 -2 -11l-166 -76c-7 -2 -12 -2 -15 1l-6 6c-5 4 -4 7 1 10zM158 671c0 29 9 52 27 69c17 17 41 26 71 26c29 0 53 -9 70 -26s26 -40 26 -69s-9 -52 -26 -69s-41 -25 -70 -25c-30 0 -54 8 -71 25c-18 17 -27 40 -27 69z
M327 671c0 47 -24 70 -71 70c-49 0 -73 -23 -73 -70s24 -70 73 -70c47 0 71 23 71 70zM57 421c37 71 102 106 197 106c129 0 194 -65 194 -195v-263c0 -28 -12 -47 -36 -57c-40 -17 -93 -26 -159 -26c-82 0 -139 13 -171 39c-28 23 -42 60 -42 113c0 55 17 95 50 118
c33 22 89 33 167 33c29 0 79 -4 148 -11v55c0 49 -10 85 -29 109c-24 31 -65 46 -124 46c-75 0 -127 -28 -157 -85c-4 -6 -9 -8 -16 -5l-16 6c-8 4 -10 10 -6 17zM405 79v163c-73 7 -124 11 -152 11c-62 0 -106 -9 -131 -26s-38 -47 -38 -88c0 -40 11 -69 32 -86
c25 -21 69 -31 134 -31c54 0 98 7 132 20c15 7 23 19 23 37z" />
    <glyph glyph-name="atilde" unicode="&#xe3;" horiz-adv-x="509" 
d="M382 697h13c5 0 8 -3 8 -9c0 -62 -25 -93 -74 -93c-25 0 -52 12 -82 36c-31 24 -55 36 -74 36c-32 0 -48 -21 -48 -64c0 -5 -3 -8 -8 -8h-14c-5 0 -8 3 -8 8c0 63 25 94 75 94c25 0 53 -12 84 -36c30 -24 54 -36 72 -36c32 0 48 21 48 63c0 6 3 9 8 9zM57 421
c37 71 102 106 197 106c129 0 194 -65 194 -195v-263c0 -28 -12 -47 -36 -57c-40 -17 -93 -26 -159 -26c-82 0 -139 13 -171 39c-28 23 -42 60 -42 113c0 55 17 95 50 118c33 22 89 33 167 33c29 0 79 -4 148 -11v55c0 49 -10 85 -29 109c-24 31 -65 46 -124 46
c-75 0 -127 -28 -157 -85c-4 -6 -9 -8 -16 -5l-16 6c-8 4 -10 10 -6 17zM405 79v163c-73 7 -124 11 -152 11c-62 0 -106 -9 -131 -26s-38 -47 -38 -88c0 -40 11 -69 32 -86c25 -21 69 -31 134 -31c54 0 98 7 132 20c15 7 23 19 23 37z" />
    <glyph glyph-name="ae" unicode="&#xe6;" horiz-adv-x="783" 
d="M58 422c37 70 96 105 175 105c83 0 134 -34 153 -102c25 68 79 102 163 102c126 0 189 -68 189 -205v-53c0 -15 -8 -22 -23 -22h-311v-69c0 -103 47 -155 142 -155c39 0 70 9 93 26c17 13 35 37 53 70c5 7 11 9 19 5l13 -7c7 -4 9 -10 5 -18c-20 -38 -41 -65 -64 -81
c-30 -21 -70 -32 -119 -32c-72 0 -122 24 -149 71c-30 -47 -85 -71 -164 -71c-73 0 -124 13 -153 38c-26 23 -39 60 -39 112c0 56 15 95 44 118s80 34 152 34c43 0 84 -4 124 -12v62c0 48 -7 83 -22 106c-20 29 -56 44 -107 44c-60 0 -105 -28 -136 -84c-5 -6 -10 -8 -16 -5
l-15 6c-8 3 -10 8 -7 17zM695 282v42c0 110 -49 165 -146 165s-145 -55 -145 -165v-42h291zM361 169v71c-42 8 -85 12 -129 12c-55 0 -93 -9 -115 -27c-21 -17 -32 -47 -32 -89c0 -39 10 -68 29 -85c21 -19 60 -29 115 -29c78 0 125 24 141 72c-6 22 -9 47 -9 75z" />
    <glyph glyph-name="aeacute" unicode="&#x1fd;" horiz-adv-x="783" 
d="M291 616l169 107c10 5 18 4 23 -1l9 -11c5 -7 5 -12 -2 -15l-178 -103c-7 -3 -13 -2 -16 2l-6 8c-5 5 -5 10 1 13zM58 422c37 70 96 105 175 105c83 0 134 -34 153 -102c25 68 79 102 163 102c126 0 189 -68 189 -205v-53c0 -15 -8 -22 -23 -22h-311v-69
c0 -103 47 -155 142 -155c39 0 70 9 93 26c17 13 35 37 53 70c5 7 11 9 19 5l13 -7c7 -4 9 -10 5 -18c-20 -38 -41 -65 -64 -81c-30 -21 -70 -32 -119 -32c-72 0 -122 24 -149 71c-30 -47 -85 -71 -164 -71c-73 0 -124 13 -153 38c-26 23 -39 60 -39 112c0 56 15 95 44 118
s80 34 152 34c43 0 84 -4 124 -12v62c0 48 -7 83 -22 106c-20 29 -56 44 -107 44c-60 0 -105 -28 -136 -84c-5 -6 -10 -8 -16 -5l-15 6c-8 3 -10 8 -7 17zM695 282v42c0 110 -49 165 -146 165s-145 -55 -145 -165v-42h291zM361 169v71c-42 8 -85 12 -129 12
c-55 0 -93 -9 -115 -27c-21 -17 -32 -47 -32 -89c0 -39 10 -68 29 -85c21 -19 60 -29 115 -29c78 0 125 24 141 72c-6 22 -9 47 -9 75z" />
    <glyph glyph-name="b" unicode="b" horiz-adv-x="534" 
d="M80 740h20c7 0 11 -4 11 -12v-239c66 25 125 38 177 38c129 0 193 -64 193 -193v-146c0 -135 -70 -202 -211 -202c-62 0 -116 10 -163 29c-26 11 -39 29 -39 55v658c0 8 4 12 12 12zM438 188v145c0 103 -51 154 -154 154c-59 0 -116 -13 -173 -39v-366
c0 -15 8 -26 24 -33c39 -16 83 -24 133 -24c113 0 170 54 170 163z" />
    <glyph glyph-name="c" unicode="c" horiz-adv-x="513" 
d="M53 180v153c0 61 18 109 53 142c37 35 90 52 160 52c111 0 179 -46 206 -137c3 -8 0 -14 -7 -17l-17 -6c-8 -3 -13 0 -16 8c-23 75 -79 113 -168 113c-55 0 -97 -14 -126 -41s-43 -64 -43 -112v-156c0 -48 14 -86 43 -113c30 -27 72 -41 126 -41c91 0 147 40 170 119
c3 8 8 11 16 8l18 -6c8 -3 10 -9 7 -16c-29 -96 -100 -144 -211 -144c-69 0 -121 17 -158 52c-35 33 -53 81 -53 142z" />
    <glyph glyph-name="cacute" unicode="&#x107;" horiz-adv-x="513" 
d="M166 609l170 106c9 6 17 6 22 -1l10 -11c5 -7 5 -12 -2 -15l-178 -102c-7 -3 -13 -3 -16 1l-7 8c-5 5 -4 10 1 14zM53 180v153c0 61 18 109 53 142c37 35 90 52 160 52c111 0 179 -46 206 -137c3 -8 0 -14 -7 -17l-17 -6c-8 -3 -13 0 -16 8c-23 75 -79 113 -168 113
c-55 0 -97 -14 -126 -41s-43 -64 -43 -112v-156c0 -48 14 -86 43 -113c30 -27 72 -41 126 -41c91 0 147 40 170 119c3 8 8 11 16 8l18 -6c8 -3 10 -9 7 -16c-29 -96 -100 -144 -211 -144c-69 0 -121 17 -158 52c-35 33 -53 81 -53 142z" />
    <glyph glyph-name="ccaron" unicode="&#x10d;" horiz-adv-x="513" 
d="M389 697h16c11 0 13 -3 6 -10l-121 -103c-7 -7 -15 -11 -22 -11h-5c-7 0 -15 4 -22 11l-122 103c-7 7 -5 10 4 10h18c7 0 13 -2 18 -7l106 -88l105 88c5 5 12 7 19 7zM53 180v153c0 61 18 109 53 142c37 35 90 52 160 52c111 0 179 -46 206 -137c3 -8 0 -14 -7 -17
l-17 -6c-8 -3 -13 0 -16 8c-23 75 -79 113 -168 113c-55 0 -97 -14 -126 -41s-43 -64 -43 -112v-156c0 -48 14 -86 43 -113c30 -27 72 -41 126 -41c91 0 147 40 170 119c3 8 8 11 16 8l18 -6c8 -3 10 -9 7 -16c-29 -96 -100 -144 -211 -144c-69 0 -121 17 -158 52
c-35 33 -53 81 -53 142z" />
    <glyph glyph-name="ccedilla" unicode="&#xe7;" horiz-adv-x="513" 
d="M450 152l18 -6c8 -3 10 -9 7 -16c-27 -91 -93 -139 -196 -144l-25 -68c8 3 19 4 32 4c27 0 48 -7 63 -20c16 -14 24 -32 23 -55c-2 -62 -39 -93 -112 -93c-31 0 -59 7 -84 22c-6 3 -9 9 -9 16v13c0 7 2 9 7 4c23 -17 50 -26 82 -26c52 0 78 22 78 66c0 33 -23 49 -68 49
c-15 0 -27 -2 -37 -6c-11 -2 -14 3 -9 14l30 80c-131 5 -197 70 -197 194v153c0 61 18 109 53 142c37 35 90 52 160 52c111 0 179 -46 206 -137c3 -8 0 -14 -7 -17l-17 -6c-8 -3 -13 0 -16 8c-23 75 -79 113 -168 113c-55 0 -97 -14 -126 -41s-43 -64 -43 -112v-156
c0 -48 14 -86 43 -113c30 -27 72 -41 126 -41c91 0 147 40 170 119c3 8 8 11 16 8z" />
    <glyph glyph-name="ccircumflex" unicode="&#x109;" horiz-adv-x="513" 
d="M264 707h5c8 0 16 -3 23 -10l130 -110c7 -7 5 -10 -6 -10h-18c-9 0 -15 2 -20 7l-112 93l-114 -93c-5 -5 -11 -7 -18 -7h-18c-11 0 -13 3 -6 10l130 110c7 7 15 10 24 10zM53 180v153c0 61 18 109 53 142c37 35 90 52 160 52c111 0 179 -46 206 -137c3 -8 0 -14 -7 -17
l-17 -6c-8 -3 -13 0 -16 8c-23 75 -79 113 -168 113c-55 0 -97 -14 -126 -41s-43 -64 -43 -112v-156c0 -48 14 -86 43 -113c30 -27 72 -41 126 -41c91 0 147 40 170 119c3 8 8 11 16 8l18 -6c8 -3 10 -9 7 -16c-29 -96 -100 -144 -211 -144c-69 0 -121 17 -158 52
c-35 33 -53 81 -53 142z" />
    <glyph glyph-name="cdotaccent" unicode="&#x10b;" horiz-adv-x="513" 
d="M264 669h4c16 0 24 -8 24 -24v-4c0 -16 -8 -24 -24 -24h-4c-16 0 -24 8 -24 24v4c0 16 8 24 24 24zM53 180v153c0 61 18 109 53 142c37 35 90 52 160 52c111 0 179 -46 206 -137c3 -8 0 -14 -7 -17l-17 -6c-8 -3 -13 0 -16 8c-23 75 -79 113 -168 113
c-55 0 -97 -14 -126 -41s-43 -64 -43 -112v-156c0 -48 14 -86 43 -113c30 -27 72 -41 126 -41c91 0 147 40 170 119c3 8 8 11 16 8l18 -6c8 -3 10 -9 7 -16c-29 -96 -100 -144 -211 -144c-69 0 -121 17 -158 52c-35 33 -53 81 -53 142z" />
    <glyph glyph-name="d" unicode="d" horiz-adv-x="534" 
d="M54 185v146c0 131 64 196 192 196c58 0 117 -12 177 -36v237c0 8 4 12 12 12h19c8 0 12 -4 12 -12v-658c0 -26 -13 -44 -40 -55c-48 -19 -103 -29 -165 -29c-138 0 -207 66 -207 199zM423 82v367c-53 25 -110 38 -171 38c-104 0 -156 -52 -156 -157v-144
c0 -107 56 -161 168 -161c48 0 93 8 135 23c16 7 24 19 24 34z" />
    <glyph glyph-name="eth" unicode="&#xf0;" horiz-adv-x="550" 
d="M370 687l57 59c3 3 7 4 12 1l11 -9c5 -3 5 -7 0 -11l-55 -58c60 -54 90 -143 90 -268v-226c0 -59 -18 -106 -55 -139s-91 -50 -161 -50c-71 0 -125 17 -162 50s-55 79 -55 139v140c0 59 18 106 54 139c37 34 89 51 156 51c93 0 154 -30 181 -91c-1 105 -27 179 -76 224
l-79 -82c-3 -3 -7 -3 -11 0l-11 8c-4 4 -4 8 0 11l76 79c-47 31 -113 47 -198 47c-8 0 -12 4 -13 12v16c0 8 4 12 12 12c97 0 172 -18 227 -54zM442 175v141c0 47 -15 84 -44 110c-30 27 -73 40 -129 40c-116 0 -174 -50 -174 -151v-140c0 -100 58 -150 174 -150
c56 0 99 13 129 40c29 26 44 63 44 110z" />
    <glyph glyph-name="dcaron" unicode="&#x10f;" horiz-adv-x="559" 
d="M54 185v146c0 131 64 196 192 196c58 0 117 -12 177 -36v237c0 8 4 12 12 12h19c8 0 12 -4 12 -12v-658c0 -26 -13 -44 -40 -55c-48 -19 -103 -29 -165 -29c-138 0 -207 66 -207 199zM634 728l-53 -208c-2 -7 -6 -11 -13 -11h-11c-7 0 -10 3 -9 9l45 210c1 8 5 12 13 12
h17c9 0 13 -4 11 -12zM423 82v367c-53 25 -110 38 -171 38c-104 0 -156 -52 -156 -157v-144c0 -107 56 -161 168 -161c48 0 93 8 135 23c16 7 24 19 24 34z" />
    <glyph glyph-name="dslash" unicode="&#x111;" horiz-adv-x="536" 
d="M467 647h74c7 0 10 -3 10 -10v-9c0 -7 -3 -10 -10 -10h-74v-548c0 -26 -13 -44 -39 -55c-49 -19 -104 -29 -165 -29c-139 0 -208 66 -208 199v146c0 130 64 195 192 195c62 0 121 -12 177 -35v127h-168c-6 0 -9 3 -9 10v9c0 7 3 10 9 10h168v81c0 8 4 12 12 12h20
c7 0 11 -4 11 -12v-81zM424 82v367c-53 25 -109 38 -170 38c-104 0 -156 -52 -156 -157v-144c0 -107 56 -161 168 -161c49 0 93 8 134 23c16 7 24 19 24 34z" />
    <glyph glyph-name="e" unicode="e" horiz-adv-x="527" 
d="M51 183v135c0 65 18 116 55 153s91 56 161 56c71 0 125 -19 162 -57c36 -37 54 -87 54 -150v-51c0 -15 -8 -22 -23 -22h-366v-68c0 -104 56 -156 167 -156c82 0 141 33 177 98c5 7 11 9 18 5l14 -8c8 -4 9 -10 4 -18c-41 -76 -112 -114 -213 -114c-69 0 -122 18 -159 54
c-34 34 -51 82 -51 143zM440 282v40c0 52 -14 93 -43 122c-30 30 -73 45 -130 45s-100 -15 -130 -45c-29 -29 -43 -70 -43 -122v-40h346z" />
    <glyph glyph-name="eacute" unicode="&#xe9;" horiz-adv-x="527" 
d="M167 609l170 107c9 5 16 5 22 -1l10 -11c5 -7 5 -12 -2 -15l-178 -103c-7 -3 -13 -2 -16 2l-7 8c-5 5 -4 10 1 13zM51 183v135c0 65 18 116 55 153s91 56 161 56c71 0 125 -19 162 -57c36 -37 54 -87 54 -150v-51c0 -15 -8 -22 -23 -22h-366v-68c0 -104 56 -156 167 -156
c82 0 141 33 177 98c5 7 11 9 18 5l14 -8c8 -4 9 -10 4 -18c-41 -76 -112 -114 -213 -114c-69 0 -122 18 -159 54c-34 34 -51 82 -51 143zM440 282v40c0 52 -14 93 -43 122c-30 30 -73 45 -130 45s-100 -15 -130 -45c-29 -29 -43 -70 -43 -122v-40h346z" />
    <glyph glyph-name="ebreve" unicode="&#x115;" horiz-adv-x="527" 
d="M417 695c-21 -74 -71 -111 -150 -111s-129 37 -150 111c-2 6 0 10 6 12l16 6c6 2 10 0 12 -5c17 -60 55 -90 116 -90s99 30 116 90c2 5 6 7 11 5l18 -6c5 -3 6 -7 5 -12zM51 183v135c0 65 18 116 55 153s91 56 161 56c71 0 125 -19 162 -57c36 -37 54 -87 54 -150v-51
c0 -15 -8 -22 -23 -22h-366v-68c0 -104 56 -156 167 -156c82 0 141 33 177 98c5 7 11 9 18 5l14 -8c8 -4 9 -10 4 -18c-41 -76 -112 -114 -213 -114c-69 0 -122 18 -159 54c-34 34 -51 82 -51 143zM440 282v40c0 52 -14 93 -43 122c-30 30 -73 45 -130 45s-100 -15 -130 -45
c-29 -29 -43 -70 -43 -122v-40h346z" />
    <glyph glyph-name="ecaron" unicode="&#x11b;" horiz-adv-x="527" 
d="M390 697h16c10 0 12 -3 6 -9l-121 -104c-7 -7 -15 -10 -22 -10h-5c-8 0 -15 3 -22 10l-122 104c-6 6 -5 9 4 9h18c7 0 13 -2 18 -6l106 -88l105 88c5 4 11 6 19 6zM51 183v135c0 65 18 116 55 153s91 56 161 56c71 0 125 -19 162 -57c36 -37 54 -87 54 -150v-51
c0 -15 -8 -22 -23 -22h-366v-68c0 -104 56 -156 167 -156c82 0 141 33 177 98c5 7 11 9 18 5l14 -8c8 -4 9 -10 4 -18c-41 -76 -112 -114 -213 -114c-69 0 -122 18 -159 54c-34 34 -51 82 -51 143zM440 282v40c0 52 -14 93 -43 122c-30 30 -73 45 -130 45s-100 -15 -130 -45
c-29 -29 -43 -70 -43 -122v-40h346z" />
    <glyph glyph-name="ecircumflex" unicode="&#xea;" horiz-adv-x="527" 
d="M265 708h5c8 0 16 -4 23 -11l130 -109c7 -7 5 -10 -6 -10h-18c-9 0 -15 2 -20 7l-112 93l-114 -93c-5 -5 -11 -7 -18 -7h-18c-11 0 -13 3 -6 10l130 109c7 7 15 11 24 11zM51 183v135c0 65 18 116 55 153s91 56 161 56c71 0 125 -19 162 -57c36 -37 54 -87 54 -150v-51
c0 -15 -8 -22 -23 -22h-366v-68c0 -104 56 -156 167 -156c82 0 141 33 177 98c5 7 11 9 18 5l14 -8c8 -4 9 -10 4 -18c-41 -76 -112 -114 -213 -114c-69 0 -122 18 -159 54c-34 34 -51 82 -51 143zM440 282v40c0 52 -14 93 -43 122c-30 30 -73 45 -130 45s-100 -15 -130 -45
c-29 -29 -43 -70 -43 -122v-40h346z" />
    <glyph glyph-name="edieresis" unicode="&#xeb;" horiz-adv-x="527" 
d="M168 677h6c15 0 23 -8 23 -23v-7c0 -15 -8 -22 -23 -22h-6c-15 0 -23 7 -23 22v7c0 15 8 23 23 23zM360 677h5c15 0 23 -8 23 -23v-7c0 -15 -8 -22 -23 -22h-5c-16 0 -24 7 -24 22v7c0 15 8 23 24 23zM51 183v135c0 65 18 116 55 153s91 56 161 56c71 0 125 -19 162 -57
c36 -37 54 -87 54 -150v-51c0 -15 -8 -22 -23 -22h-366v-68c0 -104 56 -156 167 -156c82 0 141 33 177 98c5 7 11 9 18 5l14 -8c8 -4 9 -10 4 -18c-41 -76 -112 -114 -213 -114c-69 0 -122 18 -159 54c-34 34 -51 82 -51 143zM440 282v40c0 52 -14 93 -43 122
c-30 30 -73 45 -130 45s-100 -15 -130 -45c-29 -29 -43 -70 -43 -122v-40h346z" />
    <glyph glyph-name="edotaccent" unicode="&#x117;" horiz-adv-x="527" 
d="M265 670h4c16 0 24 -8 24 -24v-5c0 -16 -8 -24 -24 -24h-4c-16 0 -24 8 -24 24v5c0 16 8 24 24 24zM51 183v135c0 65 18 116 55 153s91 56 161 56c71 0 125 -19 162 -57c36 -37 54 -87 54 -150v-51c0 -15 -8 -22 -23 -22h-366v-68c0 -104 56 -156 167 -156
c82 0 141 33 177 98c5 7 11 9 18 5l14 -8c8 -4 9 -10 4 -18c-41 -76 -112 -114 -213 -114c-69 0 -122 18 -159 54c-34 34 -51 82 -51 143zM440 282v40c0 52 -14 93 -43 122c-30 30 -73 45 -130 45s-100 -15 -130 -45c-29 -29 -43 -70 -43 -122v-40h346z" />
    <glyph glyph-name="egrave" unicode="&#xe8;" horiz-adv-x="527" 
d="M166 704l9 11c6 6 13 6 22 1l170 -107c5 -3 6 -8 1 -13l-7 -8c-3 -4 -9 -5 -16 -2l-177 103c-7 3 -8 8 -2 15zM51 183v135c0 65 18 116 55 153s91 56 161 56c71 0 125 -19 162 -57c36 -37 54 -87 54 -150v-51c0 -15 -8 -22 -23 -22h-366v-68c0 -104 56 -156 167 -156
c82 0 141 33 177 98c5 7 11 9 18 5l14 -8c8 -4 9 -10 4 -18c-41 -76 -112 -114 -213 -114c-69 0 -122 18 -159 54c-34 34 -51 82 -51 143zM440 282v40c0 52 -14 93 -43 122c-30 30 -73 45 -130 45s-100 -15 -130 -45c-29 -29 -43 -70 -43 -122v-40h346z" />
    <glyph glyph-name="emacron" unicode="&#x113;" horiz-adv-x="527" 
d="M158 653h218c7 0 10 -3 10 -10v-11c0 -7 -3 -10 -10 -10h-218c-7 0 -10 3 -10 10v11c0 7 3 10 10 10zM51 183v135c0 65 18 116 55 153s91 56 161 56c71 0 125 -19 162 -57c36 -37 54 -87 54 -150v-51c0 -15 -8 -22 -23 -22h-366v-68c0 -104 56 -156 167 -156
c82 0 141 33 177 98c5 7 11 9 18 5l14 -8c8 -4 9 -10 4 -18c-41 -76 -112 -114 -213 -114c-69 0 -122 18 -159 54c-34 34 -51 82 -51 143zM440 282v40c0 52 -14 93 -43 122c-30 30 -73 45 -130 45s-100 -15 -130 -45c-29 -29 -43 -70 -43 -122v-40h346z" />
    <glyph glyph-name="eogonek" unicode="&#x119;" horiz-adv-x="527" 
d="M51 183v135c0 65 18 116 55 153s91 56 161 56c71 0 125 -19 162 -57c36 -37 54 -87 54 -150v-51c0 -15 -8 -22 -23 -22h-366v-68c0 -104 56 -156 167 -156c82 0 141 33 177 98c5 7 11 9 18 5l14 -8c8 -4 9 -10 4 -18c-13 -25 -28 -44 -45 -59c-38 -39 -67 -81 -88 -126
c-20 -43 -26 -75 -18 -96s23 -32 46 -32s44 9 63 28c5 3 7 3 8 -2l6 -14c1 -4 1 -7 -2 -10c-24 -24 -53 -36 -87 -36c-39 0 -62 16 -71 47c-19 53 9 122 82 206c-30 -13 -66 -20 -107 -20c-69 0 -122 18 -159 54c-34 34 -51 82 -51 143zM440 282v40c0 52 -14 93 -43 122
c-30 30 -73 45 -130 45s-100 -15 -130 -45c-29 -29 -43 -70 -43 -122v-40h346z" />
    <glyph glyph-name="f" unicode="f" horiz-adv-x="344" 
d="M315 740h7c8 0 12 -4 12 -12v-17c0 -7 -4 -11 -12 -11c-61 0 -103 -10 -124 -31c-23 -22 -34 -63 -34 -124v-33h160c8 0 12 -4 12 -11v-17c0 -7 -4 -11 -12 -11h-160v-461c0 -8 -4 -12 -12 -12h-19c-8 0 -12 4 -12 12v461h-103c-8 0 -12 4 -12 11v17c0 7 4 11 12 11h103
v33c0 72 15 123 44 152c29 28 79 42 150 43z" />
    <glyph glyph-name="g" unicode="g" horiz-adv-x="534" 
d="M53 185v140c0 135 70 202 210 202c63 0 117 -10 164 -29c26 -11 39 -30 39 -55v-480c0 -144 -69 -216 -207 -216c-91 0 -156 38 -194 113c-5 9 -3 15 5 19l14 7c7 4 13 2 18 -5c32 -63 84 -95 156 -95c110 0 165 58 165 175v68c-57 -24 -116 -36 -178 -36
c-128 0 -192 64 -192 192zM398 464c-41 15 -85 23 -132 23c-113 0 -170 -54 -170 -163v-138c0 -103 51 -154 154 -154c56 0 114 12 173 37v362c0 15 -8 26 -25 33z" />
    <glyph glyph-name="gbreve" unicode="&#x11f;" horiz-adv-x="534" 
d="M424 695c-21 -75 -72 -112 -151 -112s-128 37 -149 112c-2 5 0 9 5 11l16 6c6 2 10 0 13 -5c15 -60 54 -90 115 -90c62 0 101 30 116 90c3 5 6 6 11 5l18 -6c6 -2 8 -6 6 -11zM53 185v140c0 135 70 202 210 202c63 0 117 -10 164 -29c26 -11 39 -30 39 -55v-480
c0 -144 -69 -216 -207 -216c-91 0 -156 38 -194 113c-5 9 -3 15 5 19l14 7c7 4 13 2 18 -5c32 -63 84 -95 156 -95c110 0 165 58 165 175v68c-57 -24 -116 -36 -178 -36c-128 0 -192 64 -192 192zM398 464c-41 15 -85 23 -132 23c-113 0 -170 -54 -170 -163v-138
c0 -103 51 -154 154 -154c56 0 114 12 173 37v362c0 15 -8 26 -25 33z" />
    <glyph glyph-name="gcircumflex" unicode="&#x11d;" horiz-adv-x="534" 
d="M271 707h6c7 0 15 -3 23 -10l129 -110c7 -7 5 -10 -6 -10h-18c-9 0 -15 2 -20 7l-112 93l-113 -93c-5 -5 -11 -7 -19 -7h-18c-9 0 -11 3 -6 10l131 110c7 7 15 10 23 10zM53 185v140c0 135 70 202 210 202c63 0 117 -10 164 -29c26 -11 39 -30 39 -55v-480
c0 -144 -69 -216 -207 -216c-91 0 -156 38 -194 113c-5 9 -3 15 5 19l14 7c7 4 13 2 18 -5c32 -63 84 -95 156 -95c110 0 165 58 165 175v68c-57 -24 -116 -36 -178 -36c-128 0 -192 64 -192 192zM398 464c-41 15 -85 23 -132 23c-113 0 -170 -54 -170 -163v-138
c0 -103 51 -154 154 -154c56 0 114 12 173 37v362c0 15 -8 26 -25 33z" />
    <glyph glyph-name="uni0123" unicode="&#x123;" horiz-adv-x="534" 
d="M237 589l53 132c3 8 8 12 15 12h11c8 0 11 -3 9 -10l-46 -134c-3 -9 -8 -13 -16 -13h-16c-11 0 -14 4 -10 13zM53 185v140c0 135 70 202 210 202c63 0 117 -10 164 -29c26 -11 39 -30 39 -55v-480c0 -144 -69 -216 -207 -216c-91 0 -156 38 -194 113c-5 9 -3 15 5 19
l14 7c7 4 13 2 18 -5c32 -63 84 -95 156 -95c110 0 165 58 165 175v68c-57 -24 -116 -36 -178 -36c-128 0 -192 64 -192 192zM398 464c-41 15 -85 23 -132 23c-113 0 -170 -54 -170 -163v-138c0 -103 51 -154 154 -154c56 0 114 12 173 37v362c0 15 -8 26 -25 33z" />
    <glyph glyph-name="gdotaccent" unicode="&#x121;" horiz-adv-x="534" 
d="M271 669h5c15 0 23 -8 23 -24v-4c0 -16 -8 -24 -23 -24h-5c-16 0 -24 8 -24 24v4c0 16 8 24 24 24zM53 185v140c0 135 70 202 210 202c63 0 117 -10 164 -29c26 -11 39 -30 39 -55v-480c0 -144 -69 -216 -207 -216c-91 0 -156 38 -194 113c-5 9 -3 15 5 19l14 7
c7 4 13 2 18 -5c32 -63 84 -95 156 -95c110 0 165 58 165 175v68c-57 -24 -116 -36 -178 -36c-128 0 -192 64 -192 192zM398 464c-41 15 -85 23 -132 23c-113 0 -170 -54 -170 -163v-138c0 -103 51 -154 154 -154c56 0 114 12 173 37v362c0 15 -8 26 -25 33z" />
    <glyph glyph-name="h" unicode="h" horiz-adv-x="549" 
d="M83 740h19c8 0 12 -4 12 -12v-236c51 23 109 35 176 35c129 0 193 -64 193 -193v-322c0 -8 -4 -12 -11 -12h-20c-8 0 -12 4 -12 12v320c0 103 -52 155 -155 155c-65 0 -122 -12 -171 -36v-439c0 -8 -4 -12 -12 -12h-19c-8 0 -12 4 -12 12v716c0 8 4 12 12 12z" />
    <glyph glyph-name="hbar" unicode="&#x127;" horiz-adv-x="549" 
d="M113 623v-131c51 23 109 35 176 35c129 0 194 -64 194 -193v-322c0 -8 -4 -12 -12 -12h-20c-7 0 -11 4 -11 12v320c0 103 -52 155 -156 155c-64 0 -121 -12 -171 -36v-439c0 -8 -4 -12 -11 -12h-20c-8 0 -12 4 -12 12v611h-61c-7 0 -10 4 -10 11v8c0 7 3 10 10 10h61v76
c0 8 4 12 12 12h20c7 0 11 -4 11 -12v-76h168c6 0 9 -3 9 -10v-8c0 -7 -3 -11 -9 -11h-168z" />
    <glyph glyph-name="hcircumflex" unicode="&#x125;" horiz-adv-x="549" 
d="M90 917h5c8 0 16 -4 23 -11l127 -108c6 -6 4 -9 -6 -9h-17c-9 0 -15 2 -20 6l-110 92l-111 -92c-5 -4 -12 -6 -19 -6h-17c-10 0 -12 3 -6 9l128 108c7 7 15 11 23 11zM82 740h20c8 0 12 -4 12 -12v-236c51 23 109 35 175 35c129 0 194 -64 194 -193v-322
c0 -8 -4 -12 -11 -12h-20c-8 0 -12 4 -12 12v320c0 103 -52 155 -155 155c-65 0 -122 -12 -171 -36v-439c0 -8 -4 -12 -12 -12h-20c-7 0 -11 4 -11 12v716c0 8 4 12 11 12z" />
    <glyph glyph-name="i" unicode="i" horiz-adv-x="184" 
d="M90 691h5c17 0 25 -8 25 -25v-6c0 -17 -8 -26 -25 -26h-5c-17 0 -26 9 -26 26v6c0 17 9 25 26 25zM82 512h20c8 0 12 -4 12 -11v-489c0 -8 -4 -12 -12 -12h-20c-7 0 -11 4 -11 12v489c0 7 4 11 11 11z" />
    <glyph glyph-name="dotlessi" unicode="&#x131;" horiz-adv-x="184" 
d="M82 512h20c8 0 12 -4 12 -11v-489c0 -8 -4 -12 -12 -12h-20c-7 0 -11 4 -11 12v489c0 7 4 11 11 11z" />
    <glyph glyph-name="iacute" unicode="&#xed;" horiz-adv-x="183" 
d="M8 608l134 103c9 5 16 5 21 -2l10 -11c5 -7 4 -11 -3 -14l-142 -98c-7 -4 -12 -4 -16 0l-6 7c-4 7 -3 12 2 15zM81 512h19c8 0 12 -4 12 -11v-489c0 -8 -4 -12 -12 -12h-19c-8 0 -12 4 -12 12v489c0 7 4 11 12 11z" />
    <glyph glyph-name="ibreve" unicode="&#x12d;" horiz-adv-x="183" 
d="M192 710l17 -5c5 -3 7 -7 6 -12c-15 -71 -56 -107 -124 -107s-109 36 -122 107c-2 6 0 10 5 12l15 5c7 1 12 0 13 -5c9 -57 38 -85 89 -85s81 28 90 85c1 5 5 6 11 5zM82 512h19c8 0 12 -4 12 -11v-489c0 -8 -4 -12 -12 -12h-19c-8 0 -12 4 -12 12v489c0 7 4 11 12 11z
" />
    <glyph glyph-name="icircumflex" unicode="&#xee;" horiz-adv-x="183" 
d="M117 699l97 -104c7 -7 5 -10 -6 -10h-16c-10 0 -17 2 -20 7l-81 88l-81 -88c-3 -5 -10 -7 -19 -7h-17c-9 0 -11 3 -6 10l98 104c7 7 14 11 23 11h5c9 0 16 -4 23 -11zM82 512h19c8 0 12 -4 12 -11v-489c0 -8 -4 -12 -12 -12h-19c-8 0 -12 4 -12 12v489c0 7 4 11 12 11z
" />
    <glyph glyph-name="idieresis" unicode="&#xef;" horiz-adv-x="183" 
d="M18 691h6c15 0 23 -7 23 -22v-7c0 -15 -8 -23 -23 -23h-6c-15 0 -23 8 -23 23v7c0 15 8 22 23 22zM159 691h5c15 0 23 -7 23 -22v-7c0 -15 -8 -23 -23 -23h-5c-16 0 -24 8 -24 23v7c0 15 8 22 24 22zM82 512h19c8 0 12 -4 12 -11v-489c0 -8 -4 -12 -12 -12h-19
c-8 0 -12 4 -12 12v489c0 7 4 11 12 11z" />
    <glyph glyph-name="igrave" unicode="&#xec;" horiz-adv-x="183" 
d="M11 698l9 11c5 7 13 7 22 2l133 -102c5 -5 6 -10 2 -15l-6 -7c-3 -4 -8 -4 -16 -1l-142 98c-7 3 -8 7 -2 14zM81 512h20c8 0 12 -4 12 -11v-489c0 -8 -4 -12 -12 -12h-20c-7 0 -11 4 -11 12v489c0 7 4 11 11 11z" />
    <glyph glyph-name="ij" unicode="&#x133;" horiz-adv-x="429" 
d="M90 691h5c17 0 25 -8 25 -25v-6c0 -17 -8 -26 -25 -26h-5c-17 0 -26 9 -26 26v6c0 17 9 25 26 25zM334 691h5c17 0 26 -8 26 -25v-6c0 -17 -9 -26 -26 -26h-5c-17 0 -25 9 -25 26v6c0 17 8 25 25 25zM82 512h20c8 0 12 -4 12 -11v-489c0 -8 -4 -12 -12 -12h-20
c-7 0 -11 4 -11 12v489c0 7 4 11 11 11zM327 512h19c8 0 12 -4 12 -11v-510c0 -74 -14 -128 -43 -163c-31 -39 -83 -58 -154 -58c-8 0 -12 4 -12 12v17c0 7 4 11 12 11c58 0 99 16 122 47c21 28 32 73 32 134v510c0 7 4 11 12 11z" />
    <glyph glyph-name="imacron" unicode="&#x12b;" horiz-adv-x="183" 
d="M18 660h148c4 0 6 -3 6 -10v-11c0 -7 -2 -11 -6 -11h-148c-5 0 -7 4 -7 11v11c0 7 2 10 7 10zM82 512h19c8 0 12 -4 12 -11v-489c0 -8 -4 -12 -12 -12h-19c-8 0 -12 4 -12 12v489c0 7 4 11 12 11z" />
    <glyph glyph-name="iogonek" unicode="&#x12f;" horiz-adv-x="184" 
d="M95 634h-5c-17 0 -26 9 -26 26v6c0 17 9 25 26 25h5c17 0 25 -8 25 -25v-6c0 -17 -8 -26 -25 -26zM153 -187l6 -11c3 -3 2 -7 -1 -10c-16 -25 -39 -38 -69 -38c-41 0 -64 19 -68 58c-5 64 14 127 58 190c-5 0 -8 3 -8 10v489c0 7 4 11 11 11h20c8 0 12 -4 12 -11v-489
c0 -5 -1 -8 -3 -9c-39 -67 -57 -127 -52 -178c2 -25 15 -38 40 -38c18 0 33 9 45 27c2 3 5 3 9 -1z" />
    <glyph glyph-name="itilde" unicode="&#x129;" horiz-adv-x="183" 
d="M185 703h11c5 0 7 -3 7 -8c0 -61 -19 -92 -56 -92c-20 0 -39 11 -57 34c-19 23 -35 34 -50 34c-25 0 -38 -20 -38 -60c0 -5 -2 -8 -7 -8h-11c-5 0 -7 3 -7 8c0 61 20 92 59 92c21 0 40 -12 59 -35c18 -23 34 -35 49 -35c23 0 34 21 34 62c0 5 2 8 7 8zM82 512h19
c8 0 12 -4 12 -11v-489c0 -8 -4 -12 -12 -12h-19c-8 0 -12 4 -12 12v489c0 7 4 11 12 11z" />
    <glyph glyph-name="j" unicode="j" horiz-adv-x="185" 
d="M90 691h5c17 0 26 -8 26 -25v-6c0 -17 -9 -26 -26 -26h-5c-17 0 -26 9 -26 26v6c0 17 9 25 26 25zM83 512h19c8 0 12 -4 12 -11v-510c0 -74 -14 -128 -43 -163c-31 -39 -83 -58 -154 -58c-8 0 -12 4 -12 12v17c0 7 4 11 12 11c57 0 98 16 122 47c21 28 32 73 32 134v510
c0 7 4 11 12 11z" />
    <glyph glyph-name="uni0237" unicode="&#x237;" horiz-adv-x="185" 
d="M83 512h19c8 0 12 -4 12 -11v-510c0 -74 -14 -128 -43 -163c-31 -39 -83 -58 -154 -58c-8 0 -12 4 -12 12v17c0 7 4 11 12 11c57 0 98 16 122 47c21 28 32 73 32 134v510c0 7 4 11 12 11z" />
    <glyph glyph-name="jcircumflex" unicode="&#x135;" horiz-adv-x="184" 
d="M89 708h6c9 0 16 -4 23 -11l106 -110c5 -7 3 -10 -6 -10h-17c-9 0 -16 2 -20 7l-89 94l-91 -94c-4 -5 -10 -7 -19 -7h-18c-9 0 -10 3 -5 10l107 110c7 7 14 11 23 11zM83 512h19c8 0 12 -4 12 -11v-510c0 -74 -14 -128 -43 -163c-31 -39 -83 -58 -154 -58
c-8 0 -12 4 -12 12v17c0 7 4 11 12 11c57 0 98 16 122 47c21 28 32 73 32 134v510c0 7 4 11 12 11z" />
    <glyph glyph-name="k" unicode="k" horiz-adv-x="499" 
d="M383 196l92 -183c4 -9 2 -13 -7 -13h-20c-9 0 -16 3 -19 10l-83 168c-21 44 -57 66 -106 66h-126v-232c0 -8 -4 -12 -12 -12h-19c-8 0 -12 4 -12 12v716c0 8 4 12 12 12h19c8 0 12 -4 12 -12v-445h131l174 220c4 6 12 9 23 9h17c13 0 15 -4 8 -13l-178 -223
c41 -8 72 -35 94 -80z" />
    <glyph glyph-name="uni0137" unicode="&#x137;" horiz-adv-x="499" 
d="M383 196l92 -183c4 -9 2 -13 -7 -13h-20c-9 0 -16 3 -19 10l-83 168c-21 44 -57 66 -106 66h-126v-232c0 -8 -4 -12 -12 -12h-19c-8 0 -12 4 -12 12v716c0 8 4 12 12 12h19c8 0 12 -4 12 -12v-445h131l174 220c4 6 12 9 23 9h17c13 0 15 -4 8 -13l-178 -223
c41 -8 72 -35 94 -80zM296 -67l-42 -149c-2 -8 -7 -12 -15 -12h-12c-7 0 -10 3 -9 10l35 151c1 9 6 13 15 13h17c10 0 14 -4 11 -13z" />
    <glyph glyph-name="kgreenlandic" unicode="&#x138;" horiz-adv-x="459" 
d="M240 294l199 -279c7 -10 5 -15 -7 -15h-19c-11 0 -19 3 -24 10l-178 251l-97 -103v-146c0 -8 -4 -12 -12 -12h-19c-8 0 -12 4 -12 12v489c0 7 4 11 12 11h19c8 0 12 -4 12 -11v-283l267 285c5 6 14 9 25 9h17c13 0 16 -4 7 -13z" />
    <glyph glyph-name="l" unicode="l" horiz-adv-x="192" 
d="M117 728v-716c0 -8 -4 -12 -11 -12h-20c-7 0 -11 4 -11 12v716c0 8 4 12 11 12h20c7 0 11 -4 11 -12z" />
    <glyph glyph-name="lacute" unicode="&#x13a;" horiz-adv-x="192" 
d="M10 800l138 82c8 4 15 3 20 -3l11 -13c5 -7 4 -11 -3 -14l-146 -76c-7 -3 -12 -2 -16 1l-7 9c-3 7 -2 11 3 14zM116 728v-716c0 -8 -4 -12 -11 -12h-20c-8 0 -12 4 -12 12v716c0 8 4 12 12 12h20c7 0 11 -4 11 -12z" />
    <glyph glyph-name="lcaron" unicode="&#x13e;" horiz-adv-x="198" 
d="M117 728v-716c0 -8 -4 -12 -11 -12h-20c-7 0 -11 4 -11 12v716c0 8 4 12 11 12h20c7 0 11 -4 11 -12zM286 727l-43 -178c-3 -7 -7 -11 -14 -11h-11c-6 0 -9 3 -8 10l33 180c1 8 6 12 15 12h18c11 0 14 -4 10 -13z" />
    <glyph glyph-name="uni013C" unicode="&#x13c;" horiz-adv-x="192" 
d="M116 728v-716c0 -8 -4 -12 -11 -12h-20c-7 0 -11 4 -11 12v716c0 8 4 12 11 12h20c7 0 11 -4 11 -12zM119 -52l-41 -156c-3 -8 -8 -12 -15 -12h-11c-7 0 -10 3 -9 10l35 158c1 9 6 13 15 13h16c11 0 14 -4 10 -13z" />
    <glyph glyph-name="ldot" unicode="&#x140;" horiz-adv-x="298" 
d="M117 728v-716c0 -8 -4 -12 -11 -12h-20c-7 0 -11 4 -11 12v716c0 8 4 12 11 12h20c7 0 11 -4 11 -12zM243 404h5c19 0 28 -9 28 -27v-6c0 -18 -9 -27 -28 -27h-5c-18 0 -27 9 -27 27v6c0 18 9 27 27 27z" />
    <glyph glyph-name="lslash" unicode="&#x142;" horiz-adv-x="261" 
d="M242 448l8 -12c3 -5 1 -9 -5 -12l-97 -58v-354c0 -8 -4 -12 -11 -12h-20c-8 0 -12 4 -12 12v330l-75 -45c-6 -3 -10 -2 -13 3l-8 13c-3 5 -1 10 4 13l92 54v348c0 8 4 12 12 12h20c7 0 11 -4 11 -12v-324l80 47c5 3 10 2 14 -3z" />
    <glyph glyph-name="m" unicode="m" horiz-adv-x="813" 
d="M387 479c56 32 117 48 183 48c117 0 176 -62 176 -186v-329c0 -8 -4 -12 -12 -12h-19c-8 0 -12 4 -12 12v327c0 99 -46 148 -138 148c-54 0 -106 -14 -155 -41c16 -27 24 -62 24 -105v-329c0 -8 -4 -12 -12 -12h-19c-8 0 -12 4 -12 12v327c0 99 -47 148 -142 148
c-44 0 -83 -8 -117 -24c-14 -7 -21 -18 -21 -35v-416c0 -8 -4 -12 -11 -12h-20c-8 0 -12 4 -12 12v427c0 26 13 45 38 57c45 21 95 31 148 31c59 0 103 -16 133 -48z" />
    <glyph glyph-name="n" unicode="n" horiz-adv-x="547" 
d="M106 494c56 22 116 33 181 33c129 0 194 -64 194 -193v-322c0 -8 -4 -12 -12 -12h-20c-7 0 -11 4 -11 12v320c0 103 -52 155 -156 155c-54 0 -104 -9 -150 -26c-14 -7 -21 -18 -21 -33v-416c0 -8 -4 -12 -11 -12h-20c-8 0 -12 4 -12 12v427c0 26 13 44 38 55z" />
    <glyph glyph-name="nacute" unicode="&#x144;" horiz-adv-x="547" 
d="M172 609l169 107c9 5 17 5 23 -1l9 -11c6 -7 5 -12 -2 -15l-177 -103c-7 -3 -13 -2 -16 2l-7 8c-5 5 -4 10 1 13zM106 494c56 22 116 33 181 33c129 0 194 -64 194 -193v-322c0 -8 -4 -12 -12 -12h-20c-7 0 -11 4 -11 12v320c0 103 -52 155 -156 155
c-54 0 -104 -9 -150 -26c-14 -7 -21 -18 -21 -33v-416c0 -8 -4 -12 -11 -12h-20c-8 0 -12 4 -12 12v427c0 26 13 44 38 55z" />
    <glyph glyph-name="napostrophe" unicode="&#x149;" horiz-adv-x="547" 
d="M167 727l-90 -179c-3 -6 -8 -9 -15 -9h-11c-7 0 -9 3 -6 10l80 180c3 7 7 11 14 11h20c10 0 13 -4 8 -13zM105 494c56 22 116 33 181 33c129 0 194 -64 194 -193v-322c0 -8 -4 -12 -12 -12h-20c-7 0 -11 4 -11 12v320c0 103 -52 155 -156 155c-54 0 -104 -9 -150 -26
c-14 -7 -21 -18 -21 -33v-416c0 -8 -4 -12 -11 -12h-20c-8 0 -12 4 -12 12v427c0 26 13 44 38 55z" />
    <glyph glyph-name="ncaron" unicode="&#x148;" horiz-adv-x="547" 
d="M394 697h17c11 0 12 -3 5 -9l-121 -104c-7 -7 -14 -10 -21 -10h-5c-8 0 -15 3 -22 10l-123 104c-5 6 -3 9 5 9h18c7 0 12 -2 17 -6l107 -88l105 88c4 4 10 6 18 6zM106 494c56 22 116 33 181 33c129 0 194 -64 194 -193v-322c0 -8 -4 -12 -12 -12h-20c-7 0 -11 4 -11 12
v320c0 103 -52 155 -156 155c-54 0 -104 -9 -150 -26c-14 -7 -21 -18 -21 -33v-416c0 -8 -4 -12 -11 -12h-20c-8 0 -12 4 -12 12v427c0 26 13 44 38 55z" />
    <glyph glyph-name="uni0146" unicode="&#x146;" horiz-adv-x="547" 
d="M106 494c56 22 116 33 181 33c129 0 194 -64 194 -193v-322c0 -8 -4 -12 -12 -12h-20c-7 0 -11 4 -11 12v320c0 103 -52 155 -156 155c-54 0 -104 -9 -150 -26c-14 -7 -21 -18 -21 -33v-416c0 -8 -4 -12 -11 -12h-20c-8 0 -12 4 -12 12v427c0 26 13 44 38 55zM304 -52
l-41 -153c-3 -8 -8 -12 -15 -12h-12c-7 0 -10 3 -9 10l35 155c1 9 6 13 15 13h17c9 0 13 -4 10 -13z" />
    <glyph glyph-name="eng" unicode="&#x14b;" horiz-adv-x="547" 
d="M106 494c56 22 116 33 181 33c129 0 194 -64 194 -193v-349c0 -67 -19 -120 -57 -158s-92 -57 -162 -57c-7 0 -11 4 -11 11v17c0 7 4 11 11 11c57 0 100 16 131 47c30 31 45 75 45 130v346c0 103 -52 155 -156 155c-54 0 -104 -9 -150 -26c-14 -7 -21 -18 -21 -33v-416
c0 -8 -4 -12 -11 -12h-20c-8 0 -12 4 -12 12v427c0 26 13 44 38 55z" />
    <glyph glyph-name="ntilde" unicode="&#xf1;" horiz-adv-x="547" 
d="M403 697h13c5 0 8 -3 8 -8c0 -63 -25 -94 -75 -94c-24 0 -51 12 -82 36c-30 24 -54 36 -73 36c-33 0 -49 -21 -49 -63c0 -6 -3 -9 -8 -9h-13c-5 0 -8 3 -8 9c0 62 25 93 75 93c25 0 53 -12 83 -36c31 -24 55 -36 73 -36c32 0 48 21 48 64c0 5 3 8 8 8zM106 494
c56 22 116 33 181 33c129 0 194 -64 194 -193v-322c0 -8 -4 -12 -12 -12h-20c-7 0 -11 4 -11 12v320c0 103 -52 155 -156 155c-54 0 -104 -9 -150 -26c-14 -7 -21 -18 -21 -33v-416c0 -8 -4 -12 -11 -12h-20c-8 0 -12 4 -12 12v427c0 26 13 44 38 55z" />
    <glyph glyph-name="o" unicode="o" horiz-adv-x="537" 
d="M54 161v190c0 54 19 97 58 129c39 31 91 47 156 47c66 0 118 -16 157 -47s58 -74 58 -129v-190c0 -54 -19 -97 -58 -128s-91 -47 -157 -47c-65 0 -117 16 -156 47s-58 74 -58 128zM440 161v191c0 42 -16 75 -47 100c-31 24 -73 36 -125 36c-51 0 -93 -12 -124 -36
c-31 -25 -47 -59 -47 -100v-191c0 -41 16 -74 47 -99s73 -37 124 -37c52 0 94 12 125 37c31 24 47 57 47 99z" />
    <glyph glyph-name="oacute" unicode="&#xf3;" horiz-adv-x="537" 
d="M169 609l169 106c9 6 17 6 22 -1l10 -11c5 -7 5 -12 -2 -15l-178 -102c-7 -3 -13 -3 -16 1l-6 8c-5 6 -5 11 1 14zM54 161v190c0 54 19 97 58 129c39 31 91 47 156 47c66 0 118 -16 157 -47s58 -74 58 -129v-190c0 -54 -19 -97 -58 -128s-91 -47 -157 -47
c-65 0 -117 16 -156 47s-58 74 -58 128zM440 161v191c0 42 -16 75 -47 100c-31 24 -73 36 -125 36c-51 0 -93 -12 -124 -36c-31 -25 -47 -59 -47 -100v-191c0 -41 16 -74 47 -99s73 -37 124 -37c52 0 94 12 125 37c31 24 47 57 47 99z" />
    <glyph glyph-name="obreve" unicode="&#x14f;" horiz-adv-x="537" 
d="M418 695c-21 -75 -71 -112 -150 -112s-128 37 -149 112c-3 5 -1 9 5 11l16 6c6 2 10 0 12 -5c17 -60 55 -90 116 -90s99 30 116 90c3 5 6 6 11 5l18 -6c5 -2 7 -6 5 -11zM54 161v190c0 54 19 97 58 129c39 31 91 47 156 47c66 0 118 -16 157 -47s58 -74 58 -129v-190
c0 -54 -19 -97 -58 -128s-91 -47 -157 -47c-65 0 -117 16 -156 47s-58 74 -58 128zM440 161v191c0 42 -16 75 -47 100c-31 24 -73 36 -125 36c-51 0 -93 -12 -124 -36c-31 -25 -47 -59 -47 -100v-191c0 -41 16 -74 47 -99s73 -37 124 -37c52 0 94 12 125 37
c31 24 47 57 47 99z" />
    <glyph glyph-name="ocircumflex" unicode="&#xf4;" horiz-adv-x="537" 
d="M266 707h5c8 0 16 -3 23 -10l130 -110c7 -7 5 -10 -6 -10h-18c-9 0 -15 2 -20 7l-112 93l-113 -93c-5 -5 -12 -7 -19 -7h-18c-11 0 -13 3 -6 10l131 110c7 7 14 10 23 10zM54 161v190c0 54 19 97 58 129c39 31 91 47 156 47c66 0 118 -16 157 -47s58 -74 58 -129v-190
c0 -54 -19 -97 -58 -128s-91 -47 -157 -47c-65 0 -117 16 -156 47s-58 74 -58 128zM440 161v191c0 42 -16 75 -47 100c-31 24 -73 36 -125 36c-51 0 -93 -12 -124 -36c-31 -25 -47 -59 -47 -100v-191c0 -41 16 -74 47 -99s73 -37 124 -37c52 0 94 12 125 37
c31 24 47 57 47 99z" />
    <glyph glyph-name="odieresis" unicode="&#xf6;" horiz-adv-x="537" 
d="M169 676h7c15 0 22 -8 22 -23v-7c0 -15 -7 -22 -22 -22h-7c-15 0 -22 7 -22 22v7c0 15 7 23 22 23zM361 676h5c16 0 24 -8 24 -23v-7c0 -15 -8 -22 -24 -22h-5c-16 0 -24 7 -24 22v7c0 15 8 23 24 23zM54 161v190c0 54 19 97 58 129c39 31 91 47 156 47
c66 0 118 -16 157 -47s58 -74 58 -129v-190c0 -54 -19 -97 -58 -128s-91 -47 -157 -47c-65 0 -117 16 -156 47s-58 74 -58 128zM440 161v191c0 42 -16 75 -47 100c-31 24 -73 36 -125 36c-51 0 -93 -12 -124 -36c-31 -25 -47 -59 -47 -100v-191c0 -41 16 -74 47 -99
s73 -37 124 -37c52 0 94 12 125 37c31 24 47 57 47 99z" />
    <glyph glyph-name="ograve" unicode="&#xf2;" horiz-adv-x="537" 
d="M167 703l9 11c5 6 13 6 23 1l169 -106c6 -3 6 -8 1 -14l-7 -8c-3 -4 -8 -4 -16 -1l-177 102c-7 3 -8 8 -2 15zM54 161v190c0 54 19 97 58 129c39 31 91 47 156 47c66 0 118 -16 157 -47s58 -74 58 -129v-190c0 -54 -19 -97 -58 -128s-91 -47 -157 -47
c-65 0 -117 16 -156 47s-58 74 -58 128zM440 161v191c0 42 -16 75 -47 100c-31 24 -73 36 -125 36c-51 0 -93 -12 -124 -36c-31 -25 -47 -59 -47 -100v-191c0 -41 16 -74 47 -99s73 -37 124 -37c52 0 94 12 125 37c31 24 47 57 47 99z" />
    <glyph glyph-name="ohungarumlaut" unicode="&#x151;" horiz-adv-x="537" 
d="M144 587l93 103c6 7 12 9 19 7l14 -3c8 -3 9 -7 4 -12l-104 -105c-5 -5 -9 -6 -14 -4l-9 2c-6 3 -7 7 -3 12zM302 587l98 102c5 7 11 10 18 7l15 -4c9 -2 10 -6 4 -12l-109 -102c-5 -5 -10 -7 -14 -5l-9 3c-7 2 -8 6 -3 11zM54 161v190c0 54 19 97 58 129
c39 31 91 47 156 47c66 0 118 -16 157 -47s58 -74 58 -129v-190c0 -54 -19 -97 -58 -128s-91 -47 -157 -47c-65 0 -117 16 -156 47s-58 74 -58 128zM440 161v191c0 42 -16 75 -47 100c-31 24 -73 36 -125 36c-51 0 -93 -12 -124 -36c-31 -25 -47 -59 -47 -100v-191
c0 -41 16 -74 47 -99s73 -37 124 -37c52 0 94 12 125 37c31 24 47 57 47 99z" />
    <glyph glyph-name="omacron" unicode="&#x14d;" horiz-adv-x="537" 
d="M159 652h218c7 0 10 -3 10 -10v-10c0 -7 -3 -11 -10 -11h-218c-7 0 -10 4 -10 11v10c0 7 3 10 10 10zM54 161v190c0 54 19 97 58 129c39 31 91 47 156 47c66 0 118 -16 157 -47s58 -74 58 -129v-190c0 -54 -19 -97 -58 -128s-91 -47 -157 -47c-65 0 -117 16 -156 47
s-58 74 -58 128zM440 161v191c0 42 -16 75 -47 100c-31 24 -73 36 -125 36c-51 0 -93 -12 -124 -36c-31 -25 -47 -59 -47 -100v-191c0 -41 16 -74 47 -99s73 -37 124 -37c52 0 94 12 125 37c31 24 47 57 47 99z" />
    <glyph glyph-name="oslash" unicode="&#xf8;" horiz-adv-x="537" 
d="M447 552h20c3 0 4 -2 3 -5l-43 -68c37 -31 56 -74 56 -128v-190c0 -54 -19 -97 -58 -128s-91 -47 -157 -47c-53 0 -98 11 -133 32l-31 -48c-3 -3 -6 -5 -10 -5h-20c-5 0 -5 2 -2 5l40 63c-39 33 -58 75 -58 128v190c0 54 19 97 58 129c39 31 91 47 156 47
c55 0 100 -11 135 -33l35 54c2 3 5 4 9 4zM137 73l245 386c-32 19 -70 29 -114 29c-51 0 -93 -12 -124 -36c-31 -25 -47 -59 -47 -100v-191c0 -36 13 -65 40 -88zM401 439l-245 -386c31 -19 69 -28 112 -28c52 0 94 12 125 37c31 24 47 57 47 99v191c0 36 -13 65 -39 87z
" />
    <glyph glyph-name="oslashacute" unicode="&#x1ff;" horiz-adv-x="537" 
d="M169 609l169 106c9 6 17 6 22 -1l10 -11c5 -7 5 -12 -2 -15l-178 -102c-7 -3 -13 -3 -16 1l-6 8c-5 6 -5 11 1 14zM447 552h20c3 0 4 -2 3 -5l-43 -68c37 -31 56 -74 56 -128v-190c0 -54 -19 -97 -58 -128s-91 -47 -157 -47c-53 0 -98 11 -133 32l-31 -48
c-3 -3 -6 -5 -10 -5h-20c-5 0 -5 2 -2 5l40 63c-39 33 -58 75 -58 128v190c0 54 19 97 58 129c39 31 91 47 156 47c55 0 100 -11 135 -33l35 54c2 3 5 4 9 4zM137 73l245 386c-32 19 -70 29 -114 29c-51 0 -93 -12 -124 -36c-31 -25 -47 -59 -47 -100v-191
c0 -36 13 -65 40 -88zM401 439l-245 -386c31 -19 69 -28 112 -28c52 0 94 12 125 37c31 24 47 57 47 99v191c0 36 -13 65 -39 87z" />
    <glyph glyph-name="otilde" unicode="&#xf5;" horiz-adv-x="537" 
d="M399 697h14c5 0 8 -3 8 -9c0 -62 -25 -93 -75 -93c-24 0 -51 12 -82 36c-30 24 -55 36 -74 36c-32 0 -48 -21 -48 -64c0 -5 -3 -8 -8 -8h-14c-5 0 -8 3 -8 8c0 63 25 94 75 94c25 0 53 -12 84 -36c30 -24 54 -36 73 -36c31 0 47 21 47 63c0 6 3 9 8 9zM54 161v190
c0 54 19 97 58 129c39 31 91 47 156 47c66 0 118 -16 157 -47s58 -74 58 -129v-190c0 -54 -19 -97 -58 -128s-91 -47 -157 -47c-65 0 -117 16 -156 47s-58 74 -58 128zM440 161v191c0 42 -16 75 -47 100c-31 24 -73 36 -125 36c-51 0 -93 -12 -124 -36
c-31 -25 -47 -59 -47 -100v-191c0 -41 16 -74 47 -99s73 -37 124 -37c52 0 94 12 125 37c31 24 47 57 47 99z" />
    <glyph glyph-name="oe" unicode="&#x153;" horiz-adv-x="811" 
d="M413 423c25 69 80 104 165 104c125 0 188 -68 188 -205v-53c0 -15 -7 -22 -22 -22h-311v-69c0 -103 47 -155 142 -155c39 0 70 9 93 26c17 13 35 37 53 70c5 7 11 9 18 5l14 -7c8 -4 9 -10 4 -18c-19 -37 -41 -64 -64 -81c-29 -21 -69 -32 -119 -32
c-84 0 -138 33 -162 99c-25 -66 -81 -99 -168 -99c-57 0 -102 16 -136 47c-35 31 -52 74 -52 127v192c0 54 17 97 52 128c34 31 79 47 136 47c89 0 146 -35 169 -104zM724 282v42c0 110 -49 165 -146 165s-145 -55 -145 -165v-42h291zM390 160v192c0 41 -13 75 -40 100
c-27 24 -62 36 -106 36c-43 0 -78 -12 -105 -36c-27 -25 -40 -59 -40 -100v-192c0 -41 13 -74 40 -99c27 -24 62 -36 105 -36c44 0 79 12 106 36c27 25 40 58 40 99z" />
    <glyph glyph-name="p" unicode="p" horiz-adv-x="534" 
d="M108 498c48 19 104 29 167 29c137 0 206 -67 206 -200v-147c0 -129 -66 -194 -197 -194c-55 0 -113 14 -173 43v-237c0 -8 -4 -12 -11 -12h-20c-8 0 -12 4 -12 12v651c0 26 13 44 40 55zM438 181v145c0 107 -56 161 -168 161c-49 0 -93 -8 -134 -23
c-17 -7 -25 -18 -25 -34v-361c59 -29 116 -44 171 -44c104 0 156 52 156 156z" />
    <glyph glyph-name="thorn" unicode="&#xfe;" horiz-adv-x="537" 
d="M71 -208v936c0 8 4 12 12 12h19c8 0 12 -4 12 -12v-244c53 24 107 36 163 36c137 0 206 -66 206 -199v-141c0 -130 -65 -195 -196 -195c-55 0 -113 14 -173 43v-236c0 -8 -4 -12 -12 -12h-19c-8 0 -12 4 -12 12zM440 181v139c0 107 -56 160 -167 160
c-57 0 -110 -13 -159 -38v-373c55 -30 112 -45 171 -45c103 0 155 52 155 157z" />
    <glyph glyph-name="q" unicode="q" horiz-adv-x="534" 
d="M264 527c62 0 116 -10 163 -29c26 -11 39 -30 39 -55v-651c0 -8 -4 -12 -12 -12h-19c-8 0 -12 4 -12 12v237c-62 -29 -121 -43 -177 -43c-128 0 -192 64 -192 192v147c0 135 70 202 210 202zM96 324v-145c0 -103 51 -154 154 -154c57 0 114 15 173 44v361
c0 16 -8 27 -25 34c-41 15 -85 23 -132 23c-113 0 -170 -54 -170 -163z" />
    <glyph glyph-name="r" unicode="r" horiz-adv-x="337" 
d="M284 527h31c7 0 11 -4 11 -12v-16c0 -8 -4 -12 -11 -12h-32c-57 0 -107 -9 -151 -26c-14 -7 -21 -18 -21 -33v-416c0 -8 -4 -12 -11 -12h-20c-8 0 -12 4 -12 12v428c0 26 13 44 38 55c51 21 110 31 178 32z" />
    <glyph glyph-name="racute" unicode="&#x155;" horiz-adv-x="337" 
d="M101 609l170 106c9 6 17 6 22 -1l10 -11c5 -7 5 -12 -2 -15l-178 -102c-7 -3 -13 -3 -16 1l-7 8c-5 5 -4 10 1 14zM284 527h31c7 0 11 -4 11 -12v-16c0 -8 -4 -12 -11 -12h-32c-57 0 -107 -9 -151 -26c-14 -7 -21 -18 -21 -33v-416c0 -8 -4 -12 -11 -12h-20
c-8 0 -12 4 -12 12v428c0 26 13 44 38 55c51 21 110 31 178 32z" />
    <glyph glyph-name="rcaron" unicode="&#x159;" horiz-adv-x="337" 
d="M325 697h16c5 0 7 -1 8 -3c1 -3 0 -5 -3 -7l-120 -103c-7 -7 -15 -11 -22 -11h-5c-7 0 -15 4 -22 11l-122 103c-7 7 -5 10 4 10h18c7 0 13 -2 18 -7l106 -88l105 88c5 5 11 7 19 7zM285 527h31c7 0 11 -4 11 -12v-16c0 -8 -4 -12 -11 -12h-32c-57 0 -107 -9 -151 -26
c-14 -7 -21 -18 -21 -33v-416c0 -8 -4 -12 -11 -12h-20c-8 0 -12 4 -12 12v428c0 26 13 44 38 55c51 21 110 31 178 32z" />
    <glyph glyph-name="uni0157" unicode="&#x157;" horiz-adv-x="337" 
d="M283 527h31c7 0 11 -4 11 -12v-16c0 -8 -4 -12 -11 -12h-32c-57 0 -107 -9 -151 -26c-14 -7 -21 -18 -21 -33v-416c0 -8 -4 -12 -11 -12h-20c-8 0 -12 4 -12 12v428c0 26 13 44 38 55c51 21 110 31 178 32zM114 -56l-40 -154c-3 -7 -8 -11 -15 -11h-13c-7 0 -10 3 -9 10
l34 155c1 9 6 13 15 13h17c9 0 13 -4 11 -13z" />
    <glyph glyph-name="s" unicode="s" horiz-adv-x="492" 
d="M50 383c0 96 64 144 191 144c103 0 169 -37 200 -110c4 -7 2 -13 -6 -17l-15 -6c-7 -3 -12 -2 -17 5c-24 59 -78 89 -161 89c-100 0 -150 -35 -150 -104c0 -43 16 -72 49 -87c19 -9 59 -17 119 -23c63 -6 107 -17 134 -33c37 -22 56 -58 56 -109
c0 -97 -66 -146 -199 -146c-109 0 -180 42 -213 126c-3 8 0 13 7 16l17 5c7 3 12 0 15 -7c25 -68 82 -102 173 -102c105 0 158 35 158 106c0 38 -15 65 -45 81c-21 11 -58 20 -112 25c-67 7 -114 17 -139 30c-41 21 -62 60 -62 117z" />
    <glyph glyph-name="sacute" unicode="&#x15b;" horiz-adv-x="492" 
d="M147 609l169 107c9 6 17 6 22 -1l10 -11c5 -7 5 -12 -2 -15l-178 -103c-7 -3 -13 -2 -16 2l-7 8c-4 5 -3 10 2 13zM50 383c0 96 64 144 191 144c103 0 169 -37 200 -110c4 -7 2 -13 -6 -17l-15 -6c-7 -3 -12 -2 -17 5c-24 59 -78 89 -161 89c-100 0 -150 -35 -150 -104
c0 -43 16 -72 49 -87c19 -9 59 -17 119 -23c63 -6 107 -17 134 -33c37 -22 56 -58 56 -109c0 -97 -66 -146 -199 -146c-109 0 -180 42 -213 126c-3 8 0 13 7 16l17 5c7 3 12 0 15 -7c25 -68 82 -102 173 -102c105 0 158 35 158 106c0 38 -15 65 -45 81
c-21 11 -58 20 -112 25c-67 7 -114 17 -139 30c-41 21 -62 60 -62 117z" />
    <glyph glyph-name="scaron" unicode="&#x161;" horiz-adv-x="492" 
d="M367 694h17c9 0 10 -3 5 -10l-119 -101c-7 -7 -15 -10 -22 -10h-5c-7 0 -14 3 -21 10l-121 102c-6 6 -5 9 4 9h18c7 0 12 -2 17 -7l105 -86l104 86c4 5 10 7 18 7zM50 383c0 96 64 144 191 144c103 0 169 -37 200 -110c4 -7 2 -13 -6 -17l-15 -6c-7 -3 -12 -2 -17 5
c-24 59 -78 89 -161 89c-100 0 -150 -35 -150 -104c0 -43 16 -72 49 -87c19 -9 59 -17 119 -23c63 -6 107 -17 134 -33c37 -22 56 -58 56 -109c0 -97 -66 -146 -199 -146c-109 0 -180 42 -213 126c-3 8 0 13 7 16l17 5c7 3 12 0 15 -7c25 -68 82 -102 173 -102
c105 0 158 35 158 106c0 38 -15 65 -45 81c-21 11 -58 20 -112 25c-67 7 -114 17 -139 30c-41 21 -62 60 -62 117z" />
    <glyph glyph-name="scedilla" unicode="&#x15f;" horiz-adv-x="492" 
d="M50 383c0 96 64 144 191 144c103 0 169 -37 200 -110c4 -7 2 -13 -6 -17l-15 -6c-7 -3 -12 -2 -17 5c-24 59 -78 89 -161 89c-100 0 -150 -35 -150 -104c0 -43 16 -72 49 -87c19 -9 59 -17 119 -23c63 -6 107 -17 134 -33c37 -22 56 -58 56 -109
c0 -93 -63 -142 -189 -146l-26 -70c8 2 18 3 31 3c26 0 47 -6 62 -19s23 -31 22 -53c-2 -59 -38 -89 -109 -89c-32 0 -59 7 -82 21c-6 3 -9 8 -9 15v12c0 6 2 8 7 5c23 -17 49 -26 80 -26c51 0 76 21 76 64c0 31 -22 47 -66 47c-16 0 -28 -2 -37 -5c-10 -3 -13 1 -9 13
l32 82c-100 4 -165 46 -195 126c-3 8 0 13 7 16l17 5c7 3 12 0 15 -7c25 -68 82 -102 173 -102c105 0 158 35 158 106c0 38 -15 65 -45 81c-21 11 -58 20 -112 25c-67 7 -114 17 -139 30c-41 21 -62 60 -62 117z" />
    <glyph glyph-name="scircumflex" unicode="&#x15d;" horiz-adv-x="492" 
d="M244 708h5c8 0 16 -4 23 -11l130 -109c7 -7 5 -10 -6 -10h-18c-9 0 -15 2 -20 7l-112 93l-113 -93c-5 -5 -12 -7 -19 -7h-18c-11 0 -13 3 -6 10l130 109c7 7 15 11 24 11zM50 383c0 96 64 144 191 144c103 0 169 -37 200 -110c4 -7 2 -13 -6 -17l-15 -6
c-7 -3 -12 -2 -17 5c-24 59 -78 89 -161 89c-100 0 -150 -35 -150 -104c0 -43 16 -72 49 -87c19 -9 59 -17 119 -23c63 -6 107 -17 134 -33c37 -22 56 -58 56 -109c0 -97 -66 -146 -199 -146c-109 0 -180 42 -213 126c-3 8 0 13 7 16l17 5c7 3 12 0 15 -7
c25 -68 82 -102 173 -102c105 0 158 35 158 106c0 38 -15 65 -45 81c-21 11 -58 20 -112 25c-67 7 -114 17 -139 30c-41 21 -62 60 -62 117z" />
    <glyph glyph-name="uni0219" unicode="&#x219;" horiz-adv-x="492" 
d="M50 383c0 96 64 144 191 144c103 0 169 -37 200 -110c4 -7 2 -13 -6 -17l-15 -6c-7 -3 -12 -2 -17 5c-24 59 -78 89 -161 89c-100 0 -150 -35 -150 -104c0 -43 16 -72 49 -87c19 -9 59 -17 119 -23c63 -6 107 -17 134 -33c37 -22 56 -58 56 -109
c0 -97 -66 -146 -199 -146c-109 0 -180 42 -213 126c-3 8 0 13 7 16l17 5c7 3 12 0 15 -7c25 -68 82 -102 173 -102c105 0 158 35 158 106c0 38 -15 65 -45 81c-21 11 -58 20 -112 25c-67 7 -114 17 -139 30c-41 21 -62 60 -62 117zM286 -66l-42 -143c-3 -8 -8 -12 -15 -12
h-11c-7 0 -10 3 -9 10l35 145c1 9 6 13 15 13h16c10 0 14 -4 11 -13z" />
    <glyph glyph-name="germandbls" unicode="&#xdf;" horiz-adv-x="547" 
d="M71 13v515c0 68 17 122 51 161c35 41 85 61 150 61c137 0 205 -66 205 -199c0 -83 -33 -138 -98 -163v-1c83 -23 124 -84 124 -183c0 -136 -67 -204 -202 -204h-96c-8 0 -12 4 -12 13v17c0 8 4 12 12 12h92c107 0 160 55 160 166c0 47 -13 85 -39 113
c-27 28 -65 42 -112 42h-97c-8 0 -12 4 -12 13v16c0 9 4 13 12 13h94c43 0 77 16 101 48c19 27 29 58 29 94c0 107 -54 161 -161 161c-51 0 -91 -16 -118 -49c-27 -31 -40 -75 -40 -131v-515c0 -9 -4 -13 -13 -13h-17c-9 0 -13 4 -13 13z" />
    <glyph glyph-name="longs" unicode="&#x17f;" horiz-adv-x="243" 
d="M109 512v34c0 72 15 122 46 151c30 29 82 43 155 43c7 0 11 -4 11 -12v-17c0 -7 -4 -11 -11 -11c-61 0 -102 -11 -124 -32c-23 -22 -34 -64 -34 -125v-531c0 -8 -4 -12 -12 -12h-19c-8 0 -12 4 -12 12v461h-89c-8 0 -12 4 -12 11v17c0 7 4 11 12 11h89z" />
    <glyph glyph-name="t" unicode="t" horiz-adv-x="344" 
d="M135 632h19c8 0 12 -4 12 -11v-109h159c8 0 12 -4 12 -11v-17c0 -7 -4 -11 -12 -11h-159v-290c0 -63 11 -105 34 -126c21 -20 62 -30 123 -30c8 0 12 -4 12 -12v-17c0 -8 -4 -12 -12 -12c-75 -1 -127 13 -155 40c-30 28 -45 80 -45 156v291h-108c-7 0 -11 4 -11 11v17
c0 7 4 11 11 11h108v109c0 7 4 11 12 11z" />
    <glyph glyph-name="tbar" unicode="&#x167;" horiz-adv-x="353" 
d="M143 633h20c8 0 12 -4 12 -12v-108h159c7 0 11 -4 11 -12v-17c0 -7 -4 -11 -11 -11h-159v-194h129c7 0 10 -3 10 -10v-12c0 -7 -3 -10 -10 -10h-129v-64c0 -63 11 -105 33 -126c21 -20 62 -30 124 -30c8 0 12 -4 12 -12v-17c0 -8 -4 -12 -12 -12c-75 -1 -127 13 -156 40
c-29 28 -44 80 -44 157v64h-98c-6 0 -9 3 -9 10v12c0 7 3 10 9 10h98v194h-108c-7 0 -11 4 -11 11v17c0 8 4 12 11 12h108v108c0 8 4 12 11 12z" />
    <glyph glyph-name="tcaron" unicode="&#x165;" horiz-adv-x="344" 
d="M348 728l-44 -162c-3 -7 -7 -11 -14 -11h-11c-6 0 -9 3 -8 9l35 164c1 8 5 12 14 12h17c11 0 14 -4 11 -12zM135 632h19c8 0 12 -4 12 -11v-109h159c8 0 12 -4 12 -11v-17c0 -7 -4 -11 -12 -11h-159v-290c0 -63 11 -105 34 -126c21 -20 62 -30 123 -30c8 0 12 -4 12 -12
v-17c0 -8 -4 -12 -12 -12c-75 -1 -127 13 -155 40c-30 28 -45 80 -45 156v291h-108c-7 0 -11 4 -11 11v17c0 7 4 11 11 11h108v109c0 7 4 11 12 11z" />
    <glyph glyph-name="uni021B" unicode="&#x21b;" horiz-adv-x="344" 
d="M135 632h19c8 0 12 -4 12 -11v-109h159c8 0 12 -4 12 -11v-17c0 -7 -4 -11 -12 -11h-159v-290c0 -63 11 -105 34 -126c21 -20 62 -30 123 -30c8 0 12 -4 12 -12v-17c0 -8 -4 -12 -12 -12c-75 -1 -127 13 -155 40c-30 28 -45 80 -45 156v291h-108c-7 0 -11 4 -11 11v17
c0 7 4 11 11 11h108v109c0 7 4 11 12 11zM245 -91l-48 -143c-1 -7 -6 -11 -14 -11h-14c-6 0 -9 3 -8 9l39 146c1 8 6 12 15 12h19c10 0 14 -4 11 -13z" />
    <glyph glyph-name="u" unicode="u" horiz-adv-x="547" 
d="M447 512h20c7 0 11 -4 11 -11v-428c0 -26 -12 -44 -37 -55c-54 -21 -114 -32 -181 -32c-129 0 -194 64 -194 193v322c0 7 4 11 12 11h19c8 0 12 -4 12 -11v-320c0 -104 52 -156 155 -156c56 0 106 9 150 26c14 7 21 18 21 34v416c0 7 4 11 12 11z" />
    <glyph glyph-name="uacute" unicode="&#xfa;" horiz-adv-x="547" 
d="M173 609l169 106c9 6 17 6 22 -1l10 -11c5 -7 5 -12 -2 -15l-178 -102c-7 -3 -13 -3 -16 1l-6 8c-5 6 -5 11 1 14zM447 512h20c7 0 11 -4 11 -11v-428c0 -26 -12 -44 -37 -55c-54 -21 -114 -32 -181 -32c-129 0 -194 64 -194 193v322c0 7 4 11 12 11h19c8 0 12 -4 12 -11
v-320c0 -104 52 -156 155 -156c56 0 106 9 150 26c14 7 21 18 21 34v416c0 7 4 11 12 11z" />
    <glyph glyph-name="ubreve" unicode="&#x16d;" horiz-adv-x="547" 
d="M422 695c-21 -75 -71 -112 -150 -112s-128 37 -149 112c-3 5 -1 9 5 11l16 6c6 2 10 0 12 -5c17 -60 55 -90 116 -90s99 30 116 90c3 5 6 6 11 5l18 -6c5 -2 7 -6 5 -11zM447 512h20c7 0 11 -4 11 -11v-428c0 -26 -12 -44 -37 -55c-54 -21 -114 -32 -181 -32
c-129 0 -194 64 -194 193v322c0 7 4 11 12 11h19c8 0 12 -4 12 -11v-320c0 -104 52 -156 155 -156c56 0 106 9 150 26c14 7 21 18 21 34v416c0 7 4 11 12 11z" />
    <glyph glyph-name="ucircumflex" unicode="&#xfb;" horiz-adv-x="547" 
d="M270 712h6c8 0 16 -4 23 -11l133 -112c5 -7 3 -10 -7 -10h-18c-9 0 -15 2 -20 7l-115 95l-116 -95c-5 -5 -11 -7 -19 -7h-18c-9 0 -11 3 -6 10l133 112c7 7 15 11 24 11zM447 512h20c7 0 11 -4 11 -11v-428c0 -26 -12 -44 -37 -55c-54 -21 -114 -32 -181 -32
c-129 0 -194 64 -194 193v322c0 7 4 11 12 11h19c8 0 12 -4 12 -11v-320c0 -104 52 -156 155 -156c56 0 106 9 150 26c14 7 21 18 21 34v416c0 7 4 11 12 11z" />
    <glyph glyph-name="udieresis" unicode="&#xfc;" horiz-adv-x="547" 
d="M173 676h7c15 0 22 -8 22 -23v-7c0 -15 -7 -22 -22 -22h-7c-15 0 -22 7 -22 22v7c0 15 7 23 22 23zM365 676h5c16 0 24 -8 24 -23v-7c0 -15 -8 -22 -24 -22h-5c-16 0 -24 7 -24 22v7c0 15 8 23 24 23zM447 512h20c7 0 11 -4 11 -11v-428c0 -26 -12 -44 -37 -55
c-54 -21 -114 -32 -181 -32c-129 0 -194 64 -194 193v322c0 7 4 11 12 11h19c8 0 12 -4 12 -11v-320c0 -104 52 -156 155 -156c56 0 106 9 150 26c14 7 21 18 21 34v416c0 7 4 11 12 11z" />
    <glyph glyph-name="ugrave" unicode="&#xf9;" horiz-adv-x="547" 
d="M171 703l9 11c5 6 13 6 23 1l169 -106c6 -3 6 -8 1 -14l-7 -8c-3 -4 -8 -4 -16 -1l-177 102c-7 3 -8 8 -2 15zM447 512h20c7 0 11 -4 11 -11v-428c0 -26 -12 -44 -37 -55c-54 -21 -114 -32 -181 -32c-129 0 -194 64 -194 193v322c0 7 4 11 12 11h19c8 0 12 -4 12 -11
v-320c0 -104 52 -156 155 -156c56 0 106 9 150 26c14 7 21 18 21 34v416c0 7 4 11 12 11z" />
    <glyph glyph-name="uhungarumlaut" unicode="&#x171;" horiz-adv-x="547" 
d="M137 593l102 113c6 7 12 9 19 8l16 -4c9 -3 11 -7 4 -14l-113 -113c-5 -5 -10 -7 -15 -5l-9 3c-7 2 -8 6 -4 12zM309 593l106 111c6 7 13 10 20 8l16 -4c9 -3 11 -7 4 -13l-118 -112c-5 -5 -10 -7 -15 -5l-9 3c-7 2 -9 6 -4 12zM447 512h20c7 0 11 -4 11 -11v-428
c0 -26 -12 -44 -37 -55c-54 -21 -114 -32 -181 -32c-129 0 -194 64 -194 193v322c0 7 4 11 12 11h19c8 0 12 -4 12 -11v-320c0 -104 52 -156 155 -156c56 0 106 9 150 26c14 7 21 18 21 34v416c0 7 4 11 12 11z" />
    <glyph glyph-name="umacron" unicode="&#x16b;" horiz-adv-x="547" 
d="M153 658h238c7 0 11 -4 11 -11v-10c0 -7 -4 -11 -11 -11h-238c-7 0 -11 4 -11 11v10c0 7 4 11 11 11zM447 512h20c7 0 11 -4 11 -11v-428c0 -26 -12 -44 -37 -55c-54 -21 -114 -32 -181 -32c-129 0 -194 64 -194 193v322c0 7 4 11 12 11h19c8 0 12 -4 12 -11v-320
c0 -104 52 -156 155 -156c56 0 106 9 150 26c14 7 21 18 21 34v416c0 7 4 11 12 11z" />
    <glyph glyph-name="uogonek" unicode="&#x173;" horiz-adv-x="547" 
d="M447 512h20c7 0 11 -4 11 -11v-428c0 -20 -6 -34 -17 -43c-39 -33 -68 -71 -89 -116c-19 -41 -25 -73 -17 -95c7 -21 23 -31 46 -31c24 0 45 9 63 27c3 3 6 3 8 -2l5 -14c1 -4 1 -7 -2 -10c-24 -24 -53 -36 -87 -36c-39 0 -62 16 -71 47c-8 25 -4 57 12 96
c17 41 42 78 77 111c-45 -14 -93 -21 -146 -21c-129 0 -194 64 -194 193v322c0 7 4 11 12 11h19c8 0 12 -4 12 -11v-320c0 -104 52 -156 155 -156c56 0 106 9 150 26c14 7 21 18 21 34v416c0 7 4 11 12 11z" />
    <glyph glyph-name="uring" unicode="&#x16f;" horiz-adv-x="547" 
d="M180 646c0 29 9 52 27 69c17 17 41 26 71 26c29 0 53 -9 70 -26s26 -40 26 -69s-9 -52 -26 -69s-41 -25 -70 -25c-30 0 -54 8 -71 25c-18 17 -27 40 -27 69zM349 646c0 47 -24 70 -71 70c-49 0 -73 -23 -73 -70s24 -70 73 -70c47 0 71 23 71 70zM447 512h20
c7 0 11 -4 11 -11v-428c0 -26 -12 -44 -37 -55c-54 -21 -114 -32 -181 -32c-129 0 -194 64 -194 193v322c0 7 4 11 12 11h19c8 0 12 -4 12 -11v-320c0 -104 52 -156 155 -156c56 0 106 9 150 26c14 7 21 18 21 34v416c0 7 4 11 12 11z" />
    <glyph glyph-name="utilde" unicode="&#x169;" horiz-adv-x="547" 
d="M403 697h14c5 0 8 -3 8 -9c0 -62 -25 -93 -75 -93c-24 0 -51 12 -82 36c-30 24 -55 36 -74 36c-32 0 -48 -21 -48 -64c0 -5 -3 -8 -8 -8h-14c-5 0 -8 3 -8 8c0 63 25 94 75 94c25 0 53 -12 84 -36c30 -24 54 -36 73 -36c31 0 47 21 47 63c0 6 3 9 8 9zM447 512h20
c7 0 11 -4 11 -11v-428c0 -26 -12 -44 -37 -55c-54 -21 -114 -32 -181 -32c-129 0 -194 64 -194 193v322c0 7 4 11 12 11h19c8 0 12 -4 12 -11v-320c0 -104 52 -156 155 -156c56 0 106 9 150 26c14 7 21 18 21 34v416c0 7 4 11 12 11z" />
    <glyph glyph-name="v" unicode="v" horiz-adv-x="498" 
d="M454 512h15c10 0 13 -4 10 -13l-209 -491c-3 -8 -9 -12 -17 -12h-12c-8 0 -14 4 -17 12l-208 491c-4 9 -1 13 9 13h15c10 0 17 -4 20 -12l159 -374l16 -43c5 -17 9 -28 12 -34h2c2 5 6 16 12 33l15 43l158 376c3 7 9 11 20 11z" />
    <glyph glyph-name="w" unicode="w" horiz-adv-x="729" 
d="M680 512h14c9 0 12 -4 9 -13l-154 -492c-3 -8 -8 -12 -16 -12h-15c-7 0 -13 4 -16 12l-118 361l-20 76h-3l-9 -33c-4 -17 -8 -31 -12 -43l-116 -361c-3 -8 -9 -12 -16 -12h-15c-7 0 -12 4 -15 12l-154 492c-3 9 0 13 9 13h15c11 0 18 -4 20 -12l109 -353
c3 -9 7 -26 13 -51c5 -21 8 -35 11 -43h2c3 7 7 22 12 43c6 24 11 41 14 52l111 337c3 8 9 12 19 12h10c9 0 15 -4 18 -11l110 -334l16 -54c5 -23 9 -38 12 -45h2c3 8 6 22 11 43l14 55l108 350c2 7 9 11 20 11z" />
    <glyph glyph-name="wacute" unicode="&#x1e83;" horiz-adv-x="729" 
d="M265 609l169 106c10 5 18 5 23 -1l9 -11c7 -7 6 -12 -2 -15l-177 -102c-7 -3 -13 -3 -16 1l-7 8c-5 5 -4 10 1 14zM680 512h14c9 0 12 -4 9 -13l-154 -492c-3 -8 -8 -12 -16 -12h-15c-7 0 -13 4 -16 12l-118 361l-20 76h-3l-9 -33c-4 -17 -8 -31 -12 -43l-116 -361
c-3 -8 -9 -12 -16 -12h-15c-7 0 -12 4 -15 12l-154 492c-3 9 0 13 9 13h15c11 0 18 -4 20 -12l109 -353c3 -9 7 -26 13 -51c5 -21 8 -35 11 -43h2c3 7 7 22 12 43c6 24 11 41 14 52l111 337c3 8 9 12 19 12h10c9 0 15 -4 18 -11l110 -334l16 -54c5 -23 9 -38 12 -45h2
c3 8 6 22 11 43l14 55l108 350c2 7 9 11 20 11z" />
    <glyph glyph-name="wcircumflex" unicode="&#x175;" horiz-adv-x="729" 
d="M362 707h6c8 0 16 -3 23 -10l130 -110c5 -7 3 -10 -6 -10h-18c-9 0 -15 2 -20 7l-112 93l-114 -93c-5 -5 -11 -7 -19 -7h-17c-10 0 -12 3 -7 10l131 110c7 7 15 10 23 10zM680 512h14c9 0 12 -4 9 -13l-154 -492c-3 -8 -8 -12 -16 -12h-15c-7 0 -13 4 -16 12l-118 361
l-20 76h-3l-9 -33c-4 -17 -8 -31 -12 -43l-116 -361c-3 -8 -9 -12 -16 -12h-15c-7 0 -12 4 -15 12l-154 492c-3 9 0 13 9 13h15c11 0 18 -4 20 -12l109 -353c3 -9 7 -26 13 -51c5 -21 8 -35 11 -43h2c3 7 7 22 12 43c6 24 11 41 14 52l111 337c3 8 9 12 19 12h10
c9 0 15 -4 18 -11l110 -334l16 -54c5 -23 9 -38 12 -45h2c3 8 6 22 11 43l14 55l108 350c2 7 9 11 20 11z" />
    <glyph glyph-name="wdieresis" unicode="&#x1e85;" horiz-adv-x="729" 
d="M266 676h6c15 0 23 -8 23 -23v-7c0 -15 -8 -22 -23 -22h-6c-15 0 -23 7 -23 22v7c0 15 8 23 23 23zM457 676h6c15 0 23 -8 23 -23v-7c0 -15 -8 -22 -23 -22h-6c-15 0 -23 7 -23 22v7c0 15 8 23 23 23zM680 512h14c9 0 12 -4 9 -13l-154 -492c-3 -8 -8 -12 -16 -12h-15
c-7 0 -13 4 -16 12l-118 361l-20 76h-3l-9 -33c-4 -17 -8 -31 -12 -43l-116 -361c-3 -8 -9 -12 -16 -12h-15c-7 0 -12 4 -15 12l-154 492c-3 9 0 13 9 13h15c11 0 18 -4 20 -12l109 -353c3 -9 7 -26 13 -51c5 -21 8 -35 11 -43h2c3 7 7 22 12 43c6 24 11 41 14 52l111 337
c3 8 9 12 19 12h10c9 0 15 -4 18 -11l110 -334l16 -54c5 -23 9 -38 12 -45h2c3 8 6 22 11 43l14 55l108 350c2 7 9 11 20 11z" />
    <glyph glyph-name="wgrave" unicode="&#x1e81;" horiz-adv-x="729" 
d="M263 703l10 11c5 7 13 7 22 1l170 -106c5 -4 6 -9 1 -14l-7 -8c-3 -4 -9 -4 -16 -1l-178 102c-7 3 -7 8 -2 15zM680 512h14c9 0 12 -4 9 -13l-154 -492c-3 -8 -8 -12 -16 -12h-15c-7 0 -13 4 -16 12l-118 361l-20 76h-3l-9 -33c-4 -17 -8 -31 -12 -43l-116 -361
c-3 -8 -9 -12 -16 -12h-15c-7 0 -12 4 -15 12l-154 492c-3 9 0 13 9 13h15c11 0 18 -4 20 -12l109 -353c3 -9 7 -26 13 -51c5 -21 8 -35 11 -43h2c3 7 7 22 12 43c6 24 11 41 14 52l111 337c3 8 9 12 19 12h10c9 0 15 -4 18 -11l110 -334l16 -54c5 -23 9 -38 12 -45h2
c3 8 6 22 11 43l14 55l108 350c2 7 9 11 20 11z" />
    <glyph glyph-name="x" unicode="x" horiz-adv-x="477" 
d="M419 512h20c11 0 13 -4 7 -12l-181 -237l193 -251c5 -8 3 -12 -8 -12h-21c-8 0 -15 3 -20 10l-172 223l-171 -223c-4 -7 -11 -10 -20 -10h-20c-10 0 -13 4 -8 12l193 252l-184 236c-5 8 -2 12 9 12h20c9 0 16 -3 20 -9l162 -209l161 209c5 6 11 9 20 9z" />
    <glyph glyph-name="y" unicode="y" horiz-adv-x="549" 
d="M447 512h20c7 0 11 -4 11 -11v-538c0 -144 -69 -216 -208 -216c-92 0 -157 38 -195 113c-6 9 -4 15 5 19l13 7c8 4 14 2 19 -5c32 -63 84 -95 157 -95c111 0 166 58 166 175v65c-59 -22 -118 -33 -175 -33c-129 0 -194 64 -194 193v315c0 7 4 11 12 11h19
c8 0 12 -4 12 -11v-313c0 -104 52 -156 155 -156c57 0 114 11 171 34v435c0 7 4 11 12 11z" />
    <glyph glyph-name="yacute" unicode="&#xfd;" horiz-adv-x="549" 
d="M173 609l169 106c9 6 17 6 22 -1l10 -11c5 -7 5 -12 -2 -15l-178 -102c-7 -3 -13 -3 -16 1l-6 8c-5 6 -5 11 1 14zM447 512h20c7 0 11 -4 11 -11v-538c0 -144 -69 -216 -208 -216c-92 0 -157 38 -195 113c-6 9 -4 15 5 19l13 7c8 4 14 2 19 -5c32 -63 84 -95 157 -95
c111 0 166 58 166 175v65c-59 -22 -118 -33 -175 -33c-129 0 -194 64 -194 193v315c0 7 4 11 12 11h19c8 0 12 -4 12 -11v-313c0 -104 52 -156 155 -156c57 0 114 11 171 34v435c0 7 4 11 12 11z" />
    <glyph glyph-name="ycircumflex" unicode="&#x177;" horiz-adv-x="549" 
d="M270 707h5c8 0 16 -3 23 -10l130 -110c7 -7 5 -10 -6 -10h-18c-9 0 -15 2 -20 7l-112 93l-113 -93c-5 -5 -12 -7 -19 -7h-18c-11 0 -13 3 -6 10l131 110c7 7 14 10 23 10zM447 512h20c7 0 11 -4 11 -11v-538c0 -144 -69 -216 -208 -216c-92 0 -157 38 -195 113
c-6 9 -4 15 5 19l13 7c8 4 14 2 19 -5c32 -63 84 -95 157 -95c111 0 166 58 166 175v65c-59 -22 -118 -33 -175 -33c-129 0 -194 64 -194 193v315c0 7 4 11 12 11h19c8 0 12 -4 12 -11v-313c0 -104 52 -156 155 -156c57 0 114 11 171 34v435c0 7 4 11 12 11z" />
    <glyph glyph-name="ydieresis" unicode="&#xff;" horiz-adv-x="549" 
d="M173 676h7c15 0 22 -8 22 -23v-7c0 -15 -7 -22 -22 -22h-7c-15 0 -22 7 -22 22v7c0 15 7 23 22 23zM365 676h5c16 0 24 -8 24 -23v-7c0 -15 -8 -22 -24 -22h-5c-16 0 -24 7 -24 22v7c0 15 8 23 24 23zM447 512h20c7 0 11 -4 11 -11v-538c0 -144 -69 -216 -208 -216
c-92 0 -157 38 -195 113c-6 9 -4 15 5 19l13 7c8 4 14 2 19 -5c32 -63 84 -95 157 -95c111 0 166 58 166 175v65c-59 -22 -118 -33 -175 -33c-129 0 -194 64 -194 193v315c0 7 4 11 12 11h19c8 0 12 -4 12 -11v-313c0 -104 52 -156 155 -156c57 0 114 11 171 34v435
c0 7 4 11 12 11z" />
    <glyph glyph-name="ygrave" unicode="&#x1ef3;" horiz-adv-x="549" 
d="M171 703l9 11c5 6 13 6 23 1l169 -106c6 -3 6 -8 1 -14l-7 -8c-3 -4 -8 -4 -16 -1l-177 102c-7 3 -8 8 -2 15zM447 512h20c7 0 11 -4 11 -11v-538c0 -144 -69 -216 -208 -216c-92 0 -157 38 -195 113c-6 9 -4 15 5 19l13 7c8 4 14 2 19 -5c32 -63 84 -95 157 -95
c111 0 166 58 166 175v65c-59 -22 -118 -33 -175 -33c-129 0 -194 64 -194 193v315c0 7 4 11 12 11h19c8 0 12 -4 12 -11v-313c0 -104 52 -156 155 -156c57 0 114 11 171 34v435c0 7 4 11 12 11z" />
    <glyph glyph-name="z" unicode="z" horiz-adv-x="447" 
d="M85 39h321c7 0 11 -4 11 -12v-15c0 -8 -4 -12 -11 -12h-364c-7 0 -11 4 -11 12v15c0 5 2 10 5 14l322 432h-312c-7 0 -11 4 -11 12v16c0 7 4 11 11 11h355c7 0 11 -4 11 -11v-16c0 -6 -2 -11 -5 -15z" />
    <glyph glyph-name="zacute" unicode="&#x17a;" horiz-adv-x="447" 
d="M124 609l170 106c9 6 17 6 22 -1l9 -11c7 -7 6 -12 -2 -15l-177 -102c-7 -3 -13 -3 -16 1l-7 8c-5 5 -4 10 1 14zM85 39h321c7 0 11 -4 11 -12v-15c0 -8 -4 -12 -11 -12h-364c-7 0 -11 4 -11 12v15c0 5 2 10 5 14l322 432h-312c-7 0 -11 4 -11 12v16c0 7 4 11 11 11h355
c7 0 11 -4 11 -11v-16c0 -6 -2 -11 -5 -15z" />
    <glyph glyph-name="zcaron" unicode="&#x17e;" horiz-adv-x="447" 
d="M345 693h16c10 0 12 -3 5 -10l-119 -101c-7 -7 -14 -10 -21 -10h-5c-7 0 -14 3 -21 10l-121 102c-6 6 -4 9 5 9h17c7 0 13 -2 18 -7l104 -86l103 86c5 5 11 7 19 7zM85 39h321c7 0 11 -4 11 -12v-15c0 -8 -4 -12 -11 -12h-364c-7 0 -11 4 -11 12v15c0 5 2 10 5 14
l322 432h-312c-7 0 -11 4 -11 12v16c0 7 4 11 11 11h355c7 0 11 -4 11 -11v-16c0 -6 -2 -11 -5 -15z" />
    <glyph glyph-name="zdotaccent" unicode="&#x17c;" horiz-adv-x="447" 
d="M221 669h5c16 0 24 -8 24 -24v-4c0 -16 -8 -24 -24 -24h-5c-15 0 -23 8 -23 24v4c0 16 8 24 23 24zM85 39h321c7 0 11 -4 11 -12v-15c0 -8 -4 -12 -11 -12h-364c-7 0 -11 4 -11 12v15c0 5 2 10 5 14l322 432h-312c-7 0 -11 4 -11 12v16c0 7 4 11 11 11h355
c7 0 11 -4 11 -11v-16c0 -6 -2 -11 -5 -15z" />
    <glyph glyph-name="ordfeminine" unicode="&#xaa;" horiz-adv-x="373" 
d="M67 611c27 39 67 59 121 59c82 0 123 -41 123 -124v-124c0 -24 -11 -41 -33 -52c-22 -10 -54 -15 -96 -15c-84 0 -126 29 -126 86c0 61 43 91 128 91c35 0 66 -2 92 -6v22c0 61 -30 91 -89 91c-39 0 -70 -16 -91 -47c-4 -3 -8 -4 -13 -2l-11 5c-8 5 -10 10 -5 16z
M276 427v71c-28 4 -59 6 -93 6c-61 0 -92 -21 -92 -62c0 -39 30 -58 90 -58c31 0 56 4 74 11c14 6 21 17 21 32z" />
    <glyph glyph-name="ordmasculine" unicode="&#xba;" horiz-adv-x="377" 
d="M56 474v78c0 79 44 118 132 118s132 -39 132 -118v-78c0 -79 -44 -118 -132 -118s-132 39 -132 118zM284 473v80c0 56 -32 84 -96 84s-96 -28 -96 -84v-80c0 -56 32 -84 96 -84s96 28 96 84z" />
    <glyph glyph-name="uni0410" unicode="&#x410;" horiz-adv-x="632" 
d="M342 703l277 -691c3 -8 0 -12 -10 -12h-18c-13 0 -21 4 -22 11l-89 221h-332l-88 -221c-3 -7 -10 -11 -23 -11h-17c-9 0 -12 4 -9 12l277 691c3 8 9 12 17 12h20c9 0 14 -4 17 -12zM467 271l-142 355c-2 6 -5 20 -10 43h-3c0 -13 -3 -28 -8 -43l-142 -355h305z" />
    <glyph glyph-name="uni0411" unicode="&#x411;" horiz-adv-x="625" 
d="M95 710h431c8 0 12 -4 12 -13v-18c0 -8 -4 -12 -12 -12h-398v-269h259c63 0 113 -17 148 -52c36 -35 54 -84 54 -147s-18 -112 -54 -147c-35 -35 -85 -52 -148 -52h-293c-8 0 -12 4 -12 12v685c0 9 4 13 13 13zM542 199c0 50 -14 89 -42 116s-67 40 -117 40h-255v-312
h255c50 0 89 14 117 41s42 66 42 115z" />
    <glyph glyph-name="uni0412" unicode="&#x412;" horiz-adv-x="640" 
d="M95 710h284c60 0 106 -15 139 -46s49 -75 49 -133c0 -85 -35 -139 -104 -164v-2c85 -19 128 -77 128 -176c0 -60 -18 -107 -54 -140c-35 -33 -83 -49 -145 -49h-297c-9 0 -13 4 -13 13v684c0 9 4 13 13 13zM520 526c0 94 -49 141 -146 141h-246v-284h246
c97 0 146 48 146 143zM543 193c0 99 -51 148 -153 148h-262v-298h262c102 0 153 50 153 150z" />
    <glyph glyph-name="uni0413" unicode="&#x413;" horiz-adv-x="508" 
d="M95 710h384c8 0 12 -4 12 -13v-18c0 -8 -4 -12 -12 -12h-351v-654c0 -9 -4 -13 -12 -13h-21c-9 0 -13 4 -13 13v684c0 9 4 13 13 13z" />
    <glyph glyph-name="uni0414" unicode="&#x414;" horiz-adv-x="699" 
d="M190 710h394c8 0 12 -4 12 -13v-654h69c8 0 12 -4 12 -12v-171c0 -9 -4 -13 -12 -13h-21c-8 0 -12 4 -12 13v140h-573v-140c0 -9 -4 -13 -13 -13h-20c-9 0 -13 4 -13 13v171c0 8 4 12 13 12h41c33 23 58 57 73 104c25 73 37 190 37 349v201c0 9 4 13 13 13zM221 667v-171
c0 -241 -32 -392 -96 -453h425v624h-329z" />
    <glyph glyph-name="uni0415" unicode="&#x415;" horiz-adv-x="570" 
d="M95 710h408c9 0 13 -4 13 -13v-18c0 -8 -4 -12 -13 -12h-375v-286h332c8 0 12 -4 12 -12v-18c0 -9 -4 -13 -12 -13h-332v-295h389c9 0 13 -4 13 -12v-18c0 -9 -4 -13 -13 -13h-422c-9 0 -13 4 -13 13v684c0 9 4 13 13 13z" />
    <glyph glyph-name="uni0401" unicode="&#x401;" horiz-adv-x="570" 
d="M202 843h6c15 0 23 -8 23 -23v-7c0 -15 -8 -22 -23 -22h-6c-15 0 -23 7 -23 22v7c0 15 8 23 23 23zM393 843h6c15 0 23 -8 23 -23v-7c0 -15 -8 -22 -23 -22h-6c-15 0 -23 7 -23 22v7c0 15 8 23 23 23zM95 710h408c9 0 13 -4 13 -13v-18c0 -8 -4 -12 -13 -12h-375v-286
h332c8 0 12 -4 12 -12v-18c0 -9 -4 -13 -12 -13h-332v-295h389c9 0 13 -4 13 -12v-18c0 -9 -4 -13 -13 -13h-422c-9 0 -13 4 -13 13v684c0 9 4 13 13 13z" />
    <glyph glyph-name="uni0416" unicode="&#x416;" horiz-adv-x="905" 
d="M844 710h22c11 0 13 -4 7 -13l-224 -332c44 -14 80 -48 108 -103l126 -249c6 -9 4 -13 -7 -13h-20c-13 0 -21 4 -25 11l-116 233c-17 34 -37 58 -59 72c-23 15 -55 23 -96 23h-84v-326c0 -9 -4 -13 -13 -13h-21c-9 0 -13 4 -13 13v326h-84c-71 0 -122 -32 -155 -95
l-116 -233c-4 -7 -12 -11 -25 -11h-20c-11 0 -13 4 -7 13l126 249c28 55 64 89 108 103l-224 332c-5 9 -2 13 7 13h22c13 0 21 -4 26 -11l214 -320c19 1 33 2 44 2h84v316c0 9 4 13 13 13h21c9 0 13 -4 13 -13v-316h84c12 0 27 -1 44 -2l214 320c5 7 13 11 26 11z" />
    <glyph glyph-name="uni0417" unicode="&#x417;" horiz-adv-x="613" 
d="M542 527c0 -83 -32 -137 -96 -160c78 -24 117 -82 117 -175c0 -137 -83 -206 -249 -206c-147 0 -239 59 -274 178c-3 8 0 13 8 16l19 7c9 3 14 0 17 -8c16 -52 40 -89 73 -112c36 -25 88 -38 157 -38c135 0 202 55 202 164c0 46 -12 82 -37 109c-26 27 -63 41 -110 41
h-188c-8 0 -12 4 -12 12v17c0 9 4 13 12 13h184c44 0 77 14 100 42c21 25 31 57 31 97c0 105 -61 157 -184 157c-65 0 -115 -12 -150 -35c-33 -23 -57 -60 -72 -111c-3 -7 -8 -10 -17 -7l-19 6c-8 3 -11 8 -8 17c35 115 124 173 268 173c75 0 132 -17 171 -52
c38 -34 57 -82 57 -145z" />
    <glyph glyph-name="uni0418" unicode="&#x418;" horiz-adv-x="691" 
d="M575 710h21c9 0 13 -4 13 -13v-684c0 -9 -4 -13 -13 -13h-21c-9 0 -13 4 -13 13v442c0 57 3 121 8 192h-2c-29 -48 -65 -104 -110 -169l-328 -470c-3 -5 -8 -8 -15 -8h-20c-9 0 -13 4 -13 13v684c0 9 4 13 13 13h21c8 0 12 -4 12 -13v-429c0 -81 -2 -149 -7 -205h2
c23 39 63 100 119 183l319 457c3 5 8 7 14 7z" />
    <glyph glyph-name="uni0419" unicode="&#x419;" horiz-adv-x="691" 
d="M507 879c-23 -73 -75 -109 -158 -109c-84 0 -137 36 -158 109c-2 5 0 9 5 11l18 6c6 2 10 0 13 -5c17 -59 57 -88 122 -88c64 0 105 29 122 88c3 5 7 6 12 5l18 -6c6 -2 8 -6 6 -11zM575 710h21c9 0 13 -4 13 -13v-684c0 -9 -4 -13 -13 -13h-21c-9 0 -13 4 -13 13v442
c0 57 3 121 8 192h-2c-29 -48 -65 -104 -110 -169l-328 -470c-3 -5 -8 -8 -15 -8h-20c-9 0 -13 4 -13 13v684c0 9 4 13 13 13h21c8 0 12 -4 12 -13v-429c0 -81 -2 -149 -7 -205h2c23 39 63 100 119 183l319 457c3 5 8 7 14 7z" />
    <glyph glyph-name="uni041A" unicode="&#x41a;" horiz-adv-x="600" 
d="M453 262l126 -249c5 -9 2 -13 -7 -13h-20c-13 0 -21 4 -25 11l-117 233c-31 63 -83 95 -155 95h-127v-326c0 -9 -4 -13 -12 -13h-21c-9 0 -13 4 -13 13v684c0 9 4 13 13 13h21c8 0 12 -4 12 -13v-316h124c12 0 20 0 25 -1l236 319c6 7 15 11 26 11h23c10 0 12 -4 6 -13
l-243 -325c54 -13 97 -49 128 -110z" />
    <glyph glyph-name="uni041B" unicode="&#x41b;" horiz-adv-x="646" 
d="M160 710h392c8 0 12 -4 12 -13v-684c0 -9 -4 -13 -12 -13h-21c-9 0 -13 4 -13 13v654h-325v-202c0 -179 -16 -302 -47 -371c-19 -42 -57 -77 -114 -106c-8 -4 -14 -2 -17 5l-10 19c-4 7 -2 13 6 17c49 25 81 56 98 95c25 62 38 176 38 341v232c0 9 4 13 13 13z" />
    <glyph glyph-name="uni041C" unicode="&#x41c;" horiz-adv-x="795" 
d="M682 710h19c8 0 12 -4 12 -13v-684c0 -9 -4 -13 -12 -13h-20c-8 0 -12 4 -12 13v459c0 56 2 112 7 167h-2c-25 -51 -50 -98 -75 -143l-178 -316c-3 -7 -9 -10 -16 -10h-13c-9 0 -14 3 -17 10l-181 320c-24 41 -48 87 -72 139h-2c4 -59 6 -114 6 -167v-459
c0 -9 -4 -13 -13 -13h-18c-9 0 -13 4 -13 13v684c0 9 4 13 13 13h16c8 0 14 -4 19 -11l268 -473l266 472c5 8 11 12 18 12z" />
    <glyph glyph-name="uni041D" unicode="&#x41d;" horiz-adv-x="679" 
d="M563 710h21c9 0 13 -4 13 -13v-684c0 -9 -4 -13 -13 -13h-21c-8 0 -12 4 -12 13v325h-423v-325c0 -9 -4 -13 -12 -13h-21c-9 0 -13 4 -13 13v684c0 9 4 13 13 13h21c8 0 12 -4 12 -13v-316h423v316c0 9 4 13 12 13z" />
    <glyph glyph-name="uni041E" unicode="&#x41e;" 
d="M61 233v244c0 77 23 138 69 181c47 44 114 66 201 66c86 0 152 -22 199 -66c46 -43 69 -104 69 -181v-244c0 -77 -23 -138 -69 -181c-47 -44 -113 -66 -199 -66c-87 0 -154 22 -201 66c-46 43 -69 104 -69 181zM553 233v244c0 65 -19 115 -57 150c-39 36 -94 54 -165 54
c-73 0 -128 -18 -167 -54c-38 -35 -57 -85 -57 -150v-244c0 -65 19 -115 57 -150c39 -36 94 -54 167 -54c71 0 126 18 165 54c38 35 57 85 57 150z" />
    <glyph glyph-name="uni041F" unicode="&#x41f;" horiz-adv-x="672" 
d="M95 710h483c8 0 12 -4 12 -13v-684c0 -9 -4 -13 -12 -13h-21c-9 0 -13 4 -13 13v654h-416v-654c0 -9 -4 -13 -12 -13h-21c-9 0 -13 4 -13 13v684c0 9 4 13 13 13z" />
    <glyph glyph-name="uni0420" unicode="&#x420;" horiz-adv-x="618" 
d="M95 710h269c68 0 122 -19 161 -58c40 -39 60 -92 60 -160c0 -67 -20 -120 -59 -159c-40 -38 -94 -57 -162 -57h-236v-263c0 -9 -4 -13 -12 -13h-21c-9 0 -13 4 -13 13v684c0 9 4 13 13 13zM128 319h232c55 0 98 15 129 46c32 31 48 73 48 127c0 55 -16 98 -48 129
c-31 31 -74 46 -129 46h-232v-348z" />
    <glyph glyph-name="uni0421" unicode="&#x421;" horiz-adv-x="634" 
d="M61 233v245c0 77 23 137 68 180c47 44 114 66 201 66c141 0 228 -58 263 -174c2 -7 -1 -13 -9 -17l-18 -6c-9 -2 -14 1 -17 8c-15 51 -39 87 -72 110c-35 24 -84 36 -147 36c-73 0 -128 -18 -167 -54c-37 -35 -56 -84 -56 -148v-247c0 -63 19 -113 57 -148
c39 -37 95 -55 166 -55c65 0 115 13 150 38c31 23 55 61 71 113c3 8 9 11 17 8l19 -7c8 -3 11 -8 8 -16c-35 -119 -124 -179 -265 -179c-86 0 -153 22 -200 66c-46 43 -69 104 -69 181z" />
    <glyph glyph-name="uni0422" unicode="&#x422;" horiz-adv-x="532" 
d="M26 710h480c9 0 13 -4 13 -13v-18c0 -8 -4 -12 -13 -12h-217v-654c0 -9 -4 -13 -12 -13h-21c-9 0 -13 4 -13 13v654h-217c-9 0 -13 4 -13 12v18c0 9 4 13 13 13z" />
    <glyph glyph-name="uni0423" unicode="&#x423;" horiz-adv-x="582" 
d="M544 710h21c9 0 11 -4 7 -13l-346 -686c-4 -7 -11 -11 -22 -11h-23c-9 0 -11 4 -7 13l97 188l-264 496c-4 9 -2 13 7 13h22c11 0 19 -4 24 -11l235 -448l226 448c4 7 12 11 23 11z" />
    <glyph glyph-name="uni0424" unicode="&#x424;" horiz-adv-x="824" 
d="M401 735h21c9 0 13 -4 13 -13v-72h69c87 0 154 -23 201 -68c46 -44 69 -106 69 -186v-77c0 -80 -23 -142 -69 -186c-47 -45 -114 -68 -201 -68h-69v-72c0 -9 -4 -13 -13 -13h-21c-8 0 -12 4 -12 13v72h-69c-87 0 -154 23 -201 68c-46 44 -69 106 -69 186v77
c0 80 23 142 69 186c47 45 114 68 201 68h69v72c0 9 4 13 12 13zM389 608h-69c-73 0 -128 -19 -167 -56c-37 -37 -56 -88 -56 -155v-79c0 -67 19 -118 56 -155c39 -37 94 -56 167 -56h69v501zM727 318v79c0 67 -19 118 -56 155c-39 37 -94 56 -167 56h-69v-501h69
c73 0 128 19 167 56c37 37 56 88 56 155z" />
    <glyph glyph-name="uni0425" unicode="&#x425;" horiz-adv-x="607" 
d="M333 361l256 -346c7 -10 6 -15 -5 -15h-26c-11 0 -19 4 -24 11l-232 314l-230 -314c-5 -7 -13 -11 -24 -11h-25c-10 0 -12 5 -6 15l257 345l-250 338c-5 8 -3 12 7 12h26c11 0 18 -4 23 -11l224 -302l223 302c5 7 12 11 23 11h26c11 0 13 -4 6 -12z" />
    <glyph glyph-name="uni0427" unicode="&#x427;" horiz-adv-x="623" 
d="M507 710h21c9 0 13 -4 13 -13v-684c0 -9 -4 -13 -13 -13h-21c-9 0 -13 4 -13 13v281c-59 -15 -126 -22 -203 -22c-89 0 -153 21 -193 64c-37 39 -56 100 -56 181v180c0 9 4 13 12 13h22c8 0 12 -4 12 -13v-180c0 -69 15 -119 45 -150c32 -35 85 -52 160 -52
c77 0 144 8 201 23v359c0 9 4 13 13 13z" />
    <glyph glyph-name="uni0426" unicode="&#x426;" horiz-adv-x="689" 
d="M587 43h68c8 0 12 -4 12 -12v-171c0 -9 -4 -13 -12 -13h-20c-9 0 -13 4 -13 13v140h-527c-9 0 -13 4 -13 13v684c0 9 4 13 13 13h21c8 0 12 -4 12 -13v-654h413v654c0 9 4 13 12 13h21c9 0 13 -4 13 -13v-654z" />
    <glyph glyph-name="uni0428" unicode="&#x428;" horiz-adv-x="904" 
d="M788 710h21c9 0 13 -4 13 -13v-684c0 -9 -4 -13 -13 -13h-714c-9 0 -13 4 -13 13v684c0 9 4 13 13 13h21c8 0 12 -4 12 -13v-654h301v654c0 9 4 13 12 13h22c8 0 12 -4 12 -13v-654h301v654c0 9 4 13 12 13z" />
    <glyph glyph-name="uni0429" unicode="&#x429;" horiz-adv-x="925" 
d="M822 43h69c9 0 13 -4 13 -12v-171c0 -9 -4 -13 -13 -13h-19c-9 0 -13 4 -13 13v140h-764c-9 0 -13 4 -13 13v684c0 9 4 13 13 13h21c8 0 12 -4 12 -13v-654h301v654c0 9 4 13 12 13h22c8 0 12 -4 12 -13v-654h301v654c0 9 4 13 12 13h21c9 0 13 -4 13 -13v-654z" />
    <glyph glyph-name="uni042F" unicode="&#x42f;" horiz-adv-x="639" 
d="M54 510c0 63 18 113 54 148s86 52 149 52h287c9 0 13 -4 13 -13v-684c0 -9 -4 -13 -13 -13h-21c-8 0 -12 4 -12 13v299h-169c-73 0 -124 -32 -154 -95l-96 -206c-4 -7 -12 -11 -25 -11h-20c-9 0 -12 4 -7 13l106 222c19 41 44 69 75 82c-111 13 -167 77 -167 193z
M511 667h-249c-51 0 -90 -14 -118 -41s-42 -66 -42 -116c0 -49 14 -88 43 -115c27 -27 66 -40 117 -40h249v312z" />
    <glyph glyph-name="uni042C" unicode="&#x42c;" horiz-adv-x="618" 
d="M364 0h-269c-9 0 -13 4 -13 13v684c0 9 4 13 13 13h21c8 0 12 -4 12 -13v-263h236c68 0 122 -19 162 -57c39 -39 59 -92 59 -159c0 -68 -20 -121 -60 -160c-39 -39 -93 -58 -161 -58zM128 391v-348h232c55 0 98 15 129 46c32 31 48 74 48 129c0 54 -16 96 -48 127
c-31 31 -74 46 -129 46h-232z" />
    <glyph glyph-name="uni042A" unicode="&#x42a;" horiz-adv-x="722" 
d="M232 434h236c68 0 122 -19 162 -57c39 -39 59 -92 59 -159c0 -68 -20 -121 -59 -160s-93 -58 -162 -58h-269c-9 0 -13 4 -13 13v654h-161c-8 0 -12 4 -12 12v18c0 9 4 13 12 13h195c8 0 12 -4 12 -13v-263zM232 43h232c55 0 98 15 129 46c32 31 48 74 48 129
c0 54 -16 96 -48 127c-31 31 -74 46 -129 46h-232v-348z" />
    <glyph glyph-name="uni042B" unicode="&#x42b;" horiz-adv-x="841" 
d="M364 0h-269c-9 0 -13 4 -13 13v684c0 9 4 13 13 13h21c8 0 12 -4 12 -13v-263h236c68 0 122 -19 162 -57c39 -39 59 -92 59 -159c0 -68 -20 -121 -60 -160c-39 -39 -93 -58 -161 -58zM713 13v684c0 9 4 13 13 13h21c8 0 12 -4 12 -13v-684c0 -9 -4 -13 -12 -13h-21
c-9 0 -13 4 -13 13zM128 391v-348h232c55 0 98 15 129 46c32 31 48 74 48 129c0 54 -16 96 -48 127c-31 31 -74 46 -129 46h-232z" />
    <glyph glyph-name="uni042D" unicode="&#x42d;" horiz-adv-x="638" 
d="M45 551c34 115 121 173 262 173c87 0 154 -22 201 -65c46 -43 69 -103 69 -180v-247c0 -77 -23 -137 -70 -180c-47 -44 -114 -66 -200 -66c-141 0 -230 59 -265 178c-3 8 0 13 9 16l19 7c8 3 13 0 16 -8c15 -51 39 -89 72 -112c35 -25 84 -38 149 -38c72 0 127 18 166 54
c38 35 57 85 57 148v107h-328c-8 0 -12 4 -12 12v18c0 9 4 13 12 13h328v99c0 63 -19 112 -56 147c-39 36 -94 54 -167 54c-63 0 -112 -12 -147 -35c-33 -23 -57 -60 -72 -111c-3 -7 -8 -10 -16 -7l-19 6c-8 3 -11 8 -8 17z" />
    <glyph glyph-name="uni042E" unicode="&#x42e;" horiz-adv-x="912" 
d="M320 381v98c0 77 23 137 68 180c46 43 112 65 199 65c85 0 151 -22 197 -65c45 -43 68 -103 68 -180v-248c0 -77 -23 -136 -68 -179c-46 -44 -112 -66 -197 -66c-87 0 -153 22 -199 66c-45 42 -68 102 -68 179v107h-192v-325c0 -9 -4 -13 -12 -13h-21c-9 0 -13 4 -13 13
v684c0 9 4 13 13 13h21c8 0 12 -4 12 -13v-316h192zM806 232v246c0 64 -19 114 -56 149c-38 36 -92 54 -163 54c-72 0 -127 -18 -165 -54c-37 -35 -56 -85 -56 -149v-246c0 -64 19 -114 56 -149c38 -36 93 -54 165 -54c71 0 125 18 163 54c37 35 56 85 56 149z" />
    <glyph glyph-name="uni0430" unicode="&#x430;" horiz-adv-x="509" 
d="M57 421c37 71 102 106 197 106c129 0 194 -65 194 -195v-263c0 -28 -12 -47 -36 -57c-40 -17 -93 -26 -159 -26c-82 0 -139 13 -171 39c-28 23 -42 60 -42 113c0 55 17 95 50 118c33 22 89 33 167 33c29 0 79 -4 148 -11v55c0 49 -10 85 -29 109c-24 31 -65 46 -124 46
c-75 0 -127 -28 -157 -85c-4 -6 -9 -8 -16 -5l-16 6c-8 4 -10 10 -6 17zM405 79v163c-73 7 -124 11 -152 11c-62 0 -106 -9 -131 -26s-38 -47 -38 -88c0 -40 11 -69 32 -86c25 -21 69 -31 134 -31c54 0 98 7 132 20c15 7 23 19 23 37z" />
    <glyph glyph-name="uni0431" unicode="&#x431;" horiz-adv-x="551" 
d="M336 733h37c37 0 64 5 81 14c8 3 13 1 16 -7l6 -16c2 -7 0 -12 -7 -16c-19 -11 -51 -16 -95 -16h-38c-88 0 -149 -19 -182 -56c-31 -36 -47 -101 -47 -196v-25c39 59 100 89 183 89c67 0 119 -17 156 -51c36 -33 54 -80 54 -140v-136c0 -61 -18 -107 -55 -140
c-37 -34 -92 -51 -163 -51c-70 0 -124 17 -161 51c-37 33 -55 80 -55 140v254c0 111 19 189 57 233c40 46 111 69 213 69zM457 177v136c0 101 -58 152 -175 152c-50 0 -92 -14 -126 -41c-24 -20 -40 -41 -47 -63v-184c0 -48 15 -85 44 -112c30 -27 73 -40 129 -40
c117 0 175 51 175 152z" />
    <glyph glyph-name="uni0432" unicode="&#x432;" horiz-adv-x="531" 
d="M468 382c0 -55 -22 -93 -66 -114c56 -20 84 -63 84 -129c0 -43 -13 -77 -38 -102s-59 -37 -104 -37h-261c-8 0 -12 4 -12 12v488c0 8 4 12 12 12h247c92 0 138 -43 138 -130zM114 283h215c29 0 52 8 69 25c18 17 27 41 27 72c0 63 -34 95 -101 95h-210v-192zM114 37h223
c70 0 105 35 105 105s-36 105 -107 105h-221v-210z" />
    <glyph glyph-name="uni0433" unicode="&#x433;" horiz-adv-x="424" 
d="M82 512h314c7 0 11 -4 11 -11v-17c0 -7 -4 -11 -11 -11h-282v-461c0 -8 -4 -12 -12 -12h-20c-7 0 -11 4 -11 12v489c0 7 4 11 11 11z" />
    <glyph glyph-name="uni0434" unicode="&#x434;" horiz-adv-x="582" 
d="M489 40h61c7 0 11 -4 11 -12v-155c0 -8 -4 -12 -11 -12h-19c-8 0 -12 4 -12 12v127h-464v-127c0 -8 -4 -12 -12 -12h-18c-8 0 -12 4 -12 12v155c0 8 4 12 12 12h35c49 41 74 141 74 300v161c0 7 4 11 12 11h332c7 0 11 -4 11 -11v-461zM176 473v-135
c0 -153 -21 -252 -64 -298h335v433h-271z" />
    <glyph glyph-name="uni0435" unicode="&#x435;" horiz-adv-x="527" 
d="M51 183v135c0 65 18 116 55 153s91 56 161 56c71 0 125 -19 162 -57c36 -37 54 -87 54 -150v-51c0 -15 -8 -22 -23 -22h-366v-68c0 -104 56 -156 167 -156c82 0 141 33 177 98c5 7 11 9 18 5l14 -8c8 -4 9 -10 4 -18c-41 -76 -112 -114 -213 -114c-69 0 -122 18 -159 54
c-34 34 -51 82 -51 143zM440 282v40c0 52 -14 93 -43 122c-30 30 -73 45 -130 45s-100 -15 -130 -45c-29 -29 -43 -70 -43 -122v-40h346z" />
    <glyph glyph-name="uni0451" unicode="&#x451;" horiz-adv-x="527" 
d="M168 677h6c15 0 23 -8 23 -23v-7c0 -15 -8 -22 -23 -22h-6c-15 0 -23 7 -23 22v7c0 15 8 23 23 23zM360 677h5c15 0 23 -8 23 -23v-7c0 -15 -8 -22 -23 -22h-5c-16 0 -24 7 -24 22v7c0 15 8 23 24 23zM51 183v135c0 65 18 116 55 153s91 56 161 56c71 0 125 -19 162 -57
c36 -37 54 -87 54 -150v-51c0 -15 -8 -22 -23 -22h-366v-68c0 -104 56 -156 167 -156c82 0 141 33 177 98c5 7 11 9 18 5l14 -8c8 -4 9 -10 4 -18c-41 -76 -112 -114 -213 -114c-69 0 -122 18 -159 54c-34 34 -51 82 -51 143zM440 282v40c0 52 -14 93 -43 122
c-30 30 -73 45 -130 45s-100 -15 -130 -45c-29 -29 -43 -70 -43 -122v-40h346z" />
    <glyph glyph-name="uni0436" unicode="&#x436;" horiz-adv-x="742" 
d="M362 512h18c8 0 12 -4 12 -11v-218h111l156 220c4 6 12 9 24 9h17c11 0 14 -4 8 -13l-164 -227c33 -10 59 -35 80 -76l91 -183c5 -9 3 -13 -6 -13h-20c-9 0 -16 3 -19 10l-83 168c-21 44 -57 66 -106 66h-89v-232c0 -8 -4 -12 -12 -12h-18c-9 0 -13 4 -13 12v232h-88
c-49 0 -85 -22 -106 -66l-83 -168c-3 -7 -10 -10 -19 -10h-20c-9 0 -11 4 -7 13l92 183c21 41 47 66 79 76l-163 227c-6 9 -4 13 7 13h18c11 0 19 -3 23 -9l157 -220h110v218c0 7 4 11 13 11z" />
    <glyph glyph-name="uni0437" unicode="&#x437;" horiz-adv-x="512" 
d="M42 395c9 27 25 51 48 72c42 40 98 60 167 60c65 0 115 -14 150 -42c31 -26 47 -60 47 -103c0 -58 -26 -97 -77 -116v-2c59 -17 88 -59 88 -128c0 -100 -68 -150 -205 -150c-113 0 -188 47 -225 140c-3 8 -1 13 8 16l17 5c8 3 13 0 16 -8c29 -76 90 -114 185 -114
c106 0 159 38 159 114c0 70 -40 105 -120 105h-115c-7 0 -11 4 -11 13v12c0 8 4 12 11 12h113c75 0 112 33 112 98c0 32 -12 58 -36 77c-27 21 -66 32 -117 32c-58 0 -104 -17 -137 -50c-8 -8 -20 -27 -37 -56c-3 -9 -8 -12 -17 -9l-16 5c-8 3 -11 9 -8 17z" />
    <glyph glyph-name="uni0438" unicode="&#x438;" horiz-adv-x="562" 
d="M82 512h20c8 0 12 -4 12 -11v-340c0 -34 -2 -68 -6 -101h1c7 11 23 36 50 73l290 374c3 3 6 5 11 5h20c7 0 11 -4 11 -11v-489c0 -8 -4 -12 -11 -12h-20c-8 0 -12 4 -12 12v330c0 34 2 70 7 109h-2c-7 -10 -25 -35 -54 -76l-285 -368c-3 -5 -7 -7 -12 -7h-20
c-7 0 -11 4 -11 12v489c0 7 4 11 11 11z" />
    <glyph glyph-name="uni0439" unicode="&#x439;" horiz-adv-x="562" 
d="M433 702c-22 -74 -72 -111 -150 -111c-79 0 -129 37 -150 111c-2 6 0 10 5 12l17 6c5 1 9 0 12 -5c15 -61 54 -91 116 -91c61 0 99 30 116 91c2 5 6 7 11 5l17 -6c5 -3 7 -7 6 -12zM82 512h20c8 0 12 -4 12 -11v-340c0 -34 -2 -68 -6 -101h1c7 11 23 36 50 73l290 374
c3 3 6 5 11 5h20c7 0 11 -4 11 -11v-489c0 -8 -4 -12 -11 -12h-20c-8 0 -12 4 -12 12v330c0 34 2 70 7 109h-2c-7 -10 -25 -35 -54 -76l-285 -368c-3 -5 -7 -7 -12 -7h-20c-7 0 -11 4 -11 12v489c0 7 4 11 11 11z" />
    <glyph glyph-name="uni043A" unicode="&#x43a;" horiz-adv-x="514" 
d="M398 196l92 -183c4 -9 2 -13 -7 -13h-20c-9 0 -16 3 -19 10l-83 168c-21 44 -57 66 -106 66h-141v-232c0 -8 -4 -12 -12 -12h-19c-8 0 -12 4 -12 12v489c0 7 4 11 12 11h19c8 0 12 -4 12 -11v-218h146l174 220c4 6 12 9 23 9h18c12 0 14 -4 7 -13l-178 -223
c41 -8 72 -35 94 -80z" />
    <glyph glyph-name="uni043B" unicode="&#x43b;" horiz-adv-x="534" 
d="M126 512h325c8 0 12 -4 12 -11v-489c0 -8 -4 -12 -12 -12h-20c-7 0 -11 4 -11 12v460h-264v-145c0 -117 -13 -202 -39 -256c-19 -37 -49 -65 -91 -84c-7 -3 -11 -1 -14 5l-10 20c-3 5 -1 10 5 13c34 16 58 38 73 67c23 47 35 126 35 237v172c0 7 4 11 11 11z" />
    <glyph glyph-name="uni043C" unicode="&#x43c;" horiz-adv-x="636" 
d="M536 512h17c9 0 13 -4 13 -13v-487c0 -8 -4 -12 -13 -12h-15c-9 0 -13 4 -13 12v319c0 31 2 70 7 115h-2c-10 -21 -26 -52 -49 -93l-140 -248c-3 -7 -9 -10 -16 -10h-10c-7 0 -13 3 -17 10l-139 243c-14 24 -31 57 -52 99h-2c4 -57 6 -99 6 -124v-311
c0 -8 -4 -12 -11 -12h-17c-8 0 -12 4 -12 12v487c0 9 4 13 13 13h14c8 0 14 -3 18 -10l204 -359l201 358c3 7 8 11 15 11z" />
    <glyph glyph-name="uni043D" unicode="&#x43d;" horiz-adv-x="557" 
d="M455 512h20c7 0 11 -4 11 -11v-489c0 -8 -4 -12 -11 -12h-20c-8 0 -12 4 -12 12v232h-329v-232c0 -8 -4 -12 -12 -12h-20c-7 0 -11 4 -11 12v489c0 7 4 11 11 11h20c8 0 12 -4 12 -11v-218h329v218c0 7 4 11 12 11z" />
    <glyph glyph-name="uni043E" unicode="&#x43e;" horiz-adv-x="537" 
d="M54 161v190c0 54 19 97 58 129c39 31 91 47 156 47c66 0 118 -16 157 -47s58 -74 58 -129v-190c0 -54 -19 -97 -58 -128s-91 -47 -157 -47c-65 0 -117 16 -156 47s-58 74 -58 128zM440 161v191c0 42 -16 75 -47 100c-31 24 -73 36 -125 36c-51 0 -93 -12 -124 -36
c-31 -25 -47 -59 -47 -100v-191c0 -41 16 -74 47 -99s73 -37 124 -37c52 0 94 12 125 37c31 24 47 57 47 99z" />
    <glyph glyph-name="uni043F" unicode="&#x43f;" horiz-adv-x="552" 
d="M82 512h388c7 0 11 -4 11 -11v-489c0 -8 -4 -12 -11 -12h-20c-7 0 -11 4 -11 12v461h-325v-461c0 -8 -4 -12 -12 -12h-20c-7 0 -11 4 -11 12v489c0 7 4 11 11 11z" />
    <glyph glyph-name="uni0440" unicode="&#x440;" horiz-adv-x="534" 
d="M108 498c48 19 104 29 167 29c137 0 206 -67 206 -200v-147c0 -129 -66 -194 -197 -194c-55 0 -113 14 -173 43v-237c0 -8 -4 -12 -11 -12h-20c-8 0 -12 4 -12 12v651c0 26 13 44 40 55zM438 181v145c0 107 -56 161 -168 161c-49 0 -93 -8 -134 -23
c-17 -7 -25 -18 -25 -34v-361c59 -29 116 -44 171 -44c104 0 156 52 156 156z" />
    <glyph glyph-name="uni0441" unicode="&#x441;" horiz-adv-x="513" 
d="M53 180v153c0 61 18 109 53 142c37 35 90 52 160 52c111 0 179 -46 206 -137c3 -8 0 -14 -7 -17l-17 -6c-8 -3 -13 0 -16 8c-23 75 -79 113 -168 113c-55 0 -97 -14 -126 -41s-43 -64 -43 -112v-156c0 -48 14 -86 43 -113c30 -27 72 -41 126 -41c91 0 147 40 170 119
c3 8 8 11 16 8l18 -6c8 -3 10 -9 7 -16c-29 -96 -100 -144 -211 -144c-69 0 -121 17 -158 52c-35 33 -53 81 -53 142z" />
    <glyph glyph-name="uni0442" unicode="&#x442;" horiz-adv-x="441" 
d="M26 512h389c8 0 12 -4 12 -11v-17c0 -7 -4 -11 -12 -11h-172v-461c0 -8 -4 -12 -12 -12h-19c-8 0 -12 4 -12 12v461h-174c-7 0 -11 4 -11 11v17c0 7 4 11 11 11z" />
    <glyph glyph-name="uni0443" unicode="&#x443;" horiz-adv-x="549" 
d="M447 512h20c7 0 11 -4 11 -11v-538c0 -144 -69 -216 -208 -216c-92 0 -157 38 -195 113c-6 9 -4 15 5 19l13 7c8 4 14 2 19 -5c32 -63 84 -95 157 -95c111 0 166 58 166 175v65c-59 -22 -118 -33 -175 -33c-129 0 -194 64 -194 193v315c0 7 4 11 12 11h19
c8 0 12 -4 12 -11v-313c0 -104 52 -156 155 -156c57 0 114 11 171 34v435c0 7 4 11 12 11z" />
    <glyph glyph-name="uni0444" unicode="&#x444;" horiz-adv-x="738" 
d="M391 728v-207c29 3 57 5 83 6c141 0 212 -67 212 -202v-138c0 -134 -71 -201 -212 -201c-35 1 -63 3 -83 6v-200c0 -8 -4 -12 -12 -12h-19c-8 0 -12 4 -12 12v200c-19 -3 -47 -5 -84 -6c-141 0 -212 67 -212 201v131c0 75 22 131 67 166c36 29 84 43 145 43
c27 -1 55 -3 84 -6v207c0 8 4 12 12 12h19c8 0 12 -4 12 -12zM95 317v-129c0 -108 57 -162 170 -162c24 0 52 2 84 5v451c-32 3 -60 5 -84 5c-45 0 -82 -11 -111 -32c-39 -29 -59 -75 -59 -138zM642 188v136c0 109 -57 163 -170 163c-23 0 -51 -2 -82 -5v-451
c31 -3 59 -5 82 -5c113 0 170 54 170 162z" />
    <glyph glyph-name="uni0445" unicode="&#x445;" horiz-adv-x="477" 
d="M419 512h20c11 0 13 -4 7 -12l-181 -237l193 -251c5 -8 3 -12 -8 -12h-21c-8 0 -15 3 -20 10l-172 223l-171 -223c-4 -7 -11 -10 -20 -10h-20c-10 0 -13 4 -8 12l193 252l-184 236c-5 8 -2 12 9 12h20c9 0 16 -3 20 -9l162 -209l161 209c5 6 11 9 20 9z" />
    <glyph glyph-name="uni0447" unicode="&#x447;" horiz-adv-x="505" 
d="M37 370v131c0 7 4 11 11 11h20c8 0 12 -4 12 -11v-130c0 -49 13 -84 39 -106c25 -22 66 -33 122 -33c42 0 92 9 150 26v243c0 7 4 11 12 11h20c7 0 11 -4 11 -11v-489c0 -8 -4 -12 -11 -12h-20c-8 0 -12 4 -12 12v205c-53 -16 -105 -24 -155 -24c-133 0 -199 59 -199 177
z" />
    <glyph glyph-name="uni0446" unicode="&#x446;" horiz-adv-x="567" 
d="M474 40h61c7 0 11 -4 11 -12v-155c0 -8 -4 -12 -11 -12h-19c-8 0 -12 4 -12 12v127h-422c-7 0 -11 4 -11 12v489c0 7 4 11 11 11h20c8 0 12 -4 12 -11v-461h318v461c0 7 4 11 11 11h20c7 0 11 -4 11 -11v-461z" />
    <glyph glyph-name="uni0448" unicode="&#x448;" horiz-adv-x="759" 
d="M657 512h19c8 0 12 -4 12 -11v-489c0 -8 -4 -12 -12 -12h-594c-7 0 -11 4 -11 12v489c0 7 4 11 11 11h20c8 0 12 -4 12 -11v-461h244v461c0 7 4 11 12 11h19c8 0 12 -4 12 -11v-461h244v461c0 7 4 11 12 11z" />
    <glyph glyph-name="uni0449" unicode="&#x449;" horiz-adv-x="779" 
d="M688 40h59c7 0 11 -4 11 -12v-155c0 -8 -4 -12 -11 -12h-19c-8 0 -12 4 -12 12v127h-634c-7 0 -11 4 -11 12v489c0 7 4 11 11 11h20c8 0 12 -4 12 -11v-461h244v461c0 7 4 11 12 11h19c8 0 12 -4 12 -11v-461h244v461c0 7 4 11 12 11h19c8 0 12 -4 12 -11v-461z" />
    <glyph glyph-name="uni044F" unicode="&#x44f;" horiz-adv-x="524" 
d="M207 512h234c8 0 12 -4 12 -12v-488c0 -8 -4 -12 -11 -12h-20c-8 0 -12 4 -12 12v182h-192l-126 -184c-4 -7 -11 -10 -21 -10h-19c-11 0 -14 5 -8 14l129 185c-85 12 -128 63 -128 153c0 50 15 89 44 118c29 28 68 42 118 42zM410 474h-199c-37 0 -67 -11 -89 -32
c-22 -22 -33 -52 -33 -90c0 -37 11 -66 33 -87s52 -32 89 -32h199v241z" />
    <glyph glyph-name="uni044C" unicode="&#x44c;" horiz-adv-x="514" 
d="M114 342h194c55 0 97 -15 128 -44s46 -71 46 -126s-15 -98 -46 -128c-31 -29 -73 -44 -128 -44h-226c-7 0 -11 4 -11 12v489c0 7 4 11 11 11h20c8 0 12 -4 12 -11v-159zM114 39h189c90 0 135 44 135 133c0 87 -45 131 -135 131h-189v-264z" />
    <glyph glyph-name="uni044A" unicode="&#x44a;" horiz-adv-x="610" 
d="M209 342h194c55 0 98 -15 129 -44s46 -71 46 -126s-15 -98 -46 -128c-31 -29 -74 -44 -129 -44h-225c-8 0 -12 4 -12 12v461h-140c-8 0 -12 4 -12 11v17c0 7 4 11 12 11h172c7 0 11 -4 11 -11v-159zM209 39h189c91 0 136 44 136 133c0 87 -45 131 -136 131h-189v-264z
" />
    <glyph glyph-name="uni044B" unicode="&#x44b;" horiz-adv-x="693" 
d="M114 342h194c55 0 97 -15 128 -44s46 -71 46 -126s-15 -98 -46 -128c-31 -29 -73 -44 -128 -44h-226c-7 0 -11 4 -11 12v489c0 7 4 11 11 11h20c8 0 12 -4 12 -11v-159zM591 512h20c7 0 11 -4 11 -11v-489c0 -8 -4 -12 -11 -12h-20c-7 0 -11 4 -11 12v489c0 7 4 11 11 11
zM114 39h189c90 0 135 44 135 133c0 87 -45 131 -135 131h-189v-264z" />
    <glyph glyph-name="uni044D" unicode="&#x44d;" horiz-adv-x="511" 
d="M38 390c27 91 95 137 206 137c70 0 123 -17 160 -52c35 -33 53 -81 53 -142v-153c0 -61 -18 -108 -53 -142c-37 -35 -89 -52 -158 -52c-111 0 -182 48 -211 145c-2 7 1 12 8 16l17 5c8 3 14 0 17 -8c23 -79 79 -119 169 -119c54 0 96 14 125 41s43 65 43 113v63l-230 1
c-8 0 -12 4 -12 11v16c0 8 4 12 12 12h230v53c0 102 -56 153 -168 153c-89 0 -144 -38 -167 -113c-3 -8 -8 -11 -16 -8l-17 6c-8 3 -11 8 -8 17z" />
    <glyph glyph-name="uni044E" unicode="&#x44e;" horiz-adv-x="741" 
d="M265 280v73c0 54 19 97 57 128c37 31 88 46 153 46s117 -15 154 -46s56 -74 56 -128v-194c0 -54 -19 -96 -56 -127s-89 -46 -154 -46s-116 15 -153 46c-38 31 -57 73 -57 127v81h-151v-228c0 -8 -4 -12 -12 -12h-20c-7 0 -11 4 -11 12v489c0 7 4 11 11 11h20
c8 0 12 -4 12 -11v-221h151zM642 158v196c0 41 -15 74 -46 98c-30 24 -70 36 -121 36s-91 -12 -121 -36c-31 -24 -46 -57 -46 -98v-196c0 -41 15 -74 46 -98c30 -23 70 -35 121 -35s91 12 121 35c31 24 46 57 46 98z" />
    <glyph glyph-name="increment" unicode="&#x2206;" horiz-adv-x="608" 
d="M293 710h22c9 0 14 -3 17 -10l241 -647c5 -12 7 -20 7 -25v-15c0 -9 -4 -13 -13 -13h-526c-8 0 -12 4 -12 13v15c0 6 2 14 6 25l241 647c3 7 8 10 17 10zM530 40l-160 435c-9 25 -20 59 -35 103c-13 42 -23 71 -29 88h-3c-6 -16 -16 -45 -30 -88
c-14 -44 -26 -78 -35 -103l-160 -435h452z" />
    <glyph glyph-name="Omega" unicode="&#x2126;" horiz-adv-x="742" 
d="M57 379c0 101 29 184 88 248c59 65 134 97 226 97s168 -32 227 -97c59 -64 88 -146 88 -247c0 -149 -61 -261 -184 -336h181c9 0 13 -4 13 -12v-19c0 -9 -4 -13 -13 -13h-245c-7 0 -10 4 -10 11v15c0 6 3 10 8 13c137 70 205 181 205 334c0 90 -24 164 -73 221
c-50 58 -116 87 -197 87s-146 -29 -196 -87c-49 -57 -73 -131 -73 -220c0 -149 68 -261 203 -335c6 -3 9 -7 9 -13v-15c0 -7 -3 -11 -10 -11h-245c-9 0 -13 4 -13 13v19c0 8 4 12 13 12h181c-122 76 -183 188 -183 335z" />
    <glyph glyph-name="mu" unicode="&#xb5;" horiz-adv-x="542" 
d="M446 512h20c8 0 12 -4 12 -11v-429c0 -25 -13 -43 -38 -54c-55 -22 -112 -33 -173 -33c-80 0 -133 28 -160 85l1 -278c0 -8 -4 -12 -11 -12h-21c-7 0 -11 4 -11 12v709c0 7 4 11 12 11h20c7 0 11 -4 11 -11v-321c0 -104 52 -156 156 -156c55 0 105 9 149 27
c15 6 22 17 22 33v417c0 7 4 11 11 11z" />
    <glyph glyph-name="pi" unicode="&#x3c0;" horiz-adv-x="604" 
d="M165 512h410c8 0 12 -4 12 -11v-16c0 -8 -4 -12 -12 -12h-69v-329c0 -49 9 -89 28 -119c4 -9 2 -15 -5 -18l-16 -8c-7 -3 -13 -1 -17 6c-22 37 -33 84 -33 141v327h-275v-461c0 -8 -4 -12 -11 -12h-20c-8 0 -12 4 -12 12v461c-39 -1 -76 -11 -111 -32c-8 -4 -14 -3 -17 3
l-7 16c-3 7 -1 13 6 16c41 24 91 36 149 36z" />
    <glyph glyph-name="zero" unicode="0" horiz-adv-x="622" 
d="M61 213v284c0 70 22 125 65 166c45 41 106 61 185 61s140 -20 185 -61c43 -41 65 -96 65 -166v-284c0 -71 -22 -126 -65 -166c-45 -41 -106 -61 -185 -61s-140 20 -185 61c-43 40 -65 95 -65 166zM515 213v284c0 57 -18 102 -53 135c-36 33 -86 49 -151 49
s-115 -16 -151 -49c-35 -33 -53 -78 -53 -135v-284c0 -58 18 -103 53 -135c35 -33 86 -49 151 -49s116 16 151 49c35 32 53 77 53 135z" />
    <glyph glyph-name="one" unicode="1" horiz-adv-x="445" 
d="M323 710h17c8 0 12 -4 12 -13v-684c0 -9 -4 -13 -12 -13h-21c-9 0 -13 4 -13 13v641l-247 -137c-7 -5 -13 -3 -18 5l-10 17c-5 6 -3 11 5 16l269 150c5 3 11 5 18 5z" />
    <glyph glyph-name="two" unicode="2" horiz-adv-x="585" 
d="M55 562c47 108 132 162 256 162c65 0 119 -21 160 -62c41 -39 61 -88 61 -147c0 -69 -24 -124 -73 -164c-31 -26 -91 -56 -180 -91c-59 -23 -100 -42 -123 -59c-37 -28 -55 -64 -55 -108v-50h415c9 0 13 -4 13 -12v-18c0 -9 -4 -13 -13 -13h-450c-9 0 -13 4 -13 13v72
c0 59 22 107 66 143c27 23 76 48 147 75c76 29 126 52 150 71c45 34 68 80 68 139c0 47 -16 87 -48 119c-33 33 -75 49 -126 49c-101 0 -171 -45 -211 -135c-3 -7 -9 -10 -16 -7l-20 7c-8 3 -11 9 -8 16z" />
    <glyph glyph-name="three" unicode="3" horiz-adv-x="592" 
d="M519 527c0 -82 -32 -135 -96 -160c78 -24 117 -82 117 -174c0 -138 -79 -207 -236 -207c-75 0 -132 15 -173 46c-37 28 -64 72 -81 132c-3 8 0 13 8 16l19 7c8 3 13 0 16 -8c16 -53 38 -90 67 -112c33 -25 81 -38 144 -38c126 0 189 55 189 164c0 47 -13 83 -38 109
c-26 27 -63 41 -110 41h-167c-8 0 -12 4 -12 12v17c0 9 4 13 12 13h162c44 0 78 14 102 42c21 25 32 58 32 97c0 105 -57 157 -170 157c-61 0 -107 -12 -138 -35c-29 -22 -52 -59 -67 -111c-3 -7 -8 -10 -16 -7l-19 6c-8 3 -11 8 -8 17c17 59 44 102 81 129
c39 29 95 44 168 44c143 0 214 -66 214 -197z" />
    <glyph glyph-name="four" unicode="4" horiz-adv-x="600" 
d="M453 249h105c8 0 12 -4 12 -13v-16c0 -9 -4 -13 -12 -13h-105v-194c0 -9 -4 -13 -13 -13h-18c-9 0 -13 4 -13 13v194h-370c-9 0 -13 4 -13 13v13c0 6 1 11 4 16l371 463c5 6 11 9 18 9h21c9 0 13 -5 13 -14v-458zM409 656l-327 -407h327v407z" />
    <glyph glyph-name="five" unicode="5" horiz-adv-x="580" 
d="M127 710h370c8 0 12 -4 12 -13v-18c0 -8 -4 -12 -12 -12h-351l-24 -247h187c73 0 130 -21 171 -62c37 -39 55 -89 55 -150c0 -63 -21 -115 -62 -157c-44 -44 -102 -66 -175 -66c-133 0 -218 52 -255 156c-3 8 0 13 7 16l21 7c8 4 13 1 16 -8c30 -85 100 -128 211 -128
c57 0 104 18 139 53c33 33 50 76 50 127c0 49 -15 89 -45 120c-32 33 -77 49 -135 49h-219c-12 0 -17 6 -15 17l30 294c1 15 9 22 24 22z" />
    <glyph glyph-name="six" unicode="6" horiz-adv-x="615" 
d="M106 476v-105c58 25 130 38 216 38c162 0 243 -71 243 -212c0 -67 -22 -118 -67 -155s-107 -56 -186 -56c-82 0 -145 22 -188 67c-43 43 -64 103 -64 181v242c0 165 84 248 252 248c123 0 204 -50 243 -151c3 -7 0 -12 -9 -15l-19 -7c-7 -3 -12 -1 -16 8
c-33 81 -99 122 -199 122c-137 0 -206 -68 -206 -205zM106 326v-92c0 -65 17 -116 52 -151c36 -36 87 -54 154 -54c66 0 117 15 153 44s54 70 54 124c0 113 -67 169 -200 169c-81 0 -152 -13 -213 -40z" />
    <glyph glyph-name="seven" unicode="7" horiz-adv-x="510" 
d="M41 710h444c9 0 13 -4 13 -13v-12c0 -5 -1 -11 -4 -18l-288 -656c-3 -7 -11 -11 -23 -11h-21c-8 0 -10 4 -6 13l289 654h-404c-9 0 -13 4 -13 12v18c0 9 4 13 13 13z" />
    <glyph glyph-name="eight" unicode="8" horiz-adv-x="610" 
d="M71 545c0 57 21 102 63 133c41 31 97 46 170 46c157 0 235 -59 235 -176c0 -93 -53 -155 -159 -186c57 -18 99 -38 125 -61c36 -32 54 -75 54 -128c0 -125 -85 -187 -255 -187c-169 0 -253 59 -253 178c0 98 60 165 181 200c-107 37 -161 98 -161 181zM494 544
c0 93 -63 140 -189 140c-125 0 -187 -47 -187 -140c0 -48 20 -85 60 -111c23 -15 68 -32 134 -51l15 -4c111 26 167 81 167 166zM511 173c0 53 -22 92 -67 118c-23 13 -77 32 -161 55c-124 -25 -186 -85 -186 -178c0 -95 69 -142 208 -142c137 0 206 49 206 147z" />
    <glyph glyph-name="nine" unicode="9" horiz-adv-x="615" 
d="M509 234v105c-61 -25 -133 -38 -216 -38c-162 0 -243 71 -243 212c0 67 22 118 67 155c44 37 106 56 185 56c82 0 145 -22 189 -67c43 -43 64 -103 64 -181v-242c0 -165 -84 -248 -253 -248c-123 0 -204 50 -242 151c-3 7 0 12 8 15l19 7c8 3 13 1 16 -8
c33 -81 99 -122 199 -122c138 0 207 68 207 205zM509 384v92c0 65 -17 116 -52 151c-36 36 -88 54 -155 54c-66 0 -117 -14 -152 -43c-36 -29 -54 -71 -54 -125c0 -113 66 -169 199 -169c78 0 149 13 214 40z" />
    <glyph glyph-name="zero.denom" horiz-adv-x="373" 
d="M43 125v146c0 41 13 74 38 97c25 25 61 37 106 37s80 -12 105 -37c25 -24 38 -56 38 -97v-146c0 -41 -13 -74 -38 -97c-25 -24 -60 -36 -105 -36s-81 12 -106 36c-25 23 -38 56 -38 97zM293 125v146c0 30 -9 54 -28 71c-19 18 -45 27 -78 27c-34 0 -60 -9 -79 -27
c-19 -17 -28 -41 -28 -71v-146c0 -65 36 -98 107 -98c33 0 59 9 78 27c19 17 28 41 28 71z" />
    <glyph glyph-name="one.denom" horiz-adv-x="279" 
d="M198 397h8c8 0 12 -4 12 -13v-371c0 -9 -4 -13 -12 -13h-13c-8 0 -12 4 -12 13v337l-137 -77c-8 -4 -14 -2 -18 5l-5 10c-3 7 -2 12 5 17l156 87c5 3 11 5 16 5z" />
    <glyph glyph-name="two.denom" horiz-adv-x="351" 
d="M39 293c11 30 21 50 30 61c26 34 63 51 111 51c42 0 75 -11 99 -34c22 -21 33 -49 33 -84s-12 -61 -36 -80c-15 -11 -43 -24 -84 -39l-61 -22c-38 -13 -57 -39 -57 -79v-32h223c8 0 12 -4 12 -12v-12c0 -7 -4 -11 -12 -11h-246c-9 0 -13 4 -13 13v43c0 59 26 99 77 118
l61 23c37 14 59 24 68 30c20 13 30 33 30 59c0 55 -32 83 -95 83c-54 0 -88 -29 -103 -87c-3 -7 -9 -10 -16 -9l-13 4c-8 2 -11 7 -8 16z" />
    <glyph glyph-name="three.denom" horiz-adv-x="360" 
d="M37 294c21 74 71 111 150 111c39 0 69 -10 92 -31c21 -21 32 -48 32 -81c0 -43 -17 -73 -51 -89c41 -19 62 -52 62 -100c0 -75 -45 -112 -136 -112c-79 0 -130 36 -151 108c-3 9 -1 14 6 17l13 4c7 3 13 0 16 -9c16 -57 55 -86 116 -86c66 0 99 27 99 81
c0 22 -6 40 -19 55s-31 23 -52 23h-71c-7 0 -11 4 -11 11v11c0 8 4 12 12 12h68c42 0 63 24 63 71c0 25 -8 44 -23 59c-16 15 -38 22 -65 22c-60 0 -98 -29 -115 -88c-4 -9 -10 -12 -19 -9l-9 3c-7 4 -10 10 -7 17z" />
    <glyph glyph-name="four.denom" horiz-adv-x="353" 
d="M268 144h51c7 0 11 -3 11 -10v-11c0 -7 -4 -11 -11 -11h-51v-101c0 -7 -4 -11 -11 -11h-15c-7 0 -10 4 -10 11v101h-201c-7 0 -11 4 -11 11v9c0 5 1 10 4 15l198 242c5 5 11 8 18 8h16c8 0 12 -4 12 -13v-240zM232 349l-168 -205h168v205z" />
    <glyph glyph-name="five.denom" horiz-adv-x="348" 
d="M78 397h212c6 0 9 -3 9 -10v-14c0 -7 -3 -10 -9 -10h-193l-13 -124h88c94 0 141 -40 141 -120c0 -37 -11 -66 -33 -89c-24 -25 -58 -38 -103 -38c-78 0 -127 36 -147 107c-3 9 -1 14 6 17l12 4c7 2 13 -1 16 -8c15 -57 53 -86 112 -86c33 0 59 9 77 27c16 17 24 38 24 65
c0 59 -35 88 -106 88h-112c-9 0 -13 4 -12 13l16 165c2 9 7 13 15 13z" />
    <glyph glyph-name="six.denom" horiz-adv-x="371" 
d="M79 253v-47c43 17 85 26 124 26c89 0 134 -39 134 -118c0 -81 -50 -122 -150 -122c-97 0 -145 51 -145 152v108c0 102 50 153 149 153c65 0 109 -25 133 -75c3 -5 2 -10 -4 -13l-15 -7c-6 -3 -11 -2 -14 3c-17 38 -51 57 -100 57c-75 0 -112 -39 -112 -117zM79 170v-27
c0 -77 36 -116 108 -116c75 0 112 29 112 87c0 56 -33 84 -100 84c-43 0 -83 -9 -120 -28z" />
    <glyph glyph-name="seven.denom" horiz-adv-x="307" 
d="M31 397h251c7 0 10 -3 10 -10v-9c0 -5 -1 -10 -3 -13l-153 -357c-2 -5 -7 -8 -15 -8h-15c-9 0 -11 4 -8 13l151 349h-218c-7 0 -10 3 -10 9v15c0 7 3 11 10 11z" />
    <glyph glyph-name="eight.denom" horiz-adv-x="373" 
d="M47 295c0 35 13 62 38 81s59 29 102 29s77 -9 101 -28c24 -18 36 -43 36 -74c0 -49 -25 -83 -75 -101c59 -15 88 -47 88 -95c0 -77 -50 -115 -150 -115c-101 0 -151 35 -151 105c0 49 28 83 85 104c-49 17 -74 48 -74 94zM286 299c0 50 -33 75 -100 75s-101 -26 -101 -79
c0 -24 9 -42 26 -54c17 -11 48 -20 93 -27c55 13 82 41 82 85zM298 106c0 25 -10 43 -29 54c-18 11 -52 19 -102 26c-61 -17 -92 -45 -92 -86c0 -51 37 -77 112 -77c74 0 111 28 111 83z" />
    <glyph glyph-name="nine.denom" horiz-adv-x="372" 
d="M292 144v47c-43 -18 -84 -27 -124 -27c-89 0 -133 39 -133 118c0 82 50 123 150 123c97 0 145 -51 145 -152v-108c0 -102 -50 -153 -149 -153c-66 0 -111 25 -134 75c-3 5 -1 9 5 12l15 8c6 2 10 1 13 -4c19 -37 52 -56 101 -56c74 0 111 39 111 117zM292 227v26
c0 78 -36 117 -107 117c-75 0 -113 -29 -113 -88c0 -55 34 -83 101 -83c45 0 85 9 119 28z" />
    <glyph glyph-name="zero.num" horiz-adv-x="373" 
d="M43 447v146c0 41 13 73 38 97s61 36 106 36s80 -12 105 -36s38 -56 38 -97v-146c0 -41 -13 -74 -38 -97c-25 -24 -60 -36 -105 -36s-81 12 -106 36c-25 23 -38 56 -38 97zM293 447v146c0 30 -9 54 -28 71s-45 26 -78 26c-71 0 -107 -32 -107 -97v-146
c0 -65 36 -98 107 -98s106 33 106 98z" />
    <glyph glyph-name="one.num" horiz-adv-x="279" 
d="M198 718h8c8 0 12 -4 12 -12v-372c0 -8 -4 -12 -12 -12h-13c-8 0 -12 4 -12 12v337l-137 -76c-8 -4 -14 -3 -18 4l-5 10c-3 7 -2 13 5 17l156 88c5 3 10 4 16 4z" />
    <glyph glyph-name="two.num" horiz-adv-x="351" 
d="M40 614c11 29 20 50 29 61c26 34 63 51 111 51c43 0 76 -11 100 -34c22 -21 33 -48 33 -83s-12 -62 -37 -81c-15 -12 -43 -25 -84 -38l-61 -22c-38 -15 -57 -41 -57 -79v-33h224c7 0 11 -4 11 -11v-12c0 -7 -4 -11 -11 -11h-246c-9 0 -14 4 -14 13v43c0 59 26 99 77 118
l61 23c37 14 60 24 68 29c20 14 30 34 30 59c0 56 -32 84 -95 84c-37 0 -65 -14 -84 -42c-6 -9 -11 -19 -15 -30c-4 -13 -5 -18 -4 -15c-3 -9 -9 -12 -16 -9l-12 4c-9 2 -12 7 -8 15z" />
    <glyph glyph-name="three.num" horiz-adv-x="361" 
d="M37 616c21 73 72 110 151 110c39 0 69 -10 92 -31c21 -20 32 -47 32 -81c0 -42 -17 -71 -51 -88c41 -19 62 -52 62 -101c0 -74 -45 -111 -136 -111c-79 0 -130 36 -151 108c-3 9 -1 14 6 16l13 4c7 3 12 0 15 -8c17 -57 56 -86 117 -86c66 0 99 27 99 81
c0 22 -6 40 -19 54c-13 15 -31 23 -52 23h-71c-7 0 -11 4 -11 12v10c0 8 4 12 12 12h68c42 0 63 24 63 71c0 25 -8 44 -23 59c-16 15 -38 22 -65 22c-60 0 -98 -29 -115 -87c-3 -9 -10 -13 -19 -10l-9 4c-8 3 -11 8 -8 17z" />
    <glyph glyph-name="four.num" horiz-adv-x="355" 
d="M268 466h52c7 0 11 -4 11 -11v-11c0 -7 -4 -11 -11 -11h-52v-101c0 -7 -4 -10 -11 -10h-15c-7 0 -10 3 -10 10v101h-201c-7 0 -11 4 -11 12v8c0 5 1 10 4 15l198 242c5 5 11 8 18 8h16c8 0 12 -4 12 -12v-240zM232 671l-168 -205h168v205z" />
    <glyph glyph-name="five.num" horiz-adv-x="348" 
d="M78 718h212c6 0 9 -3 9 -9v-15c0 -6 -3 -9 -9 -9h-193l-13 -125h88c94 0 141 -40 141 -120c0 -37 -11 -66 -33 -88c-24 -25 -58 -38 -103 -38c-79 0 -128 36 -147 107c-3 9 -1 14 6 17l12 3c7 2 13 0 16 -7c15 -57 53 -86 112 -86c67 0 101 31 101 92
c0 59 -35 88 -106 88h-112c-9 0 -13 4 -12 13l16 165c2 8 7 12 15 12z" />
    <glyph glyph-name="six.num" horiz-adv-x="372" 
d="M79 574v-47c45 18 87 27 124 27c89 0 134 -39 134 -118c0 -81 -50 -122 -150 -122c-97 0 -145 50 -145 151v108c0 102 50 153 149 153c65 0 110 -25 133 -75c3 -5 2 -9 -4 -12l-15 -8c-6 -3 -11 -1 -14 4c-17 38 -51 57 -100 57c-75 0 -112 -39 -112 -118zM79 491v-26
c0 -78 36 -117 108 -117c75 0 112 29 112 88c0 55 -33 83 -100 83c-43 0 -83 -9 -120 -28z" />
    <glyph glyph-name="seven.num" horiz-adv-x="307" 
d="M32 718h251c7 0 10 -3 10 -9v-9c0 -4 -1 -9 -3 -14l-153 -357c-2 -5 -7 -7 -15 -7h-16c-8 0 -10 4 -7 12l151 349h-218c-7 0 -10 3 -10 10v15c0 7 3 10 10 10z" />
    <glyph glyph-name="eight.num" horiz-adv-x="373" 
d="M47 617c0 35 13 62 38 81s59 28 102 28s77 -9 101 -28c24 -18 36 -43 36 -74c0 -48 -25 -82 -75 -101c59 -15 88 -47 88 -95c0 -76 -50 -114 -150 -114c-101 0 -151 35 -151 104c0 51 28 85 85 104c-49 17 -74 48 -74 95zM286 621c0 49 -33 74 -100 74s-101 -26 -101 -78
c0 -25 9 -43 26 -54c17 -12 48 -21 93 -28c55 15 82 43 82 86zM298 427c0 25 -10 43 -29 55c-19 11 -53 19 -102 26c-27 -9 -45 -16 -52 -20c-27 -16 -40 -38 -40 -66c0 -51 37 -77 112 -77c74 0 111 27 111 82z" />
    <glyph glyph-name="nine.num" horiz-adv-x="372" 
d="M292 465v47c-41 -17 -83 -26 -124 -26c-89 0 -133 39 -133 118c0 81 50 122 150 122c97 0 145 -51 145 -152v-108c0 -101 -50 -152 -149 -152c-66 0 -111 25 -134 74c-3 5 -2 10 5 13l15 7c6 3 10 2 13 -3c19 -38 53 -57 101 -57c74 0 111 39 111 117zM292 548v27
c0 78 -36 117 -107 117c-75 0 -113 -29 -113 -88c0 -56 34 -84 101 -84c45 0 85 9 119 28z" />
    <glyph glyph-name="fraction" unicode="&#x2044;" horiz-adv-x="141" 
d="M-206 13l505 685c5 8 13 12 23 12h17c11 0 14 -4 7 -13l-504 -685c-7 -8 -15 -12 -26 -12h-15c-10 0 -12 4 -7 13z" />
    <glyph glyph-name="onehalf" unicode="&#xbd;" horiz-adv-x="843" 
d="M210 718h8c8 0 12 -4 12 -12v-372c0 -8 -4 -12 -12 -12h-13c-8 0 -12 4 -12 12v337l-137 -76c-8 -4 -14 -3 -18 4l-5 10c-3 7 -2 13 5 17l156 88c5 3 10 4 16 4zM648 710h17c11 0 14 -4 7 -13l-504 -685c-5 -8 -14 -12 -26 -12h-15c-11 0 -13 4 -6 13l504 685
c5 8 13 12 23 12zM526 293c11 30 21 50 30 61c26 34 63 51 111 51c42 0 75 -11 99 -34c22 -21 33 -49 33 -84s-12 -61 -36 -80c-15 -11 -43 -24 -84 -39l-61 -22c-39 -13 -58 -40 -58 -79v-32h224c8 0 12 -4 12 -12v-12c0 -7 -4 -11 -12 -11h-246c-9 0 -14 4 -14 13v43
c0 59 26 98 78 118l61 23c37 14 59 24 68 30c20 13 30 33 30 59c0 55 -32 83 -95 83c-37 0 -66 -14 -85 -42c-6 -9 -11 -19 -14 -30l-5 -15c-3 -7 -8 -10 -15 -9l-13 4c-8 2 -11 7 -8 16z" />
    <glyph glyph-name="onethird" unicode="&#x2153;" horiz-adv-x="861" 
d="M210 717h8c8 0 12 -4 12 -13v-371c0 -9 -4 -13 -12 -13h-13c-8 0 -12 4 -12 13v337l-137 -76c-9 -4 -15 -3 -18 4l-5 10c-3 7 -2 13 5 17l156 88c5 3 10 4 16 4zM658 710h18c10 0 12 -4 7 -13l-504 -685c-7 -8 -15 -12 -26 -12h-16c-11 0 -13 4 -6 13l504 685
c5 8 13 12 23 12zM535 294c21 74 72 111 151 111c39 0 69 -10 92 -31c21 -21 32 -48 32 -81c0 -43 -17 -73 -51 -89c41 -19 62 -52 62 -100c0 -75 -45 -112 -136 -112c-79 0 -130 36 -151 108c-3 9 -1 14 6 17l13 4c7 3 12 0 15 -9c17 -57 56 -86 117 -86c66 0 99 27 99 81
c0 22 -6 40 -19 55s-31 23 -52 23h-71c-7 0 -11 4 -11 11v11c0 8 4 12 12 12h68c42 0 63 24 63 71c0 25 -8 44 -23 59c-16 15 -38 22 -65 22c-60 0 -98 -29 -115 -88c-4 -9 -10 -12 -19 -9l-9 3c-7 4 -10 10 -8 17z" />
    <glyph glyph-name="twothirds" unicode="&#x2154;" horiz-adv-x="869" 
d="M50 614c27 75 73 112 140 112c43 0 76 -11 100 -34c22 -21 33 -48 33 -83s-12 -62 -36 -81c-15 -12 -43 -25 -84 -38l-61 -22c-39 -14 -58 -40 -58 -79v-33h224c8 0 12 -4 12 -11v-12c0 -7 -4 -11 -12 -11h-246c-9 0 -14 4 -14 13v43c0 59 26 98 78 118l61 23
c37 14 60 24 68 29c20 14 30 34 30 59s-8 45 -24 60c-17 16 -40 24 -71 24c-37 0 -66 -14 -85 -42c-6 -9 -11 -19 -14 -30l-5 -15c-3 -9 -8 -12 -15 -9l-13 4c-8 2 -11 7 -8 15zM696 710h17c10 0 12 -4 7 -13l-504 -685c-7 -8 -15 -12 -26 -12h-16c-11 0 -13 4 -6 13
l504 685c5 8 13 12 24 12zM544 294c21 74 72 111 151 111c39 0 69 -10 92 -31c21 -21 32 -48 32 -81c0 -43 -17 -72 -51 -89c41 -19 62 -52 62 -100c0 -75 -45 -112 -136 -112c-79 0 -129 36 -152 108c-3 9 -1 14 6 17l13 4c8 3 13 0 16 -9c17 -57 56 -86 117 -86
c66 0 99 27 99 81c0 22 -6 40 -19 55s-31 23 -52 23h-71c-7 0 -11 4 -11 11v11c0 8 4 12 12 12h67c43 0 64 24 64 71c0 25 -8 44 -23 59c-16 15 -38 22 -65 22c-60 0 -98 -29 -115 -88c-4 -9 -10 -12 -19 -9l-10 3c-7 4 -9 10 -7 17z" />
    <glyph glyph-name="onequarter" unicode="&#xbc;" horiz-adv-x="777" 
d="M210 716h8c8 0 12 -4 12 -12v-372c0 -8 -4 -12 -12 -12h-13c-9 0 -13 4 -13 12v337l-137 -76c-7 -4 -13 -3 -17 4l-5 10c-4 7 -2 13 5 17l156 88c5 3 10 4 16 4zM647 710h18c10 0 12 -4 7 -13l-504 -685c-7 -8 -15 -12 -26 -12h-16c-11 0 -13 4 -6 13l504 685
c5 8 13 12 23 12zM653 397h16c8 0 12 -4 12 -13v-240h50c7 0 11 -3 11 -10v-11c0 -7 -4 -11 -11 -11h-50v-101c0 -7 -4 -11 -11 -11h-15c-7 0 -10 4 -10 11v101h-201c-7 0 -11 4 -11 11v9c0 7 1 12 4 15l198 242c5 5 11 8 18 8zM477 144h168v205z" />
    <glyph glyph-name="threequarters" unicode="&#xbe;" horiz-adv-x="818" 
d="M44 616c21 73 72 110 151 110c39 0 69 -10 92 -31c21 -20 32 -47 32 -80c0 -43 -17 -72 -51 -89c41 -19 62 -52 62 -101c0 -74 -45 -111 -136 -111c-79 0 -129 36 -152 108c-3 9 -1 14 6 16l13 5c8 2 13 -1 16 -9c17 -57 56 -86 117 -86c66 0 99 27 99 81
c0 22 -6 40 -19 54c-13 15 -31 23 -52 23h-71c-7 0 -11 4 -11 12v10c0 8 4 12 12 12h67c43 0 64 24 64 72c0 53 -29 80 -88 80c-60 0 -98 -29 -115 -87c-3 -9 -10 -12 -19 -9l-10 3c-7 3 -10 9 -7 17zM691 710h17c10 0 12 -4 7 -13l-504 -685c-7 -8 -15 -12 -26 -12h-16
c-11 0 -13 4 -6 13l504 685c5 8 13 12 24 12zM694 397h16c8 0 12 -4 12 -13v-240h50c8 0 12 -3 12 -10v-11c0 -7 -4 -11 -12 -11h-50v-101c0 -7 -4 -11 -11 -11h-15c-7 0 -10 4 -10 11v101h-201c-7 0 -11 4 -11 11v9c0 7 1 12 4 15l198 242c5 5 11 8 18 8zM686 144v205
l-168 -205h168z" />
    <glyph glyph-name="oneeighth" unicode="&#x215b;" horiz-adv-x="850" 
d="M210 718h8c8 0 12 -4 12 -12v-372c0 -8 -4 -12 -12 -12h-13c-9 0 -13 4 -13 12v337l-137 -76c-7 -4 -13 -3 -17 4l-5 10c-4 7 -2 13 5 17l156 88c5 3 10 4 16 4zM646 710h18c11 0 13 -4 6 -13l-503 -685c-7 -8 -16 -12 -27 -12h-15c-11 0 -13 4 -6 13l504 685
c5 8 13 12 23 12zM521 295c0 35 13 62 38 81s59 29 102 29s77 -9 101 -28c24 -18 36 -43 36 -74c0 -49 -25 -83 -75 -101c59 -15 88 -47 88 -95c0 -77 -50 -115 -150 -115c-101 0 -151 35 -151 105c0 48 28 83 85 104c-49 17 -74 48 -74 94zM761 299c0 50 -34 75 -101 75
s-101 -26 -101 -79c0 -24 9 -42 26 -54c17 -11 48 -20 93 -27c55 13 83 41 83 85zM772 106c0 25 -10 43 -29 54c-18 11 -52 19 -102 26c-61 -17 -92 -45 -92 -86c0 -51 37 -77 112 -77c74 0 111 28 111 83z" />
    <glyph glyph-name="threeeighths" unicode="&#x215c;" horiz-adv-x="882" 
d="M43 616c21 73 72 110 151 110c39 0 69 -10 92 -31c21 -20 32 -47 32 -80c0 -43 -17 -72 -51 -89c41 -19 62 -52 62 -101c0 -74 -45 -111 -136 -111c-79 0 -130 36 -151 108c-3 9 -1 15 6 16l13 5c7 2 12 -1 15 -9c17 -57 56 -86 117 -86c66 0 99 27 99 81
c0 22 -6 40 -19 54c-13 15 -31 23 -52 23h-71c-7 0 -11 4 -11 12v10c0 8 4 12 12 12h68c42 0 63 24 63 72c0 53 -29 80 -88 80c-60 0 -98 -29 -115 -87c-3 -9 -10 -12 -19 -9l-9 3c-8 3 -11 8 -8 17zM685 710h18c11 0 13 -4 6 -13l-503 -685c-6 -8 -15 -12 -26 -12h-16
c-11 0 -13 4 -6 13l504 685c5 8 13 12 23 12zM555 295c0 35 13 62 38 81s58 29 101 29s77 -9 101 -28c24 -18 36 -43 36 -74c0 -49 -25 -83 -75 -101c59 -15 88 -47 88 -95c0 -77 -50 -115 -150 -115c-101 0 -151 35 -151 105c0 48 28 83 85 104c-49 17 -73 48 -73 94z
M794 299c0 50 -33 75 -100 75c-68 0 -102 -26 -102 -79c0 -24 9 -42 26 -54c17 -11 49 -20 94 -27c55 13 82 42 82 85zM805 106c0 25 -10 43 -29 54c-18 11 -52 19 -102 26c-61 -16 -91 -45 -91 -86c0 -51 37 -77 111 -77s111 28 111 83z" />
    <glyph glyph-name="fiveeighths" unicode="&#x215d;" horiz-adv-x="863" 
d="M85 718h211c7 0 10 -3 10 -10v-14c0 -7 -3 -10 -10 -10h-193l-12 -124h88c94 0 141 -40 141 -120c0 -37 -11 -66 -33 -89c-24 -25 -59 -38 -104 -38c-78 0 -127 36 -146 108c-4 9 -2 14 6 16l11 4c8 3 13 0 16 -7c17 -58 54 -87 112 -87c68 0 102 31 102 93
c0 59 -35 88 -106 88h-112c-9 0 -13 4 -12 13l16 164c1 9 6 13 15 13zM666 710h17c11 0 14 -4 7 -13l-504 -685c-5 -8 -14 -12 -26 -12h-15c-10 0 -12 4 -7 13l505 685c5 8 13 12 23 12zM537 295c0 35 13 62 38 81s59 29 102 29s77 -9 101 -28c24 -18 36 -43 36 -74
c0 -49 -25 -83 -75 -101c59 -15 88 -47 88 -95c0 -77 -50 -115 -150 -115c-101 0 -151 35 -151 105c0 49 28 83 85 104c-49 17 -74 48 -74 94zM776 299c0 50 -33 75 -100 75s-101 -26 -101 -79c0 -24 9 -42 26 -54c17 -11 48 -20 93 -27c55 13 82 41 82 85zM787 106
c0 25 -10 43 -29 54c-17 11 -51 19 -101 26c-61 -17 -92 -45 -92 -86c0 -51 37 -77 112 -77c73 0 110 28 110 83z" />
    <glyph glyph-name="seveneighths" unicode="&#x215e;" horiz-adv-x="836" 
d="M42 718h251c7 0 10 -3 10 -9v-9c0 -6 -1 -11 -2 -14l-153 -357c-2 -5 -7 -7 -16 -7h-15c-9 0 -11 4 -7 12l150 349h-218c-7 0 -10 3 -10 10v15c0 7 3 10 10 10zM612 710h17c11 0 14 -4 7 -13l-504 -685c-7 -8 -15 -12 -26 -12h-15c-10 0 -12 4 -7 13l505 685
c5 8 13 12 23 12zM509 295c0 35 13 62 38 81s58 29 101 29s77 -9 102 -28c23 -18 35 -43 35 -74c0 -50 -25 -84 -75 -101c59 -15 88 -46 88 -95c0 -77 -50 -115 -150 -115s-150 35 -150 105c0 49 28 83 84 104c-49 17 -73 48 -73 94zM748 299c0 50 -33 75 -100 75
c-68 0 -102 -26 -102 -79c0 -24 9 -42 26 -54c17 -11 49 -20 94 -27c55 13 82 42 82 85zM759 106c0 25 -10 43 -29 54c-17 11 -51 19 -101 26c-61 -15 -92 -44 -92 -86c0 -51 37 -77 112 -77c73 0 110 28 110 83z" />
    <glyph glyph-name="uni2080" unicode="&#x2080;" horiz-adv-x="373" 
d="M43 6v146c0 41 13 74 38 97c25 25 61 37 106 37s80 -12 105 -37c25 -24 38 -56 38 -97v-146c0 -41 -13 -74 -38 -97c-25 -24 -60 -36 -105 -36s-81 12 -106 36c-25 23 -38 56 -38 97zM293 6v146c0 30 -9 54 -28 71c-19 18 -45 27 -78 27c-34 0 -60 -9 -79 -27
c-19 -17 -28 -41 -28 -71v-146c0 -65 36 -98 107 -98c33 0 59 9 78 27c19 17 28 41 28 71z" />
    <glyph glyph-name="uni2081" unicode="&#x2081;" horiz-adv-x="279" 
d="M198 278h8c8 0 12 -4 12 -13v-371c0 -9 -4 -13 -12 -13h-13c-8 0 -12 4 -12 13v337l-137 -77c-8 -4 -14 -2 -18 5l-5 10c-3 7 -2 12 5 17l156 87c5 3 11 5 16 5z" />
    <glyph glyph-name="uni2082" unicode="&#x2082;" horiz-adv-x="351" 
d="M40 174c12 31 22 51 29 61c26 34 63 51 111 51c43 0 76 -11 100 -34c22 -21 33 -49 33 -84s-12 -61 -37 -80c-15 -11 -43 -24 -84 -39l-61 -22c-38 -13 -57 -40 -57 -79v-32h224c7 0 11 -4 11 -12v-12c0 -7 -4 -11 -11 -11h-246c-9 0 -14 4 -14 13v43c0 59 26 99 77 118
l61 23c37 14 59 24 68 30c20 13 30 33 30 59c0 55 -32 83 -95 83c-37 0 -65 -14 -84 -42c-6 -9 -11 -19 -15 -30c-4 -13 -5 -18 -4 -15c-3 -7 -9 -10 -16 -9l-12 4c-9 2 -12 7 -8 16z" />
    <glyph glyph-name="uni2083" unicode="&#x2083;" horiz-adv-x="360" 
d="M37 175c21 74 71 111 150 111c39 0 69 -10 92 -31c21 -21 32 -48 32 -81c0 -43 -17 -73 -51 -89c41 -19 62 -52 62 -100c0 -75 -45 -112 -136 -112c-79 0 -130 36 -151 108c-3 9 -1 14 6 17l13 4c7 3 13 0 16 -9c16 -57 55 -86 116 -86c66 0 99 27 99 81
c0 22 -6 40 -19 55s-31 23 -52 23h-71c-7 0 -11 4 -11 11v11c0 8 4 12 12 12h68c42 0 63 24 63 71c0 25 -8 44 -23 59c-16 15 -38 22 -65 22c-60 0 -98 -29 -115 -88c-4 -9 -10 -12 -19 -9l-9 3c-7 4 -10 10 -7 17z" />
    <glyph glyph-name="uni2084" unicode="&#x2084;" horiz-adv-x="352" 
d="M268 25h50c7 0 11 -3 11 -10v-11c0 -7 -4 -11 -11 -11h-50v-101c0 -7 -4 -11 -11 -11h-15c-7 0 -10 4 -10 11v101h-201c-7 0 -11 4 -11 11v9c0 5 1 10 4 15l198 242c5 5 11 8 18 8h16c8 0 12 -4 12 -13v-240zM232 230l-168 -205h168v205z" />
    <glyph glyph-name="uni2085" unicode="&#x2085;" horiz-adv-x="348" 
d="M78 278h212c6 0 9 -3 9 -10v-14c0 -7 -3 -10 -9 -10h-193l-13 -124h88c94 0 141 -40 141 -120c0 -37 -11 -66 -33 -89c-24 -25 -58 -38 -103 -38c-78 0 -127 36 -147 107c-3 9 -1 14 6 17l12 4c7 2 13 -1 16 -8c15 -57 53 -86 112 -86c33 0 59 9 77 27c16 17 24 38 24 65
c0 59 -35 88 -106 88h-112c-9 0 -13 4 -12 13l16 165c2 9 7 13 15 13z" />
    <glyph glyph-name="uni2086" unicode="&#x2086;" horiz-adv-x="372" 
d="M79 134v-47c43 17 85 26 124 26c89 0 134 -39 134 -118c0 -81 -50 -122 -150 -122c-97 0 -145 51 -145 152v108c0 102 50 153 149 153c65 0 109 -25 133 -75c3 -5 2 -10 -4 -13l-15 -7c-6 -3 -11 -2 -14 3c-17 38 -51 57 -100 57c-75 0 -112 -39 -112 -117zM79 51v-27
c0 -77 36 -116 108 -116c75 0 112 29 112 87c0 56 -33 84 -100 84c-43 0 -83 -9 -120 -28z" />
    <glyph glyph-name="uni2087" unicode="&#x2087;" horiz-adv-x="308" 
d="M32 278h251c7 0 10 -3 10 -10v-9c0 -5 -1 -10 -2 -13l-153 -357c-2 -5 -7 -8 -16 -8h-15c-9 0 -11 4 -7 13l150 349h-218c-7 0 -10 3 -10 9v15c0 7 3 11 10 11z" />
    <glyph glyph-name="uni2088" unicode="&#x2088;" horiz-adv-x="373" 
d="M47 176c0 35 13 62 38 81s59 29 102 29s77 -9 101 -28c24 -18 36 -43 36 -74c0 -49 -25 -83 -75 -101c59 -15 88 -47 88 -95c0 -77 -50 -115 -150 -115c-101 0 -151 35 -151 105c0 49 28 83 85 104c-49 17 -74 48 -74 94zM286 180c0 50 -33 75 -100 75s-101 -26 -101 -79
c0 -24 9 -42 26 -54c17 -11 48 -20 93 -27c55 13 82 41 82 85zM298 -13c0 25 -10 43 -29 54c-18 11 -52 19 -102 26c-61 -17 -92 -45 -92 -86c0 -51 37 -77 112 -77c74 0 111 28 111 83z" />
    <glyph glyph-name="uni2089" unicode="&#x2089;" horiz-adv-x="372" 
d="M292 25v47c-43 -18 -84 -27 -124 -27c-89 0 -133 39 -133 118c0 82 50 123 150 123c97 0 145 -51 145 -152v-108c0 -102 -50 -153 -149 -153c-66 0 -111 25 -134 75c-3 5 -1 9 5 12l15 8c6 2 10 1 13 -4c19 -37 52 -56 101 -56c74 0 111 39 111 117zM292 108v26
c0 78 -36 117 -107 117c-75 0 -113 -29 -113 -88c0 -55 34 -83 101 -83c45 0 85 9 119 28z" />
    <glyph glyph-name="uni2070" unicode="&#x2070;" horiz-adv-x="373" 
d="M43 539v146c0 41 13 73 38 97s61 36 106 36s80 -12 105 -36s38 -56 38 -97v-146c0 -41 -13 -74 -38 -97c-25 -24 -60 -36 -105 -36s-81 12 -106 36c-25 23 -38 56 -38 97zM293 539v146c0 30 -9 54 -28 72c-19 17 -45 26 -78 26c-71 0 -107 -33 -107 -98v-146
c0 -65 36 -98 107 -98c33 0 59 9 78 27c19 17 28 41 28 71z" />
    <glyph glyph-name="uni00B9" unicode="&#xb9;" horiz-adv-x="279" 
d="M198 810h8c8 0 12 -4 12 -12v-372c0 -8 -4 -12 -12 -12h-13c-8 0 -12 4 -12 12v337l-137 -76c-8 -4 -14 -3 -18 4l-5 10c-3 7 -2 13 5 17l156 88c5 3 10 4 16 4z" />
    <glyph glyph-name="uni00B2" unicode="&#xb2;" horiz-adv-x="351" 
d="M40 707c11 30 21 50 29 60c26 34 63 51 111 51c43 0 76 -11 100 -33c22 -21 33 -49 33 -84s-12 -62 -37 -81c-15 -12 -43 -25 -84 -38l-61 -22c-38 -15 -57 -41 -57 -79v-33h224c7 0 11 -4 11 -11v-12c0 -7 -4 -11 -11 -11h-246c-9 0 -14 4 -14 13v43c0 59 26 99 77 118
l61 23c37 14 59 24 68 30c20 13 30 33 30 59c0 55 -32 83 -95 83c-37 0 -65 -14 -84 -42c-6 -9 -11 -19 -15 -30c-4 -13 -5 -18 -4 -15c-3 -8 -9 -11 -16 -9l-12 4c-9 2 -12 7 -8 16z" />
    <glyph glyph-name="uni00B3" unicode="&#xb3;" horiz-adv-x="360" 
d="M37 708c21 73 72 110 151 110c39 0 69 -10 92 -31c21 -20 32 -47 32 -80c0 -43 -17 -72 -51 -89c41 -19 62 -52 62 -101c0 -74 -45 -111 -136 -111c-79 0 -130 36 -151 108c-3 9 -1 14 6 16l13 5c7 2 12 -1 15 -9c17 -57 56 -86 117 -86c66 0 99 27 99 81
c0 22 -6 40 -19 54c-13 15 -31 23 -52 23h-71c-7 0 -11 4 -11 12v10c0 8 4 12 12 12h68c42 0 63 24 63 71c0 25 -8 44 -23 59c-16 15 -38 22 -65 22c-60 0 -98 -29 -115 -87c-3 -9 -10 -12 -19 -9l-9 3c-8 3 -11 8 -8 17z" />
    <glyph glyph-name="uni2074" unicode="&#x2074;" horiz-adv-x="353" 
d="M267 558h51c7 0 11 -4 11 -11v-10c0 -8 -4 -12 -11 -12h-51v-100c0 -7 -4 -11 -11 -11h-14c-7 0 -10 4 -10 11v100h-201c-7 0 -11 4 -11 12v9c0 6 1 11 4 14l198 242c4 5 10 8 18 8h15c8 0 12 -4 12 -12v-240zM232 763l-168 -205h168v205z" />
    <glyph glyph-name="uni2075" unicode="&#x2075;" horiz-adv-x="347" 
d="M78 810h212c6 0 9 -3 9 -9v-15c0 -6 -3 -9 -9 -9h-193l-13 -124h88c94 0 141 -40 141 -121c0 -37 -11 -66 -33 -88c-24 -25 -58 -38 -103 -38c-78 0 -127 36 -147 107c-3 9 -1 14 6 17l12 3c7 3 13 0 16 -7c15 -57 53 -86 112 -86c67 0 101 31 101 92
c0 59 -35 88 -106 88h-112c-9 0 -13 4 -12 13l16 165c1 8 6 12 15 12z" />
    <glyph glyph-name="uni2076" unicode="&#x2076;" horiz-adv-x="372" 
d="M79 667v-48c40 18 81 27 124 27c89 0 134 -39 134 -118c0 -81 -50 -122 -150 -122c-97 0 -145 51 -145 152v107c0 102 50 153 149 153c65 0 110 -25 133 -74c3 -6 1 -10 -4 -13l-15 -7c-6 -3 -11 -2 -14 3c-17 38 -51 57 -100 57c-75 0 -112 -39 -112 -117zM79 584v-27
c0 -78 36 -117 108 -117c75 0 112 29 112 88c0 56 -33 84 -100 84c-35 0 -75 -9 -120 -28z" />
    <glyph glyph-name="uni2077" unicode="&#x2077;" horiz-adv-x="308" 
d="M33 810h250c7 0 11 -3 11 -9v-9c0 -3 -1 -8 -3 -14l-153 -356c-2 -5 -7 -8 -15 -8h-16c-9 0 -12 4 -7 12l150 349h-217c-7 0 -10 3 -10 10v15c0 7 3 10 10 10z" />
    <glyph glyph-name="uni2078" unicode="&#x2078;" horiz-adv-x="373" 
d="M47 709c0 35 13 62 38 81s59 28 102 28s77 -9 101 -28c24 -18 36 -43 36 -74c0 -48 -25 -82 -75 -101c59 -15 88 -47 88 -95c0 -76 -50 -114 -150 -114c-101 0 -151 35 -151 104c0 49 28 84 85 105c-49 16 -74 47 -74 94zM286 713c0 49 -33 74 -100 74s-101 -26 -101 -78
c0 -24 9 -42 26 -54s48 -21 93 -28c55 15 82 43 82 86zM298 519c0 25 -10 43 -29 55c-19 11 -53 19 -102 26c-61 -17 -92 -45 -92 -86c0 -51 37 -77 112 -77c74 0 111 27 111 82z" />
    <glyph glyph-name="uni2079" unicode="&#x2079;" horiz-adv-x="372" 
d="M292 557v47c-41 -17 -83 -26 -124 -26c-89 0 -133 39 -133 118c0 81 50 122 150 122c97 0 145 -51 145 -152v-107c0 -102 -50 -153 -149 -153c-66 0 -111 25 -134 74c-3 5 -1 10 5 13l15 7c6 3 10 2 13 -3c19 -38 53 -57 101 -57c74 0 111 39 111 117zM292 640v27
c0 78 -36 117 -107 117c-75 0 -113 -29 -113 -88c0 -56 34 -84 101 -84c38 0 78 9 119 28z" />
    <glyph glyph-name="asterisk" unicode="*" horiz-adv-x="387" 
d="M185 673h15c6 0 9 -3 8 -8l-6 -114l107 40c6 2 10 0 12 -5l5 -14c1 -7 -1 -10 -6 -11l-112 -29l73 -90c4 -4 3 -8 -2 -12l-12 -9c-5 -3 -9 -2 -12 3l-62 96l-64 -96c-3 -5 -6 -6 -11 -3l-13 10c-5 3 -6 7 -1 12l73 89l-110 30c-7 1 -9 4 -7 10l5 15c3 5 7 7 12 4l106 -40
l-6 114c-1 5 2 8 8 8z" />
    <glyph glyph-name="backslash" unicode="\" horiz-adv-x="392" 
d="M312 -49l-278 748c-2 7 1 11 8 11h22c8 0 13 -4 16 -11l278 -748c2 -7 -1 -11 -8 -11h-22c-8 0 -13 4 -16 11z" />
    <glyph glyph-name="middot" unicode="&#xb7;" horiz-adv-x="192" 
d="M93 297h5c19 0 28 -9 28 -27v-6c0 -18 -9 -27 -28 -27h-5c-18 0 -27 9 -27 27v6c0 18 9 27 27 27z" />
    <glyph glyph-name="bullet" unicode="&#x2022;" horiz-adv-x="273" 
d="M136 213c-14 0 -26 5 -35 15c-9 9 -14 21 -14 35c0 15 5 27 14 36s21 14 35 14c33 0 50 -17 50 -50c0 -14 -5 -26 -14 -35c-9 -10 -21 -15 -36 -15z" />
    <glyph glyph-name="colon" unicode=":" horiz-adv-x="188" 
d="M92 482h5c18 0 27 -9 27 -28v-5c0 -19 -9 -28 -27 -28h-5c-19 0 -28 9 -28 28v5c0 19 9 28 28 28zM92 55h5c18 0 27 -9 27 -27v-6c0 -18 -9 -27 -27 -27h-5c-19 0 -28 9 -28 27v6c0 18 9 27 28 27z" />
    <glyph glyph-name="comma" unicode="," horiz-adv-x="162" 
d="M106 45l-55 -155c-3 -7 -8 -11 -15 -11h-8c-6 0 -9 3 -8 9l38 157c3 10 9 15 18 15h17c12 0 16 -5 13 -15z" />
    <glyph glyph-name="ellipsis" unicode="&#x2026;" horiz-adv-x="558" 
d="M80 55h5c18 0 27 -9 27 -27v-6c0 -18 -9 -27 -27 -27h-5c-19 0 -28 9 -28 27v6c0 18 9 27 28 27zM276 55h5c19 0 28 -9 28 -27v-6c0 -18 -9 -27 -28 -27h-5c-18 0 -27 9 -27 27v6c0 18 9 27 27 27zM473 55h5c18 0 27 -9 27 -27v-6c0 -18 -9 -27 -27 -27h-5
c-19 0 -28 9 -28 27v6c0 18 9 27 28 27z" />
    <glyph glyph-name="exclam" unicode="!" horiz-adv-x="189" 
d="M83 740h23c8 0 12 -4 12 -12l-6 -566c0 -7 -4 -11 -12 -11h-11c-7 0 -11 4 -11 11l-6 566c0 8 4 12 11 12zM92 55h5c19 0 28 -9 28 -27v-6c0 -18 -9 -27 -28 -27h-5c-18 0 -27 9 -27 27v6c0 18 9 27 27 27z" />
    <glyph glyph-name="exclamdown" unicode="&#xa1;" horiz-adv-x="178" 
d="M92 454h-5c-18 0 -27 9 -27 27v6c0 18 9 27 27 27h5c18 0 27 -9 27 -27v-6c0 -18 -9 -27 -27 -27zM101 -231h-23c-8 0 -12 4 -12 12l6 566c0 8 4 12 12 12h11c7 0 11 -4 11 -12l6 -566c1 -8 -3 -12 -11 -12z" />
    <glyph glyph-name="numbersign" unicode="#" horiz-adv-x="665" 
d="M501 469h117c8 0 11 -4 9 -12l-6 -18c-1 -7 -6 -10 -15 -10h-117l-56 -187h117c9 0 12 -4 9 -12l-6 -18c-1 -7 -6 -10 -15 -10h-116l-57 -190c-3 -8 -9 -12 -16 -12h-20c-8 0 -11 4 -8 12l57 190h-176l-57 -190c-1 -8 -5 -12 -14 -12h-20c-8 0 -11 4 -8 12l56 190h-115
c-8 0 -11 4 -8 11l5 18c3 7 8 11 16 11h114l56 187h-115c-8 0 -11 4 -9 11l6 18c1 7 7 11 16 11h114l50 166c2 8 7 12 15 12h20c8 0 11 -4 8 -12l-50 -166h175l51 166c2 8 7 12 14 12h19c9 0 12 -4 10 -12zM270 429l-56 -187h176l56 187h-176z" />
    <glyph glyph-name="period" unicode="." horiz-adv-x="165" 
d="M80 55h5c18 0 27 -9 27 -27v-6c0 -18 -9 -27 -27 -27h-5c-19 0 -28 9 -28 27v6c0 18 9 27 28 27z" />
    <glyph glyph-name="question" unicode="?" horiz-adv-x="553" 
d="M32 575c43 110 126 165 250 165c72 0 130 -20 173 -60c41 -39 62 -87 62 -146s-16 -109 -47 -148c-18 -23 -50 -49 -97 -79c-68 -47 -102 -98 -102 -154c0 -9 -4 -13 -12 -13h-16c-8 0 -12 4 -12 13c0 47 12 86 36 117c15 19 41 42 80 68c41 27 70 51 85 71
c26 33 39 74 39 124c0 48 -16 87 -49 118c-35 32 -82 48 -141 48c-101 0 -170 -46 -207 -138c-3 -8 -9 -11 -16 -8l-19 6c-7 3 -10 8 -7 16zM249 55h5c18 0 27 -9 27 -27v-6c0 -18 -9 -27 -27 -27h-5c-19 0 -28 9 -28 27v6c0 18 9 27 28 27z" />
    <glyph glyph-name="questiondown" unicode="&#xbf;" horiz-adv-x="547" 
d="M301 455h-5c-19 0 -28 9 -28 27v5c0 19 9 28 28 28h5c18 0 27 -9 27 -28v-5c0 -18 -9 -27 -27 -27zM517 -65c-41 -110 -124 -165 -249 -165c-72 0 -130 20 -173 60c-41 38 -62 87 -62 146s16 109 47 148c17 21 49 47 96 79c69 46 103 97 103 154c0 8 4 12 12 12h15
c8 0 12 -4 12 -12c0 -47 -12 -85 -36 -116c-15 -20 -41 -43 -80 -69c-42 -29 -70 -52 -85 -71c-26 -33 -39 -75 -39 -124c0 -48 16 -87 49 -117c35 -33 83 -49 142 -49c102 0 171 46 206 138c3 8 9 11 16 8l19 -6c8 -3 10 -8 7 -16z" />
    <glyph glyph-name="quotedbl" unicode="&#x22;" horiz-adv-x="268" 
d="M109 699l-8 -205c0 -7 -4 -10 -11 -10h-11c-7 0 -11 3 -11 10v205c0 7 4 11 11 11h19c8 0 12 -4 11 -11zM206 699l-8 -205c-1 -7 -5 -10 -12 -10h-11c-7 0 -11 3 -11 10v205c0 7 4 11 11 11h20c7 0 11 -4 11 -11z" />
    <glyph glyph-name="quotesingle" unicode="'" horiz-adv-x="172" 
d="M109 699l-8 -205c0 -7 -4 -10 -11 -10h-11c-7 0 -11 3 -11 10v205c0 7 4 11 11 11h19c8 0 12 -4 11 -11z" />
    <glyph glyph-name="semicolon" unicode=";" horiz-adv-x="225" 
d="M120 482h5c18 0 27 -9 27 -28v-5c0 -19 -9 -28 -27 -28h-5c-19 0 -28 9 -28 28v5c0 19 9 28 28 28zM142 45l-55 -155c-3 -7 -7 -11 -14 -11h-9c-6 0 -9 3 -8 9l38 157c3 10 9 15 18 15h17c13 0 17 -5 13 -15z" />
    <glyph glyph-name="slash" unicode="/" horiz-adv-x="392" 
d="M358 699l-278 -748c-3 -7 -8 -11 -16 -11h-21c-7 0 -10 4 -8 11l278 748c3 7 8 11 16 11h21c7 0 10 -4 8 -11z" />
    <glyph glyph-name="underscore" unicode="_" horiz-adv-x="510" 
d="M42 0h427c8 0 12 -4 12 -13v-16c0 -9 -4 -13 -12 -13h-427c-9 0 -13 4 -13 13v16c0 9 4 13 13 13z" />
    <glyph glyph-name="braceleft" unicode="{" horiz-adv-x="306" 
d="M238 856h45c7 0 11 -4 11 -12v-16c0 -8 -4 -12 -11 -12h-44c-54 0 -81 -29 -81 -88v-255c0 -61 -22 -101 -66 -119c44 -15 66 -54 66 -119v-254c0 -59 27 -88 81 -88h44c7 0 11 -4 11 -12v-16c0 -8 -4 -12 -11 -12h-44c-45 0 -77 10 -96 31c-18 19 -27 51 -27 95v251
c0 68 -30 102 -91 102h-11c-7 0 -10 4 -10 12v20c0 8 3 12 10 12h11c61 0 91 34 91 102v252c0 44 9 76 27 95c19 21 51 31 95 31z" />
    <glyph glyph-name="braceright" unicode="}" horiz-adv-x="306" 
d="M23 856h44c44 0 76 -10 95 -31c19 -19 28 -51 28 -95v-252c0 -68 30 -102 91 -102h11c7 0 10 -4 10 -12v-20c0 -8 -3 -12 -10 -12h-11c-61 0 -91 -34 -91 -102v-251c0 -44 -9 -76 -27 -95c-19 -21 -51 -31 -96 -31h-44c-8 0 -12 4 -12 12v16c0 8 4 12 12 12h43
c55 0 82 29 82 88v254c0 65 22 104 66 119c-44 17 -66 57 -66 119v255c0 59 -27 88 -82 88h-43c-8 0 -12 4 -12 12v16c0 8 4 12 12 12z" />
    <glyph glyph-name="bracketleft" unicode="[" horiz-adv-x="257" 
d="M81 856h151c8 0 12 -4 12 -11v-17c0 -7 -4 -11 -12 -11h-120v-923h120c8 0 12 -4 12 -12v-17c0 -7 -4 -11 -12 -11h-151c-7 0 -11 4 -11 12v978c0 8 4 12 11 12z" />
    <glyph glyph-name="bracketright" unicode="]" horiz-adv-x="257" 
d="M25 856h150c8 0 12 -4 12 -12v-978c0 -8 -4 -12 -12 -12h-150c-8 0 -12 4 -12 11v17c0 8 4 12 12 12h120v923h-120c-8 0 -12 4 -12 11v17c0 7 4 11 12 11z" />
    <glyph glyph-name="parenleft" unicode="(" horiz-adv-x="241" 
d="M63 99v512c0 107 46 181 139 223c7 3 12 1 15 -6l8 -16c3 -6 1 -11 -6 -16c-76 -35 -114 -96 -114 -183v-516c0 -87 38 -148 114 -183c7 -5 9 -10 6 -16l-8 -16c-3 -7 -8 -9 -15 -6c-93 42 -139 116 -139 223z" />
    <glyph glyph-name="parenright" unicode=")" horiz-adv-x="241" 
d="M14 812l9 16c3 7 8 9 15 6c93 -42 139 -116 139 -223v-512c0 -107 -46 -181 -139 -223c-7 -3 -12 -1 -15 6l-9 16c-3 6 0 11 7 16c76 35 114 96 114 183v516c0 87 -38 148 -114 183c-7 5 -10 10 -7 16z" />
    <glyph glyph-name="emdash" unicode="&#x2014;" horiz-adv-x="779" 
d="M76 288h627c8 0 12 -4 12 -12v-17c0 -8 -4 -12 -12 -12h-627c-9 0 -13 4 -13 12v17c0 8 4 12 13 12z" />
    <glyph glyph-name="endash" unicode="&#x2013;" horiz-adv-x="579" 
d="M76 288h427c9 0 13 -4 13 -12v-17c0 -8 -4 -12 -13 -12h-427c-8 0 -12 4 -12 12v17c0 8 4 12 12 12z" />
    <glyph glyph-name="hyphen" unicode="-" horiz-adv-x="426" 
d="M77 286h273c8 0 12 -4 12 -12v-17c0 -8 -4 -12 -12 -12h-273c-9 0 -13 4 -13 12v17c0 8 4 12 13 12z" />
    <glyph glyph-name="guillemotleft" unicode="&#xab;" horiz-adv-x="552" 
d="M88 263l184 -183c5 -5 5 -10 0 -15l-14 -14c-5 -5 -10 -5 -16 0l-203 204c-5 5 -5 10 0 15l205 207c5 5 11 5 16 0l12 -13c5 -5 5 -11 0 -16zM313 263l183 -183c5 -5 5 -10 0 -15l-13 -14c-6 -5 -11 -5 -16 0l-204 204c-4 5 -4 10 0 15l206 207c5 5 10 5 15 0l13 -13
c5 -6 5 -11 0 -16z" />
    <glyph glyph-name="guillemotright" unicode="&#xbb;" horiz-adv-x="552" 
d="M235 263l-185 185c-5 5 -5 10 0 16l13 13c5 5 10 5 15 0l206 -207c4 -5 4 -10 0 -15l-204 -204c-5 -5 -11 -5 -16 0l-13 14c-5 5 -5 10 0 15zM459 263l-184 185c-5 5 -5 11 0 16l12 13c5 5 11 5 16 0l206 -207c4 -5 4 -10 0 -15l-204 -204c-6 -5 -11 -5 -16 0l-14 14
c-5 5 -5 10 0 15z" />
    <glyph glyph-name="guilsinglleft" unicode="&#x2039;" horiz-adv-x="327" 
d="M88 263l184 -183c5 -5 5 -10 0 -15l-14 -14c-5 -5 -10 -5 -16 0l-203 204c-5 5 -5 10 0 15l205 207c5 5 11 5 16 0l12 -13c5 -5 5 -11 0 -16z" />
    <glyph glyph-name="guilsinglright" unicode="&#x203a;" horiz-adv-x="327" 
d="M234 263l-184 185c-5 5 -5 10 0 16l13 13c5 5 10 5 15 0l206 -207c4 -5 4 -10 0 -15l-204 -204c-5 -5 -11 -5 -16 0l-13 14c-5 5 -5 10 0 15z" />
    <glyph glyph-name="quotedblbase" unicode="&#x201e;" horiz-adv-x="267" 
d="M106 45l-55 -155c-3 -7 -8 -11 -15 -11h-8c-6 0 -9 3 -8 9l38 157c3 10 9 15 18 15h17c12 0 16 -5 13 -15zM210 45l-54 -155c-3 -7 -8 -11 -15 -11h-8c-6 0 -9 3 -8 9l38 157c2 10 8 15 18 15h17c12 0 16 -5 12 -15z" />
    <glyph glyph-name="quotedblleft" unicode="&#x201c;" horiz-adv-x="290" 
d="M54 544l55 154c3 8 7 12 14 12h9c6 0 9 -3 8 -9l-38 -157c-3 -10 -9 -15 -18 -15h-17c-13 0 -17 5 -13 15zM159 544l55 154c3 8 7 12 14 12h8c7 0 10 -3 9 -9l-38 -157c-3 -10 -9 -15 -18 -15h-17c-13 0 -17 5 -13 15z" />
    <glyph glyph-name="quotedblright" unicode="&#x201d;" horiz-adv-x="286" 
d="M142 695l-55 -154c-3 -8 -7 -12 -14 -12h-9c-6 0 -9 3 -8 9l38 157c3 10 9 15 18 15h17c13 0 17 -5 13 -15zM247 695l-55 -154c-3 -8 -7 -12 -14 -12h-9c-6 0 -9 3 -8 9l38 157c3 10 9 15 18 15h17c12 0 16 -5 13 -15z" />
    <glyph glyph-name="quoteleft" unicode="&#x2018;" horiz-adv-x="185" 
d="M54 544l55 154c3 8 7 12 14 12h9c6 0 9 -3 8 -9l-38 -157c-3 -10 -9 -15 -18 -15h-17c-13 0 -17 5 -13 15z" />
    <glyph glyph-name="quoteright" unicode="&#x2019;" horiz-adv-x="181" 
d="M142 695l-55 -154c-3 -8 -7 -12 -14 -12h-9c-6 0 -9 3 -8 9l38 157c3 10 9 15 18 15h17c13 0 17 -5 13 -15z" />
    <glyph glyph-name="quotesinglbase" unicode="&#x201a;" horiz-adv-x="153" 
d="M99 98l-10 -202c0 -8 -4 -12 -12 -12h-10c-7 0 -11 4 -11 12v202c0 8 4 12 11 12h20c8 0 12 -4 12 -12z" />
    <glyph glyph-name="CR" horiz-adv-x="322" 
 />
    <glyph glyph-name="null" horiz-adv-x="142" 
 />
    <glyph glyph-name="Euro" unicode="&#x20ac;" horiz-adv-x="723" 
d="M148 443v41c0 75 23 134 69 176c47 43 114 65 201 65c121 0 202 -40 243 -121c5 -10 3 -17 -6 -21l-15 -7c-9 -4 -16 -2 -21 6c-33 67 -100 100 -201 100c-71 0 -126 -18 -165 -53c-38 -34 -57 -82 -57 -143v-43h338c8 0 11 -4 9 -11l-4 -14c-3 -7 -8 -11 -16 -11h-329
v-114h296c8 0 11 -4 8 -11l-4 -14c-2 -7 -7 -11 -16 -11h-282v-33c1 -61 20 -109 58 -143c39 -35 93 -53 164 -53c105 0 174 36 206 109c4 9 11 11 20 6l16 -7c9 -5 11 -12 5 -21c-40 -87 -122 -130 -247 -130c-85 0 -151 21 -198 63c-46 41 -70 100 -71 176v33h-108
c-9 0 -12 4 -9 12l4 13c2 7 7 11 15 11h98v114h-71c-9 0 -12 4 -10 12l4 13c3 7 8 11 15 11h61z" />
    <glyph glyph-name="uni20BD" unicode="&#x20bd;" horiz-adv-x="640" 
d="M147 185h368c8 0 12 -4 12 -13v-11c0 -8 -4 -12 -12 -12h-368v-136c0 -9 -4 -13 -12 -13h-21c-9 0 -13 4 -13 13v136h-52c-8 0 -12 4 -12 12v11c0 9 4 13 12 13h52v512c0 9 4 13 13 13h271c67 0 120 -18 159 -54c39 -37 59 -89 59 -154s-20 -115 -59 -152
c-39 -36 -92 -54 -159 -54h-238v-111zM147 339h234c54 0 97 14 128 43s46 69 46 120c0 52 -15 93 -46 122s-74 43 -128 43h-234v-328z" />
    <glyph glyph-name="cent" unicode="&#xa2;" horiz-adv-x="533" 
d="M455 152l18 -6c8 -3 10 -9 7 -16c-27 -89 -90 -137 -189 -143v-59c0 -8 -4 -12 -12 -12h-20c-8 0 -12 4 -12 12v59c-61 3 -108 21 -141 56c-33 33 -49 79 -49 137v153c0 57 16 102 48 135c33 35 80 54 142 57v73c0 8 4 12 12 12h20c8 0 12 -4 12 -12v-73
c99 -5 161 -50 186 -135c3 -9 0 -14 -8 -17l-16 -6c-7 -3 -13 0 -17 8c-23 75 -78 113 -167 113c-113 0 -169 -51 -169 -153v-156c0 -48 14 -86 43 -113c30 -27 72 -41 126 -41c91 0 147 40 170 119c3 8 8 11 16 8z" />
    <glyph glyph-name="currency" unicode="&#xa4;" horiz-adv-x="594" 
d="M471 194l56 -56c6 -5 6 -11 0 -17l-14 -14c-5 -5 -11 -5 -16 0l-57 56c-41 -36 -89 -54 -144 -54c-53 0 -101 17 -143 52l-56 -56c-5 -5 -11 -5 -16 0l-14 14c-5 5 -5 11 0 16l56 57c-36 40 -54 88 -54 144c0 55 18 102 53 143l-57 57c-5 5 -5 11 0 16l14 14
c6 6 12 6 17 0l56 -56c42 35 90 53 144 53c55 0 102 -17 142 -52l56 56c6 6 12 6 17 0l14 -13c6 -5 6 -11 0 -17l-56 -56c36 -41 54 -90 54 -145c0 -53 -17 -101 -52 -142zM296 522c-52 0 -96 -18 -132 -53c-36 -36 -54 -80 -54 -132s18 -96 54 -132c36 -37 80 -55 132 -55
s96 18 132 55c36 36 54 80 54 132s-18 96 -54 132c-36 35 -80 53 -132 53z" />
    <glyph glyph-name="dollar" unicode="$" horiz-adv-x="589" 
d="M280 788h19c8 0 12 -4 12 -12v-70c57 -4 102 -20 137 -47c30 -23 58 -61 84 -113c5 -8 2 -14 -7 -18l-18 -7c-7 -4 -13 -2 -17 5c-24 49 -50 83 -77 102c-33 23 -77 35 -132 35c-119 0 -178 -51 -178 -152c0 -50 20 -85 61 -104c25 -12 70 -21 137 -28
c77 -8 130 -21 161 -38c51 -27 76 -75 76 -143c0 -123 -76 -187 -227 -193v-71c0 -8 -4 -12 -12 -12h-19c-8 0 -12 4 -12 12v71c-106 6 -181 64 -225 173c-3 9 -1 16 8 19l17 6c8 3 14 0 18 -8c21 -50 46 -86 74 -109c33 -26 78 -39 133 -39c133 0 199 50 199 150
c0 53 -20 89 -61 109c-24 11 -70 21 -138 28c-76 8 -130 21 -161 38c-51 27 -76 73 -76 139c0 125 71 190 212 195v70c0 8 4 12 12 12z" />
    <glyph glyph-name="florin" unicode="&#x192;" horiz-adv-x="437" 
d="M191 378l18 164c13 132 83 198 208 198c8 0 12 -4 12 -12v-17c0 -7 -4 -11 -12 -11c-98 0 -153 -53 -165 -160l-17 -162h153c8 0 12 -4 12 -12v-17c0 -7 -4 -11 -12 -11h-158l-38 -359c-15 -133 -84 -199 -209 -199c-8 0 -12 4 -12 12v17c0 7 4 11 12 11
c99 0 154 54 165 162l39 356h-145c-8 0 -12 4 -12 11v17c0 8 4 12 12 12h149z" />
    <glyph glyph-name="sterling" unicode="&#xa3;" horiz-adv-x="629" 
d="M146 359v183c0 54 16 97 49 129c36 35 89 53 158 53c111 0 185 -52 220 -155c3 -8 1 -13 -8 -16l-19 -7c-7 -3 -12 -1 -16 8c-17 47 -40 81 -69 100c-26 18 -62 27 -107 27c-54 0 -95 -14 -123 -41c-25 -24 -37 -57 -37 -99v-182h277c8 0 12 -4 12 -13v-15
c0 -9 -4 -13 -12 -13h-277v-168c0 -48 -17 -84 -50 -108v-2c64 2 103 3 116 3h301c8 0 12 -4 12 -12v-18c0 -9 -4 -13 -12 -13h-511c-8 0 -12 4 -12 13v18c0 7 3 11 8 11h22c27 1 47 14 61 37c11 19 17 43 17 70v169h-84c-9 0 -13 4 -13 13v15c0 9 4 13 13 13h84z" />
    <glyph glyph-name="yen" unicode="&#xa5;" horiz-adv-x="629" 
d="M569 710h22c9 0 12 -4 7 -13l-242 -358h146c8 0 12 -4 12 -12v-12c0 -7 -4 -11 -12 -11h-164v-108h164c8 0 12 -4 12 -12v-12c0 -7 -4 -11 -12 -11h-164v-148c0 -9 -4 -13 -13 -13h-21c-8 0 -12 4 -12 13v148h-166c-8 0 -12 4 -12 11v12c0 8 4 12 12 12h166v108h-166
c-8 0 -12 4 -12 11v12c0 8 4 12 12 12h148l-242 358c-5 9 -2 13 7 13h24c12 0 20 -4 23 -11l230 -345l229 345c5 7 13 11 24 11z" />
    <glyph glyph-name="approxequal" unicode="&#x2248;" horiz-adv-x="564" 
d="M70 416c35 33 73 49 115 50c27 0 59 -7 97 -22c39 -15 69 -23 91 -23c33 1 63 14 91 40c6 5 12 5 17 0l13 -13c7 -5 7 -11 0 -18c-35 -32 -73 -48 -115 -49c-27 -1 -60 7 -98 22s-68 22 -90 22c-31 0 -62 -13 -92 -40c-5 -5 -11 -4 -17 1l-12 12c-7 6 -7 12 0 18zM70 233
c37 33 76 49 115 49c27 1 59 -7 97 -22c39 -15 69 -22 91 -22c33 0 63 13 92 40c6 5 12 4 17 -1l13 -12c7 -7 7 -13 0 -18c-36 -33 -74 -49 -115 -49c-27 -1 -59 7 -97 22c-39 15 -69 22 -92 22c-32 0 -62 -13 -91 -40c-6 -5 -12 -5 -17 1l-13 12c-7 7 -7 13 0 18z" />
    <glyph glyph-name="asciitilde" unicode="~" horiz-adv-x="562" 
d="M70 314c35 33 74 50 116 50c27 0 60 -7 97 -22s67 -23 89 -23c33 0 63 13 92 40c6 5 12 4 17 -1l12 -11c7 -5 7 -11 0 -18c-37 -33 -76 -49 -117 -49c-27 0 -60 7 -97 22s-67 22 -89 22c-31 0 -62 -13 -92 -40c-5 -5 -11 -4 -17 1l-11 11c-7 6 -7 12 0 18z" />
    <glyph glyph-name="divide" unicode="&#xf7;" horiz-adv-x="591" 
d="M293 556h5c18 0 27 -9 27 -27v-6c0 -18 -9 -27 -27 -27h-5c-18 0 -27 9 -27 27v6c0 18 9 27 27 27zM73 345h445c9 0 13 -4 13 -12v-17c0 -8 -4 -12 -13 -12h-445c-9 0 -13 4 -13 12v17c0 8 4 12 13 12zM293 155h5c18 0 27 -9 27 -27v-6c0 -18 -9 -27 -27 -27h-5
c-18 0 -27 9 -27 27v6c0 18 9 27 27 27z" />
    <glyph glyph-name="equal" unicode="=" horiz-adv-x="602" 
d="M78 447h447c8 0 12 -4 12 -13v-17c0 -8 -4 -12 -12 -12h-447c-9 0 -13 4 -13 12v17c0 9 4 13 13 13zM78 249h447c8 0 12 -4 12 -13v-16c0 -9 -4 -13 -12 -13h-447c-9 0 -13 4 -13 13v16c0 9 4 13 13 13z" />
    <glyph glyph-name="greater" unicode="&#x3e;" horiz-adv-x="504" 
d="M65 524v18c0 11 5 15 14 10l374 -203c8 -3 12 -9 12 -17v-12c0 -7 -4 -12 -12 -17l-374 -202c-9 -5 -14 -2 -14 9v17c0 10 4 17 13 22l330 175v2l-330 176c-9 5 -13 12 -13 22z" />
    <glyph glyph-name="greaterequal" unicode="&#x2265;" horiz-adv-x="578" 
d="M90 593v16c0 10 5 13 14 9l382 -175c7 -3 11 -8 11 -16v-12c0 -7 -4 -12 -11 -16l-382 -176c-9 -4 -14 -1 -14 9v17c0 11 4 19 12 22l338 150v2l-338 149c-8 3 -12 10 -12 21zM103 131h381c9 0 13 -4 13 -13v-15c0 -9 -4 -13 -13 -13h-381c-9 0 -13 4 -13 12v16
c0 9 4 13 13 13z" />
    <glyph glyph-name="infinity" unicode="&#x221e;" horiz-adv-x="720" 
d="M361 320c35 77 87 115 156 115c43 0 79 -14 107 -42c27 -29 41 -65 41 -109c0 -43 -14 -78 -43 -106c-28 -28 -62 -42 -103 -42c-70 0 -123 37 -159 111c-35 -74 -89 -111 -160 -111c-41 0 -75 14 -103 42s-42 63 -42 105c0 45 14 81 42 109c29 29 65 43 108 43
c66 0 118 -38 156 -115zM338 285c-27 45 -39 65 -36 61c-27 34 -60 51 -98 51c-32 0 -58 -11 -79 -32s-31 -48 -31 -81c0 -31 10 -57 31 -78c20 -21 45 -32 76 -32c39 0 73 17 101 51c7 7 19 27 36 60zM627 284c0 33 -10 60 -31 81s-47 32 -79 32c-39 0 -72 -17 -99 -51
c-1 -1 -13 -22 -36 -61c19 -34 32 -54 38 -61c27 -33 61 -50 100 -50c30 0 55 11 76 32s31 47 31 78z" />
    <glyph glyph-name="integral" unicode="&#x222b;" horiz-adv-x="359" 
d="M157 -40v601c0 61 14 105 41 134c29 30 76 45 142 45c8 0 12 -4 12 -12v-17c0 -7 -4 -11 -12 -11c-51 0 -88 -12 -110 -35c-19 -22 -29 -57 -29 -105v-601c0 -61 -13 -105 -40 -134c-29 -30 -77 -45 -142 -45c-8 0 -12 4 -12 12v17c0 7 4 11 12 11c51 0 88 12 109 36
c19 21 29 56 29 104z" />
    <glyph glyph-name="less" unicode="&#x3c;" horiz-adv-x="504" 
d="M50 349l374 202c10 5 15 2 15 -9v-17c0 -9 -4 -17 -13 -22l-330 -175v-2l330 -176c9 -5 13 -12 13 -21v-19c0 -11 -5 -14 -15 -9l-374 202c-7 5 -11 10 -11 17v12c0 8 4 14 11 17z" />
    <glyph glyph-name="lessequal" unicode="&#x2264;" horiz-adv-x="578" 
d="M488 609v-16c0 -11 -4 -18 -12 -21l-338 -149v-2l338 -150c8 -3 12 -11 12 -22v-17c0 -10 -4 -13 -13 -9l-383 176c-7 4 -11 9 -11 16v12c0 8 4 13 11 16l383 175c9 4 13 1 13 -9zM95 131h380c9 0 13 -4 13 -13v-16c0 -8 -4 -12 -13 -12h-380c-9 0 -14 4 -14 13v15
c0 9 5 13 14 13z" />
    <glyph glyph-name="logicalnot" unicode="&#xac;" horiz-adv-x="576" 
d="M81 378h417c8 0 12 -4 12 -12v-215c0 -7 -4 -11 -12 -11h-20c-8 0 -12 4 -12 11v186h-385c-8 0 -12 4 -12 12v17c0 8 4 12 12 12z" />
    <glyph glyph-name="minus" unicode="&#x2212;" horiz-adv-x="602" 
d="M78 346h447c8 0 12 -4 12 -12v-17c0 -9 -4 -13 -12 -13h-447c-9 0 -13 4 -13 13v17c0 8 4 12 13 12z" />
    <glyph glyph-name="multiply" unicode="&#xd7;" horiz-adv-x="504" 
d="M278 324l157 -157c6 -6 6 -12 0 -18l-10 -10c-6 -6 -12 -6 -18 0l-157 157l-157 -156c-6 -6 -12 -6 -18 0l-10 10c-6 5 -6 11 0 18l157 156l-157 158c-6 6 -6 12 0 18l10 10c6 6 12 6 18 0l157 -158l157 158c6 6 12 6 18 0l10 -10c6 -6 6 -12 0 -18z" />
    <glyph glyph-name="notequal" unicode="&#x2260;" horiz-adv-x="620" 
d="M283 249h250c9 0 13 -4 13 -13v-16c0 -9 -4 -13 -13 -13h-271l-69 -134c-1 -3 -5 -4 -10 -4h-18c-3 0 -4 2 -2 5l67 133h-144c-8 0 -12 4 -12 13v16c0 9 4 13 12 13h166l79 156h-245c-8 0 -12 4 -12 12v17c0 9 4 13 12 13h267l68 132c1 3 4 4 9 4h19c3 0 4 -2 2 -5
l-67 -131h149c9 0 13 -4 13 -13v-17c0 -8 -4 -12 -13 -12h-170z" />
    </font>
</defs>
</svg>
